<svg width="2000px" height="1299px"
 viewBox="0.00 0.00 585.26 380.10" xmlns="http://www.w3.org/2000/svg" xmlns:xlink="http://www.w3.org/1999/xlink">
<g id="graph0" class="graph" transform="scale(1.0 1.0) rotate(0) translate(4 376.1)">
<title>ContextMapGraph</title>
<polygon fill="white" stroke="transparent" points="-4,4 -4,-376.1 581.26,-376.1 581.26,4 -4,4"/>
<!-- atencionCliente -->
<g id="node1" class="node">
<title>atencionCliente</title>
<polygon fill="none" stroke="black" stroke-width="2" points="178.04,-85.99 170.53,-85.07 163.18,-84.03 156.02,-82.89 149.08,-81.65 142.39,-80.31 135.97,-78.88 129.85,-77.37 124.06,-75.77 118.61,-74.09 113.53,-72.34 108.83,-70.52 104.53,-68.64 100.64,-66.71 97.18,-64.72 94.16,-62.69 91.58,-60.61 89.45,-58.5 87.77,-56.36 86.54,-54.2 85.76,-52.02 85.42,-49.82 85.52,-47.62 86.05,-45.41 87,-43.21 88.36,-41.01 90.11,-38.83 92.24,-36.67 94.73,-34.53 97.57,-32.42 100.74,-30.34 104.21,-28.29 107.98,-26.29 112.01,-24.34 116.28,-22.44 120.78,-20.59 125.49,-18.8 130.38,-17.08 135.43,-15.43 140.62,-13.84 145.94,-12.34 151.36,-10.91 156.87,-9.57 162.44,-8.31 168.07,-7.14 173.74,-6.07 179.42,-5.09 185.12,-4.21 190.81,-3.44 196.49,-2.77 202.15,-2.2 207.77,-1.75 213.34,-1.4 218.87,-1.17 224.34,-1.05 229.76,-1.05 235.1,-1.16 240.37,-1.39 245.57,-1.73 250.69,-2.2 255.73,-2.77 260.68,-3.47 265.55,-4.28 270.32,-5.2 275,-6.24 279.58,-7.39 284.05,-8.64 288.43,-10 292.69,-11.46 296.83,-13.02 300.85,-14.67 304.75,-16.42 308.5,-18.25 312.11,-20.16 315.57,-22.15 318.87,-24.21 321.99,-26.33 324.93,-28.51 327.67,-30.75 330.21,-33.03 332.53,-35.35 334.61,-37.7 336.45,-40.08 338.03,-42.48 339.34,-44.89 340.37,-47.3 341.1,-49.7 341.53,-52.1 341.63,-54.47 341.4,-56.82 340.83,-59.14 339.91,-61.41 338.63,-63.63 336.99,-65.8 334.97,-67.91 332.58,-69.95 329.82,-71.91 326.68,-73.79 323.16,-75.58 319.27,-77.28 315.02,-78.89 310.4,-80.39 305.44,-81.78 300.13,-83.06 294.51,-84.23 288.57,-85.28 282.34,-86.21 275.83,-87.01 269.08,-87.69 262.1,-88.24 254.91,-88.67 247.54,-88.97 240.02,-89.14 232.38,-89.18 224.65,-89.09 216.85,-88.88 209.02,-88.54 201.2,-88.08 193.4,-87.5 185.67,-86.81 178.04,-85.99"/>
<text text-anchor="middle" x="218.83" y="-40.76" font-family="sans-serif" font-size="16.00">atencionCliente</text>
</g>
<!-- devoluciones -->
<g id="node2" class="node">
<title>devoluciones</title>
<polygon fill="none" stroke="black" stroke-width="2" points="100.46,-280.68 107.33,-280.17 114.21,-279.78 121.06,-279.52 127.87,-279.38 134.6,-279.38 141.22,-279.5 147.72,-279.75 154.06,-280.13 160.24,-280.64 166.21,-281.28 171.97,-282.05 177.49,-282.94 182.77,-283.95 187.77,-285.08 192.49,-286.33 196.92,-287.7 201.05,-289.17 204.86,-290.75 208.35,-292.43 211.53,-294.2 214.37,-296.07 216.89,-298.01 219.08,-300.04 220.94,-302.14 222.48,-304.3 223.7,-306.52 224.61,-308.79 225.21,-311.11 225.51,-313.46 225.52,-315.84 225.25,-318.24 224.71,-320.66 223.9,-323.08 222.85,-325.5 221.56,-327.91 220.04,-330.3 218.31,-332.67 216.36,-335.01 214.23,-337.31 211.91,-339.57 209.41,-341.78 206.75,-343.92 203.94,-346.01 200.98,-348.02 197.88,-349.96 194.65,-351.81 191.3,-353.59 187.83,-355.27 184.25,-356.86 180.56,-358.35 176.77,-359.74 172.88,-361.02 168.9,-362.2 164.82,-363.27 160.66,-364.22 156.41,-365.07 152.08,-365.79 147.67,-366.41 143.19,-366.9 138.62,-367.28 133.99,-367.54 129.29,-367.69 124.53,-367.72 119.71,-367.64 114.83,-367.44 109.91,-367.13 104.94,-366.71 99.94,-366.18 94.91,-365.54 89.87,-364.8 84.81,-363.96 79.77,-363.01 74.73,-361.97 69.73,-360.84 64.77,-359.62 59.86,-358.31 55.03,-356.91 50.29,-355.43 45.65,-353.88 41.13,-352.26 36.75,-350.56 32.54,-348.8 28.5,-346.98 24.65,-345.1 21.02,-343.17 17.63,-341.19 14.48,-339.17 11.6,-337.1 9.01,-335 6.73,-332.88 4.76,-330.72 3.13,-328.55 1.84,-326.36 0.91,-324.16 0.35,-321.95 0.17,-319.74 0.37,-317.54 0.97,-315.35 1.96,-313.18 3.35,-311.02 5.14,-308.9 7.32,-306.8 9.89,-304.74 12.85,-302.73 16.19,-300.77 19.89,-298.86 23.95,-297.01 28.36,-295.22 33.08,-293.51 38.12,-291.87 43.44,-290.31 49.03,-288.84 54.86,-287.45 60.92,-286.17 67.17,-284.98 73.6,-283.9 80.16,-282.92 86.85,-282.06 93.63,-281.31 100.46,-280.68"/>
<text text-anchor="middle" x="117.83" y="-320.37" font-family="sans-serif" font-size="16.00">devoluciones</text>
</g>
<!-- ventas -->
<g id="node3" class="node">
<title>ventas</title>
<polygon fill="none" stroke="black" stroke-width="2" points="229.04,-226.2 224.51,-226.66 219.98,-227 215.47,-227.21 210.99,-227.3 206.57,-227.26 202.21,-227.09 197.95,-226.79 193.79,-226.36 189.74,-225.81 185.83,-225.13 182.07,-224.32 178.46,-223.4 175.02,-222.35 171.76,-221.18 168.69,-219.9 165.82,-218.51 163.15,-217.01 160.69,-215.4 158.43,-213.7 156.4,-211.91 154.58,-210.03 152.98,-208.07 151.6,-206.03 150.43,-203.92 149.48,-201.75 148.74,-199.53 148.2,-197.26 147.87,-194.94 147.74,-192.59 147.8,-190.22 148.05,-187.82 148.47,-185.42 149.06,-183.01 149.82,-180.6 150.74,-178.2 151.8,-175.82 153.01,-173.47 154.35,-171.15 155.82,-168.87 157.41,-166.63 159.11,-164.45 160.92,-162.33 162.83,-160.27 164.83,-158.28 166.92,-156.37 169.09,-154.54 171.35,-152.79 173.68,-151.14 176.08,-149.58 178.54,-148.12 181.07,-146.76 183.67,-145.51 186.32,-144.36 189.03,-143.32 191.79,-142.4 194.61,-141.59 197.47,-140.89 200.39,-140.31 203.35,-139.85 206.36,-139.51 209.42,-139.28 212.51,-139.17 215.64,-139.17 218.81,-139.29 222.01,-139.52 225.24,-139.87 228.49,-140.32 231.77,-140.89 235.06,-141.56 238.35,-142.33 241.65,-143.21 244.94,-144.19 248.22,-145.26 251.48,-146.43 254.71,-147.69 257.9,-149.03 261.04,-150.46 264.11,-151.96 267.12,-153.55 270.05,-155.2 272.88,-156.92 275.6,-158.71 278.21,-160.56 280.68,-162.46 283.01,-164.41 285.19,-166.41 287.2,-168.45 289.04,-170.53 290.68,-172.65 292.13,-174.79 293.36,-176.95 294.37,-179.13 295.16,-181.33 295.71,-183.53 296.02,-185.74 296.07,-187.94 295.88,-190.14 295.43,-192.32 294.71,-194.48 293.74,-196.62 292.5,-198.73 291.01,-200.8 289.26,-202.84 287.26,-204.83 285.01,-206.76 282.52,-208.64 279.8,-210.46 276.86,-212.21 273.7,-213.89 270.35,-215.49 266.8,-217 263.09,-218.43 259.21,-219.77 255.2,-221.01 251.05,-222.15 246.8,-223.19 242.45,-224.11 238.03,-224.93 233.56,-225.62 229.04,-226.2"/>
<text text-anchor="middle" x="218.83" y="-178.88" font-family="sans-serif" font-size="16.00">ventas</text>
</g>
<!-- devoluciones&#45;&gt;ventas -->
<g id="edge1" class="edge">
<title>devoluciones&#45;&gt;ventas</title>
<path fill="none" stroke="black" stroke-width="2" d="M129.81,-279.18C134.12,-267.55 139.72,-255.42 146.83,-245.24 153.05,-236.34 160.85,-227.94 169,-220.37"/>
<text text-anchor="middle" x="222.33" y="-248.64" font-family="sans-serif" font-size="12.00"> &#160;&#160;&#160;&#160;&#160;&#160;&#160;&#160;&#160;&#160;&#160;&#160;&#160;&#160;&#160;&#160;&#160;&#160;&#160;&#160;&#160;&#160;&#160;&#160;&#160;&#160;&#160;&#160;&#160;&#160;&#160;&#160;&#160;&#160;&#160;&#160;&#160;&#160;&#160;</text>
<polygon fill="white" stroke="transparent" points="146,-210.37 146,-229.37 162,-229.37 162,-210.37 146,-210.37"/>
<polyline fill="none" stroke="black" points="162,-210.37 162,-229.37 "/>
<text text-anchor="start" x="149" y="-216.77" font-family="sans-serif" font-size="12.00">D</text>
<polygon fill="white" stroke="transparent" points="162,-210.37 162,-229.37 192,-229.37 192,-210.37 162,-210.37"/>
<polygon fill="none" stroke="black" points="162,-210.37 162,-229.37 192,-229.37 192,-210.37 162,-210.37"/>
<text text-anchor="start" x="165" y="-216.77" font-family="sans-serif" font-size="12.00">ACL</text>
<polygon fill="white" stroke="transparent" points="122.81,-270.18 122.81,-287.18 136.81,-287.18 136.81,-270.18 122.81,-270.18"/>
<text text-anchor="start" x="124.81" y="-275.58" font-family="sans-serif" font-size="12.00">U</text>
</g>
<!-- ventas&#45;&gt;atencionCliente -->
<g id="edge2" class="edge">
<title>ventas&#45;&gt;atencionCliente</title>
<path fill="none" stroke="black" stroke-width="2" d="M218.83,-138.98C218.83,-123.08 218.83,-105.02 218.83,-89.04"/>
<text text-anchor="middle" x="294.33" y="-110.52" font-family="sans-serif" font-size="12.00"> &#160;&#160;&#160;&#160;&#160;&#160;&#160;&#160;&#160;&#160;&#160;&#160;&#160;&#160;&#160;&#160;&#160;&#160;&#160;&#160;&#160;&#160;&#160;&#160;&#160;&#160;&#160;&#160;&#160;&#160;&#160;&#160;&#160;&#160;&#160;&#160;&#160;&#160;&#160;</text>
<polygon fill="white" stroke="transparent" points="195.83,-79.04 195.83,-98.04 211.83,-98.04 211.83,-79.04 195.83,-79.04"/>
<polyline fill="none" stroke="black" points="211.83,-79.04 211.83,-98.04 "/>
<text text-anchor="start" x="198.83" y="-85.44" font-family="sans-serif" font-size="12.00">D</text>
<polygon fill="white" stroke="transparent" points="211.83,-79.04 211.83,-98.04 241.83,-98.04 241.83,-79.04 211.83,-79.04"/>
<polygon fill="none" stroke="black" points="211.83,-79.04 211.83,-98.04 241.83,-98.04 241.83,-79.04 211.83,-79.04"/>
<text text-anchor="start" x="214.83" y="-85.44" font-family="sans-serif" font-size="12.00">ACL</text>
<polygon fill="white" stroke="transparent" points="211.83,-129.98 211.83,-146.98 225.83,-146.98 225.83,-129.98 211.83,-129.98"/>
<text text-anchor="start" x="213.83" y="-135.38" font-family="sans-serif" font-size="12.00">U</text>
</g>
<!-- login -->
<g id="node4" class="node">
<title>login</title>
<polygon fill="none" stroke="black" stroke-width="2" points="289.41,-361.81 286.03,-360.39 282.75,-358.88 279.59,-357.27 276.56,-355.58 273.67,-353.82 270.94,-351.98 268.38,-350.08 266,-348.12 263.8,-346.11 261.8,-344.05 260,-341.95 258.41,-339.82 257.04,-337.66 255.88,-335.48 254.95,-333.29 254.24,-331.09 253.76,-328.88 253.5,-326.67 253.47,-324.48 253.66,-322.29 254.06,-320.13 254.68,-317.98 255.51,-315.87 256.54,-313.78 257.76,-311.73 259.17,-309.72 260.76,-307.76 262.52,-305.84 264.43,-303.97 266.5,-302.16 268.71,-300.4 271.04,-298.71 273.49,-297.08 276.05,-295.51 278.7,-294.02 281.44,-292.6 284.24,-291.25 287.11,-289.99 290.03,-288.8 292.98,-287.69 295.97,-286.67 298.98,-285.74 301.99,-284.9 305.01,-284.14 308.03,-283.49 311.02,-282.92 314,-282.46 316.95,-282.09 319.87,-281.83 322.74,-281.67 325.57,-281.61 328.36,-281.65 331.09,-281.81 333.76,-282.07 336.37,-282.44 338.92,-282.91 341.41,-283.5 343.83,-284.2 346.18,-285 348.46,-285.91 350.67,-286.93 352.81,-288.06 354.88,-289.29 356.87,-290.62 358.78,-292.05 360.62,-293.59 362.38,-295.21 364.06,-296.93 365.65,-298.74 367.17,-300.63 368.6,-302.6 369.94,-304.65 371.18,-306.76 372.34,-308.94 373.4,-311.18 374.35,-313.47 375.21,-315.8 375.95,-318.17 376.59,-320.57 377.11,-323 377.5,-325.44 377.78,-327.89 377.92,-330.34 377.93,-332.78 377.8,-335.2 377.53,-337.6 377.12,-339.97 376.55,-342.29 375.83,-344.57 374.96,-346.79 373.92,-348.95 372.73,-351.03 371.38,-353.04 369.86,-354.96 368.18,-356.78 366.33,-358.51 364.33,-360.13 362.17,-361.64 359.85,-363.03 357.38,-364.3 354.77,-365.45 352.01,-366.47 349.12,-367.35 346.1,-368.1 342.96,-368.72 339.71,-369.2 336.36,-369.54 332.93,-369.73 329.41,-369.79 325.83,-369.72 322.2,-369.5 318.52,-369.15 314.82,-368.66 311.11,-368.05 307.4,-367.3 303.71,-366.44 300.05,-365.45 296.44,-364.35 292.89,-363.13 289.41,-361.81"/>
<text text-anchor="middle" x="319.83" y="-320.37" font-family="sans-serif" font-size="16.00">login</text>
</g>
<!-- login&#45;&gt;ventas -->
<g id="edge3" class="edge">
<title>login&#45;&gt;ventas</title>
<path fill="none" stroke="black" stroke-width="2" d="M313.41,-282.22C310.13,-269.62 305.21,-256.2 297.83,-245.24 290.46,-234.27 280.5,-224.39 270.14,-215.92"/>
<text text-anchor="middle" x="379.33" y="-248.64" font-family="sans-serif" font-size="12.00"> &#160;&#160;&#160;&#160;&#160;&#160;&#160;&#160;&#160;&#160;&#160;&#160;&#160;&#160;&#160;&#160;&#160;&#160;&#160;&#160;&#160;&#160;&#160;&#160;&#160;&#160;&#160;&#160;&#160;&#160;&#160;&#160;&#160;&#160;&#160;&#160;&#160;&#160;&#160;</text>
<polygon fill="white" stroke="transparent" points="263.14,-206.92 263.14,-223.92 277.14,-223.92 277.14,-206.92 263.14,-206.92"/>
<text text-anchor="start" x="265.14" y="-212.32" font-family="sans-serif" font-size="12.00">D</text>
<polygon fill="white" stroke="transparent" points="306.41,-273.22 306.41,-290.22 320.41,-290.22 320.41,-273.22 306.41,-273.22"/>
<text text-anchor="start" x="308.41" y="-278.62" font-family="sans-serif" font-size="12.00">U</text>
</g>
<!-- logistica -->
<g id="node5" class="node">
<title>logistica</title>
<polygon fill="none" stroke="black" stroke-width="2" points="538.52,-359.04 534.49,-360.81 530.34,-362.48 526.11,-364.03 521.81,-365.46 517.44,-366.76 513.04,-367.93 508.61,-368.96 504.17,-369.85 499.73,-370.59 495.31,-371.18 490.93,-371.62 486.6,-371.9 482.33,-372.03 478.13,-372 474.02,-371.81 470,-371.46 466.09,-370.96 462.29,-370.31 458.61,-369.51 455.07,-368.56 451.66,-367.47 448.39,-366.25 445.28,-364.89 442.31,-363.4 439.5,-361.8 436.85,-360.08 434.36,-358.26 432.03,-356.34 429.87,-354.33 427.87,-352.24 426.03,-350.08 424.36,-347.85 422.86,-345.57 421.52,-343.24 420.34,-340.88 419.32,-338.48 418.46,-336.06 417.76,-333.63 417.23,-331.2 416.84,-328.77 416.62,-326.35 416.55,-323.95 416.63,-321.58 416.87,-319.24 417.26,-316.94 417.8,-314.68 418.49,-312.48 419.34,-310.33 420.33,-308.24 421.48,-306.22 422.78,-304.27 424.23,-302.39 425.83,-300.59 427.59,-298.87 429.49,-297.22 431.54,-295.67 433.75,-294.19 436.1,-292.8 438.6,-291.5 441.24,-290.29 444.03,-289.17 446.96,-288.13 450.03,-287.19 453.23,-286.33 456.56,-285.56 460.02,-284.89 463.6,-284.3 467.29,-283.8 471.09,-283.39 474.98,-283.07 478.97,-282.84 483.04,-282.69 487.18,-282.64 491.38,-282.67 495.62,-282.79 499.91,-283 504.21,-283.29 508.53,-283.67 512.84,-284.14 517.14,-284.7 521.4,-285.35 525.61,-286.08 529.76,-286.9 533.83,-287.81 537.8,-288.81 541.66,-289.89 545.4,-291.07 549,-292.33 552.44,-293.67 555.7,-295.1 558.78,-296.61 561.67,-298.21 564.34,-299.89 566.78,-301.64 568.99,-303.47 570.96,-305.38 572.67,-307.35 574.11,-309.39 575.29,-311.49 576.19,-313.65 576.81,-315.87 577.15,-318.13 577.2,-320.43 576.96,-322.77 576.44,-325.14 575.63,-327.53 574.54,-329.94 573.18,-332.36 571.54,-334.78 569.65,-337.19 567.49,-339.58 565.1,-341.96 562.46,-344.29 559.61,-346.59 556.54,-348.84 553.28,-351.03 549.83,-353.15 546.21,-355.2 542.43,-357.17 538.52,-359.04"/>
<text text-anchor="middle" x="490.83" y="-320.37" font-family="sans-serif" font-size="16.00">logistica</text>
</g>
</g>
</svg>
