<svg width="2000px" height="452px"
 viewBox="0.00 0.00 2989.42 675.53" xmlns="http://www.w3.org/2000/svg" xmlns:xlink="http://www.w3.org/1999/xlink">
<g id="graph0" class="graph" transform="scale(1.0 1.0) rotate(0) translate(4 671.53)">
<title>ContextMapGraph</title>
<polygon fill="white" stroke="transparent" points="-4,4 -4,-671.53 2985.42,-671.53 2985.42,4 -4,4"/>
<!-- AnaliticasReportingContext -->
<g id="node1" class="node">
<title>AnaliticasReportingContext</title>
<polygon fill="none" stroke="black" stroke-width="2" points="97.85,-582.68 107.73,-580.97 117.84,-579.38 128.15,-577.9 138.62,-576.55 149.2,-575.32 159.87,-574.23 170.57,-573.28 181.28,-572.48 191.95,-571.82 202.55,-571.31 213.05,-570.96 223.41,-570.76 233.6,-570.71 243.59,-570.83 253.36,-571.1 262.88,-571.52 272.12,-572.1 281.07,-572.83 289.7,-573.71 298,-574.73 305.96,-575.9 313.55,-577.2 320.77,-578.62 327.61,-580.17 334.07,-581.84 340.13,-583.62 345.78,-585.5 351.04,-587.48 355.9,-589.54 360.35,-591.68 364.39,-593.89 368.04,-596.16 371.28,-598.49 374.13,-600.86 376.59,-603.26 378.66,-605.69 380.34,-608.14 381.64,-610.6 382.56,-613.06 383.1,-615.51 383.28,-617.95 383.09,-620.36 382.54,-622.75 381.63,-625.1 380.36,-627.4 378.73,-629.66 376.75,-631.86 374.42,-634.01 371.73,-636.08 368.7,-638.09 365.31,-640.03 361.58,-641.89 357.5,-643.67 353.07,-645.37 348.29,-646.99 343.17,-648.52 337.7,-649.96 331.9,-651.31 325.75,-652.56 319.27,-653.73 312.46,-654.81 305.33,-655.79 297.89,-656.68 290.13,-657.48 282.08,-658.18 273.75,-658.8 265.14,-659.32 256.27,-659.75 247.17,-660.08 237.84,-660.33 228.31,-660.49 218.6,-660.55 208.74,-660.53 198.75,-660.41 188.65,-660.21 178.48,-659.92 168.27,-659.54 158.05,-659.07 147.85,-658.51 137.71,-657.87 127.65,-657.13 117.73,-656.31 107.97,-655.4 98.42,-654.41 89.1,-653.33 80.07,-652.16 71.34,-650.91 62.97,-649.57 54.98,-648.15 47.41,-646.65 40.3,-645.07 33.67,-643.4 27.57,-641.67 22,-639.85 17.01,-637.97 12.62,-636.01 8.84,-634 5.7,-631.92 3.21,-629.78 1.39,-627.59 0.24,-625.35 -0.22,-623.07 0,-620.75 0.92,-618.4 2.51,-616.03 4.79,-613.64 7.74,-611.23 11.35,-608.83 15.6,-606.43 20.48,-604.04 25.96,-601.68 32.02,-599.34 38.64,-597.04 45.78,-594.78 53.42,-592.58 61.53,-590.44 70.06,-588.37 78.98,-586.39 88.26,-584.48 97.85,-582.68"/>
<text text-anchor="middle" x="206.22" y="-614.88" font-family="sans-serif" font-size="16.00">AnaliticasReportingContext</text>
</g>
<!-- VentasContext -->
<g id="node2" class="node">
<title>VentasContext</title>
<polygon fill="none" stroke="black" stroke-width="2" points="997.67,-508.55 991.62,-510.25 985.42,-511.84 979.1,-513.32 972.68,-514.68 966.19,-515.9 959.65,-516.99 953.08,-517.94 946.52,-518.75 939.97,-519.41 933.47,-519.91 927.03,-520.27 920.68,-520.47 914.43,-520.51 908.3,-520.4 902.31,-520.13 896.48,-519.7 890.81,-519.12 885.32,-518.39 880.03,-517.51 874.94,-516.49 870.06,-515.33 865.41,-514.03 860.98,-512.6 856.78,-511.05 852.83,-509.38 849.11,-507.6 845.64,-505.72 842.42,-503.75 839.44,-501.69 836.71,-499.54 834.23,-497.33 832,-495.06 830.01,-492.74 828.26,-490.37 826.75,-487.96 825.49,-485.53 824.45,-483.08 823.66,-480.62 823.09,-478.17 822.76,-475.71 822.65,-473.28 822.76,-470.86 823.1,-468.48 823.66,-466.13 824.44,-463.82 825.44,-461.56 826.65,-459.36 828.08,-457.22 829.73,-455.14 831.59,-453.13 833.67,-451.19 835.96,-449.33 838.46,-447.55 841.18,-445.85 844.11,-444.24 847.25,-442.71 850.6,-441.27 854.16,-439.92 857.93,-438.66 861.9,-437.49 866.07,-436.42 870.45,-435.43 875.01,-434.54 879.77,-433.74 884.7,-433.04 889.82,-432.43 895.09,-431.91 900.53,-431.48 906.11,-431.14 911.83,-430.89 917.68,-430.74 923.63,-430.67 929.68,-430.7 935.8,-430.81 941.99,-431.01 948.23,-431.31 954.49,-431.69 960.76,-432.16 967.02,-432.71 973.23,-433.36 979.4,-434.09 985.48,-434.91 991.47,-435.82 997.32,-436.81 1003.04,-437.9 1008.58,-439.06 1013.93,-440.32 1019.06,-441.65 1023.96,-443.07 1028.6,-444.58 1032.96,-446.16 1037.03,-447.82 1040.77,-449.56 1044.18,-451.37 1047.24,-453.26 1049.94,-455.21 1052.25,-457.23 1054.18,-459.31 1055.71,-461.45 1056.82,-463.64 1057.53,-465.88 1057.81,-468.16 1057.67,-470.47 1057.11,-472.82 1056.13,-475.2 1054.74,-477.59 1052.93,-479.99 1050.72,-482.39 1048.11,-484.79 1045.12,-487.18 1041.76,-489.55 1038.04,-491.89 1033.98,-494.19 1029.6,-496.44 1024.92,-498.64 1019.95,-500.78 1014.72,-502.85 1009.24,-504.84 1003.56,-506.74 997.67,-508.55"/>
<text text-anchor="middle" x="931.22" y="-468.74" font-family="sans-serif" font-size="16.00">VentasContext</text>
</g>
<!-- AnaliticasReportingContext&#45;&gt;VentasContext -->
<g id="edge1" class="edge">
<title>AnaliticasReportingContext&#45;&gt;VentasContext</title>
<path fill="none" stroke="black" stroke-width="2" d="M346.97,-585.85C372,-580.37 397.86,-574.84 422.22,-569.84 562.96,-540.94 726.26,-510.61 829.15,-491.89"/>
<text text-anchor="middle" x="610.72" y="-542.24" font-family="sans-serif" font-size="12.00">Partnership</text>
</g>
<!-- AutenticacionAutorizacionContext -->
<g id="node3" class="node">
<title>AutenticacionAutorizacionContext</title>
<polygon fill="none" stroke="black" stroke-width="2" points="1828.22,-622.79 1826.62,-619.93 1825.66,-617.08 1825.33,-614.25 1825.64,-611.45 1826.6,-608.69 1828.2,-605.98 1830.45,-603.33 1833.34,-600.75 1836.86,-598.25 1841,-595.84 1845.77,-593.53 1851.13,-591.33 1857.09,-589.23 1863.63,-587.26 1870.72,-585.41 1878.35,-583.68 1886.49,-582.09 1895.13,-580.64 1904.23,-579.32 1913.77,-578.14 1923.73,-577.1 1934.06,-576.2 1944.75,-575.45 1955.75,-574.83 1967.04,-574.35 1978.58,-574 1990.33,-573.79 2002.26,-573.7 2014.33,-573.74 2026.51,-573.9 2038.75,-574.18 2051.03,-574.57 2063.29,-575.07 2075.51,-575.67 2087.65,-576.37 2099.68,-577.16 2111.54,-578.03 2123.22,-578.99 2134.68,-580.03 2145.88,-581.14 2156.79,-582.32 2167.38,-583.56 2177.62,-584.86 2187.48,-586.21 2196.93,-587.62 2205.96,-589.08 2214.53,-590.57 2222.62,-592.12 2230.22,-593.7 2237.3,-595.31 2243.84,-596.97 2249.84,-598.65 2255.27,-600.37 2260.13,-602.12 2264.41,-603.89 2268.09,-605.69 2271.17,-607.52 2273.65,-609.38 2275.53,-611.25 2276.8,-613.15 2277.46,-615.07 2277.51,-617.01 2276.97,-618.97 2275.82,-620.94 2274.09,-622.93 2271.78,-624.93 2268.89,-626.94 2265.45,-628.95 2261.45,-630.97 2256.91,-632.99 2251.85,-635.01 2246.29,-637.01 2240.23,-639.01 2233.69,-640.98 2226.7,-642.93 2219.27,-644.86 2211.42,-646.74 2203.17,-648.59 2194.55,-650.38 2185.57,-652.12 2176.25,-653.8 2166.63,-655.41 2156.72,-656.94 2146.54,-658.39 2136.13,-659.75 2125.5,-661 2114.68,-662.15 2103.7,-663.19 2092.59,-664.11 2081.36,-664.9 2070.05,-665.55 2058.69,-666.07 2047.3,-666.45 2035.9,-666.68 2024.54,-666.76 2013.23,-666.68 2002,-666.44 1990.88,-666.04 1979.9,-665.48 1969.09,-664.76 1958.48,-663.88 1948.09,-662.84 1937.95,-661.64 1928.09,-660.28 1918.53,-658.78 1909.31,-657.12 1900.44,-655.33 1891.96,-653.4 1883.88,-651.34 1876.24,-649.16 1869.06,-646.87 1862.35,-644.47 1856.15,-641.98 1850.46,-639.4 1845.31,-636.75 1840.72,-634.04 1836.7,-631.28 1833.27,-628.47 1830.44,-625.64 1828.22,-622.79"/>
<text text-anchor="middle" x="2053.22" y="-614.88" font-family="sans-serif" font-size="16.00">AutenticacionAutorizacionContext</text>
</g>
<!-- CarritoComprasContext -->
<g id="node4" class="node">
<title>CarritoComprasContext</title>
<polygon fill="none" stroke="black" stroke-width="2" points="1889,-478.9 1887.26,-476.08 1885.99,-473.25 1885.19,-470.44 1884.87,-467.66 1885.02,-464.9 1885.66,-462.19 1886.79,-459.54 1888.4,-456.94 1890.48,-454.43 1893.05,-451.99 1896.09,-449.65 1899.59,-447.4 1903.55,-445.26 1907.95,-443.23 1912.78,-441.32 1918.04,-439.53 1923.7,-437.87 1929.75,-436.33 1936.16,-434.93 1942.93,-433.66 1950.02,-432.53 1957.43,-431.53 1965.12,-430.67 1973.07,-429.95 1981.25,-429.35 1989.64,-428.89 1998.22,-428.56 2006.95,-428.35 2015.82,-428.27 2024.78,-428.31 2033.81,-428.46 2042.89,-428.73 2051.99,-429.1 2061.07,-429.57 2070.12,-430.14 2079.09,-430.8 2087.97,-431.55 2096.72,-432.39 2105.33,-433.3 2113.76,-434.29 2122,-435.35 2130.01,-436.48 2137.78,-437.67 2145.28,-438.91 2152.49,-440.21 2159.4,-441.57 2165.98,-442.97 2172.22,-444.42 2178.11,-445.92 2183.62,-447.45 2188.75,-449.03 2193.48,-450.64 2197.8,-452.29 2201.71,-453.98 2205.2,-455.7 2208.26,-457.45 2210.88,-459.24 2213.07,-461.06 2214.81,-462.9 2216.12,-464.77 2216.98,-466.68 2217.4,-468.6 2217.39,-470.55 2216.94,-472.53 2216.06,-474.52 2214.76,-476.53 2213.04,-478.56 2210.91,-480.59 2208.38,-482.64 2205.45,-484.69 2202.14,-486.75 2198.45,-488.8 2194.4,-490.84 2190,-492.87 2185.26,-494.88 2180.19,-496.86 2174.8,-498.82 2169.12,-500.73 2163.15,-502.61 2156.9,-504.43 2150.4,-506.19 2143.66,-507.89 2136.69,-509.51 2129.52,-511.05 2122.14,-512.5 2114.6,-513.86 2106.89,-515.11 2099.04,-516.25 2091.07,-517.28 2082.99,-518.18 2074.83,-518.94 2066.6,-519.58 2058.31,-520.07 2050,-520.41 2041.68,-520.6 2033.37,-520.64 2025.09,-520.51 2016.85,-520.23 2008.69,-519.79 2000.62,-519.18 1992.66,-518.41 1984.83,-517.48 1977.16,-516.39 1969.66,-515.15 1962.35,-513.75 1955.26,-512.2 1948.4,-510.5 1941.8,-508.67 1935.47,-506.71 1929.43,-504.62 1923.71,-502.41 1918.32,-500.1 1913.27,-497.68 1908.59,-495.18 1904.29,-492.6 1900.39,-489.95 1896.89,-487.25 1893.82,-484.49 1891.19,-481.71 1889,-478.9"/>
<text text-anchor="middle" x="2053.22" y="-468.74" font-family="sans-serif" font-size="16.00">CarritoComprasContext</text>
</g>
<!-- AutenticacionAutorizacionContext&#45;&gt;CarritoComprasContext -->
<g id="edge2" class="edge">
<title>AutenticacionAutorizacionContext&#45;&gt;CarritoComprasContext</title>
<path fill="none" stroke="black" stroke-width="2" d="M2053.22,-574.44C2053.22,-557.44 2053.22,-537.87 2053.22,-520.53"/>
<text text-anchor="middle" x="2109.22" y="-542.24" font-family="sans-serif" font-size="12.00">Customer/Supplier</text>
<polygon fill="white" stroke="transparent" points="2046.22,-511.53 2046.22,-528.53 2060.22,-528.53 2060.22,-511.53 2046.22,-511.53"/>
<text text-anchor="start" x="2048.22" y="-516.93" font-family="sans-serif" font-size="12.00">D</text>
<polygon fill="white" stroke="transparent" points="2046.22,-565.44 2046.22,-582.44 2060.22,-582.44 2060.22,-565.44 2046.22,-565.44"/>
<text text-anchor="start" x="2048.22" y="-570.84" font-family="sans-serif" font-size="12.00">U</text>
</g>
<!-- GestionProductosContext -->
<g id="node5" class="node">
<title>GestionProductosContext</title>
<polygon fill="none" stroke="black" stroke-width="2" points="2018.07,-316.37 2020.81,-313.59 2024.01,-310.86 2027.64,-308.19 2031.7,-305.59 2036.18,-303.07 2041.06,-300.64 2046.33,-298.31 2051.97,-296.09 2057.96,-293.99 2064.29,-292.01 2070.93,-290.16 2077.88,-288.46 2085.1,-286.89 2092.58,-285.48 2100.29,-284.22 2108.23,-283.11 2116.36,-282.16 2124.67,-281.37 2133.13,-280.74 2141.72,-280.27 2150.42,-279.96 2159.2,-279.81 2168.05,-279.8 2176.95,-279.95 2185.86,-280.25 2194.77,-280.69 2203.66,-281.27 2212.5,-281.98 2221.27,-282.82 2229.95,-283.77 2238.52,-284.85 2246.96,-286.02 2255.25,-287.3 2263.37,-288.67 2271.29,-290.13 2279,-291.66 2286.48,-293.27 2293.71,-294.94 2300.67,-296.67 2307.34,-298.45 2313.7,-300.27 2319.75,-302.14 2325.46,-304.03 2330.82,-305.95 2335.81,-307.89 2340.42,-309.85 2344.63,-311.82 2348.44,-313.8 2351.83,-315.78 2354.8,-317.76 2357.32,-319.74 2359.4,-321.72 2361.02,-323.68 2362.19,-325.64 2362.89,-327.58 2363.11,-329.51 2362.87,-331.42 2362.15,-333.32 2360.95,-335.2 2359.28,-337.06 2357.14,-338.9 2354.52,-340.72 2351.45,-342.51 2347.91,-344.28 2343.93,-346.03 2339.5,-347.74 2334.64,-349.43 2329.36,-351.09 2323.67,-352.71 2317.59,-354.3 2311.14,-355.85 2304.32,-357.36 2297.17,-358.82 2289.69,-360.24 2281.9,-361.6 2273.84,-362.91 2265.52,-364.15 2256.97,-365.33 2248.2,-366.44 2239.25,-367.47 2230.15,-368.43 2220.91,-369.29 2211.56,-370.07 2202.14,-370.75 2192.67,-371.33 2183.18,-371.8 2173.7,-372.16 2164.25,-372.4 2154.87,-372.52 2145.58,-372.52 2136.41,-372.38 2127.39,-372.12 2118.54,-371.71 2109.9,-371.17 2101.48,-370.49 2093.32,-369.67 2085.43,-368.7 2077.85,-367.6 2070.58,-366.35 2063.67,-364.96 2057.11,-363.43 2050.94,-361.77 2045.16,-359.97 2039.81,-358.05 2034.88,-356.01 2030.4,-353.85 2026.37,-351.59 2022.81,-349.22 2019.72,-346.76 2017.12,-344.21 2015,-341.59 2013.38,-338.91 2012.24,-336.16 2011.61,-333.38 2011.47,-330.56 2011.82,-327.72 2012.66,-324.87 2013.99,-322.02 2015.8,-319.18 2018.07,-316.37"/>
<text text-anchor="middle" x="2188.22" y="-323.63" font-family="sans-serif" font-size="16.00">GestionProductosContext</text>
</g>
<!-- CarritoComprasContext&#45;&gt;GestionProductosContext -->
<g id="edge3" class="edge">
<title>CarritoComprasContext&#45;&gt;GestionProductosContext</title>
<path fill="none" stroke="black" stroke-width="2" d="M2132.1,-436.72C2144.9,-428.25 2156.97,-418.13 2166.22,-406.24 2173.89,-396.38 2178.89,-383.97 2182.14,-371.98"/>
<text text-anchor="middle" x="2231.22" y="-396.64" font-family="sans-serif" font-size="12.00">Customer/Supplier</text>
<polygon fill="white" stroke="transparent" points="2175.14,-362.98 2175.14,-379.98 2189.14,-379.98 2189.14,-362.98 2175.14,-362.98"/>
<text text-anchor="start" x="2177.14" y="-368.38" font-family="sans-serif" font-size="12.00">D</text>
<polygon fill="white" stroke="transparent" points="2125.1,-427.72 2125.1,-444.72 2139.1,-444.72 2139.1,-427.72 2125.1,-427.72"/>
<text text-anchor="start" x="2127.1" y="-433.12" font-family="sans-serif" font-size="12.00">U</text>
</g>
<!-- GestionClientesContext -->
<g id="node6" class="node">
<title>GestionClientesContext</title>
<polygon fill="none" stroke="black" stroke-width="2" points="1960.06,-149.88 1968.51,-151.68 1976.61,-153.56 1984.34,-155.51 1991.65,-157.53 1998.52,-159.61 2004.92,-161.75 2010.83,-163.92 2016.21,-166.14 2021.04,-168.39 2025.32,-170.66 2029.01,-172.94 2032.11,-175.23 2034.6,-177.53 2036.48,-179.82 2037.74,-182.1 2038.37,-184.36 2038.39,-186.61 2037.79,-188.82 2036.58,-191 2034.77,-193.14 2032.38,-195.24 2029.41,-197.29 2025.88,-199.29 2021.82,-201.24 2017.25,-203.13 2012.18,-204.96 2006.65,-206.72 2000.69,-208.42 1994.32,-210.05 1987.57,-211.61 1980.47,-213.1 1973.06,-214.5 1965.36,-215.84 1957.42,-217.09 1949.25,-218.27 1940.9,-219.36 1932.4,-220.37 1923.78,-221.3 1915.07,-222.14 1906.3,-222.89 1897.49,-223.56 1888.68,-224.14 1879.9,-224.63 1871.17,-225.02 1862.51,-225.33 1853.94,-225.54 1845.49,-225.66 1837.18,-225.68 1829.02,-225.61 1821.03,-225.44 1813.22,-225.17 1805.61,-224.81 1798.21,-224.34 1791.03,-223.77 1784.07,-223.11 1777.35,-222.34 1770.87,-221.48 1764.64,-220.51 1758.66,-219.44 1752.94,-218.28 1747.47,-217.01 1742.27,-215.65 1737.33,-214.19 1732.66,-212.64 1728.25,-211 1724.12,-209.28 1720.26,-207.46 1716.67,-205.56 1713.36,-203.59 1710.32,-201.54 1707.57,-199.43 1705.11,-197.25 1702.94,-195.01 1701.06,-192.72 1699.48,-190.38 1698.21,-188 1697.25,-185.59 1696.61,-183.16 1696.29,-180.71 1696.31,-178.24 1696.66,-175.78 1697.37,-173.32 1698.43,-170.88 1699.85,-168.46 1701.64,-166.08 1703.8,-163.73 1706.35,-161.43 1709.28,-159.2 1712.6,-157.02 1716.32,-154.92 1720.43,-152.91 1724.95,-150.98 1729.86,-149.15 1735.16,-147.42 1740.86,-145.81 1746.94,-144.31 1753.4,-142.94 1760.23,-141.69 1767.42,-140.58 1774.95,-139.6 1782.81,-138.77 1790.98,-138.08 1799.45,-137.53 1808.18,-137.13 1817.16,-136.88 1826.36,-136.78 1835.75,-136.83 1845.31,-137.03 1854.99,-137.38 1864.78,-137.87 1874.62,-138.5 1884.5,-139.27 1894.37,-140.17 1904.19,-141.21 1913.93,-142.37 1923.55,-143.66 1933.01,-145.06 1942.28,-146.56 1951.3,-148.18 1960.06,-149.88"/>
<text text-anchor="middle" x="1854.22" y="-179.87" font-family="sans-serif" font-size="16.00">GestionClientesContext</text>
</g>
<!-- CarritoComprasContext&#45;&gt;GestionClientesContext -->
<g id="edge4" class="edge">
<title>CarritoComprasContext&#45;&gt;GestionClientesContext</title>
<path fill="none" stroke="black" stroke-width="2" d="M1908.09,-443.04C1839.2,-426.26 1767.52,-402.91 1747.22,-375.24 1722.08,-340.98 1729.79,-318.38 1747.22,-279.62 1757,-257.87 1774.49,-239.08 1792.53,-224.09"/>
<text text-anchor="middle" x="1803.22" y="-324.33" font-family="sans-serif" font-size="12.00">Customer/Supplier</text>
<polygon fill="white" stroke="transparent" points="1785.53,-215.09 1785.53,-232.09 1799.53,-232.09 1799.53,-215.09 1785.53,-215.09"/>
<text text-anchor="start" x="1787.53" y="-220.49" font-family="sans-serif" font-size="12.00">D</text>
<polygon fill="white" stroke="transparent" points="1901.09,-434.04 1901.09,-451.04 1915.09,-451.04 1915.09,-434.04 1901.09,-434.04"/>
<text text-anchor="start" x="1903.09" y="-439.44" font-family="sans-serif" font-size="12.00">U</text>
</g>
<!-- GestionProductosContext&#45;&gt;CarritoComprasContext -->
<g id="edge7" class="edge">
<title>GestionProductosContext&#45;&gt;CarritoComprasContext</title>
<path fill="none" stroke="black" stroke-width="2" d="M2074.85,-367.21C2065.2,-374.48 2056.68,-383.08 2050.22,-393.24 2043.66,-403.58 2042.08,-416.32 2042.79,-428.51"/>
<text text-anchor="middle" x="2106.22" y="-396.64" font-family="sans-serif" font-size="12.00">Customer/Supplier</text>
<polygon fill="white" stroke="transparent" points="2035.79,-419.51 2035.79,-436.51 2049.79,-436.51 2049.79,-419.51 2035.79,-419.51"/>
<text text-anchor="start" x="2037.79" y="-424.91" font-family="sans-serif" font-size="12.00">D</text>
<polygon fill="white" stroke="transparent" points="2067.85,-358.21 2067.85,-375.21 2081.85,-375.21 2081.85,-358.21 2067.85,-358.21"/>
<text text-anchor="start" x="2069.85" y="-363.61" font-family="sans-serif" font-size="12.00">U</text>
</g>
<!-- GestionProductosContext&#45;&gt;GestionClientesContext -->
<g id="edge5" class="edge">
<title>GestionProductosContext&#45;&gt;GestionClientesContext</title>
<path fill="none" stroke="black" stroke-width="2" d="M2065.76,-291.53C2039.45,-282.77 2012.1,-272.67 1987.22,-261.62 1962.11,-250.46 1935.68,-235.82 1913.05,-222.32"/>
<text text-anchor="middle" x="2029.22" y="-252.02" font-family="sans-serif" font-size="12.00">Shared Kernel</text>
</g>
<!-- GestionDevolucionesContext -->
<g id="node7" class="node">
<title>GestionDevolucionesContext</title>
<polygon fill="none" stroke="black" stroke-width="2" points="2228.58,-226.7 2215.97,-226.16 2203.56,-225.5 2191.38,-224.74 2179.48,-223.86 2167.93,-222.88 2156.75,-221.79 2146,-220.6 2135.72,-219.31 2125.94,-217.92 2116.71,-216.45 2108.05,-214.89 2099.99,-213.24 2092.56,-211.53 2085.78,-209.73 2079.67,-207.88 2074.25,-205.95 2069.52,-203.98 2065.5,-201.94 2062.18,-199.87 2059.57,-197.75 2057.67,-195.6 2056.46,-193.41 2055.94,-191.21 2056.09,-188.98 2056.9,-186.74 2058.35,-184.49 2060.43,-182.25 2063.09,-180.01 2066.33,-177.77 2070.11,-175.56 2074.41,-173.36 2079.2,-171.2 2084.44,-169.06 2090.11,-166.96 2096.18,-164.91 2102.61,-162.91 2109.38,-160.96 2116.44,-159.07 2123.78,-157.24 2131.37,-155.48 2139.17,-153.8 2147.16,-152.19 2155.32,-150.67 2163.61,-149.23 2172.03,-147.89 2180.53,-146.63 2189.12,-145.48 2197.76,-144.42 2206.44,-143.47 2215.15,-142.63 2223.88,-141.9 2232.6,-141.27 2241.32,-140.77 2250.02,-140.37 2258.69,-140.1 2267.32,-139.94 2275.92,-139.9 2284.46,-139.98 2292.95,-140.18 2301.39,-140.5 2309.76,-140.94 2318.06,-141.49 2326.28,-142.17 2334.42,-142.95 2342.48,-143.86 2350.43,-144.87 2358.28,-145.99 2366.02,-147.22 2373.63,-148.56 2381.1,-149.99 2388.43,-151.52 2395.58,-153.14 2402.56,-154.85 2409.34,-156.64 2415.9,-158.51 2422.22,-160.45 2428.29,-162.46 2434.07,-164.53 2439.56,-166.66 2444.71,-168.84 2449.52,-171.06 2453.94,-173.32 2457.97,-175.61 2461.57,-177.93 2464.71,-180.26 2467.38,-182.6 2469.54,-184.95 2471.18,-187.29 2472.28,-189.62 2472.8,-191.94 2472.74,-194.24 2472.07,-196.5 2470.78,-198.73 2468.86,-200.91 2466.3,-203.05 2463.09,-205.13 2459.22,-207.14 2454.7,-209.09 2449.53,-210.97 2443.7,-212.77 2437.24,-214.49 2430.15,-216.11 2422.45,-217.65 2414.15,-219.08 2405.29,-220.42 2395.88,-221.65 2385.95,-222.78 2375.55,-223.79 2364.7,-224.69 2353.44,-225.47 2341.82,-226.14 2329.88,-226.68 2317.66,-227.11 2305.21,-227.41 2292.58,-227.6 2279.83,-227.66 2267,-227.6 2254.15,-227.42 2241.32,-227.12 2228.58,-226.7"/>
<text text-anchor="middle" x="2268.22" y="-179.87" font-family="sans-serif" font-size="16.00">GestionDevolucionesContext</text>
</g>
<!-- GestionProductosContext&#45;&gt;GestionDevolucionesContext -->
<g id="edge6" class="edge">
<title>GestionProductosContext&#45;&gt;GestionDevolucionesContext</title>
<path fill="none" stroke="black" stroke-width="2" d="M2213.31,-281.97C2223.12,-264.59 2234.32,-244.74 2244.04,-227.52"/>
<text text-anchor="middle" x="2306.72" y="-252.02" font-family="sans-serif" font-size="12.00"> &#160;&#160;&#160;&#160;&#160;&#160;&#160;&#160;&#160;&#160;&#160;&#160;&#160;&#160;&#160;&#160;&#160;&#160;&#160;&#160;&#160;&#160;&#160;&#160;&#160;&#160;&#160;&#160;&#160;&#160;&#160;&#160;&#160;&#160;&#160;&#160;&#160;&#160;&#160;</text>
<polygon fill="white" stroke="transparent" points="2225.04,-217.52 2225.04,-236.52 2241.04,-236.52 2241.04,-217.52 2225.04,-217.52"/>
<polyline fill="none" stroke="black" points="2241.04,-217.52 2241.04,-236.52 "/>
<text text-anchor="start" x="2228.04" y="-223.92" font-family="sans-serif" font-size="12.00">D</text>
<polygon fill="white" stroke="transparent" points="2241.04,-217.52 2241.04,-236.52 2263.04,-236.52 2263.04,-217.52 2241.04,-217.52"/>
<polygon fill="none" stroke="black" points="2241.04,-217.52 2241.04,-236.52 2263.04,-236.52 2263.04,-217.52 2241.04,-217.52"/>
<text text-anchor="start" x="2244.04" y="-223.92" font-family="sans-serif" font-size="12.00">CF</text>
<polygon fill="white" stroke="transparent" points="2178.31,-271.97 2178.31,-290.97 2194.31,-290.97 2194.31,-271.97 2178.31,-271.97"/>
<polyline fill="none" stroke="black" points="2194.31,-271.97 2194.31,-290.97 "/>
<text text-anchor="start" x="2181.31" y="-278.37" font-family="sans-serif" font-size="12.00">U</text>
<polygon fill="white" stroke="transparent" points="2194.31,-271.97 2194.31,-290.97 2249.31,-290.97 2249.31,-271.97 2194.31,-271.97"/>
<polygon fill="none" stroke="black" points="2194.31,-271.97 2194.31,-290.97 2249.31,-290.97 2249.31,-271.97 2194.31,-271.97"/>
<text text-anchor="start" x="2197.31" y="-278.37" font-family="sans-serif" font-size="12.00">OHS, PL</text>
</g>
<!-- GestionClientesContext&#45;&gt;CarritoComprasContext -->
<g id="edge8" class="edge">
<title>GestionClientesContext&#45;&gt;CarritoComprasContext</title>
<path fill="none" stroke="black" stroke-width="2" d="M1857.98,-225.53C1863.12,-274.11 1873.64,-351.61 1890.22,-375.24 1906.65,-398.65 1930.74,-417.27 1955.38,-431.65"/>
<text text-anchor="middle" x="1946.22" y="-324.33" font-family="sans-serif" font-size="12.00">Customer/Supplier</text>
<polygon fill="white" stroke="transparent" points="1948.38,-422.65 1948.38,-439.65 1962.38,-439.65 1962.38,-422.65 1948.38,-422.65"/>
<text text-anchor="start" x="1950.38" y="-428.05" font-family="sans-serif" font-size="12.00">D</text>
<polygon fill="white" stroke="transparent" points="1850.98,-216.53 1850.98,-233.53 1864.98,-233.53 1864.98,-216.53 1850.98,-216.53"/>
<text text-anchor="start" x="1852.98" y="-221.93" font-family="sans-serif" font-size="12.00">U</text>
</g>
<!-- GestionClientesContext&#45;&gt;GestionProductosContext -->
<g id="edge9" class="edge">
<title>GestionClientesContext&#45;&gt;GestionProductosContext</title>
<path fill="none" stroke="black" stroke-width="2" d="M1976.83,-213.84C2008.29,-223.19 2041.59,-234.79 2071.22,-248.62 2090.34,-257.54 2109.9,-269.32 2127.41,-281"/>
<text text-anchor="middle" x="2137.22" y="-252.02" font-family="sans-serif" font-size="12.00">Shared Kernel</text>
</g>
<!-- GestionPedidosContext -->
<g id="node8" class="node">
<title>GestionPedidosContext</title>
<polygon fill="none" stroke="black" stroke-width="2" points="2422.45,-87.27 2411.83,-86.93 2401.34,-86.48 2391.02,-85.91 2380.9,-85.22 2371.04,-84.42 2361.47,-83.51 2352.23,-82.49 2343.34,-81.37 2334.86,-80.14 2326.8,-78.82 2319.19,-77.4 2312.07,-75.89 2305.45,-74.3 2299.35,-72.62 2293.79,-70.87 2288.78,-69.04 2284.33,-67.15 2280.46,-65.19 2277.17,-63.18 2274.45,-61.11 2272.3,-59 2270.73,-56.85 2269.72,-54.66 2269.27,-52.44 2269.36,-50.2 2269.99,-47.95 2271.13,-45.68 2272.76,-43.41 2274.87,-41.14 2277.44,-38.87 2280.44,-36.62 2283.86,-34.39 2287.66,-32.19 2291.83,-30.02 2296.34,-27.88 2301.16,-25.79 2306.28,-23.74 2311.66,-21.75 2317.29,-19.82 2323.14,-17.95 2329.19,-16.16 2335.41,-14.44 2341.8,-12.79 2348.32,-11.24 2354.96,-9.76 2361.71,-8.39 2368.54,-7.1 2375.45,-5.92 2382.42,-4.84 2389.44,-3.87 2396.5,-3 2403.6,-2.25 2410.71,-1.61 2417.84,-1.08 2424.97,-0.67 2432.11,-0.38 2439.24,-0.21 2446.37,-0.15 2453.48,-0.22 2460.57,-0.4 2467.64,-0.71 2474.68,-1.13 2481.69,-1.68 2488.67,-2.33 2495.6,-3.11 2502.47,-3.99 2509.29,-4.99 2516.04,-6.09 2522.71,-7.3 2529.3,-8.61 2535.78,-10.01 2542.15,-11.51 2548.4,-13.1 2554.5,-14.78 2560.44,-16.54 2566.2,-18.37 2571.76,-20.28 2577.11,-22.25 2582.22,-24.28 2587.07,-26.37 2591.64,-28.5 2595.91,-30.68 2599.85,-32.89 2603.44,-35.14 2606.66,-37.41 2609.49,-39.7 2611.9,-42 2613.87,-44.3 2615.38,-46.61 2616.42,-48.91 2616.97,-51.19 2617,-53.45 2616.51,-55.69 2615.48,-57.89 2613.91,-60.05 2611.78,-62.17 2609.09,-64.24 2605.84,-66.25 2602.02,-68.2 2597.65,-70.08 2592.72,-71.88 2587.25,-73.61 2581.25,-75.26 2574.72,-76.82 2567.7,-78.28 2560.2,-79.65 2552.25,-80.93 2543.86,-82.1 2535.08,-83.16 2525.92,-84.11 2516.44,-84.96 2506.65,-85.69 2496.6,-86.3 2486.34,-86.8 2475.89,-87.17 2465.3,-87.43 2454.62,-87.57 2443.89,-87.59 2433.15,-87.49 2422.45,-87.27"/>
<text text-anchor="middle" x="2444.22" y="-40.06" font-family="sans-serif" font-size="16.00">GestionPedidosContext</text>
</g>
<!-- GestionDevolucionesContext&#45;&gt;GestionPedidosContext -->
<g id="edge10" class="edge">
<title>GestionDevolucionesContext&#45;&gt;GestionPedidosContext</title>
<path fill="none" stroke="black" stroke-width="2" d="M2243.97,-140.62C2240.23,-128.52 2239.74,-115.87 2247.22,-105.73 2258.59,-90.32 2273.81,-78.69 2290.78,-69.94"/>
<text text-anchor="middle" x="2303.22" y="-109.13" font-family="sans-serif" font-size="12.00">Customer/Supplier</text>
<polygon fill="white" stroke="transparent" points="2283.78,-60.94 2283.78,-77.94 2297.78,-77.94 2297.78,-60.94 2283.78,-60.94"/>
<text text-anchor="start" x="2285.78" y="-66.34" font-family="sans-serif" font-size="12.00">D</text>
<polygon fill="white" stroke="transparent" points="2236.97,-131.62 2236.97,-148.62 2250.97,-148.62 2250.97,-131.62 2236.97,-131.62"/>
<text text-anchor="start" x="2238.97" y="-137.02" font-family="sans-serif" font-size="12.00">U</text>
</g>
<!-- GestionPedidosContext&#45;&gt;CarritoComprasContext -->
<g id="edge11" class="edge">
<title>GestionPedidosContext&#45;&gt;CarritoComprasContext</title>
<path fill="none" stroke="black" stroke-width="2" d="M2481.34,-87.12C2484.96,-93.06 2488.07,-99.32 2490.22,-105.73 2507.87,-158.36 2507.75,-178.29 2489.22,-230.62 2461.81,-308.03 2440.66,-326.98 2374.22,-375.24 2321.62,-413.45 2253.77,-436.66 2194.01,-450.67"/>
<text text-anchor="middle" x="2539.22" y="-252.02" font-family="sans-serif" font-size="12.00">Customer/Supplier</text>
<polygon fill="white" stroke="transparent" points="2187.01,-441.67 2187.01,-458.67 2201.01,-458.67 2201.01,-441.67 2187.01,-441.67"/>
<text text-anchor="start" x="2189.01" y="-447.07" font-family="sans-serif" font-size="12.00">D</text>
<polygon fill="white" stroke="transparent" points="2474.34,-78.12 2474.34,-95.12 2488.34,-95.12 2488.34,-78.12 2474.34,-78.12"/>
<text text-anchor="start" x="2476.34" y="-83.52" font-family="sans-serif" font-size="12.00">U</text>
</g>
<!-- GestionPedidosContext&#45;&gt;GestionDevolucionesContext -->
<g id="edge12" class="edge">
<title>GestionPedidosContext&#45;&gt;GestionDevolucionesContext</title>
<path fill="none" stroke="black" stroke-width="2" d="M2398.19,-86.38C2385.75,-97.18 2372.15,-108.61 2359.22,-118.73 2349.18,-126.58 2338.27,-134.64 2327.61,-142.27"/>
<text text-anchor="middle" x="2430.22" y="-109.13" font-family="sans-serif" font-size="12.00">Customer/Supplier</text>
<polygon fill="white" stroke="transparent" points="2320.61,-133.27 2320.61,-150.27 2334.61,-150.27 2334.61,-133.27 2320.61,-133.27"/>
<text text-anchor="start" x="2322.61" y="-138.67" font-family="sans-serif" font-size="12.00">D</text>
<polygon fill="white" stroke="transparent" points="2391.19,-77.38 2391.19,-94.38 2405.19,-94.38 2405.19,-77.38 2391.19,-77.38"/>
<text text-anchor="start" x="2393.19" y="-82.78" font-family="sans-serif" font-size="12.00">U</text>
</g>
<!-- GestionSesionesContext -->
<g id="node9" class="node">
<title>GestionSesionesContext</title>
<polygon fill="none" stroke="black" stroke-width="2" points="2424.48,-659.3 2414.09,-658.29 2403.93,-657.17 2394.06,-655.95 2384.51,-654.63 2375.31,-653.22 2366.51,-651.72 2358.15,-650.14 2350.24,-648.47 2342.83,-646.74 2335.95,-644.94 2329.61,-643.08 2323.84,-641.16 2318.66,-639.19 2314.09,-637.17 2310.13,-635.11 2306.79,-633.02 2304.09,-630.9 2302.02,-628.75 2300.59,-626.59 2299.79,-624.41 2299.61,-622.23 2300.05,-620.05 2301.09,-617.86 2302.72,-615.69 2304.92,-613.53 2307.67,-611.38 2310.94,-609.26 2314.73,-607.17 2318.99,-605.11 2323.71,-603.08 2328.85,-601.1 2334.39,-599.16 2340.3,-597.27 2346.54,-595.43 2353.1,-593.66 2359.93,-591.94 2367.01,-590.29 2374.31,-588.72 2381.8,-587.21 2389.45,-585.78 2397.24,-584.43 2405.14,-583.17 2413.12,-581.99 2421.16,-580.9 2429.24,-579.91 2437.34,-579.01 2445.44,-578.21 2453.52,-577.51 2461.56,-576.92 2469.56,-576.43 2477.49,-576.04 2485.35,-575.77 2493.13,-575.61 2500.81,-575.56 2508.39,-575.63 2515.87,-575.8 2523.22,-576.1 2530.46,-576.51 2537.57,-577.03 2544.55,-577.67 2551.39,-578.42 2558.09,-579.29 2564.66,-580.26 2571.07,-581.35 2577.33,-582.55 2583.44,-583.85 2589.38,-585.25 2595.15,-586.75 2600.74,-588.35 2606.15,-590.05 2611.37,-591.83 2616.39,-593.69 2621.19,-595.64 2625.76,-597.65 2630.1,-599.74 2634.19,-601.89 2638.01,-604.09 2641.55,-606.34 2644.8,-608.64 2647.73,-610.97 2650.34,-613.33 2652.59,-615.72 2654.49,-618.12 2656,-620.52 2657.11,-622.93 2657.81,-625.33 2658.08,-627.71 2657.9,-630.07 2657.27,-632.4 2656.15,-634.69 2654.56,-636.93 2652.47,-639.13 2649.87,-641.26 2646.76,-643.32 2643.14,-645.32 2639,-647.23 2634.35,-649.06 2629.18,-650.79 2623.51,-652.43 2617.33,-653.97 2610.66,-655.4 2603.52,-656.72 2595.92,-657.93 2587.88,-659.01 2579.42,-659.98 2570.56,-660.82 2561.34,-661.54 2551.79,-662.13 2541.93,-662.59 2531.8,-662.93 2521.44,-663.13 2510.89,-663.2 2500.18,-663.15 2489.35,-662.97 2478.46,-662.66 2467.54,-662.23 2456.64,-661.67 2445.8,-661 2435.06,-660.21 2424.48,-659.3"/>
<text text-anchor="middle" x="2487.22" y="-614.88" font-family="sans-serif" font-size="16.00">GestionSesionesContext</text>
</g>
<!-- IntegracionRedesSocialesContext -->
<g id="node10" class="node">
<title>IntegracionRedesSocialesContext</title>
<polygon fill="none" stroke="black" stroke-width="2" points="491.05,-591.94 499.75,-589.64 508.89,-587.44 518.43,-585.33 528.33,-583.33 538.55,-581.45 549.06,-579.69 559.82,-578.05 570.8,-576.56 581.96,-575.2 593.25,-573.99 604.66,-572.94 616.13,-572.04 627.65,-571.31 639.17,-570.73 650.67,-570.32 662.11,-570.07 673.46,-569.99 684.7,-570.07 695.81,-570.31 706.75,-570.72 717.5,-571.28 728.04,-571.99 738.34,-572.85 748.4,-573.85 758.19,-574.99 767.69,-576.27 776.89,-577.66 785.78,-579.18 794.33,-580.8 802.54,-582.53 810.4,-584.35 817.89,-586.26 825,-588.24 831.73,-590.29 838.06,-592.41 843.99,-594.57 849.51,-596.78 854.61,-599.02 859.28,-601.29 863.51,-603.58 867.3,-605.88 870.65,-608.18 873.53,-610.48 875.96,-612.77 877.91,-615.05 879.39,-617.3 880.39,-619.53 880.89,-621.72 880.91,-623.87 880.42,-625.99 879.43,-628.06 877.93,-630.08 875.91,-632.05 873.38,-633.96 870.33,-635.82 866.77,-637.62 862.68,-639.36 858.07,-641.04 852.94,-642.65 847.3,-644.2 841.15,-645.69 834.5,-647.11 827.35,-648.46 819.72,-649.75 811.61,-650.97 803.04,-652.12 794.03,-653.2 784.59,-654.22 774.74,-655.16 764.51,-656.03 753.91,-656.83 742.98,-657.56 731.73,-658.21 720.21,-658.78 708.44,-659.28 696.46,-659.7 684.3,-660.03 671.99,-660.29 659.58,-660.46 647.11,-660.54 634.61,-660.53 622.12,-660.43 609.7,-660.24 597.38,-659.95 585.2,-659.56 573.21,-659.07 561.45,-658.48 549.97,-657.78 538.8,-656.98 527.99,-656.07 517.58,-655.06 507.6,-653.93 498.1,-652.7 489.11,-651.36 480.66,-649.91 472.79,-648.36 465.52,-646.71 458.89,-644.95 452.91,-643.09 447.61,-641.14 443.01,-639.09 439.13,-636.96 435.97,-634.74 433.54,-632.45 431.86,-630.09 430.93,-627.67 430.74,-625.19 431.3,-622.66 432.59,-620.09 434.61,-617.5 437.36,-614.88 440.8,-612.24 444.93,-609.61 449.72,-606.98 455.16,-604.37 461.21,-601.79 467.86,-599.24 475.07,-596.74 482.81,-594.31 491.05,-591.94"/>
<text text-anchor="middle" x="667.22" y="-614.88" font-family="sans-serif" font-size="16.00">IntegracionRedesSocialesContext</text>
</g>
<!-- IntegracionRedesSocialesContext&#45;&gt;VentasContext -->
<g id="edge13" class="edge">
<title>IntegracionRedesSocialesContext&#45;&gt;VentasContext</title>
<path fill="none" stroke="black" stroke-width="2" d="M747.86,-573.65C783.65,-554.11 825.4,-531.32 860.02,-512.42"/>
<text text-anchor="middle" x="841.72" y="-542.24" font-family="sans-serif" font-size="12.00">Partnership</text>
</g>
<!-- NotificacionesComunicacionesContext -->
<g id="node11" class="node">
<title>NotificacionesComunicacionesContext</title>
<polygon fill="none" stroke="black" stroke-width="2" points="1029.01,-585.86 1041.11,-583.94 1053.6,-582.12 1066.41,-580.42 1079.51,-578.83 1092.84,-577.36 1106.36,-576.03 1120.01,-574.83 1133.75,-573.77 1147.53,-572.87 1161.31,-572.11 1175.03,-571.5 1188.67,-571.05 1202.18,-570.76 1215.52,-570.63 1228.65,-570.66 1241.54,-570.84 1254.15,-571.19 1266.46,-571.69 1278.45,-572.34 1290.08,-573.15 1301.33,-574.1 1312.18,-575.19 1322.61,-576.42 1332.61,-577.79 1342.17,-579.27 1351.27,-580.87 1359.89,-582.59 1368.04,-584.41 1375.71,-586.32 1382.89,-588.32 1389.57,-590.4 1395.76,-592.55 1401.44,-594.76 1406.63,-597.03 1411.31,-599.33 1415.49,-601.68 1419.18,-604.05 1422.36,-606.44 1425.03,-608.84 1427.21,-611.24 1428.89,-613.64 1430.07,-616.02 1430.75,-618.38 1430.93,-620.72 1430.61,-623.02 1429.78,-625.28 1428.46,-627.5 1426.63,-629.67 1424.29,-631.78 1421.45,-633.84 1418.11,-635.83 1414.25,-637.75 1409.88,-639.61 1405.01,-641.39 1399.62,-643.1 1393.72,-644.73 1387.32,-646.28 1380.41,-647.75 1372.99,-649.14 1365.08,-650.45 1356.68,-651.68 1347.79,-652.82 1338.43,-653.88 1328.61,-654.85 1318.33,-655.74 1307.63,-656.55 1296.51,-657.27 1284.99,-657.91 1273.1,-658.47 1260.86,-658.94 1248.3,-659.32 1235.45,-659.63 1222.34,-659.84 1209,-659.97 1195.47,-660.02 1181.8,-659.98 1168.01,-659.86 1154.16,-659.64 1140.29,-659.34 1126.44,-658.95 1112.66,-658.48 1099,-657.91 1085.5,-657.25 1072.23,-656.51 1059.22,-655.67 1046.53,-654.74 1034.2,-653.72 1022.29,-652.61 1010.84,-651.4 999.9,-650.11 989.52,-648.72 979.74,-647.25 970.6,-645.68 962.14,-644.03 954.4,-642.3 947.41,-640.48 941.19,-638.59 935.79,-636.61 931.22,-634.57 927.51,-632.45 924.66,-630.28 922.69,-628.04 921.62,-625.75 921.44,-623.42 922.16,-621.04 923.77,-618.63 926.26,-616.19 929.63,-613.73 933.85,-611.27 938.92,-608.8 944.79,-606.33 951.46,-603.88 958.89,-601.45 967.04,-599.05 975.88,-596.7 985.37,-594.39 995.47,-592.15 1006.15,-589.97 1017.34,-587.87 1029.01,-585.86"/>
<text text-anchor="middle" x="1194.22" y="-614.88" font-family="sans-serif" font-size="16.00">NotificacionesComunicacionesContext</text>
</g>
<!-- NotificacionesComunicacionesContext&#45;&gt;VentasContext -->
<g id="edge14" class="edge">
<title>NotificacionesComunicacionesContext&#45;&gt;VentasContext</title>
<path fill="none" stroke="black" stroke-width="2" d="M1116.38,-575.02C1078.06,-554.02 1032.4,-528.99 996.01,-509.05"/>
<text text-anchor="middle" x="1105.72" y="-542.24" font-family="sans-serif" font-size="12.00">Partnership</text>
</g>
<!-- ProcesoPagosContext -->
<g id="node12" class="node">
<title>ProcesoPagosContext</title>
<polygon fill="none" stroke="black" stroke-width="2" points="2740.57,-226.5 2730.88,-227.21 2721.15,-227.79 2711.42,-228.25 2701.73,-228.58 2692.12,-228.78 2682.63,-228.84 2673.28,-228.78 2664.12,-228.58 2655.18,-228.25 2646.49,-227.79 2638.08,-227.19 2629.97,-226.46 2622.2,-225.61 2614.77,-224.62 2607.72,-223.51 2601.07,-222.28 2594.81,-220.93 2588.98,-219.47 2583.58,-217.89 2578.62,-216.22 2574.11,-214.44 2570.04,-212.57 2566.42,-210.62 2563.25,-208.58 2560.53,-206.47 2558.25,-204.3 2556.4,-202.06 2554.99,-199.77 2553.99,-197.44 2553.39,-195.07 2553.2,-192.66 2553.39,-190.24 2553.95,-187.81 2554.87,-185.37 2556.13,-182.93 2557.72,-180.5 2559.62,-178.09 2561.83,-175.7 2564.32,-173.35 2567.09,-171.03 2570.12,-168.76 2573.4,-166.55 2576.91,-164.39 2580.66,-162.3 2584.61,-160.28 2588.78,-158.34 2593.14,-156.48 2597.69,-154.7 2602.42,-153.02 2607.33,-151.43 2612.41,-149.93 2617.65,-148.54 2623.06,-147.25 2628.62,-146.07 2634.34,-145 2640.2,-144.04 2646.21,-143.19 2652.36,-142.45 2658.65,-141.83 2665.08,-141.32 2671.63,-140.93 2678.31,-140.65 2685.11,-140.48 2692.02,-140.42 2699.03,-140.48 2706.14,-140.65 2713.34,-140.92 2720.61,-141.31 2727.95,-141.8 2735.34,-142.39 2742.76,-143.09 2750.2,-143.88 2757.64,-144.77 2765.06,-145.76 2772.45,-146.83 2779.77,-148 2787.01,-149.25 2794.15,-150.58 2801.15,-152 2808,-153.49 2814.66,-155.05 2821.12,-156.68 2827.33,-158.38 2833.28,-160.14 2838.93,-161.96 2844.26,-163.84 2849.24,-165.76 2853.85,-167.74 2858.06,-169.75 2861.84,-171.81 2865.18,-173.9 2868.04,-176.02 2870.41,-178.16 2872.27,-180.33 2873.6,-182.51 2874.4,-184.7 2874.64,-186.9 2874.32,-189.1 2873.43,-191.29 2871.96,-193.48 2869.92,-195.65 2867.31,-197.8 2864.13,-199.92 2860.39,-202.01 2856.1,-204.07 2851.27,-206.08 2845.92,-208.04 2840.06,-209.94 2833.73,-211.78 2826.93,-213.56 2819.71,-215.27 2812.08,-216.89 2804.08,-218.44 2795.74,-219.89 2787.09,-221.26 2778.17,-222.52 2769.03,-223.68 2759.68,-224.73 2750.19,-225.67 2740.57,-226.5"/>
<text text-anchor="middle" x="2705.22" y="-179.87" font-family="sans-serif" font-size="16.00">ProcesoPagosContext</text>
</g>
<!-- ProcesoPagosContext&#45;&gt;GestionPedidosContext -->
<g id="edge15" class="edge">
<title>ProcesoPagosContext&#45;&gt;GestionPedidosContext</title>
<path fill="none" stroke="black" stroke-width="2" d="M2633.9,-145.02C2598.58,-126.37 2555.93,-103.85 2520.02,-84.89"/>
<text text-anchor="middle" x="2638.22" y="-109.13" font-family="sans-serif" font-size="12.00">Customer/Supplier</text>
<polygon fill="white" stroke="transparent" points="2513.02,-75.89 2513.02,-92.89 2527.02,-92.89 2527.02,-75.89 2513.02,-75.89"/>
<text text-anchor="start" x="2515.02" y="-81.29" font-family="sans-serif" font-size="12.00">D</text>
<polygon fill="white" stroke="transparent" points="2626.9,-136.02 2626.9,-153.02 2640.9,-153.02 2640.9,-136.02 2626.9,-136.02"/>
<text text-anchor="start" x="2628.9" y="-141.42" font-family="sans-serif" font-size="12.00">U</text>
</g>
<!-- SeguridadContext -->
<g id="node13" class="node">
<title>SeguridadContext</title>
<polygon fill="none" stroke="black" stroke-width="2" points="2716.85,-638.8 2712.66,-636.28 2708.83,-633.72 2705.38,-631.13 2702.32,-628.52 2699.66,-625.9 2697.42,-623.28 2695.61,-620.67 2694.24,-618.08 2693.31,-615.52 2692.84,-613 2692.82,-610.52 2693.26,-608.09 2694.15,-605.73 2695.51,-603.43 2697.31,-601.21 2699.56,-599.06 2702.25,-597 2705.38,-595.03 2708.92,-593.16 2712.86,-591.38 2717.2,-589.7 2721.91,-588.12 2726.98,-586.64 2732.38,-585.27 2738.1,-584.01 2744.12,-582.85 2750.4,-581.8 2756.94,-580.86 2763.7,-580.02 2770.65,-579.29 2777.78,-578.65 2785.06,-578.12 2792.45,-577.69 2799.94,-577.36 2807.5,-577.12 2815.1,-576.98 2822.71,-576.93 2830.31,-576.97 2837.88,-577.09 2845.39,-577.31 2852.81,-577.6 2860.14,-577.98 2867.33,-578.44 2874.38,-578.97 2881.26,-579.58 2887.96,-580.27 2894.46,-581.03 2900.74,-581.87 2906.79,-582.78 2912.59,-583.76 2918.14,-584.81 2923.42,-585.93 2928.42,-587.12 2933.14,-588.38 2937.57,-589.71 2941.7,-591.1 2945.52,-592.57 2949.04,-594.1 2952.25,-595.69 2955.15,-597.35 2957.73,-599.08 2960,-600.86 2961.96,-602.71 2963.61,-604.62 2964.94,-606.58 2965.96,-608.59 2966.68,-610.65 2967.09,-612.77 2967.2,-614.92 2967.01,-617.11 2966.52,-619.34 2965.74,-621.6 2964.67,-623.87 2963.32,-626.17 2961.69,-628.48 2959.78,-630.79 2957.59,-633.11 2955.13,-635.41 2952.41,-637.69 2949.43,-639.95 2946.19,-642.17 2942.69,-644.36 2938.95,-646.49 2934.96,-648.56 2930.74,-650.57 2926.28,-652.5 2921.59,-654.35 2916.69,-656.1 2911.56,-657.76 2906.23,-659.3 2900.71,-660.73 2894.99,-662.03 2889.09,-663.21 2883.02,-664.24 2876.78,-665.14 2870.4,-665.89 2863.88,-666.48 2857.24,-666.92 2850.5,-667.2 2843.65,-667.32 2836.73,-667.28 2829.75,-667.07 2822.73,-666.7 2815.68,-666.16 2808.63,-665.47 2801.59,-664.61 2794.58,-663.6 2787.64,-662.43 2780.77,-661.11 2774,-659.66 2767.36,-658.06 2760.86,-656.33 2754.54,-654.49 2748.4,-652.52 2742.48,-650.45 2736.79,-648.28 2731.36,-646.02 2726.22,-643.68 2721.37,-641.27 2716.85,-638.8"/>
<text text-anchor="middle" x="2837.22" y="-614.88" font-family="sans-serif" font-size="16.00">SeguridadContext</text>
</g>
<!-- ServicioClienteContext -->
<g id="node14" class="node">
<title>ServicioClienteContext</title>
<polygon fill="none" stroke="black" stroke-width="2" points="1486.6,-612.07 1488.03,-609.22 1489.9,-606.4 1492.19,-603.64 1494.89,-600.93 1498.01,-598.29 1501.53,-595.73 1505.44,-593.26 1509.73,-590.89 1514.39,-588.63 1519.41,-586.48 1524.76,-584.46 1530.44,-582.57 1536.43,-580.82 1542.72,-579.21 1549.28,-577.74 1556.1,-576.43 1563.15,-575.27 1570.43,-574.26 1577.91,-573.41 1585.58,-572.71 1593.4,-572.17 1601.36,-571.79 1609.44,-571.55 1617.62,-571.47 1625.87,-571.54 1634.18,-571.74 1642.51,-572.09 1650.86,-572.57 1659.19,-573.18 1667.49,-573.91 1675.73,-574.76 1683.89,-575.71 1691.95,-576.78 1699.89,-577.93 1707.68,-579.19 1715.31,-580.52 1722.76,-581.93 1730.01,-583.41 1737.03,-584.96 1743.8,-586.57 1750.32,-588.23 1756.56,-589.93 1762.5,-591.68 1768.13,-593.46 1773.44,-595.27 1778.4,-597.11 1783.01,-598.97 1787.25,-600.85 1791.11,-602.75 1794.58,-604.65 1797.65,-606.57 1800.31,-608.49 1802.55,-610.41 1804.37,-612.34 1805.75,-614.26 1806.71,-616.19 1807.22,-618.11 1807.29,-620.03 1806.93,-621.94 1806.12,-623.84 1804.87,-625.74 1803.19,-627.63 1801.07,-629.51 1798.52,-631.37 1795.56,-633.22 1792.18,-635.05 1788.39,-636.87 1784.21,-638.67 1779.65,-640.44 1774.71,-642.19 1769.41,-643.91 1763.77,-645.6 1757.8,-647.25 1751.51,-648.86 1744.93,-650.43 1738.08,-651.94 1730.96,-653.41 1723.6,-654.81 1716.03,-656.15 1708.26,-657.42 1700.31,-658.61 1692.21,-659.72 1683.98,-660.74 1675.64,-661.67 1667.21,-662.49 1658.73,-663.21 1650.21,-663.82 1641.68,-664.31 1633.16,-664.68 1624.67,-664.92 1616.25,-665.02 1607.91,-664.99 1599.68,-664.82 1591.58,-664.51 1583.63,-664.05 1575.86,-663.44 1568.29,-662.68 1560.94,-661.77 1553.82,-660.71 1546.97,-659.5 1540.39,-658.14 1534.12,-656.64 1528.15,-654.99 1522.52,-653.21 1517.23,-651.3 1512.31,-649.26 1507.76,-647.09 1503.59,-644.82 1499.83,-642.44 1496.47,-639.96 1493.53,-637.39 1491.01,-634.74 1488.92,-632.03 1487.26,-629.26 1486.05,-626.44 1485.27,-623.59 1484.94,-620.72 1485.05,-617.83 1485.61,-614.94 1486.6,-612.07"/>
<text text-anchor="middle" x="1646.22" y="-614.88" font-family="sans-serif" font-size="16.00">ServicioClienteContext</text>
</g>
<!-- ServicioClienteContext&#45;&gt;VentasContext -->
<g id="edge16" class="edge">
<title>ServicioClienteContext&#45;&gt;VentasContext</title>
<path fill="none" stroke="black" stroke-width="2" d="M1528.64,-582.95C1511.14,-578.26 1493.26,-573.73 1476.22,-569.84 1326.93,-535.73 1152.3,-506.77 1041.73,-489.76"/>
<text text-anchor="middle" x="1422.72" y="-542.24" font-family="sans-serif" font-size="12.00">Partnership</text>
</g>
</g>
</svg>
