<svg width="2000px" height="453px"
 viewBox="0.00 0.00 3024.18 684.88" xmlns="http://www.w3.org/2000/svg" xmlns:xlink="http://www.w3.org/1999/xlink">
<g id="graph0" class="graph" transform="scale(1.0 1.0) rotate(0) translate(4 680.88)">
<title>ContextMapGraph</title>
<polygon fill="white" stroke="transparent" points="-4,4 -4,-680.88 3020.18,-680.88 3020.18,4 -4,4"/>
<!-- AnaliticasReportingContext -->
<g id="node1" class="node">
<title>AnaliticasReportingContext</title>
<polygon fill="none" stroke="black" stroke-width="2" points="31.92,-606.34 37.8,-603.84 44.1,-601.41 50.79,-599.06 57.85,-596.81 65.24,-594.66 72.94,-592.63 80.93,-590.72 89.18,-588.93 97.67,-587.29 106.36,-585.78 115.23,-584.43 124.25,-583.22 133.4,-582.18 142.65,-581.29 151.98,-580.57 161.36,-580.01 170.77,-579.62 180.18,-579.39 189.56,-579.33 198.91,-579.43 208.2,-579.69 217.4,-580.1 226.49,-580.67 235.46,-581.39 244.29,-582.25 252.96,-583.25 261.46,-584.38 269.75,-585.64 277.84,-587.01 285.71,-588.5 293.33,-590.09 300.7,-591.77 307.8,-593.54 314.63,-595.39 321.16,-597.31 327.38,-599.29 333.29,-601.32 338.86,-603.4 344.1,-605.52 348.99,-607.67 353.51,-609.84 357.67,-612.03 361.44,-614.23 364.82,-616.43 367.8,-618.63 370.37,-620.82 372.52,-623 374.25,-625.15 375.54,-627.29 376.39,-629.39 376.79,-631.47 376.75,-633.51 376.24,-635.51 375.27,-637.48 373.84,-639.4 371.94,-641.28 369.57,-643.12 366.73,-644.9 363.42,-646.64 359.64,-648.33 355.41,-649.97 350.71,-651.56 345.56,-653.1 339.97,-654.58 333.94,-656.01 327.49,-657.38 320.63,-658.7 313.37,-659.96 305.73,-661.17 297.73,-662.31 289.38,-663.39 280.71,-664.41 271.73,-665.36 262.48,-666.25 252.98,-667.06 243.25,-667.8 233.32,-668.47 223.23,-669.06 212.99,-669.57 202.65,-669.99 192.24,-670.32 181.79,-670.57 171.32,-670.71 160.89,-670.76 150.52,-670.71 140.25,-670.56 130.1,-670.29 120.13,-669.92 110.35,-669.43 100.81,-668.83 91.54,-668.11 82.56,-667.27 73.92,-666.31 65.63,-665.23 57.74,-664.03 50.26,-662.71 43.22,-661.27 36.65,-659.71 30.57,-658.03 25,-656.24 19.95,-654.34 15.45,-652.34 11.5,-650.23 8.12,-648.03 5.32,-645.74 3.1,-643.37 1.47,-640.92 0.43,-638.4 -0.02,-635.82 0.12,-633.19 0.85,-630.53 2.15,-627.83 4.02,-625.1 6.45,-622.37 9.42,-619.64 12.93,-616.91 16.95,-614.21 21.47,-611.54 26.46,-608.92 31.92,-606.34"/>
<text text-anchor="middle" x="194.52" y="-624.2" font-family="sans-serif" font-size="16.00">AnaliticasReportingContext</text>
</g>
<!-- VentasContext -->
<g id="node2" class="node">
<title>VentasContext</title>
<polygon fill="none" stroke="black" stroke-width="2" points="1005.14,-510.73 1000.25,-512.91 995.15,-515 989.87,-516.98 984.42,-518.86 978.82,-520.61 973.1,-522.24 967.27,-523.73 961.36,-525.08 955.38,-526.29 949.36,-527.35 943.31,-528.25 937.25,-528.99 931.2,-529.57 925.18,-529.99 919.2,-530.25 913.28,-530.34 907.43,-530.26 901.67,-530.03 896.01,-529.63 890.46,-529.07 885.04,-528.36 879.76,-527.5 874.62,-526.49 869.64,-525.34 864.82,-524.06 860.17,-522.65 855.7,-521.12 851.41,-519.47 847.31,-517.72 843.41,-515.87 839.71,-513.93 836.21,-511.91 832.91,-509.82 829.83,-507.67 826.96,-505.45 824.31,-503.2 821.88,-500.9 819.67,-498.58 817.69,-496.23 815.93,-493.87 814.4,-491.51 813.11,-489.15 812.04,-486.79 811.22,-484.46 810.63,-482.14 810.28,-479.86 810.17,-477.61 810.31,-475.4 810.7,-473.23 811.34,-471.11 812.22,-469.05 813.36,-467.04 814.76,-465.09 816.4,-463.2 818.31,-461.37 820.47,-459.61 822.89,-457.92 825.56,-456.3 828.49,-454.74 831.67,-453.26 835.1,-451.85 838.78,-450.52 842.7,-449.26 846.85,-448.07 851.24,-446.96 855.85,-445.92 860.68,-444.95 865.71,-444.07 870.94,-443.25 876.36,-442.52 881.95,-441.86 887.7,-441.29 893.59,-440.79 899.62,-440.37 905.75,-440.03 911.98,-439.77 918.29,-439.6 924.66,-439.52 931.07,-439.52 937.49,-439.61 943.91,-439.79 950.3,-440.07 956.65,-440.43 962.93,-440.9 969.11,-441.46 975.18,-442.11 981.11,-442.87 986.88,-443.73 992.47,-444.69 997.86,-445.75 1003.03,-446.92 1007.94,-448.18 1012.6,-449.55 1016.98,-451.02 1021.05,-452.59 1024.81,-454.26 1028.24,-456.03 1031.33,-457.89 1034.06,-459.84 1036.42,-461.88 1038.41,-463.99 1040.02,-466.19 1041.24,-468.46 1042.07,-470.8 1042.5,-473.19 1042.54,-475.64 1042.18,-478.14 1041.44,-480.67 1040.3,-483.23 1038.79,-485.82 1036.9,-488.41 1034.65,-491.01 1032.05,-493.6 1029.11,-496.18 1025.84,-498.73 1022.26,-501.24 1018.38,-503.71 1014.22,-506.12 1009.8,-508.46 1005.14,-510.73"/>
<text text-anchor="middle" x="919.52" y="-477.6" font-family="sans-serif" font-size="16.00">VentasContext</text>
</g>
<!-- AnaliticasReportingContext&#45;&gt;VentasContext -->
<g id="edge1" class="edge">
<title>AnaliticasReportingContext&#45;&gt;VentasContext</title>
<path fill="none" stroke="black" stroke-width="2" d="M319.11,-596.61C344.98,-590.58 372.1,-584.47 397.52,-579.12 544.08,-548.28 714.91,-517.62 820.14,-499.34"/>
<text text-anchor="middle" x="575.02" y="-551.52" font-family="sans-serif" font-size="12.00">Partnership</text>
</g>
<!-- AutenticacionAutorizacionContext -->
<g id="node3" class="node">
<title>AutenticacionAutorizacionContext</title>
<polygon fill="none" stroke="black" stroke-width="2" points="2173.28,-667.77 2160.04,-669.04 2146.61,-670.19 2133.04,-671.22 2119.4,-672.12 2105.74,-672.89 2092.1,-673.52 2078.53,-674.02 2065.09,-674.37 2051.82,-674.58 2038.78,-674.65 2025.99,-674.57 2013.5,-674.34 2001.35,-673.97 1989.58,-673.45 1978.21,-672.79 1967.28,-671.98 1956.82,-671.03 1946.83,-669.95 1937.36,-668.74 1928.4,-667.4 1919.98,-665.93 1912.11,-664.35 1904.8,-662.65 1898.05,-660.85 1891.87,-658.95 1886.25,-656.95 1881.2,-654.88 1876.7,-652.72 1872.77,-650.5 1869.38,-648.22 1866.54,-645.88 1864.23,-643.5 1862.44,-641.09 1861.16,-638.65 1860.38,-636.19 1860.08,-633.72 1860.26,-631.25 1860.9,-628.78 1861.99,-626.33 1863.52,-623.9 1865.47,-621.5 1867.85,-619.14 1870.62,-616.82 1873.79,-614.55 1877.35,-612.34 1881.29,-610.19 1885.6,-608.11 1890.28,-606.1 1895.32,-604.17 1900.71,-602.32 1906.45,-600.56 1912.54,-598.88 1918.98,-597.3 1925.75,-595.81 1932.86,-594.42 1940.31,-593.13 1948.08,-591.94 1956.18,-590.86 1964.6,-589.87 1973.34,-588.99 1982.38,-588.21 1991.73,-587.54 2001.37,-586.97 2011.29,-586.5 2021.48,-586.14 2031.93,-585.87 2042.62,-585.71 2053.54,-585.66 2064.66,-585.7 2075.96,-585.83 2087.42,-586.07 2099.01,-586.4 2110.71,-586.83 2122.49,-587.35 2134.3,-587.96 2146.12,-588.66 2157.92,-589.45 2169.65,-590.33 2181.27,-591.29 2192.75,-592.34 2204.04,-593.47 2215.1,-594.68 2225.89,-595.97 2236.36,-597.33 2246.47,-598.78 2256.17,-600.29 2265.42,-601.88 2274.19,-603.53 2282.42,-605.25 2290.07,-607.03 2297.12,-608.88 2303.51,-610.78 2309.23,-612.73 2314.22,-614.74 2318.48,-616.79 2321.97,-618.89 2324.66,-621.03 2326.55,-623.2 2327.6,-625.4 2327.82,-627.62 2327.19,-629.86 2325.72,-632.12 2323.39,-634.39 2320.22,-636.66 2316.21,-638.92 2311.38,-641.18 2305.74,-643.41 2299.31,-645.62 2292.13,-647.81 2284.21,-649.95 2275.6,-652.05 2266.31,-654.1 2256.41,-656.09 2245.91,-658.01 2234.88,-659.86 2223.35,-661.63 2211.38,-663.31 2199.01,-664.9 2186.29,-666.38 2173.28,-667.77"/>
<text text-anchor="middle" x="2076.52" y="-624.2" font-family="sans-serif" font-size="16.00">AutenticacionAutorizacionContext</text>
</g>
<!-- CarritoComprasContext -->
<g id="node4" class="node">
<title>CarritoComprasContext</title>
<polygon fill="none" stroke="black" stroke-width="2" points="2226.06,-500.49 2221.51,-503.11 2216.58,-505.65 2211.28,-508.12 2205.64,-510.5 2199.67,-512.78 2193.4,-514.95 2186.83,-517 2180.01,-518.93 2172.94,-520.72 2165.65,-522.38 2158.16,-523.88 2150.5,-525.24 2142.68,-526.44 2134.74,-527.48 2126.68,-528.36 2118.53,-529.08 2110.31,-529.63 2102.05,-530.01 2093.76,-530.23 2085.47,-530.28 2077.19,-530.18 2068.94,-529.91 2060.75,-529.49 2052.62,-528.91 2044.59,-528.19 2036.65,-527.33 2028.84,-526.33 2021.17,-525.21 2013.66,-523.96 2006.31,-522.6 1999.15,-521.13 1992.18,-519.56 1985.43,-517.9 1978.91,-516.15 1972.63,-514.33 1966.6,-512.44 1960.84,-510.5 1955.35,-508.5 1950.16,-506.45 1945.27,-504.37 1940.7,-502.26 1936.44,-500.13 1932.53,-497.99 1928.96,-495.83 1925.74,-493.67 1922.89,-491.51 1920.41,-489.36 1918.31,-487.22 1916.61,-485.1 1915.3,-483 1914.39,-480.92 1913.89,-478.86 1913.81,-476.84 1914.15,-474.85 1914.91,-472.9 1916.09,-470.98 1917.7,-469.09 1919.74,-467.25 1922.21,-465.45 1925.1,-463.69 1928.42,-461.97 1932.15,-460.3 1936.3,-458.67 1940.85,-457.09 1945.8,-455.55 1951.15,-454.07 1956.87,-452.63 1962.95,-451.24 1969.39,-449.91 1976.17,-448.63 1983.27,-447.4 1990.67,-446.24 1998.35,-445.13 2006.3,-444.09 2014.49,-443.11 2022.9,-442.21 2031.51,-441.38 2040.28,-440.62 2049.2,-439.94 2058.23,-439.35 2067.35,-438.84 2076.53,-438.42 2085.75,-438.1 2094.96,-437.88 2104.15,-437.76 2113.27,-437.75 2122.31,-437.85 2131.24,-438.06 2140.01,-438.39 2148.61,-438.84 2157,-439.41 2165.16,-440.1 2173.06,-440.93 2180.67,-441.87 2187.97,-442.95 2194.94,-444.16 2201.54,-445.49 2207.76,-446.95 2213.58,-448.53 2218.99,-450.24 2223.95,-452.06 2228.46,-454 2232.51,-456.05 2236.08,-458.21 2239.17,-460.47 2241.76,-462.82 2243.85,-465.25 2245.43,-467.76 2246.51,-470.35 2247.08,-472.99 2247.15,-475.68 2246.71,-478.42 2245.77,-481.18 2244.35,-483.97 2242.44,-486.77 2240.06,-489.56 2237.21,-492.34 2233.92,-495.1 2230.2,-497.82 2226.06,-500.49"/>
<text text-anchor="middle" x="2076.52" y="-477.6" font-family="sans-serif" font-size="16.00">CarritoComprasContext</text>
</g>
<!-- AutenticacionAutorizacionContext&#45;&gt;CarritoComprasContext -->
<g id="edge2" class="edge">
<title>AutenticacionAutorizacionContext&#45;&gt;CarritoComprasContext</title>
<path fill="none" stroke="black" stroke-width="2" d="M2076.52,-585.57C2076.52,-568.29 2076.52,-548.12 2076.52,-530.22"/>
<text text-anchor="middle" x="2132.52" y="-551.52" font-family="sans-serif" font-size="12.00">Customer/Supplier</text>
<polygon fill="white" stroke="transparent" points="2069.52,-521.22 2069.52,-538.22 2083.52,-538.22 2083.52,-521.22 2069.52,-521.22"/>
<text text-anchor="start" x="2071.52" y="-526.62" font-family="sans-serif" font-size="12.00">D</text>
<polygon fill="white" stroke="transparent" points="2069.52,-576.57 2069.52,-593.57 2083.52,-593.57 2083.52,-576.57 2069.52,-576.57"/>
<text text-anchor="start" x="2071.52" y="-581.97" font-family="sans-serif" font-size="12.00">U</text>
</g>
<!-- GestionProductosContext -->
<g id="node5" class="node">
<title>GestionProductosContext</title>
<polygon fill="none" stroke="black" stroke-width="2" points="2036.18,-333.93 2036.74,-331.07 2037.78,-328.23 2039.3,-325.43 2041.3,-322.67 2043.76,-319.98 2046.68,-317.35 2050.06,-314.81 2053.89,-312.35 2058.16,-310 2062.85,-307.75 2067.95,-305.62 2073.45,-303.6 2079.33,-301.72 2085.59,-299.97 2092.19,-298.36 2099.12,-296.89 2106.37,-295.57 2113.91,-294.4 2121.73,-293.38 2129.79,-292.5 2138.08,-291.78 2146.58,-291.21 2155.26,-290.79 2164.09,-290.51 2173.06,-290.38 2182.14,-290.39 2191.3,-290.54 2200.51,-290.81 2209.75,-291.22 2219,-291.75 2228.23,-292.4 2237.41,-293.15 2246.52,-294.02 2255.53,-294.98 2264.41,-296.04 2273.15,-297.18 2281.71,-298.41 2290.08,-299.71 2298.23,-301.08 2306.13,-302.51 2313.78,-304.01 2321.13,-305.55 2328.18,-307.15 2334.91,-308.78 2341.29,-310.46 2347.31,-312.17 2352.95,-313.9 2358.2,-315.67 2363.05,-317.46 2367.47,-319.27 2371.46,-321.1 2375.01,-322.94 2378.11,-324.8 2380.75,-326.67 2382.93,-328.55 2384.63,-330.44 2385.85,-332.34 2386.6,-334.24 2386.87,-336.15 2386.65,-338.06 2385.96,-339.97 2384.79,-341.89 2383.15,-343.8 2381.04,-345.71 2378.46,-347.62 2375.44,-349.52 2371.96,-351.42 2368.06,-353.3 2363.72,-355.17 2358.98,-357.02 2353.84,-358.86 2348.31,-360.67 2342.41,-362.45 2336.16,-364.2 2329.57,-365.91 2322.66,-367.58 2315.45,-369.2 2307.97,-370.77 2300.22,-372.28 2292.24,-373.72 2284.04,-375.1 2275.64,-376.39 2267.07,-377.6 2258.35,-378.72 2249.51,-379.74 2240.56,-380.65 2231.54,-381.46 2222.46,-382.15 2213.35,-382.71 2204.24,-383.15 2195.14,-383.46 2186.09,-383.63 2177.11,-383.65 2168.22,-383.53 2159.44,-383.26 2150.81,-382.84 2142.33,-382.26 2134.05,-381.53 2125.97,-380.65 2118.12,-379.61 2110.52,-378.42 2103.19,-377.07 2096.15,-375.58 2089.43,-373.95 2083.03,-372.17 2076.98,-370.26 2071.3,-368.22 2065.99,-366.06 2061.08,-363.78 2056.58,-361.4 2052.49,-358.92 2048.84,-356.35 2045.63,-353.71 2042.88,-350.99 2040.58,-348.23 2038.75,-345.41 2037.39,-342.56 2036.51,-339.69 2036.11,-336.81 2036.18,-333.93"/>
<text text-anchor="middle" x="2211.52" y="-332.92" font-family="sans-serif" font-size="16.00">GestionProductosContext</text>
</g>
<!-- CarritoComprasContext&#45;&gt;GestionProductosContext -->
<g id="edge3" class="edge">
<title>CarritoComprasContext&#45;&gt;GestionProductosContext</title>
<path fill="none" stroke="black" stroke-width="2" d="M2163.06,-439.88C2172.96,-432.56 2182.13,-424.18 2189.52,-414.69 2196.6,-405.58 2201.4,-394.29 2204.66,-383.19"/>
<text text-anchor="middle" x="2253.52" y="-405.09" font-family="sans-serif" font-size="12.00">Customer/Supplier</text>
<polygon fill="white" stroke="transparent" points="2197.66,-374.19 2197.66,-391.19 2211.66,-391.19 2211.66,-374.19 2197.66,-374.19"/>
<text text-anchor="start" x="2199.66" y="-379.59" font-family="sans-serif" font-size="12.00">D</text>
<polygon fill="white" stroke="transparent" points="2156.06,-430.88 2156.06,-447.88 2170.06,-447.88 2170.06,-430.88 2156.06,-430.88"/>
<text text-anchor="start" x="2158.06" y="-436.28" font-family="sans-serif" font-size="12.00">U</text>
</g>
<!-- GestionClientesContext -->
<g id="node6" class="node">
<title>GestionClientesContext</title>
<polygon fill="none" stroke="black" stroke-width="2" points="1830.35,-150.12 1840.57,-149.17 1850.87,-148.35 1861.21,-147.65 1871.55,-147.07 1881.85,-146.63 1892.07,-146.32 1902.17,-146.15 1912.11,-146.12 1921.86,-146.23 1931.38,-146.47 1940.65,-146.86 1949.63,-147.38 1958.3,-148.04 1966.63,-148.84 1974.59,-149.77 1982.18,-150.83 1989.36,-152.02 1996.13,-153.33 2002.47,-154.77 2008.37,-156.32 2013.82,-157.98 2018.82,-159.74 2023.36,-161.6 2027.45,-163.55 2031.08,-165.59 2034.25,-167.71 2036.97,-169.89 2039.25,-172.14 2041.1,-174.45 2042.51,-176.8 2043.51,-179.19 2044.1,-181.61 2044.3,-184.06 2044.11,-186.52 2043.55,-188.98 2042.63,-191.45 2041.36,-193.9 2039.77,-196.34 2037.85,-198.75 2035.62,-201.13 2033.1,-203.48 2030.29,-205.77 2027.21,-208.01 2023.86,-210.19 2020.25,-212.31 2016.4,-214.35 2012.31,-216.32 2007.99,-218.21 2003.44,-220.01 1998.66,-221.72 1993.68,-223.34 1988.48,-224.86 1983.07,-226.28 1977.46,-227.6 1971.65,-228.81 1965.64,-229.92 1959.43,-230.92 1953.04,-231.81 1946.46,-232.59 1939.7,-233.26 1932.76,-233.82 1925.65,-234.26 1918.38,-234.6 1910.94,-234.83 1903.36,-234.95 1895.64,-234.96 1887.78,-234.87 1879.81,-234.67 1871.74,-234.36 1863.58,-233.95 1855.35,-233.45 1847.07,-232.84 1838.75,-232.14 1830.42,-231.34 1822.1,-230.45 1813.82,-229.47 1805.6,-228.41 1797.47,-227.25 1789.45,-226.02 1781.58,-224.7 1773.88,-223.31 1766.39,-221.84 1759.13,-220.3 1752.14,-218.7 1745.45,-217.02 1739.09,-215.28 1733.08,-213.49 1727.46,-211.63 1722.26,-209.72 1717.51,-207.77 1713.23,-205.77 1709.45,-203.72 1706.19,-201.64 1703.47,-199.52 1701.32,-197.38 1699.74,-195.21 1698.76,-193.02 1698.39,-190.82 1698.63,-188.6 1699.49,-186.39 1700.97,-184.17 1703.09,-181.96 1705.82,-179.76 1709.17,-177.58 1713.12,-175.42 1717.67,-173.29 1722.8,-171.2 1728.49,-169.15 1734.72,-167.15 1741.46,-165.21 1748.7,-163.32 1756.39,-161.51 1764.51,-159.76 1773.03,-158.1 1781.91,-156.52 1791.11,-155.04 1800.59,-153.65 1810.32,-152.36 1820.25,-151.19 1830.35,-150.12"/>
<text text-anchor="middle" x="1882.52" y="-188.19" font-family="sans-serif" font-size="16.00">GestionClientesContext</text>
</g>
<!-- CarritoComprasContext&#45;&gt;GestionClientesContext -->
<g id="edge4" class="edge">
<title>CarritoComprasContext&#45;&gt;GestionClientesContext</title>
<path fill="none" stroke="black" stroke-width="2" d="M1918.63,-467.87C1863.34,-454.98 1806.6,-430.29 1772.52,-383.69 1747.88,-349.99 1755.32,-327.8 1772.52,-289.76 1783.16,-266.24 1802.65,-246.15 1822.31,-230.48"/>
<text text-anchor="middle" x="1828.52" y="-333.62" font-family="sans-serif" font-size="12.00">Customer/Supplier</text>
<polygon fill="white" stroke="transparent" points="1815.31,-221.48 1815.31,-238.48 1829.31,-238.48 1829.31,-221.48 1815.31,-221.48"/>
<text text-anchor="start" x="1817.31" y="-226.88" font-family="sans-serif" font-size="12.00">D</text>
<polygon fill="white" stroke="transparent" points="1911.63,-458.87 1911.63,-475.87 1925.63,-475.87 1925.63,-458.87 1911.63,-458.87"/>
<text text-anchor="start" x="1913.63" y="-464.27" font-family="sans-serif" font-size="12.00">U</text>
</g>
<!-- GestionProductosContext&#45;&gt;CarritoComprasContext -->
<g id="edge6" class="edge">
<title>GestionProductosContext&#45;&gt;CarritoComprasContext</title>
<path fill="none" stroke="black" stroke-width="2" d="M2097.85,-376.04C2088.33,-383.2 2079.92,-391.67 2073.52,-401.69 2066.6,-412.52 2065.17,-426.01 2066.12,-438.75"/>
<text text-anchor="middle" x="2129.52" y="-405.09" font-family="sans-serif" font-size="12.00">Customer/Supplier</text>
<polygon fill="white" stroke="transparent" points="2059.12,-429.75 2059.12,-446.75 2073.12,-446.75 2073.12,-429.75 2059.12,-429.75"/>
<text text-anchor="start" x="2061.12" y="-435.15" font-family="sans-serif" font-size="12.00">D</text>
<polygon fill="white" stroke="transparent" points="2090.85,-367.04 2090.85,-384.04 2104.85,-384.04 2104.85,-367.04 2090.85,-367.04"/>
<text text-anchor="start" x="2092.85" y="-372.44" font-family="sans-serif" font-size="12.00">U</text>
</g>
<!-- GestionProductosContext&#45;&gt;GestionClientesContext -->
<g id="edge5" class="edge">
<title>GestionProductosContext&#45;&gt;GestionClientesContext</title>
<path fill="none" stroke="black" stroke-width="2" d="M2082.28,-300.76C2057.04,-292.39 2031.1,-282.67 2007.52,-271.76 1984.35,-261.05 1960.31,-246.77 1939.57,-233.3"/>
<text text-anchor="middle" x="2049.52" y="-262.16" font-family="sans-serif" font-size="12.00">Shared Kernel</text>
</g>
<!-- GestionDevolucionesContext -->
<g id="node7" class="node">
<title>GestionDevolucionesContext</title>
<polygon fill="none" stroke="black" stroke-width="2" points="2477.64,-190.17 2478.36,-193.05 2478.53,-195.92 2478.15,-198.76 2477.22,-201.57 2475.75,-204.32 2473.72,-207.03 2471.16,-209.66 2468.05,-212.21 2464.41,-214.68 2460.25,-217.05 2455.58,-219.32 2450.41,-221.48 2444.75,-223.52 2438.62,-225.43 2432.04,-227.21 2425.02,-228.86 2417.59,-230.37 2409.75,-231.74 2401.55,-232.97 2393,-234.06 2384.12,-234.99 2374.95,-235.79 2365.5,-236.44 2355.81,-236.95 2345.91,-237.31 2335.82,-237.54 2325.58,-237.64 2315.21,-237.6 2304.75,-237.44 2294.23,-237.15 2283.67,-236.75 2273.12,-236.23 2262.59,-235.61 2252.13,-234.88 2241.77,-234.06 2231.52,-233.14 2221.43,-232.14 2211.53,-231.06 2201.83,-229.9 2192.38,-228.68 2183.19,-227.38 2174.3,-226.03 2165.72,-224.62 2157.48,-223.16 2149.61,-221.66 2142.12,-220.11 2135.04,-218.52 2128.38,-216.89 2122.16,-215.23 2116.4,-213.53 2111.1,-211.81 2106.3,-210.06 2101.99,-208.28 2098.18,-206.48 2094.89,-204.66 2092.11,-202.81 2089.86,-200.95 2088.15,-199.07 2086.96,-197.17 2086.3,-195.25 2086.18,-193.32 2086.58,-191.37 2087.51,-189.42 2088.97,-187.45 2090.93,-185.48 2093.41,-183.49 2096.38,-181.51 2099.84,-179.52 2103.78,-177.54 2108.19,-175.56 2113.04,-173.59 2118.34,-171.64 2124.06,-169.7 2130.19,-167.79 2136.71,-165.91 2143.61,-164.05 2150.86,-162.24 2158.44,-160.48 2166.34,-158.77 2174.54,-157.11 2183.01,-155.53 2191.73,-154.01 2200.69,-152.58 2209.85,-151.23 2219.2,-149.98 2228.71,-148.83 2238.37,-147.78 2248.13,-146.86 2257.99,-146.05 2267.91,-145.37 2277.87,-144.83 2287.85,-144.42 2297.82,-144.16 2307.75,-144.05 2317.63,-144.09 2327.42,-144.29 2337.11,-144.64 2346.66,-145.15 2356.05,-145.82 2365.26,-146.65 2374.26,-147.65 2383.03,-148.8 2391.54,-150.1 2399.78,-151.56 2407.72,-153.17 2415.33,-154.92 2422.6,-156.81 2429.51,-158.84 2436.03,-160.98 2442.15,-163.25 2447.84,-165.62 2453.1,-168.09 2457.9,-170.65 2462.23,-173.29 2466.08,-176 2469.43,-178.76 2472.27,-181.58 2474.59,-184.42 2476.38,-187.29 2477.64,-190.17"/>
<text text-anchor="middle" x="2281.52" y="-188.19" font-family="sans-serif" font-size="16.00">GestionDevolucionesContext</text>
</g>
<!-- GestionProductosContext&#45;&gt;GestionDevolucionesContext -->
<g id="edge7" class="edge">
<title>GestionProductosContext&#45;&gt;GestionDevolucionesContext</title>
<path fill="none" stroke="black" stroke-width="2" d="M2232.71,-292.51C2241.56,-274.46 2251.82,-253.55 2260.64,-235.56"/>
<text text-anchor="middle" x="2325.02" y="-262.16" font-family="sans-serif" font-size="12.00"> &#160;&#160;&#160;&#160;&#160;&#160;&#160;&#160;&#160;&#160;&#160;&#160;&#160;&#160;&#160;&#160;&#160;&#160;&#160;&#160;&#160;&#160;&#160;&#160;&#160;&#160;&#160;&#160;&#160;&#160;&#160;&#160;&#160;&#160;&#160;&#160;&#160;&#160;&#160;</text>
<polygon fill="white" stroke="transparent" points="2241.64,-225.56 2241.64,-244.56 2257.64,-244.56 2257.64,-225.56 2241.64,-225.56"/>
<polyline fill="none" stroke="black" points="2257.64,-225.56 2257.64,-244.56 "/>
<text text-anchor="start" x="2244.64" y="-231.96" font-family="sans-serif" font-size="12.00">D</text>
<polygon fill="white" stroke="transparent" points="2257.64,-225.56 2257.64,-244.56 2279.64,-244.56 2279.64,-225.56 2257.64,-225.56"/>
<polygon fill="none" stroke="black" points="2257.64,-225.56 2257.64,-244.56 2279.64,-244.56 2279.64,-225.56 2257.64,-225.56"/>
<text text-anchor="start" x="2260.64" y="-231.96" font-family="sans-serif" font-size="12.00">CF</text>
<polygon fill="white" stroke="transparent" points="2197.71,-282.51 2197.71,-301.51 2213.71,-301.51 2213.71,-282.51 2197.71,-282.51"/>
<polyline fill="none" stroke="black" points="2213.71,-282.51 2213.71,-301.51 "/>
<text text-anchor="start" x="2200.71" y="-288.91" font-family="sans-serif" font-size="12.00">U</text>
<polygon fill="white" stroke="transparent" points="2213.71,-282.51 2213.71,-301.51 2268.71,-301.51 2268.71,-282.51 2213.71,-282.51"/>
<polygon fill="none" stroke="black" points="2213.71,-282.51 2213.71,-301.51 2268.71,-301.51 2268.71,-282.51 2213.71,-282.51"/>
<text text-anchor="start" x="2216.71" y="-288.91" font-family="sans-serif" font-size="12.00">OHS, PL</text>
</g>
<!-- GestionClientesContext&#45;&gt;CarritoComprasContext -->
<g id="edge9" class="edge">
<title>GestionClientesContext&#45;&gt;CarritoComprasContext</title>
<path fill="none" stroke="black" stroke-width="2" d="M1885.72,-235.11C1890.12,-283.76 1899.38,-360.13 1915.52,-383.69 1933.85,-410.45 1962.26,-431.02 1990.13,-446.17"/>
<text text-anchor="middle" x="1971.52" y="-333.62" font-family="sans-serif" font-size="12.00">Customer/Supplier</text>
<polygon fill="white" stroke="transparent" points="1983.13,-437.17 1983.13,-454.17 1997.13,-454.17 1997.13,-437.17 1983.13,-437.17"/>
<text text-anchor="start" x="1985.13" y="-442.57" font-family="sans-serif" font-size="12.00">D</text>
<polygon fill="white" stroke="transparent" points="1878.72,-226.11 1878.72,-243.11 1892.72,-243.11 1892.72,-226.11 1878.72,-226.11"/>
<text text-anchor="start" x="1880.72" y="-231.51" font-family="sans-serif" font-size="12.00">U</text>
</g>
<!-- GestionClientesContext&#45;&gt;GestionProductosContext -->
<g id="edge8" class="edge">
<title>GestionClientesContext&#45;&gt;GestionProductosContext</title>
<path fill="none" stroke="black" stroke-width="2" d="M1996.05,-222.72C2027.61,-232.58 2061.46,-244.7 2091.52,-258.76 2110.8,-267.78 2130.67,-279.43 2148.55,-290.91"/>
<text text-anchor="middle" x="2158.52" y="-262.16" font-family="sans-serif" font-size="12.00">Shared Kernel</text>
</g>
<!-- GestionPedidosContext -->
<g id="node8" class="node">
<title>GestionPedidosContext</title>
<polygon fill="none" stroke="black" stroke-width="2" points="2280.68,-40.49 2282.13,-37.64 2284.02,-34.82 2286.34,-32.06 2289.08,-29.35 2292.24,-26.71 2295.81,-24.15 2299.78,-21.68 2304.13,-19.31 2308.85,-17.05 2313.94,-14.91 2319.37,-12.88 2325.13,-10.99 2331.2,-9.24 2337.57,-7.63 2344.22,-6.16 2351.14,-4.85 2358.29,-3.69 2365.68,-2.68 2373.26,-1.83 2381.03,-1.13 2388.96,-0.59 2397.03,-0.21 2405.23,0.02 2413.52,0.11 2421.89,0.04 2430.31,-0.17 2438.76,-0.51 2447.22,-0.99 2455.67,-1.6 2464.08,-2.33 2472.44,-3.18 2480.71,-4.13 2488.88,-5.2 2496.93,-6.36 2504.84,-7.61 2512.58,-8.94 2520.13,-10.35 2527.47,-11.84 2534.59,-13.38 2541.46,-14.99 2548.07,-16.65 2554.39,-18.35 2560.42,-20.1 2566.13,-21.88 2571.51,-23.69 2576.54,-25.53 2581.22,-27.39 2585.52,-29.27 2589.43,-31.17 2592.95,-33.07 2596.06,-34.99 2598.76,-36.91 2601.03,-38.83 2602.87,-40.76 2604.28,-42.69 2605.24,-44.61 2605.76,-46.53 2605.84,-48.45 2605.46,-50.36 2604.64,-52.27 2603.38,-54.16 2601.67,-56.05 2599.52,-57.93 2596.94,-59.79 2593.94,-61.64 2590.51,-63.48 2586.67,-65.29 2582.43,-67.09 2577.8,-68.86 2572.8,-70.61 2567.42,-72.33 2561.7,-74.02 2555.65,-75.67 2549.28,-77.28 2542.61,-78.85 2535.65,-80.36 2528.44,-81.83 2520.98,-83.23 2513.3,-84.57 2505.42,-85.84 2497.36,-87.03 2489.15,-88.14 2480.8,-89.16 2472.34,-90.09 2463.8,-90.92 2455.2,-91.64 2446.56,-92.24 2437.91,-92.73 2429.27,-93.1 2420.67,-93.34 2412.13,-93.45 2403.68,-93.42 2395.33,-93.24 2387.12,-92.93 2379.06,-92.47 2371.18,-91.86 2363.5,-91.1 2356.05,-90.19 2348.83,-89.13 2341.88,-87.92 2335.22,-86.56 2328.85,-85.06 2322.81,-83.42 2317.1,-81.63 2311.74,-79.72 2306.74,-77.68 2302.13,-75.51 2297.91,-73.24 2294.09,-70.86 2290.68,-68.38 2287.7,-65.81 2285.14,-63.17 2283.02,-60.45 2281.34,-57.68 2280.11,-54.86 2279.33,-52.01 2278.99,-49.14 2279.11,-46.25 2279.67,-43.36 2280.68,-40.49"/>
<text text-anchor="middle" x="2442.52" y="-43.31" font-family="sans-serif" font-size="16.00">GestionPedidosContext</text>
</g>
<!-- GestionDevolucionesContext&#45;&gt;GestionPedidosContext -->
<g id="edge10" class="edge">
<title>GestionDevolucionesContext&#45;&gt;GestionPedidosContext</title>
<path fill="none" stroke="black" stroke-width="2" d="M2244.93,-146.75C2239.49,-135 2237.92,-122.68 2245.52,-112.21 2258.31,-94.6 2276.05,-81.74 2295.7,-72.36"/>
<text text-anchor="middle" x="2301.52" y="-115.61" font-family="sans-serif" font-size="12.00">Customer/Supplier</text>
<polygon fill="white" stroke="transparent" points="2288.7,-63.36 2288.7,-80.36 2302.7,-80.36 2302.7,-63.36 2288.7,-63.36"/>
<text text-anchor="start" x="2290.7" y="-68.76" font-family="sans-serif" font-size="12.00">D</text>
<polygon fill="white" stroke="transparent" points="2237.93,-137.75 2237.93,-154.75 2251.93,-154.75 2251.93,-137.75 2237.93,-137.75"/>
<text text-anchor="start" x="2239.93" y="-143.15" font-family="sans-serif" font-size="12.00">U</text>
</g>
<!-- GestionPedidosContext&#45;&gt;CarritoComprasContext -->
<g id="edge12" class="edge">
<title>GestionPedidosContext&#45;&gt;CarritoComprasContext</title>
<path fill="none" stroke="black" stroke-width="2" d="M2477.7,-89.54C2482.14,-96.71 2486,-104.39 2488.52,-112.21 2506.01,-166.6 2503.87,-186.02 2487.52,-240.76 2465.9,-313.15 2454.25,-336.18 2395.52,-383.69 2349.96,-420.54 2290.54,-443.37 2235.35,-457.5"/>
<text text-anchor="middle" x="2538.52" y="-262.16" font-family="sans-serif" font-size="12.00">Customer/Supplier</text>
<polygon fill="white" stroke="transparent" points="2228.35,-448.5 2228.35,-465.5 2242.35,-465.5 2242.35,-448.5 2228.35,-448.5"/>
<text text-anchor="start" x="2230.35" y="-453.9" font-family="sans-serif" font-size="12.00">D</text>
<polygon fill="white" stroke="transparent" points="2470.7,-80.54 2470.7,-97.54 2484.7,-97.54 2484.7,-80.54 2470.7,-80.54"/>
<text text-anchor="start" x="2472.7" y="-85.94" font-family="sans-serif" font-size="12.00">U</text>
</g>
<!-- GestionPedidosContext&#45;&gt;GestionDevolucionesContext -->
<g id="edge11" class="edge">
<title>GestionPedidosContext&#45;&gt;GestionDevolucionesContext</title>
<path fill="none" stroke="black" stroke-width="2" d="M2392.8,-93.56C2381.27,-104.01 2369,-115.04 2357.52,-125.21 2350.47,-131.46 2343.01,-138 2335.63,-144.43"/>
<text text-anchor="middle" x="2428.52" y="-115.61" font-family="sans-serif" font-size="12.00">Customer/Supplier</text>
<polygon fill="white" stroke="transparent" points="2328.63,-135.43 2328.63,-152.43 2342.63,-152.43 2342.63,-135.43 2328.63,-135.43"/>
<text text-anchor="start" x="2330.63" y="-140.83" font-family="sans-serif" font-size="12.00">D</text>
<polygon fill="white" stroke="transparent" points="2385.8,-84.56 2385.8,-101.56 2399.8,-101.56 2399.8,-84.56 2385.8,-84.56"/>
<text text-anchor="start" x="2387.8" y="-89.96" font-family="sans-serif" font-size="12.00">U</text>
</g>
<!-- GestionSesionesContext -->
<g id="node9" class="node">
<title>GestionSesionesContext</title>
<polygon fill="none" stroke="black" stroke-width="2" points="2667.56,-651.64 2661.71,-654.08 2655.51,-656.43 2648.96,-658.69 2642.11,-660.86 2634.97,-662.91 2627.58,-664.85 2619.94,-666.66 2612.1,-668.34 2604.07,-669.89 2595.89,-671.28 2587.57,-672.53 2579.14,-673.62 2570.63,-674.55 2562.06,-675.32 2553.46,-675.93 2544.84,-676.38 2536.23,-676.65 2527.66,-676.76 2519.13,-676.71 2510.67,-676.5 2502.31,-676.13 2494.05,-675.6 2485.92,-674.92 2477.93,-674.09 2470.1,-673.12 2462.44,-672.01 2454.97,-670.78 2447.7,-669.42 2440.64,-667.95 2433.82,-666.37 2427.23,-664.69 2420.88,-662.92 2414.8,-661.06 2408.99,-659.13 2403.46,-657.13 2398.22,-655.08 2393.28,-652.97 2388.64,-650.82 2384.32,-648.64 2380.33,-646.43 2376.67,-644.2 2373.34,-641.96 2370.37,-639.72 2367.75,-637.48 2365.5,-635.24 2363.61,-633.02 2362.1,-630.82 2360.98,-628.65 2360.24,-626.5 2359.89,-624.38 2359.95,-622.3 2360.41,-620.26 2361.27,-618.26 2362.55,-616.31 2364.24,-614.41 2366.34,-612.55 2368.87,-610.75 2371.8,-609 2375.16,-607.3 2378.92,-605.65 2383.1,-604.07 2387.68,-602.54 2392.66,-601.07 2398.03,-599.65 2403.78,-598.3 2409.91,-597 2416.4,-595.77 2423.24,-594.6 2430.41,-593.49 2437.9,-592.44 2445.69,-591.46 2453.76,-590.55 2462.09,-589.71 2470.66,-588.94 2479.44,-588.24 2488.42,-587.62 2497.55,-587.07 2506.83,-586.61 2516.21,-586.23 2525.67,-585.93 2535.18,-585.73 2544.71,-585.61 2554.22,-585.59 2563.69,-585.67 2573.09,-585.85 2582.37,-586.13 2591.51,-586.52 2600.48,-587.01 2609.25,-587.62 2617.78,-588.34 2626.04,-589.17 2634.01,-590.12 2641.65,-591.19 2648.94,-592.37 2655.86,-593.67 2662.37,-595.08 2668.46,-596.6 2674.1,-598.24 2679.27,-599.99 2683.96,-601.85 2688.15,-603.81 2691.83,-605.87 2694.98,-608.02 2697.6,-610.26 2699.68,-612.59 2701.21,-614.99 2702.19,-617.46 2702.62,-619.99 2702.5,-622.57 2701.84,-625.19 2700.64,-627.85 2698.91,-630.54 2696.66,-633.23 2693.91,-635.94 2690.65,-638.63 2686.92,-641.31 2682.73,-643.96 2678.09,-646.57 2673.03,-649.14 2667.56,-651.64"/>
<text text-anchor="middle" x="2524.52" y="-624.2" font-family="sans-serif" font-size="16.00">GestionSesionesContext</text>
</g>
<!-- IntegracionRedesSocialesContext -->
<g id="node10" class="node">
<title>IntegracionRedesSocialesContext</title>
<polygon fill="none" stroke="black" stroke-width="2" points="566.8,-668.42 553.29,-667.36 540.11,-666.19 527.29,-664.92 514.91,-663.56 503,-662.1 491.62,-660.56 480.81,-658.94 470.62,-657.24 461.08,-655.47 452.23,-653.63 444.1,-651.74 436.72,-649.79 430.12,-647.79 424.31,-645.75 419.31,-643.67 415.13,-641.56 411.79,-639.42 409.27,-637.26 407.59,-635.09 406.73,-632.9 406.7,-630.71 407.46,-628.52 409.02,-626.34 411.34,-624.17 414.41,-622.01 418.2,-619.88 422.68,-617.77 427.81,-615.68 433.58,-613.64 439.93,-611.63 446.84,-609.66 454.26,-607.75 462.16,-605.88 470.49,-604.07 479.23,-602.32 488.32,-600.63 497.74,-599.01 507.43,-597.46 517.36,-595.99 527.5,-594.59 537.81,-593.27 548.26,-592.04 558.81,-590.9 569.43,-589.84 580.09,-588.88 590.77,-588.02 601.44,-587.25 612.07,-586.59 622.66,-586.03 633.16,-585.58 643.58,-585.23 653.89,-584.99 664.08,-584.86 674.14,-584.85 684.06,-584.95 693.82,-585.16 703.42,-585.49 712.85,-585.93 722.11,-586.49 731.18,-587.16 740.07,-587.94 748.77,-588.84 757.27,-589.85 765.56,-590.97 773.65,-592.19 781.52,-593.52 789.17,-594.96 796.59,-596.49 803.77,-598.12 810.7,-599.84 817.37,-601.65 823.77,-603.54 829.88,-605.51 835.69,-607.55 841.18,-609.66 846.34,-611.83 851.14,-614.05 855.58,-616.33 859.62,-618.64 863.25,-620.99 866.45,-623.37 869.19,-625.77 871.45,-628.18 873.22,-630.6 874.46,-633.02 875.17,-635.42 875.31,-637.81 874.86,-640.18 873.82,-642.51 872.16,-644.8 869.88,-647.04 866.94,-649.23 863.36,-651.35 859.11,-653.41 854.19,-655.39 848.61,-657.29 842.35,-659.1 835.44,-660.82 827.86,-662.43 819.64,-663.95 810.79,-665.35 801.33,-666.64 791.27,-667.81 780.65,-668.87 769.49,-669.8 757.83,-670.6 745.71,-671.28 733.15,-671.83 720.21,-672.25 706.92,-672.54 693.35,-672.69 679.53,-672.72 665.52,-672.62 651.37,-672.38 637.15,-672.03 622.89,-671.54 608.68,-670.94 594.55,-670.21 580.57,-669.37 566.8,-668.42"/>
<text text-anchor="middle" x="652.52" y="-624.2" font-family="sans-serif" font-size="16.00">IntegracionRedesSocialesContext</text>
</g>
<!-- IntegracionRedesSocialesContext&#45;&gt;VentasContext -->
<g id="edge13" class="edge">
<title>IntegracionRedesSocialesContext&#45;&gt;VentasContext</title>
<path fill="none" stroke="black" stroke-width="2" d="M726.89,-586.72C765.78,-565.66 813.05,-540.06 851.03,-519.49"/>
<text text-anchor="middle" x="829.02" y="-551.52" font-family="sans-serif" font-size="12.00">Partnership</text>
</g>
<!-- NotificacionesComunicacionesContext -->
<g id="node11" class="node">
<title>NotificacionesComunicacionesContext</title>
<polygon fill="none" stroke="black" stroke-width="2" points="1367.51,-658.39 1356.4,-660.5 1344.87,-662.51 1332.95,-664.42 1320.69,-666.22 1308.14,-667.89 1295.34,-669.43 1282.33,-670.84 1269.16,-672.11 1255.88,-673.24 1242.53,-674.21 1229.16,-675.03 1215.79,-675.69 1202.48,-676.19 1189.25,-676.52 1176.16,-676.7 1163.22,-676.71 1150.47,-676.56 1137.96,-676.24 1125.69,-675.77 1113.7,-675.14 1102.02,-674.36 1090.66,-673.43 1079.65,-672.36 1069,-671.14 1058.74,-669.8 1048.88,-668.33 1039.42,-666.74 1030.4,-665.05 1021.8,-663.25 1013.66,-661.35 1005.96,-659.37 998.73,-657.31 991.96,-655.17 985.66,-652.98 979.84,-650.74 974.51,-648.45 969.66,-646.13 965.3,-643.78 961.43,-641.42 958.06,-639.04 955.2,-636.67 952.83,-634.29 950.98,-631.93 949.64,-629.59 948.81,-627.28 948.5,-625 948.72,-622.75 949.46,-620.55 950.73,-618.39 952.54,-616.29 954.88,-614.24 957.77,-612.25 961.19,-610.33 965.16,-608.46 969.68,-606.67 974.74,-604.94 980.35,-603.29 986.5,-601.71 993.2,-600.2 1000.43,-598.77 1008.19,-597.41 1016.48,-596.12 1025.28,-594.92 1034.58,-593.79 1044.37,-592.74 1054.64,-591.77 1065.36,-590.87 1076.52,-590.05 1088.09,-589.31 1100.05,-588.65 1112.38,-588.07 1125.03,-587.57 1137.99,-587.16 1151.21,-586.82 1164.67,-586.56 1178.31,-586.39 1192.11,-586.31 1206.02,-586.31 1219.99,-586.4 1233.99,-586.57 1247.96,-586.84 1261.85,-587.2 1275.63,-587.65 1289.23,-588.2 1302.61,-588.84 1315.72,-589.57 1328.51,-590.41 1340.93,-591.34 1352.94,-592.37 1364.48,-593.5 1375.52,-594.73 1386,-596.06 1395.89,-597.49 1405.14,-599.02 1413.72,-600.64 1421.6,-602.35 1428.73,-604.16 1435.1,-606.05 1440.67,-608.04 1445.43,-610.1 1449.35,-612.24 1452.42,-614.45 1454.63,-616.73 1455.97,-619.07 1456.44,-621.46 1456.04,-623.91 1454.77,-626.39 1452.64,-628.91 1449.66,-631.45 1445.85,-634 1441.22,-636.56 1435.8,-639.13 1429.61,-641.67 1422.68,-644.2 1415.05,-646.7 1406.74,-649.16 1397.79,-651.56 1388.24,-653.91 1378.13,-656.19 1367.51,-658.39"/>
<text text-anchor="middle" x="1186.52" y="-624.2" font-family="sans-serif" font-size="16.00">NotificacionesComunicacionesContext</text>
</g>
<!-- NotificacionesComunicacionesContext&#45;&gt;VentasContext -->
<g id="edge14" class="edge">
<title>NotificacionesComunicacionesContext&#45;&gt;VentasContext</title>
<path fill="none" stroke="black" stroke-width="2" d="M1114.27,-587.87C1074.42,-566.29 1025.28,-539.68 986.33,-518.59"/>
<text text-anchor="middle" x="1096.02" y="-551.52" font-family="sans-serif" font-size="12.00">Partnership</text>
</g>
<!-- ProcesoPagosContext -->
<g id="node12" class="node">
<title>ProcesoPagosContext</title>
<polygon fill="none" stroke="black" stroke-width="2" points="2580.62,-164.09 2586.89,-161.86 2593.45,-159.72 2600.26,-157.69 2607.31,-155.76 2614.57,-153.95 2622.02,-152.26 2629.62,-150.7 2637.35,-149.28 2645.19,-148.01 2653.1,-146.88 2661.07,-145.91 2669.08,-145.09 2677.09,-144.44 2685.08,-143.94 2693.04,-143.61 2700.93,-143.44 2708.75,-143.44 2716.47,-143.59 2724.08,-143.91 2731.55,-144.39 2738.88,-145.02 2746.04,-145.8 2753.02,-146.73 2759.82,-147.8 2766.41,-149.01 2772.79,-150.35 2778.95,-151.8 2784.87,-153.38 2790.56,-155.06 2795.99,-156.83 2801.17,-158.71 2806.09,-160.66 2810.74,-162.69 2815.12,-164.78 2819.22,-166.93 2823.03,-169.14 2826.55,-171.38 2829.79,-173.65 2832.72,-175.95 2835.35,-178.26 2837.68,-180.58 2839.7,-182.9 2841.4,-185.22 2842.79,-187.52 2843.86,-189.8 2844.6,-192.06 2845.01,-194.29 2845.09,-196.48 2844.84,-198.63 2844.25,-200.74 2843.31,-202.8 2842.03,-204.8 2840.41,-206.75 2838.44,-208.65 2836.11,-210.48 2833.44,-212.25 2830.41,-213.96 2827.04,-215.6 2823.32,-217.18 2819.25,-218.69 2814.84,-220.13 2810.09,-221.5 2805.01,-222.8 2799.6,-224.03 2793.88,-225.19 2787.85,-226.28 2781.51,-227.3 2774.9,-228.25 2768.01,-229.12 2760.87,-229.92 2753.48,-230.65 2745.87,-231.3 2738.06,-231.87 2730.07,-232.36 2721.92,-232.78 2713.62,-233.11 2705.22,-233.37 2696.72,-233.54 2688.17,-233.62 2679.58,-233.62 2670.98,-233.52 2662.41,-233.34 2653.89,-233.06 2645.45,-232.68 2637.13,-232.21 2628.94,-231.64 2620.93,-230.97 2613.11,-230.2 2605.53,-229.32 2598.21,-228.34 2591.17,-227.26 2584.45,-226.07 2578.06,-224.77 2572.04,-223.37 2566.41,-221.87 2561.19,-220.27 2556.39,-218.57 2552.04,-216.76 2548.16,-214.87 2544.75,-212.88 2541.84,-210.81 2539.43,-208.66 2537.52,-206.43 2536.14,-204.12 2535.27,-201.76 2534.92,-199.33 2535.09,-196.86 2535.79,-194.34 2536.99,-191.78 2538.7,-189.2 2540.9,-186.61 2543.59,-184.01 2546.75,-181.4 2550.37,-178.81 2554.43,-176.25 2558.91,-173.71 2563.79,-171.22 2569.05,-168.77 2574.67,-166.39 2580.62,-164.09"/>
<text text-anchor="middle" x="2698.52" y="-188.19" font-family="sans-serif" font-size="16.00">ProcesoPagosContext</text>
</g>
<!-- ProcesoPagosContext&#45;&gt;GestionPedidosContext -->
<g id="edge15" class="edge">
<title>ProcesoPagosContext&#45;&gt;GestionPedidosContext</title>
<path fill="none" stroke="black" stroke-width="2" d="M2627.21,-151.19C2590.37,-130.63 2545.68,-105.68 2509.49,-85.48"/>
<text text-anchor="middle" x="2634.52" y="-115.61" font-family="sans-serif" font-size="12.00">Customer/Supplier</text>
<polygon fill="white" stroke="transparent" points="2502.49,-76.48 2502.49,-93.48 2516.49,-93.48 2516.49,-76.48 2502.49,-76.48"/>
<text text-anchor="start" x="2504.49" y="-81.88" font-family="sans-serif" font-size="12.00">D</text>
<polygon fill="white" stroke="transparent" points="2620.21,-142.19 2620.21,-159.19 2634.21,-159.19 2634.21,-142.19 2620.21,-142.19"/>
<text text-anchor="start" x="2622.21" y="-147.59" font-family="sans-serif" font-size="12.00">U</text>
</g>
<!-- SeguridadContext -->
<g id="node13" class="node">
<title>SeguridadContext</title>
<polygon fill="none" stroke="black" stroke-width="2" points="2878.81,-672.03 2870,-672.29 2861.21,-672.43 2852.48,-672.44 2843.85,-672.33 2835.35,-672.09 2827.01,-671.73 2818.87,-671.25 2810.95,-670.64 2803.29,-669.91 2795.92,-669.06 2788.85,-668.08 2782.11,-667 2775.72,-665.8 2769.7,-664.49 2764.07,-663.07 2758.84,-661.55 2754.03,-659.93 2749.63,-658.22 2745.67,-656.42 2742.14,-654.53 2739.04,-652.57 2736.38,-650.53 2734.16,-648.43 2732.37,-646.27 2731.01,-644.06 2730.06,-641.8 2729.52,-639.5 2729.38,-637.17 2729.63,-634.81 2730.26,-632.43 2731.24,-630.05 2732.57,-627.66 2734.24,-625.27 2736.21,-622.89 2738.49,-620.53 2741.05,-618.2 2743.88,-615.9 2746.96,-613.63 2750.27,-611.41 2753.81,-609.24 2757.55,-607.13 2761.48,-605.09 2765.6,-603.11 2769.88,-601.21 2774.31,-599.38 2778.88,-597.65 2783.59,-596 2788.43,-594.44 2793.38,-592.99 2798.44,-591.63 2803.6,-590.38 2808.86,-589.24 2814.2,-588.21 2819.64,-587.29 2825.15,-586.49 2830.74,-585.8 2836.41,-585.23 2842.14,-584.78 2847.94,-584.45 2853.81,-584.23 2859.73,-584.14 2865.7,-584.16 2871.73,-584.3 2877.8,-584.56 2883.91,-584.93 2890.04,-585.42 2896.2,-586.02 2902.38,-586.73 2908.56,-587.54 2914.73,-588.46 2920.89,-589.49 2927.01,-590.61 2933.09,-591.83 2939.11,-593.14 2945.05,-594.54 2950.89,-596.02 2956.62,-597.59 2962.22,-599.23 2967.67,-600.95 2972.94,-602.73 2978.01,-604.58 2982.87,-606.49 2987.48,-608.45 2991.84,-610.47 2995.9,-612.53 2999.66,-614.62 3003.09,-616.76 3006.17,-618.92 3008.88,-621.11 3011.2,-623.31 3013.11,-625.53 3014.59,-627.76 3015.63,-630 3016.22,-632.23 3016.33,-634.45 3015.97,-636.66 3015.12,-638.84 3013.78,-641.01 3011.95,-643.14 3009.62,-645.24 3006.79,-647.3 3003.47,-649.31 2999.67,-651.27 2995.39,-653.17 2990.65,-655.01 2985.45,-656.79 2979.83,-658.49 2973.79,-660.11 2967.36,-661.65 2960.57,-663.11 2953.42,-664.47 2945.97,-665.74 2938.23,-666.91 2930.23,-667.97 2922.02,-668.93 2913.61,-669.78 2905.05,-670.52 2896.38,-671.14 2887.62,-671.64 2878.81,-672.03"/>
<text text-anchor="middle" x="2868.52" y="-624.2" font-family="sans-serif" font-size="16.00">SeguridadContext</text>
</g>
<!-- ServicioClienteContext -->
<g id="node14" class="node">
<title>ServicioClienteContext</title>
<polygon fill="none" stroke="black" stroke-width="2" points="1483.82,-638.94 1481.05,-636.16 1478.73,-633.36 1476.87,-630.57 1475.48,-627.78 1474.57,-625.01 1474.14,-622.28 1474.2,-619.59 1474.76,-616.94 1475.81,-614.36 1477.35,-611.85 1479.39,-609.41 1481.92,-607.06 1484.93,-604.81 1488.41,-602.65 1492.36,-600.6 1496.76,-598.66 1501.6,-596.84 1506.87,-595.13 1512.54,-593.55 1518.61,-592.09 1525.05,-590.75 1531.84,-589.55 1538.96,-588.47 1546.38,-587.52 1554.08,-586.7 1562.04,-586.01 1570.22,-585.44 1578.61,-584.99 1587.16,-584.66 1595.86,-584.45 1604.68,-584.35 1613.58,-584.36 1622.54,-584.48 1631.52,-584.7 1640.51,-585.02 1649.46,-585.44 1658.35,-585.94 1667.16,-586.54 1675.86,-587.22 1684.41,-587.97 1692.8,-588.81 1701,-589.71 1708.99,-590.69 1716.74,-591.73 1724.23,-592.83 1731.45,-594 1738.37,-595.22 1744.98,-596.5 1751.26,-597.84 1757.19,-599.23 1762.77,-600.66 1767.98,-602.15 1772.81,-603.69 1777.25,-605.27 1781.29,-606.9 1784.94,-608.57 1788.17,-610.29 1790.99,-612.05 1793.39,-613.85 1795.38,-615.69 1796.95,-617.57 1798.11,-619.49 1798.85,-621.45 1799.18,-623.44 1799.1,-625.46 1798.61,-627.51 1797.73,-629.59 1796.45,-631.7 1794.79,-633.82 1792.74,-635.96 1790.33,-638.11 1787.55,-640.27 1784.41,-642.43 1780.93,-644.58 1777.11,-646.73 1772.96,-648.86 1768.5,-650.97 1763.73,-653.05 1758.67,-655.09 1753.32,-657.09 1747.7,-659.04 1741.83,-660.93 1735.7,-662.75 1729.34,-664.49 1722.76,-666.15 1715.97,-667.72 1708.98,-669.19 1701.82,-670.56 1694.49,-671.8 1687.01,-672.93 1679.39,-673.93 1671.66,-674.79 1663.82,-675.51 1655.9,-676.08 1647.91,-676.51 1639.87,-676.77 1631.79,-676.88 1623.7,-676.83 1615.62,-676.61 1607.57,-676.23 1599.56,-675.68 1591.61,-674.96 1583.75,-674.08 1576,-673.04 1568.38,-671.84 1560.91,-670.48 1553.61,-668.97 1546.5,-667.32 1539.61,-665.53 1532.95,-663.6 1526.55,-661.55 1520.43,-659.38 1514.61,-657.1 1509.11,-654.72 1503.94,-652.25 1499.14,-649.7 1494.7,-647.09 1490.66,-644.41 1487.03,-641.69 1483.82,-638.94"/>
<text text-anchor="middle" x="1640.52" y="-624.2" font-family="sans-serif" font-size="16.00">ServicioClienteContext</text>
</g>
<!-- ServicioClienteContext&#45;&gt;VentasContext -->
<g id="edge16" class="edge">
<title>ServicioClienteContext&#45;&gt;VentasContext</title>
<path fill="none" stroke="black" stroke-width="2" d="M1518.49,-592.08C1500.78,-587.46 1482.73,-582.99 1465.52,-579.12 1314.19,-545.09 1137.06,-515.58 1026.56,-498.39"/>
<text text-anchor="middle" x="1412.02" y="-551.52" font-family="sans-serif" font-size="12.00">Partnership</text>
</g>
</g>
</svg>
