<svg width="2000px" height="450px"
 viewBox="0.00 0.00 3068.65 690.20" xmlns="http://www.w3.org/2000/svg" xmlns:xlink="http://www.w3.org/1999/xlink">
<g id="graph0" class="graph" transform="scale(1.0 1.0) rotate(0) translate(4 686.2)">
<title>ContextMapGraph</title>
<polygon fill="white" stroke="transparent" points="-4,4 -4,-686.2 3064.65,-686.2 3064.65,4 -4,4"/>
<!-- AnaliticasReportingContext -->
<g id="node1" class="node">
<title>AnaliticasReportingContext</title>
<polygon fill="none" stroke="black" stroke-width="2" points="303.35,-595.71 313.96,-597.13 324.24,-598.65 334.14,-600.25 343.64,-601.94 352.68,-603.7 361.23,-605.54 369.26,-607.44 376.73,-609.4 383.62,-611.42 389.89,-613.47 395.52,-615.57 400.5,-617.7 404.81,-619.86 408.43,-622.04 411.35,-624.23 413.57,-626.44 415.09,-628.64 415.9,-630.85 416,-633.04 415.42,-635.23 414.15,-637.39 412.21,-639.54 409.62,-641.66 406.39,-643.74 402.56,-645.79 398.13,-647.8 393.15,-649.77 387.64,-651.68 381.63,-653.55 375.15,-655.37 368.24,-657.12 360.92,-658.81 353.24,-660.44 345.23,-662.01 336.92,-663.5 328.35,-664.92 319.55,-666.27 310.57,-667.54 301.42,-668.72 292.16,-669.83 282.79,-670.85 273.37,-671.78 263.91,-672.63 254.45,-673.38 245.01,-674.04 235.61,-674.6 226.28,-675.06 217.03,-675.43 207.9,-675.69 198.88,-675.86 190.01,-675.92 181.29,-675.87 172.74,-675.72 164.36,-675.45 156.17,-675.09 148.17,-674.61 140.38,-674.02 132.79,-673.33 125.42,-672.52 118.27,-671.61 111.34,-670.59 104.64,-669.47 98.16,-668.24 91.93,-666.9 85.93,-665.47 80.17,-663.94 74.65,-662.31 69.39,-660.59 64.39,-658.78 59.64,-656.89 55.17,-654.92 50.97,-652.87 47.06,-650.76 43.44,-648.58 40.12,-646.34 37.12,-644.05 34.44,-641.72 32.11,-639.35 30.12,-636.95 28.5,-634.52 27.25,-632.08 26.4,-629.63 25.95,-627.19 25.92,-624.74 26.32,-622.32 27.16,-619.92 28.47,-617.55 30.24,-615.23 32.49,-612.95 35.23,-610.73 38.47,-608.57 42.21,-606.49 46.46,-604.48 51.21,-602.57 56.48,-600.74 62.26,-599.02 68.54,-597.4 75.31,-595.89 82.58,-594.49 90.32,-593.22 98.52,-592.08 107.16,-591.06 116.22,-590.17 125.68,-589.42 135.52,-588.8 145.7,-588.33 156.19,-587.99 166.97,-587.79 177.98,-587.73 189.21,-587.81 200.6,-588.02 212.11,-588.37 223.71,-588.86 235.34,-589.47 246.96,-590.22 258.53,-591.09 270.01,-592.07 281.33,-593.18 292.46,-594.39 303.35,-595.71"/>
<text text-anchor="middle" x="208" y="-629.55" font-family="sans-serif" font-size="16.00">AnaliticasReportingContext</text>
</g>
<!-- VentasContext -->
<g id="node2" class="node">
<title>VentasContext</title>
<polygon fill="none" stroke="black" stroke-width="2" points="1054.15,-465.96 1057.82,-468.45 1061.18,-470.99 1064.23,-473.56 1066.94,-476.15 1069.32,-478.75 1071.33,-481.35 1072.99,-483.95 1074.27,-486.53 1075.18,-489.08 1075.69,-491.6 1075.82,-494.07 1075.56,-496.5 1074.91,-498.87 1073.87,-501.17 1072.44,-503.4 1070.63,-505.56 1068.44,-507.63 1065.89,-509.61 1062.97,-511.51 1059.71,-513.31 1056.11,-515.01 1052.18,-516.62 1047.96,-518.12 1043.44,-519.52 1038.64,-520.81 1033.59,-522 1028.31,-523.08 1022.81,-524.06 1017.12,-524.94 1011.25,-525.71 1005.24,-526.38 999.09,-526.95 992.84,-527.43 986.51,-527.8 980.11,-528.08 973.67,-528.26 967.22,-528.36 960.77,-528.36 954.35,-528.28 947.97,-528.11 941.66,-527.86 935.44,-527.52 929.31,-527.11 923.31,-526.61 917.45,-526.04 911.74,-525.39 906.19,-524.66 900.83,-523.86 895.66,-522.99 890.69,-522.05 885.94,-521.03 881.41,-519.94 877.11,-518.78 873.05,-517.54 869.24,-516.24 865.67,-514.87 862.36,-513.43 859.31,-511.92 856.51,-510.34 853.98,-508.7 851.71,-506.99 849.7,-505.22 847.96,-503.39 846.48,-501.5 845.26,-499.54 844.3,-497.54 843.59,-495.48 843.15,-493.37 842.96,-491.22 843.02,-489.03 843.33,-486.8 843.89,-484.55 844.69,-482.26 845.73,-479.96 847.01,-477.65 848.52,-475.32 850.27,-473 852.25,-470.69 854.45,-468.39 856.88,-466.12 859.52,-463.88 862.39,-461.68 865.46,-459.53 868.75,-457.43 872.24,-455.4 875.93,-453.45 879.82,-451.58 883.9,-449.8 888.17,-448.12 892.62,-446.55 897.24,-445.09 902.03,-443.75 906.98,-442.55 912.08,-441.48 917.32,-440.55 922.7,-439.77 928.2,-439.13 933.81,-438.66 939.52,-438.34 945.32,-438.18 951.19,-438.18 957.12,-438.35 963.09,-438.68 969.09,-439.18 975.11,-439.84 981.11,-440.65 987.1,-441.63 993.04,-442.75 998.93,-444.03 1004.73,-445.45 1010.44,-447 1016.02,-448.69 1021.48,-450.5 1026.77,-452.43 1031.89,-454.47 1036.81,-456.6 1041.51,-458.83 1045.98,-461.14 1050.2,-463.52 1054.15,-465.96"/>
<text text-anchor="middle" x="953" y="-482.93" font-family="sans-serif" font-size="16.00">VentasContext</text>
</g>
<!-- AnaliticasReportingContext&#45;&gt;VentasContext -->
<g id="edge1" class="edge">
<title>AnaliticasReportingContext&#45;&gt;VentasContext</title>
<path fill="none" stroke="black" stroke-width="2" d="M342.99,-601.81C370.11,-595.89 398.44,-589.87 425,-584.51 572.08,-554.82 743,-524.2 849.59,-505.56"/>
<text text-anchor="middle" x="619.5" y="-556.91" font-family="sans-serif" font-size="12.00">Partnership</text>
</g>
<!-- AutenticacionAutorizacionContext -->
<g id="node3" class="node">
<title>AutenticacionAutorizacionContext</title>
<polygon fill="none" stroke="black" stroke-width="2" points="1994.93,-665.53 1983.93,-663.63 1973.41,-661.64 1963.43,-659.59 1954.03,-657.48 1945.24,-655.31 1937.11,-653.1 1929.66,-650.85 1922.94,-648.57 1916.97,-646.27 1911.77,-643.95 1907.36,-641.63 1903.76,-639.3 1900.99,-636.98 1899.06,-634.67 1897.96,-632.39 1897.7,-630.12 1898.28,-627.89 1899.69,-625.7 1901.92,-623.54 1904.96,-621.44 1908.79,-619.38 1913.38,-617.38 1918.72,-615.43 1924.76,-613.55 1931.5,-611.73 1938.88,-609.98 1946.87,-608.3 1955.44,-606.69 1964.55,-605.16 1974.15,-603.7 1984.21,-602.32 1994.67,-601.02 2005.5,-599.8 2016.64,-598.66 2028.06,-597.61 2039.71,-596.63 2051.55,-595.74 2063.52,-594.94 2075.6,-594.22 2087.74,-593.59 2099.89,-593.05 2112.03,-592.6 2124.11,-592.23 2136.09,-591.96 2147.96,-591.77 2159.67,-591.68 2171.19,-591.68 2182.5,-591.77 2193.58,-591.95 2204.41,-592.23 2214.95,-592.61 2225.21,-593.08 2235.15,-593.64 2244.77,-594.31 2254.05,-595.06 2262.98,-595.92 2271.56,-596.87 2279.77,-597.92 2287.62,-599.06 2295.09,-600.3 2302.18,-601.64 2308.89,-603.07 2315.22,-604.58 2321.16,-606.19 2326.71,-607.88 2331.87,-609.66 2336.63,-611.52 2341,-613.46 2344.97,-615.47 2348.55,-617.55 2351.72,-619.7 2354.48,-621.9 2356.83,-624.16 2358.77,-626.47 2360.29,-628.81 2361.38,-631.2 2362.03,-633.61 2362.25,-636.04 2362.02,-638.49 2361.33,-640.94 2360.18,-643.38 2358.56,-645.82 2356.47,-648.24 2353.88,-650.62 2350.81,-652.98 2347.23,-655.28 2343.15,-657.53 2338.56,-659.72 2333.45,-661.84 2327.83,-663.88 2321.69,-665.83 2315.03,-667.68 2307.86,-669.44 2300.18,-671.08 2292,-672.61 2283.32,-674.02 2274.16,-675.3 2264.54,-676.44 2254.46,-677.45 2243.95,-678.32 2233.03,-679.04 2221.73,-679.62 2210.07,-680.04 2198.08,-680.32 2185.8,-680.44 2173.26,-680.42 2160.5,-680.24 2147.56,-679.91 2134.48,-679.43 2121.3,-678.81 2108.08,-678.04 2094.85,-677.14 2081.67,-676.1 2068.59,-674.93 2055.65,-673.64 2042.91,-672.23 2030.42,-670.71 2018.23,-669.08 2006.38,-667.35 1994.93,-665.53"/>
<text text-anchor="middle" x="2148" y="-629.55" font-family="sans-serif" font-size="16.00">AutenticacionAutorizacionContext</text>
</g>
<!-- CarritoComprasContext -->
<g id="node4" class="node">
<title>CarritoComprasContext</title>
<polygon fill="none" stroke="black" stroke-width="2" points="2300.08,-504.38 2295.88,-507.03 2291.28,-509.61 2286.31,-512.12 2280.98,-514.55 2275.31,-516.87 2269.31,-519.1 2263.02,-521.2 2256.44,-523.19 2249.61,-525.04 2242.54,-526.76 2235.25,-528.33 2227.76,-529.76 2220.1,-531.03 2212.28,-532.14 2204.34,-533.09 2196.28,-533.88 2188.14,-534.5 2179.92,-534.96 2171.66,-535.25 2163.37,-535.38 2155.08,-535.35 2146.79,-535.16 2138.54,-534.82 2130.34,-534.32 2122.21,-533.68 2114.16,-532.89 2106.22,-531.97 2098.39,-530.92 2090.71,-529.74 2083.18,-528.45 2075.83,-527.05 2068.65,-525.55 2061.68,-523.96 2054.93,-522.28 2048.41,-520.52 2042.13,-518.7 2036.11,-516.81 2030.36,-514.87 2024.9,-512.88 2019.74,-510.85 2014.88,-508.79 2010.35,-506.7 2006.15,-504.6 2002.3,-502.48 1998.79,-500.36 1995.66,-498.23 1992.9,-496.11 1990.52,-494 1988.53,-491.9 1986.95,-489.81 1985.77,-487.75 1985,-485.7 1984.65,-483.69 1984.73,-481.7 1985.23,-479.74 1986.16,-477.82 1987.53,-475.93 1989.33,-474.07 1991.56,-472.25 1994.22,-470.47 1997.31,-468.73 2000.82,-467.02 2004.76,-465.36 2009.1,-463.74 2013.86,-462.17 2019,-460.63 2024.54,-459.15 2030.44,-457.71 2036.71,-456.32 2043.32,-454.98 2050.26,-453.69 2057.51,-452.46 2065.05,-451.29 2072.86,-450.18 2080.93,-449.13 2089.22,-448.15 2097.72,-447.24 2106.39,-446.4 2115.22,-445.64 2124.18,-444.97 2133.24,-444.38 2142.37,-443.88 2151.54,-443.47 2160.73,-443.16 2169.9,-442.96 2179.03,-442.86 2188.09,-442.88 2197.04,-443.01 2205.86,-443.25 2214.52,-443.62 2222.99,-444.11 2231.24,-444.73 2239.25,-445.48 2246.99,-446.35 2254.43,-447.36 2261.56,-448.5 2268.34,-449.76 2274.75,-451.16 2280.78,-452.69 2286.41,-454.34 2291.62,-456.11 2296.38,-458 2300.7,-460.01 2304.56,-462.13 2307.94,-464.35 2310.84,-466.67 2313.25,-469.07 2315.17,-471.57 2316.58,-474.13 2317.5,-476.76 2317.92,-479.45 2317.84,-482.18 2317.27,-484.94 2316.21,-487.73 2314.66,-490.54 2312.65,-493.35 2310.17,-496.15 2307.24,-498.93 2303.88,-501.67 2300.08,-504.38"/>
<text text-anchor="middle" x="2148" y="-482.93" font-family="sans-serif" font-size="16.00">CarritoComprasContext</text>
</g>
<!-- AutenticacionAutorizacionContext&#45;&gt;CarritoComprasContext -->
<g id="edge2" class="edge">
<title>AutenticacionAutorizacionContext&#45;&gt;CarritoComprasContext</title>
<path fill="none" stroke="black" stroke-width="2" d="M2148,-591.68C2148,-574.14 2148,-553.5 2148,-535.25"/>
<text text-anchor="middle" x="2204" y="-556.91" font-family="sans-serif" font-size="12.00">Customer/Supplier</text>
<polygon fill="white" stroke="transparent" points="2141,-526.25 2141,-543.25 2155,-543.25 2155,-526.25 2141,-526.25"/>
<text text-anchor="start" x="2143" y="-531.65" font-family="sans-serif" font-size="12.00">D</text>
<polygon fill="white" stroke="transparent" points="2141,-582.68 2141,-599.68 2155,-599.68 2155,-582.68 2141,-582.68"/>
<text text-anchor="start" x="2143" y="-588.08" font-family="sans-serif" font-size="12.00">U</text>
</g>
<!-- GestionProductosContext -->
<g id="node5" class="node">
<title>GestionProductosContext</title>
<polygon fill="none" stroke="black" stroke-width="2" points="2108.1,-334.3 2109.94,-337.12 2111.29,-339.94 2112.14,-342.75 2112.48,-345.54 2112.31,-348.3 2111.63,-351.01 2110.44,-353.66 2108.74,-356.25 2106.52,-358.77 2103.8,-361.21 2100.58,-363.55 2096.87,-365.8 2092.68,-367.94 2088.01,-369.97 2082.88,-371.88 2077.31,-373.67 2071.31,-375.33 2064.9,-376.87 2058.1,-378.27 2050.93,-379.54 2043.4,-380.67 2035.55,-381.66 2027.4,-382.53 2018.98,-383.25 2010.3,-383.84 2001.4,-384.31 1992.31,-384.64 1983.05,-384.84 1973.65,-384.93 1964.15,-384.89 1954.57,-384.74 1944.95,-384.47 1935.31,-384.1 1925.68,-383.63 1916.09,-383.06 1906.58,-382.4 1897.17,-381.64 1887.88,-380.81 1878.76,-379.89 1869.82,-378.91 1861.09,-377.85 1852.59,-376.72 1844.36,-375.53 1836.41,-374.29 1828.76,-372.98 1821.44,-371.63 1814.46,-370.23 1807.84,-368.78 1801.6,-367.28 1795.76,-365.75 1790.32,-364.17 1785.31,-362.56 1780.72,-360.9 1776.58,-359.22 1772.88,-357.5 1769.64,-355.74 1766.86,-353.96 1764.54,-352.14 1762.69,-350.3 1761.31,-348.42 1760.39,-346.52 1759.95,-344.6 1759.96,-342.64 1760.43,-340.67 1761.36,-338.68 1762.74,-336.67 1764.57,-334.64 1766.83,-332.6 1769.51,-330.56 1772.62,-328.5 1776.13,-326.45 1780.04,-324.4 1784.33,-322.36 1789,-320.33 1794.03,-318.32 1799.4,-316.33 1805.11,-314.38 1811.13,-312.46 1817.47,-310.59 1824.08,-308.77 1830.98,-307.01 1838.12,-305.31 1845.51,-303.69 1853.12,-302.15 1860.93,-300.69 1868.93,-299.34 1877.1,-298.09 1885.42,-296.94 1893.88,-295.92 1902.44,-295.02 1911.09,-294.25 1919.82,-293.62 1928.6,-293.13 1937.41,-292.79 1946.24,-292.6 1955.05,-292.56 1963.83,-292.68 1972.56,-292.97 1981.21,-293.41 1989.77,-294.02 1998.2,-294.78 2006.5,-295.71 2014.64,-296.8 2022.59,-298.05 2030.34,-299.45 2037.86,-301 2045.13,-302.69 2052.13,-304.53 2058.84,-306.49 2065.23,-308.58 2071.3,-310.79 2077.02,-313.1 2082.37,-315.51 2087.33,-318.02 2091.89,-320.6 2096.02,-323.24 2099.73,-325.95 2102.99,-328.7 2105.78,-331.49 2108.1,-334.3"/>
<text text-anchor="middle" x="1934" y="-336.86" font-family="sans-serif" font-size="16.00">GestionProductosContext</text>
</g>
<!-- CarritoComprasContext&#45;&gt;GestionProductosContext -->
<g id="edge3" class="edge">
<title>CarritoComprasContext&#45;&gt;GestionProductosContext</title>
<path fill="none" stroke="black" stroke-width="2" d="M2072.28,-450.06C2055.27,-441 2037.64,-430.75 2022,-419.96 2007.02,-409.62 1991.82,-397 1978.37,-384.95"/>
<text text-anchor="middle" x="2078" y="-410.36" font-family="sans-serif" font-size="12.00">Customer/Supplier</text>
<polygon fill="white" stroke="transparent" points="1971.37,-375.95 1971.37,-392.95 1985.37,-392.95 1985.37,-375.95 1971.37,-375.95"/>
<text text-anchor="start" x="1973.37" y="-381.35" font-family="sans-serif" font-size="12.00">D</text>
<polygon fill="white" stroke="transparent" points="2065.28,-441.06 2065.28,-458.06 2079.28,-458.06 2079.28,-441.06 2065.28,-441.06"/>
<text text-anchor="start" x="2067.28" y="-446.46" font-family="sans-serif" font-size="12.00">U</text>
</g>
<!-- GestionClientesContext -->
<g id="node8" class="node">
<title>GestionClientesContext</title>
<polygon fill="none" stroke="black" stroke-width="2" points="2237.98,-153.16 2248.29,-154.04 2258.4,-155.02 2268.24,-156.11 2277.8,-157.31 2287.03,-158.6 2295.89,-159.99 2304.34,-161.46 2312.36,-163.02 2319.91,-164.66 2326.97,-166.37 2333.51,-168.16 2339.5,-170.01 2344.93,-171.91 2349.78,-173.87 2354.04,-175.89 2357.7,-177.94 2360.75,-180.03 2363.19,-182.15 2365.01,-184.3 2366.22,-186.48 2366.83,-188.67 2366.84,-190.86 2366.26,-193.07 2365.11,-195.27 2363.4,-197.47 2361.15,-199.66 2358.38,-201.83 2355.12,-203.98 2351.38,-206.11 2347.19,-208.2 2342.58,-210.26 2337.57,-212.28 2332.2,-214.26 2326.49,-216.18 2320.46,-218.05 2314.16,-219.87 2307.59,-221.62 2300.81,-223.3 2293.82,-224.91 2286.66,-226.45 2279.35,-227.91 2271.92,-229.28 2264.38,-230.57 2256.78,-231.77 2249.11,-232.88 2241.41,-233.89 2233.69,-234.8 2225.97,-235.61 2218.26,-236.32 2210.57,-236.92 2202.93,-237.41 2195.34,-237.79 2187.8,-238.05 2180.34,-238.21 2172.95,-238.24 2165.64,-238.17 2158.43,-237.97 2151.31,-237.66 2144.29,-237.23 2137.37,-236.68 2130.56,-236.02 2123.87,-235.24 2117.29,-234.35 2110.83,-233.35 2104.5,-232.23 2098.3,-231.01 2092.25,-229.68 2086.33,-228.25 2080.57,-226.72 2074.97,-225.09 2069.54,-223.38 2064.29,-221.58 2059.23,-219.69 2054.38,-217.73 2049.75,-215.7 2045.34,-213.6 2041.19,-211.44 2037.29,-209.22 2033.68,-206.96 2030.36,-204.66 2027.36,-202.33 2024.69,-199.97 2022.37,-197.59 2020.43,-195.19 2018.86,-192.79 2017.71,-190.4 2016.97,-188.01 2016.68,-185.64 2016.83,-183.3 2017.46,-180.98 2018.57,-178.71 2020.17,-176.48 2022.27,-174.31 2024.88,-172.19 2028.01,-170.14 2031.66,-168.17 2035.82,-166.27 2040.51,-164.46 2045.7,-162.74 2051.41,-161.11 2057.61,-159.59 2064.3,-158.17 2071.46,-156.85 2079.06,-155.65 2087.1,-154.57 2095.55,-153.61 2104.38,-152.76 2113.56,-152.04 2123.06,-151.44 2132.84,-150.97 2142.88,-150.63 2153.14,-150.41 2163.57,-150.32 2174.14,-150.36 2184.79,-150.52 2195.5,-150.81 2206.22,-151.22 2216.9,-151.75 2227.51,-152.4 2237.98,-153.16"/>
<text text-anchor="middle" x="2185" y="-190.96" font-family="sans-serif" font-size="16.00">GestionClientesContext</text>
</g>
<!-- CarritoComprasContext&#45;&gt;GestionClientesContext -->
<g id="edge4" class="edge">
<title>CarritoComprasContext&#45;&gt;GestionClientesContext</title>
<path fill="none" stroke="black" stroke-width="2" d="M2218.14,-443.64C2236.49,-428.85 2253.94,-410.45 2264,-388.96 2282.2,-350.07 2278.43,-332.79 2264,-292.36 2256.5,-271.34 2242.25,-251.6 2227.89,-235.51"/>
<text text-anchor="middle" x="2332" y="-337.56" font-family="sans-serif" font-size="12.00">Customer/Supplier</text>
<polygon fill="white" stroke="transparent" points="2220.89,-226.51 2220.89,-243.51 2234.89,-243.51 2234.89,-226.51 2220.89,-226.51"/>
<text text-anchor="start" x="2222.89" y="-231.91" font-family="sans-serif" font-size="12.00">D</text>
<polygon fill="white" stroke="transparent" points="2211.14,-434.64 2211.14,-451.64 2225.14,-451.64 2225.14,-434.64 2211.14,-434.64"/>
<text text-anchor="start" x="2213.14" y="-440.04" font-family="sans-serif" font-size="12.00">U</text>
</g>
<!-- GestionProductosContext&#45;&gt;CarritoComprasContext -->
<g id="edge6" class="edge">
<title>GestionProductosContext&#45;&gt;CarritoComprasContext</title>
<path fill="none" stroke="black" stroke-width="2" d="M1893.91,-381.4C1885.64,-394.24 1881.87,-408.2 1891,-419.96 1906.29,-439.65 1954.6,-454.45 2005.27,-464.97"/>
<text text-anchor="middle" x="1947" y="-410.36" font-family="sans-serif" font-size="12.00">Customer/Supplier</text>
<polygon fill="white" stroke="transparent" points="1998.27,-455.97 1998.27,-472.97 2012.27,-472.97 2012.27,-455.97 1998.27,-455.97"/>
<text text-anchor="start" x="2000.27" y="-461.37" font-family="sans-serif" font-size="12.00">D</text>
<polygon fill="white" stroke="transparent" points="1886.91,-372.4 1886.91,-389.4 1900.91,-389.4 1900.91,-372.4 1886.91,-372.4"/>
<text text-anchor="start" x="1888.91" y="-377.8" font-family="sans-serif" font-size="12.00">U</text>
</g>
<!-- GestionDevolucionesContext -->
<g id="node6" class="node">
<title>GestionDevolucionesContext</title>
<polygon fill="none" stroke="black" stroke-width="2" points="1725.99,-151.87 1738.48,-151.22 1751,-150.69 1763.52,-150.28 1775.97,-150 1788.31,-149.85 1800.5,-149.83 1812.48,-149.94 1824.21,-150.18 1835.65,-150.55 1846.77,-151.06 1857.51,-151.7 1867.85,-152.46 1877.76,-153.36 1887.21,-154.38 1896.16,-155.52 1904.61,-156.78 1912.52,-158.16 1919.89,-159.65 1926.69,-161.24 1932.92,-162.94 1938.58,-164.73 1943.65,-166.61 1948.14,-168.58 1952.04,-170.63 1955.37,-172.75 1958.13,-174.93 1960.32,-177.17 1961.96,-179.46 1963.06,-181.79 1963.64,-184.16 1963.7,-186.55 1963.27,-188.97 1962.36,-191.39 1961,-193.82 1959.19,-196.25 1956.96,-198.66 1954.33,-201.06 1951.31,-203.42 1947.93,-205.76 1944.2,-208.05 1940.13,-210.3 1935.76,-212.49 1931.08,-214.63 1926.12,-216.69 1920.89,-218.69 1915.39,-220.6 1909.66,-222.44 1903.68,-224.19 1897.48,-225.84 1891.06,-227.4 1884.43,-228.87 1877.59,-230.23 1870.56,-231.49 1863.33,-232.64 1855.92,-233.68 1848.32,-234.6 1840.54,-235.42 1832.59,-236.13 1824.48,-236.72 1816.2,-237.19 1807.76,-237.55 1799.17,-237.8 1790.44,-237.93 1781.57,-237.95 1772.58,-237.86 1763.47,-237.66 1754.26,-237.34 1744.96,-236.93 1735.59,-236.4 1726.16,-235.77 1716.69,-235.04 1707.21,-234.21 1697.74,-233.29 1688.29,-232.27 1678.9,-231.16 1669.6,-229.96 1660.4,-228.67 1651.36,-227.31 1642.48,-225.86 1633.82,-224.34 1625.39,-222.75 1617.24,-221.09 1609.4,-219.37 1601.91,-217.58 1594.8,-215.74 1588.11,-213.84 1581.87,-211.9 1576.11,-209.91 1570.87,-207.87 1566.18,-205.81 1562.07,-203.71 1558.56,-201.58 1555.68,-199.43 1553.47,-197.26 1551.92,-195.08 1551.08,-192.89 1550.94,-190.69 1551.52,-188.5 1552.84,-186.32 1554.88,-184.14 1557.67,-181.99 1561.18,-179.86 1565.43,-177.76 1570.39,-175.69 1576.05,-173.67 1582.41,-171.69 1589.42,-169.76 1597.08,-167.89 1605.35,-166.08 1614.21,-164.34 1623.61,-162.68 1633.52,-161.09 1643.91,-159.59 1654.72,-158.18 1665.91,-156.87 1677.45,-155.65 1689.27,-154.54 1701.34,-153.54 1713.59,-152.65 1725.99,-151.87"/>
<text text-anchor="middle" x="1768" y="-190.96" font-family="sans-serif" font-size="16.00">GestionDevolucionesContext</text>
</g>
<!-- GestionProductosContext&#45;&gt;GestionDevolucionesContext -->
<g id="edge5" class="edge">
<title>GestionProductosContext&#45;&gt;GestionDevolucionesContext</title>
<path fill="none" stroke="black" stroke-width="2" d="M1813.25,-311.75C1795.85,-302.6 1780.1,-290.47 1769,-274.36 1761.72,-263.8 1759.65,-250.39 1759.95,-237.66"/>
<text text-anchor="middle" x="1844.5" y="-264.76" font-family="sans-serif" font-size="12.00"> &#160;&#160;&#160;&#160;&#160;&#160;&#160;&#160;&#160;&#160;&#160;&#160;&#160;&#160;&#160;&#160;&#160;&#160;&#160;&#160;&#160;&#160;&#160;&#160;&#160;&#160;&#160;&#160;&#160;&#160;&#160;&#160;&#160;&#160;&#160;&#160;&#160;&#160;&#160;</text>
<polygon fill="white" stroke="transparent" points="1740.95,-227.66 1740.95,-246.66 1756.95,-246.66 1756.95,-227.66 1740.95,-227.66"/>
<polyline fill="none" stroke="black" points="1756.95,-227.66 1756.95,-246.66 "/>
<text text-anchor="start" x="1743.95" y="-234.06" font-family="sans-serif" font-size="12.00">D</text>
<polygon fill="white" stroke="transparent" points="1756.95,-227.66 1756.95,-246.66 1778.95,-246.66 1778.95,-227.66 1756.95,-227.66"/>
<polygon fill="none" stroke="black" points="1756.95,-227.66 1756.95,-246.66 1778.95,-246.66 1778.95,-227.66 1756.95,-227.66"/>
<text text-anchor="start" x="1759.95" y="-234.06" font-family="sans-serif" font-size="12.00">CF</text>
<polygon fill="white" stroke="transparent" points="1778.25,-301.75 1778.25,-320.75 1794.25,-320.75 1794.25,-301.75 1778.25,-301.75"/>
<polyline fill="none" stroke="black" points="1794.25,-301.75 1794.25,-320.75 "/>
<text text-anchor="start" x="1781.25" y="-308.15" font-family="sans-serif" font-size="12.00">U</text>
<polygon fill="white" stroke="transparent" points="1794.25,-301.75 1794.25,-320.75 1849.25,-320.75 1849.25,-301.75 1794.25,-301.75"/>
<polygon fill="none" stroke="black" points="1794.25,-301.75 1794.25,-320.75 1849.25,-320.75 1849.25,-301.75 1794.25,-301.75"/>
<text text-anchor="start" x="1797.25" y="-308.15" font-family="sans-serif" font-size="12.00">OHS, PL</text>
</g>
<!-- GestionProductosContext&#45;&gt;GestionClientesContext -->
<g id="edge7" class="edge">
<title>GestionProductosContext&#45;&gt;GestionClientesContext</title>
<path fill="none" stroke="black" stroke-width="2" d="M1997.39,-294.52C2014.19,-283.21 2032.53,-271.43 2050,-261.36 2067.38,-251.34 2086.52,-241.41 2104.79,-232.43"/>
<text text-anchor="middle" x="2092" y="-264.76" font-family="sans-serif" font-size="12.00">Shared Kernel</text>
</g>
<!-- GestionPedidosContext -->
<g id="node7" class="node">
<title>GestionPedidosContext</title>
<polygon fill="none" stroke="black" stroke-width="2" points="2121.02,-30.93 2125.17,-28.28 2129.7,-25.69 2134.61,-23.18 2139.86,-20.76 2145.46,-18.43 2151.37,-16.21 2157.57,-14.1 2164.06,-12.12 2170.8,-10.27 2177.77,-8.55 2184.96,-6.98 2192.35,-5.55 2199.9,-4.28 2207.61,-3.17 2215.44,-2.22 2223.39,-1.43 2231.42,-0.81 2239.52,-0.35 2247.67,-0.05 2255.84,0.08 2264.02,0.05 2272.19,-0.14 2280.33,-0.49 2288.42,-0.99 2296.44,-1.63 2304.38,-2.42 2312.21,-3.34 2319.92,-4.39 2327.5,-5.56 2334.92,-6.86 2342.18,-8.25 2349.25,-9.75 2356.12,-11.35 2362.78,-13.03 2369.21,-14.78 2375.41,-16.61 2381.34,-18.5 2387.01,-20.44 2392.4,-22.43 2397.49,-24.46 2402.28,-26.52 2406.75,-28.61 2410.89,-30.71 2414.69,-32.83 2418.14,-34.95 2421.23,-37.08 2423.96,-39.2 2426.3,-41.31 2428.26,-43.41 2429.83,-45.5 2430.99,-47.56 2431.74,-49.6 2432.09,-51.62 2432.01,-53.61 2431.52,-55.56 2430.6,-57.49 2429.25,-59.38 2427.48,-61.24 2425.28,-63.06 2422.65,-64.84 2419.61,-66.58 2416.14,-68.28 2412.26,-69.95 2407.97,-71.57 2403.29,-73.14 2398.21,-74.67 2392.76,-76.16 2386.93,-77.6 2380.75,-78.99 2374.23,-80.33 2367.39,-81.62 2360.24,-82.85 2352.8,-84.02 2345.1,-85.13 2337.14,-86.18 2328.97,-87.16 2320.59,-88.07 2312.03,-88.91 2303.32,-89.67 2294.49,-90.34 2285.56,-90.93 2276.56,-91.43 2267.51,-91.84 2258.45,-92.14 2249.4,-92.35 2240.4,-92.44 2231.47,-92.43 2222.64,-92.3 2213.94,-92.05 2205.4,-91.69 2197.05,-91.19 2188.91,-90.58 2181.01,-89.83 2173.38,-88.96 2166.04,-87.95 2159.02,-86.81 2152.33,-85.54 2146,-84.15 2140.06,-82.62 2134.51,-80.97 2129.37,-79.2 2124.67,-77.3 2120.41,-75.3 2116.61,-73.18 2113.27,-70.96 2110.42,-68.64 2108.04,-66.23 2106.15,-63.74 2104.75,-61.18 2103.85,-58.55 2103.43,-55.86 2103.51,-53.13 2104.08,-50.36 2105.12,-47.57 2106.64,-44.77 2108.63,-41.96 2111.07,-39.16 2113.96,-36.38 2117.28,-33.63 2121.02,-30.93"/>
<text text-anchor="middle" x="2271" y="-44.78" font-family="sans-serif" font-size="16.00">GestionPedidosContext</text>
</g>
<!-- GestionDevolucionesContext&#45;&gt;GestionPedidosContext -->
<g id="edge8" class="edge">
<title>GestionDevolucionesContext&#45;&gt;GestionPedidosContext</title>
<path fill="none" stroke="black" stroke-width="2" d="M1899.83,-155.97C1976.67,-133.94 2072.96,-106.34 2148.2,-84.78"/>
<text text-anchor="middle" x="2091" y="-118.55" font-family="sans-serif" font-size="12.00">Customer/Supplier</text>
<polygon fill="white" stroke="transparent" points="2141.2,-75.78 2141.2,-92.78 2155.2,-92.78 2155.2,-75.78 2141.2,-75.78"/>
<text text-anchor="start" x="2143.2" y="-81.18" font-family="sans-serif" font-size="12.00">D</text>
<polygon fill="white" stroke="transparent" points="1892.83,-146.97 1892.83,-163.97 1906.83,-163.97 1906.83,-146.97 1892.83,-146.97"/>
<text text-anchor="start" x="1894.83" y="-152.37" font-family="sans-serif" font-size="12.00">U</text>
</g>
<!-- GestionPedidosContext&#45;&gt;CarritoComprasContext -->
<g id="edge9" class="edge">
<title>GestionPedidosContext&#45;&gt;CarritoComprasContext</title>
<path fill="none" stroke="black" stroke-width="2" d="M2326.63,-87.67C2345.43,-103.5 2364.55,-123.5 2376,-146.15 2381.72,-157.47 2412.83,-358.28 2392,-388.96 2369.6,-421.94 2334,-443.68 2296.85,-458.02"/>
<text text-anchor="middle" x="2451" y="-264.76" font-family="sans-serif" font-size="12.00">Customer/Supplier</text>
<polygon fill="white" stroke="transparent" points="2289.85,-449.02 2289.85,-466.02 2303.85,-466.02 2303.85,-449.02 2289.85,-449.02"/>
<text text-anchor="start" x="2291.85" y="-454.42" font-family="sans-serif" font-size="12.00">D</text>
<polygon fill="white" stroke="transparent" points="2319.63,-78.67 2319.63,-95.67 2333.63,-95.67 2333.63,-78.67 2319.63,-78.67"/>
<text text-anchor="start" x="2321.63" y="-84.07" font-family="sans-serif" font-size="12.00">U</text>
</g>
<!-- GestionPedidosContext&#45;&gt;GestionDevolucionesContext -->
<g id="edge10" class="edge">
<title>GestionPedidosContext&#45;&gt;GestionDevolucionesContext</title>
<path fill="none" stroke="black" stroke-width="2" d="M2217.42,-92.32C2197.62,-105.98 2174.3,-119.73 2151,-128.15 2084.95,-152.04 2063.33,-134.9 1994,-146.15 1970.06,-150.04 1944.81,-154.75 1920.21,-159.67"/>
<text text-anchor="middle" x="2235" y="-118.55" font-family="sans-serif" font-size="12.00">Customer/Supplier</text>
<polygon fill="white" stroke="transparent" points="1913.21,-150.67 1913.21,-167.67 1927.21,-167.67 1927.21,-150.67 1913.21,-150.67"/>
<text text-anchor="start" x="1915.21" y="-156.07" font-family="sans-serif" font-size="12.00">D</text>
<polygon fill="white" stroke="transparent" points="2210.42,-83.32 2210.42,-100.32 2224.42,-100.32 2224.42,-83.32 2210.42,-83.32"/>
<text text-anchor="start" x="2212.42" y="-88.72" font-family="sans-serif" font-size="12.00">U</text>
</g>
<!-- GestionClientesContext&#45;&gt;CarritoComprasContext -->
<g id="edge12" class="edge">
<title>GestionClientesContext&#45;&gt;CarritoComprasContext</title>
<path fill="none" stroke="black" stroke-width="2" d="M2164.76,-238.54C2158.01,-254.98 2151.37,-274.17 2148,-292.36 2138.51,-343.69 2140.55,-404.01 2143.61,-443.46"/>
<text text-anchor="middle" x="2204" y="-337.56" font-family="sans-serif" font-size="12.00">Customer/Supplier</text>
<polygon fill="white" stroke="transparent" points="2136.61,-434.46 2136.61,-451.46 2150.61,-451.46 2150.61,-434.46 2136.61,-434.46"/>
<text text-anchor="start" x="2138.61" y="-439.86" font-family="sans-serif" font-size="12.00">D</text>
<polygon fill="white" stroke="transparent" points="2157.76,-229.54 2157.76,-246.54 2171.76,-246.54 2171.76,-229.54 2157.76,-229.54"/>
<text text-anchor="start" x="2159.76" y="-234.94" font-family="sans-serif" font-size="12.00">U</text>
</g>
<!-- GestionClientesContext&#45;&gt;GestionProductosContext -->
<g id="edge11" class="edge">
<title>GestionClientesContext&#45;&gt;GestionProductosContext</title>
<path fill="none" stroke="black" stroke-width="2" d="M2070.54,-223.8C2010.19,-239.1 1947.62,-255.99 1943,-261.36 1935.51,-270.07 1931.96,-281.5 1930.58,-292.92"/>
<text text-anchor="middle" x="1985" y="-264.76" font-family="sans-serif" font-size="12.00">Shared Kernel</text>
</g>
<!-- GestionSesionesContext -->
<g id="node9" class="node">
<title>GestionSesionesContext</title>
<polygon fill="none" stroke="black" stroke-width="2" points="2433.69,-647.87 2429.86,-645.18 2426.49,-642.48 2423.61,-639.75 2421.22,-637.03 2419.33,-634.32 2417.97,-631.62 2417.13,-628.95 2416.82,-626.33 2417.06,-623.75 2417.83,-621.22 2419.14,-618.77 2421,-616.38 2423.39,-614.08 2426.31,-611.87 2429.75,-609.74 2433.71,-607.72 2438.16,-605.8 2443.1,-603.99 2448.51,-602.29 2454.37,-600.7 2460.66,-599.23 2467.36,-597.88 2474.45,-596.65 2481.89,-595.53 2489.68,-594.54 2497.77,-593.66 2506.15,-592.9 2514.77,-592.26 2523.61,-591.74 2532.65,-591.32 2541.84,-591.02 2551.16,-590.82 2560.57,-590.72 2570.05,-590.73 2579.56,-590.84 2589.06,-591.04 2598.54,-591.33 2607.96,-591.71 2617.29,-592.17 2626.49,-592.72 2635.55,-593.35 2644.44,-594.05 2653.12,-594.83 2661.59,-595.67 2669.8,-596.59 2677.74,-597.57 2685.4,-598.62 2692.74,-599.73 2699.76,-600.9 2706.44,-602.13 2712.76,-603.42 2718.71,-604.77 2724.28,-606.18 2729.45,-607.64 2734.23,-609.15 2738.6,-610.72 2742.56,-612.35 2746.11,-614.02 2749.23,-615.75 2751.93,-617.52 2754.2,-619.35 2756.06,-621.22 2757.49,-623.14 2758.5,-625.1 2759.1,-627.1 2759.28,-629.14 2759.05,-631.22 2758.42,-633.33 2757.39,-635.47 2755.97,-637.63 2754.17,-639.82 2751.98,-642.02 2749.42,-644.23 2746.5,-646.44 2743.23,-648.66 2739.6,-650.86 2735.64,-653.06 2731.35,-655.23 2726.74,-657.37 2721.81,-659.47 2716.59,-661.53 2711.07,-663.54 2705.27,-665.48 2699.2,-667.36 2692.87,-669.16 2686.29,-670.87 2679.48,-672.49 2672.44,-674 2665.19,-675.41 2657.74,-676.7 2650.1,-677.87 2642.3,-678.9 2634.34,-679.8 2626.24,-680.56 2618.02,-681.16 2609.69,-681.62 2601.28,-681.91 2592.8,-682.05 2584.27,-682.03 2575.71,-681.84 2567.14,-681.48 2558.59,-680.96 2550.07,-680.28 2541.61,-679.43 2533.23,-678.42 2524.95,-677.26 2516.81,-675.94 2508.81,-674.47 2501,-672.86 2493.39,-671.11 2486,-669.23 2478.87,-667.23 2472.01,-665.11 2465.45,-662.89 2459.22,-660.57 2453.33,-658.16 2447.82,-655.68 2442.69,-653.13 2437.98,-650.52 2433.69,-647.87"/>
<text text-anchor="middle" x="2594" y="-629.55" font-family="sans-serif" font-size="16.00">GestionSesionesContext</text>
</g>
<!-- IntegracionRedesSocialesContext -->
<g id="node10" class="node">
<title>IntegracionRedesSocialesContext</title>
<polygon fill="none" stroke="black" stroke-width="2" points="536.13,-666.74 524.97,-664.9 514.27,-662.98 504.09,-660.98 494.47,-658.92 485.44,-656.8 477.05,-654.64 469.32,-652.43 462.31,-650.18 456.02,-647.9 450.49,-645.61 445.75,-643.3 441.8,-640.99 438.66,-638.68 436.35,-636.37 434.86,-634.08 434.2,-631.81 434.38,-629.56 435.38,-627.35 437.19,-625.17 439.81,-623.03 443.2,-620.93 447.37,-618.89 452.27,-616.9 457.89,-614.97 464.19,-613.09 471.14,-611.28 478.7,-609.54 486.85,-607.87 495.54,-606.26 504.72,-604.73 514.37,-603.28 524.43,-601.9 534.86,-600.6 545.62,-599.38 556.67,-598.24 567.96,-597.18 579.44,-596.21 591.08,-595.32 602.84,-594.51 614.66,-593.8 626.53,-593.17 638.38,-592.63 650.2,-592.18 661.94,-591.82 673.58,-591.56 685.08,-591.38 696.42,-591.3 707.56,-591.32 718.5,-591.43 729.19,-591.64 739.63,-591.94 749.8,-592.35 759.68,-592.85 769.26,-593.45 778.53,-594.15 787.47,-594.95 796.07,-595.84 804.34,-596.84 812.26,-597.94 819.83,-599.13 827.04,-600.43 833.9,-601.82 840.39,-603.3 846.52,-604.87 852.28,-606.54 857.67,-608.29 862.69,-610.13 867.33,-612.05 871.59,-614.04 875.48,-616.11 878.98,-618.24 882.09,-620.44 884.8,-622.69 887.12,-625 889.03,-627.35 890.52,-629.74 891.59,-632.16 892.24,-634.6 892.44,-637.06 892.2,-639.53 891.51,-641.99 890.35,-644.45 888.71,-646.9 886.59,-649.31 883.99,-651.7 880.88,-654.04 877.26,-656.33 873.13,-658.56 868.48,-660.73 863.32,-662.81 857.62,-664.82 851.4,-666.73 844.66,-668.54 837.4,-670.24 829.62,-671.84 821.33,-673.31 812.55,-674.66 803.28,-675.87 793.55,-676.96 783.37,-677.9 772.75,-678.7 761.74,-679.36 750.34,-679.86 738.6,-680.22 726.54,-680.43 714.2,-680.49 701.61,-680.39 688.82,-680.15 675.87,-679.76 662.8,-679.22 649.66,-678.54 636.49,-677.73 623.34,-676.77 610.26,-675.69 597.31,-674.48 584.52,-673.15 571.97,-671.7 559.68,-670.14 547.72,-668.49 536.13,-666.74"/>
<text text-anchor="middle" x="681" y="-629.55" font-family="sans-serif" font-size="16.00">IntegracionRedesSocialesContext</text>
</g>
<!-- IntegracionRedesSocialesContext&#45;&gt;VentasContext -->
<g id="edge13" class="edge">
<title>IntegracionRedesSocialesContext&#45;&gt;VentasContext</title>
<path fill="none" stroke="black" stroke-width="2" d="M755.69,-592.64C797.52,-570.4 849.14,-542.95 889.09,-521.71"/>
<text text-anchor="middle" x="860.5" y="-556.91" font-family="sans-serif" font-size="12.00">Partnership</text>
</g>
<!-- NotificacionesComunicacionesContext -->
<g id="node11" class="node">
<title>NotificacionesComunicacionesContext</title>
<polygon fill="none" stroke="black" stroke-width="2" points="1373.4,-598.05 1386.66,-599.73 1399.43,-601.5 1411.66,-603.35 1423.28,-605.27 1434.26,-607.26 1444.54,-609.3 1454.08,-611.4 1462.85,-613.55 1470.81,-615.73 1477.93,-617.94 1484.18,-620.18 1489.53,-622.43 1493.97,-624.7 1497.48,-626.97 1500.06,-629.23 1501.7,-631.49 1502.39,-633.73 1502.15,-635.96 1500.98,-638.16 1498.89,-640.33 1495.91,-642.46 1492.05,-644.56 1487.33,-646.61 1481.79,-648.62 1475.46,-650.58 1468.38,-652.48 1460.57,-654.32 1452.09,-656.11 1442.98,-657.83 1433.27,-659.48 1423.02,-661.06 1412.27,-662.58 1401.07,-664.02 1389.48,-665.39 1377.53,-666.68 1365.27,-667.89 1352.76,-669.02 1340.05,-670.06 1327.17,-671.03 1314.18,-671.9 1301.11,-672.69 1288.01,-673.4 1274.92,-674.01 1261.88,-674.53 1248.92,-674.95 1236.08,-675.29 1223.38,-675.52 1210.86,-675.66 1198.54,-675.7 1186.45,-675.64 1174.61,-675.48 1163.03,-675.22 1151.74,-674.86 1140.75,-674.39 1130.07,-673.82 1119.71,-673.15 1109.69,-672.37 1100.02,-671.49 1090.69,-670.5 1081.72,-669.41 1073.1,-668.22 1064.86,-666.93 1056.98,-665.54 1049.48,-664.05 1042.35,-662.47 1035.6,-660.8 1029.24,-659.03 1023.26,-657.19 1017.68,-655.25 1012.5,-653.25 1007.73,-651.16 1003.36,-649.02 999.42,-646.8 995.91,-644.54 992.83,-642.22 990.21,-639.85 988.04,-637.46 986.35,-635.03 985.14,-632.58 984.43,-630.11 984.23,-627.64 984.56,-625.17 985.42,-622.71 986.84,-620.27 988.83,-617.85 991.39,-615.47 994.54,-613.14 998.29,-610.85 1002.65,-608.63 1007.62,-606.48 1013.22,-604.4 1019.44,-602.41 1026.29,-600.51 1033.77,-598.71 1041.87,-597.01 1050.59,-595.43 1059.92,-593.96 1069.84,-592.62 1080.33,-591.4 1091.39,-590.32 1102.99,-589.38 1115.1,-588.57 1127.69,-587.91 1140.73,-587.39 1154.19,-587.01 1168.02,-586.79 1182.19,-586.7 1196.64,-586.77 1211.34,-586.98 1226.23,-587.34 1241.26,-587.83 1256.37,-588.47 1271.51,-589.24 1286.62,-590.14 1301.64,-591.17 1316.52,-592.32 1331.2,-593.59 1345.61,-594.97 1359.69,-596.46 1373.4,-598.05"/>
<text text-anchor="middle" x="1224" y="-629.55" font-family="sans-serif" font-size="16.00">NotificacionesComunicacionesContext</text>
</g>
<!-- NotificacionesComunicacionesContext&#45;&gt;VentasContext -->
<g id="edge14" class="edge">
<title>NotificacionesComunicacionesContext&#45;&gt;VentasContext</title>
<path fill="none" stroke="black" stroke-width="2" d="M1139.74,-587.39C1101.83,-567.15 1057.64,-543.57 1021.77,-524.43"/>
<text text-anchor="middle" x="1131.5" y="-556.91" font-family="sans-serif" font-size="12.00">Partnership</text>
</g>
<!-- ProcesoPagosContext -->
<g id="node12" class="node">
<title>ProcesoPagosContext</title>
<polygon fill="none" stroke="black" stroke-width="2" points="2758.44,-171.2 2763.93,-173.6 2769.02,-176.06 2773.7,-178.56 2777.94,-181.08 2781.73,-183.63 2785.05,-186.19 2787.89,-188.76 2790.22,-191.31 2792.05,-193.85 2793.36,-196.37 2794.13,-198.85 2794.38,-201.29 2794.09,-203.69 2793.27,-206.03 2791.92,-208.31 2790.03,-210.52 2787.63,-212.66 2784.72,-214.72 2781.3,-216.7 2777.4,-218.6 2773.03,-220.41 2768.21,-222.12 2762.95,-223.74 2757.28,-225.27 2751.22,-226.7 2744.8,-228.02 2738.04,-229.25 2730.97,-230.39 2723.61,-231.42 2716,-232.35 2708.16,-233.19 2700.13,-233.92 2691.93,-234.56 2683.6,-235.11 2675.16,-235.56 2666.64,-235.92 2658.09,-236.19 2649.51,-236.36 2640.95,-236.45 2632.43,-236.45 2623.97,-236.37 2615.61,-236.19 2607.37,-235.94 2599.27,-235.6 2591.33,-235.19 2583.57,-234.69 2576.02,-234.11 2568.7,-233.45 2561.61,-232.71 2554.77,-231.89 2548.2,-230.99 2541.91,-230.02 2535.91,-228.97 2530.21,-227.84 2524.82,-226.63 2519.74,-225.35 2514.99,-223.99 2510.56,-222.56 2506.46,-221.05 2502.69,-219.47 2499.25,-217.82 2496.15,-216.09 2493.38,-214.3 2490.95,-212.43 2488.85,-210.51 2487.08,-208.52 2485.64,-206.47 2484.54,-204.37 2483.76,-202.21 2483.3,-200.01 2483.17,-197.76 2483.36,-195.48 2483.87,-193.17 2484.69,-190.82 2485.82,-188.47 2487.27,-186.09 2489.03,-183.72 2491.09,-181.34 2493.46,-178.97 2496.13,-176.63 2499.1,-174.31 2502.37,-172.02 2505.94,-169.78 2509.8,-167.58 2513.94,-165.45 2518.38,-163.39 2523.09,-161.41 2528.08,-159.51 2533.35,-157.71 2538.88,-156.01 2544.67,-154.43 2550.71,-152.96 2557,-151.61 2563.52,-150.4 2570.27,-149.33 2577.23,-148.4 2584.39,-147.62 2591.73,-146.99 2599.25,-146.52 2606.92,-146.2 2614.72,-146.05 2622.65,-146.06 2630.68,-146.24 2638.78,-146.57 2646.93,-147.07 2655.12,-147.73 2663.32,-148.55 2671.5,-149.52 2679.64,-150.64 2687.7,-151.91 2695.67,-153.32 2703.52,-154.87 2711.21,-156.54 2718.72,-158.34 2726.02,-160.25 2733.09,-162.26 2739.89,-164.37 2746.4,-166.57 2752.59,-168.85 2758.44,-171.2"/>
<text text-anchor="middle" x="2629" y="-190.96" font-family="sans-serif" font-size="16.00">ProcesoPagosContext</text>
</g>
<!-- ProcesoPagosContext&#45;&gt;GestionPedidosContext -->
<g id="edge15" class="edge">
<title>ProcesoPagosContext&#45;&gt;GestionPedidosContext</title>
<path fill="none" stroke="black" stroke-width="2" d="M2542.97,-154.68C2513.64,-141.7 2480.54,-127.44 2450,-115.15 2422.21,-103.98 2391.7,-92.51 2363.87,-82.35"/>
<text text-anchor="middle" x="2535" y="-118.55" font-family="sans-serif" font-size="12.00">Customer/Supplier</text>
<polygon fill="white" stroke="transparent" points="2356.87,-73.35 2356.87,-90.35 2370.87,-90.35 2370.87,-73.35 2356.87,-73.35"/>
<text text-anchor="start" x="2358.87" y="-78.75" font-family="sans-serif" font-size="12.00">D</text>
<polygon fill="white" stroke="transparent" points="2535.97,-145.68 2535.97,-162.68 2549.97,-162.68 2549.97,-145.68 2535.97,-145.68"/>
<text text-anchor="start" x="2537.97" y="-151.08" font-family="sans-serif" font-size="12.00">U</text>
</g>
<!-- SeguridadContext -->
<g id="node13" class="node">
<title>SeguridadContext</title>
<polygon fill="none" stroke="black" stroke-width="2" points="3060.45,-632.31 3060.79,-635.19 3060.76,-638.05 3060.34,-640.88 3059.55,-643.68 3058.39,-646.42 3056.84,-649.11 3054.93,-651.73 3052.65,-654.26 3050.01,-656.71 3047.01,-659.06 3043.67,-661.3 3039.98,-663.43 3035.97,-665.44 3031.63,-667.33 3027,-669.08 3022.06,-670.7 3016.85,-672.18 3011.37,-673.52 3005.64,-674.71 2999.68,-675.76 2993.51,-676.66 2987.13,-677.41 2980.58,-678.03 2973.87,-678.49 2967.01,-678.82 2960.04,-679.01 2952.96,-679.07 2945.81,-678.99 2938.6,-678.78 2931.35,-678.46 2924.09,-678.01 2916.83,-677.46 2909.6,-676.79 2902.42,-676.03 2895.31,-675.16 2888.29,-674.21 2881.38,-673.17 2874.6,-672.06 2867.97,-670.86 2861.52,-669.6 2855.24,-668.28 2849.18,-666.9 2843.33,-665.46 2837.73,-663.97 2832.37,-662.44 2827.29,-660.86 2822.48,-659.25 2817.98,-657.6 2813.77,-655.91 2809.89,-654.2 2806.33,-652.46 2803.1,-650.69 2800.22,-648.91 2797.69,-647.09 2795.52,-645.26 2793.7,-643.41 2792.25,-641.54 2791.17,-639.66 2790.45,-637.76 2790.1,-635.84 2790.12,-633.92 2790.5,-631.98 2791.25,-630.03 2792.35,-628.07 2793.82,-626.11 2795.63,-624.15 2797.79,-622.18 2800.28,-620.21 2803.11,-618.25 2806.26,-616.29 2809.71,-614.35 2813.48,-612.42 2817.53,-610.51 2821.86,-608.62 2826.46,-606.77 2831.32,-604.95 2836.42,-603.17 2841.75,-601.44 2847.29,-599.76 2853.04,-598.15 2858.97,-596.6 2865.07,-595.12 2871.33,-593.72 2877.72,-592.42 2884.24,-591.2 2890.87,-590.09 2897.59,-589.09 2904.38,-588.2 2911.22,-587.44 2918.1,-586.8 2925.01,-586.3 2931.92,-585.93 2938.81,-585.71 2945.68,-585.64 2952.49,-585.72 2959.24,-585.95 2965.9,-586.34 2972.47,-586.89 2978.91,-587.59 2985.22,-588.46 2991.38,-589.49 2997.37,-590.67 3003.18,-592 3008.78,-593.49 3014.17,-595.13 3019.34,-596.9 3024.25,-598.82 3028.91,-600.86 3033.3,-603.03 3037.4,-605.31 3041.2,-607.7 3044.7,-610.19 3047.87,-612.76 3050.72,-615.41 3053.23,-618.13 3055.39,-620.9 3057.2,-623.72 3058.65,-626.56 3059.74,-629.43 3060.45,-632.31"/>
<text text-anchor="middle" x="2925" y="-629.55" font-family="sans-serif" font-size="16.00">SeguridadContext</text>
</g>
<!-- ServicioClienteContext -->
<g id="node14" class="node">
<title>ServicioClienteContext</title>
<polygon fill="none" stroke="black" stroke-width="2" points="1787.03,-596.31 1795.99,-597.83 1804.66,-599.43 1812.99,-601.13 1820.95,-602.9 1828.52,-604.75 1835.66,-606.67 1842.33,-608.64 1848.52,-610.67 1854.19,-612.75 1859.34,-614.87 1863.92,-617.03 1867.94,-619.21 1871.38,-621.41 1874.22,-623.63 1876.45,-625.86 1878.08,-628.09 1879.1,-630.32 1879.52,-632.54 1879.33,-634.75 1878.54,-636.94 1877.17,-639.11 1875.22,-641.24 1872.71,-643.35 1869.67,-645.42 1866.1,-647.45 1862.03,-649.43 1857.48,-651.36 1852.48,-653.25 1847.06,-655.07 1841.24,-656.84 1835.06,-658.55 1828.53,-660.19 1821.7,-661.77 1814.59,-663.27 1807.24,-664.7 1799.67,-666.06 1791.92,-667.34 1784.01,-668.54 1775.97,-669.66 1767.84,-670.69 1759.64,-671.64 1751.4,-672.5 1743.14,-673.27 1734.89,-673.95 1726.66,-674.53 1718.49,-675.02 1710.39,-675.41 1702.37,-675.71 1694.46,-675.9 1686.67,-675.99 1679.02,-675.97 1671.51,-675.85 1664.15,-675.63 1656.97,-675.3 1649.95,-674.86 1643.12,-674.32 1636.48,-673.66 1630.03,-672.9 1623.78,-672.03 1617.73,-671.06 1611.89,-669.98 1606.26,-668.79 1600.84,-667.5 1595.63,-666.11 1590.65,-664.62 1585.88,-663.03 1581.34,-661.35 1577.02,-659.58 1572.94,-657.72 1569.1,-655.79 1565.49,-653.77 1562.14,-651.68 1559.04,-649.52 1556.2,-647.3 1553.63,-645.03 1551.33,-642.7 1549.33,-640.34 1547.62,-637.94 1546.21,-635.51 1545.13,-633.06 1544.37,-630.59 1543.95,-628.13 1543.87,-625.66 1544.16,-623.21 1544.82,-620.78 1545.86,-618.37 1547.28,-616 1549.11,-613.68 1551.35,-611.41 1553.99,-609.2 1557.06,-607.06 1560.55,-605 1564.47,-603.02 1568.82,-601.13 1573.6,-599.34 1578.8,-597.65 1584.42,-596.08 1590.45,-594.62 1596.89,-593.28 1603.73,-592.06 1610.94,-590.98 1618.52,-590.03 1626.45,-589.21 1634.7,-588.53 1643.26,-587.99 1652.1,-587.6 1661.18,-587.34 1670.5,-587.23 1680,-587.26 1689.66,-587.43 1699.45,-587.74 1709.33,-588.19 1719.26,-588.77 1729.21,-589.49 1739.14,-590.33 1749,-591.3 1758.76,-592.38 1768.38,-593.58 1777.81,-594.9 1787.03,-596.31"/>
<text text-anchor="middle" x="1700" y="-629.55" font-family="sans-serif" font-size="16.00">ServicioClienteContext</text>
</g>
<!-- ServicioClienteContext&#45;&gt;VentasContext -->
<g id="edge16" class="edge">
<title>ServicioClienteContext&#45;&gt;VentasContext</title>
<path fill="none" stroke="black" stroke-width="2" d="M1574.25,-599.1C1553.2,-593.94 1531.53,-588.88 1511,-584.51 1359.9,-552.32 1184.08,-523.19 1070.8,-505.49"/>
<text text-anchor="middle" x="1455.5" y="-556.91" font-family="sans-serif" font-size="12.00">Partnership</text>
</g>
</g>
</svg>
