<svg width="2000px" height="499px"
 viewBox="0.00 0.00 2740.79 684.37" xmlns="http://www.w3.org/2000/svg" xmlns:xlink="http://www.w3.org/1999/xlink">
<g id="graph0" class="graph" transform="scale(1.0 1.0) rotate(0) translate(4 680.37)">
<title>ContextMapGraph</title>
<polygon fill="white" stroke="transparent" points="-4,4 -4,-680.37 2736.79,-680.37 2736.79,4 -4,4"/>
<!-- AnaliticasReportingContext -->
<g id="node1" class="node">
<title>AnaliticasReportingContext</title>
<polygon fill="none" stroke="black" stroke-width="2" points="354.88,-650.47 348.62,-652.93 341.96,-655.31 334.92,-657.6 327.54,-659.79 319.83,-661.88 311.82,-663.85 303.55,-665.7 295.04,-667.41 286.31,-668.99 277.4,-670.42 268.33,-671.71 259.13,-672.83 249.83,-673.81 240.45,-674.61 231.02,-675.26 221.56,-675.74 212.1,-676.06 202.66,-676.21 193.26,-676.2 183.93,-676.02 174.69,-675.68 165.55,-675.19 156.55,-674.55 147.68,-673.76 138.99,-672.82 130.47,-671.75 122.15,-670.55 114.04,-669.23 106.16,-667.79 98.52,-666.24 91.14,-664.59 84.02,-662.85 77.18,-661.02 70.64,-659.12 64.4,-657.15 58.47,-655.11 52.87,-653.03 47.6,-650.91 42.69,-648.74 38.12,-646.55 33.92,-644.35 30.1,-642.12 26.65,-639.89 23.6,-637.66 20.95,-635.44 18.71,-633.23 16.88,-631.04 15.48,-628.87 14.51,-626.72 13.97,-624.61 13.88,-622.53 14.23,-620.49 15.03,-618.49 16.29,-616.53 18.01,-614.62 20.19,-612.76 22.84,-610.94 25.94,-609.18 29.51,-607.47 33.53,-605.81 38.02,-604.21 42.95,-602.66 48.32,-601.16 54.13,-599.72 60.37,-598.34 67.02,-597.02 74.08,-595.76 81.52,-594.56 89.34,-593.42 97.51,-592.34 106.02,-591.33 114.84,-590.38 123.95,-589.5 133.33,-588.69 142.95,-587.95 152.79,-587.29 162.82,-586.71 173,-586.2 183.3,-585.78 193.7,-585.44 204.16,-585.19 214.64,-585.03 225.12,-584.97 235.56,-585 245.92,-585.14 256.17,-585.38 266.27,-585.73 276.18,-586.18 285.88,-586.75 295.33,-587.43 304.49,-588.23 313.34,-589.14 321.84,-590.17 329.96,-591.32 337.67,-592.58 344.95,-593.96 351.77,-595.46 358.1,-597.08 363.93,-598.8 369.24,-600.63 374,-602.57 378.2,-604.62 381.83,-606.75 384.88,-608.98 387.34,-611.3 389.21,-613.69 390.47,-616.15 391.14,-618.68 391.2,-621.26 390.67,-623.88 389.55,-626.55 387.84,-629.24 385.57,-631.94 382.73,-634.66 379.35,-637.36 375.44,-640.06 371.01,-642.73 366.1,-645.36 360.71,-647.94 354.88,-650.47"/>
<text text-anchor="middle" x="195.57" y="-623.69" font-family="sans-serif" font-size="16.00">AnaliticasReportingContext</text>
</g>
<!-- VentasContext -->
<g id="node2" class="node">
<title>VentasContext</title>
<polygon fill="none" stroke="black" stroke-width="2" points="886.31,-442.08 893.44,-441.18 900.62,-440.4 907.82,-439.75 915.01,-439.23 922.17,-438.84 929.26,-438.58 936.27,-438.45 943.16,-438.47 949.91,-438.62 956.5,-438.91 962.91,-439.33 969.11,-439.89 975.08,-440.59 980.82,-441.43 986.3,-442.39 991.51,-443.49 996.43,-444.71 1001.06,-446.05 1005.39,-447.51 1009.41,-449.08 1013.11,-450.76 1016.5,-452.54 1019.56,-454.41 1022.3,-456.38 1024.72,-458.43 1026.83,-460.55 1028.62,-462.75 1030.09,-465 1031.27,-467.31 1032.14,-469.66 1032.72,-472.05 1033.02,-474.46 1033.05,-476.9 1032.81,-479.35 1032.31,-481.81 1031.56,-484.26 1030.57,-486.7 1029.35,-489.13 1027.91,-491.52 1026.26,-493.89 1024.41,-496.21 1022.36,-498.48 1020.12,-500.7 1017.7,-502.86 1015.1,-504.95 1012.34,-506.97 1009.42,-508.92 1006.33,-510.78 1003.1,-512.55 999.71,-514.24 996.18,-515.83 992.51,-517.32 988.7,-518.71 984.75,-520 980.66,-521.18 976.45,-522.26 972.1,-523.23 967.63,-524.08 963.04,-524.83 958.32,-525.47 953.49,-525.99 948.54,-526.41 943.48,-526.71 938.32,-526.9 933.06,-526.99 927.7,-526.96 922.27,-526.83 916.75,-526.59 911.17,-526.25 905.54,-525.81 899.85,-525.27 894.14,-524.62 888.41,-523.88 882.67,-523.05 876.95,-522.13 871.25,-521.11 865.6,-520.01 860.02,-518.82 854.52,-517.55 849.13,-516.21 843.85,-514.78 838.73,-513.29 833.77,-511.72 829,-510.08 824.43,-508.38 820.1,-506.62 816.02,-504.8 812.21,-502.92 808.69,-501 805.49,-499.03 802.61,-497.01 800.09,-494.95 797.92,-492.86 796.13,-490.74 794.74,-488.59 793.75,-486.42 793.16,-484.24 793.01,-482.04 793.27,-479.83 793.97,-477.62 795.1,-475.42 796.66,-473.23 798.66,-471.05 801.08,-468.89 803.92,-466.75 807.17,-464.65 810.82,-462.59 814.85,-460.58 819.26,-458.61 824.02,-456.7 829.12,-454.86 834.54,-453.08 840.24,-451.38 846.22,-449.77 852.45,-448.23 858.89,-446.8 865.53,-445.46 872.33,-444.22 879.27,-443.09 886.31,-442.08"/>
<text text-anchor="middle" x="920.57" y="-480.26" font-family="sans-serif" font-size="16.00">VentasContext</text>
</g>
<!-- AnaliticasReportingContext&#45;&gt;VentasContext -->
<g id="edge1" class="edge">
<title>AnaliticasReportingContext&#45;&gt;VentasContext</title>
<path fill="none" stroke="black" stroke-width="2" d="M337.07,-592.44C358.31,-587.62 379.99,-582.86 400.57,-578.61 542.16,-549.36 706.53,-520.66 811.95,-502.92"/>
<text text-anchor="middle" x="592.07" y="-551.01" font-family="sans-serif" font-size="12.00">Partnership</text>
</g>
<!-- AutenticacionAutorizacionContext -->
<g id="node3" class="node">
<title>AutenticacionAutorizacionContext</title>
<polygon fill="none" stroke="black" stroke-width="2" points="1890.76,-602.57 1898.97,-600.2 1907.64,-597.9 1916.74,-595.7 1926.23,-593.6 1936.09,-591.61 1946.27,-589.73 1956.73,-587.99 1967.46,-586.38 1978.4,-584.91 1989.53,-583.59 2000.8,-582.42 2012.19,-581.41 2023.67,-580.55 2035.19,-579.86 2046.73,-579.33 2058.26,-578.96 2069.75,-578.76 2081.17,-578.73 2092.49,-578.86 2103.69,-579.15 2114.73,-579.59 2125.61,-580.2 2136.29,-580.95 2146.76,-581.85 2156.99,-582.89 2166.97,-584.06 2176.67,-585.36 2186.08,-586.79 2195.19,-588.32 2203.98,-589.96 2212.44,-591.7 2220.54,-593.53 2228.29,-595.44 2235.66,-597.42 2242.65,-599.47 2249.25,-601.57 2255.44,-603.72 2261.21,-605.91 2266.55,-608.13 2271.46,-610.37 2275.93,-612.63 2279.94,-614.9 2283.49,-617.16 2286.56,-619.43 2289.16,-621.68 2291.26,-623.92 2292.87,-626.13 2293.98,-628.32 2294.57,-630.47 2294.65,-632.59 2294.2,-634.67 2293.23,-636.7 2291.72,-638.69 2289.67,-640.63 2287.08,-642.52 2283.95,-644.35 2280.28,-646.13 2276.06,-647.86 2271.3,-649.52 2266,-651.13 2260.16,-652.68 2253.8,-654.17 2246.92,-655.59 2239.53,-656.96 2231.64,-658.26 2223.27,-659.5 2214.42,-660.67 2205.13,-661.78 2195.4,-662.83 2185.26,-663.8 2174.73,-664.71 2163.85,-665.55 2152.63,-666.32 2141.1,-667.01 2129.31,-667.63 2117.27,-668.17 2105.04,-668.63 2092.63,-669.01 2080.1,-669.31 2067.47,-669.52 2054.8,-669.64 2042.12,-669.67 2029.47,-669.6 2016.9,-669.44 2004.46,-669.18 1992.17,-668.81 1980.09,-668.34 1968.26,-667.77 1956.73,-667.08 1945.52,-666.28 1934.69,-665.38 1924.28,-664.36 1914.31,-663.22 1904.84,-661.98 1895.88,-660.62 1887.49,-659.15 1879.67,-657.57 1872.47,-655.88 1865.91,-654.08 1860.02,-652.19 1854.8,-650.19 1850.29,-648.1 1846.49,-645.92 1843.41,-643.66 1841.07,-641.31 1839.47,-638.9 1838.61,-636.43 1838.49,-633.89 1839.11,-631.32 1840.46,-628.7 1842.53,-626.05 1845.31,-623.38 1848.78,-620.71 1852.93,-618.03 1857.74,-615.37 1863.18,-612.73 1869.23,-610.11 1875.86,-607.54 1883.05,-605.03 1890.76,-602.57"/>
<text text-anchor="middle" x="2076.57" y="-623.69" font-family="sans-serif" font-size="16.00">AutenticacionAutorizacionContext</text>
</g>
<!-- CarritoComprasContext -->
<g id="node4" class="node">
<title>CarritoComprasContext</title>
<polygon fill="none" stroke="black" stroke-width="2" points="2004.9,-523.83 1995.08,-522.62 1985.51,-521.31 1976.25,-519.9 1967.32,-518.4 1958.76,-516.81 1950.61,-515.14 1942.91,-513.4 1935.67,-511.58 1928.94,-509.7 1922.73,-507.76 1917.06,-505.77 1911.97,-503.73 1907.46,-501.66 1903.55,-499.54 1900.25,-497.4 1897.56,-495.23 1895.5,-493.05 1894.06,-490.85 1893.24,-488.64 1893.04,-486.44 1893.44,-484.23 1894.45,-482.04 1896.03,-479.86 1898.19,-477.7 1900.89,-475.56 1904.13,-473.45 1907.87,-471.38 1912.1,-469.33 1916.79,-467.34 1921.9,-465.38 1927.42,-463.48 1933.31,-461.62 1939.55,-459.83 1946.1,-458.09 1952.94,-456.42 1960.02,-454.82 1967.34,-453.29 1974.84,-451.83 1982.51,-450.45 1990.32,-449.15 1998.24,-447.93 2006.24,-446.8 2014.3,-445.76 2022.4,-444.81 2030.51,-443.95 2038.61,-443.19 2046.69,-442.53 2054.72,-441.98 2062.69,-441.52 2070.59,-441.17 2078.39,-440.93 2086.1,-440.8 2093.69,-440.78 2101.17,-440.87 2108.51,-441.07 2115.72,-441.38 2122.78,-441.81 2129.7,-442.36 2136.47,-443.01 2143.08,-443.78 2149.52,-444.66 2155.81,-445.66 2161.92,-446.76 2167.86,-447.97 2173.63,-449.29 2179.21,-450.71 2184.61,-452.23 2189.82,-453.85 2194.83,-455.56 2199.63,-457.36 2204.23,-459.25 2208.61,-461.22 2212.76,-463.27 2216.67,-465.38 2220.33,-467.56 2223.73,-469.79 2226.86,-472.08 2229.7,-474.42 2232.25,-476.79 2234.48,-479.19 2236.38,-481.62 2237.94,-484.06 2239.15,-486.51 2239.98,-488.96 2240.43,-491.4 2240.47,-493.83 2240.1,-496.24 2239.31,-498.61 2238.07,-500.94 2236.39,-503.23 2234.24,-505.46 2231.63,-507.63 2228.55,-509.74 2224.98,-511.76 2220.94,-513.7 2216.42,-515.55 2211.41,-517.31 2205.94,-518.97 2199.99,-520.51 2193.59,-521.95 2186.73,-523.27 2179.45,-524.47 2171.75,-525.55 2163.65,-526.5 2155.18,-527.32 2146.36,-528.01 2137.22,-528.56 2127.78,-528.99 2118.09,-529.27 2108.16,-529.42 2098.05,-529.44 2087.78,-529.32 2077.39,-529.08 2066.93,-528.7 2056.44,-528.19 2045.95,-527.56 2035.51,-526.8 2025.16,-525.92 2014.94,-524.93 2004.9,-523.83"/>
<text text-anchor="middle" x="2076.57" y="-480.26" font-family="sans-serif" font-size="16.00">CarritoComprasContext</text>
</g>
<!-- AutenticacionAutorizacionContext&#45;&gt;CarritoComprasContext -->
<g id="edge2" class="edge">
<title>AutenticacionAutorizacionContext&#45;&gt;CarritoComprasContext</title>
<path fill="none" stroke="black" stroke-width="2" d="M2076.57,-578.61C2076.57,-562.58 2076.57,-544.8 2076.57,-529.08"/>
<text text-anchor="middle" x="2132.57" y="-551.01" font-family="sans-serif" font-size="12.00">Customer/Supplier</text>
<polygon fill="white" stroke="transparent" points="2069.57,-520.08 2069.57,-537.08 2083.57,-537.08 2083.57,-520.08 2069.57,-520.08"/>
<text text-anchor="start" x="2071.57" y="-525.48" font-family="sans-serif" font-size="12.00">D</text>
<polygon fill="white" stroke="transparent" points="2069.57,-569.61 2069.57,-586.61 2083.57,-586.61 2083.57,-569.61 2069.57,-569.61"/>
<text text-anchor="start" x="2071.57" y="-575.01" font-family="sans-serif" font-size="12.00">U</text>
</g>
<!-- GestionProductosContext -->
<g id="node5" class="node">
<title>GestionProductosContext</title>
<polygon fill="none" stroke="black" stroke-width="2" points="1967.42,-313.46 1974.83,-315.66 1981.82,-317.92 1988.36,-320.23 1994.42,-322.6 1999.98,-324.99 2005,-327.42 2009.48,-329.87 2013.38,-332.32 2016.69,-334.78 2019.4,-337.23 2021.49,-339.67 2022.96,-342.09 2023.8,-344.47 2024,-346.83 2023.57,-349.14 2022.5,-351.4 2020.81,-353.61 2018.49,-355.76 2015.57,-357.84 2012.05,-359.86 2007.96,-361.81 2003.3,-363.68 1998.11,-365.47 1992.4,-367.19 1986.2,-368.82 1979.54,-370.36 1972.44,-371.82 1964.94,-373.19 1957.07,-374.47 1948.86,-375.67 1940.35,-376.77 1931.56,-377.78 1922.55,-378.71 1913.33,-379.54 1903.94,-380.28 1894.43,-380.94 1884.82,-381.5 1875.14,-381.98 1865.44,-382.36 1855.74,-382.66 1846.08,-382.87 1836.48,-383 1826.98,-383.03 1817.59,-382.98 1808.36,-382.85 1799.29,-382.62 1790.41,-382.31 1781.75,-381.91 1773.32,-381.43 1765.14,-380.85 1757.23,-380.2 1749.6,-379.45 1742.26,-378.62 1735.22,-377.69 1728.5,-376.69 1722.1,-375.59 1716.03,-374.41 1710.29,-373.14 1704.89,-371.79 1699.83,-370.35 1695.11,-368.83 1690.74,-367.22 1686.72,-365.54 1683.04,-363.77 1679.72,-361.93 1676.74,-360.02 1674.11,-358.04 1671.83,-355.99 1669.89,-353.87 1668.3,-351.7 1667.06,-349.48 1666.17,-347.21 1665.62,-344.89 1665.41,-342.54 1665.56,-340.16 1666.05,-337.75 1666.9,-335.33 1668.09,-332.9 1669.63,-330.47 1671.53,-328.04 1673.78,-325.63 1676.39,-323.25 1679.36,-320.89 1682.68,-318.58 1686.37,-316.32 1690.41,-314.12 1694.81,-311.99 1699.57,-309.93 1704.69,-307.96 1710.16,-306.08 1715.97,-304.3 1722.14,-302.63 1728.64,-301.08 1735.47,-299.64 1742.63,-298.34 1750.1,-297.18 1757.86,-296.15 1765.92,-295.27 1774.24,-294.53 1782.82,-293.95 1791.63,-293.53 1800.66,-293.26 1809.87,-293.15 1819.26,-293.2 1828.78,-293.41 1838.43,-293.78 1848.15,-294.31 1857.93,-294.99 1867.74,-295.82 1877.54,-296.79 1887.29,-297.92 1896.97,-299.18 1906.54,-300.57 1915.96,-302.09 1925.2,-303.73 1934.22,-305.48 1942.99,-307.34 1951.47,-309.29 1959.62,-311.33 1967.42,-313.46"/>
<text text-anchor="middle" x="1831.57" y="-337.59" font-family="sans-serif" font-size="16.00">GestionProductosContext</text>
</g>
<!-- CarritoComprasContext&#45;&gt;GestionProductosContext -->
<g id="edge3" class="edge">
<title>CarritoComprasContext&#45;&gt;GestionProductosContext</title>
<path fill="none" stroke="black" stroke-width="2" d="M2001.17,-447.47C1984.31,-439.01 1966.67,-429.74 1950.57,-420.5 1929.67,-408.51 1907.42,-394.33 1887.9,-381.35"/>
<text text-anchor="middle" x="2006.57" y="-410.9" font-family="sans-serif" font-size="12.00">Customer/Supplier</text>
<polygon fill="white" stroke="transparent" points="1880.9,-372.35 1880.9,-389.35 1894.9,-389.35 1894.9,-372.35 1880.9,-372.35"/>
<text text-anchor="start" x="1882.9" y="-377.75" font-family="sans-serif" font-size="12.00">D</text>
<polygon fill="white" stroke="transparent" points="1994.17,-438.47 1994.17,-455.47 2008.17,-455.47 2008.17,-438.47 1994.17,-438.47"/>
<text text-anchor="start" x="1996.17" y="-443.87" font-family="sans-serif" font-size="12.00">U</text>
</g>
<!-- GestionClientesContext -->
<g id="node8" class="node">
<title>GestionClientesContext</title>
<polygon fill="none" stroke="black" stroke-width="2" points="2287.29,-168.96 2293.99,-171.21 2300.28,-173.51 2306.14,-175.87 2311.54,-178.26 2316.46,-180.69 2320.88,-183.14 2324.78,-185.61 2328.13,-188.08 2330.93,-190.55 2333.16,-193 2334.82,-195.44 2335.88,-197.85 2336.36,-200.23 2336.24,-202.56 2335.53,-204.85 2334.23,-207.09 2332.34,-209.27 2329.88,-211.38 2326.85,-213.42 2323.27,-215.4 2319.15,-217.29 2314.52,-219.11 2309.38,-220.85 2303.78,-222.5 2297.72,-224.06 2291.24,-225.53 2284.36,-226.92 2277.11,-228.21 2269.52,-229.42 2261.63,-230.53 2253.46,-231.55 2245.04,-232.48 2236.42,-233.32 2227.62,-234.07 2218.68,-234.72 2209.62,-235.29 2200.49,-235.77 2191.31,-236.15 2182.12,-236.45 2172.94,-236.67 2163.8,-236.79 2154.74,-236.83 2145.77,-236.79 2136.93,-236.65 2128.24,-236.44 2119.73,-236.14 2111.4,-235.75 2103.29,-235.28 2095.41,-234.72 2087.77,-234.09 2080.4,-233.36 2073.31,-232.56 2066.5,-231.66 2059.99,-230.69 2053.78,-229.63 2047.89,-228.49 2042.32,-227.26 2037.08,-225.95 2032.17,-224.56 2027.59,-223.09 2023.34,-221.54 2019.43,-219.91 2015.86,-218.2 2012.63,-216.42 2009.74,-214.57 2007.18,-212.64 2004.96,-210.65 2003.08,-208.6 2001.53,-206.48 2000.32,-204.31 1999.44,-202.1 1998.9,-199.83 1998.68,-197.53 1998.8,-195.19 1999.25,-192.83 2000.03,-190.45 2001.15,-188.05 2002.59,-185.65 2004.36,-183.25 2006.47,-180.86 2008.91,-178.49 2011.68,-176.15 2014.79,-173.84 2018.23,-171.57 2021.99,-169.36 2026.09,-167.21 2030.52,-165.13 2035.28,-163.13 2040.36,-161.22 2045.76,-159.4 2051.48,-157.69 2057.51,-156.08 2063.84,-154.6 2070.47,-153.24 2077.39,-152.01 2084.58,-150.91 2092.04,-149.96 2099.74,-149.16 2107.69,-148.5 2115.85,-148 2124.21,-147.66 2132.75,-147.47 2141.45,-147.44 2150.29,-147.57 2159.24,-147.86 2168.28,-148.31 2177.38,-148.92 2186.51,-149.68 2195.65,-150.59 2204.75,-151.64 2213.8,-152.84 2222.76,-154.17 2231.6,-155.64 2240.28,-157.23 2248.77,-158.93 2257.04,-160.75 2265.06,-162.67 2272.8,-164.68 2280.22,-166.78 2287.29,-168.96"/>
<text text-anchor="middle" x="2155.57" y="-191.7" font-family="sans-serif" font-size="16.00">GestionClientesContext</text>
</g>
<!-- CarritoComprasContext&#45;&gt;GestionClientesContext -->
<g id="edge4" class="edge">
<title>CarritoComprasContext&#45;&gt;GestionClientesContext</title>
<path fill="none" stroke="black" stroke-width="2" d="M2145.14,-443.97C2164.04,-429.49 2182.19,-411.21 2192.57,-389.5 2216.12,-340.26 2195.78,-277.17 2177.21,-236.79"/>
<text text-anchor="middle" x="2259.57" y="-338.29" font-family="sans-serif" font-size="12.00">Customer/Supplier</text>
<polygon fill="white" stroke="transparent" points="2170.21,-227.79 2170.21,-244.79 2184.21,-244.79 2184.21,-227.79 2170.21,-227.79"/>
<text text-anchor="start" x="2172.21" y="-233.19" font-family="sans-serif" font-size="12.00">D</text>
<polygon fill="white" stroke="transparent" points="2138.14,-434.97 2138.14,-451.97 2152.14,-451.97 2152.14,-434.97 2138.14,-434.97"/>
<text text-anchor="start" x="2140.14" y="-440.37" font-family="sans-serif" font-size="12.00">U</text>
</g>
<!-- GestionProductosContext&#45;&gt;CarritoComprasContext -->
<g id="edge5" class="edge">
<title>GestionProductosContext&#45;&gt;CarritoComprasContext</title>
<path fill="none" stroke="black" stroke-width="2" d="M1810.39,-383.13C1806.65,-396.16 1806.23,-409.94 1814.57,-420.5 1829.81,-439.82 1876.81,-453.83 1926.87,-463.63"/>
<text text-anchor="middle" x="1870.57" y="-410.9" font-family="sans-serif" font-size="12.00">Customer/Supplier</text>
<polygon fill="white" stroke="transparent" points="1919.87,-454.63 1919.87,-471.63 1933.87,-471.63 1933.87,-454.63 1919.87,-454.63"/>
<text text-anchor="start" x="1921.87" y="-460.03" font-family="sans-serif" font-size="12.00">D</text>
<polygon fill="white" stroke="transparent" points="1803.39,-374.13 1803.39,-391.13 1817.39,-391.13 1817.39,-374.13 1803.39,-374.13"/>
<text text-anchor="start" x="1805.39" y="-379.53" font-family="sans-serif" font-size="12.00">U</text>
</g>
<!-- GestionDevolucionesContext -->
<g id="node6" class="node">
<title>GestionDevolucionesContext</title>
<polygon fill="none" stroke="black" stroke-width="2" points="1897.88,-223.4 1889.84,-225.62 1881.42,-227.76 1872.68,-229.8 1863.63,-231.72 1854.31,-233.54 1844.76,-235.22 1835,-236.78 1825.08,-238.2 1815.02,-239.47 1804.86,-240.6 1794.63,-241.57 1784.36,-242.39 1774.08,-243.05 1763.82,-243.54 1753.6,-243.87 1743.47,-244.04 1733.43,-244.05 1723.52,-243.89 1713.76,-243.57 1704.17,-243.09 1694.77,-242.46 1685.58,-241.68 1676.61,-240.75 1667.89,-239.68 1659.43,-238.47 1651.24,-237.14 1643.34,-235.68 1635.73,-234.11 1628.44,-232.43 1621.46,-230.65 1614.81,-228.78 1608.5,-226.82 1602.53,-224.79 1596.92,-222.7 1591.66,-220.55 1586.76,-218.35 1582.24,-216.11 1578.09,-213.83 1574.32,-211.54 1570.94,-209.22 1567.96,-206.9 1565.37,-204.58 1563.18,-202.27 1561.4,-199.96 1560.03,-197.68 1559.08,-195.42 1558.55,-193.19 1558.44,-191 1558.77,-188.85 1559.53,-186.75 1560.73,-184.69 1562.37,-182.68 1564.46,-180.73 1566.99,-178.84 1569.97,-177 1573.4,-175.23 1577.28,-173.52 1581.61,-171.88 1586.39,-170.31 1591.61,-168.8 1597.27,-167.36 1603.37,-165.98 1609.89,-164.68 1616.83,-163.45 1624.18,-162.29 1631.92,-161.2 1640.04,-160.18 1648.54,-159.23 1657.38,-158.36 1666.55,-157.56 1676.02,-156.84 1685.79,-156.19 1695.81,-155.61 1706.07,-155.12 1716.54,-154.7 1727.18,-154.37 1737.97,-154.12 1748.87,-153.95 1759.85,-153.86 1770.88,-153.87 1781.91,-153.96 1792.91,-154.15 1803.84,-154.43 1814.67,-154.8 1825.36,-155.27 1835.87,-155.84 1846.15,-156.51 1856.18,-157.29 1865.91,-158.16 1875.31,-159.14 1884.34,-160.23 1892.97,-161.42 1901.17,-162.71 1908.9,-164.11 1916.13,-165.61 1922.83,-167.21 1928.98,-168.92 1934.56,-170.72 1939.55,-172.61 1943.92,-174.6 1947.66,-176.67 1950.76,-178.83 1953.2,-181.06 1954.98,-183.36 1956.09,-185.73 1956.54,-188.15 1956.32,-190.63 1955.43,-193.15 1953.89,-195.7 1951.69,-198.28 1948.86,-200.87 1945.41,-203.48 1941.36,-206.08 1936.71,-208.67 1931.51,-211.24 1925.76,-213.77 1919.49,-216.27 1912.74,-218.71 1905.53,-221.09 1897.88,-223.4"/>
<text text-anchor="middle" x="1746.57" y="-191.7" font-family="sans-serif" font-size="16.00">GestionDevolucionesContext</text>
</g>
<!-- GestionProductosContext&#45;&gt;GestionDevolucionesContext -->
<g id="edge6" class="edge">
<title>GestionProductosContext&#45;&gt;GestionDevolucionesContext</title>
<path fill="none" stroke="black" stroke-width="2" d="M1801.49,-293.27C1797.76,-287.24 1794.04,-281.13 1790.57,-275.27 1784.49,-265.03 1778.14,-253.93 1772.22,-243.38"/>
<text text-anchor="middle" x="1866.07" y="-265.67" font-family="sans-serif" font-size="12.00"> &#160;&#160;&#160;&#160;&#160;&#160;&#160;&#160;&#160;&#160;&#160;&#160;&#160;&#160;&#160;&#160;&#160;&#160;&#160;&#160;&#160;&#160;&#160;&#160;&#160;&#160;&#160;&#160;&#160;&#160;&#160;&#160;&#160;&#160;&#160;&#160;&#160;&#160;&#160;</text>
<polygon fill="white" stroke="transparent" points="1753.22,-233.38 1753.22,-252.38 1769.22,-252.38 1769.22,-233.38 1753.22,-233.38"/>
<polyline fill="none" stroke="black" points="1769.22,-233.38 1769.22,-252.38 "/>
<text text-anchor="start" x="1756.22" y="-239.78" font-family="sans-serif" font-size="12.00">D</text>
<polygon fill="white" stroke="transparent" points="1769.22,-233.38 1769.22,-252.38 1791.22,-252.38 1791.22,-233.38 1769.22,-233.38"/>
<polygon fill="none" stroke="black" points="1769.22,-233.38 1769.22,-252.38 1791.22,-252.38 1791.22,-233.38 1769.22,-233.38"/>
<text text-anchor="start" x="1772.22" y="-239.78" font-family="sans-serif" font-size="12.00">CF</text>
<polygon fill="white" stroke="transparent" points="1766.49,-283.27 1766.49,-302.27 1782.49,-302.27 1782.49,-283.27 1766.49,-283.27"/>
<polyline fill="none" stroke="black" points="1782.49,-283.27 1782.49,-302.27 "/>
<text text-anchor="start" x="1769.49" y="-289.67" font-family="sans-serif" font-size="12.00">U</text>
<polygon fill="white" stroke="transparent" points="1782.49,-283.27 1782.49,-302.27 1837.49,-302.27 1837.49,-283.27 1782.49,-283.27"/>
<polygon fill="none" stroke="black" points="1782.49,-283.27 1782.49,-302.27 1837.49,-302.27 1837.49,-283.27 1782.49,-283.27"/>
<text text-anchor="start" x="1785.49" y="-289.67" font-family="sans-serif" font-size="12.00">OHS, PL</text>
</g>
<!-- GestionProductosContext&#45;&gt;GestionClientesContext -->
<g id="edge7" class="edge">
<title>GestionProductosContext&#45;&gt;GestionClientesContext</title>
<path fill="none" stroke="black" stroke-width="2" d="M1903.14,-299.91C1926.82,-287.18 1953.52,-273.52 1978.57,-262.27 2003.69,-250.99 2031.38,-240.03 2057.25,-230.39"/>
<text text-anchor="middle" x="2020.57" y="-265.67" font-family="sans-serif" font-size="12.00">Shared Kernel</text>
</g>
<!-- GestionPedidosContext -->
<g id="node7" class="node">
<title>GestionPedidosContext</title>
<polygon fill="none" stroke="black" stroke-width="2" points="2360.71,-30.79 2365.26,-33.38 2369.38,-36.01 2373.03,-38.65 2376.22,-41.31 2378.91,-43.98 2381.1,-46.63 2382.77,-49.27 2383.92,-51.88 2384.54,-54.46 2384.62,-56.99 2384.15,-59.47 2383.15,-61.88 2381.61,-64.23 2379.53,-66.5 2376.91,-68.7 2373.78,-70.8 2370.13,-72.81 2365.98,-74.73 2361.34,-76.55 2356.23,-78.26 2350.67,-79.86 2344.68,-81.36 2338.28,-82.75 2331.49,-84.03 2324.34,-85.19 2316.86,-86.25 2309.07,-87.19 2301,-88.02 2292.69,-88.75 2284.15,-89.37 2275.43,-89.88 2266.55,-90.28 2257.54,-90.59 2248.44,-90.79 2239.28,-90.9 2230.09,-90.92 2220.9,-90.84 2211.74,-90.67 2202.63,-90.42 2193.62,-90.08 2184.72,-89.66 2175.96,-89.16 2167.37,-88.58 2158.97,-87.93 2150.79,-87.2 2142.84,-86.4 2135.16,-85.52 2127.74,-84.58 2120.63,-83.57 2113.82,-82.5 2107.33,-81.35 2101.18,-80.14 2095.38,-78.87 2089.93,-77.53 2084.85,-76.13 2080.14,-74.66 2075.81,-73.13 2071.87,-71.54 2068.31,-69.89 2065.14,-68.19 2062.36,-66.42 2059.97,-64.59 2057.97,-62.72 2056.36,-60.78 2055.14,-58.8 2054.3,-56.77 2053.84,-54.7 2053.76,-52.58 2054.05,-50.43 2054.71,-48.24 2055.73,-46.02 2057.11,-43.78 2058.84,-41.52 2060.92,-39.24 2063.35,-36.96 2066.11,-34.68 2069.19,-32.41 2072.61,-30.15 2076.34,-27.92 2080.38,-25.71 2084.72,-23.54 2089.37,-21.42 2094.3,-19.35 2099.51,-17.34 2105,-15.41 2110.76,-13.55 2116.77,-11.79 2123.04,-10.12 2129.54,-8.55 2136.27,-7.1 2143.22,-5.77 2150.37,-4.56 2157.72,-3.48 2165.25,-2.55 2172.94,-1.76 2180.78,-1.12 2188.76,-0.64 2196.86,-0.31 2205.05,-0.14 2213.33,-0.14 2221.67,-0.3 2230.05,-0.63 2238.45,-1.12 2246.85,-1.77 2255.22,-2.59 2263.54,-3.56 2271.79,-4.69 2279.94,-5.98 2287.97,-7.41 2295.84,-8.98 2303.54,-10.69 2311.04,-12.52 2318.31,-14.48 2325.33,-16.54 2332.07,-18.72 2338.5,-20.98 2344.61,-23.33 2350.36,-25.76 2355.73,-28.25 2360.71,-30.79"/>
<text text-anchor="middle" x="2211.57" y="-45.06" font-family="sans-serif" font-size="16.00">GestionPedidosContext</text>
</g>
<!-- GestionDevolucionesContext&#45;&gt;GestionPedidosContext -->
<g id="edge8" class="edge">
<title>GestionDevolucionesContext&#45;&gt;GestionPedidosContext</title>
<path fill="none" stroke="black" stroke-width="2" d="M1864.21,-157.91C1939.68,-134.43 2036.71,-104.25 2109.03,-81.75"/>
<text text-anchor="middle" x="2049.57" y="-119.12" font-family="sans-serif" font-size="12.00">Customer/Supplier</text>
<polygon fill="white" stroke="transparent" points="2102.03,-72.75 2102.03,-89.75 2116.03,-89.75 2116.03,-72.75 2102.03,-72.75"/>
<text text-anchor="start" x="2104.03" y="-78.15" font-family="sans-serif" font-size="12.00">D</text>
<polygon fill="white" stroke="transparent" points="1857.21,-148.91 1857.21,-165.91 1871.21,-165.91 1871.21,-148.91 1857.21,-148.91"/>
<text text-anchor="start" x="1859.21" y="-154.31" font-family="sans-serif" font-size="12.00">U</text>
</g>
<!-- GestionPedidosContext&#45;&gt;CarritoComprasContext -->
<g id="edge10" class="edge">
<title>GestionPedidosContext&#45;&gt;CarritoComprasContext</title>
<path fill="none" stroke="black" stroke-width="2" d="M2290.94,-88.99C2312.64,-103.87 2333.48,-123.08 2345.57,-146.72 2394.95,-243.35 2388.66,-305.82 2319.57,-389.5 2290.93,-424.19 2247.84,-446.04 2205.87,-459.8"/>
<text text-anchor="middle" x="2434.57" y="-265.67" font-family="sans-serif" font-size="12.00">Customer/Supplier</text>
<polygon fill="white" stroke="transparent" points="2198.87,-450.8 2198.87,-467.8 2212.87,-467.8 2212.87,-450.8 2198.87,-450.8"/>
<text text-anchor="start" x="2200.87" y="-456.2" font-family="sans-serif" font-size="12.00">D</text>
<polygon fill="white" stroke="transparent" points="2283.94,-79.99 2283.94,-96.99 2297.94,-96.99 2297.94,-79.99 2283.94,-79.99"/>
<text text-anchor="start" x="2285.94" y="-85.39" font-family="sans-serif" font-size="12.00">U</text>
</g>
<!-- GestionPedidosContext&#45;&gt;GestionDevolucionesContext -->
<g id="edge9" class="edge">
<title>GestionPedidosContext&#45;&gt;GestionDevolucionesContext</title>
<path fill="none" stroke="black" stroke-width="2" d="M2171.12,-89.21C2153.56,-104.03 2131.91,-119.5 2109.57,-128.72 2049.94,-153.32 2029.14,-135.84 1965.57,-146.72 1941.31,-150.88 1915.66,-155.89 1890.81,-161.09"/>
<text text-anchor="middle" x="2190.57" y="-119.12" font-family="sans-serif" font-size="12.00">Customer/Supplier</text>
<polygon fill="white" stroke="transparent" points="1883.81,-152.09 1883.81,-169.09 1897.81,-169.09 1897.81,-152.09 1883.81,-152.09"/>
<text text-anchor="start" x="1885.81" y="-157.49" font-family="sans-serif" font-size="12.00">D</text>
<polygon fill="white" stroke="transparent" points="2164.12,-80.21 2164.12,-97.21 2178.12,-97.21 2178.12,-80.21 2164.12,-80.21"/>
<text text-anchor="start" x="2166.12" y="-85.61" font-family="sans-serif" font-size="12.00">U</text>
</g>
<!-- GestionClientesContext&#45;&gt;CarritoComprasContext -->
<g id="edge11" class="edge">
<title>GestionClientesContext&#45;&gt;CarritoComprasContext</title>
<path fill="none" stroke="black" stroke-width="2" d="M2113.1,-235.86C2098.6,-252.07 2084.14,-272.02 2076.57,-293.27 2059.31,-341.69 2063.09,-401.57 2068.67,-440.97"/>
<text text-anchor="middle" x="2132.57" y="-338.29" font-family="sans-serif" font-size="12.00">Customer/Supplier</text>
<polygon fill="white" stroke="transparent" points="2061.67,-431.97 2061.67,-448.97 2075.67,-448.97 2075.67,-431.97 2061.67,-431.97"/>
<text text-anchor="start" x="2063.67" y="-437.37" font-family="sans-serif" font-size="12.00">D</text>
<polygon fill="white" stroke="transparent" points="2106.1,-226.86 2106.1,-243.86 2120.1,-243.86 2120.1,-226.86 2106.1,-226.86"/>
<text text-anchor="start" x="2108.1" y="-232.26" font-family="sans-serif" font-size="12.00">U</text>
</g>
<!-- GestionSesionesContext -->
<g id="node9" class="node">
<title>GestionSesionesContext</title>
<polygon fill="none" stroke="black" stroke-width="2" points="2620.46,-662.75 2611.61,-664.48 2602.53,-666.1 2593.26,-667.61 2583.84,-669 2574.3,-670.25 2564.68,-671.38 2555.02,-672.36 2545.34,-673.21 2535.69,-673.9 2526.09,-674.45 2516.57,-674.84 2507.17,-675.08 2497.91,-675.17 2488.83,-675.1 2479.93,-674.87 2471.25,-674.48 2462.82,-673.95 2454.64,-673.26 2446.73,-672.42 2439.12,-671.44 2431.81,-670.32 2424.83,-669.07 2418.17,-667.68 2411.85,-666.17 2405.87,-664.54 2400.25,-662.8 2394.98,-660.96 2390.07,-659.03 2385.52,-657 2381.33,-654.89 2377.5,-652.72 2374.04,-650.48 2370.93,-648.19 2368.18,-645.85 2365.79,-643.48 2363.75,-641.07 2362.06,-638.65 2360.71,-636.22 2359.71,-633.79 2359.04,-631.36 2358.72,-628.94 2358.73,-626.55 2359.07,-624.18 2359.74,-621.85 2360.74,-619.55 2362.07,-617.31 2363.72,-615.12 2365.69,-612.98 2367.99,-610.91 2370.62,-608.9 2373.56,-606.97 2376.83,-605.11 2380.42,-603.33 2384.33,-601.62 2388.56,-600 2393.12,-598.47 2397.98,-597.02 2403.17,-595.65 2408.67,-594.38 2414.48,-593.2 2420.59,-592.1 2427.01,-591.1 2433.71,-590.18 2440.71,-589.36 2447.97,-588.63 2455.51,-587.99 2463.29,-587.44 2471.32,-586.98 2479.57,-586.6 2488.03,-586.32 2496.68,-586.13 2505.5,-586.02 2514.46,-586.01 2523.55,-586.08 2532.74,-586.24 2542,-586.49 2551.3,-586.82 2560.62,-587.25 2569.93,-587.76 2579.19,-588.36 2588.37,-589.04 2597.45,-589.82 2606.37,-590.68 2615.12,-591.62 2623.66,-592.66 2631.95,-593.78 2639.97,-594.98 2647.66,-596.28 2655.02,-597.65 2662,-599.11 2668.57,-600.65 2674.7,-602.27 2680.37,-603.97 2685.54,-605.75 2690.21,-607.59 2694.33,-609.51 2697.9,-611.5 2700.89,-613.55 2703.3,-615.66 2705.1,-617.82 2706.29,-620.04 2706.87,-622.3 2706.82,-624.6 2706.15,-626.93 2704.86,-629.29 2702.95,-631.67 2700.43,-634.07 2697.31,-636.46 2693.61,-638.86 2689.34,-641.25 2684.52,-643.62 2679.16,-645.96 2673.31,-648.27 2666.97,-650.54 2660.17,-652.75 2652.95,-654.9 2645.34,-656.99 2637.37,-659 2629.06,-660.92 2620.46,-662.75"/>
<text text-anchor="middle" x="2519.57" y="-623.69" font-family="sans-serif" font-size="16.00">GestionSesionesContext</text>
</g>
<!-- SeguridadContext -->
<g id="node10" class="node">
<title>SeguridadContext</title>
<polygon fill="none" stroke="black" stroke-width="2" points="2480.83,-523.16 2472.87,-521.92 2465.12,-520.58 2457.62,-519.14 2450.39,-517.61 2443.48,-515.99 2436.91,-514.3 2430.7,-512.53 2424.88,-510.7 2419.47,-508.81 2414.5,-506.85 2409.98,-504.85 2405.92,-502.81 2402.34,-500.73 2399.26,-498.61 2396.67,-496.47 2394.6,-494.31 2393.03,-492.13 2391.97,-489.95 2391.41,-487.76 2391.37,-485.57 2391.82,-483.39 2392.75,-481.22 2394.17,-479.06 2396.05,-476.93 2398.37,-474.82 2401.13,-472.75 2404.31,-470.7 2407.87,-468.7 2411.81,-466.74 2416.1,-464.83 2420.71,-462.96 2425.63,-461.15 2430.83,-459.4 2436.28,-457.71 2441.95,-456.09 2447.84,-454.53 2453.9,-453.04 2460.11,-451.63 2466.46,-450.3 2472.91,-449.04 2479.45,-447.87 2486.06,-446.79 2492.71,-445.79 2499.38,-444.89 2506.06,-444.08 2512.72,-443.36 2519.36,-442.75 2525.96,-442.23 2532.5,-441.82 2538.97,-441.51 2545.37,-441.31 2551.68,-441.21 2557.89,-441.22 2564,-441.35 2569.99,-441.58 2575.87,-441.93 2581.62,-442.38 2587.25,-442.95 2592.75,-443.64 2598.11,-444.43 2603.34,-445.33 2608.42,-446.35 2613.36,-447.47 2618.15,-448.7 2622.8,-450.03 2627.29,-451.46 2631.62,-453 2635.79,-454.63 2639.79,-456.35 2643.63,-458.16 2647.29,-460.05 2650.76,-462.02 2654.04,-464.07 2657.13,-466.18 2660.01,-468.36 2662.67,-470.59 2665.1,-472.88 2667.3,-475.2 2669.26,-477.57 2670.95,-479.96 2672.38,-482.38 2673.53,-484.8 2674.38,-487.24 2674.93,-489.67 2675.16,-492.1 2675.07,-494.51 2674.64,-496.89 2673.86,-499.24 2672.73,-501.55 2671.23,-503.81 2669.35,-506.01 2667.1,-508.15 2664.47,-510.22 2661.45,-512.21 2658.04,-514.12 2654.24,-515.93 2650.05,-517.65 2645.48,-519.27 2640.54,-520.77 2635.22,-522.17 2629.55,-523.45 2623.53,-524.6 2617.17,-525.64 2610.5,-526.54 2603.53,-527.32 2596.28,-527.96 2588.78,-528.47 2581.04,-528.84 2573.1,-529.08 2564.97,-529.19 2556.7,-529.16 2548.31,-528.99 2539.83,-528.7 2531.3,-528.27 2522.74,-527.72 2514.2,-527.05 2505.7,-526.25 2497.28,-525.33 2488.98,-524.3 2480.83,-523.16"/>
<text text-anchor="middle" x="2541.57" y="-480.26" font-family="sans-serif" font-size="16.00">SeguridadContext</text>
</g>
<!-- GestionSesionesContext&#45;&gt;SeguridadContext -->
<g id="edge12" class="edge">
<title>GestionSesionesContext&#45;&gt;SeguridadContext</title>
<path fill="none" stroke="black" stroke-width="2" d="M2461.46,-587.29C2450.92,-575.35 2445.28,-561.64 2452.57,-547.61 2457.62,-537.89 2464.95,-529.36 2473.26,-521.99"/>
<text text-anchor="middle" x="2508.57" y="-551.01" font-family="sans-serif" font-size="12.00">Customer/Supplier</text>
<polygon fill="white" stroke="transparent" points="2466.26,-512.99 2466.26,-529.99 2480.26,-529.99 2480.26,-512.99 2466.26,-512.99"/>
<text text-anchor="start" x="2468.26" y="-518.39" font-family="sans-serif" font-size="12.00">D</text>
<polygon fill="white" stroke="transparent" points="2454.46,-578.29 2454.46,-595.29 2468.46,-595.29 2468.46,-578.29 2454.46,-578.29"/>
<text text-anchor="start" x="2456.46" y="-583.69" font-family="sans-serif" font-size="12.00">U</text>
</g>
<!-- SeguridadContext&#45;&gt;GestionSesionesContext -->
<g id="edge13" class="edge">
<title>SeguridadContext&#45;&gt;GestionSesionesContext</title>
<path fill="none" stroke="black" stroke-width="2" d="M2564.15,-529.42C2566.84,-539.67 2567.68,-550.52 2564.57,-560.61 2561.79,-569.61 2557.31,-578.47 2552.23,-586.64"/>
<text text-anchor="middle" x="2621.57" y="-551.01" font-family="sans-serif" font-size="12.00">Customer/Supplier</text>
<polygon fill="white" stroke="transparent" points="2545.23,-577.64 2545.23,-594.64 2559.23,-594.64 2559.23,-577.64 2545.23,-577.64"/>
<text text-anchor="start" x="2547.23" y="-583.04" font-family="sans-serif" font-size="12.00">D</text>
<polygon fill="white" stroke="transparent" points="2557.15,-520.42 2557.15,-537.42 2571.15,-537.42 2571.15,-520.42 2557.15,-520.42"/>
<text text-anchor="start" x="2559.15" y="-525.82" font-family="sans-serif" font-size="12.00">U</text>
</g>
<!-- IntegracionRedesSocialesContext -->
<g id="node11" class="node">
<title>IntegracionRedesSocialesContext</title>
<polygon fill="none" stroke="black" stroke-width="2" points="786.2,-591.83 798.14,-593.47 809.64,-595.19 820.67,-597 831.17,-598.88 841.1,-600.83 850.41,-602.84 859.08,-604.9 867.06,-607.01 874.33,-609.16 880.85,-611.35 886.6,-613.56 891.55,-615.79 895.7,-618.03 899.02,-620.28 901.51,-622.53 903.16,-624.78 903.98,-627.02 903.96,-629.23 903.11,-631.43 901.45,-633.6 898.99,-635.74 895.74,-637.84 891.73,-639.9 886.99,-641.92 881.54,-643.89 875.41,-645.81 868.64,-647.67 861.26,-649.47 853.31,-651.22 844.83,-652.89 835.86,-654.51 826.44,-656.05 816.62,-657.52 806.43,-658.92 795.93,-660.24 785.15,-661.48 774.13,-662.65 762.93,-663.73 751.57,-664.73 740.1,-665.65 728.56,-666.47 716.98,-667.21 705.4,-667.86 693.86,-668.42 682.38,-668.88 671,-669.25 659.74,-669.53 648.62,-669.71 637.68,-669.78 626.93,-669.76 616.39,-669.64 606.08,-669.41 596.02,-669.08 586.21,-668.65 576.67,-668.12 567.41,-667.48 558.44,-666.73 549.76,-665.88 541.38,-664.93 533.31,-663.87 525.56,-662.71 518.11,-661.45 510.99,-660.09 504.19,-658.63 497.72,-657.07 491.58,-655.43 485.77,-653.69 480.3,-651.86 475.17,-649.95 470.38,-647.97 465.96,-645.91 461.89,-643.78 458.19,-641.58 454.87,-639.33 451.93,-637.03 449.39,-634.68 447.25,-632.3 445.54,-629.88 444.25,-627.44 443.4,-624.99 443,-622.52 443.08,-620.06 443.63,-617.6 444.67,-615.17 446.22,-612.75 448.29,-610.37 450.88,-608.03 454.01,-605.75 457.69,-603.52 461.92,-601.36 466.71,-599.27 472.07,-597.26 477.99,-595.35 484.47,-593.53 491.52,-591.81 499.13,-590.21 507.29,-588.72 515.98,-587.35 525.2,-586.1 534.94,-584.99 545.16,-584.01 555.85,-583.17 566.98,-582.47 578.52,-581.92 590.44,-581.5 602.72,-581.23 615.3,-581.11 628.15,-581.13 641.23,-581.3 654.49,-581.6 667.88,-582.05 681.37,-582.64 694.89,-583.36 708.4,-584.21 721.84,-585.19 735.16,-586.3 748.31,-587.52 761.24,-588.85 773.89,-590.29 786.2,-591.83"/>
<text text-anchor="middle" x="656.57" y="-623.69" font-family="sans-serif" font-size="16.00">IntegracionRedesSocialesContext</text>
</g>
<!-- IntegracionRedesSocialesContext&#45;&gt;VentasContext -->
<g id="edge14" class="edge">
<title>IntegracionRedesSocialesContext&#45;&gt;VentasContext</title>
<path fill="none" stroke="black" stroke-width="2" d="M732.22,-585.96C772.14,-564.57 820.52,-538.65 858.26,-518.44"/>
<text text-anchor="middle" x="831.07" y="-551.01" font-family="sans-serif" font-size="12.00">Partnership</text>
</g>
<!-- NotificacionesComunicacionesContext -->
<g id="node12" class="node">
<title>NotificacionesComunicacionesContext</title>
<polygon fill="none" stroke="black" stroke-width="2" points="1396.51,-650.47 1388.15,-652.93 1379.24,-655.31 1369.84,-657.6 1359.96,-659.79 1349.66,-661.88 1338.96,-663.85 1327.9,-665.7 1316.52,-667.41 1304.86,-668.99 1292.95,-670.42 1280.83,-671.71 1268.53,-672.83 1256.1,-673.81 1243.56,-674.61 1230.95,-675.26 1218.31,-675.74 1205.66,-676.06 1193.04,-676.21 1180.48,-676.2 1168.01,-676.02 1155.66,-675.68 1143.45,-675.19 1131.41,-674.55 1119.56,-673.76 1107.94,-672.82 1096.55,-671.75 1085.43,-670.55 1074.6,-669.23 1064.06,-667.79 1053.85,-666.24 1043.98,-664.59 1034.47,-662.85 1025.33,-661.02 1016.58,-659.12 1008.24,-657.15 1000.32,-655.11 992.83,-653.03 985.79,-650.91 979.22,-648.74 973.12,-646.55 967.5,-644.35 962.39,-642.12 957.79,-639.89 953.71,-637.66 950.17,-635.44 947.17,-633.23 944.73,-631.04 942.86,-628.87 941.55,-626.72 940.84,-624.61 940.71,-622.53 941.18,-620.49 942.26,-618.49 943.94,-616.53 946.24,-614.62 949.16,-612.76 952.69,-610.94 956.84,-609.18 961.61,-607.47 966.99,-605.81 972.98,-604.21 979.57,-602.66 986.75,-601.16 994.52,-599.72 1002.86,-598.34 1011.75,-597.02 1021.18,-595.76 1031.13,-594.56 1041.58,-593.42 1052.5,-592.34 1063.87,-591.33 1075.66,-590.38 1087.84,-589.5 1100.38,-588.69 1113.24,-587.95 1126.39,-587.29 1139.79,-586.71 1153.4,-586.2 1167.17,-585.78 1181.07,-585.44 1195.05,-585.19 1209.07,-585.03 1223.07,-584.97 1237.02,-585 1250.87,-585.14 1264.57,-585.38 1278.07,-585.73 1291.32,-586.18 1304.29,-586.75 1316.92,-587.43 1329.16,-588.23 1340.99,-589.14 1352.35,-590.17 1363.2,-591.32 1373.51,-592.58 1383.24,-593.96 1392.35,-595.46 1400.82,-597.08 1408.61,-598.8 1415.7,-600.63 1422.07,-602.57 1427.68,-604.62 1432.54,-606.75 1436.62,-608.98 1439.91,-611.3 1442.4,-613.69 1444.09,-616.15 1444.97,-618.68 1445.06,-621.26 1444.35,-623.88 1442.85,-626.55 1440.57,-629.24 1437.53,-631.94 1433.74,-634.66 1429.22,-637.36 1423.99,-640.06 1418.08,-642.73 1411.51,-645.36 1404.31,-647.94 1396.51,-650.47"/>
<text text-anchor="middle" x="1183.57" y="-623.69" font-family="sans-serif" font-size="16.00">NotificacionesComunicacionesContext</text>
</g>
<!-- NotificacionesComunicacionesContext&#45;&gt;VentasContext -->
<g id="edge15" class="edge">
<title>NotificacionesComunicacionesContext&#45;&gt;VentasContext</title>
<path fill="none" stroke="black" stroke-width="2" d="M1111.7,-587.84C1072.31,-566.66 1023.86,-540.6 985.6,-520.03"/>
<text text-anchor="middle" x="1095.07" y="-551.01" font-family="sans-serif" font-size="12.00">Partnership</text>
</g>
<!-- ProcesoPagosContext -->
<g id="node13" class="node">
<title>ProcesoPagosContext</title>
<polygon fill="none" stroke="black" stroke-width="2" points="2482.16,-232.84 2473.56,-231.37 2465.24,-229.81 2457.22,-228.16 2449.54,-226.43 2442.25,-224.62 2435.35,-222.75 2428.89,-220.81 2422.89,-218.81 2417.38,-216.77 2412.36,-214.68 2407.88,-212.55 2403.93,-210.4 2400.53,-208.22 2397.7,-206.02 2395.44,-203.81 2393.76,-201.59 2392.65,-199.37 2392.12,-197.16 2392.17,-194.96 2392.78,-192.77 2393.96,-190.6 2395.67,-188.46 2397.93,-186.35 2400.7,-184.27 2403.96,-182.23 2407.71,-180.24 2411.91,-178.29 2416.54,-176.39 2421.58,-174.54 2427,-172.75 2432.77,-171.02 2438.86,-169.35 2445.25,-167.75 2451.91,-166.21 2458.81,-164.75 2465.92,-163.36 2473.2,-162.05 2480.64,-160.81 2488.2,-159.66 2495.86,-158.59 2503.59,-157.61 2511.37,-156.71 2519.17,-155.9 2526.96,-155.19 2534.74,-154.57 2542.47,-154.04 2550.15,-153.61 2557.74,-153.28 2565.24,-153.06 2572.63,-152.93 2579.91,-152.91 2587.05,-152.99 2594.04,-153.18 2600.89,-153.47 2607.58,-153.88 2614.1,-154.39 2620.44,-155.01 2626.61,-155.74 2632.6,-156.57 2638.41,-157.52 2644.02,-158.57 2649.44,-159.72 2654.67,-160.98 2659.7,-162.34 2664.52,-163.81 2669.15,-165.37 2673.56,-167.02 2677.77,-168.76 2681.76,-170.6 2685.53,-172.51 2689.07,-174.51 2692.39,-176.57 2695.46,-178.71 2698.3,-180.91 2700.87,-183.16 2703.19,-185.47 2705.24,-187.82 2707.01,-190.21 2708.49,-192.62 2709.67,-195.06 2710.55,-197.51 2711.1,-199.97 2711.31,-202.42 2711.19,-204.87 2710.71,-207.3 2709.87,-209.7 2708.66,-212.07 2707.07,-214.39 2705.08,-216.67 2702.7,-218.88 2699.92,-221.03 2696.73,-223.1 2693.13,-225.09 2689.11,-227 2684.69,-228.81 2679.85,-230.51 2674.61,-232.11 2668.96,-233.6 2662.93,-234.96 2656.51,-236.2 2649.72,-237.32 2642.58,-238.31 2635.11,-239.16 2627.31,-239.87 2619.21,-240.45 2610.85,-240.89 2602.23,-241.18 2593.39,-241.34 2584.36,-241.35 2575.18,-241.23 2565.86,-240.97 2556.45,-240.57 2546.98,-240.03 2537.49,-239.37 2528.01,-238.58 2518.59,-237.66 2509.25,-236.62 2500.05,-235.47 2491,-234.21 2482.16,-232.84"/>
<text text-anchor="middle" x="2562.57" y="-191.7" font-family="sans-serif" font-size="16.00">ProcesoPagosContext</text>
</g>
<!-- ProcesoPagosContext&#45;&gt;GestionPedidosContext -->
<g id="edge16" class="edge">
<title>ProcesoPagosContext&#45;&gt;GestionPedidosContext</title>
<path fill="none" stroke="black" stroke-width="2" d="M2483.98,-160.26C2451.45,-146.24 2413.28,-129.99 2378.57,-115.72 2355.8,-106.36 2331.17,-96.5 2308.01,-87.35"/>
<text text-anchor="middle" x="2464.57" y="-119.12" font-family="sans-serif" font-size="12.00">Customer/Supplier</text>
<polygon fill="white" stroke="transparent" points="2301.01,-78.35 2301.01,-95.35 2315.01,-95.35 2315.01,-78.35 2301.01,-78.35"/>
<text text-anchor="start" x="2303.01" y="-83.75" font-family="sans-serif" font-size="12.00">D</text>
<polygon fill="white" stroke="transparent" points="2476.98,-151.26 2476.98,-168.26 2490.98,-168.26 2490.98,-151.26 2476.98,-151.26"/>
<text text-anchor="start" x="2478.98" y="-156.66" font-family="sans-serif" font-size="12.00">U</text>
</g>
<!-- ServicioClienteContext -->
<g id="node14" class="node">
<title>ServicioClienteContext</title>
<polygon fill="none" stroke="black" stroke-width="2" points="1550.47,-591.13 1559.08,-589.47 1567.9,-587.92 1576.88,-586.49 1585.99,-585.19 1595.19,-584.01 1604.45,-582.96 1613.74,-582.06 1623.02,-581.3 1632.26,-580.69 1641.43,-580.22 1650.5,-579.91 1659.44,-579.76 1668.23,-579.76 1676.83,-579.91 1685.23,-580.22 1693.41,-580.69 1701.34,-581.3 1709,-582.07 1716.39,-582.98 1723.48,-584.03 1730.26,-585.22 1736.72,-586.55 1742.85,-588 1748.65,-589.58 1754.1,-591.27 1759.21,-593.07 1763.97,-594.97 1768.37,-596.96 1772.43,-599.03 1776.13,-601.19 1779.47,-603.41 1782.47,-605.69 1785.12,-608.02 1787.42,-610.4 1789.39,-612.81 1791.01,-615.24 1792.3,-617.69 1793.27,-620.14 1793.9,-622.6 1794.22,-625.05 1794.22,-627.48 1793.9,-629.89 1793.27,-632.26 1792.34,-634.6 1791.09,-636.9 1789.55,-639.14 1787.7,-641.33 1785.55,-643.46 1783.11,-645.52 1780.36,-647.51 1777.32,-649.43 1773.98,-651.27 1770.35,-653.03 1766.43,-654.71 1762.21,-656.3 1757.69,-657.8 1752.89,-659.22 1747.8,-660.54 1742.42,-661.77 1736.77,-662.91 1730.83,-663.95 1724.62,-664.9 1718.15,-665.76 1711.41,-666.52 1704.43,-667.19 1697.2,-667.77 1689.75,-668.26 1682.08,-668.65 1674.22,-668.95 1666.16,-669.15 1657.94,-669.27 1649.57,-669.3 1641.07,-669.23 1632.46,-669.08 1623.77,-668.83 1615.03,-668.5 1606.25,-668.08 1597.47,-667.57 1588.72,-666.97 1580.01,-666.28 1571.4,-665.51 1562.9,-664.65 1554.55,-663.71 1546.38,-662.68 1538.42,-661.56 1530.7,-660.36 1523.26,-659.07 1516.13,-657.71 1509.34,-656.26 1502.91,-654.73 1496.88,-653.12 1491.28,-651.43 1486.12,-649.67 1481.44,-647.84 1477.26,-645.94 1473.6,-643.98 1470.47,-641.95 1467.9,-639.86 1465.89,-637.72 1464.46,-635.53 1463.61,-633.29 1463.36,-631.01 1463.7,-628.7 1464.64,-626.36 1466.17,-624 1468.28,-621.63 1470.98,-619.24 1474.24,-616.86 1478.06,-614.48 1482.41,-612.12 1487.29,-609.79 1492.66,-607.48 1498.52,-605.21 1504.82,-602.99 1511.54,-600.83 1518.66,-598.73 1526.15,-596.7 1533.96,-594.75 1542.08,-592.89 1550.47,-591.13"/>
<text text-anchor="middle" x="1641.57" y="-623.69" font-family="sans-serif" font-size="16.00">ServicioClienteContext</text>
</g>
<!-- ServicioClienteContext&#45;&gt;VentasContext -->
<g id="edge17" class="edge">
<title>ServicioClienteContext&#45;&gt;VentasContext</title>
<path fill="none" stroke="black" stroke-width="2" d="M1528.06,-596.11C1503.57,-589.97 1477.77,-583.81 1453.57,-578.61 1303.61,-546.4 1128.16,-517.23 1020.71,-500.32"/>
<text text-anchor="middle" x="1387.07" y="-551.01" font-family="sans-serif" font-size="12.00">Partnership</text>
</g>
</g>
</svg>
