<svg width="2000px" height="1249px"
 viewBox="0.00 0.00 625.93 390.87" xmlns="http://www.w3.org/2000/svg" xmlns:xlink="http://www.w3.org/1999/xlink">
<g id="graph0" class="graph" transform="scale(1.0 1.0) rotate(0) translate(4 386.87)">
<title>ContextMapGraph</title>
<polygon fill="white" stroke="transparent" points="-4,4 -4,-386.87 621.93,-386.87 621.93,4 -4,4"/>
<!-- atencionCliente -->
<g id="node1" class="node">
<title>atencionCliente</title>
<polygon fill="none" stroke="black" stroke-width="2" points="22.22,-26.53 26.15,-24.04 30.35,-21.64 34.79,-19.32 39.46,-17.09 44.34,-14.98 49.42,-12.97 54.68,-11.09 60.11,-9.35 65.67,-7.73 71.37,-6.26 77.17,-4.95 83.06,-3.78 89.03,-2.77 95.06,-1.92 101.13,-1.24 107.22,-0.72 113.32,-0.37 119.42,-0.18 125.5,-0.15 131.54,-0.29 137.53,-0.59 143.46,-1.04 149.32,-1.65 155.09,-2.4 160.76,-3.3 166.32,-4.33 171.75,-5.5 177.06,-6.79 182.23,-8.2 187.24,-9.71 192.1,-11.33 196.78,-13.05 201.29,-14.85 205.61,-16.72 209.75,-18.67 213.68,-20.67 217.4,-22.73 220.91,-24.84 224.19,-26.98 227.25,-29.15 230.07,-31.34 232.65,-33.54 234.98,-35.76 237.06,-37.97 238.89,-40.18 240.44,-42.38 241.73,-44.57 242.74,-46.73 243.47,-48.87 243.92,-50.98 244.09,-53.06 243.96,-55.1 243.53,-57.11 242.81,-59.07 241.79,-60.98 240.47,-62.86 238.85,-64.68 236.93,-66.46 234.7,-68.18 232.18,-69.86 229.36,-71.48 226.24,-73.05 222.84,-74.56 219.15,-76.02 215.19,-77.43 210.95,-78.78 206.45,-80.07 201.69,-81.3 196.69,-82.47 191.46,-83.58 186.01,-84.63 180.35,-85.61 174.5,-86.53 168.47,-87.38 162.28,-88.15 155.95,-88.86 149.5,-89.48 142.94,-90.03 136.3,-90.49 129.59,-90.87 122.84,-91.17 116.06,-91.37 109.29,-91.47 102.54,-91.48 95.83,-91.39 89.2,-91.19 82.65,-90.88 76.21,-90.47 69.91,-89.94 63.77,-89.3 57.81,-88.54 52.04,-87.66 46.5,-86.67 41.19,-85.56 36.14,-84.32 31.37,-82.97 26.89,-81.5 22.72,-79.91 18.86,-78.21 15.34,-76.4 12.17,-74.48 9.35,-72.46 6.9,-70.34 4.82,-68.12 3.12,-65.82 1.8,-63.43 0.86,-60.98 0.31,-58.46 0.15,-55.88 0.36,-53.25 0.96,-50.58 1.93,-47.89 3.27,-45.17 4.98,-42.45 7.03,-39.73 9.43,-37.02 12.16,-34.33 15.22,-31.68 18.57,-29.08 22.22,-26.53"/>
<text text-anchor="middle" x="126.35" y="-45.05" font-family="sans-serif" font-size="16.00">atencionCliente</text>
</g>
<!-- devoluciones -->
<g id="node2" class="node">
<title>devoluciones</title>
<polygon fill="none" stroke="black" stroke-width="2" points="262.5,-370.84 256.69,-369.24 251.08,-367.57 245.7,-365.8 240.57,-363.96 235.71,-362.05 231.14,-360.08 226.89,-358.05 222.96,-355.98 219.37,-353.86 216.14,-351.7 213.28,-349.52 210.8,-347.31 208.71,-345.09 207.02,-342.85 205.72,-340.62 204.83,-338.38 204.35,-336.16 204.26,-333.94 204.57,-331.75 205.28,-329.58 206.38,-327.44 207.85,-325.33 209.69,-323.26 211.89,-321.24 214.42,-319.25 217.29,-317.32 220.47,-315.44 223.94,-313.62 227.69,-311.85 231.7,-310.15 235.95,-308.51 240.41,-306.94 245.08,-305.44 249.92,-304.01 254.91,-302.66 260.05,-301.38 265.3,-300.18 270.64,-299.06 276.06,-298.03 281.54,-297.08 287.06,-296.21 292.6,-295.43 298.14,-294.75 303.67,-294.15 309.17,-293.65 314.63,-293.24 320.04,-292.93 325.38,-292.71 330.64,-292.6 335.81,-292.58 340.89,-292.67 345.86,-292.86 350.71,-293.15 355.45,-293.55 360.06,-294.05 364.54,-294.66 368.89,-295.37 373.1,-296.19 377.17,-297.11 381.1,-298.13 384.88,-299.26 388.52,-300.5 392,-301.83 395.33,-303.26 398.51,-304.79 401.54,-306.41 404.41,-308.13 407.12,-309.93 409.67,-311.81 412.05,-313.78 414.27,-315.82 416.32,-317.93 418.19,-320.1 419.88,-322.33 421.4,-324.62 422.72,-326.95 423.85,-329.32 424.78,-331.72 425.5,-334.15 426.01,-336.6 426.31,-339.05 426.38,-341.51 426.22,-343.96 425.82,-346.4 425.18,-348.81 424.28,-351.19 423.14,-353.53 421.73,-355.82 420.05,-358.05 418.11,-360.23 415.89,-362.32 413.4,-364.34 410.64,-366.27 407.59,-368.11 404.27,-369.84 400.68,-371.47 396.82,-372.98 392.7,-374.38 388.31,-375.65 383.68,-376.79 378.8,-377.8 373.7,-378.68 368.37,-379.41 362.84,-380.01 357.12,-380.46 351.23,-380.77 345.18,-380.94 339,-380.96 332.7,-380.84 326.31,-380.58 319.84,-380.18 313.33,-379.64 306.8,-378.97 300.26,-378.16 293.75,-377.23 287.3,-376.18 280.92,-375.01 274.64,-373.72 268.5,-372.33 262.5,-370.84"/>
<text text-anchor="middle" x="323.35" y="-331.04" font-family="sans-serif" font-size="16.00">devoluciones</text>
</g>
<!-- login -->
<g id="node3" class="node">
<title>login</title>
<polygon fill="none" stroke="black" stroke-width="2" points="69.3,-322.24 70.36,-319.48 71.57,-316.77 72.93,-314.12 74.43,-311.54 76.06,-309.05 77.83,-306.65 79.72,-304.36 81.74,-302.18 83.86,-300.12 86.1,-298.19 88.43,-296.4 90.86,-294.74 93.38,-293.24 95.98,-291.88 98.65,-290.68 101.39,-289.64 104.19,-288.76 107.04,-288.04 109.93,-287.48 112.86,-287.08 115.82,-286.84 118.8,-286.77 121.79,-286.84 124.79,-287.07 127.79,-287.45 130.79,-287.97 133.77,-288.62 136.73,-289.41 139.66,-290.33 142.55,-291.37 145.4,-292.52 148.2,-293.77 150.94,-295.13 153.62,-296.58 156.24,-298.11 158.77,-299.72 161.23,-301.4 163.59,-303.14 165.86,-304.93 168.04,-306.78 170.11,-308.67 172.06,-310.59 173.91,-312.54 175.63,-314.51 177.22,-316.51 178.69,-318.51 180.02,-320.53 181.22,-322.55 182.27,-324.57 183.18,-326.58 183.94,-328.59 184.55,-330.59 185.01,-332.58 185.31,-334.55 185.45,-336.51 185.44,-338.45 185.26,-340.37 184.93,-342.27 184.44,-344.15 183.78,-346 182.97,-347.83 182,-349.63 180.87,-351.4 179.59,-353.15 178.16,-354.87 176.58,-356.55 174.86,-358.21 172.99,-359.82 170.99,-361.4 168.86,-362.95 166.6,-364.45 164.22,-365.9 161.73,-367.31 159.13,-368.66 156.43,-369.96 153.64,-371.2 150.77,-372.38 147.82,-373.49 144.8,-374.53 141.72,-375.49 138.59,-376.36 135.43,-377.15 132.23,-377.85 129.01,-378.45 125.78,-378.95 122.54,-379.34 119.32,-379.62 116.11,-379.78 112.93,-379.82 109.78,-379.73 106.69,-379.52 103.65,-379.17 100.67,-378.69 97.77,-378.07 94.96,-377.32 92.23,-376.42 89.61,-375.38 87.1,-374.2 84.7,-372.88 82.42,-371.43 80.28,-369.84 78.27,-368.11 76.4,-366.26 74.68,-364.29 73.11,-362.19 71.69,-359.99 70.44,-357.68 69.34,-355.27 68.42,-352.77 67.66,-350.19 67.06,-347.54 66.64,-344.83 66.39,-342.07 66.31,-339.27 66.39,-336.44 66.65,-333.59 67.07,-330.73 67.65,-327.88 68.4,-325.05 69.3,-322.24"/>
<text text-anchor="middle" x="126.35" y="-331.04" font-family="sans-serif" font-size="16.00">login</text>
</g>
<!-- ventas -->
<g id="node4" class="node">
<title>ventas</title>
<polygon fill="none" stroke="black" stroke-width="2" points="147.26,-234.23 142.91,-235.13 138.53,-235.9 134.14,-236.56 129.75,-237.08 125.38,-237.47 121.05,-237.73 116.77,-237.85 112.56,-237.84 108.44,-237.69 104.42,-237.4 100.51,-236.97 96.72,-236.41 93.07,-235.71 89.57,-234.88 86.23,-233.91 83.05,-232.82 80.04,-231.6 77.22,-230.26 74.57,-228.8 72.12,-227.23 69.86,-225.55 67.79,-223.77 65.92,-221.89 64.25,-219.93 62.77,-217.88 61.49,-215.75 60.39,-213.56 59.49,-211.31 58.78,-209 58.24,-206.65 57.89,-204.26 57.7,-201.84 57.69,-199.4 57.84,-196.95 58.14,-194.5 58.6,-192.04 59.2,-189.6 59.95,-187.18 60.82,-184.78 61.83,-182.42 62.96,-180.1 64.22,-177.82 65.58,-175.6 67.06,-173.44 68.64,-171.35 70.33,-169.33 72.12,-167.39 74,-165.53 75.97,-163.75 78.04,-162.07 80.19,-160.48 82.44,-158.99 84.76,-157.59 87.17,-156.31 89.67,-155.12 92.24,-154.05 94.89,-153.08 97.62,-152.22 100.43,-151.47 103.31,-150.84 106.26,-150.31 109.28,-149.9 112.37,-149.6 115.52,-149.4 118.73,-149.32 122,-149.34 125.32,-149.47 128.68,-149.71 132.09,-150.05 135.53,-150.5 139,-151.04 142.49,-151.68 145.99,-152.42 149.49,-153.25 152.98,-154.18 156.46,-155.19 159.91,-156.3 163.31,-157.48 166.67,-158.75 169.97,-160.1 173.18,-161.52 176.31,-163.02 179.34,-164.59 182.25,-166.22 185.04,-167.93 187.68,-169.69 190.18,-171.51 192.5,-173.38 194.65,-175.31 196.6,-177.28 198.36,-179.3 199.9,-181.35 201.22,-183.44 202.31,-185.56 203.17,-187.71 203.77,-189.88 204.13,-192.07 204.22,-194.27 204.06,-196.47 203.64,-198.68 202.95,-200.88 201.99,-203.08 200.77,-205.26 199.3,-207.42 197.56,-209.55 195.58,-211.65 193.35,-213.71 190.89,-215.73 188.2,-217.69 185.29,-219.6 182.18,-221.45 178.87,-223.22 175.39,-224.92 171.74,-226.54 167.94,-228.07 164.01,-229.51 159.95,-230.85 155.8,-232.09 151.57,-233.21 147.26,-234.23"/>
<text text-anchor="middle" x="126.35" y="-188.45" font-family="sans-serif" font-size="16.00">ventas</text>
</g>
<!-- login&#45;&gt;ventas -->
<g id="edge1" class="edge">
<title>login&#45;&gt;ventas</title>
<path fill="none" stroke="black" stroke-width="2" d="M126.35,-287.02C126.35,-271.05 126.35,-253.24 126.35,-237.48"/>
<text text-anchor="middle" x="201.85" y="-259.2" font-family="sans-serif" font-size="12.00"> &#160;&#160;&#160;&#160;&#160;&#160;&#160;&#160;&#160;&#160;&#160;&#160;&#160;&#160;&#160;&#160;&#160;&#160;&#160;&#160;&#160;&#160;&#160;&#160;&#160;&#160;&#160;&#160;&#160;&#160;&#160;&#160;&#160;&#160;&#160;&#160;&#160;&#160;&#160;</text>
<polygon fill="white" stroke="transparent" points="119.35,-228.48 119.35,-245.48 133.35,-245.48 133.35,-228.48 119.35,-228.48"/>
<text text-anchor="start" x="121.35" y="-233.88" font-family="sans-serif" font-size="12.00">D</text>
<polygon fill="white" stroke="transparent" points="119.35,-278.02 119.35,-295.02 133.35,-295.02 133.35,-278.02 119.35,-278.02"/>
<text text-anchor="start" x="121.35" y="-283.42" font-family="sans-serif" font-size="12.00">U</text>
</g>
<!-- ventas&#45;&gt;atencionCliente -->
<g id="edge2" class="edge">
<title>ventas&#45;&gt;atencionCliente</title>
<path fill="none" stroke="black" stroke-width="2" d="M126.35,-149.21C126.35,-130.97 126.35,-109.67 126.35,-91.48"/>
<text text-anchor="middle" x="201.85" y="-119.1" font-family="sans-serif" font-size="12.00"> &#160;&#160;&#160;&#160;&#160;&#160;&#160;&#160;&#160;&#160;&#160;&#160;&#160;&#160;&#160;&#160;&#160;&#160;&#160;&#160;&#160;&#160;&#160;&#160;&#160;&#160;&#160;&#160;&#160;&#160;&#160;&#160;&#160;&#160;&#160;&#160;&#160;&#160;&#160;</text>
<polygon fill="white" stroke="transparent" points="103.35,-81.48 103.35,-100.48 119.35,-100.48 119.35,-81.48 103.35,-81.48"/>
<polyline fill="none" stroke="black" points="119.35,-81.48 119.35,-100.48 "/>
<text text-anchor="start" x="106.35" y="-87.88" font-family="sans-serif" font-size="12.00">D</text>
<polygon fill="white" stroke="transparent" points="119.35,-81.48 119.35,-100.48 149.35,-100.48 149.35,-81.48 119.35,-81.48"/>
<polygon fill="none" stroke="black" points="119.35,-81.48 119.35,-100.48 149.35,-100.48 149.35,-81.48 119.35,-81.48"/>
<text text-anchor="start" x="122.35" y="-87.88" font-family="sans-serif" font-size="12.00">ACL</text>
<polygon fill="white" stroke="transparent" points="119.35,-140.21 119.35,-157.21 133.35,-157.21 133.35,-140.21 119.35,-140.21"/>
<text text-anchor="start" x="121.35" y="-145.61" font-family="sans-serif" font-size="12.00">U</text>
</g>
<!-- logistica -->
<g id="node5" class="node">
<title>logistica</title>
<polygon fill="none" stroke="black" stroke-width="2" points="461.52,-328.22 462.22,-325.37 463.13,-322.55 464.24,-319.79 465.56,-317.08 467.08,-314.44 468.8,-311.88 470.71,-309.41 472.8,-307.04 475.07,-304.78 477.52,-302.64 480.13,-300.61 482.9,-298.72 485.82,-296.97 488.88,-295.36 492.08,-293.9 495.41,-292.58 498.85,-291.42 502.4,-290.41 506.05,-289.56 509.78,-288.86 513.6,-288.32 517.48,-287.94 521.42,-287.71 525.41,-287.62 529.43,-287.69 533.48,-287.9 537.55,-288.24 541.61,-288.72 545.68,-289.33 549.72,-290.06 553.74,-290.91 557.72,-291.86 561.65,-292.93 565.52,-294.09 569.32,-295.34 573.05,-296.67 576.68,-298.08 580.21,-299.57 583.63,-301.11 586.94,-302.72 590.11,-304.38 593.16,-306.08 596.05,-307.83 598.8,-309.61 601.39,-311.42 603.81,-313.26 606.06,-315.12 608.12,-317 610.01,-318.9 611.7,-320.8 613.19,-322.72 614.49,-324.64 615.58,-326.56 616.47,-328.49 617.15,-330.42 617.61,-332.34 617.86,-334.26 617.9,-336.18 617.72,-338.09 617.32,-340 616.71,-341.89 615.89,-343.78 614.86,-345.66 613.62,-347.52 612.17,-349.37 610.52,-351.21 608.68,-353.02 606.64,-354.82 604.41,-356.59 602.01,-358.34 599.42,-360.06 596.67,-361.75 593.76,-363.4 590.7,-365.01 587.49,-366.58 584.14,-368.09 580.67,-369.56 577.09,-370.96 573.39,-372.3 569.6,-373.57 565.73,-374.76 561.78,-375.87 557.76,-376.89 553.7,-377.82 549.59,-378.65 545.45,-379.37 541.3,-379.97 537.14,-380.46 532.98,-380.83 528.85,-381.07 524.74,-381.18 520.67,-381.15 516.66,-380.97 512.71,-380.66 508.83,-380.2 505.05,-379.59 501.35,-378.83 497.77,-377.92 494.3,-376.86 490.96,-375.65 487.75,-374.29 484.69,-372.79 481.78,-371.15 479.04,-369.36 476.46,-367.45 474.06,-365.41 471.84,-363.24 469.81,-360.97 467.97,-358.59 466.33,-356.11 464.9,-353.54 463.67,-350.9 462.65,-348.18 461.84,-345.41 461.25,-342.59 460.87,-339.74 460.71,-336.87 460.77,-333.98 461.04,-331.09 461.52,-328.22"/>
<text text-anchor="middle" x="539.35" y="-331.04" font-family="sans-serif" font-size="16.00">logistica</text>
</g>
</g>
</svg>
