<svg width="2000px" height="2587px"
 viewBox="0.00 0.00 415.77 537.96" xmlns="http://www.w3.org/2000/svg" xmlns:xlink="http://www.w3.org/1999/xlink">
<g id="graph0" class="graph" transform="scale(1.0 1.0) rotate(0) translate(4 533.96)">
<title>ContextMapGraph</title>
<polygon fill="white" stroke="transparent" points="-4,4 -4,-533.96 411.77,-533.96 411.77,4 -4,4"/>
<!-- atencionCliente -->
<g id="node1" class="node">
<title>atencionCliente</title>
<polygon fill="none" stroke="black" stroke-width="2" points="276.03,-79.46 270.54,-81.53 264.86,-83.51 258.99,-85.38 252.96,-87.13 246.8,-88.77 240.52,-90.27 234.14,-91.64 227.7,-92.87 221.21,-93.95 214.7,-94.88 208.17,-95.66 201.66,-96.27 195.19,-96.73 188.76,-97.03 182.4,-97.16 176.13,-97.13 169.96,-96.94 163.91,-96.59 157.99,-96.08 152.21,-95.41 146.58,-94.6 141.12,-93.63 135.84,-92.53 130.74,-91.28 125.83,-89.91 121.12,-88.41 116.61,-86.8 112.32,-85.08 108.24,-83.25 104.38,-81.33 100.75,-79.33 97.34,-77.25 94.16,-75.1 91.22,-72.89 88.5,-70.63 86.03,-68.33 83.79,-66 81.79,-63.64 80.03,-61.26 78.51,-58.88 77.24,-56.5 76.2,-54.12 75.42,-51.76 74.88,-49.42 74.59,-47.1 74.55,-44.82 74.76,-42.58 75.23,-40.38 75.95,-38.23 76.93,-36.14 78.16,-34.1 79.65,-32.12 81.41,-30.21 83.42,-28.36 85.7,-26.58 88.23,-24.87 91.03,-23.24 94.09,-21.68 97.41,-20.19 100.98,-18.78 104.81,-17.45 108.89,-16.19 113.21,-15.01 117.77,-13.92 122.57,-12.9 127.59,-11.95 132.83,-11.09 138.28,-10.31 143.92,-9.61 149.75,-8.99 155.75,-8.44 161.91,-7.98 168.21,-7.61 174.63,-7.31 181.17,-7.1 187.79,-6.97 194.48,-6.93 201.22,-6.97 207.99,-7.1 214.77,-7.32 221.52,-7.63 228.24,-8.03 234.89,-8.52 241.46,-9.11 247.91,-9.79 254.23,-10.57 260.39,-11.44 266.37,-12.41 272.14,-13.48 277.68,-14.64 282.97,-15.91 287.98,-17.27 292.71,-18.72 297.12,-20.27 301.2,-21.92 304.93,-23.66 308.31,-25.48 311.3,-27.4 313.91,-29.39 316.11,-31.47 317.91,-33.62 319.29,-35.83 320.25,-38.12 320.79,-40.46 320.91,-42.85 320.59,-45.29 319.86,-47.77 318.7,-50.27 317.14,-52.8 315.17,-55.34 312.8,-57.89 310.05,-60.43 306.93,-62.96 303.45,-65.46 299.63,-67.93 295.48,-70.36 291.03,-72.74 286.29,-75.05 281.28,-77.3 276.03,-79.46"/>
<text text-anchor="middle" x="189.77" y="-44.75" font-family="sans-serif" font-size="16.00">atencionCliente</text>
</g>
<!-- compras -->
<g id="node2" class="node">
<title>compras</title>
<polygon fill="none" stroke="black" stroke-width="2" points="39.88,-447.16 44.02,-445.39 48.26,-443.72 52.6,-442.17 57.02,-440.74 61.49,-439.44 66.01,-438.27 70.55,-437.24 75.1,-436.35 79.65,-435.61 84.17,-435.02 88.66,-434.58 93.11,-434.3 97.48,-434.17 101.79,-434.2 106.01,-434.39 110.12,-434.74 114.14,-435.24 118.03,-435.89 121.8,-436.69 125.43,-437.64 128.93,-438.73 132.27,-439.96 135.47,-441.31 138.51,-442.8 141.39,-444.4 144.11,-446.12 146.66,-447.94 149.05,-449.86 151.27,-451.87 153.32,-453.96 155.2,-456.12 156.91,-458.35 158.45,-460.63 159.83,-462.96 161.04,-465.33 162.08,-467.72 162.96,-470.14 163.67,-472.57 164.23,-475 164.62,-477.43 164.85,-479.85 164.92,-482.25 164.84,-484.63 164.59,-486.97 164.19,-489.27 163.64,-491.52 162.93,-493.72 162.06,-495.87 161.04,-497.96 159.86,-499.98 158.53,-501.93 157.04,-503.81 155.4,-505.61 153.61,-507.33 151.65,-508.98 149.55,-510.54 147.29,-512.01 144.88,-513.4 142.32,-514.7 139.61,-515.91 136.75,-517.04 133.74,-518.07 130.6,-519.02 127.32,-519.87 123.9,-520.64 120.36,-521.31 116.69,-521.9 112.9,-522.4 109.01,-522.81 105.01,-523.13 100.93,-523.36 96.76,-523.51 92.51,-523.56 88.21,-523.53 83.86,-523.41 79.47,-523.21 75.05,-522.91 70.63,-522.53 66.21,-522.06 61.8,-521.5 57.43,-520.86 53.12,-520.12 48.86,-519.3 44.69,-518.39 40.62,-517.39 36.66,-516.31 32.83,-515.13 29.14,-513.88 25.62,-512.53 22.27,-511.1 19.11,-509.59 16.15,-507.99 13.42,-506.31 10.91,-504.56 8.64,-502.73 6.63,-500.82 4.87,-498.85 3.39,-496.81 2.19,-494.71 1.26,-492.55 0.63,-490.33 0.28,-488.07 0.23,-485.77 0.48,-483.43 1.01,-481.06 1.84,-478.67 2.95,-476.26 4.35,-473.84 6.03,-471.42 7.97,-469.01 10.18,-466.62 12.64,-464.25 15.33,-461.91 18.26,-459.61 21.41,-457.36 24.75,-455.17 28.29,-453.05 32,-451 35.87,-449.03 39.88,-447.16"/>
<text text-anchor="middle" x="88.77" y="-478.23" font-family="sans-serif" font-size="16.00">compras</text>
</g>
<!-- login -->
<g id="node3" class="node">
<title>login</title>
<polygon fill="none" stroke="black" stroke-width="2" points="83.95,-381.79 80.08,-381.6 76.24,-381.29 72.45,-380.86 68.73,-380.32 65.1,-379.66 61.56,-378.88 58.13,-378 54.83,-377 51.67,-375.9 48.65,-374.69 45.79,-373.38 43.1,-371.97 40.58,-370.47 38.25,-368.89 36.11,-367.21 34.16,-365.46 32.41,-363.63 30.87,-361.73 29.53,-359.76 28.4,-357.74 27.47,-355.66 26.75,-353.53 26.22,-351.36 25.9,-349.16 25.78,-346.92 25.84,-344.66 26.1,-342.38 26.53,-340.08 27.13,-337.79 27.9,-335.49 28.83,-333.2 29.91,-330.93 31.14,-328.67 32.49,-326.45 33.98,-324.25 35.58,-322.09 37.29,-319.98 39.1,-317.92 41.01,-315.91 43,-313.96 45.06,-312.09 47.2,-310.28 49.4,-308.55 51.65,-306.9 53.96,-305.34 56.31,-303.87 58.7,-302.49 61.12,-301.22 63.57,-300.04 66.05,-298.97 68.55,-298.01 71.07,-297.15 73.61,-296.41 76.15,-295.79 78.71,-295.28 81.28,-294.89 83.86,-294.62 86.44,-294.46 89.02,-294.43 91.61,-294.52 94.2,-294.72 96.78,-295.05 99.37,-295.49 101.94,-296.05 104.51,-296.72 107.07,-297.51 109.61,-298.41 112.14,-299.42 114.65,-300.53 117.13,-301.74 119.58,-303.06 122,-304.47 124.38,-305.97 126.71,-307.56 128.99,-309.23 131.21,-310.98 133.36,-312.8 135.44,-314.7 137.44,-316.65 139.35,-318.67 141.16,-320.74 142.86,-322.85 144.45,-325.01 145.91,-327.2 147.24,-329.42 148.43,-331.67 149.47,-333.93 150.35,-336.2 151.06,-338.48 151.6,-340.76 151.96,-343.03 152.13,-345.29 152.11,-347.53 151.9,-349.75 151.48,-351.93 150.86,-354.07 150.03,-356.18 148.99,-358.23 147.75,-360.23 146.29,-362.17 144.64,-364.04 142.77,-365.84 140.71,-367.57 138.46,-369.22 136.01,-370.78 133.39,-372.25 130.59,-373.63 127.63,-374.92 124.52,-376.1 121.27,-377.19 117.89,-378.16 114.39,-379.02 110.79,-379.78 107.1,-380.42 103.33,-380.94 99.51,-381.35 95.65,-381.64 91.75,-381.81 87.85,-381.86 83.95,-381.79"/>
<text text-anchor="middle" x="88.77" y="-334.34" font-family="sans-serif" font-size="16.00">login</text>
</g>
<!-- compras&#45;&gt;login -->
<g id="edge1" class="edge">
<title>compras&#45;&gt;login</title>
<path fill="none" stroke="black" stroke-width="2" d="M88.77,-434.57C88.77,-417.6 88.77,-398.49 88.77,-381.86"/>
<text text-anchor="middle" x="164.27" y="-406.5" font-family="sans-serif" font-size="12.00"> &#160;&#160;&#160;&#160;&#160;&#160;&#160;&#160;&#160;&#160;&#160;&#160;&#160;&#160;&#160;&#160;&#160;&#160;&#160;&#160;&#160;&#160;&#160;&#160;&#160;&#160;&#160;&#160;&#160;&#160;&#160;&#160;&#160;&#160;&#160;&#160;&#160;&#160;&#160;</text>
<polygon fill="white" stroke="transparent" points="81.77,-372.86 81.77,-389.86 95.77,-389.86 95.77,-372.86 81.77,-372.86"/>
<text text-anchor="start" x="83.77" y="-378.26" font-family="sans-serif" font-size="12.00">D</text>
<polygon fill="white" stroke="transparent" points="81.77,-425.57 81.77,-442.57 95.77,-442.57 95.77,-425.57 81.77,-425.57"/>
<text text-anchor="start" x="83.77" y="-430.97" font-family="sans-serif" font-size="12.00">U</text>
</g>
<!-- ventas -->
<g id="node4" class="node">
<title>ventas</title>
<polygon fill="none" stroke="black" stroke-width="2" points="119.68,-198.25 119.19,-195.39 118.88,-192.54 118.78,-189.71 118.88,-186.91 119.18,-184.15 119.68,-181.43 120.38,-178.78 121.28,-176.21 122.37,-173.71 123.66,-171.3 125.15,-168.99 126.82,-166.78 128.68,-164.69 130.71,-162.72 132.92,-160.86 135.3,-159.14 137.83,-157.55 140.52,-156.09 143.36,-154.78 146.33,-153.6 149.43,-152.56 152.65,-151.66 155.98,-150.9 159.41,-150.29 162.92,-149.8 166.52,-149.46 170.18,-149.24 173.89,-149.16 177.65,-149.2 181.45,-149.36 185.26,-149.64 189.08,-150.03 192.9,-150.53 196.71,-151.13 200.49,-151.82 204.24,-152.62 207.93,-153.49 211.57,-154.45 215.14,-155.49 218.63,-156.6 222.03,-157.78 225.32,-159.02 228.51,-160.32 231.59,-161.67 234.53,-163.08 237.34,-164.53 240.01,-166.03 242.53,-167.57 244.9,-169.15 247.1,-170.77 249.14,-172.43 251.01,-174.11 252.7,-175.83 254.22,-177.57 255.55,-179.35 256.69,-181.15 257.66,-182.98 258.43,-184.83 259.01,-186.71 259.41,-188.61 259.61,-190.53 259.63,-192.47 259.46,-194.42 259.1,-196.4 258.56,-198.39 257.84,-200.39 256.95,-202.4 255.87,-204.41 254.63,-206.43 253.21,-208.45 251.64,-210.46 249.9,-212.47 248.02,-214.46 245.98,-216.44 243.8,-218.39 241.49,-220.31 239.04,-222.2 236.48,-224.04 233.79,-225.84 230.99,-227.58 228.09,-229.26 225.09,-230.87 222,-232.4 218.83,-233.85 215.59,-235.2 212.28,-236.46 208.91,-237.61 205.49,-238.65 202.03,-239.56 198.53,-240.35 195.01,-241.01 191.47,-241.53 187.92,-241.91 184.37,-242.14 180.83,-242.21 177.31,-242.13 173.81,-241.9 170.35,-241.5 166.93,-240.94 163.56,-240.22 160.26,-239.34 157.02,-238.3 153.86,-237.1 150.79,-235.74 147.81,-234.24 144.94,-232.58 142.18,-230.79 139.54,-228.86 137.02,-226.8 134.64,-224.62 132.4,-222.32 130.31,-219.93 128.38,-217.44 126.61,-214.86 125.01,-212.21 123.58,-209.5 122.32,-206.73 121.25,-203.93 120.37,-201.1 119.68,-198.25"/>
<text text-anchor="middle" x="189.77" y="-190.34" font-family="sans-serif" font-size="16.00">ventas</text>
</g>
<!-- login&#45;&gt;ventas -->
<g id="edge2" class="edge">
<title>login&#45;&gt;ventas</title>
<path fill="none" stroke="black" stroke-width="2" d="M86.17,-294.38C87.13,-282.66 89.82,-270.38 95.77,-260.18 104.57,-245.09 118.42,-232.69 132.82,-222.92"/>
<text text-anchor="middle" x="171.27" y="-263.58" font-family="sans-serif" font-size="12.00"> &#160;&#160;&#160;&#160;&#160;&#160;&#160;&#160;&#160;&#160;&#160;&#160;&#160;&#160;&#160;&#160;&#160;&#160;&#160;&#160;&#160;&#160;&#160;&#160;&#160;&#160;&#160;&#160;&#160;&#160;&#160;&#160;&#160;&#160;&#160;&#160;&#160;&#160;&#160;</text>
<polygon fill="white" stroke="transparent" points="125.82,-213.92 125.82,-230.92 139.82,-230.92 139.82,-213.92 125.82,-213.92"/>
<text text-anchor="start" x="127.82" y="-219.32" font-family="sans-serif" font-size="12.00">D</text>
<polygon fill="white" stroke="transparent" points="79.17,-285.38 79.17,-302.38 93.17,-302.38 93.17,-285.38 79.17,-285.38"/>
<text text-anchor="start" x="81.17" y="-290.78" font-family="sans-serif" font-size="12.00">U</text>
</g>
<!-- ventas&#45;&gt;atencionCliente -->
<g id="edge3" class="edge">
<title>ventas&#45;&gt;atencionCliente</title>
<path fill="none" stroke="black" stroke-width="2" d="M189.77,-150.06C189.77,-133.37 189.77,-114.21 189.77,-97.12"/>
<text text-anchor="middle" x="265.27" y="-118.51" font-family="sans-serif" font-size="12.00"> &#160;&#160;&#160;&#160;&#160;&#160;&#160;&#160;&#160;&#160;&#160;&#160;&#160;&#160;&#160;&#160;&#160;&#160;&#160;&#160;&#160;&#160;&#160;&#160;&#160;&#160;&#160;&#160;&#160;&#160;&#160;&#160;&#160;&#160;&#160;&#160;&#160;&#160;&#160;</text>
<polygon fill="white" stroke="transparent" points="166.77,-87.12 166.77,-106.12 182.77,-106.12 182.77,-87.12 166.77,-87.12"/>
<polyline fill="none" stroke="black" points="182.77,-87.12 182.77,-106.12 "/>
<text text-anchor="start" x="169.77" y="-93.52" font-family="sans-serif" font-size="12.00">D</text>
<polygon fill="white" stroke="transparent" points="182.77,-87.12 182.77,-106.12 212.77,-106.12 212.77,-87.12 182.77,-87.12"/>
<polygon fill="none" stroke="black" points="182.77,-87.12 182.77,-106.12 212.77,-106.12 212.77,-87.12 182.77,-87.12"/>
<text text-anchor="start" x="185.77" y="-93.52" font-family="sans-serif" font-size="12.00">ACL</text>
<polygon fill="white" stroke="transparent" points="182.77,-141.06 182.77,-158.06 196.77,-158.06 196.77,-141.06 182.77,-141.06"/>
<text text-anchor="start" x="184.77" y="-146.46" font-family="sans-serif" font-size="12.00">U</text>
</g>
<!-- devoluciones -->
<g id="node5" class="node">
<title>devoluciones</title>
<polygon fill="none" stroke="black" stroke-width="2" points="382.65,-343.98 381.82,-346.83 380.71,-349.64 379.31,-352.41 377.64,-355.12 375.68,-357.77 373.46,-360.34 370.98,-362.82 368.24,-365.2 365.26,-367.47 362.03,-369.64 358.57,-371.68 354.89,-373.59 351.01,-375.36 346.92,-377 342.64,-378.49 338.18,-379.83 333.56,-381.03 328.79,-382.06 323.87,-382.95 318.84,-383.68 313.68,-384.25 308.43,-384.68 303.1,-384.95 297.69,-385.07 292.23,-385.04 286.72,-384.87 281.19,-384.57 275.65,-384.13 270.11,-383.56 264.59,-382.88 259.11,-382.07 253.67,-381.15 248.29,-380.13 242.99,-379.01 237.78,-377.81 232.67,-376.51 227.68,-375.14 222.83,-373.7 218.12,-372.19 213.57,-370.62 209.19,-369 204.99,-367.33 200.98,-365.61 197.18,-363.86 193.59,-362.08 190.23,-360.27 187.1,-358.44 184.22,-356.59 181.58,-354.72 179.21,-352.83 177.1,-350.94 175.26,-349.04 173.69,-347.13 172.41,-345.22 171.41,-343.3 170.7,-341.39 170.28,-339.48 170.15,-337.57 170.31,-335.66 170.76,-333.76 171.51,-331.86 172.54,-329.97 173.86,-328.09 175.47,-326.22 177.35,-324.36 179.51,-322.52 181.94,-320.69 184.63,-318.88 187.57,-317.09 190.77,-315.32 194.2,-313.58 197.86,-311.87 201.74,-310.2 205.83,-308.56 210.12,-306.97 214.59,-305.42 219.24,-303.93 224.04,-302.5 229,-301.13 234.09,-299.82 239.29,-298.6 244.61,-297.45 250.01,-296.4 255.49,-295.43 261.02,-294.57 266.61,-293.81 272.22,-293.17 277.84,-292.64 283.46,-292.23 289.06,-291.95 294.63,-291.81 300.15,-291.8 305.6,-291.93 310.98,-292.2 316.25,-292.63 321.42,-293.2 326.46,-293.92 331.37,-294.79 336.12,-295.81 340.7,-296.99 345.11,-298.31 349.33,-299.78 353.34,-301.39 357.14,-303.14 360.72,-305.02 364.07,-307.03 367.17,-309.17 370.02,-311.41 372.61,-313.77 374.94,-316.23 377,-318.77 378.78,-321.4 380.27,-324.09 381.48,-326.84 382.41,-329.65 383.04,-332.49 383.38,-335.35 383.43,-338.23 383.18,-341.11 382.65,-343.98"/>
<text text-anchor="middle" x="276.77" y="-334.34" font-family="sans-serif" font-size="16.00">devoluciones</text>
</g>
<!-- devoluciones&#45;&gt;ventas -->
<g id="edge4" class="edge">
<title>devoluciones&#45;&gt;ventas</title>
<path fill="none" stroke="black" stroke-width="2" d="M265.71,-293.76C261.86,-282.4 256.93,-270.46 250.77,-260.18 244.4,-249.55 236.06,-239.22 227.6,-230.03"/>
<text text-anchor="middle" x="332.27" y="-263.58" font-family="sans-serif" font-size="12.00"> &#160;&#160;&#160;&#160;&#160;&#160;&#160;&#160;&#160;&#160;&#160;&#160;&#160;&#160;&#160;&#160;&#160;&#160;&#160;&#160;&#160;&#160;&#160;&#160;&#160;&#160;&#160;&#160;&#160;&#160;&#160;&#160;&#160;&#160;&#160;&#160;&#160;&#160;&#160;</text>
<polygon fill="white" stroke="transparent" points="204.6,-220.03 204.6,-239.03 220.6,-239.03 220.6,-220.03 204.6,-220.03"/>
<polyline fill="none" stroke="black" points="220.6,-220.03 220.6,-239.03 "/>
<text text-anchor="start" x="207.6" y="-226.43" font-family="sans-serif" font-size="12.00">D</text>
<polygon fill="white" stroke="transparent" points="220.6,-220.03 220.6,-239.03 250.6,-239.03 250.6,-220.03 220.6,-220.03"/>
<polygon fill="none" stroke="black" points="220.6,-220.03 220.6,-239.03 250.6,-239.03 250.6,-220.03 220.6,-220.03"/>
<text text-anchor="start" x="223.6" y="-226.43" font-family="sans-serif" font-size="12.00">ACL</text>
<polygon fill="white" stroke="transparent" points="258.71,-284.76 258.71,-301.76 272.71,-301.76 272.71,-284.76 258.71,-284.76"/>
<text text-anchor="start" x="260.71" y="-290.16" font-family="sans-serif" font-size="12.00">U</text>
</g>
</g>
</svg>
