<svg width="2000px" height="544px"
 viewBox="0.00 0.00 3042.55 826.65" xmlns="http://www.w3.org/2000/svg" xmlns:xlink="http://www.w3.org/1999/xlink">
<g id="graph0" class="graph" transform="scale(1.0 1.0) rotate(0) translate(4 822.65)">
<title>ContextMapGraph</title>
<polygon fill="white" stroke="transparent" points="-4,4 -4,-822.65 3038.55,-822.65 3038.55,4 -4,4"/>
<!-- AnaliticasReportingContext -->
<g id="node1" class="node">
<title>AnaliticasReportingContext</title>
<polygon fill="none" stroke="black" stroke-width="2" points="29.42,-788.53 24.03,-785.96 19.14,-783.36 14.77,-780.73 10.94,-778.08 7.67,-775.43 4.97,-772.79 2.86,-770.16 1.36,-767.55 0.46,-764.98 0.18,-762.45 0.52,-759.97 1.49,-757.55 3.08,-755.19 5.28,-752.91 8.1,-750.71 11.53,-748.59 15.54,-746.56 20.14,-744.62 25.3,-742.78 31,-741.05 37.23,-739.42 43.95,-737.89 51.16,-736.47 58.81,-735.16 66.88,-733.96 75.34,-732.88 84.16,-731.9 93.31,-731.03 102.75,-730.26 112.45,-729.61 122.37,-729.05 132.47,-728.61 142.73,-728.26 153.1,-728.01 163.55,-727.86 174.04,-727.8 184.54,-727.84 195.01,-727.96 205.42,-728.17 215.74,-728.47 225.93,-728.85 235.96,-729.31 245.81,-729.85 255.44,-730.46 264.84,-731.15 273.97,-731.91 282.81,-732.75 291.34,-733.66 299.54,-734.63 307.39,-735.68 314.88,-736.79 321.99,-737.97 328.71,-739.22 335.03,-740.53 340.93,-741.91 346.41,-743.36 351.47,-744.86 356.09,-746.43 360.28,-748.07 364.02,-749.76 367.33,-751.51 370.19,-753.33 372.61,-755.2 374.59,-757.12 376.14,-759.1 377.25,-761.12 377.93,-763.19 378.18,-765.31 378.01,-767.47 377.42,-769.66 376.41,-771.88 375.01,-774.13 373.19,-776.4 370.99,-778.68 368.39,-780.97 365.41,-783.26 362.06,-785.55 358.33,-787.82 354.24,-790.08 349.79,-792.3 344.99,-794.49 339.85,-796.64 334.37,-798.73 328.57,-800.76 322.45,-802.72 316.01,-804.6 309.28,-806.39 302.26,-808.09 294.95,-809.69 287.38,-811.17 279.54,-812.54 271.47,-813.78 263.16,-814.88 254.64,-815.85 245.92,-816.68 237.01,-817.35 227.94,-817.88 218.72,-818.24 209.38,-818.45 199.93,-818.49 190.4,-818.37 180.81,-818.08 171.19,-817.63 161.55,-817.02 151.94,-816.24 142.36,-815.3 132.86,-814.21 123.46,-812.96 114.2,-811.57 105.09,-810.04 96.17,-808.36 87.47,-806.56 79.03,-804.64 70.86,-802.61 63.01,-800.47 55.5,-798.23 48.36,-795.91 41.61,-793.51 35.29,-791.05 29.42,-788.53"/>
<text text-anchor="middle" x="198.32" y="-765.97" font-family="sans-serif" font-size="16.00">AnaliticasReportingContext</text>
</g>
<!-- VentasContext -->
<g id="node2" class="node">
<title>VentasContext</title>
<polygon fill="none" stroke="black" stroke-width="2" points="808.68,-616.45 809.96,-613.63 811.53,-610.85 813.41,-608.12 815.57,-605.45 818.03,-602.86 820.76,-600.35 823.75,-597.93 827.01,-595.62 830.52,-593.41 834.28,-591.33 838.26,-589.37 842.46,-587.55 846.87,-585.86 851.47,-584.32 856.26,-582.92 861.22,-581.68 866.33,-580.59 871.59,-579.66 876.97,-578.89 882.47,-578.27 888.07,-577.8 893.75,-577.5 899.51,-577.34 905.31,-577.34 911.16,-577.48 917.04,-577.76 922.92,-578.19 928.8,-578.74 934.65,-579.43 940.47,-580.23 946.24,-581.15 951.94,-582.18 957.57,-583.31 963.09,-584.54 968.51,-585.86 973.8,-587.25 978.96,-588.73 983.96,-590.27 988.8,-591.88 993.46,-593.54 997.93,-595.25 1002.21,-597 1006.26,-598.79 1010.1,-600.62 1013.7,-602.47 1017.05,-604.34 1020.15,-606.24 1022.99,-608.14 1025.56,-610.06 1027.84,-611.99 1029.85,-613.92 1031.56,-615.86 1032.97,-617.79 1034.09,-619.72 1034.9,-621.65 1035.4,-623.57 1035.59,-625.49 1035.46,-627.4 1035.03,-629.29 1034.28,-631.18 1033.23,-633.05 1031.86,-634.91 1030.19,-636.76 1028.21,-638.59 1025.94,-640.4 1023.38,-642.19 1020.52,-643.96 1017.4,-645.7 1014,-647.42 1010.33,-649.11 1006.42,-650.77 1002.26,-652.4 997.88,-653.98 993.27,-655.52 988.46,-657.02 983.46,-658.46 978.28,-659.85 972.93,-661.18 967.44,-662.44 961.81,-663.62 956.06,-664.73 950.21,-665.76 944.28,-666.7 938.28,-667.54 932.23,-668.28 926.15,-668.92 920.05,-669.44 913.95,-669.85 907.87,-670.13 901.83,-670.29 895.85,-670.31 889.93,-670.2 884.11,-669.96 878.39,-669.57 872.8,-669.03 867.34,-668.35 862.03,-667.52 856.9,-666.55 851.95,-665.43 847.2,-664.16 842.66,-662.75 838.34,-661.2 834.26,-659.51 830.42,-657.68 826.85,-655.73 823.54,-653.66 820.51,-651.46 817.76,-649.16 815.3,-646.76 813.15,-644.26 811.29,-641.68 809.74,-639.03 808.51,-636.31 807.59,-633.54 806.98,-630.73 806.69,-627.89 806.72,-625.03 807.06,-622.16 807.72,-619.29 808.68,-616.45"/>
<text text-anchor="middle" x="921.32" y="-620.74" font-family="sans-serif" font-size="16.00">VentasContext</text>
</g>
<!-- AnaliticasReportingContext&#45;&gt;VentasContext -->
<g id="edge1" class="edge">
<title>AnaliticasReportingContext&#45;&gt;VentasContext</title>
<path fill="none" stroke="black" stroke-width="2" d="M325.11,-738.5C351.57,-732.44 379.32,-726.29 405.32,-720.88 545.57,-691.72 708.21,-662.41 812.82,-644.13"/>
<text text-anchor="middle" x="595.82" y="-693.28" font-family="sans-serif" font-size="12.00">Partnership</text>
</g>
<!-- AutenticacionAutorizacionContext -->
<g id="node3" class="node">
<title>AutenticacionAutorizacionContext</title>
<polygon fill="none" stroke="black" stroke-width="2" points="2180.15,-729.99 2193.56,-731.2 2206.61,-732.51 2219.26,-733.92 2231.45,-735.42 2243.13,-737.01 2254.25,-738.68 2264.77,-740.42 2274.65,-742.24 2283.85,-744.12 2292.32,-746.06 2300.05,-748.05 2307.01,-750.09 2313.16,-752.17 2318.5,-754.28 2323.01,-756.43 2326.67,-758.59 2329.49,-760.78 2331.45,-762.98 2332.57,-765.18 2332.85,-767.39 2332.3,-769.59 2330.93,-771.78 2328.76,-773.96 2325.82,-776.12 2322.12,-778.26 2317.71,-780.37 2312.6,-782.45 2306.83,-784.49 2300.43,-786.49 2293.45,-788.44 2285.91,-790.35 2277.87,-792.2 2269.36,-793.99 2260.41,-795.73 2251.08,-797.4 2241.41,-799 2231.43,-800.54 2221.18,-801.99 2210.71,-803.38 2200.05,-804.68 2189.24,-805.89 2178.31,-807.02 2167.31,-808.07 2156.26,-809.02 2145.19,-809.87 2134.13,-810.63 2123.1,-811.29 2112.14,-811.85 2101.26,-812.3 2090.48,-812.65 2079.82,-812.89 2069.31,-813.02 2058.94,-813.04 2048.74,-812.96 2038.71,-812.75 2028.87,-812.44 2019.23,-812.01 2009.78,-811.47 2000.55,-810.81 1991.53,-810.04 1982.72,-809.16 1974.15,-808.17 1965.8,-807.06 1957.69,-805.85 1949.82,-804.54 1942.2,-803.11 1934.83,-801.59 1927.72,-799.97 1920.88,-798.26 1914.32,-796.46 1908.05,-794.57 1902.07,-792.6 1896.41,-790.56 1891.07,-788.44 1886.07,-786.26 1881.43,-784.03 1877.16,-781.74 1873.27,-779.41 1869.8,-777.03 1866.76,-774.63 1864.16,-772.2 1862.03,-769.76 1860.38,-767.31 1859.24,-764.86 1858.64,-762.42 1858.57,-759.99 1859.08,-757.59 1860.16,-755.21 1861.85,-752.88 1864.15,-750.59 1867.08,-748.36 1870.64,-746.19 1874.85,-744.09 1879.71,-742.06 1885.23,-740.12 1891.41,-738.27 1898.24,-736.51 1905.72,-734.86 1913.83,-733.31 1922.58,-731.87 1931.93,-730.55 1941.88,-729.35 1952.39,-728.27 1963.44,-727.32 1975,-726.5 1987.04,-725.81 1999.52,-725.26 2012.4,-724.84 2025.64,-724.55 2039.18,-724.4 2052.99,-724.38 2067.01,-724.5 2081.19,-724.75 2095.47,-725.13 2109.8,-725.63 2124.12,-726.27 2138.37,-727.02 2152.5,-727.9 2166.44,-728.89 2180.15,-729.99"/>
<text text-anchor="middle" x="2082.32" y="-765.97" font-family="sans-serif" font-size="16.00">AutenticacionAutorizacionContext</text>
</g>
<!-- CarritoComprasContext -->
<g id="node4" class="node">
<title>CarritoComprasContext</title>
<polygon fill="none" stroke="black" stroke-width="2" points="2134.48,-666.4 2124.26,-667.35 2113.96,-668.18 2103.62,-668.88 2093.28,-669.45 2082.98,-669.89 2072.77,-670.2 2062.67,-670.37 2052.73,-670.4 2042.98,-670.3 2033.45,-670.05 2024.19,-669.67 2015.2,-669.14 2006.54,-668.48 1998.21,-667.69 1990.24,-666.75 1982.66,-665.69 1975.48,-664.5 1968.71,-663.19 1962.37,-661.76 1956.47,-660.21 1951.02,-658.55 1946.02,-656.78 1941.47,-654.92 1937.39,-652.97 1933.76,-650.93 1930.59,-648.82 1927.86,-646.63 1925.58,-644.38 1923.74,-642.07 1922.32,-639.72 1921.33,-637.33 1920.74,-634.91 1920.54,-632.46 1920.73,-630 1921.29,-627.54 1922.21,-625.07 1923.47,-622.62 1925.07,-620.18 1926.99,-617.77 1929.21,-615.39 1931.74,-613.05 1934.54,-610.75 1937.63,-608.51 1940.98,-606.33 1944.58,-604.22 1948.43,-602.17 1952.53,-600.2 1956.85,-598.31 1961.4,-596.51 1966.17,-594.8 1971.16,-593.18 1976.36,-591.66 1981.77,-590.24 1987.38,-588.92 1993.19,-587.71 1999.2,-586.6 2005.4,-585.6 2011.8,-584.71 2018.37,-583.93 2025.14,-583.27 2032.07,-582.71 2039.18,-582.26 2046.46,-581.92 2053.89,-581.69 2061.48,-581.57 2069.2,-581.56 2077.05,-581.66 2085.02,-581.86 2093.09,-582.16 2101.26,-582.57 2109.49,-583.08 2117.77,-583.68 2126.09,-584.38 2134.41,-585.18 2142.73,-586.07 2151.01,-587.05 2159.23,-588.12 2167.37,-589.27 2175.38,-590.5 2183.25,-591.82 2190.95,-593.21 2198.44,-594.68 2205.7,-596.22 2212.69,-597.83 2219.39,-599.5 2225.75,-601.24 2231.76,-603.04 2237.37,-604.89 2242.57,-606.8 2247.33,-608.75 2251.61,-610.76 2255.39,-612.8 2258.65,-614.88 2261.36,-617 2263.52,-619.14 2265.09,-621.31 2266.07,-623.5 2266.45,-625.7 2266.21,-627.92 2265.35,-630.14 2263.86,-632.35 2261.75,-634.56 2259.02,-636.76 2255.67,-638.95 2251.71,-641.1 2247.16,-643.23 2242.04,-645.32 2236.35,-647.37 2230.12,-649.37 2223.37,-651.32 2216.14,-653.2 2208.45,-655.02 2200.32,-656.76 2191.81,-658.42 2182.93,-660 2173.73,-661.48 2164.25,-662.87 2154.52,-664.16 2144.58,-665.34 2134.48,-666.4"/>
<text text-anchor="middle" x="2082.32" y="-620.74" font-family="sans-serif" font-size="16.00">CarritoComprasContext</text>
</g>
<!-- AutenticacionAutorizacionContext&#45;&gt;CarritoComprasContext -->
<g id="edge2" class="edge">
<title>AutenticacionAutorizacionContext&#45;&gt;CarritoComprasContext</title>
<path fill="none" stroke="black" stroke-width="2" d="M2082.32,-724.62C2082.32,-707.36 2082.32,-687.59 2082.32,-670.27"/>
<text text-anchor="middle" x="2138.32" y="-693.28" font-family="sans-serif" font-size="12.00">Customer/Supplier</text>
<polygon fill="white" stroke="transparent" points="2075.32,-661.27 2075.32,-678.27 2089.32,-678.27 2089.32,-661.27 2075.32,-661.27"/>
<text text-anchor="start" x="2077.32" y="-666.67" font-family="sans-serif" font-size="12.00">D</text>
<polygon fill="white" stroke="transparent" points="2075.32,-715.62 2075.32,-732.62 2089.32,-732.62 2089.32,-715.62 2075.32,-715.62"/>
<text text-anchor="start" x="2077.32" y="-721.02" font-family="sans-serif" font-size="12.00">U</text>
</g>
<!-- GestionClientesContext -->
<g id="node5" class="node">
<title>GestionClientesContext</title>
<polygon fill="none" stroke="black" stroke-width="2" points="1930.67,-521.72 1920.87,-522.94 1910.94,-524.04 1900.93,-525.02 1890.87,-525.88 1880.79,-526.6 1870.75,-527.18 1860.77,-527.63 1850.89,-527.94 1841.15,-528.11 1831.57,-528.13 1822.2,-528 1813.06,-527.73 1804.17,-527.32 1795.57,-526.76 1787.28,-526.06 1779.32,-525.22 1771.7,-524.24 1764.45,-523.13 1757.58,-521.89 1751.1,-520.52 1745.03,-519.03 1739.36,-517.42 1734.11,-515.71 1729.28,-513.89 1724.87,-511.97 1720.88,-509.97 1717.31,-507.88 1714.16,-505.72 1711.42,-503.49 1709.08,-501.2 1707.15,-498.86 1705.61,-496.48 1704.46,-494.07 1703.68,-491.63 1703.27,-489.18 1703.21,-486.71 1703.51,-484.25 1704.14,-481.79 1705.1,-479.35 1706.38,-476.94 1707.97,-474.55 1709.87,-472.2 1712.05,-469.9 1714.53,-467.65 1717.29,-465.46 1720.32,-463.33 1723.61,-461.27 1727.18,-459.28 1731,-457.37 1735.07,-455.55 1739.4,-453.81 1743.98,-452.16 1748.8,-450.61 1753.87,-449.15 1759.17,-447.79 1764.72,-446.52 1770.49,-445.36 1776.51,-444.31 1782.75,-443.35 1789.21,-442.5 1795.9,-441.76 1802.79,-441.12 1809.9,-440.58 1817.21,-440.15 1824.71,-439.82 1832.39,-439.6 1840.24,-439.47 1848.25,-439.45 1856.4,-439.53 1864.68,-439.71 1873.07,-439.98 1881.55,-440.35 1890.1,-440.82 1898.7,-441.37 1907.32,-442.02 1915.95,-442.76 1924.55,-443.59 1933.09,-444.5 1941.55,-445.5 1949.9,-446.59 1958.11,-447.75 1966.14,-449 1973.97,-450.32 1981.56,-451.72 1988.87,-453.19 1995.89,-454.73 2002.57,-456.34 2008.89,-458.02 2014.81,-459.76 2020.31,-461.57 2025.35,-463.43 2029.92,-465.35 2033.98,-467.32 2037.51,-469.33 2040.5,-471.39 2042.92,-473.5 2044.75,-475.64 2045.99,-477.8 2046.62,-480 2046.64,-482.22 2046.03,-484.46 2044.8,-486.7 2042.94,-488.95 2040.47,-491.2 2037.38,-493.45 2033.69,-495.68 2029.41,-497.89 2024.55,-500.07 2019.14,-502.22 2013.19,-504.33 2006.73,-506.4 1999.79,-508.41 1992.39,-510.36 1984.57,-512.24 1976.36,-514.04 1967.79,-515.77 1958.9,-517.4 1949.72,-518.95 1940.3,-520.39 1930.67,-521.72"/>
<text text-anchor="middle" x="1862.32" y="-477.95" font-family="sans-serif" font-size="16.00">GestionClientesContext</text>
</g>
<!-- CarritoComprasContext&#45;&gt;GestionClientesContext -->
<g id="edge3" class="edge">
<title>CarritoComprasContext&#45;&gt;GestionClientesContext</title>
<path fill="none" stroke="black" stroke-width="2" d="M1943.13,-604.96C1889.64,-594.72 1837.47,-579.81 1821.32,-559.19 1813.89,-549.7 1815.11,-538.68 1820.29,-528.01"/>
<text text-anchor="middle" x="1877.32" y="-549.59" font-family="sans-serif" font-size="12.00">Customer/Supplier</text>
<polygon fill="white" stroke="transparent" points="1813.29,-519.01 1813.29,-536.01 1827.29,-536.01 1827.29,-519.01 1813.29,-519.01"/>
<text text-anchor="start" x="1815.29" y="-524.41" font-family="sans-serif" font-size="12.00">D</text>
<polygon fill="white" stroke="transparent" points="1936.13,-595.96 1936.13,-612.96 1950.13,-612.96 1950.13,-595.96 1936.13,-595.96"/>
<text text-anchor="start" x="1938.13" y="-601.36" font-family="sans-serif" font-size="12.00">U</text>
</g>
<!-- GestionProductosContext -->
<g id="node6" class="node">
<title>GestionProductosContext</title>
<polygon fill="none" stroke="black" stroke-width="2" points="2256.42,-331.65 2258.26,-334.47 2259.6,-337.3 2260.45,-340.11 2260.8,-342.89 2260.63,-345.65 2259.95,-348.36 2258.76,-351.01 2257.05,-353.61 2254.84,-356.12 2252.12,-358.56 2248.9,-360.9 2245.19,-363.15 2240.99,-365.29 2236.33,-367.32 2231.2,-369.23 2225.63,-371.02 2219.63,-372.68 2213.22,-374.22 2206.42,-375.62 2199.24,-376.89 2191.72,-378.02 2183.87,-379.02 2175.72,-379.88 2167.29,-380.6 2158.62,-381.2 2149.72,-381.66 2140.63,-381.99 2131.37,-382.2 2121.97,-382.28 2112.47,-382.24 2102.89,-382.09 2093.27,-381.83 2083.62,-381.45 2073.99,-380.98 2064.41,-380.41 2054.89,-379.75 2045.48,-379 2036.2,-378.16 2027.07,-377.25 2018.13,-376.26 2009.4,-375.2 2000.91,-374.07 1992.67,-372.88 1984.72,-371.64 1977.07,-370.34 1969.75,-368.98 1962.77,-367.58 1956.16,-366.13 1949.92,-364.63 1944.08,-363.1 1938.64,-361.52 1933.63,-359.91 1929.04,-358.26 1924.9,-356.57 1921.2,-354.85 1917.96,-353.1 1915.18,-351.31 1912.86,-349.5 1911.01,-347.65 1909.63,-345.78 1908.71,-343.87 1908.26,-341.95 1908.28,-340 1908.75,-338.02 1909.68,-336.03 1911.06,-334.02 1912.88,-331.99 1915.14,-329.96 1917.83,-327.91 1920.93,-325.86 1924.44,-323.8 1928.35,-321.75 1932.65,-319.71 1937.31,-317.68 1942.34,-315.67 1947.72,-313.69 1953.42,-311.73 1959.45,-309.82 1965.78,-307.94 1972.4,-306.12 1979.29,-304.36 1986.44,-302.66 1993.83,-301.04 2001.44,-299.5 2009.25,-298.05 2017.25,-296.69 2025.42,-295.44 2033.74,-294.3 2042.19,-293.27 2050.75,-292.37 2059.41,-291.61 2068.14,-290.97 2076.92,-290.48 2085.73,-290.14 2094.55,-289.95 2103.36,-289.91 2112.15,-290.04 2120.87,-290.32 2129.53,-290.76 2138.08,-291.37 2146.52,-292.14 2154.82,-293.07 2162.96,-294.16 2170.91,-295.4 2178.65,-296.8 2186.17,-298.35 2193.44,-300.05 2200.44,-301.88 2207.15,-303.84 2213.55,-305.93 2219.62,-308.14 2225.33,-310.45 2230.68,-312.87 2235.64,-315.37 2240.2,-317.95 2244.34,-320.6 2248.05,-323.3 2251.3,-326.06 2254.1,-328.84 2256.42,-331.65"/>
<text text-anchor="middle" x="2082.32" y="-334.21" font-family="sans-serif" font-size="16.00">GestionProductosContext</text>
</g>
<!-- CarritoComprasContext&#45;&gt;GestionProductosContext -->
<g id="edge4" class="edge">
<title>CarritoComprasContext&#45;&gt;GestionProductosContext</title>
<path fill="none" stroke="black" stroke-width="2" d="M2082.32,-581.55C2082.32,-527.91 2082.32,-435.58 2082.32,-381.63"/>
<text text-anchor="middle" x="2138.32" y="-478.65" font-family="sans-serif" font-size="12.00">Customer/Supplier</text>
<polygon fill="white" stroke="transparent" points="2075.32,-372.63 2075.32,-389.63 2089.32,-389.63 2089.32,-372.63 2075.32,-372.63"/>
<text text-anchor="start" x="2077.32" y="-378.03" font-family="sans-serif" font-size="12.00">D</text>
<polygon fill="white" stroke="transparent" points="2075.32,-572.55 2075.32,-589.55 2089.32,-589.55 2089.32,-572.55 2075.32,-572.55"/>
<text text-anchor="start" x="2077.32" y="-577.95" font-family="sans-serif" font-size="12.00">U</text>
</g>
<!-- GestionClientesContext&#45;&gt;CarritoComprasContext -->
<g id="edge6" class="edge">
<title>GestionClientesContext&#45;&gt;CarritoComprasContext</title>
<path fill="none" stroke="black" stroke-width="2" d="M1909.62,-524.45C1924.13,-536.34 1940.46,-548.85 1956.32,-559.19 1970.83,-568.64 1986.9,-577.77 2002.58,-586.03"/>
<text text-anchor="middle" x="2012.32" y="-549.59" font-family="sans-serif" font-size="12.00">Customer/Supplier</text>
<polygon fill="white" stroke="transparent" points="1995.58,-577.03 1995.58,-594.03 2009.58,-594.03 2009.58,-577.03 1995.58,-577.03"/>
<text text-anchor="start" x="1997.58" y="-582.43" font-family="sans-serif" font-size="12.00">D</text>
<polygon fill="white" stroke="transparent" points="1902.62,-515.45 1902.62,-532.45 1916.62,-532.45 1916.62,-515.45 1902.62,-515.45"/>
<text text-anchor="start" x="1904.62" y="-520.85" font-family="sans-serif" font-size="12.00">U</text>
</g>
<!-- GestionClientesContext&#45;&gt;GestionProductosContext -->
<g id="edge5" class="edge">
<title>GestionClientesContext&#45;&gt;GestionProductosContext</title>
<path fill="none" stroke="black" stroke-width="2" d="M1860.7,-439.55C1862.19,-427 1865.99,-413.98 1874.32,-404.31 1891.12,-384.81 1913.67,-371.06 1937.73,-361.39"/>
<text text-anchor="middle" x="1916.32" y="-407.71" font-family="sans-serif" font-size="12.00">Shared Kernel</text>
</g>
<!-- GestionProductosContext&#45;&gt;CarritoComprasContext -->
<g id="edge7" class="edge">
<title>GestionProductosContext&#45;&gt;CarritoComprasContext</title>
<path fill="none" stroke="black" stroke-width="2" d="M2153.37,-381.56C2171.38,-396.16 2188.42,-414.22 2198.32,-435.31 2215.86,-472.67 2215.95,-490.86 2198.32,-528.19 2187.24,-551.64 2167.25,-571.27 2146.94,-586.5"/>
<text text-anchor="middle" x="2267.32" y="-478.65" font-family="sans-serif" font-size="12.00">Customer/Supplier</text>
<polygon fill="white" stroke="transparent" points="2139.94,-577.5 2139.94,-594.5 2153.94,-594.5 2153.94,-577.5 2139.94,-577.5"/>
<text text-anchor="start" x="2141.94" y="-582.9" font-family="sans-serif" font-size="12.00">D</text>
<polygon fill="white" stroke="transparent" points="2146.37,-372.56 2146.37,-389.56 2160.37,-389.56 2160.37,-372.56 2146.37,-372.56"/>
<text text-anchor="start" x="2148.37" y="-377.96" font-family="sans-serif" font-size="12.00">U</text>
</g>
<!-- GestionProductosContext&#45;&gt;GestionClientesContext -->
<g id="edge8" class="edge">
<title>GestionProductosContext&#45;&gt;GestionClientesContext</title>
<path fill="none" stroke="black" stroke-width="2" d="M2023.28,-377.04C1991.49,-397.53 1952.39,-422.72 1920.7,-443.14"/>
<text text-anchor="middle" x="2021.32" y="-407.71" font-family="sans-serif" font-size="12.00">Shared Kernel</text>
</g>
<!-- GestionDevolucionesContext -->
<g id="node7" class="node">
<title>GestionDevolucionesContext</title>
<polygon fill="none" stroke="black" stroke-width="2" points="2003.2,-154.92 2013.94,-153.35 2024.9,-151.89 2036.04,-150.55 2047.32,-149.34 2058.69,-148.25 2070.12,-147.3 2081.55,-146.49 2092.95,-145.82 2104.28,-145.3 2115.51,-144.92 2126.58,-144.7 2137.48,-144.63 2148.16,-144.71 2158.6,-144.95 2168.77,-145.34 2178.64,-145.88 2188.19,-146.56 2197.39,-147.4 2206.23,-148.37 2214.68,-149.49 2222.74,-150.74 2230.39,-152.12 2237.63,-153.63 2244.43,-155.25 2250.8,-156.98 2256.73,-158.82 2262.22,-160.76 2267.27,-162.78 2271.87,-164.89 2276.03,-167.06 2279.76,-169.31 2283.05,-171.61 2285.9,-173.95 2288.34,-176.34 2290.35,-178.75 2291.95,-181.19 2293.14,-183.64 2293.93,-186.09 2294.32,-188.54 2294.32,-190.98 2293.94,-193.4 2293.18,-195.79 2292.05,-198.15 2290.54,-200.47 2288.68,-202.74 2286.45,-204.96 2283.86,-207.12 2280.92,-209.22 2277.62,-211.25 2273.97,-213.21 2269.98,-215.09 2265.63,-216.89 2260.94,-218.6 2255.91,-220.24 2250.53,-221.78 2244.81,-223.23 2238.75,-224.59 2232.35,-225.86 2225.62,-227.03 2218.56,-228.11 2211.18,-229.1 2203.49,-229.99 2195.48,-230.78 2187.17,-231.47 2178.58,-232.07 2169.7,-232.58 2160.57,-232.99 2151.18,-233.31 2141.56,-233.53 2131.74,-233.66 2121.72,-233.7 2111.54,-233.64 2101.21,-233.5 2090.77,-233.26 2080.25,-232.94 2069.66,-232.52 2059.06,-232.02 2048.46,-231.43 2037.91,-230.75 2027.43,-229.99 2017.08,-229.14 2006.87,-228.2 1996.87,-227.18 1987.09,-226.08 1977.59,-224.89 1968.39,-223.62 1959.54,-222.27 1951.08,-220.85 1943.05,-219.34 1935.47,-217.76 1928.39,-216.1 1921.84,-214.37 1915.85,-212.57 1910.44,-210.7 1905.65,-208.77 1901.5,-206.78 1898.02,-204.73 1895.21,-202.63 1893.1,-200.48 1891.71,-198.28 1891.03,-196.05 1891.07,-193.78 1891.85,-191.48 1893.35,-189.16 1895.58,-186.83 1898.52,-184.49 1902.17,-182.14 1906.51,-179.8 1911.52,-177.47 1917.18,-175.16 1923.47,-172.88 1930.37,-170.64 1937.84,-168.44 1945.84,-166.29 1954.36,-164.2 1963.34,-162.17 1972.76,-160.23 1982.57,-158.36 1992.73,-156.59 2003.2,-154.92"/>
<text text-anchor="middle" x="2108.32" y="-188.16" font-family="sans-serif" font-size="16.00">GestionDevolucionesContext</text>
</g>
<!-- GestionProductosContext&#45;&gt;GestionDevolucionesContext -->
<g id="edge9" class="edge">
<title>GestionProductosContext&#45;&gt;GestionDevolucionesContext</title>
<path fill="none" stroke="black" stroke-width="2" d="M2090.83,-289.84C2094.09,-271.79 2097.78,-251.37 2100.92,-233.94"/>
<text text-anchor="middle" x="2171.82" y="-262.11" font-family="sans-serif" font-size="12.00"> &#160;&#160;&#160;&#160;&#160;&#160;&#160;&#160;&#160;&#160;&#160;&#160;&#160;&#160;&#160;&#160;&#160;&#160;&#160;&#160;&#160;&#160;&#160;&#160;&#160;&#160;&#160;&#160;&#160;&#160;&#160;&#160;&#160;&#160;&#160;&#160;&#160;&#160;&#160;</text>
<polygon fill="white" stroke="transparent" points="2081.92,-223.94 2081.92,-242.94 2097.92,-242.94 2097.92,-223.94 2081.92,-223.94"/>
<polyline fill="none" stroke="black" points="2097.92,-223.94 2097.92,-242.94 "/>
<text text-anchor="start" x="2084.92" y="-230.34" font-family="sans-serif" font-size="12.00">D</text>
<polygon fill="white" stroke="transparent" points="2097.92,-223.94 2097.92,-242.94 2119.92,-242.94 2119.92,-223.94 2097.92,-223.94"/>
<polygon fill="none" stroke="black" points="2097.92,-223.94 2097.92,-242.94 2119.92,-242.94 2119.92,-223.94 2097.92,-223.94"/>
<text text-anchor="start" x="2100.92" y="-230.34" font-family="sans-serif" font-size="12.00">CF</text>
<polygon fill="white" stroke="transparent" points="2055.83,-279.84 2055.83,-298.84 2071.83,-298.84 2071.83,-279.84 2055.83,-279.84"/>
<polyline fill="none" stroke="black" points="2071.83,-279.84 2071.83,-298.84 "/>
<text text-anchor="start" x="2058.83" y="-286.24" font-family="sans-serif" font-size="12.00">U</text>
<polygon fill="white" stroke="transparent" points="2071.83,-279.84 2071.83,-298.84 2126.83,-298.84 2126.83,-279.84 2071.83,-279.84"/>
<polygon fill="none" stroke="black" points="2071.83,-279.84 2071.83,-298.84 2126.83,-298.84 2126.83,-279.84 2071.83,-279.84"/>
<text text-anchor="start" x="2074.83" y="-286.24" font-family="sans-serif" font-size="12.00">OHS, PL</text>
</g>
<!-- GestionPedidosContext -->
<g id="node8" class="node">
<title>GestionPedidosContext</title>
<polygon fill="none" stroke="black" stroke-width="2" points="2142.79,-45.08 2143.13,-42.2 2143.91,-39.35 2145.14,-36.53 2146.82,-33.76 2148.94,-31.05 2151.49,-28.4 2154.48,-25.83 2157.88,-23.35 2161.7,-20.97 2165.93,-18.7 2170.54,-16.53 2175.53,-14.49 2180.89,-12.58 2186.6,-10.8 2192.65,-9.15 2199.02,-7.65 2205.68,-6.29 2212.63,-5.08 2219.84,-4.02 2227.3,-3.11 2234.98,-2.35 2242.86,-1.74 2250.91,-1.28 2259.13,-0.97 2267.47,-0.8 2275.93,-0.77 2284.47,-0.87 2293.07,-1.11 2301.71,-1.48 2310.36,-1.97 2319,-2.58 2327.6,-3.3 2336.14,-4.12 2344.6,-5.05 2352.94,-6.07 2361.16,-7.18 2369.22,-8.37 2377.1,-9.64 2384.78,-10.98 2392.24,-12.38 2399.45,-13.85 2406.41,-15.36 2413.08,-16.93 2419.45,-18.54 2425.5,-20.19 2431.22,-21.88 2436.59,-23.6 2441.6,-25.35 2446.23,-27.12 2450.47,-28.92 2454.31,-30.74 2457.73,-32.57 2460.74,-34.42 2463.32,-36.29 2465.47,-38.16 2467.18,-40.05 2468.44,-41.95 2469.26,-43.85 2469.63,-45.76 2469.56,-47.68 2469.04,-49.6 2468.07,-51.53 2466.67,-53.45 2464.83,-55.38 2462.55,-57.3 2459.86,-59.22 2456.75,-61.14 2453.23,-63.05 2449.31,-64.94 2445.01,-66.82 2440.34,-68.68 2435.31,-70.52 2429.93,-72.33 2424.22,-74.11 2418.19,-75.86 2411.87,-77.56 2405.26,-79.22 2398.39,-80.83 2391.27,-82.38 2383.93,-83.86 2376.37,-85.27 2368.64,-86.61 2360.73,-87.86 2352.68,-89.02 2344.51,-90.08 2336.24,-91.04 2327.88,-91.88 2319.47,-92.61 2311.02,-93.22 2302.56,-93.7 2294.1,-94.05 2285.68,-94.25 2277.32,-94.32 2269.03,-94.24 2260.83,-94 2252.76,-93.62 2244.83,-93.08 2237.06,-92.38 2229.47,-91.53 2222.09,-90.52 2214.94,-89.36 2208.02,-88.05 2201.37,-86.58 2195,-84.97 2188.92,-83.22 2183.16,-81.33 2177.74,-79.31 2172.65,-77.16 2167.93,-74.9 2163.58,-72.53 2159.61,-70.06 2156.04,-67.5 2152.88,-64.86 2150.14,-62.16 2147.82,-59.39 2145.93,-56.57 2144.48,-53.72 2143.47,-50.85 2142.91,-47.96 2142.79,-45.08"/>
<text text-anchor="middle" x="2306.32" y="-43.31" font-family="sans-serif" font-size="16.00">GestionPedidosContext</text>
</g>
<!-- GestionDevolucionesContext&#45;&gt;GestionPedidosContext -->
<g id="edge10" class="edge">
<title>GestionDevolucionesContext&#45;&gt;GestionPedidosContext</title>
<path fill="none" stroke="black" stroke-width="2" d="M2099.83,-145.43C2099.95,-133.68 2102.35,-121.68 2109.32,-112.21 2122.64,-94.11 2141.2,-81.02 2161.65,-71.58"/>
<text text-anchor="middle" x="2165.32" y="-115.61" font-family="sans-serif" font-size="12.00">Customer/Supplier</text>
<polygon fill="white" stroke="transparent" points="2154.65,-62.58 2154.65,-79.58 2168.65,-79.58 2168.65,-62.58 2154.65,-62.58"/>
<text text-anchor="start" x="2156.65" y="-67.98" font-family="sans-serif" font-size="12.00">D</text>
<polygon fill="white" stroke="transparent" points="2092.83,-136.43 2092.83,-153.43 2106.83,-153.43 2106.83,-136.43 2092.83,-136.43"/>
<text text-anchor="start" x="2094.83" y="-141.83" font-family="sans-serif" font-size="12.00">U</text>
</g>
<!-- GestionPedidosContext&#45;&gt;CarritoComprasContext -->
<g id="edge11" class="edge">
<title>GestionPedidosContext&#45;&gt;CarritoComprasContext</title>
<path fill="none" stroke="black" stroke-width="2" d="M2339.61,-90.93C2343.98,-97.8 2348.07,-105.02 2351.32,-112.21 2366.14,-145.02 2370.32,-154.96 2370.32,-190.96 2370.32,-482.75 2370.32,-482.75 2370.32,-482.75 2370.32,-550.92 2304.37,-586.09 2235.59,-604.23"/>
<text text-anchor="middle" x="2426.32" y="-334.91" font-family="sans-serif" font-size="12.00">Customer/Supplier</text>
<polygon fill="white" stroke="transparent" points="2228.59,-595.23 2228.59,-612.23 2242.59,-612.23 2242.59,-595.23 2228.59,-595.23"/>
<text text-anchor="start" x="2230.59" y="-600.63" font-family="sans-serif" font-size="12.00">D</text>
<polygon fill="white" stroke="transparent" points="2332.61,-81.93 2332.61,-98.93 2346.61,-98.93 2346.61,-81.93 2332.61,-81.93"/>
<text text-anchor="start" x="2334.61" y="-87.33" font-family="sans-serif" font-size="12.00">U</text>
</g>
<!-- GestionPedidosContext&#45;&gt;GestionDevolucionesContext -->
<g id="edge12" class="edge">
<title>GestionPedidosContext&#45;&gt;GestionDevolucionesContext</title>
<path fill="none" stroke="black" stroke-width="2" d="M2259.27,-93.98C2247.3,-104.74 2234.18,-115.8 2221.32,-125.21 2211.24,-132.59 2200.28,-139.83 2189.28,-146.65"/>
<text text-anchor="middle" x="2291.32" y="-115.61" font-family="sans-serif" font-size="12.00">Customer/Supplier</text>
<polygon fill="white" stroke="transparent" points="2182.28,-137.65 2182.28,-154.65 2196.28,-154.65 2196.28,-137.65 2182.28,-137.65"/>
<text text-anchor="start" x="2184.28" y="-143.05" font-family="sans-serif" font-size="12.00">D</text>
<polygon fill="white" stroke="transparent" points="2252.27,-84.98 2252.27,-101.98 2266.27,-101.98 2266.27,-84.98 2252.27,-84.98"/>
<text text-anchor="start" x="2254.27" y="-90.38" font-family="sans-serif" font-size="12.00">U</text>
</g>
<!-- GestionSesionesContext -->
<g id="node9" class="node">
<title>GestionSesionesContext</title>
<polygon fill="none" stroke="black" stroke-width="2" points="2458.63,-731.15 2468.32,-729.75 2478.17,-728.47 2488.14,-727.3 2498.2,-726.27 2508.31,-725.36 2518.42,-724.59 2528.51,-723.96 2538.53,-723.47 2548.45,-723.12 2558.23,-722.93 2567.85,-722.88 2577.27,-722.98 2586.47,-723.23 2595.41,-723.62 2604.08,-724.17 2612.45,-724.86 2620.5,-725.7 2628.21,-726.67 2635.58,-727.78 2642.57,-729.03 2649.19,-730.4 2655.42,-731.9 2661.25,-733.52 2666.68,-735.24 2671.71,-737.07 2676.33,-739 2680.54,-741.02 2684.35,-743.12 2687.76,-745.29 2690.76,-747.53 2693.37,-749.82 2695.58,-752.17 2697.41,-754.56 2698.87,-756.98 2699.95,-759.42 2700.67,-761.87 2701.04,-764.34 2701.06,-766.8 2700.73,-769.25 2700.08,-771.69 2699.09,-774.1 2697.79,-776.47 2696.17,-778.81 2694.25,-781.1 2692.03,-783.34 2689.5,-785.52 2686.69,-787.64 2683.58,-789.68 2680.19,-791.66 2676.51,-793.55 2672.56,-795.37 2668.32,-797.1 2663.81,-798.74 2659.02,-800.29 2653.97,-801.74 2648.64,-803.11 2643.04,-804.37 2637.18,-805.54 2631.06,-806.6 2624.67,-807.57 2618.04,-808.44 2611.16,-809.2 2604.04,-809.87 2596.68,-810.43 2589.1,-810.9 2581.31,-811.27 2573.31,-811.53 2565.13,-811.7 2556.77,-811.78 2548.26,-811.75 2539.6,-811.63 2530.83,-811.42 2521.96,-811.12 2513.02,-810.72 2504.02,-810.23 2495,-809.65 2485.99,-808.98 2477,-808.23 2468.08,-807.39 2459.25,-806.46 2450.54,-805.45 2441.99,-804.36 2433.63,-803.19 2425.5,-801.93 2417.62,-800.6 2410.03,-799.19 2402.76,-797.7 2395.84,-796.15 2389.32,-794.52 2383.21,-792.82 2377.55,-791.05 2372.36,-789.22 2367.68,-787.34 2363.52,-785.39 2359.91,-783.39 2356.87,-781.33 2354.41,-779.23 2352.56,-777.09 2351.32,-774.91 2350.71,-772.7 2350.72,-770.46 2351.38,-768.19 2352.67,-765.91 2354.59,-763.62 2357.14,-761.33 2360.31,-759.03 2364.1,-756.75 2368.47,-754.48 2373.43,-752.23 2378.94,-750.02 2384.98,-747.84 2391.54,-745.71 2398.58,-743.63 2406.07,-741.6 2413.98,-739.65 2422.28,-737.77 2430.93,-735.98 2439.89,-734.27 2449.14,-732.66 2458.63,-731.15"/>
<text text-anchor="middle" x="2539.32" y="-765.97" font-family="sans-serif" font-size="16.00">GestionSesionesContext</text>
</g>
<!-- IntegracionRedesSocialesContext -->
<g id="node10" class="node">
<title>IntegracionRedesSocialesContext</title>
<polygon fill="none" stroke="black" stroke-width="2" points="837.6,-744.38 846.17,-746.69 854.2,-749.06 861.64,-751.48 868.45,-753.93 874.62,-756.41 880.11,-758.91 884.89,-761.41 888.95,-763.92 892.27,-766.42 894.82,-768.91 896.6,-771.37 897.61,-773.79 897.82,-776.18 897.25,-778.52 895.89,-780.81 893.75,-783.04 890.83,-785.2 887.15,-787.3 882.73,-789.32 877.58,-791.27 871.73,-793.13 865.19,-794.91 858.01,-796.6 850.2,-798.2 841.8,-799.72 832.85,-801.13 823.38,-802.46 813.43,-803.69 803.05,-804.83 792.27,-805.87 781.14,-806.82 769.7,-807.67 757.99,-808.43 746.06,-809.1 733.96,-809.68 721.72,-810.16 709.39,-810.55 697.02,-810.86 684.64,-811.07 672.3,-811.2 660.03,-811.24 647.87,-811.2 635.86,-811.07 624.04,-810.86 612.43,-810.56 601.06,-810.18 589.97,-809.71 579.18,-809.17 568.72,-808.54 558.6,-807.83 548.85,-807.04 539.48,-806.16 530.51,-805.2 521.96,-804.17 513.83,-803.05 506.13,-801.85 498.89,-800.57 492.09,-799.21 485.75,-797.77 479.87,-796.25 474.46,-794.65 469.51,-792.98 465.02,-791.24 461.01,-789.42 457.46,-787.54 454.37,-785.58 451.75,-783.57 449.59,-781.49 447.89,-779.36 446.65,-777.17 445.87,-774.94 445.54,-772.67 445.66,-770.36 446.23,-768.02 447.26,-765.65 448.73,-763.27 450.64,-760.88 453,-758.48 455.81,-756.09 459.06,-753.72 462.75,-751.36 466.88,-749.04 471.45,-746.75 476.46,-744.51 481.91,-742.33 487.78,-740.21 494.09,-738.17 500.82,-736.21 507.97,-734.34 515.53,-732.56 523.5,-730.9 531.87,-729.35 540.62,-727.91 549.75,-726.61 559.24,-725.44 569.07,-724.41 579.23,-723.53 589.71,-722.79 600.47,-722.21 611.5,-721.78 622.77,-721.51 634.25,-721.4 645.92,-721.46 657.75,-721.67 669.7,-722.05 681.73,-722.58 693.82,-723.27 705.93,-724.12 718.01,-725.11 730.03,-726.25 741.95,-727.54 753.72,-728.96 765.3,-730.51 776.66,-732.18 787.74,-733.97 798.51,-735.87 808.92,-737.87 818.93,-739.96 828.5,-742.13 837.6,-744.38"/>
<text text-anchor="middle" x="656.32" y="-765.97" font-family="sans-serif" font-size="16.00">IntegracionRedesSocialesContext</text>
</g>
<!-- IntegracionRedesSocialesContext&#45;&gt;VentasContext -->
<g id="edge13" class="edge">
<title>IntegracionRedesSocialesContext&#45;&gt;VentasContext</title>
<path fill="none" stroke="black" stroke-width="2" d="M734.39,-726.57C770.58,-707.01 813.31,-683.91 848.78,-664.74"/>
<text text-anchor="middle" x="831.82" y="-693.28" font-family="sans-serif" font-size="12.00">Partnership</text>
</g>
<!-- NotificacionesComunicacionesContext -->
<g id="node11" class="node">
<title>NotificacionesComunicacionesContext</title>
<polygon fill="none" stroke="black" stroke-width="2" points="1395.3,-745.58 1404.49,-747.96 1413.05,-750.39 1420.93,-752.86 1428.11,-755.36 1434.56,-757.89 1440.23,-760.43 1445.11,-762.98 1449.18,-765.52 1452.41,-768.05 1454.8,-770.55 1456.31,-773.03 1456.96,-775.47 1456.72,-777.86 1455.61,-780.2 1453.63,-782.49 1450.77,-784.7 1447.06,-786.85 1442.51,-788.93 1437.13,-790.92 1430.95,-792.84 1424,-794.66 1416.29,-796.4 1407.87,-798.05 1398.76,-799.6 1389.02,-801.05 1378.66,-802.41 1367.75,-803.68 1356.31,-804.84 1344.41,-805.91 1332.07,-806.88 1319.36,-807.75 1306.32,-808.53 1293,-809.21 1279.45,-809.8 1265.72,-810.29 1251.85,-810.69 1237.91,-811 1223.93,-811.22 1209.96,-811.35 1196.05,-811.39 1182.24,-811.35 1168.57,-811.22 1155.09,-811.01 1141.83,-810.71 1128.83,-810.34 1116.12,-809.87 1103.73,-809.33 1091.7,-808.71 1080.05,-808.01 1068.81,-807.23 1058,-806.36 1047.63,-805.42 1037.74,-804.4 1028.32,-803.3 1019.4,-802.13 1010.98,-800.87 1003.08,-799.54 995.71,-798.13 988.86,-796.64 982.55,-795.08 976.78,-793.45 971.54,-791.74 966.84,-789.96 962.69,-788.11 959.07,-786.2 955.99,-784.22 953.44,-782.18 951.43,-780.09 949.94,-777.94 948.98,-775.74 948.54,-773.5 948.62,-771.22 949.22,-768.9 950.33,-766.56 951.95,-764.2 954.08,-761.82 956.71,-759.44 959.84,-757.06 963.48,-754.68 967.6,-752.32 972.22,-749.99 977.33,-747.69 982.93,-745.43 989.01,-743.22 995.57,-741.07 1002.6,-738.99 1010.1,-736.99 1018.07,-735.07 1026.48,-733.24 1035.34,-731.52 1044.64,-729.91 1054.36,-728.41 1064.49,-727.03 1075.02,-725.79 1085.93,-724.69 1097.2,-723.72 1108.81,-722.91 1120.73,-722.24 1132.96,-721.73 1145.45,-721.38 1158.18,-721.19 1171.12,-721.16 1184.24,-721.29 1197.5,-721.59 1210.87,-722.05 1224.3,-722.66 1237.76,-723.44 1251.21,-724.37 1264.61,-725.45 1277.9,-726.68 1291.05,-728.05 1304.01,-729.55 1316.73,-731.19 1329.17,-732.94 1341.28,-734.81 1353.02,-736.79 1364.33,-738.86 1375.18,-741.02 1385.52,-743.27 1395.3,-745.58"/>
<text text-anchor="middle" x="1186.32" y="-765.97" font-family="sans-serif" font-size="16.00">NotificacionesComunicacionesContext</text>
</g>
<!-- NotificacionesComunicacionesContext&#45;&gt;VentasContext -->
<g id="edge14" class="edge">
<title>NotificacionesComunicacionesContext&#45;&gt;VentasContext</title>
<path fill="none" stroke="black" stroke-width="2" d="M1102.11,-723.25C1063.46,-702.36 1018.46,-678.04 983.03,-658.89"/>
<text text-anchor="middle" x="1096.82" y="-693.28" font-family="sans-serif" font-size="12.00">Partnership</text>
</g>
<!-- ProcesoPagosContext -->
<g id="node12" class="node">
<title>ProcesoPagosContext</title>
<polygon fill="none" stroke="black" stroke-width="2" points="2695.7,-170.53 2700.73,-173 2705.36,-175.51 2709.57,-178.06 2713.34,-180.63 2716.66,-183.21 2719.51,-185.8 2721.87,-188.39 2723.74,-190.95 2725.09,-193.5 2725.94,-196.01 2726.26,-198.49 2726.06,-200.91 2725.34,-203.28 2724.09,-205.59 2722.33,-207.83 2720.05,-209.99 2717.26,-212.08 2713.98,-214.08 2710.22,-215.99 2705.98,-217.82 2701.29,-219.54 2696.17,-221.17 2690.63,-222.7 2684.7,-224.13 2678.4,-225.45 2671.75,-226.67 2664.79,-227.79 2657.53,-228.81 2650,-229.72 2642.24,-230.53 2634.27,-231.24 2626.13,-231.85 2617.84,-232.37 2609.43,-232.78 2600.93,-233.1 2592.37,-233.33 2583.79,-233.47 2575.2,-233.52 2566.65,-233.48 2558.15,-233.35 2549.73,-233.14 2541.43,-232.85 2533.25,-232.47 2525.23,-232.02 2517.39,-231.48 2509.75,-230.87 2502.33,-230.18 2495.14,-229.42 2488.2,-228.58 2481.53,-227.67 2475.14,-226.68 2469.05,-225.62 2463.25,-224.49 2457.77,-223.29 2452.62,-222.01 2447.79,-220.66 2443.29,-219.25 2439.13,-217.76 2435.32,-216.2 2431.85,-214.58 2428.72,-212.89 2425.94,-211.13 2423.51,-209.31 2421.42,-207.43 2419.67,-205.48 2418.27,-203.49 2417.21,-201.43 2416.49,-199.33 2416.11,-197.18 2416.06,-194.99 2416.33,-192.76 2416.94,-190.5 2417.86,-188.22 2419.11,-185.91 2420.67,-183.59 2422.55,-181.26 2424.73,-178.93 2427.22,-176.6 2430.01,-174.29 2433.1,-172 2436.49,-169.75 2440.17,-167.53 2444.13,-165.36 2448.37,-163.24 2452.9,-161.19 2457.69,-159.21 2462.76,-157.32 2468.08,-155.51 2473.66,-153.81 2479.48,-152.21 2485.55,-150.72 2491.84,-149.35 2498.36,-148.11 2505.08,-147.01 2512.01,-146.05 2519.12,-145.23 2526.4,-144.56 2533.84,-144.05 2541.42,-143.69 2549.13,-143.49 2556.94,-143.46 2564.84,-143.59 2572.81,-143.88 2580.83,-144.34 2588.88,-144.95 2596.93,-145.73 2604.95,-146.66 2612.93,-147.75 2620.84,-148.98 2628.66,-150.36 2636.35,-151.88 2643.89,-153.53 2651.25,-155.3 2658.42,-157.19 2665.35,-159.2 2672.04,-161.3 2678.44,-163.49 2684.53,-165.77 2690.29,-168.12 2695.7,-170.53"/>
<text text-anchor="middle" x="2562.32" y="-188.16" font-family="sans-serif" font-size="16.00">ProcesoPagosContext</text>
</g>
<!-- ProcesoPagosContext&#45;&gt;GestionPedidosContext -->
<g id="edge15" class="edge">
<title>ProcesoPagosContext&#45;&gt;GestionPedidosContext</title>
<path fill="none" stroke="black" stroke-width="2" d="M2488.62,-149.83C2452.43,-129.64 2409.13,-105.48 2373.81,-85.77"/>
<text text-anchor="middle" x="2497.32" y="-115.61" font-family="sans-serif" font-size="12.00">Customer/Supplier</text>
<polygon fill="white" stroke="transparent" points="2366.81,-76.77 2366.81,-93.77 2380.81,-93.77 2380.81,-76.77 2366.81,-76.77"/>
<text text-anchor="start" x="2368.81" y="-82.17" font-family="sans-serif" font-size="12.00">D</text>
<polygon fill="white" stroke="transparent" points="2481.62,-140.83 2481.62,-157.83 2495.62,-157.83 2495.62,-140.83 2481.62,-140.83"/>
<text text-anchor="start" x="2483.62" y="-146.23" font-family="sans-serif" font-size="12.00">U</text>
</g>
<!-- SeguridadContext -->
<g id="node13" class="node">
<title>SeguridadContext</title>
<polygon fill="none" stroke="black" stroke-width="2" points="2906,-726.27 2914.81,-726.56 2923.53,-726.96 2932.11,-727.49 2940.52,-728.13 2948.73,-728.88 2956.71,-729.75 2964.42,-730.72 2971.84,-731.8 2978.93,-732.99 2985.68,-734.27 2992.05,-735.65 2998.03,-737.13 3003.6,-738.69 3008.75,-740.34 3013.45,-742.07 3017.69,-743.87 3021.47,-745.74 3024.79,-747.68 3027.63,-749.68 3029.99,-751.73 3031.88,-753.83 3033.3,-755.98 3034.25,-758.16 3034.74,-760.37 3034.79,-762.61 3034.39,-764.87 3033.57,-767.14 3032.34,-769.42 3030.72,-771.7 3028.71,-773.98 3026.35,-776.24 3023.64,-778.49 3020.61,-780.71 3017.27,-782.9 3013.65,-785.06 3009.77,-787.17 3005.64,-789.24 3001.29,-791.25 2996.74,-793.21 2991.99,-795.1 2987.08,-796.93 2982.02,-798.68 2976.82,-800.35 2971.51,-801.94 2966.08,-803.44 2960.57,-804.85 2954.98,-806.16 2949.32,-807.38 2943.61,-808.49 2937.84,-809.5 2932.04,-810.4 2926.21,-811.18 2920.35,-811.86 2914.48,-812.42 2908.59,-812.86 2902.7,-813.18 2896.8,-813.39 2890.9,-813.48 2885.01,-813.44 2879.13,-813.29 2873.25,-813.02 2867.4,-812.63 2861.56,-812.12 2855.75,-811.49 2849.97,-810.75 2844.23,-809.9 2838.53,-808.94 2832.88,-807.87 2827.29,-806.69 2821.76,-805.41 2816.32,-804.04 2810.96,-802.57 2805.7,-801 2800.56,-799.36 2795.55,-797.63 2790.68,-795.82 2785.97,-793.94 2781.43,-792 2777.09,-789.99 2772.96,-787.93 2769.06,-785.81 2765.4,-783.66 2762.02,-781.46 2758.93,-779.23 2756.14,-776.98 2753.67,-774.7 2751.55,-772.41 2749.79,-770.12 2748.41,-767.82 2747.43,-765.53 2746.86,-763.25 2746.71,-760.99 2746.99,-758.75 2747.73,-756.54 2748.91,-754.37 2750.56,-752.25 2752.68,-750.17 2755.26,-748.14 2758.31,-746.18 2761.84,-744.28 2765.82,-742.45 2770.26,-740.69 2775.14,-739.02 2780.46,-737.43 2786.19,-735.93 2792.33,-734.53 2798.85,-733.22 2805.73,-732.01 2812.95,-730.91 2820.48,-729.91 2828.29,-729.02 2836.36,-728.25 2844.64,-727.59 2853.12,-727.04 2861.75,-726.62 2870.51,-726.31 2879.34,-726.12 2888.23,-726.05 2897.13,-726.1 2906,-726.27"/>
<text text-anchor="middle" x="2890.32" y="-765.97" font-family="sans-serif" font-size="16.00">SeguridadContext</text>
</g>
<!-- ServicioClienteContext -->
<g id="node14" class="node">
<title>ServicioClienteContext</title>
<polygon fill="none" stroke="black" stroke-width="2" points="1493.95,-785.73 1489.97,-783.08 1486.42,-780.4 1483.33,-777.7 1480.71,-775 1478.57,-772.3 1476.93,-769.62 1475.79,-766.96 1475.16,-764.33 1475.05,-761.75 1475.46,-759.22 1476.39,-756.75 1477.84,-754.35 1479.82,-752.03 1482.31,-749.79 1485.3,-747.63 1488.8,-745.57 1492.78,-743.61 1497.24,-741.76 1502.15,-740.01 1507.51,-738.37 1513.3,-736.84 1519.49,-735.43 1526.06,-734.13 1532.99,-732.95 1540.26,-731.89 1547.83,-730.94 1555.68,-730.11 1563.79,-729.39 1572.12,-728.78 1580.64,-728.28 1589.33,-727.89 1598.16,-727.61 1607.09,-727.43 1616.09,-727.36 1625.13,-727.38 1634.19,-727.49 1643.22,-727.7 1652.22,-727.99 1661.13,-728.37 1669.95,-728.84 1678.63,-729.38 1687.16,-730.01 1695.51,-730.7 1703.65,-731.47 1711.57,-732.32 1719.24,-733.23 1726.64,-734.21 1733.76,-735.25 1740.58,-736.36 1747.08,-737.53 1753.24,-738.77 1759.07,-740.06 1764.54,-741.42 1769.64,-742.83 1774.37,-744.3 1778.73,-745.83 1782.7,-747.42 1786.27,-749.06 1789.46,-750.76 1792.25,-752.51 1794.65,-754.32 1796.65,-756.17 1798.26,-758.08 1799.47,-760.03 1800.29,-762.03 1800.73,-764.07 1800.78,-766.15 1800.45,-768.26 1799.75,-770.41 1798.68,-772.59 1797.25,-774.79 1795.45,-777.01 1793.31,-779.24 1790.82,-781.48 1788,-783.73 1784.84,-785.97 1781.36,-788.2 1777.56,-790.4 1773.46,-792.59 1769.05,-794.73 1764.36,-796.84 1759.37,-798.9 1754.12,-800.89 1748.59,-802.83 1742.81,-804.68 1736.79,-806.45 1730.52,-808.13 1724.03,-809.71 1717.33,-811.19 1710.42,-812.54 1703.32,-813.78 1696.04,-814.88 1688.6,-815.85 1681,-816.68 1673.28,-817.36 1665.43,-817.89 1657.48,-818.26 1649.44,-818.48 1641.34,-818.53 1633.18,-818.42 1625,-818.14 1616.81,-817.7 1608.63,-817.09 1600.49,-816.32 1592.4,-815.39 1584.39,-814.29 1576.49,-813.05 1568.71,-811.65 1561.08,-810.11 1553.63,-808.43 1546.37,-806.62 1539.34,-804.68 1532.55,-802.62 1526.04,-800.46 1519.83,-798.19 1513.93,-795.84 1508.37,-793.41 1503.17,-790.9 1498.36,-788.34 1493.95,-785.73"/>
<text text-anchor="middle" x="1644.32" y="-765.97" font-family="sans-serif" font-size="16.00">ServicioClienteContext</text>
</g>
<!-- ServicioClienteContext&#45;&gt;VentasContext -->
<g id="edge16" class="edge">
<title>ServicioClienteContext&#45;&gt;VentasContext</title>
<path fill="none" stroke="black" stroke-width="2" d="M1523.07,-734.6C1504.14,-729.71 1484.75,-724.97 1466.32,-720.88 1313.92,-687.13 1135.4,-657.81 1025.33,-640.89"/>
<text text-anchor="middle" x="1412.82" y="-693.28" font-family="sans-serif" font-size="12.00">Partnership</text>
</g>
</g>
</svg>
