<svg width="2000px" height="569px"
 viewBox="0.00 0.00 2935.86 834.60" xmlns="http://www.w3.org/2000/svg" xmlns:xlink="http://www.w3.org/1999/xlink">
<g id="graph0" class="graph" transform="scale(1.0 1.0) rotate(0) translate(4 830.6)">
<title>ContextMapGraph</title>
<polygon fill="white" stroke="transparent" points="-4,4 -4,-830.6 2931.86,-830.6 2931.86,4 -4,4"/>
<!-- AnaliticasReportingContext -->
<g id="node1" class="node">
<title>AnaliticasReportingContext</title>
<polygon fill="none" stroke="black" stroke-width="2" points="0.54,-774.68 1.35,-771.82 2.67,-769 4.49,-766.21 6.81,-763.48 9.63,-760.8 12.94,-758.2 16.72,-755.67 20.97,-753.24 25.68,-750.91 30.84,-748.69 36.42,-746.59 42.42,-744.61 48.81,-742.75 55.59,-741.04 62.73,-739.46 70.21,-738.03 78.02,-736.74 86.12,-735.61 94.5,-734.62 103.14,-733.79 112.01,-733.1 121.09,-732.57 130.35,-732.19 139.76,-731.95 149.31,-731.86 158.96,-731.91 168.68,-732.09 178.46,-732.41 188.26,-732.85 198.05,-733.42 207.81,-734.11 217.52,-734.9 227.14,-735.8 236.64,-736.8 246.01,-737.89 255.22,-739.07 264.23,-740.33 273.03,-741.67 281.59,-743.07 289.89,-744.53 297.91,-746.05 305.61,-747.63 312.99,-749.24 320.02,-750.9 326.68,-752.6 332.95,-754.33 338.82,-756.09 344.28,-757.87 349.29,-759.68 353.86,-761.5 357.97,-763.34 361.61,-765.2 364.77,-767.06 367.43,-768.94 369.6,-770.82 371.27,-772.71 372.43,-774.61 373.09,-776.51 373.23,-778.41 372.86,-780.31 371.98,-782.22 370.6,-784.12 368.71,-786.02 366.32,-787.92 363.44,-789.81 360.08,-791.69 356.25,-793.56 351.96,-795.42 347.21,-797.27 342.03,-799.1 336.42,-800.9 330.41,-802.68 324.01,-804.43 317.23,-806.15 310.1,-807.83 302.63,-809.46 294.85,-811.05 286.77,-812.58 278.43,-814.05 269.83,-815.45 261.01,-816.78 251.98,-818.04 242.78,-819.21 233.43,-820.28 223.95,-821.26 214.37,-822.14 204.72,-822.9 195.01,-823.55 185.29,-824.07 175.57,-824.47 165.87,-824.73 156.24,-824.86 146.69,-824.85 137.24,-824.69 127.93,-824.38 118.78,-823.92 109.81,-823.31 101.06,-822.55 92.53,-821.63 84.26,-820.56 76.27,-819.34 68.58,-817.97 61.21,-816.45 54.18,-814.79 47.51,-813 41.22,-811.06 35.33,-809.01 29.85,-806.83 24.8,-804.54 20.18,-802.14 16.03,-799.65 12.33,-797.08 9.12,-794.43 6.39,-791.71 4.15,-788.94 2.42,-786.13 1.18,-783.28 0.46,-780.42 0.24,-777.55 0.54,-774.68"/>
<text text-anchor="middle" x="186.75" y="-774.42" font-family="sans-serif" font-size="16.00">AnaliticasReportingContext</text>
</g>
<!-- VentasContext -->
<g id="node2" class="node">
<title>VentasContext</title>
<polygon fill="none" stroke="black" stroke-width="2" points="949.91,-599.96 955.58,-601.84 961,-603.8 966.16,-605.83 971.02,-607.93 975.58,-610.09 979.8,-612.29 983.68,-614.53 987.19,-616.8 990.33,-619.11 993.07,-621.42 995.41,-623.75 997.34,-626.08 998.85,-628.41 999.94,-630.73 1000.6,-633.03 1000.84,-635.31 1000.64,-637.56 1000.03,-639.78 999,-641.96 997.55,-644.09 995.71,-646.18 993.47,-648.21 990.85,-650.19 987.87,-652.11 984.54,-653.96 980.88,-655.75 976.9,-657.47 972.62,-659.12 968.08,-660.7 963.27,-662.2 958.24,-663.63 952.99,-664.97 947.56,-666.24 941.96,-667.43 936.21,-668.53 930.35,-669.55 924.39,-670.49 918.35,-671.34 912.26,-672.1 906.13,-672.78 899.99,-673.37 893.86,-673.87 887.75,-674.27 881.69,-674.59 875.68,-674.82 869.74,-674.95 863.9,-674.99 858.16,-674.94 852.53,-674.79 847.03,-674.55 841.66,-674.21 836.44,-673.77 831.38,-673.23 826.47,-672.6 821.73,-671.86 817.16,-671.03 812.76,-670.1 808.55,-669.07 804.52,-667.94 800.67,-666.72 797.02,-665.4 793.55,-663.98 790.27,-662.48 787.18,-660.88 784.29,-659.19 781.6,-657.41 779.09,-655.56 776.79,-653.62 774.68,-651.6 772.77,-649.52 771.07,-647.37 769.57,-645.16 768.27,-642.89 767.18,-640.57 766.31,-638.21 765.64,-635.81 765.2,-633.38 764.98,-630.93 764.99,-628.46 765.22,-625.99 765.69,-623.52 766.4,-621.06 767.36,-618.62 768.56,-616.2 770.01,-613.82 771.72,-611.49 773.68,-609.2 775.91,-606.98 778.41,-604.83 781.16,-602.76 784.19,-600.77 787.48,-598.88 791.04,-597.08 794.86,-595.4 798.94,-593.83 803.27,-592.38 807.86,-591.06 812.69,-589.88 817.75,-588.82 823.04,-587.91 828.54,-587.15 834.25,-586.53 840.14,-586.06 846.21,-585.74 852.43,-585.58 858.79,-585.56 865.27,-585.7 871.85,-585.99 878.51,-586.42 885.22,-587 891.96,-587.73 898.71,-588.6 905.44,-589.6 912.13,-590.73 918.74,-591.99 925.27,-593.37 931.67,-594.86 937.93,-596.46 944.02,-598.16 949.91,-599.96"/>
<text text-anchor="middle" x="873.75" y="-629.11" font-family="sans-serif" font-size="16.00">VentasContext</text>
</g>
<!-- AnaliticasReportingContext&#45;&gt;VentasContext -->
<g id="edge1" class="edge">
<title>AnaliticasReportingContext&#45;&gt;VentasContext</title>
<path fill="none" stroke="black" stroke-width="2" d="M305.76,-747.56C331.12,-741.49 357.79,-735.29 382.75,-729.84 518.1,-700.27 675.39,-670.31 774.74,-651.92"/>
<text text-anchor="middle" x="566.25" y="-702.24" font-family="sans-serif" font-size="12.00">Partnership</text>
</g>
<!-- AutenticacionAutorizacionContext -->
<g id="node3" class="node">
<title>AutenticacionAutorizacionContext</title>
<polygon fill="none" stroke="black" stroke-width="2" points="2236.44,-790.05 2232.67,-792.82 2228.32,-795.54 2223.41,-798.2 2217.95,-800.79 2211.97,-803.3 2205.47,-805.71 2198.49,-808.02 2191.05,-810.23 2183.16,-812.31 2174.85,-814.26 2166.14,-816.08 2157.06,-817.76 2147.64,-819.3 2137.9,-820.69 2127.87,-821.92 2117.57,-822.99 2107.03,-823.91 2096.28,-824.66 2085.35,-825.26 2074.27,-825.69 2063.06,-825.96 2051.76,-826.08 2040.38,-826.04 2028.97,-825.85 2017.54,-825.52 2006.13,-825.04 1994.76,-824.42 1983.46,-823.67 1972.26,-822.79 1961.19,-821.8 1950.26,-820.68 1939.52,-819.47 1928.98,-818.15 1918.68,-816.74 1908.63,-815.25 1898.85,-813.67 1889.39,-812.03 1880.25,-810.32 1871.46,-808.56 1863.05,-806.75 1855.03,-804.89 1847.43,-803 1840.26,-801.08 1833.55,-799.13 1827.31,-797.16 1821.56,-795.18 1816.32,-793.18 1811.6,-791.19 1807.42,-789.18 1803.79,-787.18 1800.73,-785.19 1798.23,-783.2 1796.32,-781.23 1795,-779.26 1794.28,-777.31 1794.16,-775.37 1794.65,-773.46 1795.75,-771.56 1797.45,-769.68 1799.77,-767.82 1802.69,-765.99 1806.21,-764.18 1810.33,-762.39 1815.03,-760.63 1820.31,-758.9 1826.16,-757.2 1832.55,-755.53 1839.49,-753.89 1846.94,-752.29 1854.9,-750.72 1863.34,-749.2 1872.23,-747.72 1881.56,-746.28 1891.31,-744.89 1901.43,-743.56 1911.91,-742.29 1922.72,-741.08 1933.82,-739.93 1945.18,-738.86 1956.78,-737.86 1968.57,-736.95 1980.52,-736.12 1992.6,-735.38 2004.77,-734.74 2016.99,-734.2 2029.23,-733.77 2041.45,-733.45 2053.62,-733.25 2065.69,-733.17 2077.63,-733.21 2089.4,-733.39 2100.97,-733.69 2112.3,-734.14 2123.36,-734.72 2134.12,-735.44 2144.53,-736.3 2154.58,-737.3 2164.23,-738.44 2173.46,-739.73 2182.22,-741.15 2190.51,-742.71 2198.3,-744.4 2205.56,-746.22 2212.27,-748.17 2218.42,-750.24 2223.98,-752.42 2228.95,-754.71 2233.32,-757.1 2237.06,-759.58 2240.18,-762.14 2242.66,-764.78 2244.51,-767.48 2245.72,-770.23 2246.28,-773.03 2246.21,-775.85 2245.5,-778.7 2244.16,-781.55 2242.2,-784.4 2239.62,-787.24 2236.44,-790.05"/>
<text text-anchor="middle" x="2018.75" y="-774.42" font-family="sans-serif" font-size="16.00">AutenticacionAutorizacionContext</text>
</g>
<!-- CarritoComprasContext -->
<g id="node4" class="node">
<title>CarritoComprasContext</title>
<polygon fill="none" stroke="black" stroke-width="2" points="1918.03,-598.04 1926.55,-596.27 1935.3,-594.6 1944.24,-593.05 1953.34,-591.62 1962.55,-590.32 1971.86,-589.15 1981.22,-588.12 1990.6,-587.23 1999.96,-586.49 2009.29,-585.9 2018.54,-585.46 2027.69,-585.18 2036.72,-585.05 2045.58,-585.08 2054.27,-585.27 2062.76,-585.61 2071.02,-586.11 2079.05,-586.77 2086.81,-587.57 2094.3,-588.52 2101.49,-589.6 2108.39,-590.83 2114.98,-592.19 2121.24,-593.67 2127.18,-595.28 2132.78,-596.99 2138.04,-598.82 2142.95,-600.73 2147.52,-602.74 2151.75,-604.83 2155.62,-607 2159.15,-609.22 2162.33,-611.51 2165.17,-613.83 2167.66,-616.2 2169.81,-618.6 2171.62,-621.02 2173.09,-623.45 2174.23,-625.88 2175.04,-628.31 2175.51,-630.73 2175.66,-633.13 2175.49,-635.5 2174.99,-637.84 2174.16,-640.14 2173.02,-642.4 2171.55,-644.6 2169.77,-646.75 2167.66,-648.83 2165.24,-650.86 2162.49,-652.81 2159.43,-654.68 2156.05,-656.49 2152.34,-658.21 2148.32,-659.85 2143.99,-661.41 2139.33,-662.89 2134.37,-664.27 2129.09,-665.58 2123.5,-666.79 2117.61,-667.91 2111.43,-668.95 2104.95,-669.89 2098.18,-670.75 2091.14,-671.51 2083.84,-672.19 2076.28,-672.78 2068.48,-673.28 2060.46,-673.68 2052.23,-674.01 2043.81,-674.24 2035.22,-674.38 2026.48,-674.44 2017.61,-674.41 2008.64,-674.29 1999.59,-674.08 1990.5,-673.79 1981.38,-673.41 1972.27,-672.94 1963.2,-672.38 1954.2,-671.73 1945.3,-671 1936.54,-670.18 1927.94,-669.27 1919.55,-668.27 1911.39,-667.18 1903.5,-666.01 1895.9,-664.75 1888.64,-663.41 1881.74,-661.98 1875.23,-660.46 1869.14,-658.87 1863.5,-657.19 1858.34,-655.44 1853.67,-653.6 1849.52,-651.7 1845.91,-649.73 1842.85,-647.69 1840.37,-645.58 1838.47,-643.42 1837.16,-641.21 1836.45,-638.95 1836.34,-636.65 1836.84,-634.31 1837.95,-631.94 1839.65,-629.54 1841.95,-627.13 1844.83,-624.72 1848.28,-622.3 1852.29,-619.89 1856.83,-617.49 1861.9,-615.12 1867.46,-612.78 1873.49,-610.48 1879.97,-608.24 1886.87,-606.05 1894.15,-603.92 1901.8,-601.88 1909.77,-599.91 1918.03,-598.04"/>
<text text-anchor="middle" x="2018.75" y="-629.11" font-family="sans-serif" font-size="16.00">CarritoComprasContext</text>
</g>
<!-- AutenticacionAutorizacionContext&#45;&gt;CarritoComprasContext -->
<g id="edge2" class="edge">
<title>AutenticacionAutorizacionContext&#45;&gt;CarritoComprasContext</title>
<path fill="none" stroke="black" stroke-width="2" d="M2018.75,-733.83C2018.75,-715.05 2018.75,-693.18 2018.75,-674.7"/>
<text text-anchor="middle" x="2074.75" y="-702.24" font-family="sans-serif" font-size="12.00">Customer/Supplier</text>
<polygon fill="white" stroke="transparent" points="2011.75,-665.7 2011.75,-682.7 2025.75,-682.7 2025.75,-665.7 2011.75,-665.7"/>
<text text-anchor="start" x="2013.75" y="-671.1" font-family="sans-serif" font-size="12.00">D</text>
<polygon fill="white" stroke="transparent" points="2011.75,-724.83 2011.75,-741.83 2025.75,-741.83 2025.75,-724.83 2011.75,-724.83"/>
<text text-anchor="start" x="2013.75" y="-730.23" font-family="sans-serif" font-size="12.00">U</text>
</g>
<!-- GestionClientesContext -->
<g id="node5" class="node">
<title>GestionClientesContext</title>
<polygon fill="none" stroke="black" stroke-width="2" points="1652.65,-499.53 1649.45,-496.8 1646.7,-494.05 1644.43,-491.3 1642.64,-488.55 1641.34,-485.82 1640.55,-483.12 1640.26,-480.45 1640.48,-477.82 1641.22,-475.25 1642.47,-472.75 1644.24,-470.32 1646.52,-467.97 1649.3,-465.7 1652.59,-463.53 1656.36,-461.46 1660.62,-459.5 1665.34,-457.65 1670.51,-455.91 1676.12,-454.28 1682.14,-452.78 1688.57,-451.4 1695.37,-450.14 1702.52,-449.01 1710,-448 1717.78,-447.11 1725.84,-446.35 1734.15,-445.71 1742.68,-445.18 1751.4,-444.78 1760.29,-444.48 1769.31,-444.3 1778.43,-444.23 1787.62,-444.26 1796.86,-444.4 1806.1,-444.63 1815.33,-444.96 1824.51,-445.38 1833.61,-445.88 1842.61,-446.47 1851.47,-447.14 1860.18,-447.89 1868.7,-448.71 1877.01,-449.6 1885.08,-450.56 1892.91,-451.58 1900.45,-452.67 1907.71,-453.82 1914.64,-455.02 1921.25,-456.29 1927.52,-457.6 1933.42,-458.98 1938.95,-460.4 1944.1,-461.88 1948.86,-463.4 1953.21,-464.98 1957.16,-466.6 1960.7,-468.27 1963.82,-469.99 1966.52,-471.75 1968.8,-473.56 1970.66,-475.41 1972.09,-477.3 1973.11,-479.23 1973.7,-481.2 1973.89,-483.2 1973.66,-485.24 1973.03,-487.31 1971.99,-489.4 1970.57,-491.52 1968.75,-493.66 1966.56,-495.82 1964,-497.98 1961.07,-500.15 1957.78,-502.32 1954.15,-504.48 1950.18,-506.63 1945.89,-508.76 1941.27,-510.87 1936.36,-512.94 1931.14,-514.97 1925.64,-516.95 1919.86,-518.88 1913.83,-520.74 1907.54,-522.53 1901.01,-524.24 1894.26,-525.86 1887.3,-527.38 1880.14,-528.8 1872.79,-530.1 1865.28,-531.29 1857.61,-532.35 1849.8,-533.27 1841.86,-534.06 1833.82,-534.71 1825.69,-535.2 1817.48,-535.54 1809.23,-535.72 1800.93,-535.75 1792.63,-535.61 1784.32,-535.3 1776.04,-534.83 1767.81,-534.2 1759.64,-533.4 1751.56,-532.44 1743.6,-531.33 1735.76,-530.05 1728.09,-528.63 1720.59,-527.06 1713.29,-525.34 1706.22,-523.5 1699.4,-521.52 1692.84,-519.43 1686.58,-517.23 1680.63,-514.92 1675.01,-512.53 1669.75,-510.05 1664.87,-507.5 1660.38,-504.89 1656.3,-502.23 1652.65,-499.53"/>
<text text-anchor="middle" x="1811.75" y="-483.41" font-family="sans-serif" font-size="16.00">GestionClientesContext</text>
</g>
<!-- CarritoComprasContext&#45;&gt;GestionClientesContext -->
<g id="edge3" class="edge">
<title>CarritoComprasContext&#45;&gt;GestionClientesContext</title>
<path fill="none" stroke="black" stroke-width="2" d="M1871,-611.31C1820.59,-601.03 1773.03,-586.52 1757.75,-566.98 1749.48,-556.4 1751.85,-544.63 1758.96,-533.48"/>
<text text-anchor="middle" x="1813.75" y="-557.38" font-family="sans-serif" font-size="12.00">Customer/Supplier</text>
<polygon fill="white" stroke="transparent" points="1751.96,-524.48 1751.96,-541.48 1765.96,-541.48 1765.96,-524.48 1751.96,-524.48"/>
<text text-anchor="start" x="1753.96" y="-529.88" font-family="sans-serif" font-size="12.00">D</text>
<polygon fill="white" stroke="transparent" points="1864,-602.31 1864,-619.31 1878,-619.31 1878,-602.31 1864,-602.31"/>
<text text-anchor="start" x="1866" y="-607.71" font-family="sans-serif" font-size="12.00">U</text>
</g>
<!-- GestionProductosContext -->
<g id="node6" class="node">
<title>GestionProductosContext</title>
<polygon fill="none" stroke="black" stroke-width="2" points="2190.29,-331.45 2192.91,-334.25 2195.04,-337.06 2196.67,-339.87 2197.79,-342.66 2198.4,-345.42 2198.48,-348.16 2198.04,-350.84 2197.07,-353.47 2195.57,-356.04 2193.54,-358.53 2190.99,-360.94 2187.93,-363.25 2184.35,-365.47 2180.27,-367.59 2175.7,-369.6 2170.66,-371.49 2165.15,-373.27 2159.2,-374.92 2152.82,-376.44 2146.03,-377.84 2138.86,-379.11 2131.33,-380.24 2123.46,-381.25 2115.27,-382.12 2106.8,-382.87 2098.07,-383.49 2089.11,-383.98 2079.95,-384.35 2070.62,-384.59 2061.15,-384.72 2051.58,-384.74 2041.92,-384.64 2032.22,-384.44 2022.5,-384.13 2012.8,-383.73 2003.14,-383.23 1993.56,-382.64 1984.09,-381.96 1974.75,-381.2 1965.57,-380.37 1956.58,-379.46 1947.81,-378.47 1939.28,-377.43 1931.02,-376.31 1923.04,-375.14 1915.37,-373.91 1908.03,-372.62 1901.04,-371.28 1894.41,-369.89 1888.17,-368.45 1882.31,-366.97 1876.87,-365.44 1871.84,-363.86 1867.24,-362.24 1863.08,-360.58 1859.37,-358.87 1856.1,-357.13 1853.28,-355.35 1850.92,-353.53 1849.02,-351.67 1847.58,-349.78 1846.59,-347.86 1846.06,-345.9 1845.98,-343.91 1846.35,-341.9 1847.16,-339.86 1848.41,-337.79 1850.08,-335.71 1852.18,-333.61 1854.7,-331.49 1857.62,-329.37 1860.94,-327.24 1864.64,-325.12 1868.72,-323 1873.16,-320.9 1877.95,-318.81 1883.09,-316.75 1888.55,-314.72 1894.33,-312.74 1900.41,-310.79 1906.77,-308.9 1913.41,-307.08 1920.31,-305.32 1927.46,-303.64 1934.83,-302.05 1942.41,-300.55 1950.2,-299.15 1958.16,-297.86 1966.29,-296.68 1974.56,-295.63 1982.96,-294.71 1991.47,-293.92 2000.07,-293.28 2008.75,-292.78 2017.48,-292.44 2026.24,-292.25 2035.02,-292.22 2043.78,-292.35 2052.52,-292.64 2061.21,-293.1 2069.82,-293.72 2078.34,-294.51 2086.75,-295.46 2095.01,-296.58 2103.12,-297.85 2111.04,-299.27 2118.75,-300.84 2126.23,-302.56 2133.46,-304.41 2140.41,-306.4 2147.07,-308.51 2153.41,-310.73 2159.41,-313.05 2165.05,-315.48 2170.31,-317.99 2175.17,-320.57 2179.61,-323.22 2183.63,-325.93 2187.19,-328.68 2190.29,-331.45"/>
<text text-anchor="middle" x="2018.75" y="-337.07" font-family="sans-serif" font-size="16.00">GestionProductosContext</text>
</g>
<!-- CarritoComprasContext&#45;&gt;GestionProductosContext -->
<g id="edge4" class="edge">
<title>CarritoComprasContext&#45;&gt;GestionProductosContext</title>
<path fill="none" stroke="black" stroke-width="2" d="M2018.75,-585.31C2018.75,-529.74 2018.75,-437.68 2018.75,-384.11"/>
<text text-anchor="middle" x="2074.75" y="-484.11" font-family="sans-serif" font-size="12.00">Customer/Supplier</text>
<polygon fill="white" stroke="transparent" points="2011.75,-375.11 2011.75,-392.11 2025.75,-392.11 2025.75,-375.11 2011.75,-375.11"/>
<text text-anchor="start" x="2013.75" y="-380.51" font-family="sans-serif" font-size="12.00">D</text>
<polygon fill="white" stroke="transparent" points="2011.75,-576.31 2011.75,-593.31 2025.75,-593.31 2025.75,-576.31 2011.75,-576.31"/>
<text text-anchor="start" x="2013.75" y="-581.71" font-family="sans-serif" font-size="12.00">U</text>
</g>
<!-- GestionClientesContext&#45;&gt;CarritoComprasContext -->
<g id="edge6" class="edge">
<title>GestionClientesContext&#45;&gt;CarritoComprasContext</title>
<path fill="none" stroke="black" stroke-width="2" d="M1853.36,-533.25C1865.43,-545.01 1879.06,-557.13 1892.75,-566.98 1906.44,-576.82 1921.82,-586.05 1937.01,-594.28"/>
<text text-anchor="middle" x="1948.75" y="-557.38" font-family="sans-serif" font-size="12.00">Customer/Supplier</text>
<polygon fill="white" stroke="transparent" points="1930.01,-585.28 1930.01,-602.28 1944.01,-602.28 1944.01,-585.28 1930.01,-585.28"/>
<text text-anchor="start" x="1932.01" y="-590.68" font-family="sans-serif" font-size="12.00">D</text>
<polygon fill="white" stroke="transparent" points="1846.36,-524.25 1846.36,-541.25 1860.36,-541.25 1860.36,-524.25 1846.36,-524.25"/>
<text text-anchor="start" x="1848.36" y="-529.65" font-family="sans-serif" font-size="12.00">U</text>
</g>
<!-- GestionClientesContext&#45;&gt;GestionProductosContext -->
<g id="edge5" class="edge">
<title>GestionClientesContext&#45;&gt;GestionProductosContext</title>
<path fill="none" stroke="black" stroke-width="2" d="M1803.88,-444.28C1803.68,-431.37 1805.96,-417.85 1813.75,-407.45 1828.55,-387.72 1849.34,-373.8 1872.05,-364.01"/>
<text text-anchor="middle" x="1855.75" y="-410.85" font-family="sans-serif" font-size="12.00">Shared Kernel</text>
</g>
<!-- GestionProductosContext&#45;&gt;CarritoComprasContext -->
<g id="edge9" class="edge">
<title>GestionProductosContext&#45;&gt;CarritoComprasContext</title>
<path fill="none" stroke="black" stroke-width="2" d="M2089.2,-384.09C2107.44,-398.82 2124.75,-417.09 2134.75,-438.45 2153.15,-477.7 2153.21,-496.76 2134.75,-535.98 2125.18,-556.31 2108.95,-573.81 2091.62,-588.09"/>
<text text-anchor="middle" x="2203.75" y="-484.11" font-family="sans-serif" font-size="12.00">Customer/Supplier</text>
<polygon fill="white" stroke="transparent" points="2084.62,-579.09 2084.62,-596.09 2098.62,-596.09 2098.62,-579.09 2084.62,-579.09"/>
<text text-anchor="start" x="2086.62" y="-584.49" font-family="sans-serif" font-size="12.00">D</text>
<polygon fill="white" stroke="transparent" points="2082.2,-375.09 2082.2,-392.09 2096.2,-392.09 2096.2,-375.09 2082.2,-375.09"/>
<text text-anchor="start" x="2084.2" y="-380.49" font-family="sans-serif" font-size="12.00">U</text>
</g>
<!-- GestionProductosContext&#45;&gt;GestionClientesContext -->
<g id="edge8" class="edge">
<title>GestionProductosContext&#45;&gt;GestionClientesContext</title>
<path fill="none" stroke="black" stroke-width="2" d="M1961,-380.02C1947.72,-388.93 1933.7,-398.45 1920.75,-407.45 1901.97,-420.51 1881.6,-435.12 1863.6,-448.17"/>
<text text-anchor="middle" x="1962.75" y="-410.85" font-family="sans-serif" font-size="12.00">Shared Kernel</text>
</g>
<!-- GestionDevolucionesContext -->
<g id="node7" class="node">
<title>GestionDevolucionesContext</title>
<polygon fill="none" stroke="black" stroke-width="2" points="2191.27,-223.9 2182.9,-226.08 2174.18,-228.17 2165.14,-230.16 2155.81,-232.03 2146.24,-233.78 2136.44,-235.41 2126.47,-236.9 2116.36,-238.26 2106.13,-239.46 2095.82,-240.52 2085.47,-241.42 2075.1,-242.17 2064.75,-242.75 2054.44,-243.17 2044.2,-243.42 2034.07,-243.51 2024.06,-243.44 2014.21,-243.2 2004.52,-242.8 1995.03,-242.25 1985.76,-241.54 1976.71,-240.67 1967.92,-239.67 1959.39,-238.52 1951.14,-237.24 1943.19,-235.83 1935.54,-234.29 1928.2,-232.65 1921.19,-230.9 1914.51,-229.05 1908.17,-227.11 1902.18,-225.09 1896.55,-223 1891.28,-220.84 1886.37,-218.63 1881.83,-216.37 1877.67,-214.07 1873.89,-211.75 1870.5,-209.4 1867.49,-207.05 1864.87,-204.68 1862.65,-202.32 1860.84,-199.97 1859.42,-197.63 1858.41,-195.32 1857.82,-193.03 1857.64,-190.78 1857.88,-188.57 1858.54,-186.41 1859.63,-184.29 1861.14,-182.22 1863.09,-180.21 1865.48,-178.26 1868.3,-176.37 1871.56,-174.54 1875.26,-172.78 1879.4,-171.09 1883.97,-169.47 1888.98,-167.92 1894.42,-166.44 1900.29,-165.03 1906.58,-163.69 1913.29,-162.43 1920.4,-161.24 1927.91,-160.13 1935.8,-159.09 1944.06,-158.13 1952.68,-157.24 1961.63,-156.43 1970.9,-155.69 1980.46,-155.04 1990.3,-154.46 2000.39,-153.96 2010.69,-153.54 2021.2,-153.2 2031.86,-152.95 2042.66,-152.78 2053.55,-152.69 2064.52,-152.7 2075.51,-152.79 2086.49,-152.97 2097.43,-153.24 2108.29,-153.61 2119.03,-154.07 2129.62,-154.63 2140,-155.29 2150.15,-156.05 2160.03,-156.9 2169.6,-157.86 2178.82,-158.93 2187.65,-160.09 2196.07,-161.36 2204.04,-162.73 2211.53,-164.2 2218.5,-165.77 2224.94,-167.44 2230.81,-169.2 2236.09,-171.06 2240.76,-173.01 2244.81,-175.05 2248.22,-177.17 2250.97,-179.37 2253.05,-181.64 2254.47,-183.97 2255.21,-186.37 2255.27,-188.82 2254.66,-191.31 2253.39,-193.84 2251.45,-196.41 2248.86,-198.99 2245.63,-201.59 2241.78,-204.19 2237.33,-206.78 2232.29,-209.35 2226.7,-211.9 2220.57,-214.41 2213.93,-216.88 2206.82,-219.29 2199.25,-221.63 2191.27,-223.9"/>
<text text-anchor="middle" x="2044.75" y="-190.78" font-family="sans-serif" font-size="16.00">GestionDevolucionesContext</text>
</g>
<!-- GestionProductosContext&#45;&gt;GestionDevolucionesContext -->
<g id="edge7" class="edge">
<title>GestionProductosContext&#45;&gt;GestionDevolucionesContext</title>
<path fill="none" stroke="black" stroke-width="2" d="M2027.34,-292.22C2030.15,-276.63 2033.27,-259.3 2036.09,-243.67"/>
<text text-anchor="middle" x="2108.25" y="-264.69" font-family="sans-serif" font-size="12.00"> &#160;&#160;&#160;&#160;&#160;&#160;&#160;&#160;&#160;&#160;&#160;&#160;&#160;&#160;&#160;&#160;&#160;&#160;&#160;&#160;&#160;&#160;&#160;&#160;&#160;&#160;&#160;&#160;&#160;&#160;&#160;&#160;&#160;&#160;&#160;&#160;&#160;&#160;&#160;</text>
<polygon fill="white" stroke="transparent" points="2017.09,-233.67 2017.09,-252.67 2033.09,-252.67 2033.09,-233.67 2017.09,-233.67"/>
<polyline fill="none" stroke="black" points="2033.09,-233.67 2033.09,-252.67 "/>
<text text-anchor="start" x="2020.09" y="-240.07" font-family="sans-serif" font-size="12.00">D</text>
<polygon fill="white" stroke="transparent" points="2033.09,-233.67 2033.09,-252.67 2055.09,-252.67 2055.09,-233.67 2033.09,-233.67"/>
<polygon fill="none" stroke="black" points="2033.09,-233.67 2033.09,-252.67 2055.09,-252.67 2055.09,-233.67 2033.09,-233.67"/>
<text text-anchor="start" x="2036.09" y="-240.07" font-family="sans-serif" font-size="12.00">CF</text>
<polygon fill="white" stroke="transparent" points="1992.34,-282.22 1992.34,-301.22 2008.34,-301.22 2008.34,-282.22 1992.34,-282.22"/>
<polyline fill="none" stroke="black" points="2008.34,-282.22 2008.34,-301.22 "/>
<text text-anchor="start" x="1995.34" y="-288.62" font-family="sans-serif" font-size="12.00">U</text>
<polygon fill="white" stroke="transparent" points="2008.34,-282.22 2008.34,-301.22 2063.34,-301.22 2063.34,-282.22 2008.34,-282.22"/>
<polygon fill="none" stroke="black" points="2008.34,-282.22 2008.34,-301.22 2063.34,-301.22 2063.34,-282.22 2008.34,-282.22"/>
<text text-anchor="start" x="2011.34" y="-288.62" font-family="sans-serif" font-size="12.00">OHS, PL</text>
</g>
<!-- GestionPedidosContext -->
<g id="node8" class="node">
<title>GestionPedidosContext</title>
<polygon fill="none" stroke="black" stroke-width="2" points="2130.47,-16.53 2138.13,-14.53 2146.06,-12.64 2154.21,-10.85 2162.56,-9.17 2171.09,-7.62 2179.75,-6.2 2188.52,-4.92 2197.36,-3.78 2206.25,-2.78 2215.16,-1.93 2224.05,-1.24 2232.91,-0.71 2241.7,-0.34 2250.4,-0.12 2258.99,-0.07 2267.44,-0.18 2275.73,-0.45 2283.85,-0.87 2291.77,-1.46 2299.47,-2.19 2306.95,-3.08 2314.19,-4.11 2321.17,-5.28 2327.88,-6.58 2334.33,-8.01 2340.48,-9.56 2346.34,-11.23 2351.91,-13 2357.17,-14.87 2362.12,-16.83 2366.76,-18.88 2371.09,-20.99 2375.09,-23.18 2378.78,-25.42 2382.14,-27.7 2385.18,-30.03 2387.9,-32.38 2390.29,-34.76 2392.35,-37.15 2394.09,-39.54 2395.5,-41.93 2396.58,-44.31 2397.33,-46.68 2397.76,-49.02 2397.85,-51.33 2397.6,-53.61 2397.03,-55.84 2396.11,-58.02 2394.86,-60.16 2393.28,-62.23 2391.35,-64.25 2389.08,-66.2 2386.46,-68.09 2383.51,-69.9 2380.21,-71.65 2376.57,-73.32 2372.58,-74.91 2368.26,-76.43 2363.59,-77.87 2358.59,-79.23 2353.26,-80.51 2347.6,-81.71 2341.62,-82.83 2335.32,-83.87 2328.73,-84.83 2321.83,-85.7 2314.66,-86.49 2307.21,-87.2 2299.51,-87.83 2291.57,-88.38 2283.41,-88.84 2275.05,-89.22 2266.51,-89.52 2257.8,-89.74 2248.97,-89.87 2240.02,-89.91 2231,-89.87 2221.91,-89.74 2212.81,-89.52 2203.7,-89.22 2194.63,-88.83 2185.63,-88.34 2176.72,-87.77 2167.94,-87.1 2159.33,-86.34 2150.91,-85.48 2142.72,-84.54 2134.79,-83.49 2127.15,-82.36 2119.83,-81.12 2112.86,-79.8 2106.28,-78.38 2100.1,-76.87 2094.35,-75.27 2089.06,-73.57 2084.26,-71.8 2079.95,-69.93 2076.16,-67.99 2072.9,-65.96 2070.2,-63.87 2068.05,-61.7 2066.48,-59.47 2065.48,-57.19 2065.06,-54.84 2065.21,-52.46 2065.95,-50.03 2067.26,-47.57 2069.14,-45.09 2071.58,-42.59 2074.57,-40.08 2078.09,-37.57 2082.13,-35.07 2086.67,-32.59 2091.68,-30.14 2097.15,-27.73 2103.06,-25.36 2109.37,-23.04 2116.06,-20.8 2123.11,-18.62 2130.47,-16.53"/>
<text text-anchor="middle" x="2242.75" y="-44.63" font-family="sans-serif" font-size="16.00">GestionPedidosContext</text>
</g>
<!-- GestionDevolucionesContext&#45;&gt;GestionPedidosContext -->
<g id="edge10" class="edge">
<title>GestionDevolucionesContext&#45;&gt;GestionPedidosContext</title>
<path fill="none" stroke="black" stroke-width="2" d="M2036.38,-152.59C2035.89,-139.46 2037.93,-125.56 2045.75,-114.86 2058.31,-97.7 2075.54,-84.97 2094.62,-75.55"/>
<text text-anchor="middle" x="2101.75" y="-118.26" font-family="sans-serif" font-size="12.00">Customer/Supplier</text>
<polygon fill="white" stroke="transparent" points="2087.62,-66.55 2087.62,-83.55 2101.62,-83.55 2101.62,-66.55 2087.62,-66.55"/>
<text text-anchor="start" x="2089.62" y="-71.95" font-family="sans-serif" font-size="12.00">D</text>
<polygon fill="white" stroke="transparent" points="2029.38,-143.59 2029.38,-160.59 2043.38,-160.59 2043.38,-143.59 2029.38,-143.59"/>
<text text-anchor="start" x="2031.38" y="-148.99" font-family="sans-serif" font-size="12.00">U</text>
</g>
<!-- GestionPedidosContext&#45;&gt;CarritoComprasContext -->
<g id="edge12" class="edge">
<title>GestionPedidosContext&#45;&gt;CarritoComprasContext</title>
<path fill="none" stroke="black" stroke-width="2" d="M2273.74,-89.61C2278.97,-97.67 2283.94,-106.3 2287.75,-114.86 2302.42,-147.73 2306.75,-157.59 2306.75,-193.58 2306.75,-488.21 2306.75,-488.21 2306.75,-488.21 2306.75,-559.04 2236.15,-594.96 2164.86,-613.17"/>
<text text-anchor="middle" x="2362.75" y="-337.77" font-family="sans-serif" font-size="12.00">Customer/Supplier</text>
<polygon fill="white" stroke="transparent" points="2157.86,-604.17 2157.86,-621.17 2171.86,-621.17 2171.86,-604.17 2157.86,-604.17"/>
<text text-anchor="start" x="2159.86" y="-609.57" font-family="sans-serif" font-size="12.00">D</text>
<polygon fill="white" stroke="transparent" points="2266.74,-80.61 2266.74,-97.61 2280.74,-97.61 2280.74,-80.61 2266.74,-80.61"/>
<text text-anchor="start" x="2268.74" y="-86.01" font-family="sans-serif" font-size="12.00">U</text>
</g>
<!-- GestionPedidosContext&#45;&gt;GestionDevolucionesContext -->
<g id="edge11" class="edge">
<title>GestionPedidosContext&#45;&gt;GestionDevolucionesContext</title>
<path fill="none" stroke="black" stroke-width="2" d="M2203.25,-89.23C2189.42,-102.23 2173.42,-116.29 2157.75,-127.86 2145.43,-136.96 2131.75,-145.83 2118.28,-153.96"/>
<text text-anchor="middle" x="2227.75" y="-118.26" font-family="sans-serif" font-size="12.00">Customer/Supplier</text>
<polygon fill="white" stroke="transparent" points="2111.28,-144.96 2111.28,-161.96 2125.28,-161.96 2125.28,-144.96 2111.28,-144.96"/>
<text text-anchor="start" x="2113.28" y="-150.36" font-family="sans-serif" font-size="12.00">D</text>
<polygon fill="white" stroke="transparent" points="2196.25,-80.23 2196.25,-97.23 2210.25,-97.23 2210.25,-80.23 2196.25,-80.23"/>
<text text-anchor="start" x="2198.25" y="-85.63" font-family="sans-serif" font-size="12.00">U</text>
</g>
<!-- GestionSesionesContext -->
<g id="node9" class="node">
<title>GestionSesionesContext</title>
<polygon fill="none" stroke="black" stroke-width="2" points="2482.34,-821.21 2471.43,-821.76 2460.51,-822.19 2449.62,-822.5 2438.8,-822.68 2428.09,-822.74 2417.53,-822.67 2407.17,-822.46 2397.05,-822.13 2387.19,-821.67 2377.63,-821.08 2368.41,-820.36 2359.56,-819.52 2351.1,-818.55 2343.06,-817.46 2335.46,-816.26 2328.31,-814.94 2321.65,-813.51 2315.47,-811.97 2309.79,-810.33 2304.63,-808.59 2299.97,-806.77 2295.83,-804.85 2292.21,-802.86 2289.11,-800.79 2286.51,-798.66 2284.42,-796.47 2282.82,-794.22 2281.71,-791.93 2281.07,-789.6 2280.9,-787.25 2281.16,-784.86 2281.86,-782.46 2282.98,-780.06 2284.49,-777.65 2286.38,-775.25 2288.64,-772.87 2291.24,-770.51 2294.18,-768.17 2297.42,-765.88 2300.96,-763.62 2304.79,-761.42 2308.87,-759.27 2313.21,-757.19 2317.79,-755.17 2322.59,-753.23 2327.6,-751.36 2332.82,-749.58 2338.23,-747.89 2343.83,-746.29 2349.6,-744.79 2355.54,-743.38 2361.64,-742.08 2367.91,-740.89 2374.32,-739.8 2380.88,-738.82 2387.59,-737.96 2394.43,-737.2 2401.41,-736.57 2408.52,-736.04 2415.75,-735.63 2423.11,-735.34 2430.58,-735.16 2438.16,-735.1 2445.85,-735.15 2453.62,-735.31 2461.48,-735.58 2469.42,-735.96 2477.41,-736.45 2485.46,-737.05 2493.54,-737.75 2501.64,-738.55 2509.74,-739.44 2517.82,-740.44 2525.86,-741.53 2533.84,-742.7 2541.74,-743.97 2549.52,-745.32 2557.18,-746.75 2564.66,-748.25 2571.96,-749.83 2579.05,-751.48 2585.88,-753.19 2592.43,-754.97 2598.68,-756.81 2604.59,-758.69 2610.13,-760.63 2615.27,-762.62 2619.99,-764.64 2624.25,-766.7 2628.03,-768.8 2631.31,-770.92 2634.06,-773.06 2636.26,-775.22 2637.89,-777.4 2638.93,-779.58 2639.36,-781.77 2639.19,-783.95 2638.38,-786.13 2636.95,-788.29 2634.88,-790.43 2632.18,-792.56 2628.85,-794.65 2624.89,-796.7 2620.31,-798.72 2615.13,-800.69 2609.36,-802.61 2603.03,-804.48 2596.14,-806.28 2588.73,-808.01 2580.83,-809.67 2572.46,-811.25 2563.66,-812.75 2554.47,-814.16 2544.92,-815.48 2535.04,-816.7 2524.89,-817.82 2514.5,-818.84 2503.91,-819.74 2493.18,-820.53 2482.34,-821.21"/>
<text text-anchor="middle" x="2451.75" y="-774.42" font-family="sans-serif" font-size="16.00">GestionSesionesContext</text>
</g>
<!-- IntegracionRedesSocialesContext -->
<g id="node10" class="node">
<title>IntegracionRedesSocialesContext</title>
<polygon fill="none" stroke="black" stroke-width="2" points="398.11,-785.35 395.53,-782.53 393.58,-779.71 392.26,-776.9 391.58,-774.1 391.54,-771.35 392.16,-768.63 393.43,-765.96 395.36,-763.36 397.93,-760.83 401.16,-758.38 405.02,-756.01 409.52,-753.75 414.63,-751.59 420.36,-749.53 426.67,-747.6 433.56,-745.78 441,-744.09 448.97,-742.52 457.45,-741.09 466.41,-739.79 475.83,-738.62 485.67,-737.59 495.9,-736.69 506.49,-735.93 517.41,-735.3 528.63,-734.8 540.1,-734.42 551.79,-734.18 563.67,-734.06 575.69,-734.05 587.82,-734.16 600.02,-734.38 612.25,-734.71 624.47,-735.14 636.64,-735.67 648.73,-736.3 660.71,-737.01 672.52,-737.81 684.14,-738.68 695.54,-739.63 706.68,-740.66 717.52,-741.75 728.04,-742.9 738.21,-744.12 748,-745.39 757.38,-746.71 766.33,-748.09 774.83,-749.51 782.85,-750.98 790.38,-752.49 797.39,-754.05 803.88,-755.64 809.83,-757.28 815.22,-758.95 820.05,-760.65 824.3,-762.4 827.98,-764.17 831.07,-765.98 833.57,-767.82 835.49,-769.69 836.82,-771.59 837.56,-773.52 837.71,-775.47 837.29,-777.45 836.29,-779.45 834.72,-781.47 832.59,-783.51 829.92,-785.56 826.7,-787.62 822.96,-789.69 818.7,-791.76 813.94,-793.83 808.69,-795.9 802.96,-797.95 796.78,-799.99 790.16,-802 783.12,-803.98 775.66,-805.93 767.82,-807.83 759.61,-809.68 751.05,-811.48 742.16,-813.21 732.96,-814.86 723.48,-816.44 713.72,-817.93 703.72,-819.32 693.5,-820.61 683.08,-821.79 672.48,-822.86 661.73,-823.79 650.85,-824.6 639.87,-825.27 628.8,-825.8 617.69,-826.18 606.55,-826.41 595.4,-826.48 584.29,-826.4 573.22,-826.16 562.24,-825.75 551.36,-825.18 540.62,-824.45 530.04,-823.55 519.66,-822.49 509.49,-821.28 499.56,-819.91 489.92,-818.39 480.57,-816.73 471.55,-814.92 462.89,-812.98 454.62,-810.92 446.75,-808.74 439.31,-806.44 432.33,-804.05 425.83,-801.57 419.84,-799 414.37,-796.37 409.44,-793.67 405.08,-790.93 401.3,-788.15 398.11,-785.35"/>
<text text-anchor="middle" x="617.75" y="-774.42" font-family="sans-serif" font-size="16.00">IntegracionRedesSocialesContext</text>
</g>
<!-- IntegracionRedesSocialesContext&#45;&gt;VentasContext -->
<g id="edge13" class="edge">
<title>IntegracionRedesSocialesContext&#45;&gt;VentasContext</title>
<path fill="none" stroke="black" stroke-width="2" d="M686.36,-738.82C724.72,-717.34 772.22,-690.75 809.8,-669.71"/>
<text text-anchor="middle" x="788.25" y="-702.24" font-family="sans-serif" font-size="12.00">Partnership</text>
</g>
<!-- NotificacionesComunicacionesContext -->
<g id="node11" class="node">
<title>NotificacionesComunicacionesContext</title>
<polygon fill="none" stroke="black" stroke-width="2" points="1095.5,-821.63 1079.28,-821.29 1063.25,-820.83 1047.48,-820.26 1032.03,-819.57 1016.96,-818.77 1002.34,-817.86 988.21,-816.85 974.64,-815.72 961.68,-814.5 949.37,-813.18 937.75,-811.76 926.86,-810.25 916.75,-808.66 907.43,-806.98 898.93,-805.23 891.28,-803.4 884.5,-801.5 878.58,-799.55 873.54,-797.53 869.39,-795.47 866.11,-793.36 863.71,-791.2 862.17,-789.01 861.48,-786.8 861.63,-784.56 862.58,-782.3 864.32,-780.04 866.81,-777.76 870.04,-775.49 873.96,-773.23 878.55,-770.98 883.77,-768.75 889.58,-766.54 895.95,-764.37 902.84,-762.24 910.21,-760.14 918.02,-758.1 926.25,-756.11 934.84,-754.18 943.78,-752.31 953.02,-750.51 962.53,-748.79 972.28,-747.15 982.24,-745.59 992.39,-744.12 1002.7,-742.74 1013.14,-741.46 1023.69,-740.28 1034.34,-739.2 1045.07,-738.22 1055.86,-737.36 1066.69,-736.6 1077.56,-735.96 1088.45,-735.44 1099.35,-735.03 1110.25,-734.73 1121.15,-734.56 1132.03,-734.51 1142.89,-734.57 1153.73,-734.76 1164.53,-735.07 1175.29,-735.49 1186,-736.03 1196.66,-736.69 1207.24,-737.46 1217.75,-738.35 1228.16,-739.34 1238.47,-740.45 1248.67,-741.65 1258.73,-742.96 1268.63,-744.37 1278.37,-745.87 1287.9,-747.46 1297.22,-749.14 1306.3,-750.9 1315.1,-752.73 1323.6,-754.63 1331.77,-756.6 1339.58,-758.64 1346.99,-760.72 1353.97,-762.86 1360.49,-765.03 1366.51,-767.25 1372,-769.5 1376.92,-771.77 1381.23,-774.05 1384.91,-776.36 1387.93,-778.66 1390.24,-780.97 1391.83,-783.26 1392.66,-785.54 1392.71,-787.81 1391.96,-790.04 1390.39,-792.25 1387.98,-794.41 1384.73,-796.53 1380.62,-798.59 1375.65,-800.61 1369.83,-802.55 1363.15,-804.43 1355.62,-806.24 1347.26,-807.97 1338.09,-809.61 1328.13,-811.17 1317.4,-812.64 1305.94,-814.01 1293.79,-815.28 1280.98,-816.45 1267.56,-817.52 1253.57,-818.47 1239.08,-819.31 1224.13,-820.04 1208.78,-820.66 1193.09,-821.15 1177.13,-821.53 1160.96,-821.79 1144.64,-821.93 1128.25,-821.95 1111.85,-821.85 1095.5,-821.63"/>
<text text-anchor="middle" x="1128.75" y="-774.42" font-family="sans-serif" font-size="16.00">NotificacionesComunicacionesContext</text>
</g>
<!-- NotificacionesComunicacionesContext&#45;&gt;VentasContext -->
<g id="edge14" class="edge">
<title>NotificacionesComunicacionesContext&#45;&gt;VentasContext</title>
<path fill="none" stroke="black" stroke-width="2" d="M1057.38,-737.11C1019.08,-715.58 972.32,-689.3 935.58,-668.65"/>
<text text-anchor="middle" x="1044.25" y="-702.24" font-family="sans-serif" font-size="12.00">Partnership</text>
</g>
<!-- ProcesoPagosContext -->
<g id="node12" class="node">
<title>ProcesoPagosContext</title>
<polygon fill="none" stroke="black" stroke-width="2" points="2640.11,-198.12 2639.45,-200.97 2638.37,-203.8 2636.88,-206.59 2634.98,-209.32 2632.67,-212 2629.97,-214.6 2626.87,-217.12 2623.39,-219.56 2619.54,-221.89 2615.33,-224.11 2610.76,-226.21 2605.85,-228.19 2600.62,-230.04 2595.07,-231.76 2589.23,-233.34 2583.11,-234.77 2576.72,-236.06 2570.09,-237.19 2563.23,-238.18 2556.16,-239.01 2548.91,-239.7 2541.48,-240.23 2533.91,-240.61 2526.2,-240.85 2518.39,-240.94 2510.5,-240.89 2502.54,-240.71 2494.54,-240.39 2486.53,-239.94 2478.51,-239.38 2470.52,-238.69 2462.58,-237.9 2454.71,-237 2446.94,-236 2439.27,-234.9 2431.74,-233.73 2424.36,-232.47 2417.16,-231.13 2410.16,-229.73 2403.37,-228.27 2396.81,-226.75 2390.51,-225.17 2384.47,-223.55 2378.72,-221.89 2373.27,-220.2 2368.14,-218.47 2363.33,-216.71 2358.87,-214.93 2354.77,-213.12 2351.03,-211.3 2347.67,-209.46 2344.69,-207.6 2342.11,-205.74 2339.93,-203.86 2338.15,-201.98 2336.79,-200.09 2335.84,-198.19 2335.3,-196.29 2335.19,-194.39 2335.49,-192.48 2336.21,-190.58 2337.34,-188.68 2338.89,-186.78 2340.84,-184.88 2343.19,-182.99 2345.94,-181.11 2349.08,-179.23 2352.59,-177.37 2356.47,-175.53 2360.71,-173.7 2365.3,-171.9 2370.22,-170.12 2375.46,-168.37 2381,-166.65 2386.84,-164.97 2392.95,-163.34 2399.31,-161.75 2405.92,-160.22 2412.75,-158.75 2419.78,-157.35 2427,-156.01 2434.39,-154.76 2441.91,-153.59 2449.56,-152.52 2457.32,-151.54 2465.16,-150.66 2473.06,-149.9 2481,-149.25 2488.95,-148.73 2496.91,-148.33 2504.84,-148.06 2512.72,-147.94 2520.54,-147.95 2528.27,-148.11 2535.88,-148.42 2543.37,-148.88 2550.71,-149.49 2557.87,-150.25 2564.85,-151.17 2571.61,-152.24 2578.15,-153.46 2584.44,-154.83 2590.47,-156.34 2596.22,-158 2601.68,-159.8 2606.83,-161.73 2611.65,-163.79 2616.13,-165.97 2620.27,-168.26 2624.04,-170.65 2627.44,-173.14 2630.46,-175.72 2633.09,-178.37 2635.33,-181.09 2637.16,-183.86 2638.58,-186.67 2639.59,-189.51 2640.18,-192.38 2640.35,-195.25 2640.11,-198.12"/>
<text text-anchor="middle" x="2487.75" y="-190.78" font-family="sans-serif" font-size="16.00">ProcesoPagosContext</text>
</g>
<!-- ProcesoPagosContext&#45;&gt;GestionPedidosContext -->
<g id="edge15" class="edge">
<title>ProcesoPagosContext&#45;&gt;GestionPedidosContext</title>
<path fill="none" stroke="black" stroke-width="2" d="M2424.34,-156.27C2388.33,-135.08 2343.36,-108.62 2307.18,-87.34"/>
<text text-anchor="middle" x="2427.75" y="-118.26" font-family="sans-serif" font-size="12.00">Customer/Supplier</text>
<polygon fill="white" stroke="transparent" points="2300.18,-78.34 2300.18,-95.34 2314.18,-95.34 2314.18,-78.34 2300.18,-78.34"/>
<text text-anchor="start" x="2302.18" y="-83.74" font-family="sans-serif" font-size="12.00">D</text>
<polygon fill="white" stroke="transparent" points="2417.34,-147.27 2417.34,-164.27 2431.34,-164.27 2431.34,-147.27 2417.34,-147.27"/>
<text text-anchor="start" x="2419.34" y="-152.67" font-family="sans-serif" font-size="12.00">U</text>
</g>
<!-- SeguridadContext -->
<g id="node13" class="node">
<title>SeguridadContext</title>
<polygon fill="none" stroke="black" stroke-width="2" points="2657.92,-773.88 2658.66,-771.01 2659.77,-768.17 2661.24,-765.37 2663.07,-762.62 2665.26,-759.93 2667.8,-757.32 2670.68,-754.8 2673.89,-752.37 2677.43,-750.04 2681.29,-747.82 2685.45,-745.72 2689.91,-743.75 2694.65,-741.91 2699.65,-740.21 2704.91,-738.65 2710.42,-737.24 2716.15,-735.97 2722.09,-734.86 2728.22,-733.9 2734.53,-733.1 2741,-732.45 2747.61,-731.95 2754.34,-731.6 2761.18,-731.4 2768.11,-731.34 2775.1,-731.43 2782.14,-731.66 2789.21,-732.02 2796.3,-732.51 2803.37,-733.12 2810.41,-733.85 2817.4,-734.69 2824.33,-735.64 2831.17,-736.69 2837.9,-737.83 2844.51,-739.05 2850.98,-740.36 2857.29,-741.74 2863.42,-743.19 2869.36,-744.7 2875.09,-746.26 2880.6,-747.88 2885.86,-749.54 2890.86,-751.24 2895.6,-752.98 2900.06,-754.75 2904.22,-756.54 2908.08,-758.36 2911.62,-760.2 2914.83,-762.06 2917.71,-763.93 2920.25,-765.82 2922.44,-767.71 2924.27,-769.61 2925.74,-771.52 2926.85,-773.43 2927.59,-775.34 2927.96,-777.26 2927.96,-779.18 2927.59,-781.1 2926.85,-783.01 2925.74,-784.92 2924.27,-786.83 2922.44,-788.73 2920.25,-790.63 2917.71,-792.51 2914.83,-794.38 2911.62,-796.24 2908.08,-798.08 2904.22,-799.9 2900.06,-801.69 2895.6,-803.46 2890.86,-805.2 2885.86,-806.9 2880.6,-808.56 2875.09,-810.18 2869.36,-811.74 2863.42,-813.25 2857.29,-814.7 2850.98,-816.08 2844.51,-817.39 2837.9,-818.61 2831.17,-819.75 2824.33,-820.8 2817.4,-821.75 2810.41,-822.59 2803.37,-823.32 2796.3,-823.93 2789.21,-824.42 2782.14,-824.78 2775.1,-825.01 2768.11,-825.1 2761.18,-825.04 2754.34,-824.84 2747.61,-824.5 2741,-824 2734.53,-823.34 2728.22,-822.54 2722.09,-821.58 2716.15,-820.47 2710.42,-819.2 2704.91,-817.79 2699.65,-816.23 2694.65,-814.53 2689.91,-812.69 2685.45,-810.72 2681.29,-808.62 2677.43,-806.4 2673.89,-804.07 2670.68,-801.64 2667.8,-799.12 2665.26,-796.51 2663.07,-793.82 2661.24,-791.07 2659.77,-788.27 2658.66,-785.43 2657.92,-782.56 2657.55,-779.67 2657.55,-776.77 2657.92,-773.88"/>
<text text-anchor="middle" x="2792.75" y="-774.42" font-family="sans-serif" font-size="16.00">SeguridadContext</text>
</g>
<!-- ServicioClienteContext -->
<g id="node14" class="node">
<title>ServicioClienteContext</title>
<polygon fill="none" stroke="black" stroke-width="2" points="1542.85,-736.36 1552.82,-735.41 1562.87,-734.58 1572.97,-733.88 1583.06,-733.31 1593.1,-732.87 1603.07,-732.56 1612.93,-732.39 1622.63,-732.35 1632.14,-732.46 1641.44,-732.71 1650.48,-733.09 1659.25,-733.61 1667.7,-734.27 1675.83,-735.07 1683.6,-736 1691,-737.06 1698.01,-738.25 1704.62,-739.57 1710.8,-741 1716.56,-742.55 1721.88,-744.21 1726.76,-745.97 1731.19,-747.83 1735.18,-749.79 1738.72,-751.82 1741.82,-753.94 1744.47,-756.13 1746.7,-758.38 1748.5,-760.68 1749.88,-763.03 1750.85,-765.42 1751.43,-767.85 1751.62,-770.29 1751.44,-772.75 1750.89,-775.22 1749.99,-777.68 1748.76,-780.14 1747.2,-782.58 1745.33,-784.99 1743.16,-787.37 1740.69,-789.71 1737.95,-792 1734.95,-794.24 1731.68,-796.43 1728.16,-798.54 1724.4,-800.59 1720.41,-802.55 1716.19,-804.44 1711.75,-806.24 1707.09,-807.95 1702.22,-809.57 1697.15,-811.09 1691.87,-812.51 1686.4,-813.83 1680.73,-815.05 1674.86,-816.15 1668.81,-817.15 1662.57,-818.04 1656.15,-818.82 1649.55,-819.49 1642.78,-820.05 1635.84,-820.5 1628.75,-820.84 1621.49,-821.06 1614.09,-821.18 1606.55,-821.2 1598.89,-821.1 1591.12,-820.9 1583.24,-820.59 1575.28,-820.19 1567.24,-819.68 1559.16,-819.07 1551.04,-818.37 1542.92,-817.57 1534.8,-816.69 1526.72,-815.71 1518.7,-814.64 1510.76,-813.49 1502.94,-812.25 1495.26,-810.94 1487.75,-809.54 1480.44,-808.08 1473.35,-806.54 1466.53,-804.93 1460,-803.25 1453.79,-801.52 1447.93,-799.72 1442.45,-797.87 1437.37,-795.96 1432.74,-794 1428.56,-792 1424.87,-789.96 1421.69,-787.87 1419.04,-785.76 1416.94,-783.61 1415.4,-781.45 1414.44,-779.26 1414.08,-777.05 1414.31,-774.84 1415.15,-772.62 1416.6,-770.4 1418.66,-768.19 1421.33,-765.99 1424.59,-763.81 1428.45,-761.65 1432.89,-759.53 1437.9,-757.43 1443.45,-755.39 1449.53,-753.39 1456.11,-751.44 1463.17,-749.56 1470.68,-747.74 1478.6,-746 1486.91,-744.33 1495.57,-742.76 1504.55,-741.27 1513.81,-739.88 1523.3,-738.6 1532.99,-737.42 1542.85,-736.36"/>
<text text-anchor="middle" x="1593.75" y="-774.42" font-family="sans-serif" font-size="16.00">ServicioClienteContext</text>
</g>
<!-- ServicioClienteContext&#45;&gt;VentasContext -->
<g id="edge16" class="edge">
<title>ServicioClienteContext&#45;&gt;VentasContext</title>
<path fill="none" stroke="black" stroke-width="2" d="M1476.33,-746.49C1452.7,-740.67 1427.99,-734.84 1404.75,-729.84 1261.78,-699.04 1095.7,-670.13 987.87,-652.26"/>
<text text-anchor="middle" x="1338.25" y="-702.24" font-family="sans-serif" font-size="12.00">Partnership</text>
</g>
</g>
</svg>
