<svg width="2000px" height="426px"
 viewBox="0.00 0.00 3230.73 687.99" xmlns="http://www.w3.org/2000/svg" xmlns:xlink="http://www.w3.org/1999/xlink">
<g id="graph0" class="graph" transform="scale(1.0 1.0) rotate(0) translate(4 683.99)">
<title>ContextMapGraph</title>
<polygon fill="white" stroke="transparent" points="-4,4 -4,-683.99 3226.73,-683.99 3226.73,4 -4,4"/>
<!-- AnaliticasReportingContext -->
<g id="node1" class="node">
<title>AnaliticasReportingContext</title>
<polygon fill="none" stroke="black" stroke-width="2" points="1399.48,-519.26 1389.88,-521.04 1380.01,-522.7 1369.94,-524.25 1359.68,-525.68 1349.29,-526.99 1338.8,-528.16 1328.25,-529.19 1317.68,-530.07 1307.12,-530.82 1296.61,-531.41 1286.18,-531.84 1275.86,-532.13 1265.69,-532.25 1255.69,-532.22 1245.9,-532.03 1236.33,-531.69 1227.02,-531.19 1217.97,-530.54 1209.22,-529.73 1200.78,-528.79 1192.67,-527.7 1184.89,-526.47 1177.47,-525.11 1170.41,-523.63 1163.71,-522.02 1157.4,-520.31 1151.47,-518.49 1145.93,-516.57 1140.78,-514.56 1136.02,-512.47 1131.65,-510.31 1127.67,-508.08 1124.09,-505.8 1120.89,-503.47 1118.08,-501.1 1115.66,-498.7 1113.62,-496.29 1111.96,-493.86 1110.67,-491.42 1109.76,-488.99 1109.23,-486.57 1109.06,-484.17 1109.26,-481.8 1109.82,-479.46 1110.75,-477.16 1112.04,-474.91 1113.69,-472.7 1115.7,-470.55 1118.08,-468.47 1120.81,-466.45 1123.9,-464.5 1127.36,-462.62 1131.17,-460.81 1135.34,-459.09 1139.88,-457.45 1144.76,-455.89 1150.01,-454.42 1155.61,-453.03 1161.56,-451.73 1167.86,-450.51 1174.5,-449.39 1181.47,-448.36 1188.78,-447.41 1196.4,-446.56 1204.34,-445.79 1212.57,-445.11 1221.09,-444.52 1229.88,-444.03 1238.92,-443.62 1248.2,-443.3 1257.69,-443.06 1267.38,-442.92 1277.23,-442.86 1287.23,-442.89 1297.34,-443.01 1307.54,-443.22 1317.79,-443.51 1328.07,-443.9 1338.34,-444.37 1348.56,-444.92 1358.71,-445.57 1368.74,-446.3 1378.62,-447.13 1388.31,-448.04 1397.77,-449.03 1406.97,-450.12 1415.87,-451.29 1424.43,-452.55 1432.61,-453.9 1440.39,-455.33 1447.73,-456.84 1454.59,-458.44 1460.95,-460.11 1466.77,-461.87 1472.04,-463.7 1476.71,-465.6 1480.79,-467.58 1484.23,-469.62 1487.03,-471.72 1489.18,-473.88 1490.65,-476.09 1491.45,-478.35 1491.57,-480.66 1491.01,-483 1489.76,-485.37 1487.84,-487.76 1485.25,-490.17 1482,-492.59 1478.11,-495 1473.59,-497.41 1468.47,-499.81 1462.76,-502.18 1456.49,-504.52 1449.69,-506.82 1442.39,-509.07 1434.61,-511.26 1426.4,-513.38 1417.78,-515.43 1408.8,-517.39 1399.48,-519.26"/>
<text text-anchor="middle" x="1285.94" y="-480.59" font-family="sans-serif" font-size="16.00">AnaliticasReportingContext</text>
</g>
<!-- VentasContext -->
<g id="node2" class="node">
<title>VentasContext</title>
<polygon fill="none" stroke="black" stroke-width="2" points="1696.93,-378.99 1690.02,-377.88 1683.27,-376.66 1676.73,-375.35 1670.41,-373.94 1664.34,-372.44 1658.55,-370.86 1653.06,-369.19 1647.88,-367.45 1643.05,-365.65 1638.57,-363.77 1634.47,-361.85 1630.76,-359.87 1627.45,-357.84 1624.55,-355.78 1622.07,-353.67 1620.01,-351.54 1618.39,-349.39 1617.19,-347.22 1616.42,-345.03 1616.08,-342.84 1616.16,-340.65 1616.66,-338.46 1617.56,-336.28 1618.85,-334.11 1620.53,-331.96 1622.58,-329.83 1624.99,-327.73 1627.73,-325.66 1630.79,-323.63 1634.16,-321.64 1637.8,-319.69 1641.72,-317.8 1645.87,-315.95 1650.25,-314.17 1654.83,-312.44 1659.59,-310.78 1664.52,-309.19 1669.58,-307.67 1674.77,-306.23 1680.06,-304.86 1685.43,-303.58 1690.87,-302.38 1696.35,-301.27 1701.87,-300.25 1707.41,-299.32 1712.95,-298.49 1718.48,-297.76 1723.99,-297.13 1729.47,-296.61 1734.91,-296.19 1740.29,-295.88 1745.61,-295.68 1750.87,-295.58 1756.05,-295.6 1761.15,-295.74 1766.17,-295.98 1771.1,-296.34 1775.94,-296.82 1780.69,-297.41 1785.33,-298.11 1789.88,-298.93 1794.32,-299.86 1798.65,-300.9 1802.87,-302.05 1806.98,-303.31 1810.98,-304.67 1814.85,-306.13 1818.61,-307.69 1822.23,-309.35 1825.72,-311.1 1829.08,-312.93 1832.29,-314.85 1835.34,-316.84 1838.24,-318.91 1840.98,-321.04 1843.54,-323.23 1845.91,-325.48 1848.09,-327.78 1850.07,-330.11 1851.83,-332.48 1853.37,-334.87 1854.67,-337.29 1855.73,-339.71 1856.53,-342.14 1857.06,-344.57 1857.31,-346.98 1857.27,-349.38 1856.94,-351.74 1856.29,-354.08 1855.33,-356.37 1854.05,-358.61 1852.44,-360.79 1850.5,-362.91 1848.21,-364.95 1845.59,-366.92 1842.63,-368.8 1839.32,-370.6 1835.68,-372.29 1831.7,-373.89 1827.4,-375.38 1822.77,-376.75 1817.84,-378.01 1812.6,-379.16 1807.08,-380.18 1801.29,-381.07 1795.25,-381.84 1788.97,-382.47 1782.48,-382.98 1775.79,-383.35 1768.93,-383.6 1761.93,-383.71 1754.81,-383.69 1747.6,-383.54 1740.32,-383.26 1733,-382.85 1725.68,-382.31 1718.39,-381.66 1711.14,-380.89 1703.98,-379.99 1696.93,-378.99"/>
<text text-anchor="middle" x="1742.94" y="-334.98" font-family="sans-serif" font-size="16.00">VentasContext</text>
</g>
<!-- AnaliticasReportingContext&#45;&gt;VentasContext -->
<g id="edge1" class="edge">
<title>AnaliticasReportingContext&#45;&gt;VentasContext</title>
<path fill="none" stroke="black" stroke-width="2" d="M1395.98,-448.81C1474.03,-424.28 1577.56,-391.75 1651.16,-368.62"/>
<text text-anchor="middle" x="1563.44" y="-407.91" font-family="sans-serif" font-size="12.00">Partnership</text>
</g>
<!-- AutenticacionAutorizacionContext -->
<g id="node3" class="node">
<title>AutenticacionAutorizacionContext</title>
<polygon fill="none" stroke="black" stroke-width="2" points="940.06,-673 926.13,-673.95 912.08,-674.77 897.98,-675.48 883.89,-676.05 869.85,-676.49 855.92,-676.8 842.15,-676.97 828.6,-677 815.3,-676.89 802.32,-676.65 789.68,-676.27 777.44,-675.74 765.62,-675.08 754.27,-674.28 743.41,-673.35 733.07,-672.29 723.27,-671.1 714.05,-669.79 705.4,-668.35 697.36,-666.8 689.93,-665.15 683.11,-663.38 676.92,-661.52 671.35,-659.57 666.4,-657.53 662.08,-655.41 658.36,-653.23 655.25,-650.98 652.74,-648.67 650.81,-646.32 649.45,-643.93 648.64,-641.51 648.38,-639.06 648.64,-636.6 649.4,-634.14 650.65,-631.67 652.38,-629.22 654.55,-626.78 657.17,-624.37 660.2,-621.99 663.64,-619.65 667.47,-617.35 671.68,-615.11 676.24,-612.93 681.15,-610.81 686.41,-608.77 691.98,-606.8 697.88,-604.91 704.09,-603.11 710.59,-601.4 717.39,-599.78 724.48,-598.26 731.85,-596.84 739.5,-595.52 747.43,-594.31 755.62,-593.2 764.08,-592.2 772.79,-591.31 781.76,-590.53 790.98,-589.86 800.44,-589.31 810.13,-588.86 820.05,-588.52 830.19,-588.29 840.53,-588.17 851.05,-588.16 861.76,-588.26 872.63,-588.46 883.63,-588.76 894.76,-589.17 905.98,-589.68 917.27,-590.28 928.61,-590.98 939.96,-591.78 951.3,-592.67 962.59,-593.65 973.8,-594.72 984.89,-595.87 995.82,-597.1 1006.55,-598.42 1017.04,-599.81 1027.26,-601.28 1037.15,-602.82 1046.69,-604.43 1055.81,-606.1 1064.49,-607.84 1072.68,-609.64 1080.33,-611.49 1087.42,-613.4 1093.9,-615.35 1099.74,-617.36 1104.89,-619.4 1109.34,-621.48 1113.04,-623.6 1115.98,-625.74 1118.13,-627.91 1119.46,-630.1 1119.97,-632.3 1119.65,-634.52 1118.47,-636.73 1116.45,-638.95 1113.57,-641.16 1109.84,-643.36 1105.28,-645.54 1099.88,-647.7 1093.68,-649.83 1086.69,-651.92 1078.93,-653.97 1070.44,-655.97 1061.25,-657.91 1051.38,-659.8 1040.9,-661.61 1029.82,-663.36 1018.21,-665.02 1006.11,-666.6 993.57,-668.08 980.64,-669.47 967.37,-670.76 953.83,-671.93 940.06,-673"/>
<text text-anchor="middle" x="868.94" y="-627.33" font-family="sans-serif" font-size="16.00">AutenticacionAutorizacionContext</text>
</g>
<!-- CarritoComprasContext -->
<g id="node4" class="node">
<title>CarritoComprasContext</title>
<polygon fill="none" stroke="black" stroke-width="2" points="1014.39,-505.37 1009.34,-507.9 1003.92,-510.36 998.15,-512.73 992.05,-515.01 985.65,-517.18 978.96,-519.24 972.01,-521.19 964.82,-523 957.41,-524.68 949.81,-526.22 942.05,-527.61 934.13,-528.85 926.1,-529.93 917.96,-530.86 909.75,-531.62 901.48,-532.21 893.17,-532.64 884.85,-532.91 876.54,-533.01 868.25,-532.95 860.01,-532.73 851.84,-532.35 843.74,-531.82 835.75,-531.14 827.87,-530.31 820.13,-529.35 812.53,-528.25 805.1,-527.03 797.84,-525.69 790.78,-524.24 783.92,-522.68 777.28,-521.03 770.87,-519.29 764.71,-517.47 758.8,-515.58 753.15,-513.63 747.79,-511.62 742.71,-509.56 737.93,-507.47 733.46,-505.34 729.31,-503.19 725.49,-501.02 722,-498.84 718.86,-496.65 716.08,-494.46 713.66,-492.29 711.61,-490.12 709.93,-487.97 708.65,-485.85 707.76,-483.75 707.26,-481.67 707.17,-479.63 707.48,-477.63 708.21,-475.66 709.35,-473.73 710.91,-471.85 712.89,-470 715.29,-468.21 718.11,-466.45 721.34,-464.75 724.98,-463.09 729.04,-461.49 733.49,-459.93 738.35,-458.43 743.59,-456.97 749.22,-455.57 755.21,-454.23 761.55,-452.94 768.24,-451.71 775.25,-450.53 782.58,-449.42 790.19,-448.36 798.08,-447.37 806.21,-446.45 814.58,-445.6 823.15,-444.82 831.9,-444.11 840.8,-443.48 849.83,-442.93 858.96,-442.47 868.16,-442.09 877.4,-441.81 886.66,-441.62 895.9,-441.52 905.09,-441.53 914.2,-441.65 923.2,-441.87 932.06,-442.2 940.75,-442.65 949.24,-443.21 957.5,-443.89 965.51,-444.7 973.23,-445.62 980.64,-446.66 987.71,-447.83 994.42,-449.12 1000.75,-450.53 1006.67,-452.06 1012.17,-453.71 1017.22,-455.48 1021.82,-457.36 1025.94,-459.34 1029.57,-461.43 1032.71,-463.62 1035.35,-465.89 1037.47,-468.26 1039.07,-470.7 1040.16,-473.21 1040.73,-475.78 1040.78,-478.41 1040.31,-481.08 1039.34,-483.78 1037.86,-486.51 1035.89,-489.25 1033.44,-492 1030.51,-494.73 1027.13,-497.45 1023.3,-500.13 1019.05,-502.78 1014.39,-505.37"/>
<text text-anchor="middle" x="868.94" y="-480.59" font-family="sans-serif" font-size="16.00">CarritoComprasContext</text>
</g>
<!-- AutenticacionAutorizacionContext&#45;&gt;CarritoComprasContext -->
<g id="edge2" class="edge">
<title>AutenticacionAutorizacionContext&#45;&gt;CarritoComprasContext</title>
<path fill="none" stroke="black" stroke-width="2" d="M868.94,-588.27C868.94,-570.99 868.94,-550.86 868.94,-533.02"/>
<text text-anchor="middle" x="924.94" y="-554.67" font-family="sans-serif" font-size="12.00">Customer/Supplier</text>
<polygon fill="white" stroke="transparent" points="861.94,-524.02 861.94,-541.02 875.94,-541.02 875.94,-524.02 861.94,-524.02"/>
<text text-anchor="start" x="863.94" y="-529.42" font-family="sans-serif" font-size="12.00">D</text>
<polygon fill="white" stroke="transparent" points="861.94,-579.27 861.94,-596.27 875.94,-596.27 875.94,-579.27 861.94,-579.27"/>
<text text-anchor="start" x="863.94" y="-584.67" font-family="sans-serif" font-size="12.00">U</text>
</g>
<!-- CarritoComprasContext&#45;&gt;VentasContext -->
<g id="edge5" class="edge">
<title>CarritoComprasContext&#45;&gt;VentasContext</title>
<path fill="none" stroke="black" stroke-width="2" d="M1000.31,-450.42C1023.75,-445.06 1048.01,-439.85 1070.94,-435.51 1174.28,-415.94 1460.22,-377.12 1623.88,-355.41"/>
<text text-anchor="middle" x="1299.44" y="-407.91" font-family="sans-serif" font-size="12.00">Partnership</text>
</g>
<!-- GestionProductosContext -->
<g id="node5" class="node">
<title>GestionProductosContext</title>
<polygon fill="none" stroke="black" stroke-width="2" points="1065.86,-308.47 1073.87,-310.53 1081.49,-312.67 1088.66,-314.87 1095.37,-317.13 1101.59,-319.43 1107.29,-321.77 1112.44,-324.14 1117.02,-326.52 1121.01,-328.92 1124.4,-331.33 1127.17,-333.73 1129.31,-336.12 1130.81,-338.49 1131.67,-340.84 1131.88,-343.16 1131.45,-345.44 1130.37,-347.68 1128.66,-349.87 1126.32,-352.01 1123.37,-354.09 1119.82,-356.11 1115.69,-358.06 1111,-359.94 1105.78,-361.76 1100.04,-363.5 1093.81,-365.16 1087.13,-366.74 1080.02,-368.24 1072.52,-369.66 1064.65,-371 1056.46,-372.25 1047.96,-373.42 1039.21,-374.5 1030.24,-375.5 1021.07,-376.4 1011.75,-377.23 1002.31,-377.96 992.78,-378.6 983.19,-379.16 973.59,-379.63 964,-380.01 954.44,-380.3 944.96,-380.51 935.57,-380.62 926.3,-380.64 917.18,-380.58 908.23,-380.42 899.47,-380.18 890.92,-379.84 882.59,-379.41 874.5,-378.89 866.67,-378.28 859.1,-377.57 851.82,-376.77 844.82,-375.88 838.13,-374.9 831.73,-373.82 825.64,-372.66 819.87,-371.4 814.41,-370.05 809.28,-368.61 804.47,-367.08 799.98,-365.47 795.82,-363.77 791.98,-361.98 788.48,-360.12 785.3,-358.19 782.44,-356.18 779.92,-354.1 777.73,-351.95 775.87,-349.75 774.34,-347.49 773.15,-345.19 772.29,-342.84 771.77,-340.45 771.59,-338.04 771.76,-335.6 772.28,-333.15 773.14,-330.69 774.36,-328.23 775.94,-325.79 777.88,-323.35 780.19,-320.95 782.87,-318.58 785.92,-316.26 789.34,-313.98 793.14,-311.77 797.32,-309.63 801.88,-307.57 806.82,-305.59 812.14,-303.71 817.83,-301.93 823.89,-300.27 830.32,-298.72 837.1,-297.29 844.24,-295.99 851.71,-294.83 859.51,-293.8 867.62,-292.93 876.03,-292.2 884.71,-291.62 893.65,-291.19 902.83,-290.92 912.22,-290.81 921.79,-290.85 931.52,-291.05 941.38,-291.4 951.34,-291.91 961.37,-292.57 971.43,-293.38 981.49,-294.33 991.51,-295.42 1001.45,-296.64 1011.28,-297.99 1020.97,-299.47 1030.47,-301.07 1039.74,-302.77 1048.76,-304.58 1057.48,-306.48 1065.86,-308.47"/>
<text text-anchor="middle" x="937.94" y="-334.98" font-family="sans-serif" font-size="16.00">GestionProductosContext</text>
</g>
<!-- CarritoComprasContext&#45;&gt;GestionProductosContext -->
<g id="edge3" class="edge">
<title>CarritoComprasContext&#45;&gt;GestionProductosContext</title>
<path fill="none" stroke="black" stroke-width="2" d="M912.15,-441.28C917.9,-433.85 923.12,-425.82 926.94,-417.51 932.12,-406.24 935.01,-393.16 936.58,-380.98"/>
<text text-anchor="middle" x="987.94" y="-407.91" font-family="sans-serif" font-size="12.00">Customer/Supplier</text>
<polygon fill="white" stroke="transparent" points="929.58,-371.98 929.58,-388.98 943.58,-388.98 943.58,-371.98 929.58,-371.98"/>
<text text-anchor="start" x="931.58" y="-377.38" font-family="sans-serif" font-size="12.00">D</text>
<polygon fill="white" stroke="transparent" points="905.15,-432.28 905.15,-449.28 919.15,-449.28 919.15,-432.28 905.15,-432.28"/>
<text text-anchor="start" x="907.15" y="-437.68" font-family="sans-serif" font-size="12.00">U</text>
</g>
<!-- GestionClientesContext -->
<g id="node8" class="node">
<title>GestionClientesContext</title>
<polygon fill="none" stroke="black" stroke-width="2" points="681.51,-205.09 678.93,-207.87 675.92,-210.6 672.49,-213.27 668.65,-215.87 664.42,-218.39 659.82,-220.82 654.85,-223.15 649.52,-225.37 643.87,-227.47 637.9,-229.45 631.63,-231.29 625.08,-233 618.26,-234.56 611.2,-235.98 603.92,-237.24 596.43,-238.35 588.75,-239.3 580.91,-240.09 572.93,-240.71 564.82,-241.19 556.61,-241.5 548.32,-241.65 539.97,-241.65 531.58,-241.5 523.17,-241.21 514.76,-240.77 506.37,-240.19 498.03,-239.48 489.75,-238.64 481.55,-237.68 473.46,-236.61 465.5,-235.43 457.68,-234.16 450.02,-232.78 442.54,-231.33 435.26,-229.79 428.21,-228.19 421.38,-226.51 414.82,-224.79 408.52,-223.01 402.51,-221.18 396.81,-219.32 391.42,-217.43 386.36,-215.51 381.65,-213.56 377.3,-211.61 373.32,-209.64 369.73,-207.66 366.53,-205.68 363.73,-203.69 361.35,-201.72 359.39,-199.74 357.85,-197.78 356.76,-195.82 356.1,-193.88 355.88,-191.95 356.11,-190.03 356.79,-188.14 357.92,-186.26 359.5,-184.4 361.52,-182.56 363.99,-180.74 366.89,-178.95 370.23,-177.17 373.99,-175.43 378.17,-173.71 382.76,-172.02 387.74,-170.37 393.1,-168.74 398.84,-167.16 404.93,-165.61 411.37,-164.1 418.12,-162.63 425.18,-161.22 432.52,-159.86 440.13,-158.55 447.99,-157.31 456.06,-156.13 464.33,-155.02 472.78,-153.99 481.37,-153.03 490.09,-152.17 498.91,-151.39 507.8,-150.71 516.74,-150.13 525.69,-149.66 534.64,-149.3 543.56,-149.06 552.41,-148.94 561.18,-148.94 569.83,-149.07 578.35,-149.34 586.7,-149.74 594.85,-150.28 602.8,-150.97 610.5,-151.79 617.94,-152.75 625.1,-153.86 631.96,-155.11 638.49,-156.5 644.67,-158.03 650.5,-159.69 655.95,-161.48 661.01,-163.41 665.65,-165.45 669.89,-167.6 673.69,-169.87 677.05,-172.24 679.96,-174.7 682.42,-177.24 684.41,-179.87 685.95,-182.55 687.02,-185.29 687.62,-188.08 687.75,-190.9 687.42,-193.74 686.62,-196.59 685.37,-199.44 683.66,-202.28 681.51,-205.09"/>
<text text-anchor="middle" x="520.94" y="-190.23" font-family="sans-serif" font-size="16.00">GestionClientesContext</text>
</g>
<!-- CarritoComprasContext&#45;&gt;GestionClientesContext -->
<g id="edge4" class="edge">
<title>CarritoComprasContext&#45;&gt;GestionClientesContext</title>
<path fill="none" stroke="black" stroke-width="2" d="M746.41,-456.11C703.1,-441.43 656.79,-419.35 622.94,-386.51 589.79,-354.36 603.5,-331.88 581.94,-291.04 573.27,-274.63 562.74,-257.32 552.89,-241.99"/>
<text text-anchor="middle" x="678.94" y="-335.68" font-family="sans-serif" font-size="12.00">Customer/Supplier</text>
<polygon fill="white" stroke="transparent" points="545.89,-232.99 545.89,-249.99 559.89,-249.99 559.89,-232.99 545.89,-232.99"/>
<text text-anchor="start" x="547.89" y="-238.39" font-family="sans-serif" font-size="12.00">D</text>
<polygon fill="white" stroke="transparent" points="739.41,-447.11 739.41,-464.11 753.41,-464.11 753.41,-447.11 739.41,-447.11"/>
<text text-anchor="start" x="741.41" y="-452.51" font-family="sans-serif" font-size="12.00">U</text>
</g>
<!-- GestionProductosContext&#45;&gt;CarritoComprasContext -->
<g id="edge6" class="edge">
<title>GestionProductosContext&#45;&gt;CarritoComprasContext</title>
<path fill="none" stroke="black" stroke-width="2" d="M839.46,-375.15C828.15,-383.12 818.11,-392.8 810.94,-404.51 802.59,-418.14 808.19,-432.39 818.63,-444.97"/>
<text text-anchor="middle" x="866.94" y="-407.91" font-family="sans-serif" font-size="12.00">Customer/Supplier</text>
<polygon fill="white" stroke="transparent" points="811.63,-435.97 811.63,-452.97 825.63,-452.97 825.63,-435.97 811.63,-435.97"/>
<text text-anchor="start" x="813.63" y="-441.37" font-family="sans-serif" font-size="12.00">D</text>
<polygon fill="white" stroke="transparent" points="832.46,-366.15 832.46,-383.15 846.46,-383.15 846.46,-366.15 832.46,-366.15"/>
<text text-anchor="start" x="834.46" y="-371.55" font-family="sans-serif" font-size="12.00">U</text>
</g>
<!-- GestionDevolucionesContext -->
<g id="node6" class="node">
<title>GestionDevolucionesContext</title>
<polygon fill="none" stroke="black" stroke-width="2" points="997.58,-153.61 1009.5,-154.67 1021.14,-155.84 1032.44,-157.11 1043.37,-158.47 1053.88,-159.93 1063.92,-161.47 1073.46,-163.09 1082.46,-164.79 1090.88,-166.56 1098.69,-168.4 1105.86,-170.29 1112.37,-172.24 1118.2,-174.24 1123.32,-176.28 1127.73,-178.36 1131.42,-180.47 1134.37,-182.61 1136.59,-184.77 1138.08,-186.94 1138.83,-189.13 1138.86,-191.32 1138.19,-193.5 1136.82,-195.69 1134.77,-197.86 1132.06,-200.02 1128.71,-202.15 1124.76,-204.26 1120.23,-206.34 1115.15,-208.39 1109.54,-210.4 1103.44,-212.36 1096.89,-214.28 1089.92,-216.15 1082.57,-217.96 1074.86,-219.71 1066.83,-221.4 1058.53,-223.02 1049.97,-224.57 1041.21,-226.04 1032.26,-227.44 1023.16,-228.76 1013.94,-229.99 1004.63,-231.13 995.26,-232.19 985.85,-233.15 976.43,-234.01 967.01,-234.77 957.63,-235.44 948.29,-236 939.02,-236.45 929.82,-236.8 920.73,-237.04 911.73,-237.16 902.86,-237.18 894.11,-237.08 885.49,-236.87 877.02,-236.54 868.7,-236.1 860.53,-235.54 852.52,-234.87 844.68,-234.09 837,-233.19 829.5,-232.18 822.18,-231.06 815.04,-229.84 808.1,-228.5 801.34,-227.07 794.8,-225.54 788.46,-223.91 782.35,-222.19 776.46,-220.38 770.82,-218.49 765.42,-216.52 760.3,-214.48 755.45,-212.37 750.9,-210.2 746.66,-207.98 742.75,-205.7 739.18,-203.39 735.97,-201.04 733.15,-198.66 730.73,-196.26 728.74,-193.85 727.18,-191.43 726.08,-189.01 725.46,-186.61 725.34,-184.22 725.73,-181.85 726.65,-179.52 728.11,-177.23 730.13,-174.99 732.72,-172.8 735.88,-170.68 739.63,-168.62 743.97,-166.64 748.9,-164.74 754.42,-162.93 760.52,-161.21 767.21,-159.6 774.46,-158.08 782.27,-156.68 790.62,-155.39 799.49,-154.21 808.87,-153.16 818.71,-152.23 829,-151.43 839.7,-150.75 850.78,-150.2 862.2,-149.78 873.93,-149.49 885.91,-149.34 898.1,-149.31 910.46,-149.41 922.95,-149.64 935.5,-150 948.08,-150.48 960.63,-151.09 973.09,-151.81 985.43,-152.65 997.58,-153.61"/>
<text text-anchor="middle" x="921.94" y="-190.23" font-family="sans-serif" font-size="16.00">GestionDevolucionesContext</text>
</g>
<!-- GestionProductosContext&#45;&gt;GestionDevolucionesContext -->
<g id="edge7" class="edge">
<title>GestionProductosContext&#45;&gt;GestionDevolucionesContext</title>
<path fill="none" stroke="black" stroke-width="2" d="M932.7,-291.04C930.75,-273.63 928.55,-254.01 926.65,-237.05"/>
<text text-anchor="middle" x="1006.44" y="-263.44" font-family="sans-serif" font-size="12.00"> &#160;&#160;&#160;&#160;&#160;&#160;&#160;&#160;&#160;&#160;&#160;&#160;&#160;&#160;&#160;&#160;&#160;&#160;&#160;&#160;&#160;&#160;&#160;&#160;&#160;&#160;&#160;&#160;&#160;&#160;&#160;&#160;&#160;&#160;&#160;&#160;&#160;&#160;&#160;</text>
<polygon fill="white" stroke="transparent" points="907.65,-227.05 907.65,-246.05 923.65,-246.05 923.65,-227.05 907.65,-227.05"/>
<polyline fill="none" stroke="black" points="923.65,-227.05 923.65,-246.05 "/>
<text text-anchor="start" x="910.65" y="-233.45" font-family="sans-serif" font-size="12.00">D</text>
<polygon fill="white" stroke="transparent" points="923.65,-227.05 923.65,-246.05 945.65,-246.05 945.65,-227.05 923.65,-227.05"/>
<polygon fill="none" stroke="black" points="923.65,-227.05 923.65,-246.05 945.65,-246.05 945.65,-227.05 923.65,-227.05"/>
<text text-anchor="start" x="926.65" y="-233.45" font-family="sans-serif" font-size="12.00">CF</text>
<polygon fill="white" stroke="transparent" points="897.7,-281.04 897.7,-300.04 913.7,-300.04 913.7,-281.04 897.7,-281.04"/>
<polyline fill="none" stroke="black" points="913.7,-281.04 913.7,-300.04 "/>
<text text-anchor="start" x="900.7" y="-287.44" font-family="sans-serif" font-size="12.00">U</text>
<polygon fill="white" stroke="transparent" points="913.7,-281.04 913.7,-300.04 968.7,-300.04 968.7,-281.04 913.7,-281.04"/>
<polygon fill="none" stroke="black" points="913.7,-281.04 913.7,-300.04 968.7,-300.04 968.7,-281.04 913.7,-281.04"/>
<text text-anchor="start" x="916.7" y="-287.44" font-family="sans-serif" font-size="12.00">OHS, PL</text>
</g>
<!-- GestionProductosContext&#45;&gt;GestionClientesContext -->
<g id="edge8" class="edge">
<title>GestionProductosContext&#45;&gt;GestionClientesContext</title>
<path fill="none" stroke="black" stroke-width="2" d="M826.46,-299.62C765.3,-278.68 689.81,-252.84 629.17,-232.08"/>
<text text-anchor="middle" x="784.94" y="-263.44" font-family="sans-serif" font-size="12.00">Shared Kernel</text>
</g>
<!-- GestionPedidosContext -->
<g id="node7" class="node">
<title>GestionPedidosContext</title>
<polygon fill="none" stroke="black" stroke-width="2" points="1073.55,-39.85 1075.81,-42.66 1077.62,-45.47 1078.96,-48.28 1079.82,-51.07 1080.21,-53.84 1080.11,-56.56 1079.52,-59.24 1078.44,-61.86 1076.88,-64.42 1074.83,-66.9 1072.29,-69.29 1069.28,-71.59 1065.8,-73.79 1061.86,-75.89 1057.47,-77.87 1052.64,-79.74 1047.39,-81.49 1041.73,-83.11 1035.68,-84.6 1029.26,-85.97 1022.49,-87.2 1015.38,-88.31 1007.98,-89.28 1000.28,-90.11 992.33,-90.82 984.15,-91.4 975.76,-91.85 967.2,-92.18 958.48,-92.39 949.64,-92.47 940.7,-92.45 931.7,-92.31 922.66,-92.06 913.62,-91.71 904.6,-91.27 895.62,-90.73 886.72,-90.09 877.93,-89.38 869.27,-88.58 860.76,-87.7 852.44,-86.76 844.32,-85.74 836.43,-84.65 828.79,-83.51 821.43,-82.3 814.36,-81.04 807.59,-79.72 801.16,-78.36 795.07,-76.94 789.33,-75.48 783.97,-73.97 778.99,-72.41 774.41,-70.82 770.22,-69.18 766.45,-67.5 763.09,-65.78 760.16,-64.03 757.65,-62.24 755.57,-60.41 753.91,-58.55 752.69,-56.66 751.89,-54.73 751.52,-52.77 751.58,-50.79 752.05,-48.78 752.94,-46.74 754.24,-44.69 755.94,-42.61 758.04,-40.52 760.52,-38.43 763.38,-36.32 766.61,-34.21 770.21,-32.11 774.15,-30.01 778.43,-27.93 783.04,-25.87 787.96,-23.83 793.19,-21.83 798.7,-19.87 804.5,-17.96 810.56,-16.1 816.87,-14.31 823.42,-12.58 830.2,-10.94 837.18,-9.38 844.35,-7.91 851.7,-6.55 859.21,-5.3 866.87,-4.16 874.65,-3.15 882.55,-2.26 890.54,-1.52 898.6,-0.91 906.73,-0.45 914.89,-0.15 923.08,0.01 931.27,-0 939.44,-0.17 947.57,-0.5 955.64,-1 963.64,-1.66 971.53,-2.48 979.31,-3.47 986.95,-4.62 994.42,-5.92 1001.72,-7.38 1008.81,-8.98 1015.67,-10.73 1022.3,-12.61 1028.65,-14.62 1034.73,-16.75 1040.5,-19 1045.94,-21.35 1051.04,-23.79 1055.79,-26.32 1060.15,-28.92 1064.13,-31.59 1067.69,-34.31 1070.84,-37.07 1073.55,-39.85"/>
<text text-anchor="middle" x="912.94" y="-44.71" font-family="sans-serif" font-size="16.00">GestionPedidosContext</text>
</g>
<!-- GestionDevolucionesContext&#45;&gt;GestionPedidosContext -->
<g id="edge9" class="edge">
<title>GestionDevolucionesContext&#45;&gt;GestionPedidosContext</title>
<path fill="none" stroke="black" stroke-width="2" d="M861.35,-149.71C855.56,-143.11 850.52,-135.85 846.94,-128.01 840.28,-113.43 846.46,-99.4 857.28,-87.34"/>
<text text-anchor="middle" x="902.94" y="-118.41" font-family="sans-serif" font-size="12.00">Customer/Supplier</text>
<polygon fill="white" stroke="transparent" points="850.28,-78.34 850.28,-95.34 864.28,-95.34 864.28,-78.34 850.28,-78.34"/>
<text text-anchor="start" x="852.28" y="-83.74" font-family="sans-serif" font-size="12.00">D</text>
<polygon fill="white" stroke="transparent" points="854.35,-140.71 854.35,-157.71 868.35,-157.71 868.35,-140.71 854.35,-140.71"/>
<text text-anchor="start" x="856.35" y="-146.11" font-family="sans-serif" font-size="12.00">U</text>
</g>
<!-- GestionPedidosContext&#45;&gt;CarritoComprasContext -->
<g id="edge11" class="edge">
<title>GestionPedidosContext&#45;&gt;CarritoComprasContext</title>
<path fill="none" stroke="black" stroke-width="2" d="M1057.18,-78.05C1092.86,-92.35 1126.86,-113.82 1147.94,-146.01 1206.5,-235.48 1204.67,-300.65 1140.94,-386.51 1123.01,-410.66 1062.13,-433.46 1002.49,-450.87"/>
<text text-anchor="middle" x="1246.94" y="-263.44" font-family="sans-serif" font-size="12.00">Customer/Supplier</text>
<polygon fill="white" stroke="transparent" points="995.49,-441.87 995.49,-458.87 1009.49,-458.87 1009.49,-441.87 995.49,-441.87"/>
<text text-anchor="start" x="997.49" y="-447.27" font-family="sans-serif" font-size="12.00">D</text>
<polygon fill="white" stroke="transparent" points="1050.18,-69.05 1050.18,-86.05 1064.18,-86.05 1064.18,-69.05 1050.18,-69.05"/>
<text text-anchor="start" x="1052.18" y="-74.45" font-family="sans-serif" font-size="12.00">U</text>
</g>
<!-- GestionPedidosContext&#45;&gt;GestionDevolucionesContext -->
<g id="edge10" class="edge">
<title>GestionPedidosContext&#45;&gt;GestionDevolucionesContext</title>
<path fill="none" stroke="black" stroke-width="2" d="M948.56,-92.66C952.82,-99.76 956.51,-107.33 958.94,-115.01 962.69,-126.88 960.12,-139.25 954.93,-150.55"/>
<text text-anchor="middle" x="1016.94" y="-118.41" font-family="sans-serif" font-size="12.00">Customer/Supplier</text>
<polygon fill="white" stroke="transparent" points="947.93,-141.55 947.93,-158.55 961.93,-158.55 961.93,-141.55 947.93,-141.55"/>
<text text-anchor="start" x="949.93" y="-146.95" font-family="sans-serif" font-size="12.00">D</text>
<polygon fill="white" stroke="transparent" points="941.56,-83.66 941.56,-100.66 955.56,-100.66 955.56,-83.66 941.56,-83.66"/>
<text text-anchor="start" x="943.56" y="-89.06" font-family="sans-serif" font-size="12.00">U</text>
</g>
<!-- GestionClientesContext&#45;&gt;CarritoComprasContext -->
<g id="edge12" class="edge">
<title>GestionClientesContext&#45;&gt;CarritoComprasContext</title>
<path fill="none" stroke="black" stroke-width="2" d="M488.06,-238.86C460.99,-280.71 432.11,-343.59 465.94,-386.51 497.42,-426.46 617.04,-451.83 717.84,-466.55"/>
<text text-anchor="middle" x="521.94" y="-335.68" font-family="sans-serif" font-size="12.00">Customer/Supplier</text>
<polygon fill="white" stroke="transparent" points="710.84,-457.55 710.84,-474.55 724.84,-474.55 724.84,-457.55 710.84,-457.55"/>
<text text-anchor="start" x="712.84" y="-462.95" font-family="sans-serif" font-size="12.00">D</text>
<polygon fill="white" stroke="transparent" points="481.06,-229.86 481.06,-246.86 495.06,-246.86 495.06,-229.86 481.06,-229.86"/>
<text text-anchor="start" x="483.06" y="-235.26" font-family="sans-serif" font-size="12.00">U</text>
</g>
<!-- GestionSesionesContext -->
<g id="node9" class="node">
<title>GestionSesionesContext</title>
<polygon fill="none" stroke="black" stroke-width="2" points="3204.19,-615.9 3208.2,-618.56 3211.75,-621.26 3214.82,-623.97 3217.4,-626.68 3219.46,-629.39 3221.01,-632.08 3222.03,-634.74 3222.51,-637.37 3222.46,-639.95 3221.85,-642.47 3220.71,-644.93 3219.01,-647.33 3216.78,-649.64 3214.01,-651.87 3210.71,-654.01 3206.9,-656.05 3202.58,-657.99 3197.76,-659.82 3192.47,-661.55 3186.72,-663.16 3180.53,-664.66 3173.93,-666.04 3166.92,-667.31 3159.55,-668.45 3151.84,-669.48 3143.81,-670.4 3135.49,-671.19 3126.92,-671.87 3118.11,-672.44 3109.11,-672.89 3099.94,-673.24 3090.64,-673.48 3081.24,-673.62 3071.77,-673.65 3062.25,-673.59 3052.74,-673.43 3043.24,-673.18 3033.8,-672.85 3024.45,-672.42 3015.21,-671.92 3006.11,-671.33 2997.18,-670.67 2988.45,-669.93 2979.93,-669.12 2971.66,-668.24 2963.65,-667.3 2955.93,-666.28 2948.51,-665.2 2941.42,-664.06 2934.66,-662.86 2928.26,-661.6 2922.22,-660.28 2916.56,-658.9 2911.28,-657.46 2906.4,-655.97 2901.93,-654.42 2897.86,-652.81 2894.21,-651.15 2890.97,-649.44 2888.15,-647.68 2885.75,-645.86 2883.77,-644 2882.21,-642.09 2881.07,-640.13 2880.34,-638.13 2880.02,-636.09 2880.1,-634.01 2880.59,-631.9 2881.47,-629.75 2882.75,-627.58 2884.41,-625.39 2886.44,-623.18 2888.85,-620.96 2891.62,-618.73 2894.74,-616.5 2898.21,-614.28 2902.02,-612.07 2906.17,-609.88 2910.63,-607.72 2915.41,-605.59 2920.5,-603.51 2925.88,-601.48 2931.54,-599.51 2937.48,-597.6 2943.69,-595.77 2950.15,-594.03 2956.85,-592.38 2963.78,-590.83 2970.94,-589.39 2978.3,-588.07 2985.85,-586.87 2993.58,-585.8 3001.47,-584.86 3009.52,-584.07 3017.69,-583.43 3025.99,-582.94 3034.37,-582.6 3042.84,-582.43 3051.37,-582.41 3059.94,-582.57 3068.53,-582.88 3077.11,-583.36 3085.68,-584.01 3094.19,-584.82 3102.63,-585.79 3110.98,-586.92 3119.22,-588.2 3127.31,-589.63 3135.23,-591.21 3142.95,-592.92 3150.46,-594.77 3157.73,-596.74 3164.73,-598.83 3171.43,-601.02 3177.82,-603.31 3183.86,-605.69 3189.55,-608.15 3194.84,-610.68 3199.73,-613.26 3204.19,-615.9"/>
<text text-anchor="middle" x="3044.94" y="-627.33" font-family="sans-serif" font-size="16.00">GestionSesionesContext</text>
</g>
<!-- SeguridadContext -->
<g id="node10" class="node">
<title>SeguridadContext</title>
<polygon fill="none" stroke="black" stroke-width="2" points="2910.67,-478.55 2911.71,-475.71 2913.13,-472.89 2914.9,-470.12 2917.02,-467.41 2919.5,-464.76 2922.31,-462.2 2925.46,-459.72 2928.93,-457.33 2932.72,-455.06 2936.81,-452.9 2941.2,-450.86 2945.86,-448.95 2950.79,-447.17 2955.98,-445.53 2961.4,-444.04 2967.05,-442.7 2972.91,-441.51 2978.97,-440.47 2985.2,-439.58 2991.59,-438.85 2998.12,-438.28 3004.78,-437.86 3011.55,-437.59 3018.41,-437.47 3025.33,-437.49 3032.31,-437.66 3039.32,-437.96 3046.35,-438.4 3053.37,-438.97 3060.37,-439.66 3067.33,-440.46 3074.23,-441.38 3081.05,-442.4 3087.77,-443.52 3094.38,-444.73 3100.86,-446.02 3107.18,-447.39 3113.34,-448.84 3119.31,-450.35 3125.08,-451.92 3130.64,-453.54 3135.96,-455.21 3141.04,-456.92 3145.86,-458.67 3150.41,-460.45 3154.68,-462.26 3158.64,-464.09 3162.3,-465.95 3165.64,-467.82 3168.66,-469.7 3171.33,-471.59 3173.67,-473.5 3175.65,-475.4 3177.28,-477.32 3178.54,-479.23 3179.45,-481.14 3179.98,-483.06 3180.15,-484.97 3179.94,-486.88 3179.36,-488.78 3178.42,-490.67 3177.11,-492.56 3175.43,-494.44 3173.4,-496.31 3171.01,-498.17 3168.27,-500.02 3165.19,-501.85 3161.78,-503.66 3158.04,-505.45 3154,-507.21 3149.64,-508.95 3145,-510.66 3140.08,-512.34 3134.9,-513.97 3129.46,-515.56 3123.79,-517.11 3117.89,-518.6 3111.8,-520.04 3105.52,-521.41 3099.06,-522.71 3092.46,-523.93 3085.72,-525.08 3078.87,-526.14 3071.92,-527.1 3064.9,-527.96 3057.82,-528.72 3050.71,-529.37 3043.58,-529.9 3036.45,-530.3 3029.34,-530.58 3022.28,-530.73 3015.28,-530.74 3008.37,-530.6 3001.55,-530.33 2994.86,-529.91 2988.31,-529.34 2981.92,-528.61 2975.7,-527.74 2969.67,-526.72 2963.86,-525.55 2958.27,-524.22 2952.92,-522.76 2947.83,-521.15 2943.01,-519.4 2938.47,-517.51 2934.23,-515.5 2930.3,-513.37 2926.68,-511.12 2923.39,-508.76 2920.44,-506.31 2917.83,-503.76 2915.58,-501.14 2913.68,-498.44 2912.14,-495.69 2910.97,-492.89 2910.17,-490.05 2909.74,-487.18 2909.68,-484.3 2909.99,-481.42 2910.67,-478.55"/>
<text text-anchor="middle" x="3044.94" y="-480.59" font-family="sans-serif" font-size="16.00">SeguridadContext</text>
</g>
<!-- GestionSesionesContext&#45;&gt;SeguridadContext -->
<g id="edge13" class="edge">
<title>GestionSesionesContext&#45;&gt;SeguridadContext</title>
<path fill="none" stroke="black" stroke-width="2" d="M2984.32,-586.67C2976.42,-575.93 2972.66,-563.87 2977.94,-551.27 2981.15,-543.6 2985.75,-536.37 2991.04,-529.71"/>
<text text-anchor="middle" x="3033.94" y="-554.67" font-family="sans-serif" font-size="12.00">Customer/Supplier</text>
<polygon fill="white" stroke="transparent" points="2984.04,-520.71 2984.04,-537.71 2998.04,-537.71 2998.04,-520.71 2984.04,-520.71"/>
<text text-anchor="start" x="2986.04" y="-526.11" font-family="sans-serif" font-size="12.00">D</text>
<polygon fill="white" stroke="transparent" points="2977.32,-577.67 2977.32,-594.67 2991.32,-594.67 2991.32,-577.67 2977.32,-577.67"/>
<text text-anchor="start" x="2979.32" y="-583.07" font-family="sans-serif" font-size="12.00">U</text>
</g>
<!-- SeguridadContext&#45;&gt;GestionSesionesContext -->
<g id="edge14" class="edge">
<title>SeguridadContext&#45;&gt;GestionSesionesContext</title>
<path fill="none" stroke="black" stroke-width="2" d="M3082.93,-525.59C3090,-537.56 3094.03,-551.02 3089.94,-564.27 3087.89,-570.89 3084.93,-577.43 3081.49,-583.68"/>
<text text-anchor="middle" x="3146.94" y="-554.67" font-family="sans-serif" font-size="12.00">Customer/Supplier</text>
<polygon fill="white" stroke="transparent" points="3074.49,-574.68 3074.49,-591.68 3088.49,-591.68 3088.49,-574.68 3074.49,-574.68"/>
<text text-anchor="start" x="3076.49" y="-580.08" font-family="sans-serif" font-size="12.00">D</text>
<polygon fill="white" stroke="transparent" points="3075.93,-516.59 3075.93,-533.59 3089.93,-533.59 3089.93,-516.59 3075.93,-516.59"/>
<text text-anchor="start" x="3077.93" y="-521.99" font-family="sans-serif" font-size="12.00">U</text>
</g>
<!-- IntegracionRedesSocialesContext -->
<g id="node11" class="node">
<title>IntegracionRedesSocialesContext</title>
<polygon fill="none" stroke="black" stroke-width="2" points="1949.96,-468.43 1955.45,-471.08 1960.33,-473.76 1964.59,-476.46 1968.2,-479.16 1971.14,-481.86 1973.4,-484.54 1974.97,-487.2 1975.84,-489.83 1975.99,-492.41 1975.42,-494.94 1974.14,-497.41 1972.14,-499.81 1969.42,-502.13 1966,-504.37 1961.87,-506.53 1957.06,-508.58 1951.58,-510.54 1945.44,-512.4 1938.67,-514.15 1931.29,-515.79 1923.32,-517.32 1914.8,-518.73 1905.75,-520.03 1896.21,-521.21 1886.21,-522.27 1875.78,-523.22 1864.97,-524.05 1853.81,-524.77 1842.34,-525.38 1830.6,-525.88 1818.64,-526.26 1806.49,-526.55 1794.2,-526.73 1781.81,-526.8 1769.35,-526.78 1756.89,-526.67 1744.44,-526.46 1732.06,-526.17 1719.79,-525.79 1707.65,-525.32 1695.69,-524.78 1683.95,-524.15 1672.46,-523.46 1661.25,-522.68 1650.35,-521.84 1639.79,-520.93 1629.59,-519.95 1619.79,-518.91 1610.41,-517.8 1601.46,-516.63 1592.97,-515.39 1584.95,-514.1 1577.42,-512.74 1570.39,-511.33 1563.87,-509.86 1557.88,-508.33 1552.42,-506.74 1547.49,-505.1 1543.1,-503.4 1539.26,-501.65 1535.96,-499.84 1533.2,-497.99 1530.99,-496.08 1529.32,-494.13 1528.19,-492.13 1527.59,-490.09 1527.52,-488.01 1527.97,-485.9 1528.93,-483.75 1530.41,-481.57 1532.38,-479.37 1534.85,-477.15 1537.8,-474.92 1541.23,-472.67 1545.12,-470.43 1549.46,-468.19 1554.26,-465.96 1559.48,-463.76 1565.13,-461.57 1571.2,-459.43 1577.67,-457.32 1584.53,-455.26 1591.76,-453.27 1599.37,-451.33 1607.33,-449.48 1615.62,-447.71 1624.25,-446.03 1633.18,-444.45 1642.42,-442.97 1651.93,-441.62 1661.7,-440.38 1671.72,-439.28 1681.97,-438.31 1692.43,-437.48 1703.07,-436.8 1713.87,-436.27 1724.82,-435.89 1735.88,-435.68 1747.04,-435.63 1758.27,-435.74 1769.53,-436.02 1780.81,-436.46 1792.07,-437.07 1803.28,-437.84 1814.41,-438.77 1825.44,-439.87 1836.32,-441.11 1847.04,-442.51 1857.54,-444.05 1867.8,-445.73 1877.79,-447.54 1887.47,-449.48 1896.81,-451.54 1905.78,-453.7 1914.34,-455.96 1922.46,-458.32 1930.11,-460.75 1937.27,-463.26 1943.89,-465.82 1949.96,-468.43"/>
<text text-anchor="middle" x="1742.94" y="-480.59" font-family="sans-serif" font-size="16.00">IntegracionRedesSocialesContext</text>
</g>
<!-- IntegracionRedesSocialesContext&#45;&gt;VentasContext -->
<g id="edge15" class="edge">
<title>IntegracionRedesSocialesContext&#45;&gt;VentasContext</title>
<path fill="none" stroke="black" stroke-width="2" d="M1742.94,-435.57C1742.94,-418.76 1742.94,-399.97 1742.94,-383.52"/>
<text text-anchor="middle" x="1777.44" y="-407.91" font-family="sans-serif" font-size="12.00">Partnership</text>
</g>
<!-- NotificacionesComunicacionesContext -->
<g id="node12" class="node">
<title>NotificacionesComunicacionesContext</title>
<polygon fill="none" stroke="black" stroke-width="2" points="2036.46,-462.74 2044.33,-460.23 2052.76,-457.8 2061.71,-455.45 2071.14,-453.2 2081.03,-451.05 2091.33,-449.02 2102.02,-447.11 2113.05,-445.32 2124.4,-443.68 2136.02,-442.17 2147.89,-440.82 2159.95,-439.62 2172.19,-438.57 2184.57,-437.69 2197.04,-436.96 2209.59,-436.4 2222.17,-436.01 2234.75,-435.78 2247.31,-435.72 2259.81,-435.82 2272.23,-436.08 2284.54,-436.5 2296.7,-437.07 2308.7,-437.78 2320.51,-438.64 2332.11,-439.64 2343.46,-440.78 2354.56,-442.03 2365.38,-443.41 2375.9,-444.89 2386.1,-446.48 2395.95,-448.16 2405.45,-449.93 2414.58,-451.78 2423.31,-453.7 2431.64,-455.68 2439.54,-457.71 2447,-459.79 2454,-461.91 2460.54,-464.06 2466.59,-466.23 2472.14,-468.42 2477.19,-470.62 2481.71,-472.82 2485.7,-475.02 2489.13,-477.21 2492.01,-479.39 2494.32,-481.54 2496.05,-483.68 2497.19,-485.78 2497.73,-487.86 2497.66,-489.9 2496.99,-491.91 2495.69,-493.87 2493.77,-495.79 2491.23,-497.67 2488.06,-499.51 2484.26,-501.3 2479.84,-503.03 2474.79,-504.72 2469.12,-506.36 2462.84,-507.95 2455.96,-509.49 2448.48,-510.97 2440.42,-512.4 2431.79,-513.78 2422.61,-515.09 2412.9,-516.36 2402.68,-517.56 2391.98,-518.7 2380.81,-519.78 2369.21,-520.8 2357.21,-521.75 2344.84,-522.64 2332.13,-523.45 2319.11,-524.2 2305.83,-524.86 2292.33,-525.45 2278.64,-525.96 2264.82,-526.38 2250.89,-526.72 2236.91,-526.96 2222.92,-527.11 2208.96,-527.16 2195.09,-527.1 2181.35,-526.95 2167.78,-526.68 2154.44,-526.31 2141.37,-525.82 2128.6,-525.22 2116.2,-524.5 2104.2,-523.66 2092.63,-522.7 2081.55,-521.62 2071,-520.42 2060.99,-519.1 2051.58,-517.66 2042.8,-516.1 2034.66,-514.42 2027.21,-512.63 2020.46,-510.74 2014.44,-508.73 2009.16,-506.63 2004.63,-504.42 2000.89,-502.13 1997.92,-499.76 1995.74,-497.31 1994.35,-494.79 1993.75,-492.21 1993.93,-489.59 1994.9,-486.92 1996.64,-484.22 1999.15,-481.49 2002.4,-478.76 2006.37,-476.03 2011.06,-473.31 2016.44,-470.6 2022.48,-467.93 2029.17,-465.31 2036.46,-462.74"/>
<text text-anchor="middle" x="2253.94" y="-480.59" font-family="sans-serif" font-size="16.00">NotificacionesComunicacionesContext</text>
</g>
<!-- NotificacionesComunicacionesContext&#45;&gt;VentasContext -->
<g id="edge16" class="edge">
<title>NotificacionesComunicacionesContext&#45;&gt;VentasContext</title>
<path fill="none" stroke="black" stroke-width="2" d="M2116.33,-444.72C2030.45,-420.58 1921.82,-390.05 1843.9,-368.15"/>
<text text-anchor="middle" x="2048.44" y="-407.91" font-family="sans-serif" font-size="12.00">Partnership</text>
</g>
<!-- ProcesoPagosContext -->
<g id="node13" class="node">
<title>ProcesoPagosContext</title>
<polygon fill="none" stroke="black" stroke-width="2" points="51.35,-222.49 44.76,-220.32 38.54,-218.1 32.7,-215.82 27.28,-213.49 22.3,-211.12 17.78,-208.72 13.74,-206.3 10.19,-203.87 7.16,-201.43 4.65,-199 2.68,-196.57 1.25,-194.17 0.38,-191.79 0.06,-189.44 0.3,-187.14 1.09,-184.87 2.43,-182.66 4.32,-180.51 6.73,-178.41 9.67,-176.38 13.12,-174.42 17.06,-172.54 21.48,-170.72 26.34,-168.99 31.64,-167.34 37.35,-165.77 43.44,-164.28 49.89,-162.88 56.66,-161.57 63.74,-160.34 71.08,-159.2 78.67,-158.15 86.46,-157.19 94.44,-156.32 102.57,-155.54 110.81,-154.84 119.14,-154.24 127.54,-153.72 135.96,-153.29 144.38,-152.95 152.78,-152.7 161.13,-152.53 169.41,-152.46 177.58,-152.47 185.63,-152.56 193.54,-152.75 201.29,-153.02 208.85,-153.38 216.22,-153.83 223.38,-154.36 230.3,-154.98 236.99,-155.7 243.44,-156.49 249.62,-157.38 255.53,-158.36 261.17,-159.42 266.53,-160.58 271.6,-161.82 276.39,-163.15 280.88,-164.56 285.08,-166.06 288.98,-167.64 292.59,-169.3 295.89,-171.05 298.9,-172.87 301.61,-174.76 304.02,-176.73 306.13,-178.76 307.94,-180.86 309.46,-183.02 310.67,-185.24 311.59,-187.5 312.21,-189.81 312.53,-192.15 312.55,-194.53 312.26,-196.93 311.68,-199.36 310.79,-201.79 309.59,-204.22 308.08,-206.65 306.27,-209.06 304.14,-211.45 301.7,-213.81 298.95,-216.13 295.88,-218.4 292.49,-220.62 288.79,-222.76 284.77,-224.84 280.43,-226.83 275.79,-228.73 270.83,-230.53 265.56,-232.22 260,-233.8 254.13,-235.26 247.98,-236.59 241.55,-237.78 234.85,-238.84 227.89,-239.76 220.69,-240.52 213.26,-241.14 205.61,-241.6 197.77,-241.91 189.75,-242.06 181.58,-242.05 173.27,-241.88 164.85,-241.55 156.35,-241.07 147.79,-240.44 139.21,-239.65 130.62,-238.72 122.06,-237.64 113.55,-236.43 105.14,-235.08 96.84,-233.61 88.7,-232.01 80.74,-230.3 72.99,-228.49 65.49,-226.58 58.27,-224.57 51.35,-222.49"/>
<text text-anchor="middle" x="167.94" y="-190.23" font-family="sans-serif" font-size="16.00">ProcesoPagosContext</text>
</g>
<!-- ProcesoPagosContext&#45;&gt;GestionPedidosContext -->
<g id="edge17" class="edge">
<title>ProcesoPagosContext&#45;&gt;GestionPedidosContext</title>
<path fill="none" stroke="black" stroke-width="2" d="M275.67,-162.73C298.45,-156.8 322.41,-150.91 344.94,-146.01 489.35,-114.63 656.27,-87.33 771.61,-69.85"/>
<text text-anchor="middle" x="556.94" y="-118.41" font-family="sans-serif" font-size="12.00">Customer/Supplier</text>
<polygon fill="white" stroke="transparent" points="764.61,-60.85 764.61,-77.85 778.61,-77.85 778.61,-60.85 764.61,-60.85"/>
<text text-anchor="start" x="766.61" y="-66.25" font-family="sans-serif" font-size="12.00">D</text>
<polygon fill="white" stroke="transparent" points="268.67,-153.73 268.67,-170.73 282.67,-170.73 282.67,-153.73 268.67,-153.73"/>
<text text-anchor="start" x="270.67" y="-159.13" font-family="sans-serif" font-size="12.00">U</text>
</g>
<!-- ServicioClienteContext -->
<g id="node14" class="node">
<title>ServicioClienteContext</title>
<polygon fill="none" stroke="black" stroke-width="2" points="2663.74,-442.41 2673.77,-441.51 2683.87,-440.74 2694,-440.09 2704.12,-439.56 2714.19,-439.17 2724.17,-438.91 2734.03,-438.79 2743.72,-438.8 2753.22,-438.95 2762.49,-439.24 2771.51,-439.67 2780.23,-440.23 2788.64,-440.93 2796.71,-441.76 2804.42,-442.73 2811.75,-443.82 2818.68,-445.04 2825.19,-446.38 2831.28,-447.84 2836.93,-449.41 2842.14,-451.09 2846.91,-452.87 2851.22,-454.75 2855.08,-456.72 2858.48,-458.76 2861.44,-460.89 2863.96,-463.08 2866.04,-465.34 2867.69,-467.64 2868.92,-469.99 2869.74,-472.38 2870.16,-474.8 2870.2,-477.24 2869.85,-479.69 2869.15,-482.15 2868.1,-484.6 2866.71,-487.04 2864.99,-489.46 2862.97,-491.86 2860.65,-494.22 2858.04,-496.54 2855.15,-498.82 2852,-501.04 2848.6,-503.2 2844.95,-505.29 2841.06,-507.31 2836.94,-509.25 2832.61,-511.12 2828.05,-512.89 2823.29,-514.58 2818.32,-516.16 2813.16,-517.66 2807.79,-519.05 2802.24,-520.34 2796.49,-521.52 2790.56,-522.6 2784.45,-523.56 2778.16,-524.42 2771.69,-525.17 2765.06,-525.8 2758.26,-526.33 2751.29,-526.74 2744.18,-527.05 2736.91,-527.24 2729.51,-527.32 2721.98,-527.3 2714.33,-527.17 2706.57,-526.93 2698.72,-526.59 2690.79,-526.15 2682.79,-525.6 2674.76,-524.96 2666.69,-524.22 2658.62,-523.39 2650.57,-522.46 2642.55,-521.45 2634.61,-520.35 2626.75,-519.16 2619.01,-517.89 2611.42,-516.54 2604,-515.12 2596.79,-513.62 2589.81,-512.05 2583.1,-510.42 2576.68,-508.72 2570.58,-506.95 2564.84,-505.13 2559.48,-503.26 2554.54,-501.33 2550.03,-499.36 2545.98,-497.35 2542.42,-495.29 2539.38,-493.2 2536.86,-491.08 2534.9,-488.93 2533.5,-486.76 2532.69,-484.57 2532.46,-482.38 2532.84,-480.17 2533.82,-477.96 2535.41,-475.76 2537.61,-473.56 2540.42,-471.38 2543.82,-469.22 2547.81,-467.09 2552.39,-464.99 2557.52,-462.93 2563.2,-460.91 2569.4,-458.95 2576.1,-457.04 2583.28,-455.2 2590.89,-453.42 2598.93,-451.72 2607.34,-450.1 2616.09,-448.57 2625.16,-447.13 2634.5,-445.79 2644.07,-444.56 2653.83,-443.43 2663.74,-442.41"/>
<text text-anchor="middle" x="2711.94" y="-480.59" font-family="sans-serif" font-size="16.00">ServicioClienteContext</text>
</g>
<!-- ServicioClienteContext&#45;&gt;VentasContext -->
<g id="edge18" class="edge">
<title>ServicioClienteContext&#45;&gt;VentasContext</title>
<path fill="none" stroke="black" stroke-width="2" d="M2597.51,-451.94C2573.03,-445.91 2547.22,-440.06 2522.94,-435.51 2288.26,-391.56 2009.94,-362.96 1857.3,-349.27"/>
<text text-anchor="middle" x="2452.44" y="-407.91" font-family="sans-serif" font-size="12.00">Partnership</text>
</g>
</g>
</svg>
