<svg width="2000px" height="539px"
 viewBox="0.00 0.00 3023.39 814.39" xmlns="http://www.w3.org/2000/svg" xmlns:xlink="http://www.w3.org/1999/xlink">
<g id="graph0" class="graph" transform="scale(1.0 1.0) rotate(0) translate(4 810.39)">
<title>ContextMapGraph</title>
<polygon fill="white" stroke="transparent" points="-4,4 -4,-810.39 3019.39,-810.39 3019.39,4 -4,4"/>
<!-- AnaliticasReportingContext -->
<g id="node1" class="node">
<title>AnaliticasReportingContext</title>
<polygon fill="none" stroke="black" stroke-width="2" points="118.76,-719.64 129.43,-718.24 140.29,-716.96 151.29,-715.8 162.37,-714.76 173.51,-713.86 184.66,-713.08 195.77,-712.45 206.82,-711.96 217.75,-711.62 228.53,-711.42 239.13,-711.37 249.51,-711.47 259.65,-711.72 269.51,-712.12 279.06,-712.66 288.29,-713.35 297.16,-714.19 305.66,-715.16 313.77,-716.28 321.48,-717.52 328.78,-718.9 335.64,-720.4 342.07,-722.01 348.06,-723.74 353.6,-725.57 358.69,-727.49 363.33,-729.51 367.53,-731.61 371.28,-733.78 374.59,-736.02 377.47,-738.32 379.91,-740.66 381.93,-743.05 383.53,-745.47 384.72,-747.91 385.52,-750.37 385.92,-752.83 385.94,-755.29 385.58,-757.75 384.86,-760.18 383.78,-762.59 382.34,-764.97 380.56,-767.3 378.44,-769.59 375.99,-771.83 373.21,-774.01 370.1,-776.13 366.68,-778.18 362.94,-780.15 358.89,-782.05 354.53,-783.86 349.86,-785.59 344.89,-787.23 339.62,-788.78 334.04,-790.24 328.17,-791.6 322,-792.86 315.54,-794.03 308.79,-795.1 301.76,-796.06 294.45,-796.93 286.86,-797.7 279.01,-798.36 270.91,-798.93 262.55,-799.39 253.96,-799.76 245.15,-800.03 236.13,-800.2 226.92,-800.27 217.54,-800.25 208,-800.13 198.33,-799.92 188.56,-799.61 178.7,-799.21 168.79,-798.72 158.85,-798.15 148.91,-797.48 139.01,-796.72 129.17,-795.88 119.44,-794.96 109.85,-793.95 100.42,-792.85 91.21,-791.68 82.24,-790.42 73.56,-789.09 65.19,-787.68 57.18,-786.2 49.56,-784.64 42.37,-783.01 35.64,-781.31 29.4,-779.55 23.68,-777.72 18.52,-775.83 13.93,-773.88 9.95,-771.88 6.6,-769.83 3.9,-767.73 1.85,-765.59 0.49,-763.41 -0.19,-761.19 -0.17,-758.95 0.55,-756.69 1.97,-754.41 4.09,-752.12 6.91,-749.82 10.4,-747.53 14.57,-745.24 19.39,-742.97 24.85,-740.73 30.93,-738.51 37.59,-736.33 44.81,-734.2 52.57,-732.12 60.83,-730.1 69.55,-728.14 78.69,-726.27 88.23,-724.47 98.11,-722.76 108.3,-721.15 118.76,-719.64"/>
<text text-anchor="middle" x="207.69" y="-754.46" font-family="sans-serif" font-size="16.00">AnaliticasReportingContext</text>
</g>
<!-- VentasContext -->
<g id="node2" class="node">
<title>VentasContext</title>
<polygon fill="none" stroke="black" stroke-width="2" points="885.66,-652.12 879.27,-650.6 873.1,-648.99 867.16,-647.3 861.48,-645.53 856.09,-643.68 851,-641.76 846.24,-639.78 841.83,-637.75 837.79,-635.68 834.12,-633.56 830.85,-631.4 827.99,-629.22 825.54,-627.02 823.52,-624.8 821.92,-622.57 820.76,-620.34 820.03,-618.11 819.74,-615.89 819.88,-613.68 820.44,-611.49 821.41,-609.32 822.8,-607.18 824.59,-605.08 826.76,-603.01 829.31,-600.98 832.21,-599 835.45,-597.06 839.01,-595.18 842.87,-593.35 847.02,-591.58 851.43,-589.88 856.08,-588.24 860.95,-586.66 866.01,-585.16 871.25,-583.72 876.65,-582.37 882.17,-581.09 887.81,-579.89 893.54,-578.77 899.33,-577.73 905.18,-576.78 911.05,-575.92 916.94,-575.15 922.82,-574.48 928.68,-573.89 934.51,-573.4 940.28,-573.01 946,-572.72 951.63,-572.53 957.19,-572.44 962.64,-572.46 968,-572.57 973.24,-572.8 978.36,-573.13 983.36,-573.57 988.22,-574.11 992.96,-574.76 997.55,-575.53 1002.01,-576.39 1006.32,-577.37 1010.48,-578.45 1014.5,-579.64 1018.36,-580.93 1022.07,-582.32 1025.63,-583.81 1029.02,-585.39 1032.26,-587.07 1035.34,-588.85 1038.25,-590.7 1040.99,-592.64 1043.55,-594.66 1045.95,-596.75 1048.16,-598.91 1050.18,-601.13 1052.01,-603.4 1053.65,-605.72 1055.07,-608.09 1056.29,-610.49 1057.29,-612.92 1058.07,-615.37 1058.61,-617.83 1058.91,-620.3 1058.96,-622.77 1058.76,-625.22 1058.29,-627.65 1057.55,-630.06 1056.53,-632.42 1055.23,-634.75 1053.64,-637.02 1051.75,-639.22 1049.56,-641.36 1047.07,-643.43 1044.28,-645.41 1041.18,-647.3 1037.78,-649.09 1034.07,-650.77 1030.06,-652.35 1025.76,-653.81 1021.17,-655.15 1016.3,-656.36 1011.16,-657.45 1005.76,-658.4 1000.11,-659.22 994.23,-659.9 988.13,-660.43 981.83,-660.83 975.35,-661.08 968.71,-661.2 961.94,-661.17 955.05,-660.99 948.08,-660.68 941.04,-660.24 933.96,-659.65 926.87,-658.94 919.79,-658.1 912.76,-657.13 905.81,-656.04 898.95,-654.84 892.23,-653.53 885.66,-652.12"/>
<text text-anchor="middle" x="947.69" y="-611.27" font-family="sans-serif" font-size="16.00">VentasContext</text>
</g>
<!-- AnaliticasReportingContext&#45;&gt;VentasContext -->
<g id="edge1" class="edge">
<title>AnaliticasReportingContext&#45;&gt;VentasContext</title>
<path fill="none" stroke="black" stroke-width="2" d="M352.28,-725.1C376.42,-719.95 401.24,-714.79 424.69,-710.13 566.3,-682.03 730.23,-653.14 836.26,-634.92"/>
<text text-anchor="middle" x="617.19" y="-682.53" font-family="sans-serif" font-size="12.00">Partnership</text>
</g>
<!-- AutenticacionAutorizacionContext -->
<g id="node3" class="node">
<title>AutenticacionAutorizacionContext</title>
<polygon fill="none" stroke="black" stroke-width="2" points="1881.45,-750.17 1883.96,-747.35 1887.07,-744.57 1890.77,-741.84 1895.05,-739.18 1899.89,-736.58 1905.27,-734.07 1911.19,-731.66 1917.62,-729.34 1924.55,-727.14 1931.95,-725.05 1939.81,-723.09 1948.1,-721.27 1956.8,-719.58 1965.88,-718.04 1975.33,-716.65 1985.11,-715.41 1995.2,-714.32 2005.57,-713.38 2016.19,-712.61 2027.04,-711.99 2038.08,-711.53 2049.3,-711.22 2060.65,-711.07 2072.11,-711.06 2083.65,-711.2 2095.24,-711.49 2106.85,-711.91 2118.44,-712.47 2130,-713.15 2141.48,-713.95 2152.86,-714.87 2164.11,-715.9 2175.2,-717.04 2186.11,-718.26 2196.8,-719.58 2207.24,-720.98 2217.41,-722.45 2227.28,-724 2236.83,-725.6 2246.03,-727.26 2254.86,-728.97 2263.28,-730.72 2271.29,-732.52 2278.85,-734.34 2285.95,-736.19 2292.57,-738.07 2298.69,-739.96 2304.29,-741.87 2309.35,-743.79 2313.87,-745.72 2317.82,-747.65 2321.2,-749.58 2323.99,-751.52 2326.19,-753.45 2327.78,-755.38 2328.77,-757.3 2329.15,-759.21 2328.91,-761.12 2328.05,-763.02 2326.58,-764.9 2324.49,-766.78 2321.79,-768.64 2318.49,-770.48 2314.6,-772.31 2310.11,-774.12 2305.05,-775.91 2299.43,-777.68 2293.25,-779.43 2286.55,-781.15 2279.32,-782.84 2271.6,-784.5 2263.4,-786.12 2254.75,-787.71 2245.66,-789.25 2236.17,-790.74 2226.3,-792.19 2216.07,-793.57 2205.53,-794.9 2194.68,-796.16 2183.58,-797.35 2172.24,-798.46 2160.7,-799.48 2149,-800.42 2137.16,-801.26 2125.22,-802 2113.21,-802.64 2101.18,-803.16 2089.15,-803.57 2077.16,-803.85 2065.24,-804.01 2053.43,-804.04 2041.76,-803.93 2030.27,-803.68 2018.99,-803.29 2007.95,-802.76 1997.18,-802.08 1986.72,-801.25 1976.59,-800.27 1966.82,-799.15 1957.44,-797.89 1948.48,-796.48 1939.97,-794.92 1931.91,-793.23 1924.35,-791.41 1917.29,-789.46 1910.77,-787.38 1904.78,-785.19 1899.36,-782.88 1894.52,-780.48 1890.26,-777.99 1886.6,-775.41 1883.55,-772.75 1881.11,-770.04 1879.29,-767.27 1878.09,-764.46 1877.52,-761.61 1877.57,-758.75 1878.25,-755.88 1879.54,-753.02 1881.45,-750.17"/>
<text text-anchor="middle" x="2103.69" y="-754.46" font-family="sans-serif" font-size="16.00">AutenticacionAutorizacionContext</text>
</g>
<!-- CarritoComprasContext -->
<g id="node4" class="node">
<title>CarritoComprasContext</title>
<polygon fill="none" stroke="black" stroke-width="2" points="2164.07,-656.04 2154.04,-657.13 2143.9,-658.1 2133.7,-658.94 2123.48,-659.65 2113.27,-660.24 2103.12,-660.68 2093.06,-660.99 2083.13,-661.17 2073.37,-661.2 2063.8,-661.08 2054.46,-660.83 2045.38,-660.43 2036.58,-659.9 2028.1,-659.22 2019.96,-658.4 2012.17,-657.45 2004.75,-656.36 1997.73,-655.15 1991.11,-653.81 1984.91,-652.35 1979.13,-650.77 1973.79,-649.09 1968.88,-647.3 1964.41,-645.41 1960.39,-643.43 1956.8,-641.36 1953.65,-639.22 1950.92,-637.02 1948.63,-634.75 1946.75,-632.42 1945.28,-630.06 1944.22,-627.65 1943.54,-625.22 1943.24,-622.77 1943.32,-620.3 1943.75,-617.83 1944.53,-615.37 1945.65,-612.92 1947.09,-610.49 1948.85,-608.09 1950.91,-605.72 1953.27,-603.4 1955.91,-601.13 1958.83,-598.91 1962.01,-596.75 1965.46,-594.66 1969.16,-592.64 1973.11,-590.7 1977.31,-588.85 1981.74,-587.07 1986.41,-585.39 1991.31,-583.81 1996.43,-582.32 2001.78,-580.93 2007.35,-579.64 2013.14,-578.45 2019.15,-577.37 2025.36,-576.39 2031.78,-575.53 2038.41,-574.76 2045.24,-574.11 2052.25,-573.57 2059.46,-573.13 2066.85,-572.8 2074.4,-572.57 2082.12,-572.46 2089.99,-572.44 2097.99,-572.53 2106.12,-572.72 2114.36,-573.01 2122.69,-573.4 2131.09,-573.89 2139.54,-574.48 2148.02,-575.15 2156.51,-575.92 2164.98,-576.78 2173.4,-577.73 2181.76,-578.77 2190.02,-579.89 2198.14,-581.09 2206.11,-582.37 2213.89,-583.72 2221.45,-585.16 2228.75,-586.66 2235.77,-588.24 2242.47,-589.88 2248.83,-591.58 2254.81,-593.35 2260.38,-595.18 2265.52,-597.06 2270.19,-599 2274.37,-600.98 2278.04,-603.01 2281.17,-605.08 2283.75,-607.18 2285.75,-609.32 2287.16,-611.49 2287.97,-613.68 2288.16,-615.89 2287.74,-618.11 2286.69,-620.34 2285.01,-622.57 2282.72,-624.8 2279.8,-627.02 2276.27,-629.22 2272.14,-631.4 2267.42,-633.56 2262.14,-635.68 2256.31,-637.75 2249.95,-639.78 2243.09,-641.76 2235.76,-643.68 2227.98,-645.53 2219.8,-647.3 2211.23,-648.99 2202.33,-650.6 2193.12,-652.12 2183.65,-653.53 2173.95,-654.84 2164.07,-656.04"/>
<text text-anchor="middle" x="2103.69" y="-611.27" font-family="sans-serif" font-size="16.00">CarritoComprasContext</text>
</g>
<!-- AutenticacionAutorizacionContext&#45;&gt;CarritoComprasContext -->
<g id="edge2" class="edge">
<title>AutenticacionAutorizacionContext&#45;&gt;CarritoComprasContext</title>
<path fill="none" stroke="black" stroke-width="2" d="M2103.69,-711.42C2103.69,-695.16 2103.69,-676.88 2103.69,-660.72"/>
<text text-anchor="middle" x="2159.69" y="-682.53" font-family="sans-serif" font-size="12.00">Customer/Supplier</text>
<polygon fill="white" stroke="transparent" points="2096.69,-651.72 2096.69,-668.72 2110.69,-668.72 2110.69,-651.72 2096.69,-651.72"/>
<text text-anchor="start" x="2098.69" y="-657.12" font-family="sans-serif" font-size="12.00">D</text>
<polygon fill="white" stroke="transparent" points="2096.69,-702.42 2096.69,-719.42 2110.69,-719.42 2110.69,-702.42 2096.69,-702.42"/>
<text text-anchor="start" x="2098.69" y="-707.82" font-family="sans-serif" font-size="12.00">U</text>
</g>
<!-- GestionClientesContext -->
<g id="node5" class="node">
<title>GestionClientesContext</title>
<polygon fill="none" stroke="black" stroke-width="2" points="1809.37,-513.81 1799.62,-512.56 1790.14,-511.22 1780.96,-509.78 1772.13,-508.25 1763.67,-506.64 1755.63,-504.94 1748.03,-503.18 1740.91,-501.34 1734.29,-499.45 1728.21,-497.5 1722.67,-495.5 1717.71,-493.45 1713.33,-491.37 1709.56,-489.25 1706.4,-487.11 1703.85,-484.95 1701.93,-482.78 1700.64,-480.59 1699.96,-478.4 1699.9,-476.21 1700.45,-474.03 1701.6,-471.86 1703.33,-469.71 1705.63,-467.57 1708.47,-465.47 1711.85,-463.39 1715.73,-461.35 1720.1,-459.34 1724.92,-457.38 1730.16,-455.47 1735.81,-453.6 1741.83,-451.8 1748.18,-450.04 1754.85,-448.35 1761.8,-446.73 1769,-445.17 1776.41,-443.69 1784.02,-442.27 1791.79,-440.94 1799.68,-439.69 1807.69,-438.52 1815.77,-437.43 1823.9,-436.44 1832.06,-435.53 1840.23,-434.72 1848.39,-434.01 1856.51,-433.39 1864.59,-432.87 1872.59,-432.46 1880.51,-432.15 1888.34,-431.95 1896.06,-431.85 1903.66,-431.87 1911.13,-431.99 1918.46,-432.22 1925.66,-432.57 1932.7,-433.03 1939.58,-433.6 1946.31,-434.28 1952.87,-435.07 1959.27,-435.97 1965.49,-436.99 1971.53,-438.11 1977.4,-439.34 1983.08,-440.67 1988.57,-442.11 1993.87,-443.64 1998.98,-445.27 2003.88,-446.99 2008.57,-448.8 2013.04,-450.69 2017.29,-452.67 2021.31,-454.71 2025.09,-456.83 2028.61,-459 2031.86,-461.24 2034.84,-463.52 2037.54,-465.85 2039.93,-468.21 2042,-470.6 2043.75,-473.02 2045.15,-475.45 2046.19,-477.88 2046.87,-480.32 2047.15,-482.74 2047.04,-485.15 2046.51,-487.53 2045.56,-489.88 2044.17,-492.19 2042.34,-494.45 2040.05,-496.65 2037.29,-498.79 2034.07,-500.86 2030.37,-502.85 2026.2,-504.76 2021.55,-506.57 2016.43,-508.29 2010.84,-509.91 2004.79,-511.42 1998.28,-512.81 1991.34,-514.09 1983.97,-515.25 1976.2,-516.28 1968.03,-517.18 1959.51,-517.96 1950.64,-518.6 1941.45,-519.11 1931.98,-519.48 1922.27,-519.72 1912.33,-519.83 1902.21,-519.8 1891.94,-519.64 1881.56,-519.34 1871.12,-518.92 1860.65,-518.36 1850.2,-517.69 1839.8,-516.89 1829.5,-515.98 1819.35,-514.95 1809.37,-513.81"/>
<text text-anchor="middle" x="1883.69" y="-470.9" font-family="sans-serif" font-size="16.00">GestionClientesContext</text>
</g>
<!-- CarritoComprasContext&#45;&gt;GestionClientesContext -->
<g id="edge3" class="edge">
<title>CarritoComprasContext&#45;&gt;GestionClientesContext</title>
<path fill="none" stroke="black" stroke-width="2" d="M1963.1,-595.93C1910.11,-585.96 1858.72,-571.39 1842.69,-551.01 1834.67,-540.84 1836.84,-528.88 1843.2,-517.52"/>
<text text-anchor="middle" x="1898.69" y="-541.41" font-family="sans-serif" font-size="12.00">Customer/Supplier</text>
<polygon fill="white" stroke="transparent" points="1836.2,-508.52 1836.2,-525.52 1850.2,-525.52 1850.2,-508.52 1836.2,-508.52"/>
<text text-anchor="start" x="1838.2" y="-513.92" font-family="sans-serif" font-size="12.00">D</text>
<polygon fill="white" stroke="transparent" points="1956.1,-586.93 1956.1,-603.93 1970.1,-603.93 1970.1,-586.93 1956.1,-586.93"/>
<text text-anchor="start" x="1958.1" y="-592.33" font-family="sans-serif" font-size="12.00">U</text>
</g>
<!-- GestionProductosContext -->
<g id="node6" class="node">
<title>GestionProductosContext</title>
<polygon fill="none" stroke="black" stroke-width="2" points="2272.26,-344.94 2269.13,-347.71 2265.55,-350.42 2261.55,-353.07 2257.12,-355.64 2252.29,-358.13 2247.06,-360.53 2241.47,-362.82 2235.52,-365 2229.24,-367.06 2222.63,-368.99 2215.73,-370.79 2208.55,-372.44 2201.11,-373.95 2193.43,-375.3 2185.54,-376.5 2177.45,-377.55 2169.18,-378.43 2160.77,-379.15 2152.22,-379.71 2143.57,-380.1 2134.82,-380.34 2126.02,-380.42 2117.17,-380.34 2108.3,-380.11 2099.43,-379.74 2090.58,-379.22 2081.78,-378.56 2073.04,-377.77 2064.38,-376.85 2055.84,-375.82 2047.41,-374.67 2039.14,-373.41 2031.03,-372.05 2023.11,-370.61 2015.39,-369.08 2007.9,-367.47 2000.65,-365.79 1993.66,-364.05 1986.94,-362.25 1980.52,-360.41 1974.41,-358.52 1968.62,-356.6 1963.18,-354.65 1958.09,-352.67 1953.38,-350.68 1949.04,-348.67 1945.1,-346.66 1941.57,-344.64 1938.46,-342.62 1935.78,-340.6 1933.53,-338.59 1931.73,-336.59 1930.38,-334.6 1929.49,-332.63 1929.07,-330.67 1929.11,-328.73 1929.62,-326.81 1930.61,-324.92 1932.07,-323.04 1934,-321.19 1936.4,-319.36 1939.27,-317.56 1942.6,-315.78 1946.38,-314.03 1950.61,-312.32 1955.28,-310.63 1960.37,-308.98 1965.89,-307.36 1971.8,-305.78 1978.1,-304.24 1984.77,-302.74 1991.8,-301.28 1999.16,-299.88 2006.84,-298.52 2014.81,-297.22 2023.06,-295.98 2031.55,-294.81 2040.27,-293.7 2049.19,-292.66 2058.28,-291.7 2067.52,-290.82 2076.88,-290.03 2086.33,-289.33 2095.85,-288.73 2105.4,-288.24 2114.95,-287.85 2124.48,-287.57 2133.96,-287.41 2143.36,-287.37 2152.65,-287.45 2161.8,-287.67 2170.78,-288.01 2179.57,-288.49 2188.14,-289.11 2196.45,-289.87 2204.5,-290.77 2212.25,-291.81 2219.68,-292.98 2226.77,-294.3 2233.49,-295.76 2239.83,-297.35 2245.77,-299.07 2251.29,-300.92 2256.38,-302.9 2261.02,-304.99 2265.2,-307.2 2268.91,-309.51 2272.14,-311.92 2274.88,-314.41 2277.12,-316.99 2278.87,-319.64 2280.12,-322.35 2280.87,-325.11 2281.11,-327.92 2280.86,-330.75 2280.1,-333.6 2278.86,-336.45 2277.13,-339.3 2274.93,-342.14 2272.26,-344.94"/>
<text text-anchor="middle" x="2103.69" y="-328.55" font-family="sans-serif" font-size="16.00">GestionProductosContext</text>
</g>
<!-- CarritoComprasContext&#45;&gt;GestionProductosContext -->
<g id="edge4" class="edge">
<title>CarritoComprasContext&#45;&gt;GestionProductosContext</title>
<path fill="none" stroke="black" stroke-width="2" d="M2103.69,-572.65C2103.69,-521.25 2103.69,-433.84 2103.69,-380.09"/>
<text text-anchor="middle" x="2159.69" y="-471.6" font-family="sans-serif" font-size="12.00">Customer/Supplier</text>
<polygon fill="white" stroke="transparent" points="2096.69,-371.09 2096.69,-388.09 2110.69,-388.09 2110.69,-371.09 2096.69,-371.09"/>
<text text-anchor="start" x="2098.69" y="-376.49" font-family="sans-serif" font-size="12.00">D</text>
<polygon fill="white" stroke="transparent" points="2096.69,-563.65 2096.69,-580.65 2110.69,-580.65 2110.69,-563.65 2096.69,-563.65"/>
<text text-anchor="start" x="2098.69" y="-569.05" font-family="sans-serif" font-size="12.00">U</text>
</g>
<!-- GestionClientesContext&#45;&gt;CarritoComprasContext -->
<g id="edge5" class="edge">
<title>GestionClientesContext&#45;&gt;CarritoComprasContext</title>
<path fill="none" stroke="black" stroke-width="2" d="M1934.43,-519.57C1948.05,-530.44 1963.07,-541.65 1977.69,-551.01 1991.8,-560.05 2007.38,-568.77 2022.63,-576.69"/>
<text text-anchor="middle" x="2033.69" y="-541.41" font-family="sans-serif" font-size="12.00">Customer/Supplier</text>
<polygon fill="white" stroke="transparent" points="2015.63,-567.69 2015.63,-584.69 2029.63,-584.69 2029.63,-567.69 2015.63,-567.69"/>
<text text-anchor="start" x="2017.63" y="-573.09" font-family="sans-serif" font-size="12.00">D</text>
<polygon fill="white" stroke="transparent" points="1927.43,-510.57 1927.43,-527.57 1941.43,-527.57 1941.43,-510.57 1927.43,-510.57"/>
<text text-anchor="start" x="1929.43" y="-515.97" font-family="sans-serif" font-size="12.00">U</text>
</g>
<!-- GestionClientesContext&#45;&gt;GestionProductosContext -->
<g id="edge6" class="edge">
<title>GestionClientesContext&#45;&gt;GestionProductosContext</title>
<path fill="none" stroke="black" stroke-width="2" d="M1882.34,-431.92C1883.93,-419.92 1887.72,-407.6 1895.69,-398.38 1913.19,-378.13 1936.91,-364.11 1962.07,-354.42"/>
<text text-anchor="middle" x="1937.69" y="-401.78" font-family="sans-serif" font-size="12.00">Shared Kernel</text>
</g>
<!-- GestionProductosContext&#45;&gt;CarritoComprasContext -->
<g id="edge7" class="edge">
<title>GestionProductosContext&#45;&gt;CarritoComprasContext</title>
<path fill="none" stroke="black" stroke-width="2" d="M2177.15,-377.73C2194.26,-391.93 2210.23,-409.27 2219.69,-429.38 2236.83,-465.83 2237.01,-483.65 2219.69,-520.01 2208.75,-542.95 2189.19,-562.11 2169.21,-577.02"/>
<text text-anchor="middle" x="2287.69" y="-471.6" font-family="sans-serif" font-size="12.00">Customer/Supplier</text>
<polygon fill="white" stroke="transparent" points="2162.21,-568.02 2162.21,-585.02 2176.21,-585.02 2176.21,-568.02 2162.21,-568.02"/>
<text text-anchor="start" x="2164.21" y="-573.42" font-family="sans-serif" font-size="12.00">D</text>
<polygon fill="white" stroke="transparent" points="2170.15,-368.73 2170.15,-385.73 2184.15,-385.73 2184.15,-368.73 2170.15,-368.73"/>
<text text-anchor="start" x="2172.15" y="-374.13" font-family="sans-serif" font-size="12.00">U</text>
</g>
<!-- GestionProductosContext&#45;&gt;GestionClientesContext -->
<g id="edge8" class="edge">
<title>GestionProductosContext&#45;&gt;GestionClientesContext</title>
<path fill="none" stroke="black" stroke-width="2" d="M2040.53,-373.64C2010.8,-392.61 1975.45,-415.16 1945.85,-434.04"/>
<text text-anchor="middle" x="2042.69" y="-401.78" font-family="sans-serif" font-size="12.00">Shared Kernel</text>
</g>
<!-- GestionDevolucionesContext -->
<g id="node7" class="node">
<title>GestionDevolucionesContext</title>
<polygon fill="none" stroke="black" stroke-width="2" points="2165.95,-145.23 2178.59,-145.72 2191.05,-146.32 2203.28,-147.04 2215.23,-147.87 2226.86,-148.81 2238.11,-149.85 2248.95,-151 2259.33,-152.25 2269.2,-153.59 2278.55,-155.03 2287.33,-156.55 2295.51,-158.16 2303.07,-159.85 2309.98,-161.61 2316.23,-163.45 2321.8,-165.34 2326.68,-167.3 2330.86,-169.31 2334.33,-171.37 2337.11,-173.48 2339.18,-175.62 2340.56,-177.8 2341.25,-180 2341.27,-182.22 2340.63,-184.46 2339.36,-186.71 2337.46,-188.96 2334.97,-191.21 2331.91,-193.46 2328.3,-195.68 2324.18,-197.89 2319.56,-200.08 2314.49,-202.23 2308.99,-204.34 2303.08,-206.42 2296.81,-208.44 2290.2,-210.42 2283.29,-212.33 2276.09,-214.18 2268.65,-215.97 2260.99,-217.68 2253.12,-219.32 2245.09,-220.87 2236.91,-222.34 2228.61,-223.72 2220.21,-225 2211.72,-226.19 2203.16,-227.27 2194.56,-228.26 2185.92,-229.13 2177.26,-229.9 2168.59,-230.55 2159.92,-231.1 2151.26,-231.52 2142.61,-231.83 2134,-232.02 2125.41,-232.1 2116.86,-232.05 2108.36,-231.88 2099.91,-231.6 2091.51,-231.19 2083.17,-230.67 2074.9,-230.03 2066.7,-229.27 2058.58,-228.4 2050.55,-227.42 2042.62,-226.33 2034.79,-225.13 2027.08,-223.83 2019.5,-222.43 2012.06,-220.93 2004.78,-219.34 1997.68,-217.66 1990.76,-215.9 1984.06,-214.06 1977.59,-212.14 1971.37,-210.16 1965.43,-208.11 1959.78,-206.01 1954.46,-203.85 1949.49,-201.65 1944.89,-199.41 1940.68,-197.14 1936.91,-194.84 1933.58,-192.53 1930.74,-190.2 1928.39,-187.86 1926.57,-185.53 1925.29,-183.2 1924.59,-180.89 1924.47,-178.6 1924.96,-176.34 1926.08,-174.11 1927.82,-171.92 1930.22,-169.78 1933.26,-167.69 1936.97,-165.66 1941.34,-163.69 1946.36,-161.8 1952.04,-159.98 1958.37,-158.24 1965.33,-156.59 1972.91,-155.02 1981.09,-153.56 1989.84,-152.19 1999.15,-150.92 2008.98,-149.76 2019.29,-148.71 2030.07,-147.77 2041.26,-146.94 2052.82,-146.23 2064.71,-145.64 2076.89,-145.17 2089.31,-144.81 2101.91,-144.58 2114.65,-144.47 2127.48,-144.48 2140.34,-144.61 2153.18,-144.86 2165.95,-145.23"/>
<text text-anchor="middle" x="2129.69" y="-184.55" font-family="sans-serif" font-size="16.00">GestionDevolucionesContext</text>
</g>
<!-- GestionProductosContext&#45;&gt;GestionDevolucionesContext -->
<g id="edge9" class="edge">
<title>GestionProductosContext&#45;&gt;GestionDevolucionesContext</title>
<path fill="none" stroke="black" stroke-width="2" d="M2111.63,-287.97C2114.85,-270.36 2118.57,-250.05 2121.79,-232.46"/>
<text text-anchor="middle" x="2193.19" y="-256.71" font-family="sans-serif" font-size="12.00"> &#160;&#160;&#160;&#160;&#160;&#160;&#160;&#160;&#160;&#160;&#160;&#160;&#160;&#160;&#160;&#160;&#160;&#160;&#160;&#160;&#160;&#160;&#160;&#160;&#160;&#160;&#160;&#160;&#160;&#160;&#160;&#160;&#160;&#160;&#160;&#160;&#160;&#160;&#160;</text>
<polygon fill="white" stroke="transparent" points="2102.79,-222.46 2102.79,-241.46 2118.79,-241.46 2118.79,-222.46 2102.79,-222.46"/>
<polyline fill="none" stroke="black" points="2118.79,-222.46 2118.79,-241.46 "/>
<text text-anchor="start" x="2105.79" y="-228.86" font-family="sans-serif" font-size="12.00">D</text>
<polygon fill="white" stroke="transparent" points="2118.79,-222.46 2118.79,-241.46 2140.79,-241.46 2140.79,-222.46 2118.79,-222.46"/>
<polygon fill="none" stroke="black" points="2118.79,-222.46 2118.79,-241.46 2140.79,-241.46 2140.79,-222.46 2118.79,-222.46"/>
<text text-anchor="start" x="2121.79" y="-228.86" font-family="sans-serif" font-size="12.00">CF</text>
<polygon fill="white" stroke="transparent" points="2076.63,-277.97 2076.63,-296.97 2092.63,-296.97 2092.63,-277.97 2076.63,-277.97"/>
<polyline fill="none" stroke="black" points="2092.63,-277.97 2092.63,-296.97 "/>
<text text-anchor="start" x="2079.63" y="-284.37" font-family="sans-serif" font-size="12.00">U</text>
<polygon fill="white" stroke="transparent" points="2092.63,-277.97 2092.63,-296.97 2147.63,-296.97 2147.63,-277.97 2092.63,-277.97"/>
<polygon fill="none" stroke="black" points="2092.63,-277.97 2092.63,-296.97 2147.63,-296.97 2147.63,-277.97 2092.63,-277.97"/>
<text text-anchor="start" x="2095.63" y="-284.37" font-family="sans-serif" font-size="12.00">OHS, PL</text>
</g>
<!-- GestionPedidosContext -->
<g id="node8" class="node">
<title>GestionPedidosContext</title>
<polygon fill="none" stroke="black" stroke-width="2" points="2418.45,-9.47 2427.44,-11.03 2436.14,-12.68 2444.48,-14.42 2452.46,-16.24 2460.02,-18.13 2467.14,-20.08 2473.78,-22.09 2479.93,-24.16 2485.56,-26.27 2490.64,-28.42 2495.16,-30.6 2499.1,-32.81 2502.44,-35.04 2505.18,-37.28 2507.31,-39.52 2508.82,-41.77 2509.71,-44.01 2509.98,-46.24 2509.65,-48.45 2508.71,-50.64 2507.17,-52.81 2505.05,-54.94 2502.37,-57.04 2499.14,-59.1 2495.39,-61.12 2491.13,-63.09 2486.39,-65.01 2481.19,-66.87 2475.57,-68.68 2469.55,-70.42 2463.16,-72.1 2456.43,-73.72 2449.39,-75.27 2442.08,-76.74 2434.52,-78.14 2426.75,-79.47 2418.79,-80.71 2410.68,-81.88 2402.45,-82.96 2394.13,-83.96 2385.75,-84.87 2377.32,-85.7 2368.89,-86.43 2360.46,-87.07 2352.08,-87.62 2343.75,-88.07 2335.5,-88.42 2327.34,-88.67 2319.3,-88.83 2311.38,-88.88 2303.61,-88.83 2296,-88.67 2288.54,-88.41 2281.27,-88.05 2274.18,-87.58 2267.28,-87 2260.58,-86.31 2254.08,-85.52 2247.79,-84.62 2241.72,-83.61 2235.86,-82.5 2230.22,-81.28 2224.8,-79.96 2219.6,-78.54 2214.64,-77.02 2209.9,-75.41 2205.4,-73.7 2201.13,-71.91 2197.11,-70.03 2193.33,-68.06 2189.81,-66.02 2186.54,-63.91 2183.53,-61.73 2180.79,-59.49 2178.33,-57.2 2176.15,-54.86 2174.27,-52.48 2172.69,-50.06 2171.42,-47.62 2170.48,-45.16 2169.87,-42.68 2169.6,-40.21 2169.69,-37.74 2170.14,-35.28 2170.96,-32.84 2172.17,-30.44 2173.78,-28.07 2175.78,-25.75 2178.2,-23.48 2181.03,-21.28 2184.28,-19.15 2187.96,-17.1 2192.07,-15.13 2196.61,-13.26 2201.57,-11.49 2206.96,-9.82 2212.77,-8.27 2218.99,-6.83 2225.62,-5.52 2232.63,-4.33 2240.03,-3.28 2247.79,-2.36 2255.89,-1.58 2264.31,-0.94 2273.03,-0.44 2282.03,-0.08 2291.27,0.13 2300.73,0.19 2310.38,0.12 2320.18,-0.1 2330.09,-0.46 2340.09,-0.95 2350.14,-1.58 2360.19,-2.35 2370.21,-3.24 2380.16,-4.26 2390,-5.39 2399.68,-6.64 2409.18,-8 2418.45,-9.47"/>
<text text-anchor="middle" x="2327.69" y="-42.39" font-family="sans-serif" font-size="16.00">GestionPedidosContext</text>
</g>
<!-- GestionDevolucionesContext&#45;&gt;GestionPedidosContext -->
<g id="edge10" class="edge">
<title>GestionDevolucionesContext&#45;&gt;GestionPedidosContext</title>
<path fill="none" stroke="black" stroke-width="2" d="M2121.38,-144.43C2121.29,-132.44 2123.54,-120.06 2130.69,-110.39 2145.69,-90.1 2167.29,-76.19 2190.74,-66.68"/>
<text text-anchor="middle" x="2186.69" y="-113.79" font-family="sans-serif" font-size="12.00">Customer/Supplier</text>
<polygon fill="white" stroke="transparent" points="2183.74,-57.68 2183.74,-74.68 2197.74,-74.68 2197.74,-57.68 2183.74,-57.68"/>
<text text-anchor="start" x="2185.74" y="-63.08" font-family="sans-serif" font-size="12.00">D</text>
<polygon fill="white" stroke="transparent" points="2114.38,-135.43 2114.38,-152.43 2128.38,-152.43 2128.38,-135.43 2114.38,-135.43"/>
<text text-anchor="start" x="2116.38" y="-140.83" font-family="sans-serif" font-size="12.00">U</text>
</g>
<!-- GestionPedidosContext&#45;&gt;CarritoComprasContext -->
<g id="edge11" class="edge">
<title>GestionPedidosContext&#45;&gt;CarritoComprasContext</title>
<path fill="none" stroke="black" stroke-width="2" d="M2359.59,-87.29C2364.48,-94.69 2369.09,-102.55 2372.69,-110.39 2387.39,-142.41 2391.69,-152.12 2391.69,-187.35 2391.69,-475.7 2391.69,-475.7 2391.69,-475.7 2391.69,-542.54 2327.88,-577.12 2260.33,-594.99"/>
<text text-anchor="middle" x="2447.69" y="-329.25" font-family="sans-serif" font-size="12.00">Customer/Supplier</text>
<polygon fill="white" stroke="transparent" points="2253.33,-585.99 2253.33,-602.99 2267.33,-602.99 2267.33,-585.99 2253.33,-585.99"/>
<text text-anchor="start" x="2255.33" y="-591.39" font-family="sans-serif" font-size="12.00">D</text>
<polygon fill="white" stroke="transparent" points="2352.59,-78.29 2352.59,-95.29 2366.59,-95.29 2366.59,-78.29 2352.59,-78.29"/>
<text text-anchor="start" x="2354.59" y="-83.69" font-family="sans-serif" font-size="12.00">U</text>
</g>
<!-- GestionPedidosContext&#45;&gt;GestionDevolucionesContext -->
<g id="edge12" class="edge">
<title>GestionPedidosContext&#45;&gt;GestionDevolucionesContext</title>
<path fill="none" stroke="black" stroke-width="2" d="M2285.09,-88.63C2271.98,-100.48 2257.17,-112.98 2242.69,-123.39 2231.24,-131.61 2218.65,-139.63 2206.16,-147.05"/>
<text text-anchor="middle" x="2312.69" y="-113.79" font-family="sans-serif" font-size="12.00">Customer/Supplier</text>
<polygon fill="white" stroke="transparent" points="2199.16,-138.05 2199.16,-155.05 2213.16,-155.05 2213.16,-138.05 2199.16,-138.05"/>
<text text-anchor="start" x="2201.16" y="-143.45" font-family="sans-serif" font-size="12.00">D</text>
<polygon fill="white" stroke="transparent" points="2278.09,-79.63 2278.09,-96.63 2292.09,-96.63 2292.09,-79.63 2278.09,-79.63"/>
<text text-anchor="start" x="2280.09" y="-85.03" font-family="sans-serif" font-size="12.00">U</text>
</g>
<!-- GestionSesionesContext -->
<g id="node9" class="node">
<title>GestionSesionesContext</title>
<polygon fill="none" stroke="black" stroke-width="2" points="2626.77,-795.31 2617.47,-796.87 2607.97,-798.33 2598.31,-799.67 2588.54,-800.89 2578.69,-801.97 2568.79,-802.92 2558.88,-803.73 2549,-804.4 2539.18,-804.92 2529.46,-805.3 2519.86,-805.52 2510.42,-805.59 2501.16,-805.51 2492.11,-805.27 2483.3,-804.89 2474.75,-804.35 2466.48,-803.66 2458.51,-802.82 2450.85,-801.85 2443.52,-800.73 2436.54,-799.48 2429.91,-798.1 2423.64,-796.6 2417.75,-794.97 2412.23,-793.24 2407.09,-791.4 2402.33,-789.47 2397.96,-787.44 2393.97,-785.34 2390.36,-783.16 2387.14,-780.92 2384.29,-778.62 2381.81,-776.27 2379.7,-773.88 2377.96,-771.47 2376.57,-769.03 2375.54,-766.58 2374.86,-764.13 2374.52,-761.68 2374.52,-759.24 2374.85,-756.82 2375.5,-754.43 2376.49,-752.07 2377.79,-749.75 2379.41,-747.48 2381.34,-745.26 2383.58,-743.1 2386.13,-741 2388.99,-738.97 2392.15,-737.01 2395.61,-735.13 2399.37,-733.33 2403.44,-731.62 2407.8,-729.99 2412.46,-728.44 2417.42,-726.99 2422.67,-725.63 2428.21,-724.36 2434.04,-723.19 2440.16,-722.11 2446.55,-721.12 2453.22,-720.24 2460.16,-719.45 2467.36,-718.75 2474.81,-718.15 2482.5,-717.64 2490.41,-717.23 2498.55,-716.91 2506.88,-716.69 2515.39,-716.56 2524.07,-716.52 2532.9,-716.58 2541.84,-716.72 2550.89,-716.96 2560.01,-717.28 2569.18,-717.7 2578.37,-718.2 2587.55,-718.79 2596.7,-719.47 2605.77,-720.23 2614.75,-721.08 2623.59,-722.02 2632.26,-723.04 2640.73,-724.14 2648.96,-725.33 2656.93,-726.6 2664.6,-727.95 2671.93,-729.38 2678.89,-730.88 2685.45,-732.47 2691.59,-734.12 2697.27,-735.85 2702.46,-737.65 2707.14,-739.52 2711.29,-741.45 2714.89,-743.44 2717.91,-745.49 2720.34,-747.59 2722.17,-749.74 2723.38,-751.94 2723.97,-754.17 2723.93,-756.44 2723.26,-758.74 2721.95,-761.06 2720.02,-763.39 2717.47,-765.74 2714.31,-768.08 2710.55,-770.42 2706.21,-772.75 2701.3,-775.06 2695.85,-777.34 2689.88,-779.59 2683.41,-781.79 2676.47,-783.94 2669.09,-786.03 2661.31,-788.05 2653.15,-790 2644.65,-791.86 2635.84,-793.63 2626.77,-795.31"/>
<text text-anchor="middle" x="2535.69" y="-754.46" font-family="sans-serif" font-size="16.00">GestionSesionesContext</text>
</g>
<!-- IntegracionRedesSocialesContext -->
<g id="node10" class="node">
<title>IntegracionRedesSocialesContext</title>
<polygon fill="none" stroke="black" stroke-width="2" points="775.96,-798.02 762.92,-799.29 749.69,-800.45 736.34,-801.47 722.91,-802.38 709.45,-803.15 696.02,-803.78 682.67,-804.28 669.43,-804.63 656.37,-804.84 643.53,-804.91 630.94,-804.83 618.64,-804.6 606.68,-804.23 595.09,-803.71 583.9,-803.04 573.14,-802.24 562.83,-801.29 553,-800.21 543.67,-799 534.86,-797.65 526.57,-796.19 518.82,-794.6 511.62,-792.91 504.97,-791.11 498.89,-789.21 493.35,-787.21 488.38,-785.14 483.96,-782.98 480.08,-780.76 476.75,-778.48 473.95,-776.14 471.67,-773.76 469.91,-771.35 468.65,-768.91 467.88,-766.45 467.59,-763.98 467.77,-761.5 468.4,-759.04 469.47,-756.59 470.98,-754.16 472.9,-751.76 475.23,-749.4 477.97,-747.08 481.09,-744.81 484.59,-742.6 488.47,-740.45 492.72,-738.37 497.32,-736.36 502.28,-734.43 507.59,-732.58 513.25,-730.82 519.24,-729.14 525.58,-727.56 532.25,-726.07 539.25,-724.68 546.58,-723.39 554.23,-722.2 562.2,-721.11 570.49,-720.13 579.1,-719.25 588,-718.47 597.2,-717.79 606.7,-717.22 616.46,-716.76 626.5,-716.39 636.79,-716.13 647.31,-715.97 658.06,-715.91 669.01,-715.95 680.13,-716.09 691.42,-716.33 702.83,-716.66 714.35,-717.09 725.94,-717.61 737.58,-718.22 749.22,-718.92 760.83,-719.71 772.38,-720.59 783.82,-721.55 795.12,-722.6 806.24,-723.73 817.13,-724.94 827.75,-726.23 838.06,-727.59 848.01,-729.03 857.56,-730.55 866.67,-732.13 875.3,-733.79 883.4,-735.51 890.94,-737.29 897.88,-739.14 904.17,-741.04 909.8,-742.99 914.72,-745 918.91,-747.05 922.34,-749.15 925,-751.29 926.85,-753.46 927.89,-755.65 928.11,-757.88 927.49,-760.12 926.03,-762.38 923.74,-764.65 920.62,-766.92 916.67,-769.18 911.92,-771.43 906.37,-773.67 900.04,-775.88 892.97,-778.07 885.17,-780.21 876.69,-782.31 867.55,-784.36 857.8,-786.35 847.46,-788.27 836.6,-790.12 825.25,-791.89 813.46,-793.57 801.28,-795.15 788.76,-796.64 775.96,-798.02"/>
<text text-anchor="middle" x="680.69" y="-754.46" font-family="sans-serif" font-size="16.00">IntegracionRedesSocialesContext</text>
</g>
<!-- IntegracionRedesSocialesContext&#45;&gt;VentasContext -->
<g id="edge13" class="edge">
<title>IntegracionRedesSocialesContext&#45;&gt;VentasContext</title>
<path fill="none" stroke="black" stroke-width="2" d="M752.94,-719.05C792.94,-697.9 842.31,-671.8 881.33,-651.16"/>
<text text-anchor="middle" x="857.19" y="-682.53" font-family="sans-serif" font-size="12.00">Partnership</text>
</g>
<!-- NotificacionesComunicacionesContext -->
<g id="node11" class="node">
<title>NotificacionesComunicacionesContext</title>
<polygon fill="none" stroke="black" stroke-width="2" points="1172.79,-801.49 1156.65,-801.05 1140.72,-800.5 1125.07,-799.83 1109.76,-799.04 1094.86,-798.15 1080.42,-797.15 1066.51,-796.05 1053.17,-794.84 1040.45,-793.54 1028.41,-792.14 1017.08,-790.65 1006.5,-789.07 996.7,-787.42 987.72,-785.68 979.58,-783.87 972.3,-782 965.89,-780.06 960.37,-778.07 955.74,-776.02 951.99,-773.93 949.14,-771.8 947.17,-769.63 946.07,-767.43 945.82,-765.21 946.41,-762.97 947.81,-760.71 950,-758.46 952.95,-756.2 956.63,-753.95 961,-751.71 966.03,-749.48 971.69,-747.28 977.94,-745.11 984.74,-742.98 992.05,-740.88 999.84,-738.83 1008.05,-736.84 1016.67,-734.9 1025.65,-733.02 1034.95,-731.2 1044.55,-729.46 1054.4,-727.8 1064.47,-726.21 1074.74,-724.72 1085.18,-723.31 1095.75,-721.99 1106.44,-720.77 1117.23,-719.65 1128.09,-718.64 1139.01,-717.73 1149.96,-716.93 1160.94,-716.24 1171.93,-715.66 1182.92,-715.2 1193.9,-714.86 1204.85,-714.64 1215.78,-714.53 1226.67,-714.54 1237.52,-714.68 1248.31,-714.93 1259.05,-715.3 1269.72,-715.79 1280.32,-716.4 1290.83,-717.12 1301.26,-717.96 1311.58,-718.91 1321.8,-719.97 1331.89,-721.14 1341.83,-722.41 1351.63,-723.78 1361.25,-725.25 1370.68,-726.81 1379.9,-728.46 1388.88,-730.19 1397.6,-732.01 1406.03,-733.89 1414.15,-735.85 1421.92,-737.87 1429.32,-739.95 1436.31,-742.09 1442.86,-744.27 1448.95,-746.49 1454.52,-748.74 1459.56,-751.02 1464.03,-753.32 1467.88,-755.64 1471.11,-757.96 1473.66,-760.29 1475.51,-762.61 1476.64,-764.91 1477.02,-767.2 1476.62,-769.47 1475.42,-771.7 1473.41,-773.89 1470.58,-776.04 1466.9,-778.14 1462.38,-780.19 1457.02,-782.17 1450.81,-784.08 1443.75,-785.92 1435.87,-787.68 1427.17,-789.36 1417.67,-790.95 1407.4,-792.45 1396.39,-793.85 1384.66,-795.15 1372.26,-796.35 1359.22,-797.44 1345.6,-798.43 1331.43,-799.29 1316.77,-800.05 1301.69,-800.69 1286.22,-801.21 1270.44,-801.61 1254.41,-801.89 1238.2,-802.05 1221.86,-802.09 1205.47,-802.01 1189.09,-801.81 1172.79,-801.49"/>
<text text-anchor="middle" x="1214.69" y="-754.46" font-family="sans-serif" font-size="16.00">NotificacionesComunicacionesContext</text>
</g>
<!-- NotificacionesComunicacionesContext&#45;&gt;VentasContext -->
<g id="edge14" class="edge">
<title>NotificacionesComunicacionesContext&#45;&gt;VentasContext</title>
<path fill="none" stroke="black" stroke-width="2" d="M1139.6,-717.56C1102.74,-698.06 1058.47,-674.66 1021.75,-655.24"/>
<text text-anchor="middle" x="1124.19" y="-682.53" font-family="sans-serif" font-size="12.00">Partnership</text>
</g>
<!-- ProcesoPagosContext -->
<g id="node12" class="node">
<title>ProcesoPagosContext</title>
<polygon fill="none" stroke="black" stroke-width="2" points="2421.17,-182.51 2422.35,-179.66 2423.94,-176.85 2425.94,-174.08 2428.34,-171.37 2431.13,-168.72 2434.31,-166.15 2437.86,-163.68 2441.78,-161.29 2446.06,-159.02 2450.67,-156.85 2455.62,-154.82 2460.88,-152.9 2466.45,-151.13 2472.3,-149.49 2478.42,-148 2484.8,-146.66 2491.41,-145.47 2498.24,-144.43 2505.27,-143.54 2512.49,-142.81 2519.86,-142.24 2527.37,-141.82 2535.01,-141.55 2542.75,-141.42 2550.56,-141.45 2558.44,-141.62 2566.35,-141.92 2574.28,-142.36 2582.21,-142.93 2590.11,-143.62 2597.96,-144.42 2605.74,-145.34 2613.44,-146.36 2621.03,-147.48 2628.48,-148.69 2635.79,-149.98 2642.92,-151.35 2649.87,-152.8 2656.61,-154.31 2663.12,-155.87 2669.39,-157.5 2675.4,-159.17 2681.14,-160.88 2686.58,-162.63 2691.71,-164.41 2696.52,-166.22 2701,-168.05 2705.13,-169.91 2708.9,-171.77 2712.3,-173.66 2715.32,-175.55 2717.95,-177.45 2720.19,-179.36 2722.03,-181.27 2723.46,-183.19 2724.47,-185.1 2725.08,-187.02 2725.26,-188.93 2725.03,-190.83 2724.38,-192.74 2723.31,-194.63 2721.83,-196.52 2719.94,-198.4 2717.65,-200.27 2714.95,-202.13 2711.86,-203.98 2708.39,-205.8 2704.54,-207.61 2700.32,-209.4 2695.75,-211.17 2690.84,-212.91 2685.6,-214.62 2680.05,-216.29 2674.2,-217.93 2668.06,-219.52 2661.66,-221.07 2655.01,-222.56 2648.14,-223.99 2641.05,-225.37 2633.76,-226.67 2626.31,-227.89 2618.71,-229.04 2610.98,-230.09 2603.14,-231.06 2595.21,-231.92 2587.23,-232.68 2579.2,-233.33 2571.15,-233.85 2563.11,-234.26 2555.09,-234.54 2547.12,-234.69 2539.22,-234.69 2531.42,-234.56 2523.73,-234.29 2516.18,-233.86 2508.79,-233.29 2501.57,-232.57 2494.55,-231.7 2487.75,-230.68 2481.19,-229.5 2474.89,-228.18 2468.85,-226.71 2463.11,-225.1 2457.67,-223.36 2452.55,-221.47 2447.76,-219.46 2443.32,-217.33 2439.24,-215.08 2435.53,-212.72 2432.2,-210.27 2429.26,-207.72 2426.71,-205.1 2424.57,-202.4 2422.83,-199.65 2421.51,-196.84 2420.61,-194.01 2420.12,-191.14 2420.05,-188.26 2420.4,-185.38 2421.17,-182.51"/>
<text text-anchor="middle" x="2572.69" y="-184.55" font-family="sans-serif" font-size="16.00">ProcesoPagosContext</text>
</g>
<!-- ProcesoPagosContext&#45;&gt;GestionPedidosContext -->
<g id="edge15" class="edge">
<title>ProcesoPagosContext&#45;&gt;GestionPedidosContext</title>
<path fill="none" stroke="black" stroke-width="2" d="M2497.51,-144.35C2463.89,-125.11 2424.66,-102.67 2392.37,-84.2"/>
<text text-anchor="middle" x="2512.69" y="-113.79" font-family="sans-serif" font-size="12.00">Customer/Supplier</text>
<polygon fill="white" stroke="transparent" points="2385.37,-75.2 2385.37,-92.2 2399.37,-92.2 2399.37,-75.2 2385.37,-75.2"/>
<text text-anchor="start" x="2387.37" y="-80.6" font-family="sans-serif" font-size="12.00">D</text>
<polygon fill="white" stroke="transparent" points="2490.51,-135.35 2490.51,-152.35 2504.51,-152.35 2504.51,-135.35 2490.51,-135.35"/>
<text text-anchor="start" x="2492.51" y="-140.75" font-family="sans-serif" font-size="12.00">U</text>
</g>
<!-- SeguridadContext -->
<g id="node13" class="node">
<title>SeguridadContext</title>
<polygon fill="none" stroke="black" stroke-width="2" points="3007.85,-771.61 3005.29,-774.37 3002.39,-777.07 2999.16,-779.7 2995.61,-782.26 2991.76,-784.74 2987.61,-787.12 2983.17,-789.39 2978.48,-791.55 2973.52,-793.58 2968.33,-795.49 2962.92,-797.26 2957.3,-798.88 2951.49,-800.36 2945.5,-801.68 2939.36,-802.85 2933.07,-803.86 2926.66,-804.7 2920.13,-805.39 2913.52,-805.91 2906.83,-806.27 2900.09,-806.47 2893.3,-806.51 2886.49,-806.4 2879.67,-806.13 2872.86,-805.71 2866.07,-805.15 2859.32,-804.46 2852.63,-803.63 2846.02,-802.67 2839.49,-801.59 2833.07,-800.4 2826.76,-799.11 2820.59,-797.72 2814.56,-796.23 2808.7,-794.66 2803.02,-793.02 2797.52,-791.31 2792.23,-789.53 2787.15,-787.7 2782.31,-785.83 2777.7,-783.91 2773.35,-781.96 2769.26,-779.98 2765.45,-777.98 2761.92,-775.96 2758.69,-773.93 2755.77,-771.9 2753.16,-769.86 2750.87,-767.82 2748.91,-765.79 2747.29,-763.77 2746.01,-761.76 2745.08,-759.76 2744.5,-757.78 2744.28,-755.82 2744.41,-753.88 2744.91,-751.96 2745.77,-750.06 2747,-748.18 2748.59,-746.34 2750.53,-744.52 2752.84,-742.72 2755.5,-740.96 2758.51,-739.23 2761.86,-737.53 2765.54,-735.86 2769.56,-734.22 2773.89,-732.63 2778.53,-731.07 2783.47,-729.55 2788.69,-728.08 2794.18,-726.65 2799.92,-725.28 2805.91,-723.95 2812.12,-722.69 2818.54,-721.48 2825.14,-720.34 2831.92,-719.26 2838.84,-718.26 2845.9,-717.34 2853.06,-716.5 2860.31,-715.75 2867.63,-715.09 2874.99,-714.54 2882.38,-714.08 2889.76,-713.73 2897.11,-713.49 2904.42,-713.37 2911.67,-713.37 2918.82,-713.5 2925.85,-713.75 2932.75,-714.14 2939.49,-714.66 2946.06,-715.32 2952.43,-716.11 2958.58,-717.05 2964.49,-718.12 2970.15,-719.33 2975.54,-720.68 2980.64,-722.17 2985.44,-723.79 2989.92,-725.55 2994.07,-727.42 2997.88,-729.42 3001.34,-731.54 3004.44,-733.77 3007.18,-736.1 3009.53,-738.53 3011.51,-741.04 3013.1,-743.63 3014.31,-746.3 3015.12,-749.02 3015.55,-751.79 3015.58,-754.59 3015.24,-757.43 3014.5,-760.28 3013.39,-763.14 3011.91,-765.98 3010.06,-768.81 3007.85,-771.61"/>
<text text-anchor="middle" x="2878.69" y="-754.46" font-family="sans-serif" font-size="16.00">SeguridadContext</text>
</g>
<!-- ServicioClienteContext -->
<g id="node14" class="node">
<title>ServicioClienteContext</title>
<polygon fill="none" stroke="black" stroke-width="2" points="1577.69,-792.05 1569.47,-790.25 1561.58,-788.37 1554.06,-786.42 1546.94,-784.4 1540.26,-782.32 1534.03,-780.19 1528.28,-778.01 1523.04,-775.79 1518.34,-773.55 1514.18,-771.28 1510.59,-768.99 1507.57,-766.7 1505.15,-764.4 1503.32,-762.11 1502.09,-759.83 1501.47,-757.57 1501.46,-755.33 1502.04,-753.11 1503.22,-750.93 1504.98,-748.79 1507.31,-746.69 1510.2,-744.64 1513.63,-742.64 1517.58,-740.69 1522.03,-738.8 1526.96,-736.97 1532.34,-735.21 1538.15,-733.51 1544.35,-731.88 1550.92,-730.32 1557.83,-728.84 1565.04,-727.43 1572.53,-726.1 1580.26,-724.84 1588.2,-723.67 1596.33,-722.57 1604.6,-721.56 1612.99,-720.64 1621.47,-719.8 1630.01,-719.04 1638.58,-718.37 1647.15,-717.8 1655.69,-717.31 1664.19,-716.91 1672.62,-716.6 1680.96,-716.39 1689.18,-716.27 1697.27,-716.25 1705.21,-716.32 1712.99,-716.49 1720.59,-716.76 1727.99,-717.13 1735.2,-717.59 1742.19,-718.16 1748.95,-718.82 1755.49,-719.59 1761.8,-720.46 1767.86,-721.42 1773.68,-722.49 1779.25,-723.66 1784.57,-724.92 1789.63,-726.28 1794.44,-727.74 1798.99,-729.29 1803.27,-730.93 1807.3,-732.66 1811.06,-734.47 1814.55,-736.37 1817.77,-738.34 1820.72,-740.39 1823.4,-742.51 1825.8,-744.69 1827.91,-746.93 1829.74,-749.22 1831.28,-751.55 1832.51,-753.93 1833.45,-756.34 1834.07,-758.77 1834.38,-761.23 1834.36,-763.69 1834.02,-766.15 1833.33,-768.61 1832.3,-771.05 1830.92,-773.47 1829.18,-775.86 1827.07,-778.2 1824.59,-780.5 1821.74,-782.74 1818.51,-784.91 1814.89,-787.01 1810.88,-789.03 1806.49,-790.95 1801.72,-792.78 1796.55,-794.51 1791.01,-796.12 1785.09,-797.62 1778.8,-799 1772.16,-800.24 1765.16,-801.35 1757.83,-802.33 1750.18,-803.17 1742.23,-803.86 1733.99,-804.4 1725.49,-804.8 1716.75,-805.05 1707.8,-805.15 1698.66,-805.1 1689.36,-804.9 1679.94,-804.56 1670.41,-804.07 1660.83,-803.43 1651.22,-802.66 1641.62,-801.76 1632.06,-800.72 1622.58,-799.56 1613.22,-798.27 1604.01,-796.88 1594.99,-795.37 1586.21,-793.76 1577.69,-792.05"/>
<text text-anchor="middle" x="1680.69" y="-754.46" font-family="sans-serif" font-size="16.00">ServicioClienteContext</text>
</g>
<!-- ServicioClienteContext&#45;&gt;VentasContext -->
<g id="edge16" class="edge">
<title>ServicioClienteContext&#45;&gt;VentasContext</title>
<path fill="none" stroke="black" stroke-width="2" d="M1566.42,-727.17C1542.16,-721.19 1516.64,-715.2 1492.69,-710.13 1342.38,-678.37 1167.06,-649.57 1056.72,-632.44"/>
<text text-anchor="middle" x="1424.19" y="-682.53" font-family="sans-serif" font-size="12.00">Partnership</text>
</g>
</g>
</svg>
