<svg width="2000px" height="1092px"
 viewBox="0.00 0.00 974.11 531.89" xmlns="http://www.w3.org/2000/svg" xmlns:xlink="http://www.w3.org/1999/xlink">
<g id="graph0" class="graph" transform="scale(1.0 1.0) rotate(0) translate(4 527.89)">
<title>ContextMapGraph</title>
<polygon fill="white" stroke="transparent" points="-4,4 -4,-527.89 970.11,-527.89 970.11,4 -4,4"/>
<!-- atencionCliente -->
<g id="node1" class="node">
<title>atencionCliente</title>
<polygon fill="none" stroke="black" stroke-width="2" points="715.69,-84.24 709.15,-85.85 702.46,-87.35 695.66,-88.74 688.77,-90 681.81,-91.13 674.81,-92.13 667.8,-92.99 660.81,-93.7 653.85,-94.27 646.95,-94.69 640.13,-94.95 633.42,-95.07 626.83,-95.03 620.38,-94.83 614.09,-94.48 607.98,-93.98 602.07,-93.33 596.35,-92.53 590.86,-91.58 585.59,-90.5 580.56,-89.28 575.78,-87.92 571.25,-86.44 566.98,-84.84 562.97,-83.13 559.22,-81.31 555.75,-79.39 552.54,-77.39 549.6,-75.29 546.93,-73.13 544.52,-70.89 542.39,-68.6 540.51,-66.26 538.9,-63.88 537.54,-61.47 536.44,-59.04 535.58,-56.59 534.98,-54.13 534.62,-51.68 534.5,-49.23 534.62,-46.81 534.97,-44.4 535.56,-42.04 536.37,-39.71 537.41,-37.42 538.68,-35.19 540.17,-33.01 541.89,-30.9 543.82,-28.85 545.97,-26.88 548.35,-24.98 550.94,-23.16 553.75,-21.42 556.77,-19.77 560.01,-18.2 563.47,-16.72 567.14,-15.33 571.02,-14.04 575.11,-12.83 579.41,-11.73 583.91,-10.71 588.61,-9.79 593.51,-8.97 598.6,-8.24 603.87,-7.6 609.31,-7.06 614.93,-6.61 620.7,-6.26 626.61,-6 632.66,-5.83 638.84,-5.75 645.12,-5.77 651.49,-5.87 657.94,-6.07 664.44,-6.35 670.98,-6.72 677.55,-7.19 684.11,-7.74 690.64,-8.37 697.14,-9.1 703.56,-9.91 709.9,-10.81 716.11,-11.79 722.19,-12.86 728.11,-14.01 733.84,-15.25 739.36,-16.57 744.64,-17.96 749.67,-19.44 754.41,-21 758.86,-22.63 762.98,-24.34 766.76,-26.12 770.18,-27.97 773.23,-29.89 775.88,-31.87 778.13,-33.91 779.96,-36 781.36,-38.15 782.33,-40.34 782.86,-42.58 782.94,-44.85 782.57,-47.16 781.76,-49.49 780.5,-51.83 778.8,-54.19 776.66,-56.56 774.1,-58.92 771.12,-61.28 767.74,-63.61 763.97,-65.92 759.83,-68.2 755.33,-70.43 750.5,-72.62 745.35,-74.75 739.91,-76.81 734.2,-78.8 728.25,-80.7 722.07,-82.52 715.69,-84.24"/>
<text text-anchor="middle" x="649.11" y="-43.72" font-family="sans-serif" font-size="16.00">atencionCliente</text>
</g>
<!-- carritoCompras -->
<g id="node2" class="node">
<title>carritoCompras</title>
<polygon fill="none" stroke="black" stroke-width="2" points="290.98,-441.09 297.08,-439.32 303.35,-437.65 309.75,-436.1 316.26,-434.67 322.86,-433.37 329.53,-432.2 336.23,-431.17 342.95,-430.28 349.65,-429.54 356.33,-428.95 362.96,-428.51 369.51,-428.23 375.97,-428.1 382.32,-428.13 388.55,-428.32 394.62,-428.66 400.54,-429.16 406.29,-429.82 411.85,-430.62 417.21,-431.56 422.36,-432.65 427.3,-433.88 432.02,-435.24 436.5,-436.72 440.75,-438.33 444.76,-440.04 448.53,-441.87 452.05,-443.78 455.32,-445.79 458.35,-447.88 461.12,-450.05 463.65,-452.27 465.93,-454.55 467.96,-456.88 469.74,-459.25 471.28,-461.65 472.58,-464.07 473.63,-466.5 474.45,-468.93 475.03,-471.36 475.37,-473.78 475.48,-476.18 475.35,-478.55 474.99,-480.89 474.4,-483.19 473.58,-485.45 472.53,-487.65 471.25,-489.8 469.75,-491.88 468.01,-493.9 466.04,-495.86 463.85,-497.73 461.43,-499.54 458.78,-501.26 455.9,-502.9 452.79,-504.46 449.46,-505.94 445.9,-507.32 442.12,-508.63 438.12,-509.84 433.91,-510.96 429.47,-512 424.83,-512.94 419.99,-513.8 414.95,-514.56 409.72,-515.24 404.31,-515.83 398.72,-516.33 392.98,-516.73 387.08,-517.06 381.05,-517.29 374.9,-517.43 368.64,-517.49 362.29,-517.46 355.87,-517.34 349.39,-517.13 342.87,-516.84 336.35,-516.46 329.82,-515.99 323.33,-515.43 316.88,-514.78 310.51,-514.05 304.23,-513.23 298.08,-512.32 292.07,-511.32 286.22,-510.23 280.57,-509.06 275.13,-507.8 269.93,-506.46 264.99,-505.03 260.33,-503.51 255.97,-501.92 251.93,-500.24 248.23,-498.49 244.89,-496.65 241.92,-494.75 239.33,-492.78 237.14,-490.74 235.36,-488.63 234,-486.47 233.06,-484.26 232.56,-482 232.48,-479.69 232.84,-477.35 233.63,-474.99 234.85,-472.59 236.5,-470.18 238.56,-467.77 241.03,-465.35 243.9,-462.94 247.16,-460.54 250.78,-458.17 254.76,-455.83 259.08,-453.53 263.72,-451.29 268.66,-449.1 273.88,-446.97 279.35,-444.92 285.06,-442.96 290.98,-441.09"/>
<text text-anchor="middle" x="363.11" y="-472.16" font-family="sans-serif" font-size="16.00">carritoCompras</text>
</g>
<!-- pedidos -->
<g id="node3" class="node">
<title>pedidos</title>
<polygon fill="none" stroke="black" stroke-width="2" points="111.77,-371.81 107.1,-372.84 102.39,-373.76 97.65,-374.55 92.9,-375.22 88.17,-375.75 83.46,-376.15 78.81,-376.41 74.21,-376.54 69.7,-376.52 65.28,-376.37 60.97,-376.07 56.79,-375.64 52.74,-375.06 48.84,-374.34 45.1,-373.49 41.53,-372.51 38.14,-371.39 34.93,-370.15 31.91,-368.78 29.09,-367.3 26.47,-365.7 24.05,-363.99 21.84,-362.18 19.83,-360.28 18.03,-358.29 16.43,-356.21 15.04,-354.07 13.85,-351.85 12.86,-349.58 12.06,-347.25 11.46,-344.89 11.04,-342.48 10.8,-340.06 10.74,-337.61 10.85,-335.15 11.12,-332.7 11.56,-330.24 12.15,-327.81 12.89,-325.39 13.77,-323 14.8,-320.66 15.96,-318.35 17.25,-316.09 18.66,-313.9 20.2,-311.76 21.86,-309.69 23.63,-307.7 25.51,-305.78 27.51,-303.95 29.61,-302.2 31.82,-300.55 34.13,-298.99 36.55,-297.53 39.06,-296.17 41.67,-294.91 44.38,-293.75 47.19,-292.7 50.09,-291.76 53.09,-290.92 56.17,-290.19 59.35,-289.57 62.61,-289.06 65.95,-288.66 69.37,-288.36 72.87,-288.18 76.44,-288.09 80.08,-288.11 83.77,-288.24 87.52,-288.47 91.32,-288.8 95.16,-289.23 99.02,-289.75 102.91,-290.37 106.81,-291.09 110.71,-291.89 114.6,-292.79 118.46,-293.78 122.29,-294.85 126.07,-296 129.79,-297.23 133.44,-298.55 136.99,-299.94 140.44,-301.4 143.77,-302.93 146.96,-304.53 150.01,-306.2 152.9,-307.93 155.61,-309.72 158.12,-311.57 160.44,-313.47 162.54,-315.42 164.41,-317.42 166.05,-319.46 167.43,-321.54 168.56,-323.65 169.42,-325.79 170,-327.95 170.31,-330.14 170.33,-332.34 170.07,-334.56 169.52,-336.77 168.67,-338.99 167.54,-341.2 166.13,-343.4 164.43,-345.58 162.46,-347.74 160.21,-349.86 157.71,-351.95 154.95,-354 151.95,-355.99 148.72,-357.93 145.27,-359.81 141.62,-361.62 137.79,-363.35 133.78,-365 129.61,-366.56 125.31,-368.03 120.89,-369.39 116.37,-370.66 111.77,-371.81"/>
<text text-anchor="middle" x="85.11" y="-326.88" font-family="sans-serif" font-size="16.00">pedidos</text>
</g>
<!-- carritoCompras&#45;&gt;pedidos -->
<g id="edge1" class="edge">
<title>carritoCompras&#45;&gt;pedidos</title>
<path fill="none" stroke="black" stroke-width="2" d="M245.09,-461.85C179.26,-451.85 106.49,-435.4 86.11,-410.03 78.62,-400.7 76.15,-388.52 76.15,-376.56"/>
<text text-anchor="middle" x="161.61" y="-400.43" font-family="sans-serif" font-size="12.00"> &#160;&#160;&#160;&#160;&#160;&#160;&#160;&#160;&#160;&#160;&#160;&#160;&#160;&#160;&#160;&#160;&#160;&#160;&#160;&#160;&#160;&#160;&#160;&#160;&#160;&#160;&#160;&#160;&#160;&#160;&#160;&#160;&#160;&#160;&#160;&#160;&#160;&#160;&#160;</text>
<polygon fill="white" stroke="transparent" points="53.15,-366.56 53.15,-385.56 69.15,-385.56 69.15,-366.56 53.15,-366.56"/>
<polyline fill="none" stroke="black" points="69.15,-366.56 69.15,-385.56 "/>
<text text-anchor="start" x="56.15" y="-372.96" font-family="sans-serif" font-size="12.00">D</text>
<polygon fill="white" stroke="transparent" points="69.15,-366.56 69.15,-385.56 99.15,-385.56 99.15,-366.56 69.15,-366.56"/>
<polygon fill="none" stroke="black" points="69.15,-366.56 69.15,-385.56 99.15,-385.56 99.15,-366.56 69.15,-366.56"/>
<text text-anchor="start" x="72.15" y="-372.96" font-family="sans-serif" font-size="12.00">ACL</text>
<polygon fill="white" stroke="transparent" points="238.09,-452.85 238.09,-469.85 252.09,-469.85 252.09,-452.85 238.09,-452.85"/>
<text text-anchor="start" x="240.09" y="-458.25" font-family="sans-serif" font-size="12.00">U</text>
</g>
<!-- ventas -->
<g id="node4" class="node">
<title>ventas</title>
<polygon fill="none" stroke="black" stroke-width="2" points="637.74,-145.2 642.24,-144.69 646.74,-144.3 651.22,-144.04 655.68,-143.91 660.08,-143.9 664.42,-144.02 668.67,-144.27 672.82,-144.65 676.86,-145.16 680.77,-145.8 684.54,-146.57 688.16,-147.46 691.61,-148.47 694.88,-149.6 697.97,-150.85 700.87,-152.22 703.57,-153.69 706.07,-155.27 708.36,-156.95 710.43,-158.72 712.29,-160.59 713.94,-162.54 715.37,-164.56 716.59,-166.66 717.6,-168.82 718.4,-171.04 718.99,-173.31 719.38,-175.63 719.58,-177.98 719.59,-180.36 719.41,-182.76 719.06,-185.18 718.53,-187.6 717.84,-190.02 717,-192.43 716,-194.82 714.87,-197.19 713.6,-199.53 712.2,-201.83 710.68,-204.09 709.05,-206.3 707.31,-208.44 705.47,-210.53 703.53,-212.54 701.5,-214.48 699.39,-216.34 697.19,-218.11 694.92,-219.79 692.58,-221.38 690.16,-222.87 687.68,-224.26 685.14,-225.54 682.53,-226.72 679.86,-227.79 677.14,-228.74 674.36,-229.59 671.53,-230.31 668.64,-230.93 665.7,-231.42 662.72,-231.8 659.69,-232.06 656.61,-232.21 653.49,-232.24 650.34,-232.16 647.15,-231.96 643.92,-231.65 640.67,-231.23 637.4,-230.7 634.11,-230.06 630.81,-229.32 627.5,-228.48 624.2,-227.53 620.9,-226.49 617.63,-225.36 614.38,-224.14 611.17,-222.83 608.01,-221.43 604.9,-219.96 601.87,-218.4 598.91,-216.78 596.05,-215.08 593.29,-213.32 590.64,-211.5 588.13,-209.62 585.75,-207.69 583.53,-205.71 581.47,-203.69 579.59,-201.62 577.89,-199.53 576.39,-197.4 575.11,-195.24 574.04,-193.07 573.19,-190.88 572.59,-188.68 572.22,-186.47 572.1,-184.26 572.23,-182.06 572.62,-179.87 573.27,-177.7 574.18,-175.54 575.35,-173.42 576.78,-171.32 578.47,-169.27 580.4,-167.25 582.59,-165.29 585.01,-163.38 587.67,-161.53 590.55,-159.74 593.64,-158.03 596.94,-156.39 600.42,-154.83 604.08,-153.36 607.9,-151.97 611.86,-150.69 615.95,-149.5 620.16,-148.42 624.46,-147.44 628.83,-146.58 633.27,-145.83 637.74,-145.2"/>
<text text-anchor="middle" x="649.11" y="-184.89" font-family="sans-serif" font-size="16.00">ventas</text>
</g>
<!-- carritoCompras&#45;&gt;ventas -->
<g id="edge2" class="edge">
<title>carritoCompras&#45;&gt;ventas</title>
<path fill="none" stroke="black" stroke-width="2" d="M306.12,-436.7C287.89,-421.17 269.91,-401.55 260.11,-379.03 242.96,-339.62 233.47,-316.06 260.11,-282.33 298.68,-233.51 473.95,-207.64 575.58,-196.51"/>
<text text-anchor="middle" x="335.61" y="-327.58" font-family="sans-serif" font-size="12.00"> &#160;&#160;&#160;&#160;&#160;&#160;&#160;&#160;&#160;&#160;&#160;&#160;&#160;&#160;&#160;&#160;&#160;&#160;&#160;&#160;&#160;&#160;&#160;&#160;&#160;&#160;&#160;&#160;&#160;&#160;&#160;&#160;&#160;&#160;&#160;&#160;&#160;&#160;&#160;</text>
<polygon fill="white" stroke="transparent" points="552.58,-186.51 552.58,-205.51 568.58,-205.51 568.58,-186.51 552.58,-186.51"/>
<polyline fill="none" stroke="black" points="568.58,-186.51 568.58,-205.51 "/>
<text text-anchor="start" x="555.58" y="-192.91" font-family="sans-serif" font-size="12.00">D</text>
<polygon fill="white" stroke="transparent" points="568.58,-186.51 568.58,-205.51 598.58,-205.51 598.58,-186.51 568.58,-186.51"/>
<polygon fill="none" stroke="black" points="568.58,-186.51 568.58,-205.51 598.58,-205.51 598.58,-186.51 568.58,-186.51"/>
<text text-anchor="start" x="571.58" y="-192.91" font-family="sans-serif" font-size="12.00">ACL</text>
<polygon fill="white" stroke="transparent" points="299.12,-427.7 299.12,-444.7 313.12,-444.7 313.12,-427.7 299.12,-427.7"/>
<text text-anchor="start" x="301.12" y="-433.1" font-family="sans-serif" font-size="12.00">U</text>
</g>
<!-- pagos -->
<g id="node5" class="node">
<title>pagos</title>
<polygon fill="none" stroke="black" stroke-width="2" points="480.18,-287.74 484.37,-287.14 488.58,-286.66 492.77,-286.3 496.95,-286.07 501.08,-285.96 505.16,-285.99 509.16,-286.15 513.08,-286.44 516.9,-286.85 520.6,-287.4 524.18,-288.08 527.62,-288.89 530.91,-289.82 534.04,-290.87 537.01,-292.04 539.8,-293.33 542.41,-294.74 544.84,-296.25 547.07,-297.87 549.11,-299.58 550.96,-301.4 552.61,-303.29 554.06,-305.27 555.31,-307.33 556.37,-309.46 557.23,-311.64 557.91,-313.89 558.4,-316.18 558.7,-318.51 558.84,-320.87 558.79,-323.26 558.59,-325.67 558.22,-328.08 557.7,-330.5 557.03,-332.91 556.22,-335.31 555.28,-337.69 554.21,-340.04 553.02,-342.36 551.71,-344.63 550.29,-346.86 548.77,-349.03 547.15,-351.13 545.43,-353.18 543.63,-355.15 541.74,-357.04 539.78,-358.84 537.73,-360.56 535.61,-362.19 533.43,-363.73 531.17,-365.16 528.85,-366.49 526.46,-367.72 524.01,-368.83 521.51,-369.84 518.94,-370.74 516.32,-371.53 513.64,-372.2 510.91,-372.75 508.13,-373.2 505.29,-373.52 502.41,-373.74 499.49,-373.83 496.52,-373.82 493.52,-373.69 490.47,-373.45 487.4,-373.11 484.3,-372.65 481.18,-372.09 478.04,-371.43 474.89,-370.66 471.74,-369.8 468.6,-368.84 465.47,-367.79 462.35,-366.64 459.27,-365.41 456.23,-364.09 453.24,-362.7 450.31,-361.22 447.45,-359.67 444.67,-358.05 441.99,-356.36 439.41,-354.61 436.95,-352.8 434.62,-350.94 432.43,-349.02 430.39,-347.05 428.52,-345.05 426.82,-343 425.31,-340.92 423.98,-338.81 422.87,-336.67 421.96,-334.51 421.28,-332.34 420.82,-330.16 420.59,-327.97 420.6,-325.78 420.85,-323.6 421.35,-321.42 422.09,-319.27 423.08,-317.13 424.31,-315.02 425.79,-312.94 427.5,-310.9 429.45,-308.9 431.63,-306.95 434.02,-305.05 436.63,-303.22 439.45,-301.45 442.46,-299.75 445.64,-298.12 449,-296.58 452.51,-295.12 456.17,-293.76 459.95,-292.49 463.84,-291.32 467.82,-290.26 471.89,-289.31 476.01,-288.47 480.18,-287.74"/>
<text text-anchor="middle" x="493.11" y="-326.88" font-family="sans-serif" font-size="16.00">pagos</text>
</g>
<!-- carritoCompras&#45;&gt;pagos -->
<g id="edge3" class="edge">
<title>carritoCompras&#45;&gt;pagos</title>
<path fill="none" stroke="black" stroke-width="2" d="M404.6,-429.23C423.03,-408.92 444.37,-385.4 461.48,-366.54"/>
<text text-anchor="middle" x="507.61" y="-400.43" font-family="sans-serif" font-size="12.00"> &#160;&#160;&#160;&#160;&#160;&#160;&#160;&#160;&#160;&#160;&#160;&#160;&#160;&#160;&#160;&#160;&#160;&#160;&#160;&#160;&#160;&#160;&#160;&#160;&#160;&#160;&#160;&#160;&#160;&#160;&#160;&#160;&#160;&#160;&#160;&#160;&#160;&#160;&#160;</text>
<polygon fill="white" stroke="transparent" points="438.48,-356.54 438.48,-375.54 454.48,-375.54 454.48,-356.54 438.48,-356.54"/>
<polyline fill="none" stroke="black" points="454.48,-356.54 454.48,-375.54 "/>
<text text-anchor="start" x="441.48" y="-362.94" font-family="sans-serif" font-size="12.00">D</text>
<polygon fill="white" stroke="transparent" points="454.48,-356.54 454.48,-375.54 484.48,-375.54 484.48,-356.54 454.48,-356.54"/>
<polygon fill="none" stroke="black" points="454.48,-356.54 454.48,-375.54 484.48,-375.54 484.48,-356.54 454.48,-356.54"/>
<text text-anchor="start" x="457.48" y="-362.94" font-family="sans-serif" font-size="12.00">ACL</text>
<polygon fill="white" stroke="transparent" points="397.6,-420.23 397.6,-437.23 411.6,-437.23 411.6,-420.23 397.6,-420.23"/>
<text text-anchor="start" x="399.6" y="-425.63" font-family="sans-serif" font-size="12.00">U</text>
</g>
<!-- login -->
<g id="node6" class="node">
<title>login</title>
<polygon fill="none" stroke="black" stroke-width="2" points="696.91,-304.72 699.26,-307 701.45,-309.34 703.5,-311.72 705.37,-314.14 707.08,-316.6 708.6,-319.07 709.94,-321.56 711.08,-324.05 712.03,-326.53 712.77,-329 713.3,-331.45 713.63,-333.87 713.74,-336.25 713.64,-338.59 713.33,-340.88 712.81,-343.11 712.09,-345.28 711.16,-347.39 710.02,-349.42 708.69,-351.38 707.17,-353.26 705.47,-355.06 703.59,-356.77 701.55,-358.4 699.34,-359.94 696.98,-361.38 694.49,-362.74 691.86,-364 689.11,-365.17 686.26,-366.25 683.31,-367.24 680.28,-368.13 677.17,-368.93 674,-369.63 670.78,-370.25 667.53,-370.78 664.24,-371.21 660.95,-371.56 657.65,-371.82 654.36,-371.99 651.08,-372.07 647.83,-372.07 644.63,-371.98 641.46,-371.81 638.36,-371.55 635.31,-371.21 632.34,-370.78 629.45,-370.28 626.64,-369.68 623.92,-369.01 621.3,-368.25 618.78,-367.41 616.36,-366.49 614.05,-365.48 611.85,-364.39 609.77,-363.22 607.81,-361.97 605.96,-360.63 604.23,-359.22 602.63,-357.72 601.14,-356.15 599.78,-354.5 598.55,-352.77 597.43,-350.97 596.44,-349.1 595.57,-347.17 594.82,-345.16 594.19,-343.1 593.69,-340.97 593.31,-338.8 593.05,-336.57 592.9,-334.3 592.88,-332 592.98,-329.66 593.2,-327.29 593.53,-324.91 593.99,-322.52 594.56,-320.12 595.26,-317.72 596.07,-315.34 597,-312.98 598.04,-310.64 599.21,-308.35 600.5,-306.09 601.9,-303.9 603.42,-301.76 605.05,-299.7 606.8,-297.72 608.67,-295.83 610.64,-294.03 612.73,-292.34 614.93,-290.76 617.23,-289.31 619.64,-287.97 622.15,-286.77 624.75,-285.71 627.44,-284.79 630.22,-284.02 633.08,-283.41 636.01,-282.94 639.01,-282.63 642.08,-282.49 645.2,-282.5 648.36,-282.67 651.56,-283 654.78,-283.5 658.03,-284.14 661.28,-284.95 664.53,-285.9 667.76,-287 670.98,-288.24 674.15,-289.62 677.28,-291.12 680.35,-292.75 683.35,-294.5 686.27,-296.36 689.1,-298.32 691.82,-300.37 694.43,-302.51 696.91,-304.72"/>
<text text-anchor="middle" x="649.11" y="-326.88" font-family="sans-serif" font-size="16.00">login</text>
</g>
<!-- carritoCompras&#45;&gt;login -->
<g id="edge4" class="edge">
<title>carritoCompras&#45;&gt;login</title>
<path fill="none" stroke="black" stroke-width="2" d="M469.28,-458.31C508.64,-448.64 552.16,-433.52 587.11,-410.03 602.52,-399.68 615.87,-384.29 626.21,-369.89"/>
<text text-anchor="middle" x="677.61" y="-400.43" font-family="sans-serif" font-size="12.00"> &#160;&#160;&#160;&#160;&#160;&#160;&#160;&#160;&#160;&#160;&#160;&#160;&#160;&#160;&#160;&#160;&#160;&#160;&#160;&#160;&#160;&#160;&#160;&#160;&#160;&#160;&#160;&#160;&#160;&#160;&#160;&#160;&#160;&#160;&#160;&#160;&#160;&#160;&#160;</text>
<polygon fill="white" stroke="transparent" points="619.21,-360.89 619.21,-377.89 633.21,-377.89 633.21,-360.89 619.21,-360.89"/>
<text text-anchor="start" x="621.21" y="-366.29" font-family="sans-serif" font-size="12.00">D</text>
<polygon fill="white" stroke="transparent" points="462.28,-449.31 462.28,-466.31 476.28,-466.31 476.28,-449.31 462.28,-449.31"/>
<text text-anchor="start" x="464.28" y="-454.71" font-family="sans-serif" font-size="12.00">U</text>
</g>
<!-- ventas&#45;&gt;atencionCliente -->
<g id="edge5" class="edge">
<title>ventas&#45;&gt;atencionCliente</title>
<path fill="none" stroke="black" stroke-width="2" d="M649.11,-144.04C649.11,-128.41 649.11,-110.75 649.11,-94.91"/>
<text text-anchor="middle" x="724.61" y="-116.44" font-family="sans-serif" font-size="12.00"> &#160;&#160;&#160;&#160;&#160;&#160;&#160;&#160;&#160;&#160;&#160;&#160;&#160;&#160;&#160;&#160;&#160;&#160;&#160;&#160;&#160;&#160;&#160;&#160;&#160;&#160;&#160;&#160;&#160;&#160;&#160;&#160;&#160;&#160;&#160;&#160;&#160;&#160;&#160;</text>
<polygon fill="white" stroke="transparent" points="626.11,-84.91 626.11,-103.91 642.11,-103.91 642.11,-84.91 626.11,-84.91"/>
<polyline fill="none" stroke="black" points="642.11,-84.91 642.11,-103.91 "/>
<text text-anchor="start" x="629.11" y="-91.31" font-family="sans-serif" font-size="12.00">D</text>
<polygon fill="white" stroke="transparent" points="642.11,-84.91 642.11,-103.91 672.11,-103.91 672.11,-84.91 642.11,-84.91"/>
<polygon fill="none" stroke="black" points="642.11,-84.91 642.11,-103.91 672.11,-103.91 672.11,-84.91 642.11,-84.91"/>
<text text-anchor="start" x="645.11" y="-91.31" font-family="sans-serif" font-size="12.00">ACL</text>
<polygon fill="white" stroke="transparent" points="642.11,-135.04 642.11,-152.04 656.11,-152.04 656.11,-135.04 642.11,-135.04"/>
<text text-anchor="start" x="644.11" y="-140.44" font-family="sans-serif" font-size="12.00">U</text>
</g>
<!-- login&#45;&gt;ventas -->
<g id="edge6" class="edge">
<title>login&#45;&gt;ventas</title>
<path fill="none" stroke="black" stroke-width="2" d="M649.11,-282.68C649.11,-266.31 649.11,-248.07 649.11,-232.1"/>
<text text-anchor="middle" x="724.61" y="-254.73" font-family="sans-serif" font-size="12.00"> &#160;&#160;&#160;&#160;&#160;&#160;&#160;&#160;&#160;&#160;&#160;&#160;&#160;&#160;&#160;&#160;&#160;&#160;&#160;&#160;&#160;&#160;&#160;&#160;&#160;&#160;&#160;&#160;&#160;&#160;&#160;&#160;&#160;&#160;&#160;&#160;&#160;&#160;&#160;</text>
<polygon fill="white" stroke="transparent" points="642.11,-223.1 642.11,-240.1 656.11,-240.1 656.11,-223.1 642.11,-223.1"/>
<text text-anchor="start" x="644.11" y="-228.5" font-family="sans-serif" font-size="12.00">D</text>
<polygon fill="white" stroke="transparent" points="642.11,-273.68 642.11,-290.68 656.11,-290.68 656.11,-273.68 642.11,-273.68"/>
<text text-anchor="start" x="644.11" y="-279.08" font-family="sans-serif" font-size="12.00">U</text>
</g>
<!-- devoluciones -->
<g id="node7" class="node">
<title>devoluciones</title>
<polygon fill="none" stroke="black" stroke-width="2" points="779.86,-297.06 785.12,-295.16 790.53,-293.37 796.09,-291.69 801.76,-290.12 807.52,-288.69 813.36,-287.38 819.25,-286.22 825.17,-285.19 831.1,-284.32 837.02,-283.6 842.92,-283.03 848.77,-282.62 854.56,-282.36 860.27,-282.27 865.88,-282.34 871.39,-282.57 876.77,-282.96 882.01,-283.5 887.11,-284.2 892.05,-285.04 896.82,-286.04 901.41,-287.17 905.82,-288.45 910.04,-289.85 914.06,-291.38 917.88,-293.03 921.5,-294.78 924.91,-296.64 928.11,-298.59 931.09,-300.63 933.86,-302.75 936.41,-304.94 938.75,-307.19 940.87,-309.49 942.78,-311.83 944.46,-314.21 945.94,-316.61 947.2,-319.03 948.24,-321.46 949.07,-323.89 949.68,-326.31 950.09,-328.72 950.27,-331.11 950.25,-333.46 950.02,-335.78 949.57,-338.07 948.9,-340.3 948.03,-342.48 946.94,-344.61 945.64,-346.67 944.12,-348.67 942.39,-350.6 940.45,-352.45 938.28,-354.24 935.91,-355.94 933.32,-357.57 930.51,-359.11 927.49,-360.58 924.26,-361.96 920.82,-363.25 917.18,-364.46 913.33,-365.59 909.28,-366.63 905.04,-367.58 900.61,-368.45 895.99,-369.23 891.21,-369.92 886.25,-370.53 881.14,-371.06 875.89,-371.49 870.5,-371.84 864.99,-372.11 859.38,-372.29 853.67,-372.38 847.88,-372.38 842.04,-372.3 836.15,-372.13 830.23,-371.87 824.31,-371.53 818.4,-371.09 812.53,-370.57 806.71,-369.96 800.97,-369.25 795.33,-368.46 789.8,-367.58 784.41,-366.6 779.18,-365.53 774.14,-364.37 769.29,-363.12 764.67,-361.78 760.29,-360.35 756.17,-358.83 752.33,-357.23 748.78,-355.54 745.54,-353.76 742.63,-351.91 740.06,-349.98 737.83,-347.97 735.96,-345.89 734.46,-343.75 733.34,-341.55 732.59,-339.28 732.23,-336.97 732.26,-334.61 732.66,-332.22 733.45,-329.79 734.63,-327.34 736.17,-324.87 738.08,-322.4 740.35,-319.92 742.97,-317.45 745.93,-315 749.21,-312.57 752.79,-310.18 756.68,-307.83 760.83,-305.54 765.25,-303.3 769.91,-301.14 774.78,-299.06 779.86,-297.06"/>
<text text-anchor="middle" x="849.11" y="-326.88" font-family="sans-serif" font-size="16.00">devoluciones</text>
</g>
<!-- devoluciones&#45;&gt;ventas -->
<g id="edge7" class="edge">
<title>devoluciones&#45;&gt;ventas</title>
<path fill="none" stroke="black" stroke-width="2" d="M829.89,-284.42C823.12,-272.46 814.54,-260.37 804.11,-251.33 777.63,-228.39 741.55,-213.36 710.87,-203.89"/>
<text text-anchor="middle" x="890.61" y="-254.73" font-family="sans-serif" font-size="12.00"> &#160;&#160;&#160;&#160;&#160;&#160;&#160;&#160;&#160;&#160;&#160;&#160;&#160;&#160;&#160;&#160;&#160;&#160;&#160;&#160;&#160;&#160;&#160;&#160;&#160;&#160;&#160;&#160;&#160;&#160;&#160;&#160;&#160;&#160;&#160;&#160;&#160;&#160;&#160;</text>
<polygon fill="white" stroke="transparent" points="687.87,-193.89 687.87,-212.89 703.87,-212.89 703.87,-193.89 687.87,-193.89"/>
<polyline fill="none" stroke="black" points="703.87,-193.89 703.87,-212.89 "/>
<text text-anchor="start" x="690.87" y="-200.29" font-family="sans-serif" font-size="12.00">D</text>
<polygon fill="white" stroke="transparent" points="703.87,-193.89 703.87,-212.89 733.87,-212.89 733.87,-193.89 703.87,-193.89"/>
<polygon fill="none" stroke="black" points="703.87,-193.89 703.87,-212.89 733.87,-212.89 733.87,-193.89 703.87,-193.89"/>
<text text-anchor="start" x="706.87" y="-200.29" font-family="sans-serif" font-size="12.00">ACL</text>
<polygon fill="white" stroke="transparent" points="822.89,-275.42 822.89,-292.42 836.89,-292.42 836.89,-275.42 822.89,-275.42"/>
<text text-anchor="start" x="824.89" y="-280.82" font-family="sans-serif" font-size="12.00">U</text>
</g>
</g>
</svg>
