<svg width="2000px" height="577px"
 viewBox="0.00 0.00 2867.17 826.68" xmlns="http://www.w3.org/2000/svg" xmlns:xlink="http://www.w3.org/1999/xlink">
<g id="graph0" class="graph" transform="scale(1.0 1.0) rotate(0) translate(4 822.68)">
<title>ContextMapGraph</title>
<polygon fill="white" stroke="transparent" points="-4,4 -4,-822.68 2863.17,-822.68 2863.17,4 -4,4"/>
<!-- AnaliticasReportingContext -->
<g id="node1" class="node">
<title>AnaliticasReportingContext</title>
<polygon fill="none" stroke="black" stroke-width="2" points="1201.2,-519.54 1189.55,-518.67 1178.13,-517.68 1167,-516.59 1156.2,-515.39 1145.78,-514.1 1135.77,-512.72 1126.21,-511.24 1117.15,-509.68 1108.62,-508.04 1100.64,-506.33 1093.26,-504.54 1086.48,-502.7 1080.35,-500.79 1074.86,-498.83 1070.05,-496.82 1065.91,-494.76 1062.47,-492.67 1059.71,-490.55 1057.65,-488.4 1056.28,-486.22 1055.6,-484.04 1055.59,-481.84 1056.24,-479.63 1057.55,-477.43 1059.48,-475.23 1062.02,-473.04 1065.15,-470.87 1068.84,-468.72 1073.06,-466.59 1077.79,-464.5 1083,-462.44 1088.66,-460.42 1094.73,-458.44 1101.19,-456.52 1108,-454.65 1115.12,-452.83 1122.54,-451.08 1130.21,-449.4 1138.11,-447.79 1146.2,-446.25 1154.46,-444.8 1162.86,-443.42 1171.37,-442.13 1179.96,-440.93 1188.63,-439.82 1197.33,-438.81 1206.05,-437.9 1214.78,-437.09 1223.49,-436.38 1232.17,-435.79 1240.81,-435.3 1249.39,-434.92 1257.91,-434.65 1266.34,-434.5 1274.69,-434.46 1282.95,-434.54 1291.1,-434.73 1299.15,-435.04 1307.08,-435.47 1314.9,-436.02 1322.59,-436.68 1330.16,-437.46 1337.59,-438.35 1344.89,-439.36 1352.04,-440.47 1359.04,-441.69 1365.89,-443.02 1372.57,-444.45 1379.08,-445.98 1385.41,-447.61 1391.55,-449.32 1397.48,-451.13 1403.2,-453.01 1408.68,-454.97 1413.92,-457.01 1418.89,-459.11 1423.59,-461.26 1427.99,-463.48 1432.07,-465.74 1435.82,-468.04 1439.21,-470.37 1442.23,-472.73 1444.85,-475.12 1447.05,-477.51 1448.81,-479.91 1450.12,-482.3 1450.95,-484.69 1451.29,-487.06 1451.11,-489.41 1450.4,-491.72 1449.15,-493.99 1447.34,-496.22 1444.96,-498.4 1442.01,-500.51 1438.48,-502.56 1434.36,-504.53 1429.65,-506.43 1424.36,-508.24 1418.48,-509.96 1412.04,-511.59 1405.03,-513.11 1397.47,-514.54 1389.38,-515.85 1380.79,-517.05 1371.7,-518.13 1362.16,-519.1 1352.18,-519.94 1341.81,-520.66 1331.07,-521.26 1320.01,-521.73 1308.67,-522.07 1297.08,-522.29 1285.29,-522.38 1273.35,-522.34 1261.31,-522.18 1249.2,-521.89 1237.09,-521.48 1225.02,-520.95 1213.04,-520.31 1201.2,-519.54"/>
<text text-anchor="middle" x="1261.07" y="-474.14" font-family="sans-serif" font-size="16.00">AnaliticasReportingContext</text>
</g>
<!-- VentasContext -->
<g id="node2" class="node">
<title>VentasContext</title>
<polygon fill="none" stroke="black" stroke-width="2" points="1845.81,-332.42 1845.97,-335.29 1845.81,-338.14 1845.33,-340.97 1844.54,-343.75 1843.42,-346.48 1842,-349.15 1840.26,-351.75 1838.21,-354.27 1835.86,-356.69 1833.22,-359.02 1830.28,-361.24 1827.06,-363.34 1823.57,-365.33 1819.82,-367.18 1815.81,-368.9 1811.56,-370.49 1807.08,-371.93 1802.38,-373.24 1797.48,-374.39 1792.38,-375.4 1787.11,-376.27 1781.68,-376.99 1776.1,-377.56 1770.4,-377.99 1764.58,-378.28 1758.66,-378.43 1752.67,-378.44 1746.62,-378.32 1740.52,-378.08 1734.4,-377.71 1728.27,-377.23 1722.15,-376.63 1716.06,-375.93 1710.01,-375.12 1704.03,-374.22 1698.13,-373.23 1692.33,-372.16 1686.64,-371.01 1681.08,-369.78 1675.67,-368.49 1670.42,-367.13 1665.34,-365.72 1660.46,-364.25 1655.78,-362.73 1651.32,-361.17 1647.08,-359.57 1643.09,-357.94 1639.35,-356.27 1635.86,-354.56 1632.65,-352.83 1629.72,-351.08 1627.07,-349.3 1624.71,-347.5 1622.65,-345.68 1620.89,-343.84 1619.44,-341.98 1618.29,-340.11 1617.46,-338.23 1616.94,-336.33 1616.73,-334.42 1616.83,-332.5 1617.25,-330.56 1617.97,-328.63 1618.99,-326.68 1620.32,-324.73 1621.95,-322.78 1623.86,-320.83 1626.07,-318.88 1628.55,-316.94 1631.3,-315.01 1634.32,-313.09 1637.59,-311.19 1641.11,-309.31 1644.86,-307.45 1648.84,-305.63 1653.04,-303.84 1657.44,-302.1 1662.03,-300.4 1666.8,-298.76 1671.74,-297.18 1676.83,-295.67 1682.06,-294.23 1687.43,-292.87 1692.9,-291.6 1698.48,-290.43 1704.14,-289.36 1709.87,-288.4 1715.66,-287.55 1721.49,-286.83 1727.35,-286.23 1733.22,-285.77 1739.09,-285.45 1744.93,-285.26 1750.75,-285.23 1756.51,-285.35 1762.22,-285.62 1767.84,-286.04 1773.38,-286.63 1778.8,-287.37 1784.11,-288.27 1789.27,-289.32 1794.29,-290.54 1799.15,-291.9 1803.83,-293.42 1808.32,-295.08 1812.61,-296.88 1816.68,-298.82 1820.54,-300.88 1824.15,-303.07 1827.52,-305.37 1830.63,-307.77 1833.48,-310.27 1836.05,-312.85 1838.34,-315.51 1840.34,-318.24 1842.05,-321.01 1843.45,-323.83 1844.55,-326.68 1845.34,-329.55 1845.81,-332.42"/>
<text text-anchor="middle" x="1731.07" y="-328.9" font-family="sans-serif" font-size="16.00">VentasContext</text>
</g>
<!-- AnaliticasReportingContext&#45;&gt;VentasContext -->
<g id="edge1" class="edge">
<title>AnaliticasReportingContext&#45;&gt;VentasContext</title>
<path fill="none" stroke="black" stroke-width="2" d="M1369.79,-443.81C1453.97,-418.15 1568.92,-383.12 1646.36,-359.51"/>
<text text-anchor="middle" x="1545.57" y="-401.58" font-family="sans-serif" font-size="12.00">Partnership</text>
</g>
<!-- AutenticacionAutorizacionContext -->
<g id="node3" class="node">
<title>AutenticacionAutorizacionContext</title>
<polygon fill="none" stroke="black" stroke-width="2" points="1000.62,-654.7 990.59,-656.81 980.17,-658.82 969.4,-660.73 958.32,-662.53 946.98,-664.2 935.41,-665.75 923.65,-667.16 911.76,-668.43 899.76,-669.55 887.69,-670.52 875.6,-671.34 863.52,-672 851.49,-672.5 839.54,-672.83 827.71,-673.01 816.02,-673.02 804.5,-672.87 793.19,-672.55 782.1,-672.08 771.27,-671.45 760.71,-670.67 750.45,-669.74 740.5,-668.67 730.88,-667.46 721.6,-666.11 712.69,-664.64 704.15,-663.06 695.99,-661.36 688.23,-659.56 680.86,-657.66 673.91,-655.68 667.37,-653.62 661.25,-651.49 655.56,-649.29 650.31,-647.05 645.48,-644.76 641.1,-642.44 637.16,-640.1 633.67,-637.73 630.62,-635.35 628.03,-632.98 625.9,-630.61 624.22,-628.25 623.01,-625.91 622.26,-623.59 621.99,-621.31 622.18,-619.06 622.85,-616.86 624,-614.71 625.63,-612.6 627.75,-610.55 630.36,-608.56 633.45,-606.64 637.04,-604.78 641.12,-602.98 645.7,-601.26 650.77,-599.6 656.33,-598.02 662.38,-596.51 668.91,-595.08 675.93,-593.72 683.41,-592.44 691.37,-591.23 699.77,-590.1 708.62,-589.05 717.9,-588.08 727.59,-587.18 737.67,-586.36 748.13,-585.62 758.94,-584.96 770.07,-584.39 781.51,-583.89 793.22,-583.47 805.17,-583.13 817.33,-582.88 829.66,-582.71 842.13,-582.62 854.7,-582.62 867.32,-582.71 879.97,-582.89 892.59,-583.15 905.15,-583.51 917.6,-583.96 929.89,-584.51 941.98,-585.15 953.83,-585.88 965.39,-586.72 976.61,-587.65 987.46,-588.68 997.89,-589.82 1007.87,-591.05 1017.34,-592.38 1026.27,-593.8 1034.63,-595.33 1042.39,-596.95 1049.5,-598.66 1055.95,-600.47 1061.7,-602.37 1066.74,-604.35 1071.04,-606.41 1074.58,-608.55 1077.36,-610.76 1079.36,-613.04 1080.57,-615.38 1080.99,-617.78 1080.63,-620.22 1079.48,-622.7 1077.56,-625.22 1074.86,-627.76 1071.42,-630.31 1067.24,-632.88 1062.34,-635.44 1056.75,-637.99 1050.49,-640.51 1043.59,-643.01 1036.08,-645.47 1027.99,-647.88 1019.36,-650.22 1010.23,-652.5 1000.62,-654.7"/>
<text text-anchor="middle" x="837.07" y="-620.51" font-family="sans-serif" font-size="16.00">AutenticacionAutorizacionContext</text>
</g>
<!-- CarritoComprasContext -->
<g id="node4" class="node">
<title>CarritoComprasContext</title>
<polygon fill="none" stroke="black" stroke-width="2" points="961.67,-448.96 968.96,-451.08 975.86,-453.27 982.34,-455.52 988.37,-457.82 993.93,-460.16 998.99,-462.53 1003.54,-464.92 1007.55,-467.33 1011,-469.75 1013.88,-472.17 1016.18,-474.58 1017.88,-476.97 1018.98,-479.34 1019.49,-481.68 1019.38,-483.98 1018.67,-486.25 1017.36,-488.46 1015.46,-490.62 1012.98,-492.72 1009.92,-494.76 1006.31,-496.74 1002.16,-498.64 997.49,-500.47 992.32,-502.23 986.68,-503.9 980.6,-505.5 974.09,-507.01 967.19,-508.44 959.92,-509.79 952.33,-511.05 944.44,-512.22 936.28,-513.3 927.88,-514.3 919.29,-515.21 910.53,-516.03 901.63,-516.77 892.63,-517.41 883.56,-517.97 874.45,-518.44 865.33,-518.82 856.24,-519.12 847.19,-519.32 838.22,-519.44 829.35,-519.47 820.61,-519.42 812.02,-519.27 803.6,-519.04 795.37,-518.72 787.34,-518.31 779.55,-517.81 771.99,-517.23 764.69,-516.55 757.65,-515.78 750.88,-514.93 744.4,-513.98 738.21,-512.95 732.32,-511.82 726.74,-510.61 721.46,-509.31 716.49,-507.92 711.84,-506.45 707.5,-504.89 703.48,-503.25 699.78,-501.52 696.4,-499.72 693.34,-497.84 690.59,-495.89 688.17,-493.87 686.06,-491.78 684.28,-489.64 682.81,-487.43 681.67,-485.18 680.84,-482.88 680.34,-480.54 680.17,-478.16 680.32,-475.76 680.79,-473.35 681.6,-470.92 682.74,-468.48 684.21,-466.05 686.02,-463.63 688.17,-461.24 690.66,-458.87 693.5,-456.54 696.68,-454.26 700.21,-452.03 704.08,-449.87 708.3,-447.78 712.87,-445.77 717.79,-443.85 723.05,-442.03 728.65,-440.31 734.59,-438.71 740.85,-437.23 747.44,-435.87 754.33,-434.64 761.53,-433.55 769.02,-432.6 776.78,-431.8 784.8,-431.15 793.07,-430.65 801.56,-430.3 810.24,-430.12 819.11,-430.09 828.13,-430.21 837.29,-430.49 846.54,-430.93 855.86,-431.52 865.23,-432.26 874.61,-433.15 883.97,-434.18 893.27,-435.35 902.49,-436.65 911.59,-438.08 920.53,-439.64 929.27,-441.3 937.8,-443.07 946.06,-444.95 954.03,-446.91 961.67,-448.96"/>
<text text-anchor="middle" x="837.07" y="-474.14" font-family="sans-serif" font-size="16.00">CarritoComprasContext</text>
</g>
<!-- AutenticacionAutorizacionContext&#45;&gt;CarritoComprasContext -->
<g id="edge2" class="edge">
<title>AutenticacionAutorizacionContext&#45;&gt;CarritoComprasContext</title>
<path fill="none" stroke="black" stroke-width="2" d="M837.07,-582.33C837.07,-562.66 837.07,-539.15 837.07,-519.53"/>
<text text-anchor="middle" x="893.07" y="-548.11" font-family="sans-serif" font-size="12.00">Customer/Supplier</text>
<polygon fill="white" stroke="transparent" points="830.07,-510.53 830.07,-527.53 844.07,-527.53 844.07,-510.53 830.07,-510.53"/>
<text text-anchor="start" x="832.07" y="-515.93" font-family="sans-serif" font-size="12.00">D</text>
<polygon fill="white" stroke="transparent" points="830.07,-573.33 830.07,-590.33 844.07,-590.33 844.07,-573.33 830.07,-573.33"/>
<text text-anchor="start" x="832.07" y="-578.73" font-family="sans-serif" font-size="12.00">U</text>
</g>
<!-- CarritoComprasContext&#45;&gt;VentasContext -->
<g id="edge4" class="edge">
<title>CarritoComprasContext&#45;&gt;VentasContext</title>
<path fill="none" stroke="black" stroke-width="2" d="M957.48,-447.71C986.7,-441.13 1017.93,-434.52 1047.07,-429.18 1155.5,-409.32 1461.05,-368.73 1624.61,-347.43"/>
<text text-anchor="middle" x="1278.57" y="-401.58" font-family="sans-serif" font-size="12.00">Partnership</text>
</g>
<!-- GestionProductosContext -->
<g id="node5" class="node">
<title>GestionProductosContext</title>
<polygon fill="none" stroke="black" stroke-width="2" points="933.53,-376.24 922.14,-376.59 910.76,-376.83 899.45,-376.94 888.25,-376.93 877.2,-376.79 866.34,-376.53 855.72,-376.14 845.38,-375.63 835.35,-374.99 825.66,-374.23 816.37,-373.34 807.48,-372.34 799.03,-371.22 791.05,-369.99 783.55,-368.65 776.56,-367.2 770.1,-365.65 764.16,-364 758.77,-362.26 753.93,-360.43 749.65,-358.52 745.92,-356.53 742.75,-354.47 740.13,-352.35 738.05,-350.17 736.51,-347.94 735.49,-345.67 734.99,-343.36 734.99,-341.01 735.47,-338.65 736.41,-336.27 737.8,-333.89 739.63,-331.5 741.86,-329.12 744.49,-326.76 747.48,-324.41 750.83,-322.1 754.5,-319.82 758.49,-317.58 762.77,-315.39 767.33,-313.25 772.14,-311.18 777.2,-309.17 782.48,-307.24 787.97,-305.38 793.67,-303.61 799.54,-301.92 805.59,-300.32 811.81,-298.82 818.18,-297.42 824.69,-296.13 831.35,-294.94 838.14,-293.85 845.05,-292.88 852.09,-292.02 859.24,-291.28 866.5,-290.65 873.88,-290.13 881.35,-289.74 888.92,-289.46 896.58,-289.3 904.33,-289.25 912.16,-289.32 920.07,-289.51 928.03,-289.81 936.06,-290.23 944.13,-290.75 952.23,-291.38 960.36,-292.12 968.49,-292.97 976.61,-293.91 984.7,-294.96 992.75,-296.1 1000.73,-297.33 1008.63,-298.65 1016.41,-300.06 1024.06,-301.55 1031.54,-303.11 1038.84,-304.75 1045.92,-306.46 1052.75,-308.24 1059.31,-310.08 1065.57,-311.97 1071.49,-313.92 1077.05,-315.91 1082.21,-317.95 1086.96,-320.03 1091.25,-322.14 1095.06,-324.28 1098.38,-326.44 1101.16,-328.62 1103.39,-330.81 1105.05,-333.01 1106.12,-335.22 1106.57,-337.42 1106.41,-339.61 1105.62,-341.79 1104.18,-343.96 1102.1,-346.09 1099.37,-348.2 1095.99,-350.27 1091.96,-352.31 1087.31,-354.29 1082.03,-356.23 1076.13,-358.1 1069.65,-359.92 1062.6,-361.67 1055,-363.35 1046.88,-364.95 1038.27,-366.47 1029.2,-367.9 1019.71,-369.24 1009.84,-370.49 999.62,-371.64 989.11,-372.68 978.33,-373.62 967.34,-374.44 956.18,-375.16 944.89,-375.76 933.53,-376.24"/>
<text text-anchor="middle" x="914.07" y="-328.9" font-family="sans-serif" font-size="16.00">GestionProductosContext</text>
</g>
<!-- CarritoComprasContext&#45;&gt;GestionProductosContext -->
<g id="edge3" class="edge">
<title>CarritoComprasContext&#45;&gt;GestionProductosContext</title>
<path fill="none" stroke="black" stroke-width="2" d="M885.53,-434.19C891.52,-427.03 896.97,-419.28 901.07,-411.18 906.37,-400.72 909.58,-388.54 911.5,-376.98"/>
<text text-anchor="middle" x="962.07" y="-401.58" font-family="sans-serif" font-size="12.00">Customer/Supplier</text>
<polygon fill="white" stroke="transparent" points="904.5,-367.98 904.5,-384.98 918.5,-384.98 918.5,-367.98 904.5,-367.98"/>
<text text-anchor="start" x="906.5" y="-373.38" font-family="sans-serif" font-size="12.00">D</text>
<polygon fill="white" stroke="transparent" points="878.53,-425.19 878.53,-442.19 892.53,-442.19 892.53,-425.19 878.53,-425.19"/>
<text text-anchor="start" x="880.53" y="-430.59" font-family="sans-serif" font-size="12.00">U</text>
</g>
<!-- GestionClientesContext -->
<g id="node8" class="node">
<title>GestionClientesContext</title>
<polygon fill="none" stroke="black" stroke-width="2" points="333.85,-190.9 332.86,-188.05 332.34,-185.2 332.29,-182.38 332.71,-179.58 333.59,-176.83 334.94,-174.13 336.76,-171.5 339.05,-168.93 341.79,-166.45 344.99,-164.06 348.64,-161.78 352.72,-159.59 357.22,-157.52 362.14,-155.58 367.47,-153.75 373.17,-152.06 379.25,-150.5 385.67,-149.08 392.43,-147.79 399.51,-146.65 406.87,-145.65 414.51,-144.79 422.39,-144.07 430.5,-143.49 438.81,-143.05 447.29,-142.74 455.92,-142.57 464.67,-142.52 473.52,-142.6 482.43,-142.8 491.39,-143.12 500.36,-143.55 509.32,-144.09 518.24,-144.73 527.1,-145.47 535.86,-146.3 544.5,-147.21 553,-148.21 561.33,-149.28 569.47,-150.43 577.39,-151.64 585.07,-152.91 592.5,-154.25 599.64,-155.63 606.48,-157.07 613,-158.55 619.18,-160.07 625.01,-161.64 630.48,-163.24 635.56,-164.88 640.25,-166.55 644.54,-168.25 648.41,-169.98 651.85,-171.74 654.87,-173.53 657.45,-175.34 659.59,-177.17 661.29,-179.03 662.54,-180.91 663.35,-182.81 663.7,-184.73 663.62,-186.66 663.09,-188.61 662.12,-190.58 660.72,-192.55 658.89,-194.54 656.64,-196.54 653.98,-198.54 650.92,-200.54 647.46,-202.54 643.62,-204.53 639.41,-206.51 634.83,-208.48 629.91,-210.43 624.66,-212.35 619.09,-214.24 613.21,-216.1 607.04,-217.91 600.6,-219.68 593.9,-221.38 586.96,-223.02 579.8,-224.6 572.43,-226.09 564.88,-227.5 557.15,-228.82 549.28,-230.04 541.27,-231.15 533.16,-232.14 524.95,-233.02 516.66,-233.77 508.33,-234.39 499.96,-234.87 491.59,-235.21 483.22,-235.4 474.88,-235.43 466.59,-235.32 458.38,-235.04 450.25,-234.61 442.24,-234.01 434.36,-233.26 426.64,-232.34 419.09,-231.27 411.74,-230.04 404.6,-228.65 397.69,-227.12 391.04,-225.43 384.65,-223.61 378.56,-221.66 372.78,-219.58 367.32,-217.38 362.2,-215.06 357.45,-212.65 353.06,-210.14 349.06,-207.55 345.46,-204.89 342.27,-202.17 339.51,-199.4 337.17,-196.59 335.29,-193.76 333.85,-190.9"/>
<text text-anchor="middle" x="499.07" y="-183.77" font-family="sans-serif" font-size="16.00">GestionClientesContext</text>
</g>
<!-- CarritoComprasContext&#45;&gt;GestionClientesContext -->
<g id="edge5" class="edge">
<title>CarritoComprasContext&#45;&gt;GestionClientesContext</title>
<path fill="none" stroke="black" stroke-width="2" d="M711.69,-446.14C672.13,-431.45 630.78,-410.28 600.07,-380.18 567.24,-348 580.37,-325.96 559.07,-285.21 549.93,-267.71 538.77,-249.14 528.57,-233"/>
<text text-anchor="middle" x="656.07" y="-329.6" font-family="sans-serif" font-size="12.00">Customer/Supplier</text>
<polygon fill="white" stroke="transparent" points="521.57,-224 521.57,-241 535.57,-241 535.57,-224 521.57,-224"/>
<text text-anchor="start" x="523.57" y="-229.4" font-family="sans-serif" font-size="12.00">D</text>
<polygon fill="white" stroke="transparent" points="704.69,-437.14 704.69,-454.14 718.69,-454.14 718.69,-437.14 704.69,-437.14"/>
<text text-anchor="start" x="706.69" y="-442.54" font-family="sans-serif" font-size="12.00">U</text>
</g>
<!-- GestionProductosContext&#45;&gt;CarritoComprasContext -->
<g id="edge7" class="edge">
<title>GestionProductosContext&#45;&gt;CarritoComprasContext</title>
<path fill="none" stroke="black" stroke-width="2" d="M808.59,-372.67C799.35,-379.84 791.19,-388.28 785.07,-398.18 778.44,-408.91 780.5,-420.31 786.63,-431.01"/>
<text text-anchor="middle" x="841.07" y="-401.58" font-family="sans-serif" font-size="12.00">Customer/Supplier</text>
<polygon fill="white" stroke="transparent" points="779.63,-422.01 779.63,-439.01 793.63,-439.01 793.63,-422.01 779.63,-422.01"/>
<text text-anchor="start" x="781.63" y="-427.41" font-family="sans-serif" font-size="12.00">D</text>
<polygon fill="white" stroke="transparent" points="801.59,-363.67 801.59,-380.67 815.59,-380.67 815.59,-363.67 801.59,-363.67"/>
<text text-anchor="start" x="803.59" y="-369.07" font-family="sans-serif" font-size="12.00">U</text>
</g>
<!-- GestionDevolucionesContext -->
<g id="node6" class="node">
<title>GestionDevolucionesContext</title>
<polygon fill="none" stroke="black" stroke-width="2" points="1025.18,-221.19 1015.54,-223.09 1005.59,-224.89 995.4,-226.57 985,-228.13 974.42,-229.57 963.7,-230.87 952.89,-232.04 942.02,-233.06 931.14,-233.94 920.26,-234.66 909.44,-235.23 898.7,-235.64 888.07,-235.89 877.59,-235.98 867.29,-235.91 857.18,-235.68 847.31,-235.3 837.68,-234.75 828.33,-234.06 819.26,-233.21 810.51,-232.22 802.07,-231.08 793.98,-229.81 786.23,-228.4 778.85,-226.87 771.84,-225.23 765.2,-223.47 758.94,-221.61 753.07,-219.66 747.6,-217.62 742.51,-215.5 737.83,-213.31 733.54,-211.07 729.64,-208.77 726.15,-206.42 723.05,-204.05 720.34,-201.64 718.04,-199.22 716.12,-196.79 714.6,-194.36 713.47,-191.94 712.73,-189.53 712.38,-187.15 712.43,-184.79 712.86,-182.47 713.68,-180.19 714.9,-177.95 716.5,-175.77 718.5,-173.65 720.89,-171.59 723.67,-169.59 726.85,-167.66 730.42,-165.8 734.39,-164.02 738.75,-162.31 743.51,-160.69 748.66,-159.14 754.2,-157.68 760.13,-156.3 766.44,-155 773.13,-153.79 780.2,-152.67 787.63,-151.63 795.42,-150.67 803.55,-149.81 812.02,-149.03 820.8,-148.33 829.9,-147.72 839.27,-147.2 848.92,-146.76 858.81,-146.41 868.92,-146.15 879.23,-145.97 889.71,-145.88 900.33,-145.87 911.06,-145.95 921.87,-146.12 932.73,-146.38 943.59,-146.72 954.43,-147.16 965.21,-147.68 975.89,-148.3 986.43,-149 996.8,-149.79 1006.94,-150.68 1016.83,-151.66 1026.43,-152.72 1035.69,-153.88 1044.58,-155.13 1053.07,-156.47 1061.11,-157.9 1068.67,-159.42 1075.72,-161.03 1082.23,-162.72 1088.18,-164.49 1093.52,-166.34 1098.25,-168.28 1102.34,-170.28 1105.76,-172.36 1108.51,-174.5 1110.58,-176.71 1111.94,-178.97 1112.61,-181.28 1112.57,-183.64 1111.82,-186.03 1110.36,-188.46 1108.22,-190.91 1105.38,-193.38 1101.87,-195.86 1097.7,-198.33 1092.9,-200.8 1087.47,-203.25 1081.45,-205.68 1074.87,-208.07 1067.74,-210.42 1060.11,-212.72 1052,-214.95 1043.46,-217.11 1034.5,-219.2 1025.18,-221.19"/>
<text text-anchor="middle" x="898.07" y="-183.77" font-family="sans-serif" font-size="16.00">GestionDevolucionesContext</text>
</g>
<!-- GestionProductosContext&#45;&gt;GestionDevolucionesContext -->
<g id="edge6" class="edge">
<title>GestionProductosContext&#45;&gt;GestionDevolucionesContext</title>
<path fill="none" stroke="black" stroke-width="2" d="M909.32,-289.14C907.43,-272.25 905.25,-252.76 903.31,-235.46"/>
<text text-anchor="middle" x="982.57" y="-257.61" font-family="sans-serif" font-size="12.00"> &#160;&#160;&#160;&#160;&#160;&#160;&#160;&#160;&#160;&#160;&#160;&#160;&#160;&#160;&#160;&#160;&#160;&#160;&#160;&#160;&#160;&#160;&#160;&#160;&#160;&#160;&#160;&#160;&#160;&#160;&#160;&#160;&#160;&#160;&#160;&#160;&#160;&#160;&#160;</text>
<polygon fill="white" stroke="transparent" points="884.31,-225.46 884.31,-244.46 900.31,-244.46 900.31,-225.46 884.31,-225.46"/>
<polyline fill="none" stroke="black" points="900.31,-225.46 900.31,-244.46 "/>
<text text-anchor="start" x="887.31" y="-231.86" font-family="sans-serif" font-size="12.00">D</text>
<polygon fill="white" stroke="transparent" points="900.31,-225.46 900.31,-244.46 922.31,-244.46 922.31,-225.46 900.31,-225.46"/>
<polygon fill="none" stroke="black" points="900.31,-225.46 900.31,-244.46 922.31,-244.46 922.31,-225.46 900.31,-225.46"/>
<text text-anchor="start" x="903.31" y="-231.86" font-family="sans-serif" font-size="12.00">CF</text>
<polygon fill="white" stroke="transparent" points="874.32,-279.14 874.32,-298.14 890.32,-298.14 890.32,-279.14 874.32,-279.14"/>
<polyline fill="none" stroke="black" points="890.32,-279.14 890.32,-298.14 "/>
<text text-anchor="start" x="877.32" y="-285.54" font-family="sans-serif" font-size="12.00">U</text>
<polygon fill="white" stroke="transparent" points="890.32,-279.14 890.32,-298.14 945.32,-298.14 945.32,-279.14 890.32,-279.14"/>
<polygon fill="none" stroke="black" points="890.32,-279.14 890.32,-298.14 945.32,-298.14 945.32,-279.14 890.32,-279.14"/>
<text text-anchor="start" x="893.32" y="-285.54" font-family="sans-serif" font-size="12.00">OHS, PL</text>
</g>
<!-- GestionProductosContext&#45;&gt;GestionClientesContext -->
<g id="edge8" class="edge">
<title>GestionProductosContext&#45;&gt;GestionClientesContext</title>
<path fill="none" stroke="black" stroke-width="2" d="M815.99,-297.87C749,-274.77 660.71,-244.32 594.33,-221.43"/>
<text text-anchor="middle" x="761.07" y="-257.61" font-family="sans-serif" font-size="12.00">Shared Kernel</text>
</g>
<!-- GestionPedidosContext -->
<g id="node7" class="node">
<title>GestionPedidosContext</title>
<polygon fill="none" stroke="black" stroke-width="2" points="923.1,-87.85 912.69,-88.5 902.24,-89.04 891.81,-89.44 881.43,-89.72 871.14,-89.88 860.98,-89.9 850.99,-89.79 841.21,-89.54 831.67,-89.17 822.4,-88.66 813.44,-88.02 804.82,-87.26 796.56,-86.36 788.68,-85.34 781.22,-84.2 774.17,-82.94 767.58,-81.56 761.44,-80.08 755.76,-78.48 750.57,-76.79 745.85,-74.99 741.62,-73.11 737.88,-71.14 734.62,-69.09 731.85,-66.98 729.55,-64.79 727.72,-62.55 726.35,-60.26 725.44,-57.93 724.96,-55.57 724.9,-53.17 725.26,-50.76 726.02,-48.33 727.16,-45.9 728.67,-43.48 730.53,-41.06 732.72,-38.67 735.24,-36.3 738.06,-33.96 741.17,-31.67 744.55,-29.42 748.2,-27.23 752.1,-25.1 756.24,-23.03 760.6,-21.04 765.18,-19.12 769.97,-17.28 774.95,-15.54 780.12,-13.88 785.47,-12.32 791,-10.86 796.7,-9.49 802.56,-8.24 808.59,-7.09 814.77,-6.05 821.11,-5.12 827.59,-4.3 834.22,-3.6 840.98,-3.01 847.89,-2.53 854.92,-2.17 862.08,-1.92 869.37,-1.79 876.76,-1.77 884.26,-1.86 891.85,-2.07 899.53,-2.38 907.28,-2.8 915.1,-3.32 922.96,-3.95 930.85,-4.68 938.76,-5.51 946.66,-6.44 954.53,-7.46 962.36,-8.57 970.12,-9.77 977.78,-11.05 985.33,-12.41 992.73,-13.86 999.95,-15.38 1006.98,-16.97 1013.77,-18.63 1020.31,-20.36 1026.55,-22.14 1032.48,-23.98 1038.06,-25.88 1043.27,-27.83 1048.07,-29.82 1052.43,-31.85 1056.35,-33.92 1059.78,-36.02 1062.7,-38.14 1065.1,-40.3 1066.94,-42.46 1068.23,-44.65 1068.94,-46.84 1069.05,-49.03 1068.57,-51.22 1067.47,-53.41 1065.76,-55.58 1063.44,-57.73 1060.51,-59.86 1056.97,-61.96 1052.84,-64.03 1048.11,-66.06 1042.82,-68.04 1036.96,-69.96 1030.58,-71.83 1023.68,-73.64 1016.3,-75.38 1008.46,-77.04 1000.2,-78.63 991.54,-80.13 982.52,-81.54 973.19,-82.85 963.57,-84.07 953.71,-85.18 943.65,-86.18 933.44,-87.07 923.1,-87.85"/>
<text text-anchor="middle" x="888.07" y="-41.17" font-family="sans-serif" font-size="16.00">GestionPedidosContext</text>
</g>
<!-- GestionDevolucionesContext&#45;&gt;GestionPedidosContext -->
<g id="edge9" class="edge">
<title>GestionDevolucionesContext&#45;&gt;GestionPedidosContext</title>
<path fill="none" stroke="black" stroke-width="2" d="M840.3,-146.79C832.91,-139.1 826.43,-130.44 822.07,-120.93 816.95,-109.74 819.74,-98.98 826.46,-89.29"/>
<text text-anchor="middle" x="878.07" y="-111.33" font-family="sans-serif" font-size="12.00">Customer/Supplier</text>
<polygon fill="white" stroke="transparent" points="819.46,-80.29 819.46,-97.29 833.46,-97.29 833.46,-80.29 819.46,-80.29"/>
<text text-anchor="start" x="821.46" y="-85.69" font-family="sans-serif" font-size="12.00">D</text>
<polygon fill="white" stroke="transparent" points="833.3,-137.79 833.3,-154.79 847.3,-154.79 847.3,-137.79 833.3,-137.79"/>
<text text-anchor="start" x="835.3" y="-143.19" font-family="sans-serif" font-size="12.00">U</text>
</g>
<!-- GestionPedidosContext&#45;&gt;CarritoComprasContext -->
<g id="edge10" class="edge">
<title>GestionPedidosContext&#45;&gt;CarritoComprasContext</title>
<path fill="none" stroke="black" stroke-width="2" d="M1031.02,-71.87C1066.88,-85.63 1101.09,-106.69 1122.07,-138.93 1180.58,-228.82 1180.06,-294.11 1116.07,-380.18 1096.38,-406.66 1025.93,-430.99 960.75,-448.62"/>
<text text-anchor="middle" x="1221.07" y="-257.61" font-family="sans-serif" font-size="12.00">Customer/Supplier</text>
<polygon fill="white" stroke="transparent" points="953.75,-439.62 953.75,-456.62 967.75,-456.62 967.75,-439.62 953.75,-439.62"/>
<text text-anchor="start" x="955.75" y="-445.02" font-family="sans-serif" font-size="12.00">D</text>
<polygon fill="white" stroke="transparent" points="1024.02,-62.87 1024.02,-79.87 1038.02,-79.87 1038.02,-62.87 1024.02,-62.87"/>
<text text-anchor="start" x="1026.02" y="-68.27" font-family="sans-serif" font-size="12.00">U</text>
</g>
<!-- GestionPedidosContext&#45;&gt;GestionDevolucionesContext -->
<g id="edge11" class="edge">
<title>GestionPedidosContext&#45;&gt;GestionDevolucionesContext</title>
<path fill="none" stroke="black" stroke-width="2" d="M924.55,-87.99C928.44,-94.33 931.8,-101.06 934.07,-107.93 938.27,-120.62 935.19,-133.99 929.4,-146.04"/>
<text text-anchor="middle" x="992.07" y="-111.33" font-family="sans-serif" font-size="12.00">Customer/Supplier</text>
<polygon fill="white" stroke="transparent" points="922.4,-137.04 922.4,-154.04 936.4,-154.04 936.4,-137.04 922.4,-137.04"/>
<text text-anchor="start" x="924.4" y="-142.44" font-family="sans-serif" font-size="12.00">D</text>
<polygon fill="white" stroke="transparent" points="917.55,-78.99 917.55,-95.99 931.55,-95.99 931.55,-78.99 917.55,-78.99"/>
<text text-anchor="start" x="919.55" y="-84.39" font-family="sans-serif" font-size="12.00">U</text>
</g>
<!-- GestionClientesContext&#45;&gt;CarritoComprasContext -->
<g id="edge12" class="edge">
<title>GestionClientesContext&#45;&gt;CarritoComprasContext</title>
<path fill="none" stroke="black" stroke-width="2" d="M463.8,-235.58C437.09,-277.37 410.14,-338.18 443.07,-380.18 473.82,-419.39 590.95,-444.82 689.58,-459.72"/>
<text text-anchor="middle" x="499.07" y="-329.6" font-family="sans-serif" font-size="12.00">Customer/Supplier</text>
<polygon fill="white" stroke="transparent" points="682.58,-450.72 682.58,-467.72 696.58,-467.72 696.58,-450.72 682.58,-450.72"/>
<text text-anchor="start" x="684.58" y="-456.12" font-family="sans-serif" font-size="12.00">D</text>
<polygon fill="white" stroke="transparent" points="456.8,-226.58 456.8,-243.58 470.8,-243.58 470.8,-226.58 456.8,-226.58"/>
<text text-anchor="start" x="458.8" y="-231.98" font-family="sans-serif" font-size="12.00">U</text>
</g>
<!-- GestionSesionesContext -->
<g id="node9" class="node">
<title>GestionSesionesContext</title>
<polygon fill="none" stroke="black" stroke-width="2" points="953.09,-754.85 956.85,-752.15 961.03,-749.52 965.6,-746.95 970.56,-744.47 975.89,-742.08 981.56,-739.78 987.57,-737.6 993.89,-735.53 1000.5,-733.6 1007.38,-731.79 1014.51,-730.13 1021.87,-728.61 1029.44,-727.24 1037.21,-726.02 1045.13,-724.97 1053.21,-724.07 1061.4,-723.34 1069.7,-722.77 1078.09,-722.36 1086.53,-722.12 1095.02,-722.03 1103.52,-722.11 1112.02,-722.34 1120.51,-722.72 1128.95,-723.25 1137.33,-723.92 1145.63,-724.73 1153.84,-725.66 1161.93,-726.73 1169.88,-727.9 1177.68,-729.19 1185.31,-730.59 1192.76,-732.08 1200,-733.65 1207.02,-735.31 1213.8,-737.04 1220.34,-738.84 1226.6,-740.69 1232.59,-742.59 1238.27,-744.54 1243.65,-746.52 1248.7,-748.53 1253.42,-750.57 1257.79,-752.62 1261.79,-754.68 1265.43,-756.75 1268.68,-758.83 1271.54,-760.9 1273.99,-762.96 1276.03,-765.01 1277.66,-767.05 1278.85,-769.07 1279.61,-771.07 1279.94,-773.04 1279.82,-775 1279.26,-776.93 1278.24,-778.83 1276.78,-780.7 1274.87,-782.54 1272.51,-784.35 1269.7,-786.12 1266.46,-787.86 1262.77,-789.57 1258.66,-791.24 1254.12,-792.88 1249.17,-794.47 1243.81,-796.03 1238.07,-797.54 1231.95,-799.01 1225.46,-800.43 1218.63,-801.81 1211.47,-803.13 1204,-804.4 1196.24,-805.62 1188.21,-806.77 1179.94,-807.86 1171.44,-808.88 1162.74,-809.84 1153.87,-810.71 1144.85,-811.51 1135.72,-812.22 1126.49,-812.84 1117.2,-813.37 1107.87,-813.81 1098.54,-814.13 1089.23,-814.36 1079.97,-814.47 1070.79,-814.46 1061.73,-814.34 1052.81,-814.09 1044.05,-813.72 1035.49,-813.22 1027.16,-812.59 1019.07,-811.83 1011.26,-810.93 1003.76,-809.9 996.57,-808.73 989.73,-807.43 983.26,-805.99 977.18,-804.43 971.5,-802.74 966.24,-800.92 961.42,-798.98 957.06,-796.93 953.15,-794.77 949.72,-792.5 946.77,-790.14 944.31,-787.69 942.34,-785.16 940.87,-782.56 939.9,-779.89 939.43,-777.17 939.46,-774.41 939.98,-771.62 940.99,-768.81 942.48,-765.99 944.44,-763.17 946.88,-760.37 949.76,-757.59 953.09,-754.85"/>
<text text-anchor="middle" x="1112.07" y="-766.5" font-family="sans-serif" font-size="16.00">GestionSesionesContext</text>
</g>
<!-- GestionSesionesContext&#45;&gt;AutenticacionAutorizacionContext -->
<g id="edge14" class="edge">
<title>GestionSesionesContext&#45;&gt;AutenticacionAutorizacionContext</title>
<path fill="none" stroke="black" stroke-width="2" d="M1031.05,-726.88C995.56,-708.29 954,-686.53 918.47,-667.93"/>
<text text-anchor="middle" x="1039.07" y="-694.32" font-family="sans-serif" font-size="12.00">Customer/Supplier</text>
<polygon fill="white" stroke="transparent" points="911.47,-658.93 911.47,-675.93 925.47,-675.93 925.47,-658.93 911.47,-658.93"/>
<text text-anchor="start" x="913.47" y="-664.33" font-family="sans-serif" font-size="12.00">D</text>
<polygon fill="white" stroke="transparent" points="1024.05,-717.88 1024.05,-734.88 1038.05,-734.88 1038.05,-717.88 1024.05,-717.88"/>
<text text-anchor="start" x="1026.05" y="-723.28" font-family="sans-serif" font-size="12.00">U</text>
</g>
<!-- SeguridadContext -->
<g id="node10" class="node">
<title>SeguridadContext</title>
<polygon fill="none" stroke="black" stroke-width="2" points="1331.06,-658.77 1324.21,-660.59 1317.17,-662.3 1309.96,-663.89 1302.63,-665.37 1295.18,-666.71 1287.66,-667.93 1280.09,-669.01 1272.49,-669.94 1264.89,-670.72 1257.32,-671.36 1249.8,-671.84 1242.36,-672.17 1235.01,-672.33 1227.78,-672.34 1220.68,-672.19 1213.75,-671.89 1206.98,-671.43 1200.41,-670.81 1194.04,-670.04 1187.88,-669.13 1181.96,-668.07 1176.27,-666.87 1170.83,-665.54 1165.64,-664.08 1160.71,-662.51 1156.06,-660.81 1151.67,-659.01 1147.56,-657.11 1143.73,-655.12 1140.17,-653.05 1136.89,-650.9 1133.9,-648.69 1131.18,-646.42 1128.75,-644.09 1126.59,-641.74 1124.71,-639.34 1123.1,-636.93 1121.77,-634.5 1120.71,-632.07 1119.92,-629.64 1119.4,-627.22 1119.15,-624.82 1119.17,-622.44 1119.45,-620.09 1120,-617.79 1120.81,-615.52 1121.88,-613.31 1123.22,-611.15 1124.83,-609.05 1126.7,-607.01 1128.83,-605.05 1131.22,-603.15 1133.89,-601.33 1136.81,-599.59 1140,-597.92 1143.45,-596.34 1147.16,-594.84 1151.14,-593.43 1155.37,-592.1 1159.86,-590.86 1164.6,-589.71 1169.59,-588.65 1174.82,-587.67 1180.29,-586.78 1185.99,-585.98 1191.9,-585.27 1198.03,-584.65 1204.36,-584.11 1210.88,-583.66 1217.57,-583.3 1224.42,-583.03 1231.42,-582.85 1238.54,-582.75 1245.77,-582.74 1253.09,-582.82 1260.48,-582.98 1267.91,-583.24 1275.36,-583.58 1282.81,-584.01 1290.24,-584.52 1297.61,-585.13 1304.9,-585.82 1312.09,-586.61 1319.14,-587.48 1326.04,-588.44 1332.75,-589.49 1339.25,-590.62 1345.51,-591.85 1351.5,-593.16 1357.2,-594.57 1362.59,-596.05 1367.64,-597.62 1372.32,-599.27 1376.63,-601.01 1380.53,-602.82 1384.02,-604.71 1387.07,-606.67 1389.67,-608.7 1391.81,-610.79 1393.48,-612.95 1394.66,-615.16 1395.36,-617.42 1395.57,-619.73 1395.29,-622.07 1394.52,-624.45 1393.26,-626.86 1391.51,-629.28 1389.3,-631.71 1386.61,-634.15 1383.48,-636.59 1379.9,-639.01 1375.9,-641.4 1371.49,-643.77 1366.7,-646.1 1361.54,-648.38 1356.03,-650.61 1350.21,-652.77 1344.09,-654.86 1337.7,-656.86 1331.06,-658.77"/>
<text text-anchor="middle" x="1247.07" y="-620.51" font-family="sans-serif" font-size="16.00">SeguridadContext</text>
</g>
<!-- GestionSesionesContext&#45;&gt;SeguridadContext -->
<g id="edge13" class="edge">
<title>GestionSesionesContext&#45;&gt;SeguridadContext</title>
<path fill="none" stroke="black" stroke-width="2" d="M1194.14,-732.3C1205.75,-724.27 1216.6,-714.84 1225.07,-703.92 1232.11,-694.85 1236.89,-683.65 1240.15,-672.57"/>
<text text-anchor="middle" x="1289.07" y="-694.32" font-family="sans-serif" font-size="12.00">Customer/Supplier</text>
<polygon fill="white" stroke="transparent" points="1233.15,-663.57 1233.15,-680.57 1247.15,-680.57 1247.15,-663.57 1233.15,-663.57"/>
<text text-anchor="start" x="1235.15" y="-668.97" font-family="sans-serif" font-size="12.00">D</text>
<polygon fill="white" stroke="transparent" points="1187.14,-723.3 1187.14,-740.3 1201.14,-740.3 1201.14,-723.3 1187.14,-723.3"/>
<text text-anchor="start" x="1189.14" y="-728.7" font-family="sans-serif" font-size="12.00">U</text>
</g>
<!-- SeguridadContext&#45;&gt;GestionSesionesContext -->
<g id="edge15" class="edge">
<title>SeguridadContext&#45;&gt;GestionSesionesContext</title>
<path fill="none" stroke="black" stroke-width="2" d="M1145.94,-656.45C1131.3,-665.29 1118.14,-676.56 1109.07,-690.92 1103.33,-700.01 1101.41,-710.96 1101.51,-721.74"/>
<text text-anchor="middle" x="1165.07" y="-694.32" font-family="sans-serif" font-size="12.00">Customer/Supplier</text>
<polygon fill="white" stroke="transparent" points="1094.51,-712.74 1094.51,-729.74 1108.51,-729.74 1108.51,-712.74 1094.51,-712.74"/>
<text text-anchor="start" x="1096.51" y="-718.14" font-family="sans-serif" font-size="12.00">D</text>
<polygon fill="white" stroke="transparent" points="1138.94,-647.45 1138.94,-664.45 1152.94,-664.45 1152.94,-647.45 1138.94,-647.45"/>
<text text-anchor="start" x="1140.94" y="-652.85" font-family="sans-serif" font-size="12.00">U</text>
</g>
<!-- IntegracionRedesSocialesContext -->
<g id="node11" class="node">
<title>IntegracionRedesSocialesContext</title>
<polygon fill="none" stroke="black" stroke-width="2" points="1627.85,-516.81 1614.88,-515.52 1602.27,-514.13 1590.07,-512.64 1578.35,-511.07 1567.14,-509.41 1556.49,-507.68 1546.45,-505.87 1537.06,-504 1528.35,-502.07 1520.35,-500.08 1513.1,-498.05 1506.61,-495.98 1500.93,-493.87 1496.05,-491.73 1491.99,-489.57 1488.77,-487.39 1486.38,-485.2 1484.84,-483.01 1484.13,-480.81 1484.24,-478.61 1485.17,-476.43 1486.9,-474.26 1489.42,-472.11 1492.69,-469.98 1496.7,-467.88 1501.42,-465.81 1506.81,-463.78 1512.85,-461.79 1519.49,-459.85 1526.7,-457.95 1534.45,-456.11 1542.68,-454.33 1551.37,-452.6 1560.47,-450.94 1569.94,-449.34 1579.74,-447.81 1589.83,-446.35 1600.17,-444.97 1610.71,-443.67 1621.42,-442.45 1632.27,-441.32 1643.21,-440.27 1654.22,-439.3 1665.26,-438.44 1676.29,-437.66 1687.31,-436.98 1698.27,-436.4 1709.15,-435.92 1719.93,-435.54 1730.59,-435.27 1741.11,-435.1 1751.48,-435.04 1761.68,-435.09 1771.7,-435.25 1781.53,-435.52 1791.15,-435.9 1800.56,-436.39 1809.75,-436.99 1818.72,-437.71 1827.46,-438.53 1835.96,-439.47 1844.22,-440.51 1852.24,-441.67 1860,-442.93 1867.51,-444.29 1874.75,-445.75 1881.73,-447.31 1888.44,-448.97 1894.87,-450.72 1901,-452.55 1906.84,-454.47 1912.37,-456.47 1917.58,-458.54 1922.46,-460.68 1927,-462.88 1931.17,-465.13 1934.97,-467.44 1938.37,-469.78 1941.37,-472.16 1943.95,-474.57 1946.08,-477 1947.74,-479.44 1948.93,-481.89 1949.61,-484.33 1949.78,-486.76 1949.42,-489.18 1948.5,-491.56 1947.01,-493.91 1944.94,-496.22 1942.28,-498.48 1939.01,-500.68 1935.12,-502.81 1930.61,-504.87 1925.47,-506.85 1919.7,-508.74 1913.3,-510.54 1906.27,-512.24 1898.63,-513.83 1890.37,-515.32 1881.52,-516.69 1872.08,-517.94 1862.09,-519.06 1851.56,-520.06 1840.53,-520.93 1829.01,-521.67 1817.04,-522.27 1804.67,-522.74 1791.93,-523.07 1778.86,-523.27 1765.51,-523.32 1751.93,-523.25 1738.16,-523.04 1724.26,-522.69 1710.28,-522.22 1696.28,-521.62 1682.31,-520.89 1668.42,-520.04 1654.68,-519.08 1641.14,-518 1627.85,-516.81"/>
<text text-anchor="middle" x="1731.07" y="-474.14" font-family="sans-serif" font-size="16.00">IntegracionRedesSocialesContext</text>
</g>
<!-- IntegracionRedesSocialesContext&#45;&gt;VentasContext -->
<g id="edge16" class="edge">
<title>IntegracionRedesSocialesContext&#45;&gt;VentasContext</title>
<path fill="none" stroke="black" stroke-width="2" d="M1731.07,-435.13C1731.07,-417.04 1731.07,-395.87 1731.07,-377.56"/>
<text text-anchor="middle" x="1765.57" y="-401.58" font-family="sans-serif" font-size="12.00">Partnership</text>
</g>
<!-- NotificacionesComunicacionesContext -->
<g id="node12" class="node">
<title>NotificacionesComunicacionesContext</title>
<polygon fill="none" stroke="black" stroke-width="2" points="2020.3,-461.03 2026.37,-458.36 2033.03,-455.76 2040.27,-453.23 2048.06,-450.79 2056.37,-448.44 2065.18,-446.19 2074.45,-444.06 2084.15,-442.05 2094.26,-440.16 2104.74,-438.42 2115.56,-436.81 2126.7,-435.36 2138.11,-434.05 2149.76,-432.91 2161.64,-431.92 2173.69,-431.1 2185.89,-430.44 2198.22,-429.94 2210.63,-429.61 2223.1,-429.44 2235.59,-429.43 2248.09,-429.58 2260.55,-429.89 2272.95,-430.35 2285.26,-430.95 2297.46,-431.7 2309.51,-432.59 2321.39,-433.6 2333.08,-434.74 2344.54,-435.99 2355.76,-437.35 2366.71,-438.82 2377.36,-440.38 2387.7,-442.02 2397.7,-443.75 2407.33,-445.54 2416.58,-447.4 2425.43,-449.31 2433.85,-451.27 2441.83,-453.27 2449.35,-455.31 2456.38,-457.37 2462.91,-459.45 2468.93,-461.55 2474.41,-463.65 2479.34,-465.76 2483.71,-467.86 2487.5,-469.96 2490.7,-472.05 2493.3,-474.12 2495.28,-476.18 2496.64,-478.22 2497.36,-480.23 2497.44,-482.21 2496.88,-484.17 2495.67,-486.09 2493.8,-487.99 2491.27,-489.85 2488.1,-491.68 2484.26,-493.47 2479.78,-495.22 2474.66,-496.94 2468.9,-498.62 2462.52,-500.25 2455.52,-501.85 2447.92,-503.4 2439.73,-504.91 2430.98,-506.38 2421.68,-507.79 2411.86,-509.16 2401.54,-510.48 2390.74,-511.74 2379.5,-512.95 2367.85,-514.09 2355.8,-515.18 2343.41,-516.19 2330.71,-517.14 2317.73,-518.02 2304.5,-518.82 2291.08,-519.53 2277.5,-520.16 2263.8,-520.7 2250.03,-521.15 2236.23,-521.5 2222.43,-521.74 2208.69,-521.88 2195.06,-521.91 2181.56,-521.82 2168.26,-521.62 2155.18,-521.29 2142.38,-520.84 2129.89,-520.26 2117.75,-519.55 2106.01,-518.71 2094.7,-517.74 2083.86,-516.64 2073.53,-515.41 2063.73,-514.04 2054.49,-512.55 2045.86,-510.93 2037.84,-509.18 2030.47,-507.31 2023.77,-505.33 2017.75,-503.23 2012.44,-501.03 2007.84,-498.73 2003.98,-496.33 2000.84,-493.86 1998.46,-491.3 1996.81,-488.68 1995.92,-486 1995.76,-483.27 1996.35,-480.51 1997.67,-477.72 1999.72,-474.91 2002.47,-472.1 2005.93,-469.29 2010.06,-466.5 2014.86,-463.75 2020.3,-461.03"/>
<text text-anchor="middle" x="2251.07" y="-474.14" font-family="sans-serif" font-size="16.00">NotificacionesComunicacionesContext</text>
</g>
<!-- NotificacionesComunicacionesContext&#45;&gt;VentasContext -->
<g id="edge17" class="edge">
<title>NotificacionesComunicacionesContext&#45;&gt;VentasContext</title>
<path fill="none" stroke="black" stroke-width="2" d="M2108.64,-437.71C2020.54,-413.44 1909.62,-382.88 1830.86,-361.18"/>
<text text-anchor="middle" x="2041.57" y="-401.58" font-family="sans-serif" font-size="12.00">Partnership</text>
</g>
<!-- ProcesoPagosContext -->
<g id="node13" class="node">
<title>ProcesoPagosContext</title>
<polygon fill="none" stroke="black" stroke-width="2" points="306.06,-177.39 308.51,-180.18 310.54,-182.99 312.14,-185.79 313.28,-188.58 313.98,-191.34 314.22,-194.08 313.99,-196.77 313.31,-199.41 312.16,-201.98 310.54,-204.48 308.47,-206.9 305.93,-209.24 302.95,-211.48 299.52,-213.62 295.66,-215.65 291.38,-217.56 286.68,-219.36 281.59,-221.04 276.13,-222.6 270.29,-224.02 264.12,-225.33 257.62,-226.5 250.81,-227.54 243.73,-228.45 236.39,-229.23 228.82,-229.89 221.04,-230.42 213.07,-230.83 204.95,-231.12 196.7,-231.29 188.35,-231.35 179.93,-231.29 171.46,-231.13 162.97,-230.87 154.48,-230.5 146.03,-230.04 137.64,-229.5 129.34,-228.86 121.15,-228.14 113.1,-227.35 105.21,-226.47 97.5,-225.53 90,-224.52 82.73,-223.44 75.7,-222.3 68.94,-221.1 62.46,-219.85 56.28,-218.54 50.42,-217.17 44.89,-215.76 39.69,-214.3 34.85,-212.79 30.37,-211.23 26.27,-209.63 22.54,-207.98 19.19,-206.29 16.24,-204.56 13.68,-202.79 11.51,-200.98 9.74,-199.13 8.36,-197.24 7.39,-195.32 6.8,-193.36 6.61,-191.37 6.81,-189.35 7.39,-187.31 8.36,-185.23 9.69,-183.14 11.4,-181.03 13.46,-178.9 15.88,-176.76 18.64,-174.62 21.74,-172.48 25.17,-170.34 28.91,-168.21 32.97,-166.11 37.32,-164.02 41.96,-161.97 46.88,-159.95 52.06,-157.98 57.5,-156.06 63.17,-154.2 69.08,-152.41 75.21,-150.7 81.54,-149.07 88.06,-147.54 94.76,-146.1 101.63,-144.77 108.64,-143.56 115.79,-142.47 123.06,-141.51 130.43,-140.69 137.89,-140.01 145.43,-139.47 153.02,-139.09 160.65,-138.86 168.3,-138.79 175.95,-138.88 183.58,-139.14 191.19,-139.56 198.74,-140.15 206.21,-140.9 213.6,-141.81 220.87,-142.89 228.02,-144.13 235.01,-145.52 241.83,-147.06 248.45,-148.75 254.87,-150.57 261.05,-152.53 266.98,-154.61 272.65,-156.8 278.02,-159.11 283.08,-161.51 287.82,-164 292.22,-166.57 296.25,-169.2 299.92,-171.89 303.19,-174.62 306.06,-177.39"/>
<text text-anchor="middle" x="157.07" y="-183.77" font-family="sans-serif" font-size="16.00">ProcesoPagosContext</text>
</g>
<!-- ProcesoPagosContext&#45;&gt;GestionPedidosContext -->
<g id="edge18" class="edge">
<title>ProcesoPagosContext&#45;&gt;GestionPedidosContext</title>
<path fill="none" stroke="black" stroke-width="2" d="M264.65,-153.73C284,-148.39 304.06,-143.21 323.07,-138.93 459.94,-108.14 617.61,-83.05 731.55,-66.72"/>
<text text-anchor="middle" x="518.07" y="-111.33" font-family="sans-serif" font-size="12.00">Customer/Supplier</text>
<polygon fill="white" stroke="transparent" points="724.55,-57.72 724.55,-74.72 738.55,-74.72 738.55,-57.72 724.55,-57.72"/>
<text text-anchor="start" x="726.55" y="-63.12" font-family="sans-serif" font-size="12.00">D</text>
<polygon fill="white" stroke="transparent" points="257.65,-144.73 257.65,-161.73 271.65,-161.73 271.65,-144.73 257.65,-144.73"/>
<text text-anchor="start" x="259.65" y="-150.13" font-family="sans-serif" font-size="12.00">U</text>
</g>
<!-- ServicioClienteContext -->
<g id="node14" class="node">
<title>ServicioClienteContext</title>
<polygon fill="none" stroke="black" stroke-width="2" points="2536.96,-490.26 2533.83,-487.53 2531.15,-484.78 2528.94,-482.03 2527.19,-479.28 2525.93,-476.55 2525.15,-473.85 2524.87,-471.18 2525.09,-468.55 2525.81,-465.98 2527.03,-463.48 2528.75,-461.05 2530.97,-458.7 2533.69,-456.43 2536.89,-454.26 2540.57,-452.2 2544.72,-450.23 2549.32,-448.38 2554.37,-446.64 2559.83,-445.02 2565.71,-443.51 2571.97,-442.13 2578.6,-440.87 2585.57,-439.74 2592.86,-438.73 2600.45,-437.84 2608.31,-437.08 2616.41,-436.44 2624.73,-435.91 2633.23,-435.51 2641.9,-435.21 2650.69,-435.03 2659.58,-434.96 2668.54,-434.99 2677.55,-435.13 2686.56,-435.36 2695.56,-435.69 2704.51,-436.11 2713.38,-436.61 2722.15,-437.2 2730.79,-437.87 2739.28,-438.62 2747.59,-439.44 2755.69,-440.33 2763.57,-441.29 2771.19,-442.31 2778.55,-443.4 2785.62,-444.55 2792.39,-445.75 2798.83,-447.02 2804.93,-448.34 2810.69,-449.71 2816.08,-451.13 2821.1,-452.61 2825.74,-454.13 2829.99,-455.71 2833.84,-457.33 2837.29,-459 2840.33,-460.72 2842.96,-462.48 2845.18,-464.29 2846.99,-466.14 2848.39,-468.03 2849.38,-469.96 2849.97,-471.93 2850.14,-473.93 2849.92,-475.97 2849.31,-478.04 2848.3,-480.13 2846.91,-482.25 2845.14,-484.39 2843,-486.55 2840.5,-488.71 2837.64,-490.88 2834.44,-493.05 2830.9,-495.21 2827.03,-497.36 2822.85,-499.49 2818.35,-501.6 2813.55,-503.67 2808.47,-505.7 2803.1,-507.68 2797.47,-509.61 2791.59,-511.47 2785.46,-513.26 2779.1,-514.97 2772.52,-516.59 2765.73,-518.11 2758.75,-519.53 2751.58,-520.83 2744.26,-522.02 2736.78,-523.08 2729.16,-524 2721.43,-524.79 2713.59,-525.44 2705.66,-525.93 2697.66,-526.27 2689.61,-526.45 2681.52,-526.48 2673.42,-526.34 2665.33,-526.03 2657.25,-525.56 2649.23,-524.93 2641.26,-524.13 2633.39,-523.17 2625.62,-522.06 2617.99,-520.78 2610.5,-519.36 2603.19,-517.79 2596.08,-516.07 2589.18,-514.23 2582.53,-512.25 2576.14,-510.16 2570.03,-507.96 2564.23,-505.65 2558.75,-503.26 2553.63,-500.78 2548.87,-498.23 2544.49,-495.62 2540.51,-492.96 2536.96,-490.26"/>
<text text-anchor="middle" x="2692.07" y="-474.14" font-family="sans-serif" font-size="16.00">ServicioClienteContext</text>
</g>
<!-- ServicioClienteContext&#45;&gt;VentasContext -->
<g id="edge19" class="edge">
<title>ServicioClienteContext&#45;&gt;VentasContext</title>
<path fill="none" stroke="black" stroke-width="2" d="M2571.69,-442C2552.84,-437.24 2533.5,-432.77 2515.07,-429.18 2279.04,-383.2 1998.46,-355.41 1845.15,-342.46"/>
<text text-anchor="middle" x="2444.57" y="-401.58" font-family="sans-serif" font-size="12.00">Partnership</text>
</g>
</g>
</svg>
