<svg width="2000px" height="1081px"
 viewBox="0.00 0.00 987.85 534.28" xmlns="http://www.w3.org/2000/svg" xmlns:xlink="http://www.w3.org/1999/xlink">
<g id="graph0" class="graph" transform="scale(1.0 1.0) rotate(0) translate(4 530.28)">
<title>ContextMapGraph</title>
<polygon fill="white" stroke="transparent" points="-4,4 -4,-530.28 983.85,-530.28 983.85,4 -4,4"/>
<!-- atencionCliente -->
<g id="node1" class="node">
<title>atencionCliente</title>
<polygon fill="none" stroke="black" stroke-width="2" points="537.77,-42.55 538.9,-45.4 539.7,-48.26 540.15,-51.09 540.25,-53.91 540,-56.68 539.4,-59.41 538.45,-62.08 537.15,-64.69 535.5,-67.22 533.51,-69.66 531.18,-72.01 528.51,-74.26 525.51,-76.4 522.2,-78.42 518.57,-80.33 514.65,-82.11 510.43,-83.76 505.94,-85.28 501.18,-86.66 496.17,-87.91 490.93,-89.02 485.48,-89.99 479.82,-90.82 473.97,-91.52 467.96,-92.08 461.81,-92.5 455.52,-92.8 449.13,-92.96 442.65,-93.01 436.1,-92.93 429.51,-92.73 422.88,-92.42 416.26,-92.01 409.64,-91.49 403.06,-90.87 396.54,-90.16 390.09,-89.36 383.73,-88.48 377.48,-87.52 371.37,-86.48 365.4,-85.38 359.6,-84.2 353.98,-82.97 348.56,-81.68 343.35,-80.33 338.37,-78.93 333.63,-77.49 329.14,-76 324.91,-74.46 320.96,-72.89 317.29,-71.28 313.91,-69.63 310.83,-67.94 308.05,-66.22 305.59,-64.47 303.44,-62.69 301.61,-60.88 300.1,-59.04 298.91,-57.17 298.05,-55.27 297.51,-53.35 297.29,-51.41 297.4,-49.44 297.82,-47.46 298.56,-45.45 299.61,-43.43 300.96,-41.39 302.62,-39.35 304.57,-37.3 306.81,-35.24 309.33,-33.19 312.12,-31.14 315.18,-29.1 318.49,-27.07 322.06,-25.07 325.86,-23.09 329.89,-21.14 334.13,-19.24 338.59,-17.38 343.24,-15.57 348.07,-13.82 353.08,-12.14 358.25,-10.54 363.57,-9.02 369.03,-7.59 374.61,-6.26 380.3,-5.03 386.09,-3.91 391.97,-2.92 397.91,-2.05 403.92,-1.31 409.96,-0.71 416.04,-0.26 422.13,0.05 428.22,0.2 434.29,0.2 440.34,0.04 446.34,-0.28 452.29,-0.77 458.16,-1.42 463.93,-2.23 469.61,-3.2 475.16,-4.34 480.59,-5.63 485.86,-7.08 490.97,-8.67 495.89,-10.41 500.63,-12.29 505.16,-14.3 509.47,-16.43 513.54,-18.68 517.37,-21.04 520.94,-23.5 524.24,-26.04 527.26,-28.66 529.98,-31.35 532.41,-34.1 534.52,-36.89 536.31,-39.71 537.77,-42.55"/>
<text text-anchor="middle" x="417.46" y="-44.4" font-family="sans-serif" font-size="16.00">atencionCliente</text>
</g>
<!-- compras -->
<g id="node2" class="node">
<title>compras</title>
<polygon fill="none" stroke="black" stroke-width="2" points="349.39,-439.22 354.59,-439.71 359.73,-440.31 364.76,-441.03 369.68,-441.86 374.47,-442.8 379.11,-443.84 383.57,-444.99 387.84,-446.24 391.91,-447.58 395.75,-449.02 399.37,-450.54 402.74,-452.15 405.85,-453.84 408.7,-455.6 411.27,-457.43 413.56,-459.33 415.57,-461.29 417.29,-463.3 418.72,-465.36 419.87,-467.47 420.72,-469.61 421.29,-471.79 421.57,-473.99 421.58,-476.21 421.32,-478.45 420.79,-480.7 420.01,-482.95 418.99,-485.2 417.73,-487.44 416.24,-489.67 414.54,-491.88 412.64,-494.06 410.55,-496.22 408.29,-498.33 405.86,-500.4 403.27,-502.43 400.55,-504.4 397.71,-506.32 394.74,-508.17 391.68,-509.96 388.52,-511.67 385.29,-513.3 381.98,-514.86 378.61,-516.33 375.19,-517.7 371.73,-518.99 368.24,-520.17 364.71,-521.26 361.17,-522.24 357.61,-523.12 354.05,-523.89 350.48,-524.54 346.91,-525.08 343.34,-525.51 339.78,-525.82 336.23,-526.01 332.7,-526.08 329.18,-526.04 325.68,-525.87 322.2,-525.58 318.74,-525.18 315.31,-524.66 311.9,-524.02 308.52,-523.26 305.18,-522.39 301.88,-521.41 298.61,-520.32 295.39,-519.12 292.21,-517.82 289.09,-516.42 286.03,-514.92 283.03,-513.33 280.1,-511.65 277.26,-509.89 274.5,-508.04 271.83,-506.13 269.27,-504.14 266.82,-502.1 264.5,-499.99 262.31,-497.84 260.26,-495.64 258.37,-493.4 256.64,-491.13 255.08,-488.83 253.71,-486.52 252.54,-484.19 251.57,-481.85 250.82,-479.52 250.3,-477.19 250.01,-474.88 249.96,-472.59 250.16,-470.32 250.62,-468.09 251.34,-465.91 252.33,-463.76 253.58,-461.67 255.11,-459.64 256.91,-457.68 258.98,-455.78 261.31,-453.96 263.92,-452.23 266.78,-450.57 269.9,-449.01 273.27,-447.54 276.88,-446.17 280.71,-444.91 284.76,-443.75 289,-442.69 293.44,-441.75 298.05,-440.93 302.81,-440.22 307.71,-439.63 312.72,-439.15 317.83,-438.8 323.02,-438.57 328.27,-438.46 333.55,-438.47 338.85,-438.6 344.13,-438.85 349.39,-439.22"/>
<text text-anchor="middle" x="334.46" y="-478.54" font-family="sans-serif" font-size="16.00">compras</text>
</g>
<!-- pedidos -->
<g id="node3" class="node">
<title>pedidos</title>
<polygon fill="none" stroke="black" stroke-width="2" points="4.98,-326.52 6.51,-323.78 8.23,-321.09 10.13,-318.47 12.21,-315.92 14.46,-313.47 16.88,-311.11 19.45,-308.86 22.16,-306.72 25.02,-304.71 28.01,-302.83 31.11,-301.09 34.33,-299.5 37.66,-298.05 41.08,-296.76 44.58,-295.63 48.16,-294.65 51.8,-293.84 55.5,-293.19 59.25,-292.71 63.03,-292.38 66.84,-292.22 70.68,-292.22 74.52,-292.38 78.36,-292.68 82.19,-293.14 86,-293.74 89.78,-294.47 93.53,-295.34 97.24,-296.34 100.89,-297.45 104.48,-298.68 108,-300.01 111.44,-301.44 114.79,-302.96 118.05,-304.57 121.21,-306.24 124.26,-307.99 127.19,-309.8 130,-311.66 132.67,-313.56 135.22,-315.51 137.61,-317.49 139.86,-319.49 141.95,-321.52 143.88,-323.56 145.64,-325.61 147.23,-327.66 148.64,-329.72 149.87,-331.77 150.91,-333.82 151.77,-335.85 152.43,-337.87 152.89,-339.88 153.16,-341.86 153.22,-343.83 153.09,-345.78 152.75,-347.7 152.2,-349.59 151.46,-351.46 150.5,-353.3 149.35,-355.11 148,-356.9 146.44,-358.65 144.69,-360.37 142.75,-362.05 140.62,-363.7 138.3,-365.31 135.81,-366.89 133.15,-368.42 130.32,-369.91 127.33,-371.36 124.18,-372.75 120.9,-374.1 117.48,-375.39 113.94,-376.63 110.28,-377.8 106.52,-378.9 102.67,-379.94 98.73,-380.9 94.72,-381.79 90.65,-382.58 86.54,-383.29 82.39,-383.91 78.22,-384.43 74.04,-384.85 69.86,-385.15 65.7,-385.35 61.58,-385.43 57.49,-385.39 53.46,-385.22 49.5,-384.92 45.62,-384.5 41.83,-383.94 38.14,-383.24 34.57,-382.41 31.13,-381.44 27.83,-380.33 24.67,-379.09 21.67,-377.7 18.84,-376.18 16.18,-374.53 13.71,-372.75 11.42,-370.85 9.33,-368.82 7.44,-366.68 5.76,-364.43 4.29,-362.08 3.03,-359.64 1.99,-357.11 1.17,-354.51 0.57,-351.83 0.2,-349.1 0.04,-346.33 0.1,-343.52 0.39,-340.68 0.89,-337.83 1.6,-334.97 2.52,-332.13 3.65,-329.31 4.98,-326.52"/>
<text text-anchor="middle" x="77.46" y="-336.82" font-family="sans-serif" font-size="16.00">pedidos</text>
</g>
<!-- compras&#45;&gt;pedidos -->
<g id="edge1" class="edge">
<title>compras&#45;&gt;pedidos</title>
<path fill="none" stroke="black" stroke-width="2" d="M250,-469.67C189.5,-459.58 115.05,-443.04 93.46,-420.4 84.31,-410.8 79.75,-397.48 77.63,-384.52"/>
<text text-anchor="middle" x="168.96" y="-410.8" font-family="sans-serif" font-size="12.00"> &#160;&#160;&#160;&#160;&#160;&#160;&#160;&#160;&#160;&#160;&#160;&#160;&#160;&#160;&#160;&#160;&#160;&#160;&#160;&#160;&#160;&#160;&#160;&#160;&#160;&#160;&#160;&#160;&#160;&#160;&#160;&#160;&#160;&#160;&#160;&#160;&#160;&#160;&#160;</text>
<polygon fill="white" stroke="transparent" points="54.63,-374.52 54.63,-393.52 70.63,-393.52 70.63,-374.52 54.63,-374.52"/>
<polyline fill="none" stroke="black" points="70.63,-374.52 70.63,-393.52 "/>
<text text-anchor="start" x="57.63" y="-380.92" font-family="sans-serif" font-size="12.00">D</text>
<polygon fill="white" stroke="transparent" points="70.63,-374.52 70.63,-393.52 100.63,-393.52 100.63,-374.52 70.63,-374.52"/>
<polygon fill="none" stroke="black" points="70.63,-374.52 70.63,-393.52 100.63,-393.52 100.63,-374.52 70.63,-374.52"/>
<text text-anchor="start" x="73.63" y="-380.92" font-family="sans-serif" font-size="12.00">ACL</text>
<polygon fill="white" stroke="transparent" points="243,-460.67 243,-477.67 257,-477.67 257,-460.67 243,-460.67"/>
<text text-anchor="start" x="245" y="-466.07" font-family="sans-serif" font-size="12.00">U</text>
</g>
<!-- login -->
<g id="node4" class="node">
<title>login</title>
<polygon fill="none" stroke="black" stroke-width="2" points="217.76,-304.27 220.95,-302.61 224.21,-301.06 227.53,-299.63 230.9,-298.32 234.3,-297.14 237.73,-296.1 241.17,-295.2 244.6,-294.44 248.02,-293.82 251.41,-293.36 254.76,-293.05 258.07,-292.89 261.32,-292.89 264.5,-293.05 267.61,-293.36 270.64,-293.82 273.57,-294.44 276.4,-295.2 279.14,-296.11 281.76,-297.17 284.27,-298.36 286.66,-299.68 288.92,-301.14 291.07,-302.71 293.09,-304.4 294.98,-306.2 296.74,-308.1 298.37,-310.09 299.86,-312.17 301.23,-314.32 302.47,-316.54 303.58,-318.83 304.56,-321.16 305.41,-323.53 306.14,-325.94 306.74,-328.37 307.22,-330.82 307.57,-333.28 307.81,-335.74 307.93,-338.18 307.92,-340.61 307.81,-343.02 307.58,-345.4 307.23,-347.74 306.77,-350.03 306.2,-352.28 305.51,-354.47 304.72,-356.59 303.81,-358.66 302.8,-360.65 301.67,-362.57 300.44,-364.41 299.1,-366.17 297.64,-367.84 296.08,-369.43 294.41,-370.94 292.64,-372.35 290.75,-373.67 288.77,-374.9 286.67,-376.04 284.48,-377.09 282.18,-378.04 279.79,-378.9 277.3,-379.66 274.71,-380.33 272.04,-380.91 269.28,-381.39 266.45,-381.78 263.54,-382.08 260.56,-382.29 257.52,-382.4 254.42,-382.43 251.27,-382.37 248.09,-382.21 244.88,-381.97 241.64,-381.63 238.4,-381.21 235.15,-380.7 231.91,-380.11 228.69,-379.42 225.5,-378.65 222.36,-377.79 219.27,-376.84 216.25,-375.81 213.3,-374.69 210.45,-373.49 207.7,-372.21 205.06,-370.84 202.55,-369.39 200.17,-367.86 197.94,-366.25 195.87,-364.57 193.96,-362.81 192.23,-360.98 190.68,-359.08 189.33,-357.11 188.17,-355.08 187.22,-353 186.48,-350.85 185.95,-348.66 185.63,-346.42 185.54,-344.15 185.67,-341.84 186.01,-339.5 186.58,-337.14 187.36,-334.76 188.36,-332.38 189.57,-330 190.98,-327.62 192.59,-325.26 194.39,-322.92 196.38,-320.61 198.54,-318.35 200.87,-316.13 203.36,-313.96 206,-311.86 208.76,-309.83 211.66,-307.89 214.66,-306.03 217.76,-304.27"/>
<text text-anchor="middle" x="251.46" y="-336.82" font-family="sans-serif" font-size="16.00">login</text>
</g>
<!-- compras&#45;&gt;login -->
<g id="edge2" class="edge">
<title>compras&#45;&gt;login</title>
<path fill="none" stroke="black" stroke-width="2" d="M273.98,-446.98C265.33,-439.37 257.62,-430.51 252.46,-420.4 246.55,-408.83 244.89,-394.99 245.14,-382.17"/>
<text text-anchor="middle" x="327.96" y="-410.8" font-family="sans-serif" font-size="12.00"> &#160;&#160;&#160;&#160;&#160;&#160;&#160;&#160;&#160;&#160;&#160;&#160;&#160;&#160;&#160;&#160;&#160;&#160;&#160;&#160;&#160;&#160;&#160;&#160;&#160;&#160;&#160;&#160;&#160;&#160;&#160;&#160;&#160;&#160;&#160;&#160;&#160;&#160;&#160;</text>
<polygon fill="white" stroke="transparent" points="238.14,-373.17 238.14,-390.17 252.14,-390.17 252.14,-373.17 238.14,-373.17"/>
<text text-anchor="start" x="240.14" y="-378.57" font-family="sans-serif" font-size="12.00">D</text>
<polygon fill="white" stroke="transparent" points="266.98,-437.98 266.98,-454.98 280.98,-454.98 280.98,-437.98 266.98,-437.98"/>
<text text-anchor="start" x="268.98" y="-443.38" font-family="sans-serif" font-size="12.00">U</text>
</g>
<!-- ventas -->
<g id="node5" class="node">
<title>ventas</title>
<polygon fill="none" stroke="black" stroke-width="2" points="349.95,-205.81 348.67,-203.04 347.59,-200.26 346.7,-197.47 346.02,-194.69 345.55,-191.93 345.29,-189.19 345.25,-186.5 345.41,-183.85 345.8,-181.26 346.4,-178.74 347.21,-176.29 348.24,-173.93 349.48,-171.66 350.92,-169.49 352.58,-167.41 354.43,-165.45 356.47,-163.6 358.7,-161.87 361.12,-160.26 363.7,-158.77 366.45,-157.41 369.36,-156.17 372.41,-155.06 375.59,-154.07 378.91,-153.21 382.33,-152.48 385.86,-151.87 389.47,-151.38 393.17,-151.01 396.93,-150.76 400.74,-150.62 404.59,-150.59 408.47,-150.66 412.37,-150.84 416.26,-151.12 420.15,-151.49 424.01,-151.96 427.84,-152.51 431.62,-153.15 435.35,-153.87 439,-154.66 442.57,-155.53 446.06,-156.47 449.44,-157.47 452.72,-158.54 455.87,-159.67 458.9,-160.86 461.8,-162.11 464.55,-163.42 467.16,-164.78 469.61,-166.19 471.91,-167.65 474.04,-169.17 476.01,-170.73 477.8,-172.34 479.42,-174 480.87,-175.7 482.14,-177.45 483.23,-179.24 484.14,-181.07 484.87,-182.95 485.43,-184.86 485.8,-186.82 486,-188.81 486.02,-190.83 485.87,-192.89 485.54,-194.97 485.05,-197.08 484.39,-199.21 483.56,-201.36 482.57,-203.52 481.43,-205.7 480.13,-207.87 478.69,-210.05 477.09,-212.21 475.36,-214.37 473.48,-216.5 471.48,-218.6 469.34,-220.67 467.09,-222.7 464.71,-224.67 462.22,-226.59 459.62,-228.44 456.91,-230.21 454.11,-231.91 451.21,-233.51 448.23,-235.01 445.17,-236.41 442.03,-237.69 438.82,-238.86 435.56,-239.89 432.23,-240.79 428.86,-241.55 425.45,-242.16 422,-242.62 418.53,-242.93 415.04,-243.07 411.53,-243.06 408.03,-242.88 404.53,-242.53 401.05,-242.02 397.59,-241.34 394.17,-240.5 390.78,-239.5 387.45,-238.33 384.18,-237.01 380.98,-235.53 377.86,-233.91 374.82,-232.15 371.89,-230.25 369.06,-228.23 366.36,-226.09 363.77,-223.84 361.33,-221.48 359.02,-219.04 356.87,-216.51 354.88,-213.92 353.06,-211.26 351.41,-208.56 349.95,-205.81"/>
<text text-anchor="middle" x="417.46" y="-190.32" font-family="sans-serif" font-size="16.00">ventas</text>
</g>
<!-- compras&#45;&gt;ventas -->
<g id="edge4" class="edge">
<title>compras&#45;&gt;ventas</title>
<path fill="none" stroke="black" stroke-width="2" d="M385.1,-445.43C392.41,-437.99 398.97,-429.59 403.46,-420.4 418.17,-390.3 419.48,-299.9 418.72,-243.18"/>
<text text-anchor="middle" x="494.96" y="-337.52" font-family="sans-serif" font-size="12.00"> &#160;&#160;&#160;&#160;&#160;&#160;&#160;&#160;&#160;&#160;&#160;&#160;&#160;&#160;&#160;&#160;&#160;&#160;&#160;&#160;&#160;&#160;&#160;&#160;&#160;&#160;&#160;&#160;&#160;&#160;&#160;&#160;&#160;&#160;&#160;&#160;&#160;&#160;&#160;</text>
<polygon fill="white" stroke="transparent" points="395.72,-233.18 395.72,-252.18 411.72,-252.18 411.72,-233.18 395.72,-233.18"/>
<polyline fill="none" stroke="black" points="411.72,-233.18 411.72,-252.18 "/>
<text text-anchor="start" x="398.72" y="-239.58" font-family="sans-serif" font-size="12.00">D</text>
<polygon fill="white" stroke="transparent" points="411.72,-233.18 411.72,-252.18 441.72,-252.18 441.72,-233.18 411.72,-233.18"/>
<polygon fill="none" stroke="black" points="411.72,-233.18 411.72,-252.18 441.72,-252.18 441.72,-233.18 411.72,-233.18"/>
<text text-anchor="start" x="414.72" y="-239.58" font-family="sans-serif" font-size="12.00">ACL</text>
<polygon fill="white" stroke="transparent" points="378.1,-436.43 378.1,-453.43 392.1,-453.43 392.1,-436.43 378.1,-436.43"/>
<text text-anchor="start" x="380.1" y="-441.83" font-family="sans-serif" font-size="12.00">U</text>
</g>
<!-- pagos -->
<g id="node6" class="node">
<title>pagos</title>
<polygon fill="none" stroke="black" stroke-width="2" points="598.53,-361.39 596.44,-358.9 594.51,-356.36 592.77,-353.8 591.21,-351.21 589.85,-348.6 588.7,-346 587.75,-343.41 587.01,-340.83 586.5,-338.27 586.2,-335.75 586.13,-333.28 586.27,-330.85 586.65,-328.49 587.24,-326.18 588.06,-323.95 589.1,-321.8 590.35,-319.73 591.82,-317.74 593.49,-315.85 595.36,-314.04 597.42,-312.34 599.66,-310.74 602.08,-309.24 604.67,-307.84 607.42,-306.54 610.31,-305.35 613.33,-304.27 616.48,-303.29 619.74,-302.41 623.1,-301.64 626.55,-300.97 630.07,-300.4 633.65,-299.93 637.27,-299.55 640.94,-299.27 644.62,-299.09 648.32,-298.99 652.01,-298.99 655.69,-299.07 659.34,-299.24 662.95,-299.5 666.52,-299.83 670.02,-300.25 673.46,-300.74 676.82,-301.31 680.09,-301.96 683.26,-302.69 686.34,-303.49 689.3,-304.36 692.14,-305.31 694.86,-306.33 697.46,-307.42 699.92,-308.58 702.24,-309.81 704.43,-311.11 706.47,-312.48 708.36,-313.92 710.11,-315.43 711.71,-317.01 713.16,-318.65 714.46,-320.36 715.61,-322.13 716.61,-323.96 717.46,-325.86 718.16,-327.81 718.71,-329.81 719.11,-331.87 719.37,-333.98 719.47,-336.13 719.44,-338.32 719.26,-340.55 718.94,-342.81 718.48,-345.09 717.89,-347.39 717.16,-349.71 716.29,-352.03 715.29,-354.35 714.15,-356.66 712.89,-358.96 711.5,-361.23 709.99,-363.47 708.35,-365.68 706.59,-367.83 704.71,-369.92 702.71,-371.95 700.59,-373.9 698.37,-375.78 696.03,-377.55 693.58,-379.23 691.04,-380.81 688.39,-382.26 685.65,-383.6 682.81,-384.81 679.89,-385.88 676.89,-386.81 673.81,-387.59 670.66,-388.22 667.45,-388.7 664.18,-389.02 660.86,-389.17 657.5,-389.17 654.1,-389 650.68,-388.67 647.24,-388.17 643.8,-387.52 640.36,-386.7 636.93,-385.73 633.53,-384.6 630.16,-383.33 626.84,-381.91 623.57,-380.35 620.37,-378.66 617.25,-376.85 614.22,-374.92 611.29,-372.89 608.47,-370.75 605.77,-368.52 603.21,-366.22 600.8,-363.84 598.53,-361.39"/>
<text text-anchor="middle" x="656.46" y="-336.82" font-family="sans-serif" font-size="16.00">pagos</text>
</g>
<!-- compras&#45;&gt;pagos -->
<g id="edge3" class="edge">
<title>compras&#45;&gt;pagos</title>
<path fill="none" stroke="black" stroke-width="2" d="M409.09,-455.74C456.6,-438.65 519.03,-414.74 572.46,-389.4 584.28,-383.79 596.7,-377.16 608.25,-370.66"/>
<text text-anchor="middle" x="603.96" y="-410.8" font-family="sans-serif" font-size="12.00"> &#160;&#160;&#160;&#160;&#160;&#160;&#160;&#160;&#160;&#160;&#160;&#160;&#160;&#160;&#160;&#160;&#160;&#160;&#160;&#160;&#160;&#160;&#160;&#160;&#160;&#160;&#160;&#160;&#160;&#160;&#160;&#160;&#160;&#160;&#160;&#160;&#160;&#160;&#160;</text>
<polygon fill="white" stroke="transparent" points="585.25,-360.66 585.25,-379.66 601.25,-379.66 601.25,-360.66 585.25,-360.66"/>
<polyline fill="none" stroke="black" points="601.25,-360.66 601.25,-379.66 "/>
<text text-anchor="start" x="588.25" y="-367.06" font-family="sans-serif" font-size="12.00">D</text>
<polygon fill="white" stroke="transparent" points="601.25,-360.66 601.25,-379.66 631.25,-379.66 631.25,-360.66 601.25,-360.66"/>
<polygon fill="none" stroke="black" points="601.25,-360.66 601.25,-379.66 631.25,-379.66 631.25,-360.66 601.25,-360.66"/>
<text text-anchor="start" x="604.25" y="-367.06" font-family="sans-serif" font-size="12.00">ACL</text>
<polygon fill="white" stroke="transparent" points="402.09,-446.74 402.09,-463.74 416.09,-463.74 416.09,-446.74 402.09,-446.74"/>
<text text-anchor="start" x="404.09" y="-452.14" font-family="sans-serif" font-size="12.00">U</text>
</g>
<!-- login&#45;&gt;ventas -->
<g id="edge5" class="edge">
<title>login&#45;&gt;ventas</title>
<path fill="none" stroke="black" stroke-width="2" d="M243.38,-294.37C243.5,-282.61 245.8,-270.54 252.46,-260.85 274.21,-229.21 313.83,-212.8 348.79,-204.29"/>
<text text-anchor="middle" x="327.96" y="-264.25" font-family="sans-serif" font-size="12.00"> &#160;&#160;&#160;&#160;&#160;&#160;&#160;&#160;&#160;&#160;&#160;&#160;&#160;&#160;&#160;&#160;&#160;&#160;&#160;&#160;&#160;&#160;&#160;&#160;&#160;&#160;&#160;&#160;&#160;&#160;&#160;&#160;&#160;&#160;&#160;&#160;&#160;&#160;&#160;</text>
<polygon fill="white" stroke="transparent" points="341.79,-195.29 341.79,-212.29 355.79,-212.29 355.79,-195.29 341.79,-195.29"/>
<text text-anchor="start" x="343.79" y="-200.69" font-family="sans-serif" font-size="12.00">D</text>
<polygon fill="white" stroke="transparent" points="236.38,-285.37 236.38,-302.37 250.38,-302.37 250.38,-285.37 236.38,-285.37"/>
<text text-anchor="start" x="238.38" y="-290.77" font-family="sans-serif" font-size="12.00">U</text>
</g>
<!-- ventas&#45;&gt;atencionCliente -->
<g id="edge6" class="edge">
<title>ventas&#45;&gt;atencionCliente</title>
<path fill="none" stroke="black" stroke-width="2" d="M417.46,-151.11C417.46,-132.61 417.46,-110.89 417.46,-92.27"/>
<text text-anchor="middle" x="492.96" y="-117.8" font-family="sans-serif" font-size="12.00"> &#160;&#160;&#160;&#160;&#160;&#160;&#160;&#160;&#160;&#160;&#160;&#160;&#160;&#160;&#160;&#160;&#160;&#160;&#160;&#160;&#160;&#160;&#160;&#160;&#160;&#160;&#160;&#160;&#160;&#160;&#160;&#160;&#160;&#160;&#160;&#160;&#160;&#160;&#160;</text>
<polygon fill="white" stroke="transparent" points="394.46,-82.27 394.46,-101.27 410.46,-101.27 410.46,-82.27 394.46,-82.27"/>
<polyline fill="none" stroke="black" points="410.46,-82.27 410.46,-101.27 "/>
<text text-anchor="start" x="397.46" y="-88.67" font-family="sans-serif" font-size="12.00">D</text>
<polygon fill="white" stroke="transparent" points="410.46,-82.27 410.46,-101.27 440.46,-101.27 440.46,-82.27 410.46,-82.27"/>
<polygon fill="none" stroke="black" points="410.46,-82.27 410.46,-101.27 440.46,-101.27 440.46,-82.27 410.46,-82.27"/>
<text text-anchor="start" x="413.46" y="-88.67" font-family="sans-serif" font-size="12.00">ACL</text>
<polygon fill="white" stroke="transparent" points="410.46,-142.11 410.46,-159.11 424.46,-159.11 424.46,-142.11 410.46,-142.11"/>
<text text-anchor="start" x="412.46" y="-147.51" font-family="sans-serif" font-size="12.00">U</text>
</g>
<!-- devoluciones -->
<g id="node7" class="node">
<title>devoluciones</title>
<polygon fill="none" stroke="black" stroke-width="2" points="848.77,-297.08 855.68,-296.67 862.59,-296.39 869.47,-296.23 876.28,-296.19 883.01,-296.28 889.62,-296.5 896.1,-296.84 902.41,-297.31 908.54,-297.91 914.46,-298.63 920.15,-299.47 925.6,-300.44 930.79,-301.52 935.7,-302.72 940.31,-304.03 944.62,-305.45 948.62,-306.98 952.3,-308.6 955.66,-310.33 958.68,-312.14 961.37,-314.03 963.72,-316.01 965.73,-318.06 967.42,-320.17 968.77,-322.35 969.81,-324.57 970.52,-326.85 970.93,-329.16 971.03,-331.51 970.84,-333.88 970.36,-336.26 969.62,-338.66 968.61,-341.06 967.35,-343.45 965.86,-345.83 964.14,-348.19 962.2,-350.53 960.06,-352.83 957.73,-355.09 955.22,-357.3 952.54,-359.46 949.7,-361.56 946.71,-363.59 943.58,-365.56 940.32,-367.44 936.93,-369.24 933.43,-370.96 929.82,-372.59 926.1,-374.12 922.29,-375.55 918.38,-376.87 914.38,-378.1 910.3,-379.21 906.13,-380.22 901.89,-381.11 897.57,-381.89 893.18,-382.55 888.72,-383.09 884.19,-383.52 879.6,-383.84 874.94,-384.03 870.23,-384.11 865.47,-384.07 860.65,-383.92 855.79,-383.65 850.9,-383.27 845.97,-382.78 841.01,-382.18 836.04,-381.48 831.06,-380.67 826.08,-379.75 821.11,-378.74 816.16,-377.64 811.26,-376.44 806.4,-375.15 801.61,-373.77 796.89,-372.31 792.27,-370.78 787.77,-369.17 783.39,-367.48 779.16,-365.73 775.09,-363.92 771.2,-362.05 767.52,-360.12 764.05,-358.15 760.82,-356.13 757.85,-354.07 755.15,-351.97 752.74,-349.85 750.63,-347.7 748.84,-345.52 747.39,-343.34 746.29,-341.14 745.55,-338.93 745.18,-336.73 745.18,-334.53 745.57,-332.34 746.35,-330.17 747.53,-328.02 749.1,-325.9 751.07,-323.8 753.43,-321.75 756.18,-319.74 759.31,-317.78 762.81,-315.87 766.67,-314.02 770.89,-312.24 775.44,-310.52 780.31,-308.89 785.49,-307.33 790.94,-305.85 796.65,-304.47 802.6,-303.17 808.77,-301.98 815.12,-300.89 821.64,-299.9 828.29,-299.03 835.04,-298.26 841.88,-297.61 848.77,-297.08"/>
<text text-anchor="middle" x="862.46" y="-336.82" font-family="sans-serif" font-size="16.00">devoluciones</text>
</g>
<!-- devoluciones&#45;&gt;ventas -->
<g id="edge7" class="edge">
<title>devoluciones&#45;&gt;ventas</title>
<path fill="none" stroke="black" stroke-width="2" d="M781.78,-308.38C766.46,-302.7 750.51,-296.96 735.46,-291.85 646.26,-261.54 541.51,-230.55 477.31,-212.08"/>
<text text-anchor="middle" x="749.96" y="-264.25" font-family="sans-serif" font-size="12.00"> &#160;&#160;&#160;&#160;&#160;&#160;&#160;&#160;&#160;&#160;&#160;&#160;&#160;&#160;&#160;&#160;&#160;&#160;&#160;&#160;&#160;&#160;&#160;&#160;&#160;&#160;&#160;&#160;&#160;&#160;&#160;&#160;&#160;&#160;&#160;&#160;&#160;&#160;&#160;</text>
<polygon fill="white" stroke="transparent" points="454.31,-202.08 454.31,-221.08 470.31,-221.08 470.31,-202.08 454.31,-202.08"/>
<polyline fill="none" stroke="black" points="470.31,-202.08 470.31,-221.08 "/>
<text text-anchor="start" x="457.31" y="-208.48" font-family="sans-serif" font-size="12.00">D</text>
<polygon fill="white" stroke="transparent" points="470.31,-202.08 470.31,-221.08 500.31,-221.08 500.31,-202.08 470.31,-202.08"/>
<polygon fill="none" stroke="black" points="470.31,-202.08 470.31,-221.08 500.31,-221.08 500.31,-202.08 470.31,-202.08"/>
<text text-anchor="start" x="473.31" y="-208.48" font-family="sans-serif" font-size="12.00">ACL</text>
<polygon fill="white" stroke="transparent" points="774.78,-299.38 774.78,-316.38 788.78,-316.38 788.78,-299.38 774.78,-299.38"/>
<text text-anchor="start" x="776.78" y="-304.78" font-family="sans-serif" font-size="12.00">U</text>
</g>
</g>
</svg>
