<svg width="2000px" height="1249px"
 viewBox="0.00 0.00 631.03 393.53" xmlns="http://www.w3.org/2000/svg" xmlns:xlink="http://www.w3.org/1999/xlink">
<g id="graph0" class="graph" transform="scale(1.0 1.0) rotate(0) translate(4 389.53)">
<title>ContextMapGraph</title>
<polygon fill="white" stroke="transparent" points="-4,4 -4,-389.53 627.03,-389.53 627.03,4 -4,4"/>
<!-- atencionCliente -->
<g id="node1" class="node">
<title>atencionCliente</title>
<polygon fill="none" stroke="black" stroke-width="2" points="55.75,-14.06 61.8,-12.21 68.04,-10.45 74.42,-8.82 80.92,-7.3 87.53,-5.9 94.22,-4.64 100.96,-3.52 107.72,-2.55 114.5,-1.72 121.25,-1.04 127.97,-0.51 134.63,-0.14 141.21,0.07 147.69,0.12 154.06,0.01 160.29,-0.26 166.38,-0.68 172.31,-1.26 178.05,-2 183.62,-2.88 188.98,-3.9 194.14,-5.07 199.08,-6.37 203.8,-7.8 208.29,-9.36 212.55,-11.03 216.57,-12.81 220.35,-14.69 223.88,-16.66 227.17,-18.72 230.21,-20.85 233,-23.05 235.55,-25.31 237.84,-27.62 239.89,-29.98 241.69,-32.36 243.25,-34.77 244.56,-37.19 245.63,-39.63 246.45,-42.06 247.03,-44.48 247.37,-46.88 247.47,-49.27 247.34,-51.62 246.96,-53.93 246.34,-56.21 245.48,-58.43 244.38,-60.6 243.05,-62.72 241.47,-64.77 239.65,-66.75 237.59,-68.66 235.3,-70.5 232.76,-72.27 229.98,-73.95 226.96,-75.55 223.7,-77.08 220.21,-78.52 216.48,-79.87 212.51,-81.14 208.32,-82.32 203.9,-83.41 199.25,-84.42 194.4,-85.34 189.33,-86.18 184.05,-86.92 178.59,-87.58 172.94,-88.16 167.12,-88.64 161.14,-89.04 155.01,-89.35 148.74,-89.57 142.36,-89.71 135.88,-89.76 129.31,-89.73 122.68,-89.6 116.01,-89.39 109.31,-89.09 102.61,-88.71 95.93,-88.23 89.29,-87.67 82.72,-87.01 76.24,-86.27 69.87,-85.43 63.64,-84.51 57.57,-83.5 51.69,-82.39 46.02,-81.2 40.59,-79.92 35.41,-78.55 30.5,-77.09 25.9,-75.55 21.62,-73.92 17.68,-72.2 14.09,-70.41 10.87,-68.54 8.04,-66.59 5.61,-64.57 3.59,-62.49 2,-60.34 0.83,-58.13 0.09,-55.86 -0.21,-53.55 -0.07,-51.2 0.51,-48.81 1.52,-46.4 2.97,-43.96 4.84,-41.51 7.13,-39.05 9.82,-36.59 12.91,-34.15 16.38,-31.72 20.22,-29.32 24.41,-26.96 28.92,-24.65 33.75,-22.39 38.87,-20.19 44.26,-18.06 49.89,-16.02 55.75,-14.06"/>
<text text-anchor="middle" x="132.71" y="-44.32" font-family="sans-serif" font-size="16.00">atencionCliente</text>
</g>
<!-- devoluciones -->
<g id="node2" class="node">
<title>devoluciones</title>
<polygon fill="none" stroke="black" stroke-width="2" points="347.82,-294.18 354.76,-294.57 361.61,-295.07 368.35,-295.69 374.95,-296.43 381.37,-297.27 387.6,-298.23 393.61,-299.29 399.38,-300.45 404.89,-301.72 410.11,-303.08 415.03,-304.53 419.63,-306.07 423.9,-307.7 427.83,-309.41 431.39,-311.19 434.59,-313.04 437.42,-314.95 439.88,-316.93 441.95,-318.96 443.64,-321.04 444.96,-323.16 445.89,-325.32 446.46,-327.52 446.66,-329.74 446.5,-331.98 446,-334.23 445.16,-336.49 443.99,-338.76 442.51,-341.02 440.73,-343.27 438.67,-345.51 436.34,-347.72 433.75,-349.91 430.93,-352.07 427.88,-354.18 424.63,-356.25 421.2,-358.27 417.58,-360.24 413.82,-362.14 409.91,-363.98 405.87,-365.75 401.72,-367.45 397.47,-369.06 393.13,-370.59 388.72,-372.03 384.24,-373.38 379.71,-374.63 375.13,-375.78 370.52,-376.83 365.88,-377.77 361.22,-378.6 356.54,-379.32 351.85,-379.93 347.16,-380.42 342.47,-380.8 337.79,-381.06 333.11,-381.2 328.44,-381.22 323.78,-381.12 319.15,-380.9 314.53,-380.56 309.93,-380.1 305.36,-379.53 300.82,-378.84 296.32,-378.03 291.85,-377.11 287.43,-376.09 283.06,-374.95 278.74,-373.71 274.48,-372.37 270.29,-370.93 266.19,-369.4 262.16,-367.78 258.24,-366.08 254.43,-364.29 250.73,-362.43 247.17,-360.5 243.75,-358.5 240.49,-356.45 237.4,-354.34 234.5,-352.18 231.8,-349.98 229.31,-347.75 227.05,-345.48 225.04,-343.2 223.29,-340.89 221.81,-338.58 220.62,-336.27 219.72,-333.95 219.14,-331.65 218.88,-329.37 218.96,-327.1 219.37,-324.87 220.14,-322.67 221.26,-320.51 222.75,-318.4 224.6,-316.35 226.81,-314.35 229.4,-312.42 232.34,-310.56 235.64,-308.78 239.3,-307.07 243.3,-305.45 247.64,-303.93 252.3,-302.49 257.27,-301.15 262.54,-299.92 268.08,-298.79 273.88,-297.77 279.92,-296.85 286.17,-296.06 292.61,-295.37 299.21,-294.8 305.96,-294.36 312.82,-294.03 319.76,-293.82 326.76,-293.73 333.79,-293.76 340.82,-293.91 347.82,-294.18"/>
<text text-anchor="middle" x="331.71" y="-333.7" font-family="sans-serif" font-size="16.00">devoluciones</text>
</g>
<!-- login -->
<g id="node3" class="node">
<title>login</title>
<polygon fill="none" stroke="black" stroke-width="2" points="163.65,-374.85 160.37,-376.38 157.01,-377.79 153.61,-379.08 150.17,-380.25 146.7,-381.29 143.22,-382.19 139.74,-382.95 136.27,-383.58 132.83,-384.05 129.42,-384.38 126.06,-384.56 122.76,-384.59 119.53,-384.47 116.38,-384.19 113.31,-383.76 110.33,-383.19 107.46,-382.47 104.69,-381.6 102.04,-380.59 99.51,-379.44 97.1,-378.16 94.81,-376.76 92.66,-375.23 90.64,-373.58 88.75,-371.83 87,-369.97 85.38,-368.02 83.9,-365.98 82.56,-363.87 81.35,-361.68 80.28,-359.43 79.34,-357.12 78.53,-354.77 77.85,-352.38 77.29,-349.97 76.87,-347.53 76.57,-345.08 76.39,-342.63 76.32,-340.19 76.38,-337.75 76.55,-335.34 76.84,-332.96 77.24,-330.61 77.75,-328.3 78.37,-326.05 79.1,-323.84 79.93,-321.7 80.87,-319.62 81.92,-317.61 83.07,-315.67 84.32,-313.81 85.68,-312.03 87.14,-310.34 88.7,-308.73 90.37,-307.21 92.13,-305.78 94,-304.45 95.97,-303.21 98.03,-302.07 100.19,-301.02 102.45,-300.07 104.8,-299.21 107.24,-298.45 109.77,-297.79 112.39,-297.22 115.09,-296.75 117.86,-296.38 120.71,-296.1 123.63,-295.91 126.61,-295.82 129.64,-295.82 132.72,-295.92 135.84,-296.1 139,-296.38 142.18,-296.74 145.37,-297.2 148.57,-297.74 151.76,-298.37 154.94,-299.09 158.09,-299.89 161.21,-300.78 164.27,-301.75 167.28,-302.81 170.21,-303.95 173.06,-305.17 175.82,-306.47 178.46,-307.85 180.99,-309.31 183.38,-310.84 185.64,-312.45 187.74,-314.13 189.69,-315.88 191.46,-317.7 193.05,-319.58 194.45,-321.52 195.66,-323.53 196.67,-325.58 197.47,-327.69 198.06,-329.84 198.43,-332.04 198.58,-334.27 198.51,-336.53 198.22,-338.82 197.71,-341.13 196.99,-343.44 196.04,-345.77 194.88,-348.1 193.51,-350.41 191.94,-352.72 190.17,-355 188.21,-357.25 186.07,-359.46 183.76,-361.63 181.28,-363.74 178.66,-365.79 175.89,-367.77 172.99,-369.68 169.98,-371.5 166.86,-373.22 163.65,-374.85"/>
<text text-anchor="middle" x="132.71" y="-333.7" font-family="sans-serif" font-size="16.00">login</text>
</g>
<!-- ventas -->
<g id="node4" class="node">
<title>ventas</title>
<polygon fill="none" stroke="black" stroke-width="2" points="82.59,-223.64 79.34,-221.61 76.25,-219.51 73.33,-217.35 70.59,-215.13 68.05,-212.86 65.72,-210.55 63.6,-208.21 61.71,-205.85 60.05,-203.48 58.63,-201.09 57.46,-198.71 56.54,-196.34 55.88,-193.97 55.47,-191.64 55.32,-189.33 55.43,-187.05 55.8,-184.81 56.42,-182.62 57.29,-180.48 58.41,-178.39 59.77,-176.36 61.36,-174.39 63.18,-172.49 65.21,-170.66 67.45,-168.9 69.88,-167.22 72.5,-165.61 75.29,-164.08 78.24,-162.63 81.34,-161.26 84.57,-159.98 87.92,-158.78 91.37,-157.66 94.92,-156.63 98.55,-155.68 102.24,-154.82 105.98,-154.05 109.76,-153.37 113.56,-152.77 117.37,-152.26 121.19,-151.84 124.98,-151.51 128.76,-151.26 132.49,-151.11 136.18,-151.04 139.82,-151.07 143.39,-151.18 146.89,-151.39 150.3,-151.69 153.63,-152.08 156.87,-152.57 160.01,-153.14 163.04,-153.81 165.96,-154.58 168.78,-155.43 171.47,-156.39 174.05,-157.43 176.51,-158.57 178.84,-159.8 181.05,-161.12 183.14,-162.53 185.1,-164.04 186.93,-165.63 188.63,-167.31 190.21,-169.06 191.66,-170.91 192.98,-172.82 194.17,-174.82 195.23,-176.88 196.17,-179.01 196.97,-181.2 197.64,-183.44 198.18,-185.73 198.59,-188.07 198.86,-190.45 199,-192.86 199,-195.29 198.86,-197.74 198.58,-200.19 198.17,-202.65 197.61,-205.1 196.9,-207.53 196.05,-209.94 195.05,-212.31 193.9,-214.65 192.59,-216.93 191.14,-219.15 189.53,-221.3 187.78,-223.38 185.86,-225.37 183.8,-227.27 181.58,-229.07 179.21,-230.76 176.69,-232.33 174.03,-233.79 171.22,-235.11 168.28,-236.31 165.2,-237.36 161.99,-238.27 158.66,-239.04 155.22,-239.65 151.67,-240.12 148.02,-240.42 144.29,-240.58 140.47,-240.58 136.59,-240.42 132.65,-240.11 128.67,-239.65 124.65,-239.04 120.63,-238.28 116.59,-237.37 112.57,-236.33 108.57,-235.15 104.62,-233.84 100.72,-232.41 96.89,-230.86 93.15,-229.21 89.51,-227.44 85.98,-225.58 82.59,-223.64"/>
<text text-anchor="middle" x="132.71" y="-189.05" font-family="sans-serif" font-size="16.00">ventas</text>
</g>
<!-- login&#45;&gt;ventas -->
<g id="edge1" class="edge">
<title>login&#45;&gt;ventas</title>
<path fill="none" stroke="black" stroke-width="2" d="M132.71,-295.62C132.71,-278.33 132.71,-258.1 132.71,-240.26"/>
<text text-anchor="middle" x="208.21" y="-261.86" font-family="sans-serif" font-size="12.00"> &#160;&#160;&#160;&#160;&#160;&#160;&#160;&#160;&#160;&#160;&#160;&#160;&#160;&#160;&#160;&#160;&#160;&#160;&#160;&#160;&#160;&#160;&#160;&#160;&#160;&#160;&#160;&#160;&#160;&#160;&#160;&#160;&#160;&#160;&#160;&#160;&#160;&#160;&#160;</text>
<polygon fill="white" stroke="transparent" points="125.71,-231.26 125.71,-248.26 139.71,-248.26 139.71,-231.26 125.71,-231.26"/>
<text text-anchor="start" x="127.71" y="-236.66" font-family="sans-serif" font-size="12.00">D</text>
<polygon fill="white" stroke="transparent" points="125.71,-286.62 125.71,-303.62 139.71,-303.62 139.71,-286.62 125.71,-286.62"/>
<text text-anchor="start" x="127.71" y="-292.02" font-family="sans-serif" font-size="12.00">U</text>
</g>
<!-- ventas&#45;&gt;atencionCliente -->
<g id="edge2" class="edge">
<title>ventas&#45;&gt;atencionCliente</title>
<path fill="none" stroke="black" stroke-width="2" d="M132.71,-150.95C132.71,-131.84 132.71,-109.14 132.71,-90.02"/>
<text text-anchor="middle" x="208.21" y="-117.63" font-family="sans-serif" font-size="12.00"> &#160;&#160;&#160;&#160;&#160;&#160;&#160;&#160;&#160;&#160;&#160;&#160;&#160;&#160;&#160;&#160;&#160;&#160;&#160;&#160;&#160;&#160;&#160;&#160;&#160;&#160;&#160;&#160;&#160;&#160;&#160;&#160;&#160;&#160;&#160;&#160;&#160;&#160;&#160;</text>
<polygon fill="white" stroke="transparent" points="109.71,-80.02 109.71,-99.02 125.71,-99.02 125.71,-80.02 109.71,-80.02"/>
<polyline fill="none" stroke="black" points="125.71,-80.02 125.71,-99.02 "/>
<text text-anchor="start" x="112.71" y="-86.42" font-family="sans-serif" font-size="12.00">D</text>
<polygon fill="white" stroke="transparent" points="125.71,-80.02 125.71,-99.02 155.71,-99.02 155.71,-80.02 125.71,-80.02"/>
<polygon fill="none" stroke="black" points="125.71,-80.02 125.71,-99.02 155.71,-99.02 155.71,-80.02 125.71,-80.02"/>
<text text-anchor="start" x="128.71" y="-86.42" font-family="sans-serif" font-size="12.00">ACL</text>
<polygon fill="white" stroke="transparent" points="125.71,-141.95 125.71,-158.95 139.71,-158.95 139.71,-141.95 125.71,-141.95"/>
<text text-anchor="start" x="127.71" y="-147.35" font-family="sans-serif" font-size="12.00">U</text>
</g>
<!-- logistica -->
<g id="node5" class="node">
<title>logistica</title>
<polygon fill="none" stroke="black" stroke-width="2" points="465.58,-341.6 465.02,-338.75 464.69,-335.9 464.58,-333.07 464.68,-330.26 465.02,-327.5 465.57,-324.79 466.35,-322.14 467.36,-319.56 468.58,-317.07 470.02,-314.66 471.67,-312.35 473.54,-310.14 475.61,-308.05 477.87,-306.07 480.34,-304.22 482.99,-302.5 485.81,-300.91 488.81,-299.45 491.97,-298.13 495.29,-296.96 498.74,-295.92 502.33,-295.02 506.04,-294.26 509.86,-293.64 513.78,-293.16 517.79,-292.82 521.87,-292.6 526.01,-292.52 530.21,-292.56 534.43,-292.72 538.69,-293 542.95,-293.39 547.21,-293.88 551.45,-294.48 555.67,-295.18 559.84,-295.97 563.96,-296.85 568.02,-297.81 571.99,-298.85 575.88,-299.96 579.67,-301.13 583.35,-302.37 586.9,-303.67 590.33,-305.03 593.61,-306.44 596.75,-307.89 599.72,-309.39 602.53,-310.93 605.17,-312.51 607.63,-314.13 609.9,-315.78 611.98,-317.47 613.87,-319.18 615.56,-320.93 617.04,-322.71 618.32,-324.51 619.39,-326.34 620.25,-328.19 620.9,-330.07 621.34,-331.96 621.57,-333.88 621.59,-335.82 621.4,-337.78 621.01,-339.75 620.41,-341.74 619.6,-343.74 618.6,-345.75 617.4,-347.77 616.01,-349.79 614.44,-351.81 612.68,-353.82 610.75,-355.83 608.65,-357.82 606.38,-359.8 603.95,-361.75 601.37,-363.67 598.64,-365.56 595.78,-367.4 592.78,-369.2 589.67,-370.94 586.43,-372.62 583.09,-374.23 579.65,-375.76 576.11,-377.2 572.5,-378.56 568.81,-379.82 565.05,-380.97 561.24,-382 557.38,-382.92 553.48,-383.71 549.55,-384.37 545.61,-384.89 541.65,-385.27 537.7,-385.49 533.75,-385.57 529.82,-385.49 525.92,-385.25 522.06,-384.86 518.25,-384.3 514.5,-383.58 510.81,-382.7 507.2,-381.65 503.68,-380.45 500.26,-379.1 496.94,-377.59 493.74,-375.94 490.66,-374.14 487.71,-372.21 484.91,-370.15 482.26,-367.97 479.76,-365.68 477.43,-363.28 475.28,-360.79 473.3,-358.22 471.51,-355.57 469.92,-352.86 468.52,-350.09 467.33,-347.29 466.35,-344.45 465.58,-341.6"/>
<text text-anchor="middle" x="543.71" y="-333.7" font-family="sans-serif" font-size="16.00">logistica</text>
</g>
</g>
</svg>
