<svg width="2000px" height="1091px"
 viewBox="0.00 0.00 983.58 537.04" xmlns="http://www.w3.org/2000/svg" xmlns:xlink="http://www.w3.org/1999/xlink">
<g id="graph0" class="graph" transform="scale(1.0 1.0) rotate(0) translate(4 533.04)">
<title>ContextMapGraph</title>
<polygon fill="white" stroke="transparent" points="-4,4 -4,-533.04 979.58,-533.04 979.58,4 -4,4"/>
<!-- atencionCliente -->
<g id="node1" class="node">
<title>atencionCliente</title>
<polygon fill="none" stroke="black" stroke-width="2" points="724.45,-84.46 717.82,-86.03 711.06,-87.49 704.18,-88.83 697.22,-90.04 690.2,-91.13 683.15,-92.08 676.1,-92.89 669.06,-93.56 662.07,-94.08 655.14,-94.45 648.3,-94.68 641.58,-94.75 634.99,-94.66 628.54,-94.43 622.27,-94.04 616.18,-93.5 610.29,-92.81 604.61,-91.98 599.15,-91 593.93,-89.89 588.96,-88.64 584.24,-87.26 579.78,-85.75 575.58,-84.13 571.64,-82.39 567.98,-80.56 564.6,-78.62 561.48,-76.6 558.64,-74.49 556.07,-72.31 553.77,-70.07 551.74,-67.77 549.98,-65.43 548.48,-63.04 547.24,-60.63 546.25,-58.19 545.52,-55.74 545.03,-53.29 544.79,-50.84 544.79,-48.4 545.02,-45.98 545.49,-43.58 546.19,-41.22 547.12,-38.91 548.27,-36.63 549.65,-34.41 551.24,-32.25 553.06,-30.16 555.09,-28.13 557.34,-26.17 559.81,-24.29 562.49,-22.49 565.38,-20.77 568.49,-19.14 571.81,-17.6 575.34,-16.15 579.08,-14.79 583.03,-13.52 587.18,-12.34 591.54,-11.26 596.09,-10.28 600.84,-9.39 605.79,-8.6 610.91,-7.9 616.22,-7.3 621.69,-6.8 627.33,-6.39 633.12,-6.07 639.06,-5.85 645.12,-5.72 651.3,-5.68 657.59,-5.73 663.96,-5.88 670.4,-6.11 676.9,-6.44 683.43,-6.85 689.98,-7.36 696.52,-7.95 703.03,-8.62 709.49,-9.39 715.89,-10.24 722.18,-11.17 728.36,-12.2 734.39,-13.3 740.26,-14.49 745.93,-15.75 751.39,-17.1 756.61,-18.53 761.57,-20.04 766.25,-21.62 770.62,-23.28 774.66,-25.01 778.36,-26.81 781.69,-28.68 784.65,-30.61 787.21,-32.6 789.36,-34.65 791.09,-36.75 792.4,-38.9 793.26,-41.1 793.68,-43.33 793.65,-45.6 793.17,-47.89 792.24,-50.21 790.87,-52.55 789.05,-54.89 786.8,-57.24 784.12,-59.58 781.03,-61.91 777.54,-64.22 773.65,-66.5 769.4,-68.74 764.79,-70.94 759.85,-73.09 754.59,-75.18 749.05,-77.2 743.24,-79.15 737.18,-81.01 730.91,-82.79 724.45,-84.46"/>
<text text-anchor="middle" x="659.58" y="-43.62" font-family="sans-serif" font-size="16.00">atencionCliente</text>
</g>
<!-- compras -->
<g id="node2" class="node">
<title>compras</title>
<polygon fill="none" stroke="black" stroke-width="2" points="415.91,-498.77 413.78,-501.41 411.47,-503.97 408.97,-506.46 406.3,-508.86 403.47,-511.17 400.49,-513.37 397.36,-515.45 394.1,-517.4 390.72,-519.23 387.23,-520.91 383.64,-522.45 379.96,-523.84 376.19,-525.08 372.36,-526.16 368.47,-527.07 364.53,-527.83 360.55,-528.41 356.55,-528.83 352.52,-529.09 348.49,-529.18 344.46,-529.11 340.44,-528.88 336.44,-528.5 332.47,-527.96 328.54,-527.28 324.66,-526.46 320.83,-525.5 317.06,-524.41 313.36,-523.2 309.75,-521.87 306.22,-520.44 302.78,-518.9 299.44,-517.27 296.22,-515.56 293.1,-513.77 290.11,-511.91 287.25,-510 284.52,-508.02 281.92,-506.01 279.48,-503.95 277.19,-501.87 275.05,-499.76 273.08,-497.63 271.27,-495.49 269.64,-493.35 268.18,-491.21 266.91,-489.07 265.82,-486.95 264.92,-484.83 264.22,-482.74 263.71,-480.67 263.41,-478.62 263.3,-476.6 263.4,-474.61 263.71,-472.65 264.22,-470.73 264.95,-468.84 265.88,-466.99 267.02,-465.18 268.37,-463.41 269.93,-461.68 271.69,-459.99 273.66,-458.34 275.82,-456.74 278.18,-455.19 280.73,-453.68 283.47,-452.21 286.38,-450.8 289.47,-449.44 292.73,-448.13 296.14,-446.87 299.7,-445.67 303.4,-444.53 307.24,-443.46 311.19,-442.44 315.25,-441.5 319.41,-440.63 323.65,-439.83 327.97,-439.11 332.34,-438.48 336.76,-437.93 341.21,-437.47 345.68,-437.11 350.16,-436.84 354.62,-436.68 359.06,-436.63 363.46,-436.68 367.8,-436.85 372.08,-437.14 376.28,-437.55 380.38,-438.08 384.37,-438.74 388.24,-439.52 391.97,-440.43 395.55,-441.48 398.98,-442.65 402.23,-443.95 405.31,-445.38 408.19,-446.93 410.87,-448.61 413.34,-450.41 415.6,-452.33 417.63,-454.36 419.44,-456.49 421.01,-458.73 422.35,-461.07 423.44,-463.49 424.29,-465.99 424.9,-468.57 425.26,-471.2 425.38,-473.89 425.25,-476.63 424.88,-479.4 424.28,-482.19 423.44,-484.99 422.37,-487.79 421.08,-490.58 419.57,-493.35 417.84,-496.08 415.91,-498.77"/>
<text text-anchor="middle" x="342.58" y="-476.6" font-family="sans-serif" font-size="16.00">compras</text>
</g>
<!-- pedidos -->
<g id="node3" class="node">
<title>pedidos</title>
<polygon fill="none" stroke="black" stroke-width="2" points="138.4,-303.21 142.01,-305.2 145.46,-307.26 148.71,-309.39 151.77,-311.57 154.61,-313.81 157.23,-316.08 159.62,-318.39 161.76,-320.73 163.64,-323.08 165.26,-325.45 166.61,-327.81 167.69,-330.17 168.48,-332.52 169,-334.85 169.23,-337.15 169.18,-339.43 168.85,-341.66 168.23,-343.86 167.35,-346 166.19,-348.1 164.77,-350.14 163.09,-352.12 161.16,-354.03 159,-355.88 156.61,-357.66 154,-359.37 151.19,-361 148.18,-362.56 145.01,-364.04 141.66,-365.44 138.17,-366.76 134.55,-367.99 130.81,-369.14 126.96,-370.21 123.03,-371.2 119.02,-372.09 114.96,-372.91 110.85,-373.63 106.71,-374.27 102.56,-374.82 98.41,-375.28 94.27,-375.66 90.16,-375.94 86.08,-376.13 82.05,-376.24 78.08,-376.25 74.17,-376.18 70.35,-376.01 66.6,-375.75 62.95,-375.39 59.4,-374.95 55.96,-374.4 52.62,-373.77 49.41,-373.04 46.31,-372.21 43.33,-371.29 40.49,-370.28 37.77,-369.17 35.18,-367.97 32.72,-366.67 30.4,-365.28 28.22,-363.81 26.17,-362.24 24.25,-360.58 22.48,-358.85 20.84,-357.03 19.34,-355.13 17.97,-353.15 16.75,-351.1 15.67,-348.99 14.72,-346.82 13.92,-344.58 13.26,-342.3 12.75,-339.97 12.38,-337.6 12.15,-335.2 12.08,-332.77 12.15,-330.33 12.38,-327.88 12.76,-325.42 13.3,-322.97 14,-320.53 14.86,-318.12 15.88,-315.74 17.07,-313.4 18.42,-311.11 19.94,-308.88 21.63,-306.71 23.49,-304.62 25.52,-302.61 27.72,-300.69 30.09,-298.87 32.62,-297.16 35.33,-295.56 38.19,-294.08 41.22,-292.73 44.4,-291.51 47.73,-290.42 51.2,-289.48 54.82,-288.68 58.56,-288.02 62.43,-287.52 66.4,-287.17 70.48,-286.98 74.65,-286.94 78.9,-287.05 83.21,-287.32 87.57,-287.74 91.98,-288.3 96.4,-289.02 100.83,-289.88 105.26,-290.87 109.66,-292.01 114.02,-293.27 118.33,-294.65 122.56,-296.16 126.69,-297.77 130.73,-299.49 134.63,-301.3 138.4,-303.21"/>
<text text-anchor="middle" x="84.58" y="-330.68" font-family="sans-serif" font-size="16.00">pedidos</text>
</g>
<!-- compras&#45;&gt;pedidos -->
<g id="edge1" class="edge">
<title>compras&#45;&gt;pedidos</title>
<path fill="none" stroke="black" stroke-width="2" d="M265.58,-467.32C203.91,-456.08 124.12,-437.51 101.58,-413.76 92.1,-403.77 87.41,-389.81 85.22,-376.43"/>
<text text-anchor="middle" x="177.08" y="-404.16" font-family="sans-serif" font-size="12.00"> &#160;&#160;&#160;&#160;&#160;&#160;&#160;&#160;&#160;&#160;&#160;&#160;&#160;&#160;&#160;&#160;&#160;&#160;&#160;&#160;&#160;&#160;&#160;&#160;&#160;&#160;&#160;&#160;&#160;&#160;&#160;&#160;&#160;&#160;&#160;&#160;&#160;&#160;&#160;</text>
<polygon fill="white" stroke="transparent" points="62.22,-366.43 62.22,-385.43 78.22,-385.43 78.22,-366.43 62.22,-366.43"/>
<polyline fill="none" stroke="black" points="78.22,-366.43 78.22,-385.43 "/>
<text text-anchor="start" x="65.22" y="-372.83" font-family="sans-serif" font-size="12.00">D</text>
<polygon fill="white" stroke="transparent" points="78.22,-366.43 78.22,-385.43 108.22,-385.43 108.22,-366.43 78.22,-366.43"/>
<polygon fill="none" stroke="black" points="78.22,-366.43 78.22,-385.43 108.22,-385.43 108.22,-366.43 78.22,-366.43"/>
<text text-anchor="start" x="81.22" y="-372.83" font-family="sans-serif" font-size="12.00">ACL</text>
<polygon fill="white" stroke="transparent" points="258.58,-458.32 258.58,-475.32 272.58,-475.32 272.58,-458.32 258.58,-458.32"/>
<text text-anchor="start" x="260.58" y="-463.72" font-family="sans-serif" font-size="12.00">U</text>
</g>
<!-- pagos -->
<g id="node4" class="node">
<title>pagos</title>
<polygon fill="none" stroke="black" stroke-width="2" points="294.8,-371.53 291.2,-373.1 287.53,-374.56 283.8,-375.89 280.02,-377.11 276.21,-378.19 272.38,-379.14 268.55,-379.96 264.73,-380.62 260.93,-381.15 257.17,-381.52 253.46,-381.74 249.81,-381.81 246.23,-381.73 242.73,-381.5 239.32,-381.11 236.01,-380.57 232.81,-379.88 229.73,-379.05 226.77,-378.07 223.94,-376.95 221.24,-375.7 218.67,-374.32 216.25,-372.82 213.97,-371.2 211.83,-369.46 209.85,-367.62 208.01,-365.69 206.32,-363.66 204.77,-361.56 203.38,-359.38 202.13,-357.14 201.03,-354.84 200.07,-352.49 199.26,-350.11 198.58,-347.69 198.05,-345.26 197.65,-342.81 197.38,-340.35 197.25,-337.9 197.25,-335.46 197.38,-333.04 197.63,-330.65 198.01,-328.29 198.52,-325.97 199.14,-323.7 199.89,-321.48 200.76,-319.32 201.74,-317.22 202.85,-315.19 204.07,-313.24 205.41,-311.36 206.86,-309.56 208.44,-307.84 210.12,-306.21 211.93,-304.67 213.84,-303.21 215.87,-301.85 218.02,-300.58 220.27,-299.41 222.64,-298.33 225.11,-297.35 227.69,-296.46 230.37,-295.67 233.15,-294.97 236.03,-294.37 239.01,-293.87 242.07,-293.45 245.21,-293.14 248.44,-292.91 251.73,-292.78 255.09,-292.75 258.5,-292.8 261.96,-292.95 265.46,-293.18 268.98,-293.51 272.53,-293.92 276.08,-294.42 279.63,-295.01 283.17,-295.69 286.68,-296.46 290.15,-297.31 293.57,-298.24 296.92,-299.26 300.2,-300.37 303.38,-301.55 306.46,-302.82 309.43,-304.17 312.26,-305.6 314.95,-307.11 317.49,-308.69 319.87,-310.35 322.06,-312.08 324.07,-313.88 325.88,-315.74 327.48,-317.67 328.88,-319.67 330.04,-321.71 330.98,-323.82 331.69,-325.97 332.16,-328.16 332.39,-330.4 332.37,-332.67 332.11,-334.96 331.61,-337.28 330.86,-339.62 329.88,-341.96 328.65,-344.31 327.2,-346.65 325.52,-348.97 323.62,-351.28 321.51,-353.56 319.2,-355.81 316.7,-358.01 314.02,-360.16 311.17,-362.25 308.15,-364.27 305,-366.22 301.71,-368.08 298.31,-369.85 294.8,-371.53"/>
<text text-anchor="middle" x="259.58" y="-330.68" font-family="sans-serif" font-size="16.00">pagos</text>
</g>
<!-- compras&#45;&gt;pagos -->
<g id="edge2" class="edge">
<title>compras&#45;&gt;pagos</title>
<path fill="none" stroke="black" stroke-width="2" d="M290.37,-448.96C278.44,-439.32 267.3,-427.52 260.58,-413.76 255.81,-403.99 253.92,-392.68 253.58,-381.75"/>
<text text-anchor="middle" x="336.08" y="-404.16" font-family="sans-serif" font-size="12.00"> &#160;&#160;&#160;&#160;&#160;&#160;&#160;&#160;&#160;&#160;&#160;&#160;&#160;&#160;&#160;&#160;&#160;&#160;&#160;&#160;&#160;&#160;&#160;&#160;&#160;&#160;&#160;&#160;&#160;&#160;&#160;&#160;&#160;&#160;&#160;&#160;&#160;&#160;&#160;</text>
<polygon fill="white" stroke="transparent" points="230.58,-371.75 230.58,-390.75 246.58,-390.75 246.58,-371.75 230.58,-371.75"/>
<polyline fill="none" stroke="black" points="246.58,-371.75 246.58,-390.75 "/>
<text text-anchor="start" x="233.58" y="-378.15" font-family="sans-serif" font-size="12.00">D</text>
<polygon fill="white" stroke="transparent" points="246.58,-371.75 246.58,-390.75 276.58,-390.75 276.58,-371.75 246.58,-371.75"/>
<polygon fill="none" stroke="black" points="246.58,-371.75 246.58,-390.75 276.58,-390.75 276.58,-371.75 246.58,-371.75"/>
<text text-anchor="start" x="249.58" y="-378.15" font-family="sans-serif" font-size="12.00">ACL</text>
<polygon fill="white" stroke="transparent" points="283.37,-439.96 283.37,-456.96 297.37,-456.96 297.37,-439.96 283.37,-439.96"/>
<text text-anchor="start" x="285.37" y="-445.36" font-family="sans-serif" font-size="12.00">U</text>
</g>
<!-- ventas -->
<g id="node5" class="node">
<title>ventas</title>
<polygon fill="none" stroke="black" stroke-width="2" points="589.71,-186.18 590.1,-183.31 590.67,-180.47 591.43,-177.67 592.38,-174.92 593.52,-172.23 594.83,-169.62 596.32,-167.1 597.99,-164.66 599.82,-162.34 601.82,-160.12 603.98,-158.02 606.29,-156.05 608.74,-154.21 611.34,-152.51 614.06,-150.95 616.92,-149.53 619.88,-148.27 622.96,-147.16 626.14,-146.2 629.41,-145.39 632.76,-144.74 636.18,-144.24 639.67,-143.9 643.22,-143.7 646.81,-143.64 650.43,-143.73 654.08,-143.96 657.74,-144.32 661.41,-144.81 665.08,-145.42 668.72,-146.15 672.35,-146.99 675.94,-147.94 679.48,-148.98 682.97,-150.12 686.4,-151.35 689.75,-152.66 693.02,-154.04 696.19,-155.48 699.27,-156.99 702.24,-158.56 705.09,-160.18 707.82,-161.84 710.41,-163.54 712.87,-165.28 715.17,-167.05 717.33,-168.84 719.33,-170.66 721.16,-172.5 722.83,-174.36 724.32,-176.23 725.64,-178.11 726.77,-180.01 727.72,-181.91 728.48,-183.82 729.06,-185.73 729.44,-187.64 729.63,-189.56 729.63,-191.48 729.44,-193.39 729.06,-195.31 728.48,-197.22 727.72,-199.13 726.77,-201.03 725.64,-202.92 724.32,-204.81 722.83,-206.68 721.16,-208.54 719.33,-210.38 717.33,-212.2 715.17,-213.99 712.87,-215.76 710.41,-217.5 707.82,-219.2 705.09,-220.86 702.24,-222.48 699.27,-224.04 696.19,-225.55 693.02,-227 689.75,-228.38 686.4,-229.69 682.97,-230.91 679.48,-232.05 675.94,-233.1 672.35,-234.05 668.72,-234.89 665.08,-235.62 661.41,-236.23 657.74,-236.72 654.08,-237.08 650.43,-237.31 646.81,-237.39 643.22,-237.34 639.67,-237.14 636.18,-236.79 632.76,-236.29 629.41,-235.64 626.14,-234.84 622.96,-233.88 619.88,-232.77 616.92,-231.5 614.06,-230.09 611.34,-228.53 608.74,-226.83 606.29,-224.99 603.98,-223.02 601.82,-220.92 599.82,-218.7 597.99,-216.37 596.32,-213.94 594.83,-211.41 593.52,-208.8 592.38,-206.12 591.43,-203.37 590.67,-200.57 590.1,-197.73 589.71,-194.86 589.52,-191.97 589.52,-189.07 589.71,-186.18"/>
<text text-anchor="middle" x="659.58" y="-186.72" font-family="sans-serif" font-size="16.00">ventas</text>
</g>
<!-- compras&#45;&gt;ventas -->
<g id="edge3" class="edge">
<title>compras&#45;&gt;ventas</title>
<path fill="none" stroke="black" stroke-width="2" d="M391.98,-440.1C399.52,-432.11 406.48,-423.22 411.58,-413.76 438.91,-363.05 398.56,-331.16 434.58,-286.21 473,-238.25 540.08,-214.24 591.03,-202.44"/>
<text text-anchor="middle" x="510.08" y="-331.38" font-family="sans-serif" font-size="12.00"> &#160;&#160;&#160;&#160;&#160;&#160;&#160;&#160;&#160;&#160;&#160;&#160;&#160;&#160;&#160;&#160;&#160;&#160;&#160;&#160;&#160;&#160;&#160;&#160;&#160;&#160;&#160;&#160;&#160;&#160;&#160;&#160;&#160;&#160;&#160;&#160;&#160;&#160;&#160;</text>
<polygon fill="white" stroke="transparent" points="568.03,-192.44 568.03,-211.44 584.03,-211.44 584.03,-192.44 568.03,-192.44"/>
<polyline fill="none" stroke="black" points="584.03,-192.44 584.03,-211.44 "/>
<text text-anchor="start" x="571.03" y="-198.84" font-family="sans-serif" font-size="12.00">D</text>
<polygon fill="white" stroke="transparent" points="584.03,-192.44 584.03,-211.44 614.03,-211.44 614.03,-192.44 584.03,-192.44"/>
<polygon fill="none" stroke="black" points="584.03,-192.44 584.03,-211.44 614.03,-211.44 614.03,-192.44 584.03,-192.44"/>
<text text-anchor="start" x="587.03" y="-198.84" font-family="sans-serif" font-size="12.00">ACL</text>
<polygon fill="white" stroke="transparent" points="384.98,-431.1 384.98,-448.1 398.98,-448.1 398.98,-431.1 384.98,-431.1"/>
<text text-anchor="start" x="386.98" y="-436.5" font-family="sans-serif" font-size="12.00">U</text>
</g>
<!-- login -->
<g id="node6" class="node">
<title>login</title>
<polygon fill="none" stroke="black" stroke-width="2" points="620.29,-301.66 623.16,-299.74 626.13,-297.92 629.18,-296.21 632.3,-294.63 635.47,-293.16 638.68,-291.83 641.93,-290.63 645.19,-289.57 648.47,-288.66 651.75,-287.91 655.01,-287.3 658.26,-286.85 661.47,-286.56 664.64,-286.43 667.76,-286.46 670.83,-286.64 673.83,-286.99 676.76,-287.49 679.61,-288.14 682.37,-288.95 685.05,-289.9 687.63,-290.99 690.11,-292.22 692.49,-293.58 694.76,-295.07 696.93,-296.67 698.98,-298.39 700.92,-300.21 702.74,-302.12 704.45,-304.12 706.04,-306.2 707.51,-308.35 708.86,-310.56 710.09,-312.82 711.21,-315.13 712.2,-317.48 713.08,-319.85 713.83,-322.24 714.47,-324.64 714.99,-327.04 715.39,-329.43 715.67,-331.82 715.83,-334.18 715.87,-336.52 715.8,-338.82 715.6,-341.08 715.28,-343.3 714.85,-345.47 714.29,-347.58 713.62,-349.64 712.82,-351.63 711.91,-353.55 710.87,-355.41 709.71,-357.19 708.43,-358.9 707.02,-360.53 705.5,-362.08 703.86,-363.55 702.09,-364.94 700.21,-366.25 698.21,-367.47 696.1,-368.62 693.87,-369.68 691.54,-370.65 689.09,-371.54 686.55,-372.35 683.9,-373.07 681.16,-373.71 678.34,-374.27 675.43,-374.74 672.44,-375.12 669.38,-375.42 666.26,-375.64 663.09,-375.77 659.87,-375.82 656.62,-375.78 653.34,-375.65 650.05,-375.44 646.75,-375.14 643.46,-374.75 640.18,-374.28 636.93,-373.71 633.72,-373.05 630.56,-372.31 627.47,-371.47 624.45,-370.54 621.52,-369.52 618.69,-368.41 615.96,-367.2 613.36,-365.91 610.89,-364.52 608.57,-363.05 606.39,-361.48 604.38,-359.83 602.54,-358.1 600.88,-356.28 599.4,-354.38 598.12,-352.41 597.03,-350.37 596.15,-348.25 595.47,-346.08 595,-343.84 594.75,-341.55 594.7,-339.21 594.87,-336.84 595.26,-334.43 595.85,-331.99 596.65,-329.53 597.66,-327.06 598.86,-324.59 600.26,-322.13 601.84,-319.68 603.61,-317.25 605.55,-314.85 607.65,-312.5 609.91,-310.19 612.31,-307.95 614.85,-305.77 617.51,-303.67 620.29,-301.66"/>
<text text-anchor="middle" x="659.58" y="-330.68" font-family="sans-serif" font-size="16.00">login</text>
</g>
<!-- compras&#45;&gt;login -->
<g id="edge4" class="edge">
<title>compras&#45;&gt;login</title>
<path fill="none" stroke="black" stroke-width="2" d="M416.25,-452.84C463.93,-434.84 526.9,-409.52 580.58,-382.76 591.02,-377.55 601.93,-371.47 612.19,-365.44"/>
<text text-anchor="middle" x="619.08" y="-404.16" font-family="sans-serif" font-size="12.00"> &#160;&#160;&#160;&#160;&#160;&#160;&#160;&#160;&#160;&#160;&#160;&#160;&#160;&#160;&#160;&#160;&#160;&#160;&#160;&#160;&#160;&#160;&#160;&#160;&#160;&#160;&#160;&#160;&#160;&#160;&#160;&#160;&#160;&#160;&#160;&#160;&#160;&#160;&#160;</text>
<polygon fill="white" stroke="transparent" points="605.19,-356.44 605.19,-373.44 619.19,-373.44 619.19,-356.44 605.19,-356.44"/>
<text text-anchor="start" x="607.19" y="-361.84" font-family="sans-serif" font-size="12.00">D</text>
<polygon fill="white" stroke="transparent" points="409.25,-443.84 409.25,-460.84 423.25,-460.84 423.25,-443.84 409.25,-443.84"/>
<text text-anchor="start" x="411.25" y="-449.24" font-family="sans-serif" font-size="12.00">U</text>
</g>
<!-- ventas&#45;&gt;atencionCliente -->
<g id="edge5" class="edge">
<title>ventas&#45;&gt;atencionCliente</title>
<path fill="none" stroke="black" stroke-width="2" d="M659.58,-144.48C659.58,-128.52 659.58,-110.53 659.58,-94.48"/>
<text text-anchor="middle" x="735.08" y="-116.23" font-family="sans-serif" font-size="12.00"> &#160;&#160;&#160;&#160;&#160;&#160;&#160;&#160;&#160;&#160;&#160;&#160;&#160;&#160;&#160;&#160;&#160;&#160;&#160;&#160;&#160;&#160;&#160;&#160;&#160;&#160;&#160;&#160;&#160;&#160;&#160;&#160;&#160;&#160;&#160;&#160;&#160;&#160;&#160;</text>
<polygon fill="white" stroke="transparent" points="636.58,-84.48 636.58,-103.48 652.58,-103.48 652.58,-84.48 636.58,-84.48"/>
<polyline fill="none" stroke="black" points="652.58,-84.48 652.58,-103.48 "/>
<text text-anchor="start" x="639.58" y="-90.88" font-family="sans-serif" font-size="12.00">D</text>
<polygon fill="white" stroke="transparent" points="652.58,-84.48 652.58,-103.48 682.58,-103.48 682.58,-84.48 652.58,-84.48"/>
<polygon fill="none" stroke="black" points="652.58,-84.48 652.58,-103.48 682.58,-103.48 682.58,-84.48 652.58,-84.48"/>
<text text-anchor="start" x="655.58" y="-90.88" font-family="sans-serif" font-size="12.00">ACL</text>
<polygon fill="white" stroke="transparent" points="652.58,-135.48 652.58,-152.48 666.58,-152.48 666.58,-135.48 652.58,-135.48"/>
<text text-anchor="start" x="654.58" y="-140.88" font-family="sans-serif" font-size="12.00">U</text>
</g>
<!-- login&#45;&gt;ventas -->
<g id="edge6" class="edge">
<title>login&#45;&gt;ventas</title>
<path fill="none" stroke="black" stroke-width="2" d="M659.58,-286.6C659.58,-270.61 659.58,-252.77 659.58,-236.9"/>
<text text-anchor="middle" x="735.08" y="-258.61" font-family="sans-serif" font-size="12.00"> &#160;&#160;&#160;&#160;&#160;&#160;&#160;&#160;&#160;&#160;&#160;&#160;&#160;&#160;&#160;&#160;&#160;&#160;&#160;&#160;&#160;&#160;&#160;&#160;&#160;&#160;&#160;&#160;&#160;&#160;&#160;&#160;&#160;&#160;&#160;&#160;&#160;&#160;&#160;</text>
<polygon fill="white" stroke="transparent" points="652.58,-227.9 652.58,-244.9 666.58,-244.9 666.58,-227.9 652.58,-227.9"/>
<text text-anchor="start" x="654.58" y="-233.3" font-family="sans-serif" font-size="12.00">D</text>
<polygon fill="white" stroke="transparent" points="652.58,-277.6 652.58,-294.6 666.58,-294.6 666.58,-277.6 652.58,-277.6"/>
<text text-anchor="start" x="654.58" y="-283" font-family="sans-serif" font-size="12.00">U</text>
</g>
<!-- devoluciones -->
<g id="node7" class="node">
<title>devoluciones</title>
<polygon fill="none" stroke="black" stroke-width="2" points="953,-347.08 951.1,-349.84 948.92,-352.55 946.49,-355.2 943.8,-357.78 940.86,-360.27 937.69,-362.66 934.29,-364.96 930.68,-367.14 926.86,-369.2 922.85,-371.13 918.65,-372.92 914.29,-374.58 909.77,-376.08 905.1,-377.44 900.31,-378.64 895.39,-379.68 890.37,-380.56 885.26,-381.28 880.07,-381.84 874.81,-382.24 869.5,-382.47 864.15,-382.55 858.77,-382.48 853.38,-382.25 847.99,-381.87 842.61,-381.35 837.27,-380.69 831.96,-379.9 826.7,-378.99 821.5,-377.95 816.39,-376.8 811.36,-375.54 806.43,-374.19 801.62,-372.74 796.93,-371.21 792.38,-369.6 787.97,-367.92 783.72,-366.18 779.65,-364.38 775.74,-362.54 772.03,-360.65 768.52,-358.73 765.21,-356.78 762.12,-354.8 759.25,-352.81 756.62,-350.8 754.23,-348.79 752.08,-346.77 750.19,-344.75 748.56,-342.74 747.19,-340.73 746.1,-338.73 745.28,-336.74 744.74,-334.76 744.48,-332.81 744.51,-330.87 744.82,-328.95 745.42,-327.05 746.31,-325.17 747.48,-323.32 748.94,-321.49 750.68,-319.69 752.7,-317.92 755,-316.17 757.57,-314.45 760.41,-312.77 763.5,-311.11 766.85,-309.5 770.45,-307.91 774.27,-306.37 778.33,-304.87 782.6,-303.42 787.07,-302.01 791.73,-300.66 796.58,-299.36 801.59,-298.12 806.75,-296.94 812.05,-295.83 817.46,-294.79 822.99,-293.83 828.6,-292.96 834.29,-292.17 840.03,-291.47 845.81,-290.87 851.62,-290.37 857.42,-289.98 863.21,-289.7 868.97,-289.54 874.68,-289.5 880.33,-289.59 885.88,-289.8 891.34,-290.15 896.68,-290.63 901.89,-291.25 906.94,-292 911.83,-292.9 916.54,-293.94 921.05,-295.12 925.36,-296.44 929.44,-297.89 933.3,-299.48 936.9,-301.2 940.26,-303.06 943.35,-305.03 946.17,-307.12 948.71,-309.33 950.96,-311.64 952.92,-314.05 954.59,-316.55 955.95,-319.13 957.02,-321.77 957.77,-324.49 958.23,-327.25 958.38,-330.05 958.22,-332.88 957.76,-335.73 957.01,-338.59 955.96,-341.44 954.62,-344.27 953,-347.08"/>
<text text-anchor="middle" x="850.58" y="-330.68" font-family="sans-serif" font-size="16.00">devoluciones</text>
</g>
<!-- devoluciones&#45;&gt;ventas -->
<g id="edge7" class="edge">
<title>devoluciones&#45;&gt;ventas</title>
<path fill="none" stroke="black" stroke-width="2" d="M838.11,-291.62C832.59,-278.64 824.94,-265.15 814.58,-255.21 789.49,-231.13 754.05,-215.66 723.39,-206"/>
<text text-anchor="middle" x="900.08" y="-258.61" font-family="sans-serif" font-size="12.00"> &#160;&#160;&#160;&#160;&#160;&#160;&#160;&#160;&#160;&#160;&#160;&#160;&#160;&#160;&#160;&#160;&#160;&#160;&#160;&#160;&#160;&#160;&#160;&#160;&#160;&#160;&#160;&#160;&#160;&#160;&#160;&#160;&#160;&#160;&#160;&#160;&#160;&#160;&#160;</text>
<polygon fill="white" stroke="transparent" points="700.39,-196 700.39,-215 716.39,-215 716.39,-196 700.39,-196"/>
<polyline fill="none" stroke="black" points="716.39,-196 716.39,-215 "/>
<text text-anchor="start" x="703.39" y="-202.4" font-family="sans-serif" font-size="12.00">D</text>
<polygon fill="white" stroke="transparent" points="716.39,-196 716.39,-215 746.39,-215 746.39,-196 716.39,-196"/>
<polygon fill="none" stroke="black" points="716.39,-196 716.39,-215 746.39,-215 746.39,-196 716.39,-196"/>
<text text-anchor="start" x="719.39" y="-202.4" font-family="sans-serif" font-size="12.00">ACL</text>
<polygon fill="white" stroke="transparent" points="831.11,-282.62 831.11,-299.62 845.11,-299.62 845.11,-282.62 831.11,-282.62"/>
<text text-anchor="start" x="833.11" y="-288.02" font-family="sans-serif" font-size="12.00">U</text>
</g>
</g>
</svg>
