<svg width="2000px" height="474px"
 viewBox="0.00 0.00 2861.40 677.87" xmlns="http://www.w3.org/2000/svg" xmlns:xlink="http://www.w3.org/1999/xlink">
<g id="graph0" class="graph" transform="scale(1.0 1.0) rotate(0) translate(4 673.87)">
<title>ContextMapGraph</title>
<polygon fill="white" stroke="transparent" points="-4,4 -4,-673.87 2857.4,-673.87 2857.4,4 -4,4"/>
<!-- AnaliticasReportingContext -->
<g id="node1" class="node">
<title>AnaliticasReportingContext</title>
<polygon fill="none" stroke="black" stroke-width="2" points="375.06,-474.87 377.01,-477.69 378.45,-480.51 379.35,-483.32 379.71,-486.11 379.54,-488.86 378.81,-491.57 377.55,-494.23 375.73,-496.82 373.38,-499.34 370.48,-501.77 367.05,-504.12 363.1,-506.36 358.64,-508.5 353.67,-510.53 348.21,-512.44 342.28,-514.23 335.9,-515.9 329.07,-517.43 321.83,-518.83 314.2,-520.1 306.19,-521.23 297.83,-522.23 289.16,-523.09 280.19,-523.82 270.95,-524.41 261.48,-524.87 251.8,-525.2 241.95,-525.41 231.95,-525.49 221.83,-525.45 211.64,-525.3 201.39,-525.04 191.13,-524.67 180.88,-524.19 170.67,-523.62 160.55,-522.96 150.53,-522.21 140.65,-521.37 130.94,-520.46 121.42,-519.47 112.13,-518.41 103.08,-517.29 94.32,-516.1 85.85,-514.85 77.71,-513.55 69.92,-512.19 62.49,-510.79 55.45,-509.34 48.81,-507.85 42.59,-506.31 36.81,-504.74 31.47,-503.12 26.59,-501.47 22.18,-499.78 18.24,-498.06 14.79,-496.31 11.83,-494.52 9.36,-492.71 7.39,-490.86 5.92,-488.99 4.95,-487.09 4.47,-485.16 4.48,-483.21 4.99,-481.24 5.98,-479.24 7.45,-477.23 9.39,-475.21 11.79,-473.17 14.65,-471.12 17.96,-469.07 21.69,-467.02 25.85,-464.97 30.43,-462.92 35.39,-460.89 40.74,-458.88 46.47,-456.9 52.54,-454.94 58.96,-453.03 65.69,-451.16 72.74,-449.33 80.07,-447.57 87.68,-445.88 95.55,-444.25 103.64,-442.71 111.96,-441.26 120.48,-439.9 129.18,-438.65 138.03,-437.51 147.03,-436.49 156.14,-435.59 165.36,-434.82 174.65,-434.19 183.99,-433.7 193.37,-433.35 202.76,-433.16 212.14,-433.13 221.49,-433.25 230.78,-433.53 239.99,-433.98 249.1,-434.58 258.08,-435.35 266.91,-436.28 275.57,-437.37 284.04,-438.62 292.28,-440.02 300.28,-441.57 308.02,-443.26 315.47,-445.09 322.61,-447.06 329.43,-449.15 335.88,-451.35 341.97,-453.67 347.66,-456.08 352.94,-458.58 357.79,-461.16 362.2,-463.81 366.14,-466.52 369.61,-469.27 372.58,-472.06 375.06,-474.87"/>
<text text-anchor="middle" x="189.74" y="-477.42" font-family="sans-serif" font-size="16.00">AnaliticasReportingContext</text>
</g>
<!-- VentasContext -->
<g id="node2" class="node">
<title>VentasContext</title>
<polygon fill="none" stroke="black" stroke-width="2" points="1264.47,-357.58 1260.63,-360.04 1256.54,-362.42 1252.23,-364.71 1247.7,-366.9 1242.97,-368.99 1238.06,-370.96 1232.98,-372.81 1227.76,-374.52 1222.41,-376.1 1216.94,-377.53 1211.38,-378.82 1205.73,-379.94 1200.03,-380.91 1194.27,-381.72 1188.48,-382.37 1182.68,-382.85 1176.88,-383.17 1171.09,-383.32 1165.32,-383.31 1159.6,-383.13 1153.93,-382.79 1148.33,-382.3 1142.8,-381.66 1137.36,-380.87 1132.03,-379.93 1126.8,-378.86 1121.7,-377.66 1116.73,-376.34 1111.89,-374.9 1107.2,-373.35 1102.67,-371.7 1098.31,-369.96 1094.11,-368.13 1090.1,-366.23 1086.27,-364.26 1082.64,-362.22 1079.2,-360.14 1075.97,-358.02 1072.95,-355.85 1070.15,-353.66 1067.57,-351.46 1065.23,-349.23 1063.12,-347 1061.25,-344.77 1059.62,-342.55 1058.24,-340.34 1057.12,-338.15 1056.26,-335.98 1055.66,-333.83 1055.34,-331.72 1055.28,-329.64 1055.49,-327.6 1055.99,-325.6 1056.76,-323.64 1057.82,-321.73 1059.15,-319.87 1060.78,-318.05 1062.68,-316.29 1064.87,-314.58 1067.34,-312.92 1070.09,-311.32 1073.11,-309.77 1076.41,-308.27 1079.97,-306.83 1083.8,-305.45 1087.88,-304.13 1092.21,-302.87 1096.78,-301.67 1101.57,-300.53 1106.58,-299.45 1111.8,-298.44 1117.21,-297.49 1122.81,-296.61 1128.56,-295.8 1134.46,-295.06 1140.5,-294.4 1146.65,-293.82 1152.89,-293.31 1159.21,-292.89 1165.59,-292.55 1172.01,-292.3 1178.44,-292.14 1184.87,-292.08 1191.27,-292.11 1197.63,-292.25 1203.91,-292.49 1210.11,-292.84 1216.19,-293.29 1222.14,-293.86 1227.94,-294.54 1233.56,-295.34 1238.99,-296.25 1244.2,-297.28 1249.18,-298.43 1253.91,-299.69 1258.38,-301.07 1262.56,-302.57 1266.45,-304.19 1270.02,-305.91 1273.28,-307.74 1276.2,-309.68 1278.78,-311.73 1281.01,-313.86 1282.88,-316.09 1284.39,-318.41 1285.53,-320.8 1286.31,-323.26 1286.71,-325.79 1286.75,-328.37 1286.43,-330.99 1285.74,-333.66 1284.69,-336.35 1283.29,-339.05 1281.55,-341.77 1279.48,-344.47 1277.08,-347.17 1274.37,-349.84 1271.35,-352.47 1268.05,-355.05 1264.47,-357.58"/>
<text text-anchor="middle" x="1166.74" y="-330.8" font-family="sans-serif" font-size="16.00">VentasContext</text>
</g>
<!-- AnaliticasReportingContext&#45;&gt;VentasContext -->
<g id="edge1" class="edge">
<title>AnaliticasReportingContext&#45;&gt;VentasContext</title>
<path fill="none" stroke="black" stroke-width="2" d="M320.96,-446.53C343.48,-441.38 366.71,-436.46 388.74,-432.46 627.45,-389.09 910.93,-359.16 1061.1,-344.97"/>
<text text-anchor="middle" x="615.24" y="-404.86" font-family="sans-serif" font-size="12.00">Partnership</text>
</g>
<!-- AutenticacionAutorizacionContext -->
<g id="node3" class="node">
<title>AutenticacionAutorizacionContext</title>
<polygon fill="none" stroke="black" stroke-width="2" points="2067.37,-666.53 2053.27,-667.38 2039.08,-668.1 2024.85,-668.7 2010.66,-669.18 1996.54,-669.52 1982.56,-669.73 1968.76,-669.81 1955.2,-669.75 1941.93,-669.55 1928.99,-669.22 1916.42,-668.75 1904.27,-668.15 1892.57,-667.41 1881.36,-666.55 1870.67,-665.55 1860.52,-664.42 1850.94,-663.17 1841.95,-661.8 1833.56,-660.32 1825.8,-658.72 1818.66,-657.03 1812.16,-655.23 1806.3,-653.33 1801.08,-651.36 1796.5,-649.3 1792.55,-647.16 1789.23,-644.96 1786.52,-642.71 1784.42,-640.4 1782.91,-638.05 1781.98,-635.66 1781.6,-633.25 1781.78,-630.81 1782.47,-628.37 1783.68,-625.92 1785.37,-623.48 1787.53,-621.05 1790.15,-618.65 1793.19,-616.27 1796.65,-613.92 1800.51,-611.62 1804.75,-609.36 1809.35,-607.16 1814.31,-605.03 1819.6,-602.96 1825.22,-600.96 1831.15,-599.04 1837.38,-597.2 1843.91,-595.45 1850.72,-593.8 1857.81,-592.24 1865.17,-590.77 1872.79,-589.41 1880.68,-588.15 1888.82,-587 1897.21,-585.95 1905.84,-585.02 1914.72,-584.19 1923.82,-583.48 1933.16,-582.87 1942.72,-582.38 1952.49,-582 1962.47,-581.73 1972.65,-581.58 1983.01,-581.53 1993.54,-581.59 2004.23,-581.75 2015.06,-582.03 2026.01,-582.41 2037.06,-582.89 2048.19,-583.47 2059.37,-584.14 2070.59,-584.92 2081.8,-585.79 2092.98,-586.75 2104.09,-587.8 2115.11,-588.94 2125.99,-590.16 2136.69,-591.46 2147.19,-592.84 2157.44,-594.29 2167.39,-595.82 2177.01,-597.42 2186.25,-599.08 2195.08,-600.81 2203.44,-602.6 2211.31,-604.44 2218.63,-606.33 2225.38,-608.28 2231.51,-610.27 2236.99,-612.3 2241.78,-614.36 2245.85,-616.46 2249.17,-618.59 2251.73,-620.74 2253.49,-622.91 2254.43,-625.1 2254.55,-627.29 2253.83,-629.49 2252.26,-631.69 2249.83,-633.88 2246.56,-636.06 2242.44,-638.22 2237.49,-640.36 2231.71,-642.46 2225.13,-644.54 2217.76,-646.57 2209.64,-648.55 2200.79,-650.48 2191.25,-652.35 2181.05,-654.16 2170.24,-655.89 2158.85,-657.55 2146.95,-659.13 2134.56,-660.61 2121.75,-662 2108.58,-663.3 2095.08,-664.48 2081.33,-665.56 2067.37,-666.53"/>
<text text-anchor="middle" x="2003.74" y="-620.63" font-family="sans-serif" font-size="16.00">AutenticacionAutorizacionContext</text>
</g>
<!-- CarritoComprasContext -->
<g id="node4" class="node">
<title>CarritoComprasContext</title>
<polygon fill="none" stroke="black" stroke-width="2" points="1957.01,-446.35 1965.54,-444.58 1974.28,-442.91 1983.22,-441.36 1992.32,-439.93 2001.54,-438.63 2010.84,-437.46 2020.2,-436.43 2029.58,-435.54 2038.95,-434.8 2048.27,-434.21 2057.52,-433.77 2066.68,-433.49 2075.7,-433.36 2084.57,-433.4 2093.25,-433.58 2101.74,-433.93 2110.01,-434.43 2118.03,-435.08 2125.79,-435.88 2133.28,-436.83 2140.48,-437.92 2147.38,-439.15 2153.96,-440.5 2160.22,-441.99 2166.16,-443.59 2171.76,-445.31 2177.02,-447.13 2181.94,-449.05 2186.51,-451.06 2190.73,-453.15 2194.61,-455.31 2198.13,-457.54 2201.31,-459.82 2204.15,-462.15 2206.64,-464.52 2208.79,-466.91 2210.6,-469.33 2212.07,-471.76 2213.21,-474.2 2214.02,-476.63 2214.5,-479.04 2214.64,-481.44 2214.47,-483.82 2213.97,-486.16 2213.15,-488.46 2212,-490.71 2210.54,-492.92 2208.75,-495.06 2206.64,-497.15 2204.22,-499.17 2201.47,-501.12 2198.41,-503 2195.03,-504.8 2191.33,-506.53 2187.31,-508.17 2182.97,-509.73 2178.32,-511.2 2173.35,-512.59 2168.07,-513.89 2162.49,-515.1 2156.6,-516.23 2150.41,-517.26 2143.93,-518.21 2137.16,-519.06 2130.12,-519.83 2122.82,-520.5 2115.26,-521.09 2107.47,-521.59 2099.44,-522 2091.21,-522.32 2082.79,-522.55 2074.2,-522.7 2065.46,-522.75 2056.59,-522.72 2047.62,-522.6 2038.58,-522.4 2029.48,-522.1 2020.36,-521.72 2011.25,-521.25 2002.18,-520.69 1993.18,-520.05 1984.29,-519.31 1975.52,-518.49 1966.93,-517.58 1958.53,-516.58 1950.37,-515.5 1942.48,-514.33 1934.89,-513.07 1927.62,-511.72 1920.72,-510.29 1914.21,-508.78 1908.13,-507.18 1902.49,-505.5 1897.32,-503.75 1892.65,-501.92 1888.5,-500.02 1884.89,-498.04 1881.84,-496 1879.35,-493.9 1877.45,-491.74 1876.14,-489.52 1875.43,-487.26 1875.33,-484.96 1875.83,-482.62 1876.93,-480.25 1878.63,-477.86 1880.93,-475.45 1883.81,-473.03 1887.26,-470.61 1891.27,-468.2 1895.82,-465.81 1900.88,-463.44 1906.44,-461.1 1912.47,-458.8 1918.95,-456.55 1925.85,-454.36 1933.14,-452.24 1940.78,-450.19 1948.75,-448.23 1957.01,-446.35"/>
<text text-anchor="middle" x="2057.74" y="-477.42" font-family="sans-serif" font-size="16.00">CarritoComprasContext</text>
</g>
<!-- AutenticacionAutorizacionContext&#45;&gt;CarritoComprasContext -->
<g id="edge2" class="edge">
<title>AutenticacionAutorizacionContext&#45;&gt;CarritoComprasContext</title>
<path fill="none" stroke="black" stroke-width="2" d="M2016.66,-582.07C2020.35,-570.93 2024.52,-558.93 2028.74,-547.99 2031.92,-539.72 2035.57,-530.98 2039.18,-522.67"/>
<text text-anchor="middle" x="2084.74" y="-551.39" font-family="sans-serif" font-size="12.00">Customer/Supplier</text>
<polygon fill="white" stroke="transparent" points="2032.18,-513.67 2032.18,-530.67 2046.18,-530.67 2046.18,-513.67 2032.18,-513.67"/>
<text text-anchor="start" x="2034.18" y="-519.07" font-family="sans-serif" font-size="12.00">D</text>
<polygon fill="white" stroke="transparent" points="2009.66,-573.07 2009.66,-590.07 2023.66,-590.07 2023.66,-573.07 2009.66,-573.07"/>
<text text-anchor="start" x="2011.66" y="-578.47" font-family="sans-serif" font-size="12.00">U</text>
</g>
<!-- CarritoComprasContext&#45;&gt;VentasContext -->
<g id="edge4" class="edge">
<title>CarritoComprasContext&#45;&gt;VentasContext</title>
<path fill="none" stroke="black" stroke-width="2" d="M1926.01,-454.19C1887.61,-446.86 1845.54,-439.08 1806.74,-432.46 1619.67,-400.51 1400.9,-368.57 1273.67,-350.52"/>
<text text-anchor="middle" x="1718.24" y="-404.86" font-family="sans-serif" font-size="12.00">Partnership</text>
</g>
<!-- GestionClientesContext -->
<g id="node5" class="node">
<title>GestionClientesContext</title>
<polygon fill="none" stroke="black" stroke-width="2" points="1900.83,-228.3 1891.3,-229.66 1881.61,-230.89 1871.81,-232.01 1861.94,-232.99 1852.03,-233.85 1842.12,-234.57 1832.25,-235.16 1822.46,-235.6 1812.77,-235.9 1803.22,-236.06 1793.85,-236.06 1784.67,-235.92 1775.72,-235.63 1767.03,-235.19 1758.62,-234.61 1750.51,-233.88 1742.72,-233.02 1735.27,-232.01 1728.17,-230.87 1721.43,-229.59 1715.07,-228.19 1709.1,-226.67 1703.52,-225.03 1698.34,-223.29 1693.56,-221.44 1689.19,-219.5 1685.21,-217.47 1681.64,-215.36 1678.47,-213.18 1675.69,-210.93 1673.3,-208.63 1671.29,-206.28 1669.67,-203.9 1668.41,-201.48 1667.51,-199.04 1666.97,-196.59 1666.78,-194.13 1666.92,-191.67 1667.4,-189.23 1668.2,-186.81 1669.32,-184.41 1670.74,-182.05 1672.47,-179.72 1674.5,-177.45 1676.81,-175.23 1679.41,-173.06 1682.3,-170.97 1685.46,-168.94 1688.9,-166.99 1692.6,-165.11 1696.58,-163.32 1700.82,-161.62 1705.32,-160 1710.09,-158.48 1715.11,-157.05 1720.4,-155.71 1725.93,-154.48 1731.72,-153.34 1737.76,-152.31 1744.04,-151.37 1750.57,-150.54 1757.32,-149.8 1764.31,-149.17 1771.51,-148.64 1778.93,-148.21 1786.55,-147.88 1794.36,-147.65 1802.35,-147.52 1810.49,-147.48 1818.79,-147.54 1827.22,-147.7 1835.75,-147.95 1844.37,-148.3 1853.06,-148.73 1861.8,-149.26 1870.55,-149.88 1879.29,-150.58 1888,-151.38 1896.64,-152.26 1905.18,-153.22 1913.6,-154.27 1921.86,-155.39 1929.93,-156.6 1937.78,-157.89 1945.37,-159.25 1952.67,-160.69 1959.66,-162.21 1966.29,-163.79 1972.55,-165.44 1978.39,-167.16 1983.79,-168.95 1988.72,-170.79 1993.17,-172.7 1997.09,-174.66 2000.48,-176.67 2003.31,-178.73 2005.56,-180.84 2007.22,-182.98 2008.29,-185.16 2008.74,-187.37 2008.57,-189.6 2007.79,-191.86 2006.38,-194.12 2004.36,-196.4 2001.72,-198.68 1998.48,-200.95 1994.64,-203.21 1990.23,-205.45 1985.25,-207.67 1979.73,-209.85 1973.7,-212 1967.17,-214.09 1960.17,-216.14 1952.74,-218.12 1944.9,-220.03 1936.69,-221.87 1928.14,-223.62 1919.29,-225.28 1910.18,-226.84 1900.83,-228.3"/>
<text text-anchor="middle" x="1824.74" y="-185.64" font-family="sans-serif" font-size="16.00">GestionClientesContext</text>
</g>
<!-- CarritoComprasContext&#45;&gt;GestionClientesContext -->
<g id="edge3" class="edge">
<title>CarritoComprasContext&#45;&gt;GestionClientesContext</title>
<path fill="none" stroke="black" stroke-width="2" d="M1914.35,-458.14C1871.31,-444.07 1828.69,-421.07 1802.74,-383.46 1772.95,-340.29 1787.47,-278.35 1803.46,-236.37"/>
<text text-anchor="middle" x="1858.74" y="-331.5" font-family="sans-serif" font-size="12.00">Customer/Supplier</text>
<polygon fill="white" stroke="transparent" points="1796.46,-227.37 1796.46,-244.37 1810.46,-244.37 1810.46,-227.37 1796.46,-227.37"/>
<text text-anchor="start" x="1798.46" y="-232.77" font-family="sans-serif" font-size="12.00">D</text>
<polygon fill="white" stroke="transparent" points="1907.35,-449.14 1907.35,-466.14 1921.35,-466.14 1921.35,-449.14 1907.35,-449.14"/>
<text text-anchor="start" x="1909.35" y="-454.54" font-family="sans-serif" font-size="12.00">U</text>
</g>
<!-- GestionProductosContext -->
<g id="node6" class="node">
<title>GestionProductosContext</title>
<polygon fill="none" stroke="black" stroke-width="2" points="2418.84,-328.24 2420.68,-331.06 2422.03,-333.88 2422.87,-336.69 2423.22,-339.48 2423.05,-342.24 2422.37,-344.95 2421.18,-347.6 2419.48,-350.19 2417.26,-352.71 2414.54,-355.15 2411.32,-357.49 2407.61,-359.74 2403.41,-361.88 2398.75,-363.91 2393.62,-365.82 2388.05,-367.61 2382.05,-369.27 2375.64,-370.81 2368.84,-372.21 2361.66,-373.47 2354.14,-374.61 2346.29,-375.6 2338.14,-376.47 2329.71,-377.19 2321.04,-377.78 2312.14,-378.25 2303.05,-378.58 2293.79,-378.78 2284.39,-378.87 2274.89,-378.83 2265.31,-378.68 2255.69,-378.41 2246.04,-378.04 2236.41,-377.57 2226.83,-377 2217.31,-376.34 2207.9,-375.58 2198.62,-374.75 2189.49,-373.83 2180.55,-372.85 2171.82,-371.79 2163.33,-370.66 2155.09,-369.47 2147.14,-368.23 2139.49,-366.92 2132.17,-365.57 2125.19,-364.17 2118.58,-362.72 2112.34,-361.22 2106.5,-359.69 2101.06,-358.11 2096.05,-356.5 2091.46,-354.84 2087.32,-353.16 2083.62,-351.44 2080.38,-349.68 2077.6,-347.9 2075.28,-346.08 2073.43,-344.24 2072.05,-342.36 2071.13,-340.46 2070.68,-338.54 2070.7,-336.58 2071.17,-334.61 2072.1,-332.62 2073.48,-330.61 2075.31,-328.58 2077.56,-326.54 2080.25,-324.5 2083.35,-322.44 2086.87,-320.39 2090.77,-318.34 2095.07,-316.3 2099.74,-314.27 2104.76,-312.26 2110.14,-310.27 2115.85,-308.32 2121.87,-306.4 2128.2,-304.53 2134.82,-302.71 2141.71,-300.95 2148.86,-299.25 2156.25,-297.63 2163.86,-296.09 2171.67,-294.63 2179.67,-293.28 2187.84,-292.03 2196.16,-290.88 2204.61,-289.86 2213.18,-288.96 2221.83,-288.19 2230.56,-287.56 2239.34,-287.07 2248.15,-286.73 2256.97,-286.54 2265.78,-286.5 2274.57,-286.62 2283.29,-286.91 2291.95,-287.35 2300.5,-287.96 2308.94,-288.72 2317.24,-289.65 2325.38,-290.74 2333.33,-291.99 2341.07,-293.39 2348.59,-294.94 2355.86,-296.63 2362.86,-298.47 2369.57,-300.43 2375.97,-302.52 2382.04,-304.73 2387.75,-307.04 2393.1,-309.45 2398.06,-311.96 2402.62,-314.54 2406.76,-317.18 2410.47,-319.89 2413.72,-322.64 2416.52,-325.43 2418.84,-328.24"/>
<text text-anchor="middle" x="2244.74" y="-330.8" font-family="sans-serif" font-size="16.00">GestionProductosContext</text>
</g>
<!-- CarritoComprasContext&#45;&gt;GestionProductosContext -->
<g id="edge5" class="edge">
<title>CarritoComprasContext&#45;&gt;GestionProductosContext</title>
<path fill="none" stroke="black" stroke-width="2" d="M2079.06,-433.06C2085.78,-421.71 2094.03,-410.32 2103.74,-401.46 2117.81,-388.62 2134.82,-377.86 2152.09,-369"/>
<text text-anchor="middle" x="2159.74" y="-404.86" font-family="sans-serif" font-size="12.00">Customer/Supplier</text>
<polygon fill="white" stroke="transparent" points="2145.09,-360 2145.09,-377 2159.09,-377 2159.09,-360 2145.09,-360"/>
<text text-anchor="start" x="2147.09" y="-365.4" font-family="sans-serif" font-size="12.00">D</text>
<polygon fill="white" stroke="transparent" points="2072.06,-424.06 2072.06,-441.06 2086.06,-441.06 2086.06,-424.06 2072.06,-424.06"/>
<text text-anchor="start" x="2074.06" y="-429.46" font-family="sans-serif" font-size="12.00">U</text>
</g>
<!-- GestionClientesContext&#45;&gt;CarritoComprasContext -->
<g id="edge6" class="edge">
<title>GestionClientesContext&#45;&gt;CarritoComprasContext</title>
<path fill="none" stroke="black" stroke-width="2" d="M1871.87,-232.1C1887.26,-247.67 1903.31,-266.32 1914.74,-285.74 1937.85,-325 1920.66,-345.41 1945.74,-383.46 1959.53,-404.38 1979.06,-423.4 1997.96,-438.93"/>
<text text-anchor="middle" x="2001.74" y="-331.5" font-family="sans-serif" font-size="12.00">Customer/Supplier</text>
<polygon fill="white" stroke="transparent" points="1990.96,-429.93 1990.96,-446.93 2004.96,-446.93 2004.96,-429.93 1990.96,-429.93"/>
<text text-anchor="start" x="1992.96" y="-435.33" font-family="sans-serif" font-size="12.00">D</text>
<polygon fill="white" stroke="transparent" points="1864.87,-223.1 1864.87,-240.1 1878.87,-240.1 1878.87,-223.1 1864.87,-223.1"/>
<text text-anchor="start" x="1866.87" y="-228.5" font-family="sans-serif" font-size="12.00">U</text>
</g>
<!-- GestionProductosContext&#45;&gt;CarritoComprasContext -->
<g id="edge9" class="edge">
<title>GestionProductosContext&#45;&gt;CarritoComprasContext</title>
<path fill="none" stroke="black" stroke-width="2" d="M2236.27,-377.66C2231.93,-390.73 2225.43,-404.35 2215.74,-414.46 2203.71,-427 2188.93,-437.25 2173.28,-445.59"/>
<text text-anchor="middle" x="2280.74" y="-404.86" font-family="sans-serif" font-size="12.00">Customer/Supplier</text>
<polygon fill="white" stroke="transparent" points="2166.28,-436.59 2166.28,-453.59 2180.28,-453.59 2180.28,-436.59 2166.28,-436.59"/>
<text text-anchor="start" x="2168.28" y="-441.99" font-family="sans-serif" font-size="12.00">D</text>
<polygon fill="white" stroke="transparent" points="2229.27,-368.66 2229.27,-385.66 2243.27,-385.66 2243.27,-368.66 2229.27,-368.66"/>
<text text-anchor="start" x="2231.27" y="-374.06" font-family="sans-serif" font-size="12.00">U</text>
</g>
<!-- GestionProductosContext&#45;&gt;GestionClientesContext -->
<g id="edge7" class="edge">
<title>GestionProductosContext&#45;&gt;GestionClientesContext</title>
<path fill="none" stroke="black" stroke-width="2" d="M2145.74,-299.85C2079.04,-277.12 1991.39,-247.25 1924.53,-224.46"/>
<text text-anchor="middle" x="2088.74" y="-258.14" font-family="sans-serif" font-size="12.00">Shared Kernel</text>
</g>
<!-- GestionDevolucionesContext -->
<g id="node7" class="node">
<title>GestionDevolucionesContext</title>
<polygon fill="none" stroke="black" stroke-width="2" points="2346.84,-226.8 2336,-228.32 2324.93,-229.73 2313.7,-231.02 2302.34,-232.19 2290.89,-233.23 2279.41,-234.13 2267.92,-234.9 2256.48,-235.52 2245.12,-236 2233.89,-236.33 2222.8,-236.51 2211.91,-236.53 2201.25,-236.41 2190.84,-236.13 2180.71,-235.71 2170.9,-235.13 2161.41,-234.41 2152.29,-233.54 2143.54,-232.53 2135.18,-231.39 2127.22,-230.11 2119.69,-228.7 2112.58,-227.17 2105.91,-225.53 2099.69,-223.77 2093.91,-221.92 2088.57,-219.97 2083.69,-217.93 2079.26,-215.81 2075.27,-213.62 2071.72,-211.37 2068.62,-209.07 2065.95,-206.71 2063.7,-204.33 2061.88,-201.91 2060.48,-199.47 2059.48,-197.03 2058.88,-194.58 2058.68,-192.13 2058.87,-189.7 2059.44,-187.29 2060.39,-184.9 2061.7,-182.56 2063.38,-180.25 2065.43,-177.99 2067.83,-175.79 2070.58,-173.64 2073.68,-171.56 2077.13,-169.55 2080.93,-167.61 2085.07,-165.75 2089.55,-163.97 2094.37,-162.28 2099.52,-160.67 2105.02,-159.15 2110.84,-157.73 2117,-156.39 2123.49,-155.15 2130.3,-154.01 2137.44,-152.96 2144.89,-152.01 2152.65,-151.15 2160.71,-150.4 2169.06,-149.73 2177.69,-149.17 2186.59,-148.7 2195.75,-148.32 2205.15,-148.04 2214.77,-147.86 2224.6,-147.77 2234.61,-147.77 2244.78,-147.86 2255.08,-148.05 2265.49,-148.32 2275.98,-148.69 2286.52,-149.14 2297.07,-149.68 2307.61,-150.31 2318.1,-151.03 2328.5,-151.83 2338.78,-152.72 2348.9,-153.7 2358.81,-154.75 2368.49,-155.89 2377.89,-157.11 2386.98,-158.41 2395.71,-159.79 2404.05,-161.25 2411.96,-162.78 2419.4,-164.39 2426.34,-166.07 2432.75,-167.82 2438.6,-169.64 2443.85,-171.52 2448.48,-173.47 2452.47,-175.47 2455.8,-177.53 2458.43,-179.63 2460.37,-181.79 2461.6,-183.98 2462.1,-186.21 2461.88,-188.48 2460.92,-190.76 2459.24,-193.07 2456.84,-195.39 2453.71,-197.72 2449.89,-200.04 2445.37,-202.36 2440.18,-204.66 2434.34,-206.94 2427.88,-209.19 2420.82,-211.4 2413.19,-213.57 2405.02,-215.68 2396.35,-217.73 2387.22,-219.72 2377.67,-221.62 2367.72,-223.44 2357.43,-225.17 2346.84,-226.8"/>
<text text-anchor="middle" x="2244.74" y="-185.64" font-family="sans-serif" font-size="16.00">GestionDevolucionesContext</text>
</g>
<!-- GestionProductosContext&#45;&gt;GestionDevolucionesContext -->
<g id="edge8" class="edge">
<title>GestionProductosContext&#45;&gt;GestionDevolucionesContext</title>
<path fill="none" stroke="black" stroke-width="2" d="M2244.74,-286.72C2244.74,-270.58 2244.74,-252.52 2244.74,-236.45"/>
<text text-anchor="middle" x="2320.24" y="-258.14" font-family="sans-serif" font-size="12.00"> &#160;&#160;&#160;&#160;&#160;&#160;&#160;&#160;&#160;&#160;&#160;&#160;&#160;&#160;&#160;&#160;&#160;&#160;&#160;&#160;&#160;&#160;&#160;&#160;&#160;&#160;&#160;&#160;&#160;&#160;&#160;&#160;&#160;&#160;&#160;&#160;&#160;&#160;&#160;</text>
<polygon fill="white" stroke="transparent" points="2225.74,-226.45 2225.74,-245.45 2241.74,-245.45 2241.74,-226.45 2225.74,-226.45"/>
<polyline fill="none" stroke="black" points="2241.74,-226.45 2241.74,-245.45 "/>
<text text-anchor="start" x="2228.74" y="-232.85" font-family="sans-serif" font-size="12.00">D</text>
<polygon fill="white" stroke="transparent" points="2241.74,-226.45 2241.74,-245.45 2263.74,-245.45 2263.74,-226.45 2241.74,-226.45"/>
<polygon fill="none" stroke="black" points="2241.74,-226.45 2241.74,-245.45 2263.74,-245.45 2263.74,-226.45 2241.74,-226.45"/>
<text text-anchor="start" x="2244.74" y="-232.85" font-family="sans-serif" font-size="12.00">CF</text>
<polygon fill="white" stroke="transparent" points="2209.74,-276.72 2209.74,-295.72 2225.74,-295.72 2225.74,-276.72 2209.74,-276.72"/>
<polyline fill="none" stroke="black" points="2225.74,-276.72 2225.74,-295.72 "/>
<text text-anchor="start" x="2212.74" y="-283.12" font-family="sans-serif" font-size="12.00">U</text>
<polygon fill="white" stroke="transparent" points="2225.74,-276.72 2225.74,-295.72 2280.74,-295.72 2280.74,-276.72 2225.74,-276.72"/>
<polygon fill="none" stroke="black" points="2225.74,-276.72 2225.74,-295.72 2280.74,-295.72 2280.74,-276.72 2225.74,-276.72"/>
<text text-anchor="start" x="2228.74" y="-283.12" font-family="sans-serif" font-size="12.00">OHS, PL</text>
</g>
<!-- GestionPedidosContext -->
<g id="node8" class="node">
<title>GestionPedidosContext</title>
<polygon fill="none" stroke="black" stroke-width="2" points="2328.02,-81.88 2319.34,-80.2 2310.99,-78.43 2302.99,-76.58 2295.39,-74.66 2288.21,-72.67 2281.48,-70.62 2275.24,-68.52 2269.5,-66.38 2264.3,-64.2 2259.64,-61.99 2255.56,-59.75 2252.05,-57.49 2249.15,-55.23 2246.85,-52.96 2245.17,-50.7 2244.1,-48.44 2243.64,-46.19 2243.8,-43.97 2244.56,-41.77 2245.93,-39.6 2247.88,-37.46 2250.41,-35.37 2253.49,-33.31 2257.11,-31.31 2261.25,-29.35 2265.89,-27.45 2270.99,-25.61 2276.54,-23.82 2282.5,-22.1 2288.85,-20.45 2295.56,-18.86 2302.59,-17.35 2309.91,-15.91 2317.5,-14.54 2325.32,-13.25 2333.33,-12.04 2341.51,-10.91 2349.83,-9.86 2358.25,-8.9 2366.75,-8.02 2375.3,-7.23 2383.87,-6.53 2392.43,-5.92 2400.96,-5.4 2409.44,-4.97 2417.84,-4.64 2426.14,-4.41 2434.33,-4.27 2442.39,-4.23 2450.3,-4.29 2458.05,-4.45 2465.62,-4.71 2473,-5.07 2480.19,-5.54 2487.18,-6.11 2493.95,-6.78 2500.51,-7.56 2506.84,-8.44 2512.94,-9.43 2518.81,-10.52 2524.44,-11.71 2529.83,-13 2534.99,-14.39 2539.9,-15.87 2544.56,-17.46 2548.97,-19.13 2553.13,-20.89 2557.04,-22.74 2560.69,-24.67 2564.08,-26.68 2567.2,-28.76 2570.06,-30.91 2572.64,-33.12 2574.94,-35.39 2576.95,-37.71 2578.66,-40.07 2580.08,-42.47 2581.19,-44.9 2581.98,-47.35 2582.44,-49.82 2582.57,-52.29 2582.36,-54.76 2581.79,-57.22 2580.86,-59.66 2579.57,-62.08 2577.89,-64.46 2575.83,-66.79 2573.38,-69.07 2570.53,-71.3 2567.27,-73.45 2563.61,-75.53 2559.54,-77.52 2555.06,-79.42 2550.17,-81.22 2544.87,-82.92 2539.17,-84.5 2533.07,-85.97 2526.58,-87.31 2519.71,-88.53 2512.48,-89.61 2504.89,-90.55 2496.97,-91.36 2488.73,-92.02 2480.2,-92.54 2471.4,-92.92 2462.35,-93.14 2453.09,-93.22 2443.63,-93.16 2434.02,-92.95 2424.28,-92.59 2414.45,-92.1 2404.57,-91.46 2394.66,-90.69 2384.78,-89.79 2374.95,-88.76 2365.22,-87.61 2355.62,-86.34 2346.2,-84.96 2336.98,-83.47 2328.02,-81.88"/>
<text text-anchor="middle" x="2425.74" y="-42.77" font-family="sans-serif" font-size="16.00">GestionPedidosContext</text>
</g>
<!-- GestionDevolucionesContext&#45;&gt;GestionPedidosContext -->
<g id="edge10" class="edge">
<title>GestionDevolucionesContext&#45;&gt;GestionPedidosContext</title>
<path fill="none" stroke="black" stroke-width="2" d="M2224.62,-147.67C2221.3,-135.03 2221.08,-121.67 2228.74,-111.15 2241.96,-92.99 2260.47,-79.91 2280.89,-70.51"/>
<text text-anchor="middle" x="2284.74" y="-114.55" font-family="sans-serif" font-size="12.00">Customer/Supplier</text>
<polygon fill="white" stroke="transparent" points="2273.89,-61.51 2273.89,-78.51 2287.89,-78.51 2287.89,-61.51 2273.89,-61.51"/>
<text text-anchor="start" x="2275.89" y="-66.91" font-family="sans-serif" font-size="12.00">D</text>
<polygon fill="white" stroke="transparent" points="2217.62,-138.67 2217.62,-155.67 2231.62,-155.67 2231.62,-138.67 2217.62,-138.67"/>
<text text-anchor="start" x="2219.62" y="-144.07" font-family="sans-serif" font-size="12.00">U</text>
</g>
<!-- GestionPedidosContext&#45;&gt;CarritoComprasContext -->
<g id="edge12" class="edge">
<title>GestionPedidosContext&#45;&gt;CarritoComprasContext</title>
<path fill="none" stroke="black" stroke-width="2" d="M2462.89,-93.4C2466.08,-99.12 2468.81,-105.09 2470.74,-111.15 2507.8,-227.66 2515.18,-294.1 2431.74,-383.46 2414.72,-401.69 2291.2,-431.4 2190.7,-453.1"/>
<text text-anchor="middle" x="2551.74" y="-258.14" font-family="sans-serif" font-size="12.00">Customer/Supplier</text>
<polygon fill="white" stroke="transparent" points="2183.7,-444.1 2183.7,-461.1 2197.7,-461.1 2197.7,-444.1 2183.7,-444.1"/>
<text text-anchor="start" x="2185.7" y="-449.5" font-family="sans-serif" font-size="12.00">D</text>
<polygon fill="white" stroke="transparent" points="2455.89,-84.4 2455.89,-101.4 2469.89,-101.4 2469.89,-84.4 2455.89,-84.4"/>
<text text-anchor="start" x="2457.89" y="-89.8" font-family="sans-serif" font-size="12.00">U</text>
</g>
<!-- GestionPedidosContext&#45;&gt;GestionDevolucionesContext -->
<g id="edge11" class="edge">
<title>GestionPedidosContext&#45;&gt;GestionDevolucionesContext</title>
<path fill="none" stroke="black" stroke-width="2" d="M2381.34,-89.75C2368.55,-101.29 2354.37,-113.53 2340.74,-124.15 2329.42,-132.96 2316.94,-141.87 2304.82,-150.13"/>
<text text-anchor="middle" x="2410.74" y="-114.55" font-family="sans-serif" font-size="12.00">Customer/Supplier</text>
<polygon fill="white" stroke="transparent" points="2297.82,-141.13 2297.82,-158.13 2311.82,-158.13 2311.82,-141.13 2297.82,-141.13"/>
<text text-anchor="start" x="2299.82" y="-146.53" font-family="sans-serif" font-size="12.00">D</text>
<polygon fill="white" stroke="transparent" points="2374.34,-80.75 2374.34,-97.75 2388.34,-97.75 2388.34,-80.75 2374.34,-80.75"/>
<text text-anchor="start" x="2376.34" y="-86.15" font-family="sans-serif" font-size="12.00">U</text>
</g>
<!-- GestionSesionesContext -->
<g id="node9" class="node">
<title>GestionSesionesContext</title>
<polygon fill="none" stroke="black" stroke-width="2" points="2417.58,-667.21 2406.73,-666.58 2396.06,-665.83 2385.61,-664.96 2375.43,-663.99 2365.55,-662.91 2356.01,-661.74 2346.86,-660.46 2338.13,-659.09 2329.85,-657.62 2322.05,-656.07 2314.76,-654.44 2308,-652.74 2301.79,-650.96 2296.16,-649.11 2291.12,-647.2 2286.69,-645.23 2282.86,-643.21 2279.65,-641.15 2277.05,-639.04 2275.08,-636.9 2273.72,-634.73 2272.97,-632.53 2272.82,-630.31 2273.25,-628.08 2274.26,-625.85 2275.82,-623.61 2277.92,-621.38 2280.53,-619.15 2283.64,-616.94 2287.21,-614.75 2291.24,-612.58 2295.68,-610.45 2300.51,-608.35 2305.7,-606.3 2311.24,-604.29 2317.08,-602.33 2323.2,-600.43 2329.58,-598.59 2336.19,-596.82 2343,-595.12 2349.98,-593.49 2357.12,-591.95 2364.39,-590.49 2371.77,-589.11 2379.24,-587.83 2386.78,-586.64 2394.38,-585.55 2402.01,-584.56 2409.66,-583.68 2417.32,-582.9 2424.98,-582.23 2432.62,-581.68 2440.24,-581.24 2447.83,-580.91 2455.37,-580.7 2462.88,-580.61 2470.33,-580.64 2477.72,-580.79 2485.05,-581.05 2492.31,-581.44 2499.5,-581.94 2506.62,-582.57 2513.65,-583.3 2520.6,-584.16 2527.45,-585.13 2534.21,-586.2 2540.86,-587.39 2547.39,-588.68 2553.81,-590.08 2560.09,-591.57 2566.22,-593.16 2572.2,-594.84 2578.02,-596.61 2583.65,-598.45 2589.08,-600.38 2594.29,-602.37 2599.28,-604.43 2604.01,-606.56 2608.47,-608.73 2612.64,-610.95 2616.5,-613.21 2620.03,-615.51 2623.21,-617.84 2626.01,-620.18 2628.42,-622.54 2630.41,-624.91 2631.97,-627.28 2633.08,-629.64 2633.71,-631.99 2633.85,-634.31 2633.48,-636.61 2632.6,-638.87 2631.18,-641.09 2629.22,-643.27 2626.72,-645.39 2623.65,-647.44 2620.03,-649.43 2615.85,-651.35 2611.11,-653.19 2605.82,-654.95 2599.99,-656.62 2593.63,-658.19 2586.75,-659.67 2579.37,-661.04 2571.51,-662.31 2563.19,-663.47 2554.44,-664.52 2545.29,-665.45 2535.77,-666.27 2525.91,-666.97 2515.76,-667.54 2505.33,-668 2494.69,-668.33 2483.86,-668.53 2472.9,-668.62 2461.84,-668.58 2450.74,-668.42 2439.63,-668.14 2428.56,-667.74 2417.58,-667.21"/>
<text text-anchor="middle" x="2457.74" y="-620.63" font-family="sans-serif" font-size="16.00">GestionSesionesContext</text>
</g>
<!-- GestionSesionesContext&#45;&gt;CarritoComprasContext -->
<g id="edge13" class="edge">
<title>GestionSesionesContext&#45;&gt;CarritoComprasContext</title>
<path fill="none" stroke="black" stroke-width="2" d="M2352.09,-592.96C2320.29,-583.29 2285.43,-572.18 2253.74,-560.99 2217.08,-548.04 2177.18,-532.31 2143,-518.32"/>
<text text-anchor="middle" x="2309.74" y="-551.39" font-family="sans-serif" font-size="12.00">Customer/Supplier</text>
<polygon fill="white" stroke="transparent" points="2136,-509.32 2136,-526.32 2150,-526.32 2150,-509.32 2136,-509.32"/>
<text text-anchor="start" x="2138" y="-514.72" font-family="sans-serif" font-size="12.00">D</text>
<polygon fill="white" stroke="transparent" points="2345.09,-583.96 2345.09,-600.96 2359.09,-600.96 2359.09,-583.96 2345.09,-583.96"/>
<text text-anchor="start" x="2347.09" y="-589.36" font-family="sans-serif" font-size="12.00">U</text>
</g>
<!-- SeguridadContext -->
<g id="node10" class="node">
<title>SeguridadContext</title>
<polygon fill="none" stroke="black" stroke-width="2" points="2329.74,-463.58 2333.16,-460.93 2336.91,-458.34 2340.96,-455.83 2345.31,-453.41 2349.94,-451.08 2354.82,-448.86 2359.96,-446.75 2365.32,-444.77 2370.89,-442.91 2376.66,-441.2 2382.6,-439.62 2388.7,-438.2 2394.95,-436.93 2401.32,-435.82 2407.8,-434.86 2414.37,-434.08 2421.01,-433.45 2427.71,-432.99 2434.44,-432.7 2441.2,-432.57 2447.97,-432.6 2454.72,-432.79 2461.45,-433.14 2468.14,-433.63 2474.77,-434.28 2481.33,-435.06 2487.81,-435.98 2494.19,-437.04 2500.45,-438.21 2506.59,-439.5 2512.59,-440.9 2518.43,-442.4 2524.12,-443.99 2529.62,-445.67 2534.94,-447.43 2540.06,-449.26 2544.97,-451.15 2549.66,-453.09 2554.11,-455.08 2558.32,-457.11 2562.28,-459.17 2565.97,-461.25 2569.4,-463.36 2572.54,-465.47 2575.4,-467.6 2577.95,-469.72 2580.2,-471.84 2582.14,-473.96 2583.76,-476.06 2585.06,-478.14 2586.02,-480.21 2586.64,-482.25 2586.93,-484.26 2586.87,-486.25 2586.46,-488.21 2585.69,-490.14 2584.58,-492.03 2583.12,-493.88 2581.3,-495.7 2579.13,-497.48 2576.61,-499.23 2573.74,-500.93 2570.53,-502.59 2566.99,-504.21 2563.12,-505.79 2558.92,-507.32 2554.41,-508.81 2549.59,-510.25 2544.48,-511.64 2539.09,-512.98 2533.43,-514.26 2527.52,-515.49 2521.37,-516.67 2515,-517.78 2508.43,-518.83 2501.66,-519.81 2494.74,-520.72 2487.66,-521.55 2480.46,-522.31 2473.16,-522.99 2465.77,-523.58 2458.33,-524.08 2450.85,-524.48 2443.36,-524.79 2435.88,-524.99 2428.44,-525.09 2421.05,-525.08 2413.75,-524.95 2406.56,-524.7 2399.5,-524.33 2392.6,-523.84 2385.87,-523.22 2379.34,-522.48 2373.03,-521.6 2366.96,-520.6 2361.15,-519.46 2355.62,-518.19 2350.39,-516.79 2345.47,-515.27 2340.88,-513.62 2336.64,-511.84 2332.75,-509.95 2329.23,-507.94 2326.09,-505.83 2323.33,-503.61 2320.96,-501.29 2319,-498.88 2317.44,-496.39 2316.28,-493.82 2315.53,-491.19 2315.19,-488.51 2315.26,-485.78 2315.72,-483.01 2316.59,-480.22 2317.85,-477.41 2319.49,-474.61 2321.51,-471.81 2323.9,-469.03 2326.64,-466.28 2329.74,-463.58"/>
<text text-anchor="middle" x="2453.74" y="-477.42" font-family="sans-serif" font-size="16.00">SeguridadContext</text>
</g>
<!-- GestionSesionesContext&#45;&gt;SeguridadContext -->
<g id="edge14" class="edge">
<title>GestionSesionesContext&#45;&gt;SeguridadContext</title>
<path fill="none" stroke="black" stroke-width="2" d="M2392.81,-585.67C2385.13,-578.47 2378.39,-570.24 2373.74,-560.99 2366.73,-547.06 2371.92,-534.14 2382.36,-522.97"/>
<text text-anchor="middle" x="2429.74" y="-551.39" font-family="sans-serif" font-size="12.00">Customer/Supplier</text>
<polygon fill="white" stroke="transparent" points="2375.36,-513.97 2375.36,-530.97 2389.36,-530.97 2389.36,-513.97 2375.36,-513.97"/>
<text text-anchor="start" x="2377.36" y="-519.37" font-family="sans-serif" font-size="12.00">D</text>
<polygon fill="white" stroke="transparent" points="2385.81,-576.67 2385.81,-593.67 2399.81,-593.67 2399.81,-576.67 2385.81,-576.67"/>
<text text-anchor="start" x="2387.81" y="-582.07" font-family="sans-serif" font-size="12.00">U</text>
</g>
<!-- SeguridadContext&#45;&gt;GestionSesionesContext -->
<g id="edge15" class="edge">
<title>SeguridadContext&#45;&gt;GestionSesionesContext</title>
<path fill="none" stroke="black" stroke-width="2" d="M2477.03,-522.92C2480.63,-530.99 2483.8,-539.58 2485.74,-547.99 2488.25,-558.88 2486.45,-570.33 2482.8,-580.93"/>
<text text-anchor="middle" x="2542.74" y="-551.39" font-family="sans-serif" font-size="12.00">Customer/Supplier</text>
<polygon fill="white" stroke="transparent" points="2475.8,-571.93 2475.8,-588.93 2489.8,-588.93 2489.8,-571.93 2475.8,-571.93"/>
<text text-anchor="start" x="2477.8" y="-577.33" font-family="sans-serif" font-size="12.00">D</text>
<polygon fill="white" stroke="transparent" points="2470.03,-513.92 2470.03,-530.92 2484.03,-530.92 2484.03,-513.92 2470.03,-513.92"/>
<text text-anchor="start" x="2472.03" y="-519.32" font-family="sans-serif" font-size="12.00">U</text>
</g>
<!-- IntegracionRedesSocialesContext -->
<g id="node11" class="node">
<title>IntegracionRedesSocialesContext</title>
<polygon fill="none" stroke="black" stroke-width="2" points="794.45,-449.05 805.29,-450.95 815.64,-452.93 825.47,-454.98 834.73,-457.1 843.38,-459.26 851.39,-461.48 858.72,-463.73 865.34,-466.01 871.22,-468.31 876.34,-470.63 880.68,-472.95 884.22,-475.28 886.95,-477.6 888.85,-479.9 889.93,-482.19 890.19,-484.45 889.62,-486.68 888.23,-488.88 886.03,-491.03 883.04,-493.14 879.27,-495.2 874.75,-497.2 869.5,-499.14 863.54,-501.03 856.91,-502.84 849.64,-504.59 841.77,-506.27 833.33,-507.88 824.37,-509.42 814.91,-510.87 805.01,-512.25 794.71,-513.56 784.05,-514.78 773.08,-515.92 761.83,-516.97 750.36,-517.94 738.71,-518.83 726.92,-519.64 715.02,-520.35 703.07,-520.98 691.11,-521.53 679.16,-521.98 667.26,-522.35 655.46,-522.62 643.78,-522.81 632.25,-522.9 620.91,-522.9 609.76,-522.81 598.86,-522.62 588.2,-522.34 577.81,-521.97 567.72,-521.5 557.93,-520.93 548.46,-520.27 539.32,-519.51 530.53,-518.66 522.08,-517.71 513.99,-516.66 506.27,-515.51 498.91,-514.27 491.93,-512.94 485.32,-511.51 479.09,-509.99 473.24,-508.39 467.78,-506.69 462.7,-504.91 458.01,-503.05 453.71,-501.12 449.79,-499.11 446.28,-497.03 443.15,-494.88 440.43,-492.68 438.12,-490.42 436.21,-488.11 434.72,-485.76 433.64,-483.38 433,-480.97 432.78,-478.54 433.01,-476.09 433.69,-473.64 434.82,-471.19 436.41,-468.76 438.48,-466.34 441.02,-463.95 444.05,-461.6 447.57,-459.3 451.59,-457.04 456.11,-454.86 461.14,-452.74 466.68,-450.7 472.72,-448.75 479.28,-446.89 486.34,-445.14 493.9,-443.49 501.96,-441.97 510.5,-440.56 519.52,-439.28 528.99,-438.13 538.92,-437.13 549.26,-436.26 560.02,-435.53 571.14,-434.96 582.63,-434.53 594.43,-434.26 606.52,-434.13 618.87,-434.16 631.43,-434.34 644.18,-434.67 657.06,-435.15 670.03,-435.77 683.05,-436.53 696.07,-437.44 709.05,-438.48 721.93,-439.64 734.66,-440.94 747.21,-442.35 759.51,-443.87 771.51,-445.5 783.18,-447.23 794.45,-449.05"/>
<text text-anchor="middle" x="643.74" y="-477.42" font-family="sans-serif" font-size="16.00">IntegracionRedesSocialesContext</text>
</g>
<!-- IntegracionRedesSocialesContext&#45;&gt;VentasContext -->
<g id="edge16" class="edge">
<title>IntegracionRedesSocialesContext&#45;&gt;VentasContext</title>
<path fill="none" stroke="black" stroke-width="2" d="M770.34,-445.21C865.72,-418.84 994.07,-383.35 1078.54,-359.99"/>
<text text-anchor="middle" x="956.24" y="-404.86" font-family="sans-serif" font-size="12.00">Partnership</text>
</g>
<!-- NotificacionesComunicacionesContext -->
<g id="node12" class="node">
<title>NotificacionesComunicacionesContext</title>
<polygon fill="none" stroke="black" stroke-width="2" points="926.53,-493.54 921.69,-490.81 917.54,-488.06 914.11,-485.31 911.41,-482.56 909.45,-479.83 908.25,-477.12 907.81,-474.46 908.15,-471.83 909.26,-469.26 911.15,-466.76 913.82,-464.33 917.26,-461.98 921.47,-459.71 926.43,-457.54 932.13,-455.47 938.55,-453.51 945.68,-451.66 953.49,-449.92 961.96,-448.29 971.05,-446.79 980.75,-445.41 991.01,-444.15 1001.81,-443.02 1013.1,-442.01 1024.85,-441.12 1037.02,-440.36 1049.57,-439.72 1062.45,-439.19 1075.62,-438.79 1089.04,-438.49 1102.65,-438.31 1116.42,-438.24 1130.3,-438.27 1144.24,-438.41 1158.2,-438.64 1172.13,-438.97 1185.99,-439.39 1199.74,-439.89 1213.32,-440.48 1226.7,-441.15 1239.85,-441.9 1252.71,-442.72 1265.26,-443.61 1277.45,-444.57 1289.26,-445.59 1300.66,-446.68 1311.61,-447.83 1322.08,-449.03 1332.06,-450.3 1341.51,-451.61 1350.43,-452.99 1358.78,-454.41 1366.55,-455.89 1373.73,-457.41 1380.31,-458.99 1386.27,-460.61 1391.61,-462.28 1396.32,-464 1400.4,-465.76 1403.84,-467.57 1406.65,-469.42 1408.81,-471.31 1410.35,-473.24 1411.25,-475.21 1411.53,-477.21 1411.18,-479.25 1410.23,-481.32 1408.67,-483.41 1406.52,-485.53 1403.78,-487.67 1400.47,-489.82 1396.59,-491.99 1392.17,-494.16 1387.21,-496.33 1381.73,-498.49 1375.74,-500.64 1369.25,-502.77 1362.29,-504.88 1354.86,-506.95 1346.99,-508.98 1338.68,-510.96 1329.96,-512.89 1320.85,-514.75 1311.36,-516.54 1301.5,-518.25 1291.31,-519.87 1280.8,-521.39 1269.99,-522.81 1258.9,-524.11 1247.55,-525.3 1235.97,-526.36 1224.17,-527.28 1212.19,-528.07 1200.05,-528.72 1187.77,-529.21 1175.39,-529.55 1162.92,-529.73 1150.4,-529.76 1137.86,-529.62 1125.32,-529.31 1112.82,-528.84 1100.39,-528.21 1088.06,-527.41 1075.86,-526.45 1063.83,-525.34 1052.01,-524.06 1040.42,-522.64 1029.09,-521.07 1018.08,-519.35 1007.4,-517.51 997.1,-515.53 987.2,-513.44 977.74,-511.24 968.76,-508.93 960.28,-506.54 952.34,-504.06 944.97,-501.51 938.19,-498.9 932.03,-496.24 926.53,-493.54"/>
<text text-anchor="middle" x="1166.74" y="-477.42" font-family="sans-serif" font-size="16.00">NotificacionesComunicacionesContext</text>
</g>
<!-- NotificacionesComunicacionesContext&#45;&gt;VentasContext -->
<g id="edge17" class="edge">
<title>NotificacionesComunicacionesContext&#45;&gt;VentasContext</title>
<path fill="none" stroke="black" stroke-width="2" d="M1166.74,-438.78C1166.74,-421.5 1166.74,-401.33 1166.74,-383.43"/>
<text text-anchor="middle" x="1201.24" y="-404.86" font-family="sans-serif" font-size="12.00">Partnership</text>
</g>
<!-- ProcesoPagosContext -->
<g id="node13" class="node">
<title>ProcesoPagosContext</title>
<polygon fill="none" stroke="black" stroke-width="2" points="2702.7,-232.98 2692.77,-233.34 2682.85,-233.58 2672.99,-233.69 2663.22,-233.68 2653.59,-233.54 2644.12,-233.28 2634.87,-232.89 2625.85,-232.37 2617.1,-231.73 2608.66,-230.97 2600.56,-230.09 2592.81,-229.09 2585.45,-227.97 2578.49,-226.74 2571.95,-225.39 2565.86,-223.95 2560.22,-222.4 2555.04,-220.75 2550.34,-219.01 2546.13,-217.18 2542.39,-215.27 2539.14,-213.28 2536.38,-211.22 2534.09,-209.1 2532.28,-206.92 2530.94,-204.69 2530.05,-202.41 2529.61,-200.1 2529.61,-197.76 2530.03,-195.4 2530.85,-193.02 2532.07,-190.64 2533.66,-188.25 2535.6,-185.87 2537.89,-183.51 2540.5,-181.16 2543.42,-178.85 2546.62,-176.57 2550.1,-174.33 2553.83,-172.14 2557.81,-170 2562,-167.93 2566.41,-165.92 2571.02,-163.99 2575.81,-162.13 2580.77,-160.35 2585.89,-158.67 2591.16,-157.07 2596.58,-155.57 2602.14,-154.17 2607.82,-152.87 2613.62,-151.68 2619.54,-150.6 2625.57,-149.63 2631.7,-148.77 2637.94,-148.02 2644.27,-147.39 2650.69,-146.88 2657.21,-146.48 2663.81,-146.21 2670.49,-146.04 2677.25,-146 2684.07,-146.07 2690.96,-146.26 2697.91,-146.56 2704.91,-146.97 2711.94,-147.5 2719.01,-148.13 2726.09,-148.87 2733.18,-149.72 2740.26,-150.66 2747.31,-151.7 2754.33,-152.84 2761.29,-154.08 2768.17,-155.4 2774.96,-156.8 2781.62,-158.29 2788.15,-159.86 2794.51,-161.5 2800.68,-163.21 2806.64,-164.99 2812.36,-166.82 2817.81,-168.72 2822.97,-170.67 2827.82,-172.66 2832.32,-174.7 2836.46,-176.78 2840.2,-178.89 2843.53,-181.02 2846.41,-183.19 2848.84,-185.37 2850.79,-187.56 2852.23,-189.76 2853.16,-191.97 2853.56,-194.17 2853.42,-196.36 2852.73,-198.54 2851.48,-200.7 2849.66,-202.84 2847.28,-204.95 2844.33,-207.02 2840.83,-209.05 2836.77,-211.04 2832.16,-212.97 2827.02,-214.85 2821.37,-216.67 2815.22,-218.42 2808.6,-220.1 2801.52,-221.7 2794.01,-223.22 2786.11,-224.65 2777.83,-225.99 2769.23,-227.24 2760.32,-228.38 2751.15,-229.43 2741.76,-230.36 2732.17,-231.19 2722.44,-231.91 2712.61,-232.5 2702.7,-232.98"/>
<text text-anchor="middle" x="2685.74" y="-185.64" font-family="sans-serif" font-size="16.00">ProcesoPagosContext</text>
</g>
<!-- ProcesoPagosContext&#45;&gt;GestionPedidosContext -->
<g id="edge18" class="edge">
<title>ProcesoPagosContext&#45;&gt;GestionPedidosContext</title>
<path fill="none" stroke="black" stroke-width="2" d="M2616.75,-151.06C2582.44,-132.48 2540.82,-109.92 2505.19,-90.62"/>
<text text-anchor="middle" x="2618.74" y="-114.55" font-family="sans-serif" font-size="12.00">Customer/Supplier</text>
<polygon fill="white" stroke="transparent" points="2498.19,-81.62 2498.19,-98.62 2512.19,-98.62 2512.19,-81.62 2498.19,-81.62"/>
<text text-anchor="start" x="2500.19" y="-87.02" font-family="sans-serif" font-size="12.00">D</text>
<polygon fill="white" stroke="transparent" points="2609.75,-142.06 2609.75,-159.06 2623.75,-159.06 2623.75,-142.06 2609.75,-142.06"/>
<text text-anchor="start" x="2611.75" y="-147.46" font-family="sans-serif" font-size="12.00">U</text>
</g>
<!-- ServicioClienteContext -->
<g id="node14" class="node">
<title>ServicioClienteContext</title>
<polygon fill="none" stroke="black" stroke-width="2" points="1518.32,-447.17 1526.38,-445.31 1534.67,-443.56 1543.16,-441.92 1551.82,-440.4 1560.62,-439.01 1569.51,-437.75 1578.48,-436.63 1587.49,-435.65 1596.5,-434.82 1605.49,-434.14 1614.43,-433.62 1623.3,-433.25 1632.05,-433.04 1640.68,-432.99 1649.15,-433.1 1657.45,-433.37 1665.55,-433.79 1673.43,-434.37 1681.08,-435.1 1688.49,-435.98 1695.63,-437.01 1702.49,-438.18 1709.07,-439.48 1715.35,-440.91 1721.33,-442.47 1726.99,-444.14 1732.34,-445.91 1737.37,-447.79 1742.07,-449.77 1746.45,-451.82 1750.49,-453.96 1754.21,-456.16 1757.6,-458.42 1760.65,-460.73 1763.38,-463.08 1765.78,-465.47 1767.85,-467.88 1769.59,-470.3 1771.01,-472.73 1772.11,-475.16 1772.88,-477.59 1773.34,-479.99 1773.47,-482.37 1773.28,-484.73 1772.78,-487.04 1771.96,-489.31 1770.82,-491.54 1769.35,-493.71 1767.58,-495.82 1765.48,-497.87 1763.06,-499.86 1760.32,-501.77 1757.26,-503.61 1753.89,-505.37 1750.19,-507.06 1746.17,-508.66 1741.84,-510.18 1737.19,-511.62 1732.22,-512.98 1726.94,-514.24 1721.36,-515.43 1715.48,-516.52 1709.3,-517.53 1702.83,-518.45 1696.08,-519.28 1689.07,-520.03 1681.8,-520.69 1674.28,-521.26 1666.53,-521.75 1658.57,-522.15 1650.41,-522.46 1642.07,-522.68 1633.58,-522.82 1624.96,-522.87 1616.22,-522.83 1607.4,-522.71 1598.51,-522.5 1589.6,-522.2 1580.68,-521.81 1571.79,-521.34 1562.96,-520.77 1554.21,-520.12 1545.58,-519.37 1537.11,-518.54 1528.82,-517.62 1520.74,-516.6 1512.92,-515.5 1505.37,-514.31 1498.14,-513.03 1491.24,-511.66 1484.72,-510.2 1478.6,-508.65 1472.9,-507.02 1467.65,-505.31 1462.87,-503.52 1458.59,-501.64 1454.83,-499.7 1451.6,-497.68 1448.91,-495.59 1446.78,-493.44 1445.22,-491.23 1444.24,-488.97 1443.85,-486.66 1444.03,-484.31 1444.8,-481.92 1446.15,-479.5 1448.08,-477.07 1450.57,-474.61 1453.61,-472.16 1457.2,-469.7 1461.31,-467.26 1465.93,-464.83 1471.04,-462.43 1476.61,-460.07 1482.62,-457.75 1489.04,-455.49 1495.85,-453.3 1503.02,-451.17 1510.52,-449.13 1518.32,-447.17"/>
<text text-anchor="middle" x="1620.74" y="-477.42" font-family="sans-serif" font-size="16.00">ServicioClienteContext</text>
</g>
<!-- ServicioClienteContext&#45;&gt;VentasContext -->
<g id="edge19" class="edge">
<title>ServicioClienteContext&#45;&gt;VentasContext</title>
<path fill="none" stroke="black" stroke-width="2" d="M1517.43,-447.32C1438.15,-422.06 1329.88,-387.57 1254.71,-363.62"/>
<text text-anchor="middle" x="1441.24" y="-404.86" font-family="sans-serif" font-size="12.00">Partnership</text>
</g>
</g>
</svg>
