<svg width="2000px" height="451px"
 viewBox="0.00 0.00 3007.67 677.90" xmlns="http://www.w3.org/2000/svg" xmlns:xlink="http://www.w3.org/1999/xlink">
<g id="graph0" class="graph" transform="scale(1.0 1.0) rotate(0) translate(4 673.9)">
<title>ContextMapGraph</title>
<polygon fill="white" stroke="transparent" points="-4,4 -4,-673.9 3003.67,-673.9 3003.67,4 -4,4"/>
<!-- AnaliticasReportingContext -->
<g id="node1" class="node">
<title>AnaliticasReportingContext</title>
<polygon fill="none" stroke="black" stroke-width="2" points="175.6,-577.55 187.63,-577.04 199.67,-576.65 211.67,-576.39 223.58,-576.25 235.36,-576.25 246.96,-576.37 258.34,-576.62 269.45,-577 280.26,-577.51 290.72,-578.15 300.8,-578.92 310.47,-579.81 319.7,-580.82 328.47,-581.95 336.73,-583.2 344.49,-584.57 351.71,-586.04 358.39,-587.62 364.51,-589.3 370.06,-591.07 375.05,-592.93 379.45,-594.88 383.29,-596.91 386.55,-599.01 389.24,-601.17 391.38,-603.39 392.97,-605.66 394.02,-607.98 394.54,-610.33 394.56,-612.71 394.09,-615.11 393.14,-617.52 391.74,-619.95 389.89,-622.37 387.63,-624.78 384.97,-627.17 381.93,-629.54 378.53,-631.88 374.79,-634.18 370.73,-636.44 366.36,-638.64 361.71,-640.79 356.78,-642.87 351.6,-644.89 346.17,-646.83 340.52,-648.68 334.65,-650.46 328.57,-652.14 322.3,-653.73 315.84,-655.22 309.21,-656.61 302.4,-657.89 295.42,-659.07 288.29,-660.14 281,-661.09 273.56,-661.93 265.98,-662.66 258.26,-663.27 250.4,-663.77 242.42,-664.15 234.31,-664.41 226.08,-664.56 217.74,-664.59 209.29,-664.51 200.75,-664.31 192.13,-664 183.44,-663.58 174.68,-663.05 165.88,-662.41 157.04,-661.67 148.2,-660.82 139.36,-659.88 130.55,-658.84 121.79,-657.71 113.1,-656.49 104.51,-655.17 96.05,-653.78 87.74,-652.3 79.62,-650.75 71.71,-649.13 64.05,-647.43 56.66,-645.67 49.59,-643.85 42.86,-641.97 36.5,-640.04 30.56,-638.06 25.05,-636.03 20.01,-633.97 15.48,-631.87 11.48,-629.74 8.03,-627.59 5.17,-625.42 2.91,-623.22 1.29,-621.02 0.3,-618.82 -0.01,-616.61 0.35,-614.41 1.39,-612.22 3.13,-610.04 5.56,-607.89 8.69,-605.76 12.51,-603.67 17.02,-601.61 22.2,-599.6 28.04,-597.63 34.53,-595.72 41.64,-593.87 49.34,-592.09 57.62,-590.37 66.43,-588.73 75.75,-587.18 85.54,-585.7 95.76,-584.32 106.36,-583.04 117.31,-581.85 128.56,-580.77 140.06,-579.79 151.76,-578.93 163.63,-578.18 175.6,-577.55"/>
<text text-anchor="middle" x="206.01" y="-617.24" font-family="sans-serif" font-size="16.00">AnaliticasReportingContext</text>
</g>
<!-- VentasContext -->
<g id="node2" class="node">
<title>VentasContext</title>
<polygon fill="none" stroke="black" stroke-width="2" points="812.34,-471.61 812.7,-468.75 813.38,-465.91 814.38,-463.11 815.68,-460.35 817.29,-457.66 819.21,-455.03 821.42,-452.49 823.92,-450.03 826.71,-447.68 829.78,-445.43 833.11,-443.29 836.71,-441.28 840.56,-439.4 844.65,-437.65 848.97,-436.04 853.5,-434.57 858.24,-433.25 863.18,-432.08 868.29,-431.05 873.56,-430.18 878.98,-429.46 884.54,-428.89 890.22,-428.47 896,-428.19 901.86,-428.06 907.8,-428.07 913.79,-428.21 919.81,-428.49 925.86,-428.9 931.91,-429.43 937.94,-430.07 943.95,-430.83 949.9,-431.69 955.79,-432.66 961.61,-433.72 967.32,-434.86 972.92,-436.09 978.39,-437.39 983.72,-438.76 988.89,-440.19 993.89,-441.68 998.7,-443.23 1003.31,-444.82 1007.71,-446.46 1011.89,-448.13 1015.82,-449.84 1019.52,-451.58 1022.95,-453.35 1026.12,-455.14 1029.01,-456.95 1031.62,-458.78 1033.94,-460.62 1035.97,-462.48 1037.7,-464.35 1039.12,-466.23 1040.23,-468.12 1041.03,-470.02 1041.52,-471.92 1041.69,-473.83 1041.55,-475.74 1041.1,-477.65 1040.34,-479.56 1039.26,-481.48 1037.88,-483.39 1036.2,-485.3 1034.22,-487.2 1031.95,-489.09 1029.39,-490.98 1026.56,-492.85 1023.46,-494.7 1020.09,-496.53 1016.48,-498.34 1012.62,-500.13 1008.53,-501.87 1004.22,-503.59 999.7,-505.26 994.99,-506.88 990.09,-508.45 985.03,-509.96 979.81,-511.4 974.44,-512.77 968.95,-514.07 963.35,-515.28 957.64,-516.39 951.86,-517.41 946.01,-518.33 940.11,-519.14 934.17,-519.83 928.21,-520.39 922.25,-520.83 916.3,-521.14 910.38,-521.3 904.51,-521.33 898.69,-521.21 892.95,-520.94 887.31,-520.51 881.76,-519.94 876.34,-519.21 871.06,-518.33 865.92,-517.29 860.95,-516.1 856.16,-514.75 851.56,-513.26 847.16,-511.62 842.98,-509.85 839.02,-507.94 835.3,-505.9 831.83,-503.74 828.62,-501.46 825.68,-499.08 823,-496.6 820.62,-494.03 818.52,-491.38 816.72,-488.67 815.21,-485.9 814.02,-483.09 813.13,-480.24 812.55,-477.37 812.29,-474.49 812.34,-471.61"/>
<text text-anchor="middle" x="927.01" y="-470.6" font-family="sans-serif" font-size="16.00">VentasContext</text>
</g>
<!-- AnaliticasReportingContext&#45;&gt;VentasContext -->
<g id="edge1" class="edge">
<title>AnaliticasReportingContext&#45;&gt;VentasContext</title>
<path fill="none" stroke="black" stroke-width="2" d="M353.93,-586.5C376.38,-581.58 399.29,-576.67 421.01,-572.18 558.96,-543.64 718.69,-513.58 821.19,-494.68"/>
<text text-anchor="middle" x="608.51" y="-544.58" font-family="sans-serif" font-size="12.00">Partnership</text>
</g>
<!-- AutenticacionAutorizacionContext -->
<g id="node3" class="node">
<title>AutenticacionAutorizacionContext</title>
<polygon fill="none" stroke="black" stroke-width="2" points="1888.36,-595.51 1896.79,-593.16 1905.67,-590.89 1914.97,-588.72 1924.66,-586.65 1934.7,-584.7 1945.05,-582.86 1955.68,-581.16 1966.55,-579.58 1977.63,-578.15 1988.88,-576.87 2000.27,-575.74 2011.76,-574.76 2023.31,-573.95 2034.9,-573.29 2046.5,-572.8 2058.07,-572.48 2069.58,-572.32 2081.01,-572.32 2092.32,-572.49 2103.5,-572.81 2114.51,-573.3 2125.34,-573.94 2135.95,-574.73 2146.35,-575.66 2156.49,-576.73 2166.36,-577.94 2175.95,-579.28 2185.24,-580.73 2194.22,-582.29 2202.87,-583.96 2211.17,-585.73 2219.11,-587.58 2226.69,-589.52 2233.89,-591.52 2240.7,-593.59 2247.11,-595.72 2253.11,-597.89 2258.68,-600.09 2263.83,-602.33 2268.54,-604.59 2272.81,-606.86 2276.62,-609.14 2279.96,-611.42 2282.83,-613.69 2285.23,-615.95 2287.13,-618.2 2288.54,-620.41 2289.45,-622.6 2289.85,-624.76 2289.74,-626.87 2289.11,-628.95 2287.95,-630.98 2286.26,-632.96 2284.04,-634.89 2281.28,-636.77 2277.98,-638.59 2274.14,-640.36 2269.77,-642.07 2264.85,-643.72 2259.41,-645.31 2253.43,-646.84 2246.93,-648.3 2239.92,-649.7 2232.4,-651.04 2224.39,-652.32 2215.9,-653.53 2206.95,-654.67 2197.55,-655.75 2187.72,-656.76 2177.49,-657.7 2166.88,-658.57 2155.91,-659.37 2144.62,-660.1 2133.02,-660.76 2121.17,-661.33 2109.08,-661.84 2096.79,-662.26 2084.35,-662.59 2071.78,-662.85 2059.13,-663.02 2046.44,-663.09 2033.75,-663.08 2021.11,-662.97 2008.55,-662.76 1996.12,-662.46 1983.86,-662.05 1971.82,-661.54 1960.03,-660.93 1948.55,-660.2 1937.42,-659.37 1926.66,-658.42 1916.33,-657.37 1906.47,-656.2 1897.1,-654.93 1888.26,-653.54 1879.99,-652.04 1872.32,-650.43 1865.27,-648.72 1858.87,-646.91 1853.14,-644.99 1848.1,-642.98 1843.77,-640.87 1840.16,-638.68 1837.29,-636.41 1835.16,-634.06 1833.77,-631.64 1833.14,-629.16 1833.25,-626.63 1834.1,-624.06 1835.68,-621.45 1837.99,-618.81 1841.02,-616.15 1844.73,-613.49 1849.12,-610.83 1854.17,-608.18 1859.85,-605.56 1866.14,-602.97 1873.01,-600.42 1880.43,-597.93 1888.36,-595.51"/>
<text text-anchor="middle" x="2072.01" y="-617.24" font-family="sans-serif" font-size="16.00">AutenticacionAutorizacionContext</text>
</g>
<!-- CarritoComprasContext -->
<g id="node4" class="node">
<title>CarritoComprasContext</title>
<polygon fill="none" stroke="black" stroke-width="2" points="1925.95,-495.17 1920.66,-492.68 1915.8,-490.14 1911.4,-487.57 1907.48,-484.98 1904.06,-482.38 1901.14,-479.78 1898.75,-477.18 1896.9,-474.6 1895.59,-472.05 1894.85,-469.53 1894.66,-467.06 1895.03,-464.63 1895.97,-462.26 1897.48,-459.96 1899.54,-457.73 1902.16,-455.58 1905.32,-453.5 1909.01,-451.52 1913.22,-449.62 1917.93,-447.82 1923.13,-446.12 1928.79,-444.52 1934.9,-443.01 1941.43,-441.62 1948.35,-440.32 1955.64,-439.13 1963.27,-438.05 1971.21,-437.07 1979.43,-436.19 1987.9,-435.42 1996.58,-434.75 2005.46,-434.18 2014.48,-433.71 2023.63,-433.33 2032.87,-433.05 2042.16,-432.87 2051.48,-432.77 2060.79,-432.77 2070.07,-432.85 2079.27,-433.02 2088.39,-433.27 2097.38,-433.61 2106.22,-434.02 2114.88,-434.52 2123.35,-435.09 2131.6,-435.74 2139.6,-436.47 2147.35,-437.27 2154.82,-438.14 2161.99,-439.09 2168.85,-440.1 2175.39,-441.19 2181.6,-442.36 2187.46,-443.59 2192.97,-444.89 2198.12,-446.26 2202.9,-447.7 2207.31,-449.21 2211.34,-450.79 2215,-452.43 2218.28,-454.14 2221.18,-455.91 2223.7,-457.74 2225.84,-459.64 2227.6,-461.59 2228.98,-463.59 2230,-465.65 2230.64,-467.76 2230.91,-469.91 2230.83,-472.1 2230.38,-474.33 2229.57,-476.59 2228.42,-478.87 2226.91,-481.17 2225.07,-483.49 2222.88,-485.81 2220.35,-488.13 2217.5,-490.44 2214.32,-492.74 2210.82,-495.01 2206.99,-497.25 2202.86,-499.45 2198.42,-501.61 2193.67,-503.7 2188.63,-505.73 2183.3,-507.68 2177.68,-509.55 2171.79,-511.33 2165.63,-513.01 2159.21,-514.59 2152.53,-516.04 2145.61,-517.38 2138.47,-518.58 2131.1,-519.65 2123.53,-520.58 2115.77,-521.37 2107.82,-522 2099.72,-522.48 2091.48,-522.79 2083.11,-522.95 2074.63,-522.95 2066.07,-522.78 2057.44,-522.45 2048.78,-521.95 2040.09,-521.3 2031.42,-520.48 2022.78,-519.51 2014.19,-518.38 2005.7,-517.1 1997.32,-515.69 1989.08,-514.13 1981.01,-512.44 1973.14,-510.63 1965.49,-508.7 1958.1,-506.67 1951,-504.53 1944.2,-502.3 1937.75,-499.99 1931.65,-497.61 1925.95,-495.17"/>
<text text-anchor="middle" x="2072.01" y="-470.6" font-family="sans-serif" font-size="16.00">CarritoComprasContext</text>
</g>
<!-- AutenticacionAutorizacionContext&#45;&gt;CarritoComprasContext -->
<g id="edge2" class="edge">
<title>AutenticacionAutorizacionContext&#45;&gt;CarritoComprasContext</title>
<path fill="none" stroke="black" stroke-width="2" d="M2072.01,-572.28C2072.01,-556.48 2072.01,-538.91 2072.01,-523.11"/>
<text text-anchor="middle" x="2128.01" y="-544.58" font-family="sans-serif" font-size="12.00">Customer/Supplier</text>
<polygon fill="white" stroke="transparent" points="2065.01,-514.11 2065.01,-531.11 2079.01,-531.11 2079.01,-514.11 2065.01,-514.11"/>
<text text-anchor="start" x="2067.01" y="-519.51" font-family="sans-serif" font-size="12.00">D</text>
<polygon fill="white" stroke="transparent" points="2065.01,-563.28 2065.01,-580.28 2079.01,-580.28 2079.01,-563.28 2065.01,-563.28"/>
<text text-anchor="start" x="2067.01" y="-568.68" font-family="sans-serif" font-size="12.00">U</text>
</g>
<!-- GestionProductosContext -->
<g id="node5" class="node">
<title>GestionProductosContext</title>
<polygon fill="none" stroke="black" stroke-width="2" points="2314.28,-295 2323.47,-296.72 2332.31,-298.54 2340.75,-300.43 2348.77,-302.39 2356.34,-304.42 2363.41,-306.5 2369.96,-308.64 2375.96,-310.81 2381.39,-313.02 2386.23,-315.26 2390.46,-317.53 2394.06,-319.8 2397.01,-322.08 2399.32,-324.37 2400.97,-326.65 2401.96,-328.92 2402.29,-331.17 2401.97,-333.4 2400.99,-335.6 2399.38,-337.77 2397.14,-339.9 2394.28,-341.99 2390.83,-344.03 2386.8,-346.03 2382.23,-347.97 2377.12,-349.85 2371.52,-351.68 2365.45,-353.44 2358.93,-355.14 2352.01,-356.76 2344.7,-358.32 2337.06,-359.81 2329.1,-361.22 2320.87,-362.55 2312.4,-363.81 2303.72,-364.98 2294.86,-366.08 2285.87,-367.09 2276.77,-368.01 2267.59,-368.85 2258.37,-369.61 2249.13,-370.27 2239.91,-370.84 2230.72,-371.32 2221.6,-371.71 2212.56,-372 2203.64,-372.2 2194.85,-372.3 2186.2,-372.3 2177.72,-372.21 2169.43,-372.01 2161.32,-371.71 2153.43,-371.31 2145.75,-370.81 2138.3,-370.21 2131.08,-369.5 2124.1,-368.69 2117.38,-367.77 2110.9,-366.76 2104.68,-365.64 2098.72,-364.42 2093.03,-363.1 2087.6,-361.68 2082.44,-360.17 2077.55,-358.56 2072.93,-356.86 2068.59,-355.08 2064.53,-353.2 2060.75,-351.25 2057.25,-349.22 2054.04,-347.12 2051.13,-344.95 2048.52,-342.72 2046.21,-340.44 2044.22,-338.11 2042.54,-335.73 2041.19,-333.32 2040.17,-330.88 2039.49,-328.42 2039.17,-325.94 2039.2,-323.46 2039.6,-320.99 2040.38,-318.53 2041.55,-316.08 2043.11,-313.67 2045.07,-311.29 2047.44,-308.96 2050.23,-306.68 2053.44,-304.47 2057.08,-302.32 2061.16,-300.26 2065.66,-298.28 2070.6,-296.4 2075.97,-294.61 2081.77,-292.94 2088,-291.38 2094.64,-289.94 2101.7,-288.62 2109.15,-287.44 2116.98,-286.39 2125.18,-285.47 2133.73,-284.7 2142.61,-284.08 2151.8,-283.6 2161.27,-283.26 2170.99,-283.08 2180.93,-283.04 2191.07,-283.15 2201.36,-283.41 2211.78,-283.81 2222.29,-284.35 2232.85,-285.03 2243.41,-285.85 2253.95,-286.8 2264.42,-287.88 2274.78,-289.08 2284.99,-290.4 2295,-291.83 2304.78,-293.36 2314.28,-295"/>
<text text-anchor="middle" x="2207.01" y="-326.13" font-family="sans-serif" font-size="16.00">GestionProductosContext</text>
</g>
<!-- CarritoComprasContext&#45;&gt;GestionProductosContext -->
<g id="edge3" class="edge">
<title>CarritoComprasContext&#45;&gt;GestionProductosContext</title>
<path fill="none" stroke="black" stroke-width="2" d="M2151.72,-437.64C2164.2,-429.24 2175.95,-419.27 2185.01,-407.63 2192.93,-397.46 2197.99,-384.56 2201.24,-372.25"/>
<text text-anchor="middle" x="2249.01" y="-398.03" font-family="sans-serif" font-size="12.00">Customer/Supplier</text>
<polygon fill="white" stroke="transparent" points="2194.24,-363.25 2194.24,-380.25 2208.24,-380.25 2208.24,-363.25 2194.24,-363.25"/>
<text text-anchor="start" x="2196.24" y="-368.65" font-family="sans-serif" font-size="12.00">D</text>
<polygon fill="white" stroke="transparent" points="2144.72,-428.64 2144.72,-445.64 2158.72,-445.64 2158.72,-428.64 2144.72,-428.64"/>
<text text-anchor="start" x="2146.72" y="-434.04" font-family="sans-serif" font-size="12.00">U</text>
</g>
<!-- GestionClientesContext -->
<g id="node6" class="node">
<title>GestionClientesContext</title>
<polygon fill="none" stroke="black" stroke-width="2" points="1806.85,-145.3 1817.07,-144.36 1827.37,-143.53 1837.71,-142.83 1848.05,-142.26 1858.35,-141.81 1868.56,-141.51 1878.66,-141.34 1888.6,-141.3 1898.35,-141.41 1907.88,-141.65 1917.14,-142.04 1926.13,-142.56 1934.79,-143.22 1943.12,-144.02 1951.09,-144.95 1958.67,-146.01 1965.86,-147.2 1972.62,-148.52 1978.96,-149.95 1984.86,-151.5 1990.31,-153.16 1995.31,-154.92 1999.86,-156.78 2003.94,-158.74 2007.57,-160.77 2010.74,-162.89 2013.47,-165.08 2015.75,-167.33 2017.59,-169.63 2019.01,-171.98 2020,-174.37 2020.59,-176.8 2020.79,-179.24 2020.6,-181.7 2020.04,-184.17 2019.12,-186.63 2017.86,-189.09 2016.26,-191.52 2014.34,-193.94 2012.12,-196.32 2009.59,-198.66 2006.79,-200.95 2003.7,-203.19 2000.35,-205.37 1996.75,-207.49 1992.9,-209.54 1988.81,-211.5 1984.48,-213.39 1979.93,-215.19 1975.16,-216.9 1970.17,-218.52 1964.97,-220.04 1959.56,-221.46 1953.95,-222.78 1948.14,-223.99 1942.13,-225.1 1935.93,-226.1 1929.54,-226.99 1922.96,-227.77 1916.2,-228.44 1909.26,-229 1902.15,-229.45 1894.87,-229.79 1887.44,-230.01 1879.85,-230.13 1872.13,-230.14 1864.28,-230.05 1856.31,-229.85 1848.24,-229.54 1840.08,-229.14 1831.84,-228.63 1823.56,-228.02 1815.24,-227.32 1806.92,-226.52 1798.6,-225.63 1790.32,-224.66 1782.1,-223.59 1773.96,-222.44 1765.95,-221.2 1758.08,-219.89 1750.38,-218.49 1742.89,-217.03 1735.63,-215.49 1728.64,-213.88 1721.94,-212.2 1715.58,-210.47 1709.57,-208.67 1703.96,-206.81 1698.76,-204.91 1694.01,-202.95 1689.73,-200.95 1685.94,-198.9 1682.68,-196.82 1679.97,-194.71 1677.81,-192.56 1676.24,-190.39 1675.26,-188.21 1674.88,-186 1675.12,-183.79 1675.98,-181.57 1677.47,-179.35 1679.58,-177.14 1682.31,-174.94 1685.66,-172.76 1689.62,-170.6 1694.17,-168.48 1699.29,-166.38 1704.98,-164.33 1711.21,-162.33 1717.96,-160.39 1725.19,-158.51 1732.88,-156.69 1741.01,-154.95 1749.52,-153.28 1758.4,-151.71 1767.6,-150.22 1777.08,-148.83 1786.81,-147.55 1796.75,-146.37 1806.85,-145.3"/>
<text text-anchor="middle" x="1859.01" y="-183.37" font-family="sans-serif" font-size="16.00">GestionClientesContext</text>
</g>
<!-- CarritoComprasContext&#45;&gt;GestionClientesContext -->
<g id="edge4" class="edge">
<title>CarritoComprasContext&#45;&gt;GestionClientesContext</title>
<path fill="none" stroke="black" stroke-width="2" d="M1921.54,-446.43C1847.69,-429.81 1769.93,-406.05 1748.01,-376.63 1723.22,-343.34 1730.66,-320.94 1748.01,-283.24 1758.57,-260.3 1777.68,-240.83 1797.12,-225.6"/>
<text text-anchor="middle" x="1804.01" y="-326.83" font-family="sans-serif" font-size="12.00">Customer/Supplier</text>
<polygon fill="white" stroke="transparent" points="1790.12,-216.6 1790.12,-233.6 1804.12,-233.6 1804.12,-216.6 1790.12,-216.6"/>
<text text-anchor="start" x="1792.12" y="-222" font-family="sans-serif" font-size="12.00">D</text>
<polygon fill="white" stroke="transparent" points="1914.54,-437.43 1914.54,-454.43 1928.54,-454.43 1928.54,-437.43 1914.54,-437.43"/>
<text text-anchor="start" x="1916.54" y="-442.83" font-family="sans-serif" font-size="12.00">U</text>
</g>
<!-- GestionProductosContext&#45;&gt;CarritoComprasContext -->
<g id="edge7" class="edge">
<title>GestionProductosContext&#45;&gt;CarritoComprasContext</title>
<path fill="none" stroke="black" stroke-width="2" d="M2099.52,-364.68C2087.47,-372.67 2076.76,-382.51 2069.01,-394.63 2061.93,-405.69 2060.58,-419.54 2061.66,-432.52"/>
<text text-anchor="middle" x="2125.01" y="-398.03" font-family="sans-serif" font-size="12.00">Customer/Supplier</text>
<polygon fill="white" stroke="transparent" points="2054.66,-423.52 2054.66,-440.52 2068.66,-440.52 2068.66,-423.52 2054.66,-423.52"/>
<text text-anchor="start" x="2056.66" y="-428.92" font-family="sans-serif" font-size="12.00">D</text>
<polygon fill="white" stroke="transparent" points="2092.52,-355.68 2092.52,-372.68 2106.52,-372.68 2106.52,-355.68 2092.52,-355.68"/>
<text text-anchor="start" x="2094.52" y="-361.08" font-family="sans-serif" font-size="12.00">U</text>
</g>
<!-- GestionProductosContext&#45;&gt;GestionClientesContext -->
<g id="edge5" class="edge">
<title>GestionProductosContext&#45;&gt;GestionClientesContext</title>
<path fill="none" stroke="black" stroke-width="2" d="M2077.56,-294.13C2050.88,-285.67 2023.24,-275.93 1998.01,-265.24 1972.99,-254.63 1946.65,-240.77 1923.7,-227.74"/>
<text text-anchor="middle" x="2040.01" y="-255.64" font-family="sans-serif" font-size="12.00">Shared Kernel</text>
</g>
<!-- GestionDevolucionesContext -->
<g id="node7" class="node">
<title>GestionDevolucionesContext</title>
<polygon fill="none" stroke="black" stroke-width="2" points="2286.51,-231.18 2273.71,-231.39 2260.97,-231.48 2248.31,-231.45 2235.81,-231.29 2223.51,-231.01 2211.46,-230.6 2199.7,-230.07 2188.28,-229.41 2177.23,-228.64 2166.61,-227.75 2156.44,-226.74 2146.75,-225.61 2137.59,-224.38 2128.97,-223.04 2120.92,-221.59 2113.46,-220.04 2106.61,-218.4 2100.37,-216.66 2094.76,-214.84 2089.79,-212.94 2085.46,-210.96 2081.77,-208.92 2078.71,-206.81 2076.28,-204.64 2074.47,-202.42 2073.28,-200.16 2072.68,-197.86 2072.66,-195.53 2073.2,-193.18 2074.29,-190.81 2075.91,-188.43 2078.02,-186.05 2080.62,-183.68 2083.67,-181.32 2087.15,-178.98 2091.04,-176.66 2095.32,-174.38 2099.96,-172.13 2104.93,-169.93 2110.22,-167.79 2115.81,-165.7 2121.67,-163.68 2127.78,-161.73 2134.13,-159.86 2140.7,-158.06 2147.47,-156.35 2154.42,-154.73 2161.55,-153.21 2168.83,-151.78 2176.27,-150.46 2183.85,-149.24 2191.55,-148.13 2199.38,-147.13 2207.33,-146.25 2215.38,-145.48 2223.54,-144.82 2231.79,-144.28 2240.14,-143.86 2248.57,-143.56 2257.09,-143.38 2265.68,-143.32 2274.34,-143.38 2283.06,-143.55 2291.83,-143.85 2300.66,-144.25 2309.51,-144.77 2318.4,-145.41 2327.29,-146.15 2336.18,-147 2345.06,-147.96 2353.9,-149.01 2362.69,-150.17 2371.4,-151.42 2380.02,-152.76 2388.52,-154.19 2396.88,-155.71 2405.06,-157.31 2413.05,-158.98 2420.8,-160.72 2428.3,-162.54 2435.51,-164.41 2442.4,-166.34 2448.94,-168.33 2455.09,-170.36 2460.83,-172.44 2466.11,-174.56 2470.92,-176.71 2475.22,-178.88 2478.97,-181.08 2482.16,-183.3 2484.75,-185.53 2486.73,-187.76 2488.06,-190 2488.74,-192.23 2488.73,-194.44 2488.04,-196.65 2486.64,-198.83 2484.53,-200.98 2481.7,-203.1 2478.16,-205.19 2473.9,-207.22 2468.94,-209.21 2463.27,-211.15 2456.93,-213.02 2449.91,-214.83 2442.25,-216.58 2433.97,-218.24 2425.09,-219.83 2415.65,-221.33 2405.69,-222.74 2395.23,-224.06 2384.33,-225.29 2373.02,-226.41 2361.35,-227.43 2349.37,-228.34 2337.12,-229.14 2324.66,-229.83 2312.04,-230.4 2299.3,-230.85 2286.51,-231.18"/>
<text text-anchor="middle" x="2275.01" y="-183.37" font-family="sans-serif" font-size="16.00">GestionDevolucionesContext</text>
</g>
<!-- GestionProductosContext&#45;&gt;GestionDevolucionesContext -->
<g id="edge6" class="edge">
<title>GestionProductosContext&#45;&gt;GestionDevolucionesContext</title>
<path fill="none" stroke="black" stroke-width="2" d="M2228.53,-284.39C2236.7,-267.48 2245.99,-248.25 2254.1,-231.46"/>
<text text-anchor="middle" x="2319.51" y="-255.64" font-family="sans-serif" font-size="12.00"> &#160;&#160;&#160;&#160;&#160;&#160;&#160;&#160;&#160;&#160;&#160;&#160;&#160;&#160;&#160;&#160;&#160;&#160;&#160;&#160;&#160;&#160;&#160;&#160;&#160;&#160;&#160;&#160;&#160;&#160;&#160;&#160;&#160;&#160;&#160;&#160;&#160;&#160;&#160;</text>
<polygon fill="white" stroke="transparent" points="2235.1,-221.46 2235.1,-240.46 2251.1,-240.46 2251.1,-221.46 2235.1,-221.46"/>
<polyline fill="none" stroke="black" points="2251.1,-221.46 2251.1,-240.46 "/>
<text text-anchor="start" x="2238.1" y="-227.86" font-family="sans-serif" font-size="12.00">D</text>
<polygon fill="white" stroke="transparent" points="2251.1,-221.46 2251.1,-240.46 2273.1,-240.46 2273.1,-221.46 2251.1,-221.46"/>
<polygon fill="none" stroke="black" points="2251.1,-221.46 2251.1,-240.46 2273.1,-240.46 2273.1,-221.46 2251.1,-221.46"/>
<text text-anchor="start" x="2254.1" y="-227.86" font-family="sans-serif" font-size="12.00">CF</text>
<polygon fill="white" stroke="transparent" points="2193.53,-274.39 2193.53,-293.39 2209.53,-293.39 2209.53,-274.39 2193.53,-274.39"/>
<polyline fill="none" stroke="black" points="2209.53,-274.39 2209.53,-293.39 "/>
<text text-anchor="start" x="2196.53" y="-280.79" font-family="sans-serif" font-size="12.00">U</text>
<polygon fill="white" stroke="transparent" points="2209.53,-274.39 2209.53,-293.39 2264.53,-293.39 2264.53,-274.39 2209.53,-274.39"/>
<polygon fill="none" stroke="black" points="2209.53,-274.39 2209.53,-293.39 2264.53,-293.39 2264.53,-274.39 2209.53,-274.39"/>
<text text-anchor="start" x="2212.53" y="-280.79" font-family="sans-serif" font-size="12.00">OHS, PL</text>
</g>
<!-- GestionClientesContext&#45;&gt;CarritoComprasContext -->
<g id="edge8" class="edge">
<title>GestionClientesContext&#45;&gt;CarritoComprasContext</title>
<path fill="none" stroke="black" stroke-width="2" d="M1861.88,-230.36C1865.88,-278.58 1874.58,-353.8 1891.01,-376.63 1909.96,-402.94 1938.31,-422.78 1966.98,-437.41"/>
<text text-anchor="middle" x="1947.01" y="-326.83" font-family="sans-serif" font-size="12.00">Customer/Supplier</text>
<polygon fill="white" stroke="transparent" points="1959.98,-428.41 1959.98,-445.41 1973.98,-445.41 1973.98,-428.41 1959.98,-428.41"/>
<text text-anchor="start" x="1961.98" y="-433.81" font-family="sans-serif" font-size="12.00">D</text>
<polygon fill="white" stroke="transparent" points="1854.88,-221.36 1854.88,-238.36 1868.88,-238.36 1868.88,-221.36 1854.88,-221.36"/>
<text text-anchor="start" x="1856.88" y="-226.76" font-family="sans-serif" font-size="12.00">U</text>
</g>
<!-- GestionClientesContext&#45;&gt;GestionProductosContext -->
<g id="edge9" class="edge">
<title>GestionClientesContext&#45;&gt;GestionProductosContext</title>
<path fill="none" stroke="black" stroke-width="2" d="M1978.01,-215.93C2012.26,-225.63 2049.21,-237.78 2082.01,-252.24 2102.05,-261.06 2122.73,-272.62 2141.36,-284.07"/>
<text text-anchor="middle" x="2150.01" y="-255.64" font-family="sans-serif" font-size="12.00">Shared Kernel</text>
</g>
<!-- GestionPedidosContext -->
<g id="node8" class="node">
<title>GestionPedidosContext</title>
<polygon fill="none" stroke="black" stroke-width="2" points="2531.41,-6.95 2540.87,-8.29 2550.04,-9.73 2558.91,-11.26 2567.42,-12.88 2575.56,-14.58 2583.27,-16.35 2590.53,-18.2 2597.31,-20.11 2603.59,-22.07 2609.34,-24.09 2614.54,-26.15 2619.17,-28.25 2623.21,-30.38 2626.66,-32.54 2629.5,-34.72 2631.73,-36.92 2633.34,-39.12 2634.33,-41.33 2634.71,-43.53 2634.48,-45.73 2633.66,-47.92 2632.24,-50.09 2630.26,-52.24 2627.71,-54.36 2624.63,-56.45 2621.03,-58.5 2616.93,-60.52 2612.36,-62.49 2607.36,-64.42 2601.93,-66.29 2596.12,-68.11 2589.95,-69.88 2583.45,-71.58 2576.65,-73.21 2569.59,-74.78 2562.28,-76.28 2554.77,-77.7 2547.09,-79.05 2539.25,-80.32 2531.3,-81.5 2523.25,-82.61 2515.14,-83.62 2506.99,-84.55 2498.82,-85.38 2490.66,-86.12 2482.52,-86.76 2474.42,-87.3 2466.39,-87.75 2458.45,-88.09 2450.59,-88.33 2442.85,-88.46 2435.22,-88.48 2427.73,-88.4 2420.37,-88.21 2413.17,-87.9 2406.12,-87.49 2399.23,-86.96 2392.52,-86.33 2385.97,-85.58 2379.6,-84.72 2373.41,-83.75 2367.41,-82.68 2361.6,-81.5 2355.97,-80.21 2350.54,-78.82 2345.31,-77.32 2340.28,-75.73 2335.46,-74.05 2330.85,-72.27 2326.46,-70.41 2322.29,-68.47 2318.36,-66.45 2314.66,-64.36 2311.21,-62.2 2308.02,-59.98 2305.1,-57.7 2302.46,-55.38 2300.11,-53.02 2298.06,-50.62 2296.33,-48.2 2294.92,-45.76 2293.85,-43.3 2293.14,-40.85 2292.79,-38.4 2292.83,-35.96 2293.25,-33.54 2294.09,-31.15 2295.33,-28.8 2297,-26.49 2299.11,-24.24 2301.65,-22.05 2304.65,-19.92 2308.1,-17.87 2312.01,-15.91 2316.37,-14.03 2321.19,-12.25 2326.47,-10.57 2332.19,-9 2338.36,-7.54 2344.95,-6.2 2351.97,-4.98 2359.38,-3.89 2367.19,-2.92 2375.36,-2.09 2383.87,-1.39 2392.71,-0.83 2401.83,-0.4 2411.22,-0.11 2420.83,0.04 2430.65,0.05 2440.63,-0.07 2450.74,-0.33 2460.93,-0.72 2471.18,-1.25 2481.43,-1.9 2491.65,-2.67 2501.8,-3.57 2511.84,-4.59 2521.72,-5.71 2531.41,-6.95"/>
<text text-anchor="middle" x="2453.01" y="-41.75" font-family="sans-serif" font-size="16.00">GestionPedidosContext</text>
</g>
<!-- GestionDevolucionesContext&#45;&gt;GestionPedidosContext -->
<g id="edge10" class="edge">
<title>GestionDevolucionesContext&#45;&gt;GestionPedidosContext</title>
<path fill="none" stroke="black" stroke-width="2" d="M2252.06,-143.21C2248.86,-131.33 2248.77,-119 2256.01,-109.1 2270.95,-88.69 2292.6,-74.77 2316.14,-65.32"/>
<text text-anchor="middle" x="2312.01" y="-112.5" font-family="sans-serif" font-size="12.00">Customer/Supplier</text>
<polygon fill="white" stroke="transparent" points="2309.14,-56.32 2309.14,-73.32 2323.14,-73.32 2323.14,-56.32 2309.14,-56.32"/>
<text text-anchor="start" x="2311.14" y="-61.72" font-family="sans-serif" font-size="12.00">D</text>
<polygon fill="white" stroke="transparent" points="2245.06,-134.21 2245.06,-151.21 2259.06,-151.21 2259.06,-134.21 2245.06,-134.21"/>
<text text-anchor="start" x="2247.06" y="-139.61" font-family="sans-serif" font-size="12.00">U</text>
</g>
<!-- GestionPedidosContext&#45;&gt;CarritoComprasContext -->
<g id="edge11" class="edge">
<title>GestionPedidosContext&#45;&gt;CarritoComprasContext</title>
<path fill="none" stroke="black" stroke-width="2" d="M2487.96,-86.54C2492.5,-93.65 2496.45,-101.29 2499.01,-109.1 2516.35,-161.95 2513.31,-180.77 2498.01,-234.24 2477.61,-305.54 2469.66,-331.23 2411.01,-376.63 2356.68,-418.68 2284.82,-442.46 2221.25,-455.91"/>
<text text-anchor="middle" x="2549.01" y="-255.64" font-family="sans-serif" font-size="12.00">Customer/Supplier</text>
<polygon fill="white" stroke="transparent" points="2214.25,-446.91 2214.25,-463.91 2228.25,-463.91 2228.25,-446.91 2214.25,-446.91"/>
<text text-anchor="start" x="2216.25" y="-452.31" font-family="sans-serif" font-size="12.00">D</text>
<polygon fill="white" stroke="transparent" points="2480.96,-77.54 2480.96,-94.54 2494.96,-94.54 2494.96,-77.54 2480.96,-77.54"/>
<text text-anchor="start" x="2482.96" y="-82.94" font-family="sans-serif" font-size="12.00">U</text>
</g>
<!-- GestionPedidosContext&#45;&gt;GestionDevolucionesContext -->
<g id="edge12" class="edge">
<title>GestionPedidosContext&#45;&gt;GestionDevolucionesContext</title>
<path fill="none" stroke="black" stroke-width="2" d="M2408.46,-88C2395.68,-99.38 2381.53,-111.51 2368.01,-122.1 2357.52,-130.33 2346.04,-138.71 2334.84,-146.57"/>
<text text-anchor="middle" x="2439.01" y="-112.5" font-family="sans-serif" font-size="12.00">Customer/Supplier</text>
<polygon fill="white" stroke="transparent" points="2327.84,-137.57 2327.84,-154.57 2341.84,-154.57 2341.84,-137.57 2327.84,-137.57"/>
<text text-anchor="start" x="2329.84" y="-142.97" font-family="sans-serif" font-size="12.00">D</text>
<polygon fill="white" stroke="transparent" points="2401.46,-79 2401.46,-96 2415.46,-96 2415.46,-79 2401.46,-79"/>
<text text-anchor="start" x="2403.46" y="-84.4" font-family="sans-serif" font-size="12.00">U</text>
</g>
<!-- GestionSesionesContext -->
<g id="node9" class="node">
<title>GestionSesionesContext</title>
<polygon fill="none" stroke="black" stroke-width="2" points="2354.29,-639.1 2349.56,-636.51 2345.29,-633.89 2341.5,-631.24 2338.2,-628.58 2335.4,-625.92 2333.13,-623.27 2331.4,-620.63 2330.2,-618.02 2329.56,-615.44 2329.48,-612.91 2329.96,-610.43 2331,-608.02 2332.6,-605.67 2334.76,-603.39 2337.47,-601.2 2340.73,-599.1 2344.51,-597.08 2348.82,-595.17 2353.63,-593.35 2358.93,-591.64 2364.7,-590.03 2370.91,-588.54 2377.55,-587.15 2384.59,-585.87 2392.01,-584.7 2399.77,-583.65 2407.86,-582.71 2416.23,-581.87 2424.85,-581.15 2433.71,-580.53 2442.76,-580.02 2451.97,-579.61 2461.31,-579.31 2470.75,-579.1 2480.26,-579 2489.79,-578.98 2499.33,-579.06 2508.84,-579.23 2518.28,-579.48 2527.64,-579.82 2536.87,-580.24 2545.96,-580.74 2554.87,-581.32 2563.58,-581.97 2572.07,-582.7 2580.31,-583.5 2588.29,-584.37 2595.98,-585.31 2603.36,-586.32 2610.43,-587.4 2617.16,-588.55 2623.54,-589.76 2629.56,-591.03 2635.21,-592.37 2640.48,-593.77 2645.36,-595.24 2649.85,-596.77 2653.94,-598.35 2657.64,-600 2660.93,-601.71 2663.81,-603.48 2666.29,-605.3 2668.36,-607.18 2670.03,-609.11 2671.3,-611.1 2672.17,-613.13 2672.65,-615.2 2672.74,-617.32 2672.43,-619.47 2671.75,-621.66 2670.69,-623.88 2669.26,-626.12 2667.46,-628.38 2665.3,-630.65 2662.79,-632.93 2659.92,-635.21 2656.72,-637.49 2653.18,-639.75 2649.31,-641.98 2645.12,-644.19 2640.61,-646.36 2635.79,-648.48 2630.67,-650.55 2625.26,-652.56 2619.57,-654.49 2613.6,-656.34 2607.36,-658.11 2600.86,-659.78 2594.11,-661.35 2587.13,-662.8 2579.92,-664.13 2572.5,-665.34 2564.88,-666.41 2557.07,-667.35 2549.09,-668.14 2540.95,-668.78 2532.67,-669.26 2524.27,-669.59 2515.77,-669.76 2507.18,-669.76 2498.53,-669.6 2489.84,-669.27 2481.12,-668.78 2472.41,-668.13 2463.73,-667.31 2455.09,-666.34 2446.53,-665.2 2438.08,-663.92 2429.75,-662.49 2421.58,-660.92 2413.59,-659.21 2405.81,-657.38 2398.27,-655.42 2390.99,-653.35 2384,-651.18 2377.32,-648.92 2370.99,-646.57 2365.02,-644.14 2359.45,-641.65 2354.29,-639.1"/>
<text text-anchor="middle" x="2509.01" y="-617.24" font-family="sans-serif" font-size="16.00">GestionSesionesContext</text>
</g>
<!-- IntegracionRedesSocialesContext -->
<g id="node10" class="node">
<title>IntegracionRedesSocialesContext</title>
<polygon fill="none" stroke="black" stroke-width="2" points="631.71,-664.27 617.33,-663.83 603.14,-663.27 589.2,-662.6 575.57,-661.82 562.3,-660.93 549.44,-659.93 537.05,-658.82 525.17,-657.62 513.85,-656.31 503.12,-654.91 493.03,-653.42 483.61,-651.85 474.89,-650.19 466.89,-648.46 459.64,-646.65 453.15,-644.78 447.45,-642.84 442.53,-640.85 438.4,-638.8 435.07,-636.71 432.53,-634.57 430.77,-632.4 429.79,-630.21 429.57,-627.98 430.1,-625.74 431.34,-623.49 433.29,-621.23 435.92,-618.98 439.19,-616.72 443.09,-614.48 447.57,-612.26 452.61,-610.06 458.18,-607.89 464.23,-605.76 470.74,-603.66 477.68,-601.61 485,-599.61 492.67,-597.67 500.66,-595.79 508.95,-593.98 517.49,-592.24 526.26,-590.58 535.24,-588.99 544.38,-587.49 553.68,-586.08 563.09,-584.77 572.62,-583.55 582.22,-582.43 591.9,-581.41 601.62,-580.51 611.37,-579.71 621.15,-579.02 630.94,-578.44 640.72,-577.98 650.5,-577.64 660.26,-577.41 669.99,-577.31 679.69,-577.32 689.34,-577.45 698.96,-577.71 708.52,-578.08 718.02,-578.57 727.46,-579.18 736.83,-579.9 746.11,-580.74 755.31,-581.69 764.4,-582.75 773.39,-583.91 782.25,-585.18 790.97,-586.55 799.54,-588.02 807.93,-589.58 816.14,-591.23 824.14,-592.97 831.9,-594.78 839.41,-596.67 846.64,-598.63 853.57,-600.65 860.16,-602.73 866.38,-604.86 872.22,-607.04 877.64,-609.26 882.6,-611.52 887.09,-613.8 891.07,-616.1 894.5,-618.41 897.37,-620.74 899.64,-623.06 901.3,-625.38 902.3,-627.69 902.63,-629.98 902.28,-632.24 901.21,-634.48 899.43,-636.67 896.9,-638.82 893.63,-640.92 889.6,-642.96 884.83,-644.95 879.29,-646.86 873.01,-648.7 865.99,-650.46 858.24,-652.14 849.79,-653.73 840.64,-655.23 830.83,-656.63 820.39,-657.93 809.34,-659.13 797.73,-660.22 785.6,-661.2 772.98,-662.07 759.93,-662.83 746.49,-663.47 732.72,-663.99 718.67,-664.39 704.39,-664.67 689.95,-664.83 675.4,-664.87 660.8,-664.79 646.22,-664.59 631.71,-664.27"/>
<text text-anchor="middle" x="669.01" y="-617.24" font-family="sans-serif" font-size="16.00">IntegracionRedesSocialesContext</text>
</g>
<!-- IntegracionRedesSocialesContext&#45;&gt;VentasContext -->
<g id="edge13" class="edge">
<title>IntegracionRedesSocialesContext&#45;&gt;VentasContext</title>
<path fill="none" stroke="black" stroke-width="2" d="M740.2,-580.13C776.44,-559.81 820.36,-535.19 856.51,-514.93"/>
<text text-anchor="middle" x="840.51" y="-544.58" font-family="sans-serif" font-size="12.00">Partnership</text>
</g>
<!-- NotificacionesComunicacionesContext -->
<g id="node11" class="node">
<title>NotificacionesComunicacionesContext</title>
<polygon fill="none" stroke="black" stroke-width="2" points="1425.22,-609.35 1429.78,-612.12 1433.65,-614.9 1436.8,-617.69 1439.23,-620.47 1440.91,-623.23 1441.84,-625.97 1442.01,-628.67 1441.41,-631.31 1440.04,-633.9 1437.9,-636.42 1434.99,-638.87 1431.32,-641.23 1426.89,-643.5 1421.72,-645.68 1415.82,-647.75 1409.21,-649.71 1401.9,-651.56 1393.93,-653.29 1385.31,-654.9 1376.07,-656.39 1366.24,-657.75 1355.86,-658.99 1344.97,-660.1 1333.58,-661.09 1321.75,-661.95 1309.52,-662.68 1296.92,-663.29 1284,-663.78 1270.8,-664.15 1257.37,-664.4 1243.75,-664.54 1229.99,-664.57 1216.13,-664.5 1202.21,-664.32 1188.29,-664.04 1174.4,-663.67 1160.6,-663.2 1146.92,-662.65 1133.41,-662.01 1120.11,-661.3 1107.05,-660.5 1094.28,-659.63 1081.84,-658.7 1069.75,-657.69 1058.05,-656.62 1046.78,-655.49 1035.95,-654.3 1025.61,-653.05 1015.77,-651.74 1006.45,-650.38 997.69,-648.97 989.48,-647.51 981.87,-646 974.84,-644.43 968.43,-642.82 962.64,-641.17 957.47,-639.46 952.93,-637.72 949.04,-635.92 945.78,-634.09 943.16,-632.22 941.19,-630.3 939.85,-628.35 939.14,-626.36 939.06,-624.33 939.61,-622.28 940.77,-620.19 942.54,-618.08 944.9,-615.95 947.85,-613.8 951.37,-611.64 955.46,-609.46 960.1,-607.29 965.27,-605.11 970.96,-602.95 977.16,-600.8 983.85,-598.66 991.02,-596.56 998.64,-594.49 1006.71,-592.47 1015.21,-590.49 1024.11,-588.57 1033.4,-586.72 1043.06,-584.95 1053.08,-583.25 1063.42,-581.65 1074.07,-580.15 1085.02,-578.75 1096.23,-577.47 1107.68,-576.31 1119.36,-575.27 1131.23,-574.37 1143.28,-573.61 1155.47,-573 1167.79,-572.54 1180.2,-572.24 1192.67,-572.09 1205.18,-572.1 1217.7,-572.28 1230.19,-572.63 1242.63,-573.14 1254.99,-573.82 1267.23,-574.66 1279.32,-575.67 1291.22,-576.83 1302.91,-578.15 1314.35,-579.63 1325.5,-581.25 1336.33,-583.01 1346.82,-584.91 1356.91,-586.93 1366.59,-589.07 1375.82,-591.33 1384.56,-593.68 1392.79,-596.12 1400.48,-598.65 1407.59,-601.24 1414.1,-603.9 1419.98,-606.61 1425.22,-609.35"/>
<text text-anchor="middle" x="1184.01" y="-617.24" font-family="sans-serif" font-size="16.00">NotificacionesComunicacionesContext</text>
</g>
<!-- NotificacionesComunicacionesContext&#45;&gt;VentasContext -->
<g id="edge14" class="edge">
<title>NotificacionesComunicacionesContext&#45;&gt;VentasContext</title>
<path fill="none" stroke="black" stroke-width="2" d="M1106.21,-576.25C1068.09,-554.8 1022.89,-529.36 987.42,-509.4"/>
<text text-anchor="middle" x="1098.51" y="-544.58" font-family="sans-serif" font-size="12.00">Partnership</text>
</g>
<!-- ProcesoPagosContext -->
<g id="node12" class="node">
<title>ProcesoPagosContext</title>
<polygon fill="none" stroke="black" stroke-width="2" points="2814.61,-153.79 2822.29,-155.63 2829.64,-157.55 2836.65,-159.54 2843.26,-161.6 2849.47,-163.72 2855.24,-165.89 2860.55,-168.1 2865.37,-170.34 2869.69,-172.62 2873.49,-174.91 2876.76,-177.22 2879.47,-179.53 2881.63,-181.85 2883.22,-184.15 2884.24,-186.44 2884.69,-188.72 2884.57,-190.96 2883.89,-193.18 2882.64,-195.36 2880.84,-197.5 2878.51,-199.59 2875.64,-201.63 2872.27,-203.62 2868.41,-205.56 2864.08,-207.43 2859.3,-209.24 2854.1,-210.98 2848.5,-212.66 2842.53,-214.26 2836.21,-215.79 2829.58,-217.25 2822.66,-218.63 2815.49,-219.93 2808.09,-221.15 2800.49,-222.29 2792.73,-223.34 2784.84,-224.32 2776.83,-225.21 2768.75,-226.01 2760.62,-226.72 2752.47,-227.35 2744.32,-227.89 2736.19,-228.34 2728.12,-228.7 2720.12,-228.97 2712.21,-229.14 2704.41,-229.22 2696.75,-229.2 2689.23,-229.09 2681.88,-228.89 2674.7,-228.58 2667.71,-228.18 2660.92,-227.68 2654.33,-227.08 2647.96,-226.38 2641.81,-225.58 2635.9,-224.68 2630.21,-223.68 2624.77,-222.58 2619.56,-221.39 2614.6,-220.1 2609.89,-218.71 2605.43,-217.22 2601.21,-215.65 2597.25,-213.98 2593.55,-212.23 2590.1,-210.4 2586.91,-208.48 2583.97,-206.48 2581.3,-204.42 2578.9,-202.28 2576.76,-200.09 2574.89,-197.83 2573.3,-195.53 2571.99,-193.18 2570.96,-190.79 2570.22,-188.37 2569.78,-185.92 2569.64,-183.46 2569.8,-181 2570.28,-178.53 2571.08,-176.07 2572.2,-173.63 2573.66,-171.21 2575.45,-168.82 2577.59,-166.48 2580.08,-164.19 2582.92,-161.96 2586.11,-159.8 2589.66,-157.71 2593.58,-155.71 2597.86,-153.8 2602.49,-151.99 2607.49,-150.28 2612.83,-148.69 2618.53,-147.22 2624.57,-145.87 2630.94,-144.65 2637.63,-143.57 2644.63,-142.62 2651.93,-141.82 2659.5,-141.17 2667.34,-140.66 2675.41,-140.3 2683.7,-140.09 2692.19,-140.04 2700.84,-140.13 2709.63,-140.37 2718.54,-140.76 2727.53,-141.3 2736.56,-141.98 2745.62,-142.8 2754.66,-143.75 2763.65,-144.84 2772.56,-146.05 2781.34,-147.38 2789.98,-148.82 2798.42,-150.38 2806.65,-152.04 2814.61,-153.79"/>
<text text-anchor="middle" x="2715.01" y="-183.37" font-family="sans-serif" font-size="16.00">ProcesoPagosContext</text>
</g>
<!-- ProcesoPagosContext&#45;&gt;GestionPedidosContext -->
<g id="edge15" class="edge">
<title>ProcesoPagosContext&#45;&gt;GestionPedidosContext</title>
<path fill="none" stroke="black" stroke-width="2" d="M2635.34,-143.71C2598.9,-124.3 2556.18,-101.53 2521.25,-82.91"/>
<text text-anchor="middle" x="2647.01" y="-112.5" font-family="sans-serif" font-size="12.00">Customer/Supplier</text>
<polygon fill="white" stroke="transparent" points="2514.25,-73.91 2514.25,-90.91 2528.25,-90.91 2528.25,-73.91 2514.25,-73.91"/>
<text text-anchor="start" x="2516.25" y="-79.31" font-family="sans-serif" font-size="12.00">D</text>
<polygon fill="white" stroke="transparent" points="2628.34,-134.71 2628.34,-151.71 2642.34,-151.71 2642.34,-134.71 2628.34,-134.71"/>
<text text-anchor="start" x="2630.34" y="-140.11" font-family="sans-serif" font-size="12.00">U</text>
</g>
<!-- SeguridadContext -->
<g id="node13" class="node">
<title>SeguridadContext</title>
<polygon fill="none" stroke="black" stroke-width="2" points="2823.36,-663.94 2814.69,-663.35 2806.16,-662.65 2797.8,-661.83 2789.64,-660.91 2781.73,-659.88 2774.08,-658.74 2766.73,-657.51 2759.71,-656.18 2753.04,-654.75 2746.75,-653.24 2740.86,-651.65 2735.39,-649.97 2730.36,-648.22 2725.78,-646.4 2721.67,-644.52 2718.03,-642.58 2714.87,-640.58 2712.21,-638.53 2710.03,-636.44 2708.35,-634.31 2707.15,-632.15 2706.43,-629.96 2706.19,-627.75 2706.42,-625.52 2707.1,-623.28 2708.22,-621.04 2709.77,-618.8 2711.73,-616.57 2714.08,-614.34 2716.81,-612.14 2719.9,-609.96 2723.31,-607.81 2727.04,-605.7 2731.07,-603.62 2735.36,-601.59 2739.91,-599.61 2744.68,-597.69 2749.65,-595.82 2754.81,-594.02 2760.14,-592.29 2765.61,-590.64 2771.21,-589.06 2776.92,-587.57 2782.72,-586.16 2788.59,-584.85 2794.53,-583.63 2800.51,-582.51 2806.53,-581.48 2812.57,-580.57 2818.62,-579.76 2824.68,-579.06 2830.73,-578.47 2836.77,-577.99 2842.79,-577.63 2848.78,-577.39 2854.75,-577.27 2860.68,-577.26 2866.57,-577.38 2872.41,-577.61 2878.21,-577.96 2883.96,-578.43 2889.66,-579.02 2895.29,-579.73 2900.87,-580.55 2906.37,-581.48 2911.8,-582.53 2917.16,-583.68 2922.43,-584.94 2927.61,-586.31 2932.68,-587.77 2937.65,-589.33 2942.5,-590.98 2947.22,-592.72 2951.8,-594.54 2956.22,-596.43 2960.48,-598.4 2964.56,-600.44 2968.44,-602.53 2972.1,-604.68 2975.54,-606.88 2978.74,-609.13 2981.67,-611.4 2984.32,-613.71 2986.68,-616.04 2988.72,-618.39 2990.43,-620.74 2991.8,-623.1 2992.81,-625.45 2993.43,-627.79 2993.67,-630.11 2993.5,-632.41 2992.92,-634.67 2991.91,-636.89 2990.47,-639.07 2988.59,-641.2 2986.26,-643.27 2983.49,-645.27 2980.26,-647.21 2976.59,-649.06 2972.48,-650.84 2967.93,-652.53 2962.95,-654.13 2957.56,-655.64 2951.76,-657.04 2945.57,-658.35 2939.02,-659.54 2932.11,-660.63 2924.88,-661.6 2917.35,-662.46 2909.54,-663.2 2901.49,-663.82 2893.22,-664.32 2884.77,-664.7 2876.17,-664.95 2867.45,-665.09 2858.65,-665.1 2849.81,-664.99 2840.95,-664.76 2832.12,-664.41 2823.36,-663.94"/>
<text text-anchor="middle" x="2853.01" y="-617.24" font-family="sans-serif" font-size="16.00">SeguridadContext</text>
</g>
<!-- ServicioClienteContext -->
<g id="node14" class="node">
<title>ServicioClienteContext</title>
<polygon fill="none" stroke="black" stroke-width="2" points="1516.72,-650.02 1509.63,-647.9 1502.91,-645.71 1496.61,-643.46 1490.73,-641.16 1485.32,-638.82 1480.39,-636.45 1475.97,-634.06 1472.07,-631.65 1468.71,-629.23 1465.9,-626.81 1463.67,-624.4 1462.01,-622.01 1460.93,-619.64 1460.44,-617.3 1460.55,-615 1461.24,-612.74 1462.51,-610.52 1464.36,-608.36 1466.78,-606.26 1469.76,-604.22 1473.27,-602.25 1477.31,-600.34 1481.86,-598.51 1486.89,-596.76 1492.38,-595.08 1498.3,-593.48 1504.64,-591.97 1511.35,-590.54 1518.42,-589.19 1525.82,-587.94 1533.5,-586.76 1541.44,-585.68 1549.61,-584.68 1557.98,-583.77 1566.51,-582.95 1575.17,-582.21 1583.93,-581.57 1592.76,-581.01 1601.63,-580.54 1610.5,-580.16 1619.36,-579.86 1628.17,-579.66 1636.9,-579.54 1645.53,-579.51 1654.04,-579.56 1662.4,-579.71 1670.6,-579.94 1678.61,-580.26 1686.42,-580.67 1694.01,-581.17 1701.37,-581.76 1708.48,-582.43 1715.33,-583.2 1721.91,-584.05 1728.22,-585 1734.25,-586.03 1739.98,-587.16 1745.42,-588.37 1750.56,-589.67 1755.39,-591.06 1759.92,-592.53 1764.14,-594.09 1768.05,-595.74 1771.66,-597.46 1774.95,-599.26 1777.93,-601.14 1780.6,-603.09 1782.96,-605.11 1785.01,-607.2 1786.75,-609.35 1788.18,-611.55 1789.29,-613.8 1790.09,-616.1 1790.58,-618.44 1790.75,-620.82 1790.61,-623.22 1790.14,-625.64 1789.36,-628.07 1788.25,-630.5 1786.81,-632.93 1785.05,-635.35 1782.96,-637.74 1780.54,-640.11 1777.78,-642.44 1774.68,-644.72 1771.25,-646.95 1767.47,-649.11 1763.36,-651.2 1758.91,-653.21 1754.13,-655.13 1749.01,-656.95 1743.56,-658.67 1737.78,-660.27 1731.68,-661.76 1725.27,-663.11 1718.56,-664.34 1711.55,-665.43 1704.26,-666.38 1696.7,-667.18 1688.89,-667.83 1680.85,-668.33 1672.59,-668.68 1664.13,-668.87 1655.5,-668.9 1646.71,-668.77 1637.81,-668.49 1628.8,-668.05 1619.72,-667.46 1610.6,-666.72 1601.47,-665.83 1592.36,-664.8 1583.3,-663.63 1574.33,-662.33 1565.48,-660.9 1556.78,-659.35 1548.26,-657.68 1539.96,-655.91 1531.92,-654.04 1524.16,-652.07 1516.72,-650.02"/>
<text text-anchor="middle" x="1638.01" y="-617.24" font-family="sans-serif" font-size="16.00">ServicioClienteContext</text>
</g>
<!-- ServicioClienteContext&#45;&gt;VentasContext -->
<g id="edge16" class="edge">
<title>ServicioClienteContext&#45;&gt;VentasContext</title>
<path fill="none" stroke="black" stroke-width="2" d="M1520.59,-588.69C1497.59,-582.91 1473.6,-577.15 1451.01,-572.18 1304.87,-540.02 1134.22,-509.86 1028.37,-492.02"/>
<text text-anchor="middle" x="1400.51" y="-544.58" font-family="sans-serif" font-size="12.00">Partnership</text>
</g>
</g>
</svg>
