<svg width="2000px" height="447px"
 viewBox="0.00 0.00 3074.06 687.11" xmlns="http://www.w3.org/2000/svg" xmlns:xlink="http://www.w3.org/1999/xlink">
<g id="graph0" class="graph" transform="scale(1.0 1.0) rotate(0) translate(4 683.11)">
<title>ContextMapGraph</title>
<polygon fill="white" stroke="transparent" points="-4,4 -4,-683.11 3070.06,-683.11 3070.06,4 -4,4"/>
<!-- AnaliticasReportingContext -->
<g id="node1" class="node">
<title>AnaliticasReportingContext</title>
<polygon fill="none" stroke="black" stroke-width="2" points="291.05,-669.78 280.18,-671.1 269.14,-672.3 257.99,-673.38 246.77,-674.33 235.51,-675.15 224.27,-675.83 213.08,-676.37 201.98,-676.78 191.01,-677.03 180.21,-677.14 169.62,-677.11 159.27,-676.92 149.19,-676.59 139.4,-676.11 129.95,-675.48 120.84,-674.71 112.1,-673.8 103.76,-672.75 95.82,-671.56 88.31,-670.25 81.23,-668.8 74.6,-667.24 68.42,-665.57 62.7,-663.79 57.44,-661.9 52.64,-659.92 48.31,-657.86 44.43,-655.71 41.01,-653.5 38.04,-651.22 35.51,-648.89 33.42,-646.51 31.76,-644.1 30.52,-641.66 29.69,-639.19 29.26,-636.72 29.22,-634.24 29.57,-631.77 30.29,-629.31 31.38,-626.86 32.82,-624.45 34.6,-622.08 36.73,-619.74 39.19,-617.46 41.97,-615.23 45.07,-613.06 48.48,-610.96 52.21,-608.93 56.23,-606.98 60.56,-605.11 65.18,-603.32 70.1,-601.62 75.31,-600.01 80.81,-598.5 86.59,-597.08 92.66,-595.76 99,-594.54 105.63,-593.42 112.52,-592.41 119.69,-591.49 127.12,-590.68 134.81,-589.98 142.74,-589.37 150.92,-588.87 159.33,-588.47 167.96,-588.17 176.8,-587.98 185.83,-587.88 195.04,-587.88 204.4,-587.98 213.91,-588.18 223.53,-588.47 233.25,-588.86 243.03,-589.34 252.86,-589.91 262.69,-590.58 272.52,-591.33 282.29,-592.17 291.99,-593.09 301.56,-594.1 311,-595.2 320.24,-596.37 329.27,-597.63 338.03,-598.96 346.51,-600.37 354.65,-601.86 362.43,-603.42 369.8,-605.05 376.74,-606.74 383.21,-608.5 389.18,-610.33 394.62,-612.21 399.49,-614.15 403.78,-616.15 407.45,-618.19 410.49,-620.28 412.88,-622.41 414.6,-624.58 415.64,-626.78 415.99,-629.01 415.63,-631.26 414.58,-633.53 412.82,-635.81 410.36,-638.1 407.21,-640.38 403.38,-642.66 398.88,-644.92 393.73,-647.16 387.94,-649.37 381.55,-651.55 374.57,-653.68 367.04,-655.77 358.98,-657.79 350.44,-659.75 341.45,-661.65 332.03,-663.46 322.25,-665.18 312.12,-666.82 301.71,-668.35 291.05,-669.78"/>
<text text-anchor="middle" x="208" y="-626.45" font-family="sans-serif" font-size="16.00">AnaliticasReportingContext</text>
</g>
<!-- VentasContext -->
<g id="node2" class="node">
<title>VentasContext</title>
<polygon fill="none" stroke="black" stroke-width="2" points="1018.36,-447.57 1024.61,-449.16 1030.63,-450.84 1036.41,-452.61 1041.93,-454.44 1047.15,-456.35 1052.05,-458.33 1056.63,-460.35 1060.85,-462.43 1064.7,-464.55 1068.17,-466.71 1071.24,-468.89 1073.91,-471.1 1076.15,-473.32 1077.97,-475.56 1079.36,-477.79 1080.32,-480.03 1080.84,-482.25 1080.93,-484.46 1080.6,-486.66 1079.84,-488.83 1078.66,-490.97 1077.08,-493.07 1075.1,-495.14 1072.74,-497.17 1070.02,-499.15 1066.94,-501.09 1063.52,-502.97 1059.79,-504.79 1055.76,-506.55 1051.46,-508.26 1046.89,-509.9 1042.1,-511.47 1037.09,-512.97 1031.89,-514.4 1026.52,-515.75 1021,-517.03 1015.36,-518.23 1009.62,-519.35 1003.8,-520.38 997.91,-521.33 991.98,-522.2 986.04,-522.97 980.08,-523.66 974.14,-524.26 968.23,-524.76 962.36,-525.17 956.56,-525.48 950.82,-525.69 945.17,-525.81 939.61,-525.82 934.16,-525.74 928.82,-525.55 923.61,-525.26 918.52,-524.86 913.56,-524.36 908.75,-523.75 904.07,-523.04 899.55,-522.22 895.18,-521.3 890.96,-520.27 886.9,-519.14 882.99,-517.91 879.25,-516.58 875.67,-515.15 872.25,-513.62 869,-511.99 865.92,-510.28 863.01,-508.48 860.27,-506.6 857.71,-504.63 855.33,-502.59 853.13,-500.48 851.12,-498.31 849.3,-496.08 847.67,-493.79 846.25,-491.46 845.04,-489.09 844.04,-486.68 843.26,-484.26 842.71,-481.81 842.39,-479.35 842.32,-476.9 842.49,-474.45 842.92,-472.01 843.61,-469.6 844.57,-467.22 845.8,-464.88 847.32,-462.59 849.12,-460.35 851.2,-458.18 853.58,-456.08 856.26,-454.07 859.23,-452.14 862.5,-450.3 866.06,-448.56 869.92,-446.94 874.07,-445.42 878.5,-444.03 883.21,-442.76 888.19,-441.62 893.43,-440.6 898.91,-439.73 904.63,-438.99 910.57,-438.4 916.72,-437.94 923.05,-437.63 929.55,-437.47 936.19,-437.44 942.95,-437.56 949.82,-437.83 956.77,-438.23 963.76,-438.77 970.78,-439.44 977.8,-440.24 984.8,-441.17 991.73,-442.23 998.58,-443.4 1005.33,-444.69 1011.93,-446.08 1018.36,-447.57"/>
<text text-anchor="middle" x="953" y="-479.77" font-family="sans-serif" font-size="16.00">VentasContext</text>
</g>
<!-- AnaliticasReportingContext&#45;&gt;VentasContext -->
<g id="edge1" class="edge">
<title>AnaliticasReportingContext&#45;&gt;VentasContext</title>
<path fill="none" stroke="black" stroke-width="2" d="M340.38,-599.26C368.29,-593.16 397.58,-586.93 425,-581.39 574.13,-551.28 747.77,-520.2 854.02,-501.63"/>
<text text-anchor="middle" x="619.5" y="-553.79" font-family="sans-serif" font-size="12.00">Partnership</text>
</g>
<!-- AutenticacionAutorizacionContext -->
<g id="node3" class="node">
<title>AutenticacionAutorizacionContext</title>
<polygon fill="none" stroke="black" stroke-width="2" points="2263.19,-596.46 2274.7,-598.26 2285.74,-600.14 2296.26,-602.09 2306.22,-604.11 2315.59,-606.19 2324.31,-608.32 2332.35,-610.5 2339.68,-612.72 2346.27,-614.96 2352.09,-617.23 2357.12,-619.52 2361.34,-621.81 2364.74,-624.11 2367.3,-626.4 2369.01,-628.68 2369.88,-630.94 2369.9,-633.18 2369.09,-635.4 2367.44,-637.58 2364.98,-639.72 2361.71,-641.82 2357.66,-643.87 2352.86,-645.87 2347.33,-647.82 2341.1,-649.71 2334.2,-651.54 2326.66,-653.3 2318.54,-655 2309.86,-656.63 2300.66,-658.19 2290.99,-659.67 2280.89,-661.08 2270.41,-662.42 2259.58,-663.67 2248.46,-664.84 2237.09,-665.94 2225.51,-666.95 2213.76,-667.87 2201.89,-668.71 2189.94,-669.47 2177.95,-670.14 2165.95,-670.71 2153.98,-671.2 2142.08,-671.6 2130.28,-671.91 2118.61,-672.12 2107.1,-672.24 2095.78,-672.26 2084.66,-672.19 2073.77,-672.02 2063.14,-671.75 2052.77,-671.38 2042.69,-670.92 2032.9,-670.35 2023.43,-669.69 2014.27,-668.92 2005.45,-668.05 1996.96,-667.09 1988.81,-666.02 1981.01,-664.85 1973.57,-663.59 1966.48,-662.23 1959.75,-660.77 1953.38,-659.22 1947.38,-657.58 1941.75,-655.85 1936.49,-654.04 1931.6,-652.14 1927.08,-650.17 1922.95,-648.12 1919.21,-646 1915.85,-643.82 1912.89,-641.58 1910.33,-639.29 1908.18,-636.96 1906.45,-634.58 1905.14,-632.17 1904.27,-629.74 1903.84,-627.28 1903.86,-624.82 1904.35,-622.36 1905.3,-619.9 1906.75,-617.46 1908.68,-615.04 1911.12,-612.65 1914.07,-610.31 1917.54,-608.01 1921.53,-605.77 1926.06,-603.6 1931.12,-601.5 1936.73,-599.48 1942.88,-597.56 1949.56,-595.73 1956.79,-594 1964.55,-592.39 1972.84,-590.89 1981.64,-589.51 1990.94,-588.27 2000.74,-587.16 2011,-586.18 2021.71,-585.34 2032.84,-584.65 2044.38,-584.11 2056.27,-583.71 2068.51,-583.46 2081.04,-583.36 2093.84,-583.41 2106.85,-583.61 2120.05,-583.95 2133.37,-584.44 2146.79,-585.08 2160.24,-585.85 2173.69,-586.75 2187.07,-587.79 2200.34,-588.95 2213.45,-590.24 2226.34,-591.63 2238.96,-593.14 2251.26,-594.75 2263.19,-596.46"/>
<text text-anchor="middle" x="2119" y="-626.45" font-family="sans-serif" font-size="16.00">AutenticacionAutorizacionContext</text>
</g>
<!-- CarritoComprasContext -->
<g id="node4" class="node">
<title>CarritoComprasContext</title>
<polygon fill="none" stroke="black" stroke-width="2" points="1989.37,-456.24 1996.01,-453.98 2002.97,-451.81 2010.23,-449.74 2017.74,-447.77 2025.49,-445.92 2033.45,-444.2 2041.58,-442.6 2049.87,-441.14 2058.28,-439.83 2066.78,-438.66 2075.36,-437.65 2083.98,-436.79 2092.62,-436.09 2101.25,-435.56 2109.85,-435.19 2118.4,-434.98 2126.87,-434.93 2135.25,-435.05 2143.52,-435.33 2151.65,-435.77 2159.63,-436.37 2167.44,-437.12 2175.07,-438.01 2182.51,-439.05 2189.73,-440.22 2196.74,-441.53 2203.51,-442.96 2210.03,-444.5 2216.31,-446.15 2222.32,-447.91 2228.05,-449.75 2233.51,-451.68 2238.69,-453.69 2243.57,-455.77 2248.15,-457.9 2252.43,-460.08 2256.4,-462.31 2260.06,-464.57 2263.39,-466.85 2266.4,-469.15 2269.07,-471.46 2271.41,-473.78 2273.41,-476.08 2275.07,-478.38 2276.38,-480.66 2277.33,-482.92 2277.93,-485.14 2278.16,-487.34 2278.03,-489.49 2277.52,-491.6 2276.65,-493.67 2275.39,-495.68 2273.76,-497.64 2271.75,-499.55 2269.35,-501.39 2266.57,-503.18 2263.41,-504.9 2259.86,-506.56 2255.93,-508.16 2251.62,-509.69 2246.93,-511.15 2241.88,-512.55 2236.46,-513.88 2230.68,-515.14 2224.55,-516.33 2218.08,-517.45 2211.29,-518.5 2204.18,-519.48 2196.77,-520.39 2189.08,-521.22 2181.13,-521.99 2172.93,-522.67 2164.5,-523.29 2155.87,-523.82 2147.06,-524.28 2138.09,-524.65 2129,-524.95 2119.8,-525.16 2110.53,-525.29 2101.23,-525.33 2091.9,-525.27 2082.6,-525.13 2073.35,-524.89 2064.18,-524.56 2055.12,-524.13 2046.21,-523.6 2037.48,-522.97 2028.96,-522.24 2020.68,-521.4 2012.68,-520.45 2004.98,-519.4 1997.62,-518.25 1990.61,-516.98 1983.99,-515.61 1977.79,-514.14 1972.02,-512.56 1966.71,-510.88 1961.88,-509.1 1957.54,-507.22 1953.72,-505.25 1950.42,-503.19 1947.67,-501.05 1945.46,-498.82 1943.8,-496.53 1942.7,-494.16 1942.17,-491.74 1942.19,-489.26 1942.77,-486.74 1943.91,-484.17 1945.59,-481.58 1947.81,-478.98 1950.55,-476.36 1953.8,-473.74 1957.55,-471.13 1961.78,-468.54 1966.46,-465.98 1971.59,-463.46 1977.13,-460.99 1983.06,-458.58 1989.37,-456.24"/>
<text text-anchor="middle" x="2119" y="-479.77" font-family="sans-serif" font-size="16.00">CarritoComprasContext</text>
</g>
<!-- AutenticacionAutorizacionContext&#45;&gt;CarritoComprasContext -->
<g id="edge2" class="edge">
<title>AutenticacionAutorizacionContext&#45;&gt;CarritoComprasContext</title>
<path fill="none" stroke="black" stroke-width="2" d="M2119,-583.87C2119,-565.14 2119,-543.6 2119,-525.38"/>
<text text-anchor="middle" x="2175" y="-553.79" font-family="sans-serif" font-size="12.00">Customer/Supplier</text>
<polygon fill="white" stroke="transparent" points="2112,-516.38 2112,-533.38 2126,-533.38 2126,-516.38 2112,-516.38"/>
<text text-anchor="start" x="2114" y="-521.78" font-family="sans-serif" font-size="12.00">D</text>
<polygon fill="white" stroke="transparent" points="2112,-574.87 2112,-591.87 2126,-591.87 2126,-574.87 2112,-574.87"/>
<text text-anchor="start" x="2114" y="-580.27" font-family="sans-serif" font-size="12.00">U</text>
</g>
<!-- GestionProductosContext -->
<g id="node5" class="node">
<title>GestionProductosContext</title>
<polygon fill="none" stroke="black" stroke-width="2" points="2053.28,-317.46 2058.52,-320.01 2063.3,-322.59 2067.59,-325.2 2071.37,-327.83 2074.63,-330.46 2077.34,-333.1 2079.5,-335.72 2081.1,-338.31 2082.12,-340.88 2082.56,-343.41 2082.41,-345.89 2081.68,-348.31 2080.35,-350.67 2078.44,-352.96 2075.94,-355.18 2072.88,-357.31 2069.25,-359.36 2065.07,-361.31 2060.35,-363.17 2055.12,-364.93 2049.39,-366.58 2043.18,-368.14 2036.51,-369.58 2029.42,-370.92 2021.92,-372.15 2014.05,-373.28 2005.84,-374.29 1997.31,-375.2 1988.5,-376 1979.44,-376.7 1970.16,-377.29 1960.7,-377.78 1951.1,-378.17 1941.38,-378.46 1931.57,-378.65 1921.73,-378.75 1911.86,-378.76 1902.02,-378.68 1892.23,-378.51 1882.52,-378.26 1872.93,-377.92 1863.48,-377.5 1854.19,-377 1845.1,-376.43 1836.23,-375.78 1827.61,-375.05 1819.25,-374.25 1811.17,-373.38 1803.4,-372.44 1795.95,-371.42 1788.84,-370.34 1782.08,-369.19 1775.69,-367.97 1769.67,-366.68 1764.03,-365.33 1758.78,-363.91 1753.93,-362.42 1749.48,-360.87 1745.43,-359.26 1741.8,-357.58 1738.57,-355.84 1735.76,-354.04 1733.35,-352.18 1731.35,-350.27 1729.77,-348.3 1728.58,-346.28 1727.8,-344.21 1727.42,-342.09 1727.43,-339.94 1727.83,-337.75 1728.61,-335.52 1729.78,-333.27 1731.32,-330.99 1733.23,-328.7 1735.51,-326.4 1738.15,-324.1 1741.14,-321.8 1744.48,-319.51 1748.16,-317.24 1752.18,-315 1756.54,-312.79 1761.21,-310.63 1766.21,-308.51 1771.52,-306.46 1777.13,-304.48 1783.04,-302.57 1789.24,-300.75 1795.72,-299.02 1802.46,-297.4 1809.47,-295.88 1816.73,-294.49 1824.23,-293.21 1831.95,-292.07 1839.89,-291.07 1848.02,-290.21 1856.33,-289.5 1864.81,-288.94 1873.44,-288.53 1882.2,-288.29 1891.07,-288.21 1900.03,-288.29 1909.06,-288.54 1918.12,-288.95 1927.21,-289.53 1936.3,-290.26 1945.35,-291.16 1954.35,-292.22 1963.26,-293.42 1972.06,-294.78 1980.72,-296.27 1989.21,-297.91 1997.51,-299.67 2005.57,-301.56 2013.38,-303.56 2020.9,-305.66 2028.12,-307.87 2034.98,-310.16 2041.49,-312.53 2047.59,-314.96 2053.28,-317.46"/>
<text text-anchor="middle" x="1896" y="-333.11" font-family="sans-serif" font-size="16.00">GestionProductosContext</text>
</g>
<!-- CarritoComprasContext&#45;&gt;GestionProductosContext -->
<g id="edge3" class="edge">
<title>CarritoComprasContext&#45;&gt;GestionProductosContext</title>
<path fill="none" stroke="black" stroke-width="2" d="M2037.63,-443.14C2022.48,-434.95 2007.02,-425.98 1993,-416.75 1975.77,-405.42 1957.97,-391.64 1942.4,-378.79"/>
<text text-anchor="middle" x="2049" y="-407.15" font-family="sans-serif" font-size="12.00">Customer/Supplier</text>
<polygon fill="white" stroke="transparent" points="1935.4,-369.79 1935.4,-386.79 1949.4,-386.79 1949.4,-369.79 1935.4,-369.79"/>
<text text-anchor="start" x="1937.4" y="-375.19" font-family="sans-serif" font-size="12.00">D</text>
<polygon fill="white" stroke="transparent" points="2030.63,-434.14 2030.63,-451.14 2044.63,-451.14 2044.63,-434.14 2030.63,-434.14"/>
<text text-anchor="start" x="2032.63" y="-439.54" font-family="sans-serif" font-size="12.00">U</text>
</g>
<!-- GestionClientesContext -->
<g id="node8" class="node">
<title>GestionClientesContext</title>
<polygon fill="none" stroke="black" stroke-width="2" points="2253.83,-227.33 2245.1,-229.03 2236.16,-230.63 2227.04,-232.11 2217.79,-233.46 2208.42,-234.68 2198.99,-235.77 2189.52,-236.72 2180.05,-237.53 2170.62,-238.19 2161.24,-238.7 2151.96,-239.05 2142.79,-239.25 2133.78,-239.29 2124.94,-239.18 2116.31,-238.91 2107.89,-238.48 2099.71,-237.91 2091.8,-237.17 2084.17,-236.3 2076.82,-235.27 2069.79,-234.11 2063.07,-232.81 2056.69,-231.39 2050.64,-229.83 2044.93,-228.17 2039.57,-226.39 2034.57,-224.51 2029.92,-222.53 2025.63,-220.47 2021.69,-218.33 2018.11,-216.12 2014.89,-213.84 2012.02,-211.52 2009.5,-209.15 2007.33,-206.75 2005.5,-204.31 2004.01,-201.87 2002.86,-199.41 2002.05,-196.95 2001.56,-194.5 2001.41,-192.06 2001.57,-189.65 2002.06,-187.26 2002.87,-184.91 2003.99,-182.61 2005.43,-180.35 2007.18,-178.15 2009.25,-176 2011.62,-173.92 2014.3,-171.91 2017.3,-169.98 2020.6,-168.12 2024.21,-166.33 2028.13,-164.64 2032.35,-163.02 2036.88,-161.49 2041.72,-160.05 2046.85,-158.7 2052.29,-157.44 2058.02,-156.28 2064.04,-155.2 2070.34,-154.22 2076.93,-153.33 2083.79,-152.53 2090.91,-151.82 2098.28,-151.21 2105.89,-150.69 2113.73,-150.26 2121.78,-149.92 2130.03,-149.68 2138.46,-149.52 2147.05,-149.46 2155.77,-149.48 2164.61,-149.59 2173.53,-149.8 2182.53,-150.09 2191.56,-150.47 2200.6,-150.94 2209.62,-151.5 2218.59,-152.14 2227.48,-152.87 2236.25,-153.7 2244.88,-154.6 2253.33,-155.6 2261.57,-156.68 2269.57,-157.85 2277.28,-159.1 2284.69,-160.44 2291.75,-161.86 2298.44,-163.36 2304.73,-164.94 2310.59,-166.6 2315.99,-168.34 2320.91,-170.16 2325.33,-172.04 2329.22,-173.99 2332.56,-176.01 2335.33,-178.09 2337.54,-180.23 2339.15,-182.42 2340.16,-184.66 2340.57,-186.94 2340.37,-189.26 2339.56,-191.61 2338.15,-193.98 2336.14,-196.37 2333.53,-198.77 2330.34,-201.18 2326.58,-203.58 2322.26,-205.96 2317.42,-208.33 2312.05,-210.67 2306.2,-212.97 2299.88,-215.23 2293.13,-217.43 2285.96,-219.57 2278.42,-221.63 2270.53,-223.62 2262.32,-225.52 2253.83,-227.33"/>
<text text-anchor="middle" x="2158" y="-187.52" font-family="sans-serif" font-size="16.00">GestionClientesContext</text>
</g>
<!-- CarritoComprasContext&#45;&gt;GestionClientesContext -->
<g id="edge4" class="edge">
<title>CarritoComprasContext&#45;&gt;GestionClientesContext</title>
<path fill="none" stroke="black" stroke-width="2" d="M2189.75,-439.97C2207.87,-425.25 2225.05,-407.02 2235,-385.75 2253.4,-346.43 2249.42,-329.01 2235,-288.06 2228.26,-268.95 2215.92,-250.84 2203.07,-235.61"/>
<text text-anchor="middle" x="2303" y="-333.81" font-family="sans-serif" font-size="12.00">Customer/Supplier</text>
<polygon fill="white" stroke="transparent" points="2196.07,-226.61 2196.07,-243.61 2210.07,-243.61 2210.07,-226.61 2196.07,-226.61"/>
<text text-anchor="start" x="2198.07" y="-232.01" font-family="sans-serif" font-size="12.00">D</text>
<polygon fill="white" stroke="transparent" points="2182.75,-430.97 2182.75,-447.97 2196.75,-447.97 2196.75,-430.97 2182.75,-430.97"/>
<text text-anchor="start" x="2184.75" y="-436.37" font-family="sans-serif" font-size="12.00">U</text>
</g>
<!-- GestionProductosContext&#45;&gt;CarritoComprasContext -->
<g id="edge6" class="edge">
<title>GestionProductosContext&#45;&gt;CarritoComprasContext</title>
<path fill="none" stroke="black" stroke-width="2" d="M1862.17,-377.69C1855.01,-390.89 1851.99,-405.16 1861,-416.75 1876.28,-436.42 1924.4,-451.19 1975.01,-461.7"/>
<text text-anchor="middle" x="1917" y="-407.15" font-family="sans-serif" font-size="12.00">Customer/Supplier</text>
<polygon fill="white" stroke="transparent" points="1968.01,-452.7 1968.01,-469.7 1982.01,-469.7 1982.01,-452.7 1968.01,-452.7"/>
<text text-anchor="start" x="1970.01" y="-458.1" font-family="sans-serif" font-size="12.00">D</text>
<polygon fill="white" stroke="transparent" points="1855.17,-368.69 1855.17,-385.69 1869.17,-385.69 1869.17,-368.69 1855.17,-368.69"/>
<text text-anchor="start" x="1857.17" y="-374.09" font-family="sans-serif" font-size="12.00">U</text>
</g>
<!-- GestionDevolucionesContext -->
<g id="node6" class="node">
<title>GestionDevolucionesContext</title>
<polygon fill="none" stroke="black" stroke-width="2" points="1624.72,-226.98 1614.2,-225.34 1604.06,-223.62 1594.34,-221.81 1585.08,-219.93 1576.33,-217.98 1568.12,-215.97 1560.48,-213.91 1553.44,-211.8 1547.04,-209.65 1541.29,-207.46 1536.22,-205.25 1531.86,-203.02 1528.2,-200.78 1525.27,-198.53 1523.08,-196.28 1521.62,-194.03 1520.9,-191.8 1520.92,-189.58 1521.66,-187.38 1523.13,-185.21 1525.3,-183.07 1528.16,-180.97 1531.7,-178.91 1535.88,-176.89 1540.68,-174.92 1546.09,-173.01 1552.06,-171.14 1558.56,-169.34 1565.57,-167.6 1573.04,-165.92 1580.95,-164.31 1589.25,-162.76 1597.91,-161.29 1606.89,-159.89 1616.15,-158.57 1625.65,-157.33 1635.36,-156.16 1645.24,-155.08 1655.25,-154.08 1665.36,-153.17 1675.54,-152.34 1685.74,-151.6 1695.95,-150.95 1706.12,-150.39 1716.24,-149.93 1726.28,-149.56 1736.2,-149.28 1746,-149.11 1755.64,-149.03 1765.12,-149.05 1774.41,-149.17 1783.5,-149.4 1792.37,-149.73 1801.02,-150.16 1809.43,-150.69 1817.59,-151.33 1825.5,-152.08 1833.15,-152.93 1840.53,-153.88 1847.64,-154.94 1854.48,-156.1 1861.04,-157.36 1867.32,-158.72 1873.31,-160.18 1879.02,-161.74 1884.44,-163.39 1889.56,-165.13 1894.38,-166.95 1898.9,-168.86 1903.12,-170.84 1907.02,-172.91 1910.6,-175.03 1913.86,-177.23 1916.79,-179.48 1919.38,-181.78 1921.62,-184.13 1923.51,-186.51 1925.02,-188.93 1926.16,-191.37 1926.9,-193.82 1927.25,-196.29 1927.19,-198.75 1926.7,-201.21 1925.78,-203.65 1924.41,-206.06 1922.59,-208.44 1920.31,-210.78 1917.55,-213.06 1914.31,-215.29 1910.58,-217.46 1906.35,-219.54 1901.63,-221.55 1896.41,-223.46 1890.7,-225.28 1884.48,-227 1877.78,-228.6 1870.59,-230.09 1862.92,-231.46 1854.79,-232.71 1846.21,-233.82 1837.2,-234.8 1827.78,-235.64 1817.97,-236.34 1807.79,-236.9 1797.28,-237.31 1786.47,-237.58 1775.37,-237.7 1764.05,-237.68 1752.52,-237.52 1740.83,-237.21 1729.02,-236.76 1717.13,-236.17 1705.21,-235.45 1693.31,-234.6 1681.46,-233.62 1669.71,-232.52 1658.12,-231.29 1646.73,-229.96 1635.58,-228.52 1624.72,-226.98"/>
<text text-anchor="middle" x="1739" y="-187.52" font-family="sans-serif" font-size="16.00">GestionDevolucionesContext</text>
</g>
<!-- GestionProductosContext&#45;&gt;GestionDevolucionesContext -->
<g id="edge5" class="edge">
<title>GestionProductosContext&#45;&gt;GestionDevolucionesContext</title>
<path fill="none" stroke="black" stroke-width="2" d="M1777.47,-304.06C1762.72,-295.32 1749.51,-284.21 1740,-270.06 1733.52,-260.43 1731.28,-248.49 1731.16,-236.89"/>
<text text-anchor="middle" x="1815.5" y="-260.46" font-family="sans-serif" font-size="12.00"> &#160;&#160;&#160;&#160;&#160;&#160;&#160;&#160;&#160;&#160;&#160;&#160;&#160;&#160;&#160;&#160;&#160;&#160;&#160;&#160;&#160;&#160;&#160;&#160;&#160;&#160;&#160;&#160;&#160;&#160;&#160;&#160;&#160;&#160;&#160;&#160;&#160;&#160;&#160;</text>
<polygon fill="white" stroke="transparent" points="1712.16,-226.89 1712.16,-245.89 1728.16,-245.89 1728.16,-226.89 1712.16,-226.89"/>
<polyline fill="none" stroke="black" points="1728.16,-226.89 1728.16,-245.89 "/>
<text text-anchor="start" x="1715.16" y="-233.29" font-family="sans-serif" font-size="12.00">D</text>
<polygon fill="white" stroke="transparent" points="1728.16,-226.89 1728.16,-245.89 1750.16,-245.89 1750.16,-226.89 1728.16,-226.89"/>
<polygon fill="none" stroke="black" points="1728.16,-226.89 1728.16,-245.89 1750.16,-245.89 1750.16,-226.89 1728.16,-226.89"/>
<text text-anchor="start" x="1731.16" y="-233.29" font-family="sans-serif" font-size="12.00">CF</text>
<polygon fill="white" stroke="transparent" points="1742.47,-294.06 1742.47,-313.06 1758.47,-313.06 1758.47,-294.06 1742.47,-294.06"/>
<polyline fill="none" stroke="black" points="1758.47,-294.06 1758.47,-313.06 "/>
<text text-anchor="start" x="1745.47" y="-300.46" font-family="sans-serif" font-size="12.00">U</text>
<polygon fill="white" stroke="transparent" points="1758.47,-294.06 1758.47,-313.06 1813.47,-313.06 1813.47,-294.06 1758.47,-294.06"/>
<polygon fill="none" stroke="black" points="1758.47,-294.06 1758.47,-313.06 1813.47,-313.06 1813.47,-294.06 1758.47,-294.06"/>
<text text-anchor="start" x="1761.47" y="-300.46" font-family="sans-serif" font-size="12.00">OHS, PL</text>
</g>
<!-- GestionProductosContext&#45;&gt;GestionClientesContext -->
<g id="edge7" class="edge">
<title>GestionProductosContext&#45;&gt;GestionClientesContext</title>
<path fill="none" stroke="black" stroke-width="2" d="M1960.62,-293.05C1979.77,-280.93 2000.98,-268.05 2021,-257.06 2035.52,-249.08 2051.2,-241.11 2066.57,-233.63"/>
<text text-anchor="middle" x="2063" y="-260.46" font-family="sans-serif" font-size="12.00">Shared Kernel</text>
</g>
<!-- GestionPedidosContext -->
<g id="node7" class="node">
<title>GestionPedidosContext</title>
<polygon fill="none" stroke="black" stroke-width="2" points="2131.22,-79.47 2123.25,-77.57 2115.64,-75.58 2108.42,-73.53 2101.61,-71.42 2095.25,-69.25 2089.37,-67.04 2083.98,-64.79 2079.11,-62.51 2074.79,-60.21 2071.03,-57.89 2067.84,-55.57 2065.24,-53.24 2063.23,-50.92 2061.83,-48.61 2061.03,-46.33 2060.85,-44.06 2061.27,-41.83 2062.29,-39.64 2063.9,-37.48 2066.1,-35.38 2068.87,-33.32 2072.2,-31.32 2076.06,-29.37 2080.43,-27.49 2085.31,-25.67 2090.65,-23.92 2096.43,-22.24 2102.64,-20.63 2109.23,-19.1 2116.18,-17.64 2123.45,-16.26 2131.03,-14.96 2138.86,-13.74 2146.93,-12.6 2155.19,-11.55 2163.62,-10.57 2172.19,-9.68 2180.86,-8.88 2189.6,-8.16 2198.38,-7.53 2207.18,-6.99 2215.96,-6.54 2224.7,-6.17 2233.38,-5.9 2241.96,-5.71 2250.44,-5.62 2258.78,-5.62 2266.97,-5.71 2274.99,-5.89 2282.82,-6.17 2290.45,-6.55 2297.87,-7.02 2305.07,-7.58 2312.03,-8.25 2318.74,-9 2325.21,-9.86 2331.42,-10.81 2337.36,-11.86 2343.04,-13.01 2348.45,-14.25 2353.58,-15.58 2358.44,-17.01 2363.02,-18.52 2367.31,-20.13 2371.33,-21.83 2375.06,-23.6 2378.51,-25.46 2381.68,-27.4 2384.55,-29.41 2387.14,-31.49 2389.43,-33.64 2391.43,-35.84 2393.13,-38.1 2394.54,-40.41 2395.63,-42.75 2396.42,-45.14 2396.9,-47.55 2397.05,-49.98 2396.89,-52.43 2396.39,-54.88 2395.56,-57.32 2394.39,-59.76 2392.87,-62.18 2391,-64.57 2388.77,-66.92 2386.18,-69.22 2383.23,-71.47 2379.91,-73.66 2376.21,-75.78 2372.14,-77.82 2367.7,-79.77 2362.88,-81.63 2357.69,-83.38 2352.13,-85.02 2346.21,-86.55 2339.93,-87.96 2333.3,-89.24 2326.34,-90.38 2319.04,-91.39 2311.44,-92.26 2303.53,-92.98 2295.35,-93.56 2286.92,-93.99 2278.24,-94.26 2269.35,-94.38 2260.28,-94.36 2251.04,-94.18 2241.67,-93.85 2232.21,-93.37 2222.67,-92.75 2213.1,-91.98 2203.53,-91.08 2193.99,-90.04 2184.52,-88.87 2175.16,-87.58 2165.94,-86.17 2156.9,-84.65 2148.08,-83.02 2139.5,-81.29 2131.22,-79.47"/>
<text text-anchor="middle" x="2242" y="-43.49" font-family="sans-serif" font-size="16.00">GestionPedidosContext</text>
</g>
<!-- GestionDevolucionesContext&#45;&gt;GestionPedidosContext -->
<g id="edge8" class="edge">
<title>GestionDevolucionesContext&#45;&gt;GestionPedidosContext</title>
<path fill="none" stroke="black" stroke-width="2" d="M1858.2,-156.66C1941,-133.29 2050.54,-102.36 2131.39,-79.53"/>
<text text-anchor="middle" x="2062" y="-115.99" font-family="sans-serif" font-size="12.00">Customer/Supplier</text>
<polygon fill="white" stroke="transparent" points="2124.39,-70.53 2124.39,-87.53 2138.39,-87.53 2138.39,-70.53 2124.39,-70.53"/>
<text text-anchor="start" x="2126.39" y="-75.93" font-family="sans-serif" font-size="12.00">D</text>
<polygon fill="white" stroke="transparent" points="1851.2,-147.66 1851.2,-164.66 1865.2,-164.66 1865.2,-147.66 1851.2,-147.66"/>
<text text-anchor="start" x="1853.2" y="-153.06" font-family="sans-serif" font-size="12.00">U</text>
</g>
<!-- GestionPedidosContext&#45;&gt;CarritoComprasContext -->
<g id="edge10" class="edge">
<title>GestionPedidosContext&#45;&gt;CarritoComprasContext</title>
<path fill="none" stroke="black" stroke-width="2" d="M2308.2,-92.68C2324.55,-106.96 2340.17,-124.18 2350,-143.59 2356.38,-156.19 2381.59,-358.37 2363,-385.75 2337.59,-423.17 2295.2,-446.13 2252.83,-460.22"/>
<text text-anchor="middle" x="2422" y="-260.46" font-family="sans-serif" font-size="12.00">Customer/Supplier</text>
<polygon fill="white" stroke="transparent" points="2245.83,-451.22 2245.83,-468.22 2259.83,-468.22 2259.83,-451.22 2245.83,-451.22"/>
<text text-anchor="start" x="2247.83" y="-456.62" font-family="sans-serif" font-size="12.00">D</text>
<polygon fill="white" stroke="transparent" points="2301.2,-83.68 2301.2,-100.68 2315.2,-100.68 2315.2,-83.68 2301.2,-83.68"/>
<text text-anchor="start" x="2303.2" y="-89.08" font-family="sans-serif" font-size="12.00">U</text>
</g>
<!-- GestionPedidosContext&#45;&gt;GestionDevolucionesContext -->
<g id="edge9" class="edge">
<title>GestionPedidosContext&#45;&gt;GestionDevolucionesContext</title>
<path fill="none" stroke="black" stroke-width="2" d="M2189.51,-89.51C2169.45,-103.21 2145.68,-117.12 2122,-125.59 2056.28,-149.1 2034.91,-132.54 1966,-143.59 1936.2,-148.37 1904.38,-154.35 1874.28,-160.44"/>
<text text-anchor="middle" x="2206" y="-115.99" font-family="sans-serif" font-size="12.00">Customer/Supplier</text>
<polygon fill="white" stroke="transparent" points="1867.28,-151.44 1867.28,-168.44 1881.28,-168.44 1881.28,-151.44 1867.28,-151.44"/>
<text text-anchor="start" x="1869.28" y="-156.84" font-family="sans-serif" font-size="12.00">D</text>
<polygon fill="white" stroke="transparent" points="2182.51,-80.51 2182.51,-97.51 2196.51,-97.51 2196.51,-80.51 2182.51,-80.51"/>
<text text-anchor="start" x="2184.51" y="-85.91" font-family="sans-serif" font-size="12.00">U</text>
</g>
<!-- GestionClientesContext&#45;&gt;CarritoComprasContext -->
<g id="edge12" class="edge">
<title>GestionClientesContext&#45;&gt;CarritoComprasContext</title>
<path fill="none" stroke="black" stroke-width="2" d="M2134.6,-239.41C2128.23,-254.57 2122.2,-271.68 2119,-288.06 2109.32,-337.44 2110.91,-395.23 2113.93,-434.91"/>
<text text-anchor="middle" x="2175" y="-333.81" font-family="sans-serif" font-size="12.00">Customer/Supplier</text>
<polygon fill="white" stroke="transparent" points="2106.93,-425.91 2106.93,-442.91 2120.93,-442.91 2120.93,-425.91 2106.93,-425.91"/>
<text text-anchor="start" x="2108.93" y="-431.31" font-family="sans-serif" font-size="12.00">D</text>
<polygon fill="white" stroke="transparent" points="2127.6,-230.41 2127.6,-247.41 2141.6,-247.41 2141.6,-230.41 2127.6,-230.41"/>
<text text-anchor="start" x="2129.6" y="-235.81" font-family="sans-serif" font-size="12.00">U</text>
</g>
<!-- GestionClientesContext&#45;&gt;GestionProductosContext -->
<g id="edge11" class="edge">
<title>GestionClientesContext&#45;&gt;GestionProductosContext</title>
<path fill="none" stroke="black" stroke-width="2" d="M2030.51,-222.85C1972.94,-237.17 1916.63,-252.15 1912,-257.06 1904.04,-265.49 1899.56,-276.74 1897.13,-288.1"/>
<text text-anchor="middle" x="1954" y="-260.46" font-family="sans-serif" font-size="12.00">Shared Kernel</text>
</g>
<!-- GestionSesionesContext -->
<g id="node9" class="node">
<title>GestionSesionesContext</title>
<polygon fill="none" stroke="black" stroke-width="2" points="2474.1,-594.99 2482.96,-593.26 2492.04,-591.64 2501.31,-590.13 2510.73,-588.74 2520.26,-587.49 2529.88,-586.36 2539.55,-585.38 2549.22,-584.53 2558.88,-583.84 2568.47,-583.29 2577.99,-582.9 2587.39,-582.66 2596.65,-582.57 2605.74,-582.64 2614.63,-582.87 2623.31,-583.25 2631.75,-583.79 2639.93,-584.48 2647.83,-585.31 2655.44,-586.3 2662.75,-587.42 2669.74,-588.67 2676.4,-590.06 2682.72,-591.57 2688.69,-593.2 2694.32,-594.93 2699.59,-596.78 2704.5,-598.71 2709.05,-600.74 2713.23,-602.84 2717.06,-605.02 2720.53,-607.26 2723.63,-609.55 2726.38,-611.89 2728.77,-614.26 2730.81,-616.67 2732.51,-619.09 2733.85,-621.52 2734.86,-623.95 2735.52,-626.38 2735.84,-628.8 2735.83,-631.19 2735.49,-633.56 2734.82,-635.89 2733.82,-638.18 2732.5,-640.43 2730.84,-642.62 2728.87,-644.76 2726.57,-646.83 2723.95,-648.83 2721,-650.77 2717.73,-652.63 2714.14,-654.41 2710.23,-656.12 2706,-657.74 2701.45,-659.27 2696.58,-660.72 2691.39,-662.08 2685.89,-663.36 2680.08,-664.54 2673.97,-665.64 2667.56,-666.64 2660.85,-667.55 2653.86,-668.38 2646.59,-669.11 2639.06,-669.75 2631.27,-670.3 2623.24,-670.76 2614.99,-671.14 2606.53,-671.42 2597.88,-671.61 2589.06,-671.72 2580.1,-671.73 2571.01,-671.66 2561.82,-671.5 2552.56,-671.25 2543.26,-670.92 2533.94,-670.49 2524.63,-669.98 2515.37,-669.38 2506.19,-668.7 2497.12,-667.92 2488.19,-667.06 2479.44,-666.12 2470.9,-665.08 2462.61,-663.96 2454.6,-662.75 2446.9,-661.46 2439.54,-660.09 2432.57,-658.63 2426,-657.09 2419.86,-655.47 2414.2,-653.77 2409.02,-651.99 2404.36,-650.14 2400.23,-648.23 2396.66,-646.24 2393.67,-644.19 2391.26,-642.08 2389.46,-639.91 2388.27,-637.7 2387.69,-635.44 2387.74,-633.14 2388.41,-630.81 2389.71,-628.45 2391.62,-626.07 2394.13,-623.67 2397.25,-621.27 2400.95,-618.88 2405.22,-616.49 2410.05,-614.12 2415.4,-611.78 2421.26,-609.47 2427.6,-607.2 2434.39,-604.99 2441.61,-602.84 2449.22,-600.75 2457.2,-598.74 2465.5,-596.82 2474.1,-594.99"/>
<text text-anchor="middle" x="2575" y="-626.45" font-family="sans-serif" font-size="16.00">GestionSesionesContext</text>
</g>
<!-- IntegracionRedesSocialesContext -->
<g id="node10" class="node">
<title>IntegracionRedesSocialesContext</title>
<polygon fill="none" stroke="black" stroke-width="2" points="541.91,-664.43 530.41,-662.67 519.37,-660.84 508.83,-658.93 498.83,-656.94 489.42,-654.9 480.64,-652.8 472.52,-650.66 465.1,-648.48 458.41,-646.26 452.47,-644.02 447.32,-641.75 442.95,-639.48 439.41,-637.21 436.68,-634.93 434.79,-632.66 433.73,-630.41 433.51,-628.17 434.12,-625.97 435.55,-623.79 437.79,-621.64 440.82,-619.54 444.62,-617.48 449.18,-615.47 454.46,-613.51 460.43,-611.6 467.07,-609.76 474.33,-607.97 482.19,-606.25 490.6,-604.6 499.52,-603.01 508.92,-601.5 518.74,-600.06 528.96,-598.7 539.51,-597.41 550.36,-596.2 561.47,-595.07 572.8,-594.03 584.29,-593.06 595.91,-592.18 607.62,-591.39 619.38,-590.69 631.15,-590.07 642.9,-589.54 654.59,-589.1 666.18,-588.76 677.66,-588.51 689,-588.35 700.15,-588.29 711.11,-588.33 721.86,-588.46 732.36,-588.69 742.61,-589.02 752.58,-589.45 762.27,-589.98 771.67,-590.61 780.76,-591.35 789.53,-592.18 797.98,-593.11 806.1,-594.15 813.89,-595.29 821.34,-596.52 828.44,-597.85 835.2,-599.28 841.61,-600.81 847.67,-602.42 853.37,-604.13 858.72,-605.92 863.7,-607.79 868.33,-609.75 872.58,-611.77 876.46,-613.87 879.96,-616.03 883.07,-618.26 885.8,-620.53 888.12,-622.85 890.04,-625.22 891.54,-627.61 892.62,-630.04 893.26,-632.48 893.45,-634.94 893.19,-637.39 892.47,-639.85 891.26,-642.29 889.57,-644.7 887.38,-647.09 884.68,-649.44 881.47,-651.74 877.73,-653.99 873.46,-656.17 868.66,-658.28 863.31,-660.31 857.43,-662.25 851,-664.1 844.03,-665.84 836.53,-667.48 828.5,-669 819.95,-670.4 810.89,-671.67 801.34,-672.82 791.31,-673.82 780.83,-674.69 769.92,-675.42 758.61,-676 746.92,-676.44 734.89,-676.73 722.55,-676.87 709.94,-676.86 697.09,-676.71 684.06,-676.41 670.89,-675.97 657.61,-675.38 644.29,-674.66 630.96,-673.8 617.68,-672.81 604.5,-671.7 591.47,-670.46 578.65,-669.11 566.08,-667.65 553.82,-666.09 541.91,-664.43"/>
<text text-anchor="middle" x="681" y="-626.45" font-family="sans-serif" font-size="16.00">IntegracionRedesSocialesContext</text>
</g>
<!-- IntegracionRedesSocialesContext&#45;&gt;VentasContext -->
<g id="edge13" class="edge">
<title>IntegracionRedesSocialesContext&#45;&gt;VentasContext</title>
<path fill="none" stroke="black" stroke-width="2" d="M755.68,-589.53C796.89,-567.61 847.59,-540.64 887.28,-519.53"/>
<text text-anchor="middle" x="860.5" y="-553.79" font-family="sans-serif" font-size="12.00">Partnership</text>
</g>
<!-- NotificacionesComunicacionesContext -->
<g id="node11" class="node">
<title>NotificacionesComunicacionesContext</title>
<polygon fill="none" stroke="black" stroke-width="2" points="1064.29,-664.04 1051.54,-662.24 1039.32,-660.37 1027.66,-658.41 1016.62,-656.39 1006.25,-654.31 996.6,-652.18 987.69,-650 979.57,-647.78 972.27,-645.54 965.82,-643.27 960.25,-640.98 955.58,-638.69 951.82,-636.39 948.98,-634.1 947.08,-631.82 946.12,-629.56 946.09,-627.32 947,-625.1 948.82,-622.92 951.55,-620.78 955.17,-618.68 959.65,-616.63 964.97,-614.63 971.1,-612.68 978,-610.79 985.64,-608.96 993.98,-607.2 1002.98,-605.5 1012.6,-603.87 1022.79,-602.31 1033.5,-600.83 1044.68,-599.42 1056.29,-598.09 1068.28,-596.83 1080.6,-595.66 1093.2,-594.56 1106.02,-593.55 1119.03,-592.63 1132.18,-591.79 1145.42,-591.03 1158.7,-590.37 1171.99,-589.79 1185.25,-589.3 1198.43,-588.9 1211.49,-588.6 1224.42,-588.38 1237.17,-588.26 1249.71,-588.24 1262.03,-588.31 1274.08,-588.48 1285.86,-588.75 1297.35,-589.12 1308.52,-589.58 1319.35,-590.15 1329.85,-590.81 1339.99,-591.58 1349.76,-592.45 1359.17,-593.41 1368.19,-594.48 1376.82,-595.65 1385.07,-596.91 1392.92,-598.27 1400.37,-599.73 1407.43,-601.28 1414.07,-602.92 1420.31,-604.65 1426.14,-606.46 1431.56,-608.36 1436.55,-610.33 1441.13,-612.38 1445.28,-614.5 1449,-616.68 1452.28,-618.92 1455.11,-621.21 1457.49,-623.55 1459.41,-625.92 1460.86,-628.33 1461.83,-630.77 1462.3,-633.22 1462.28,-635.68 1461.74,-638.14 1460.68,-640.6 1459.08,-643.04 1456.94,-645.46 1454.24,-647.85 1450.97,-650.19 1447.13,-652.49 1442.71,-654.73 1437.69,-656.9 1432.08,-659 1425.87,-661.02 1419.06,-662.95 1411.66,-664.78 1403.65,-666.5 1395.06,-668.12 1385.88,-669.61 1376.13,-670.99 1365.83,-672.23 1354.98,-673.35 1343.61,-674.32 1331.75,-675.16 1319.42,-675.85 1306.64,-676.39 1293.47,-676.79 1279.92,-677.04 1266.03,-677.14 1251.86,-677.09 1237.45,-676.89 1222.83,-676.55 1208.07,-676.06 1193.21,-675.43 1178.31,-674.66 1163.42,-673.75 1148.6,-672.71 1133.9,-671.55 1119.38,-670.27 1105.11,-668.87 1091.13,-667.36 1077.5,-665.75 1064.29,-664.04"/>
<text text-anchor="middle" x="1224" y="-626.45" font-family="sans-serif" font-size="16.00">NotificacionesComunicacionesContext</text>
</g>
<!-- NotificacionesComunicacionesContext&#45;&gt;VentasContext -->
<g id="edge14" class="edge">
<title>NotificacionesComunicacionesContext&#45;&gt;VentasContext</title>
<path fill="none" stroke="black" stroke-width="2" d="M1151.73,-590.67C1109.39,-568.07 1056.44,-539.8 1015.85,-518.13"/>
<text text-anchor="middle" x="1131.5" y="-553.79" font-family="sans-serif" font-size="12.00">Partnership</text>
</g>
<!-- ProcesoPagosContext -->
<g id="node12" class="node">
<title>ProcesoPagosContext</title>
<polygon fill="none" stroke="black" stroke-width="2" points="2494.58,-222.11 2487.49,-220.09 2480.74,-217.99 2474.36,-215.82 2468.39,-213.6 2462.84,-211.33 2457.75,-209.03 2453.13,-206.69 2449,-204.33 2445.38,-201.95 2442.29,-199.57 2439.73,-197.19 2437.72,-194.81 2436.28,-192.45 2435.39,-190.11 2435.06,-187.8 2435.3,-185.52 2436.11,-183.29 2437.46,-181.09 2439.37,-178.95 2441.81,-176.86 2444.77,-174.83 2448.24,-172.87 2452.21,-170.97 2456.64,-169.14 2461.53,-167.38 2466.84,-165.69 2472.56,-164.09 2478.65,-162.56 2485.09,-161.11 2491.85,-159.74 2498.9,-158.45 2506.21,-157.25 2513.76,-156.14 2521.51,-155.1 2529.42,-154.16 2537.48,-153.3 2545.65,-152.53 2553.9,-151.84 2562.19,-151.24 2570.52,-150.73 2578.84,-150.31 2587.13,-149.98 2595.36,-149.74 2603.52,-149.58 2611.58,-149.52 2619.52,-149.54 2627.31,-149.66 2634.95,-149.87 2642.4,-150.16 2649.67,-150.56 2656.74,-151.04 2663.59,-151.62 2670.21,-152.29 2676.59,-153.05 2682.73,-153.91 2688.61,-154.86 2694.24,-155.9 2699.6,-157.04 2704.7,-158.27 2709.53,-159.6 2714.08,-161.01 2718.36,-162.51 2722.36,-164.1 2726.08,-165.78 2729.52,-167.54 2732.68,-169.38 2735.57,-171.3 2738.17,-173.29 2740.49,-175.35 2742.52,-177.48 2744.28,-179.67 2745.74,-181.91 2746.92,-184.21 2747.81,-186.55 2748.4,-188.92 2748.7,-191.33 2748.7,-193.76 2748.4,-196.21 2747.8,-198.67 2746.89,-201.12 2745.66,-203.57 2744.12,-206.01 2742.26,-208.41 2740.08,-210.79 2737.56,-213.12 2734.72,-215.4 2731.55,-217.62 2728.05,-219.78 2724.2,-221.85 2720.03,-223.85 2715.52,-225.75 2710.68,-227.54 2705.51,-229.23 2700.01,-230.81 2694.2,-232.26 2688.07,-233.59 2681.64,-234.78 2674.92,-235.83 2667.92,-236.75 2660.66,-237.51 2653.14,-238.13 2645.39,-238.59 2637.42,-238.9 2629.27,-239.05 2620.94,-239.05 2612.46,-238.9 2603.86,-238.59 2595.17,-238.12 2586.41,-237.51 2577.62,-236.75 2568.81,-235.85 2560.03,-234.8 2551.31,-233.63 2542.68,-232.32 2534.16,-230.89 2525.81,-229.34 2517.64,-227.68 2509.69,-225.92 2501.99,-224.06 2494.58,-222.11"/>
<text text-anchor="middle" x="2604" y="-187.52" font-family="sans-serif" font-size="16.00">ProcesoPagosContext</text>
</g>
<!-- ProcesoPagosContext&#45;&gt;GestionPedidosContext -->
<g id="edge15" class="edge">
<title>ProcesoPagosContext&#45;&gt;GestionPedidosContext</title>
<path fill="none" stroke="black" stroke-width="2" d="M2522.87,-154.69C2491.24,-141.11 2454.58,-125.74 2421,-112.59 2398.09,-103.62 2373.36,-94.42 2349.8,-85.9"/>
<text text-anchor="middle" x="2507" y="-115.99" font-family="sans-serif" font-size="12.00">Customer/Supplier</text>
<polygon fill="white" stroke="transparent" points="2342.8,-76.9 2342.8,-93.9 2356.8,-93.9 2356.8,-76.9 2342.8,-76.9"/>
<text text-anchor="start" x="2344.8" y="-82.3" font-family="sans-serif" font-size="12.00">D</text>
<polygon fill="white" stroke="transparent" points="2515.87,-145.69 2515.87,-162.69 2529.87,-162.69 2529.87,-145.69 2515.87,-145.69"/>
<text text-anchor="start" x="2517.87" y="-151.09" font-family="sans-serif" font-size="12.00">U</text>
</g>
<!-- SeguridadContext -->
<g id="node13" class="node">
<title>SeguridadContext</title>
<polygon fill="none" stroke="black" stroke-width="2" points="2812.96,-604.72 2818.01,-602.37 2823.33,-600.11 2828.9,-597.93 2834.71,-595.87 2840.72,-593.91 2846.92,-592.08 2853.29,-590.37 2859.81,-588.8 2866.45,-587.37 2873.19,-586.08 2880.01,-584.95 2886.89,-583.98 2893.82,-583.16 2900.76,-582.51 2907.71,-582.02 2914.64,-581.69 2921.54,-581.53 2928.38,-581.53 2935.16,-581.7 2941.86,-582.03 2948.46,-582.51 2954.94,-583.15 2961.31,-583.94 2967.53,-584.87 2973.61,-585.95 2979.53,-587.16 2985.27,-588.49 2990.84,-589.94 2996.22,-591.51 3001.4,-593.18 3006.37,-594.94 3011.13,-596.8 3015.67,-598.73 3019.99,-600.74 3024.07,-602.81 3027.91,-604.93 3031.5,-607.1 3034.84,-609.31 3037.93,-611.54 3040.75,-613.8 3043.31,-616.07 3045.59,-618.35 3047.59,-620.63 3049.31,-622.91 3050.75,-625.17 3051.89,-627.41 3052.73,-629.63 3053.28,-631.82 3053.52,-633.97 3053.45,-636.09 3053.07,-638.16 3052.38,-640.19 3051.36,-642.17 3050.03,-644.11 3048.38,-645.98 3046.4,-647.81 3044.1,-649.58 3041.48,-651.28 3038.54,-652.93 3035.28,-654.52 3031.7,-656.05 3027.8,-657.52 3023.6,-658.92 3019.1,-660.26 3014.3,-661.53 3009.21,-662.74 3003.84,-663.89 2998.21,-664.96 2992.32,-665.97 2986.19,-666.91 2979.84,-667.79 2973.26,-668.59 2966.5,-669.32 2959.55,-669.97 2952.45,-670.55 2945.2,-671.05 2937.84,-671.47 2930.39,-671.81 2922.86,-672.06 2915.28,-672.23 2907.67,-672.31 2900.07,-672.29 2892.49,-672.18 2884.97,-671.98 2877.52,-671.67 2870.18,-671.27 2862.96,-670.76 2855.9,-670.14 2849.02,-669.41 2842.35,-668.58 2835.91,-667.64 2829.72,-666.58 2823.81,-665.42 2818.19,-664.14 2812.9,-662.75 2807.94,-661.25 2803.35,-659.65 2799.12,-657.94 2795.29,-656.12 2791.85,-654.2 2788.83,-652.19 2786.24,-650.09 2784.08,-647.89 2782.36,-645.62 2781.08,-643.27 2780.25,-640.86 2779.87,-638.38 2779.93,-635.85 2780.45,-633.27 2781.4,-630.66 2782.78,-628.02 2784.59,-625.37 2786.82,-622.7 2789.45,-620.04 2792.47,-617.4 2795.88,-614.77 2799.64,-612.18 2803.76,-609.64 2808.2,-607.15 2812.96,-604.72"/>
<text text-anchor="middle" x="2923" y="-626.45" font-family="sans-serif" font-size="16.00">SeguridadContext</text>
</g>
<!-- ServicioClienteContext -->
<g id="node14" class="node">
<title>ServicioClienteContext</title>
<polygon fill="none" stroke="black" stroke-width="2" points="1535.92,-613.33 1539.84,-610.67 1544.14,-608.07 1548.82,-605.54 1553.85,-603.09 1559.22,-600.74 1564.91,-598.5 1570.9,-596.36 1577.17,-594.35 1583.7,-592.47 1590.47,-590.72 1597.46,-589.12 1604.65,-587.66 1612.02,-586.36 1619.55,-585.21 1627.22,-584.23 1635.01,-583.4 1642.89,-582.74 1650.85,-582.25 1658.87,-581.91 1666.92,-581.75 1675,-581.74 1683.07,-581.89 1691.12,-582.2 1699.13,-582.65 1707.08,-583.26 1714.96,-584.01 1722.75,-584.89 1730.42,-585.91 1737.97,-587.04 1745.38,-588.3 1752.62,-589.66 1759.7,-591.12 1766.58,-592.68 1773.26,-594.33 1779.71,-596.05 1785.94,-597.85 1791.91,-599.7 1797.63,-601.62 1803.07,-603.58 1808.22,-605.58 1813.08,-607.61 1817.62,-609.68 1821.84,-611.76 1825.73,-613.85 1829.27,-615.96 1832.46,-618.06 1835.28,-620.17 1837.73,-622.27 1839.79,-624.36 1841.47,-626.43 1842.75,-628.49 1843.63,-630.52 1844.1,-632.53 1844.15,-634.52 1843.79,-636.47 1843,-638.4 1841.79,-640.3 1840.16,-642.16 1838.11,-643.98 1835.64,-645.77 1832.74,-647.53 1829.43,-649.25 1825.71,-650.92 1821.59,-652.56 1817.06,-654.16 1812.16,-655.71 1806.87,-657.22 1801.21,-658.68 1795.21,-660.1 1788.86,-661.47 1782.2,-662.78 1775.22,-664.05 1767.96,-665.25 1760.43,-666.4 1752.65,-667.48 1744.65,-668.5 1736.44,-669.45 1728.05,-670.32 1719.51,-671.12 1710.84,-671.84 1702.07,-672.47 1693.22,-673.01 1684.32,-673.46 1675.4,-673.81 1666.49,-674.05 1657.62,-674.19 1648.81,-674.22 1640.09,-674.13 1631.5,-673.92 1623.05,-673.6 1614.78,-673.15 1606.71,-672.57 1598.87,-671.86 1591.29,-671.02 1583.98,-670.05 1576.98,-668.95 1570.3,-667.71 1563.97,-666.35 1558.01,-664.85 1552.43,-663.23 1547.25,-661.49 1542.49,-659.62 1538.16,-657.63 1534.27,-655.54 1530.84,-653.34 1527.87,-651.03 1525.37,-648.64 1523.35,-646.16 1521.81,-643.61 1520.75,-640.99 1520.17,-638.31 1520.07,-635.58 1520.45,-632.82 1521.3,-630.02 1522.62,-627.22 1524.4,-624.4 1526.63,-621.6 1529.3,-618.81 1532.4,-616.05 1535.92,-613.33"/>
<text text-anchor="middle" x="1685" y="-626.45" font-family="sans-serif" font-size="16.00">ServicioClienteContext</text>
</g>
<!-- ServicioClienteContext&#45;&gt;VentasContext -->
<g id="edge16" class="edge">
<title>ServicioClienteContext&#45;&gt;VentasContext</title>
<path fill="none" stroke="black" stroke-width="2" d="M1571.2,-596.26C1551.22,-590.95 1530.56,-585.77 1511,-581.39 1358.55,-547.28 1180.41,-518.22 1067.18,-501.08"/>
<text text-anchor="middle" x="1455.5" y="-553.79" font-family="sans-serif" font-size="12.00">Partnership</text>
</g>
</g>
</svg>
