<svg width="2000px" height="1683px"
 viewBox="0.00 0.00 625.32 525.77" xmlns="http://www.w3.org/2000/svg" xmlns:xlink="http://www.w3.org/1999/xlink">
<g id="graph0" class="graph" transform="scale(1.0 1.0) rotate(0) translate(4 521.77)">
<title>ContextMapGraph</title>
<polygon fill="white" stroke="transparent" points="-4,4 -4,-521.77 621.32,-521.77 621.32,4 -4,4"/>
<!-- atencionCliente -->
<g id="node1" class="node">
<title>atencionCliente</title>
<polygon fill="none" stroke="black" stroke-width="2" points="337.02,-2.4 344.64,-3.17 352.12,-4.06 359.42,-5.06 366.51,-6.16 373.38,-7.36 379.98,-8.66 386.3,-10.05 392.31,-11.53 397.99,-13.09 403.31,-14.73 408.25,-16.45 412.81,-18.23 416.96,-20.08 420.7,-21.99 424,-23.96 426.87,-25.97 429.3,-28.02 431.29,-30.11 432.83,-32.24 433.92,-34.39 434.57,-36.56 434.79,-38.75 434.58,-40.95 433.95,-43.16 432.91,-45.36 431.48,-47.56 429.67,-49.75 427.49,-51.92 424.96,-54.07 422.11,-56.2 418.94,-58.29 415.48,-60.35 411.74,-62.36 407.75,-64.33 403.53,-66.25 399.1,-68.12 394.47,-69.92 389.67,-71.66 384.72,-73.33 379.64,-74.92 374.44,-76.44 369.14,-77.88 363.77,-79.23 358.32,-80.5 352.83,-81.67 347.3,-82.75 341.75,-83.73 336.19,-84.6 330.62,-85.38 325.07,-86.04 319.53,-86.6 314.02,-87.05 308.54,-87.39 303.1,-87.61 297.71,-87.71 292.36,-87.7 287.07,-87.57 281.84,-87.33 276.67,-86.97 271.56,-86.49 266.53,-85.89 261.56,-85.18 256.67,-84.35 251.85,-83.41 247.12,-82.36 242.48,-81.2 237.92,-79.93 233.46,-78.56 229.11,-77.09 224.86,-75.52 220.73,-73.86 216.72,-72.12 212.84,-70.29 209.11,-68.38 205.53,-66.4 202.11,-64.35 198.86,-62.24 195.81,-60.07 192.95,-57.85 190.3,-55.59 187.89,-53.29 185.71,-50.97 183.79,-48.62 182.13,-46.25 180.76,-43.88 179.68,-41.5 178.92,-39.13 178.47,-36.78 178.36,-34.44 178.6,-32.13 179.19,-29.86 180.14,-27.62 181.47,-25.44 183.17,-23.31 185.26,-21.24 187.73,-19.24 190.6,-17.31 193.84,-15.47 197.47,-13.71 201.49,-12.03 205.87,-10.46 210.62,-8.98 215.72,-7.61 221.16,-6.34 226.93,-5.19 233.01,-4.15 239.38,-3.23 246.01,-2.43 252.9,-1.75 260,-1.19 267.3,-0.75 274.77,-0.44 282.39,-0.26 290.11,-0.2 297.91,-0.26 305.76,-0.45 313.63,-0.76 321.49,-1.18 329.3,-1.73 337.02,-2.4"/>
<text text-anchor="middle" x="302.32" y="-40.5" font-family="sans-serif" font-size="16.00">atencionCliente</text>
</g>
<!-- compras -->
<g id="node2" class="node">
<title>compras</title>
<polygon fill="none" stroke="black" stroke-width="2" points="95.85,-517.01 90.61,-517.32 85.39,-517.51 80.2,-517.57 75.06,-517.51 69.99,-517.33 65.02,-517.02 60.16,-516.58 55.43,-516.02 50.85,-515.34 46.44,-514.54 42.2,-513.62 38.16,-512.58 34.32,-511.42 30.7,-510.16 27.3,-508.79 24.14,-507.31 21.22,-505.73 18.56,-504.06 16.14,-502.3 13.98,-500.45 12.07,-498.53 10.43,-496.53 9.04,-494.46 7.9,-492.33 7.02,-490.14 6.39,-487.91 5.99,-485.64 5.84,-483.33 5.91,-480.99 6.21,-478.63 6.72,-476.27 7.43,-473.89 8.35,-471.52 9.45,-469.15 10.73,-466.8 12.18,-464.47 13.78,-462.18 15.54,-459.92 17.45,-457.7 19.48,-455.53 21.64,-453.42 23.91,-451.37 26.3,-449.39 28.78,-447.48 31.36,-445.65 34.03,-443.9 36.78,-442.24 39.6,-440.68 42.5,-439.21 45.47,-437.84 48.5,-436.57 51.59,-435.41 54.74,-434.36 57.94,-433.42 61.2,-432.59 64.5,-431.88 67.85,-431.28 71.25,-430.8 74.69,-430.44 78.17,-430.19 81.69,-430.07 85.25,-430.05 88.84,-430.16 92.46,-430.38 96.1,-430.72 99.77,-431.16 103.46,-431.72 107.15,-432.39 110.86,-433.16 114.56,-434.04 118.25,-435.02 121.93,-436.1 125.59,-437.27 129.21,-438.54 132.79,-439.89 136.31,-441.33 139.77,-442.85 143.15,-444.44 146.45,-446.11 149.64,-447.85 152.72,-449.65 155.67,-451.52 158.48,-453.43 161.13,-455.4 163.62,-457.42 165.92,-459.48 168.03,-461.57 169.93,-463.69 171.61,-465.85 173.06,-468.02 174.27,-470.21 175.22,-472.41 175.91,-474.61 176.33,-476.82 176.47,-479.02 176.32,-481.21 175.89,-483.38 175.16,-485.53 174.14,-487.65 172.82,-489.75 171.2,-491.8 169.29,-493.81 167.09,-495.78 164.6,-497.68 161.84,-499.53 158.81,-501.32 155.52,-503.03 151.98,-504.68 148.2,-506.24 144.2,-507.72 140,-509.11 135.6,-510.41 131.04,-511.61 126.31,-512.71 121.46,-513.7 116.48,-514.59 111.41,-515.37 106.27,-516.04 101.08,-516.58 95.85,-517.01"/>
<text text-anchor="middle" x="88.32" y="-469.66" font-family="sans-serif" font-size="16.00">compras</text>
</g>
<!-- ventas -->
<g id="node3" class="node">
<title>ventas</title>
<polygon fill="none" stroke="black" stroke-width="2" points="371.9,-180.16 372.56,-183.01 373.01,-185.86 373.27,-188.7 373.33,-191.51 373.19,-194.29 372.84,-197.02 372.29,-199.69 371.54,-202.3 370.59,-204.82 369.44,-207.27 368.09,-209.62 366.54,-211.87 364.81,-214.01 362.89,-216.03 360.8,-217.94 358.53,-219.72 356.09,-221.37 353.49,-222.89 350.74,-224.27 347.84,-225.52 344.81,-226.62 341.66,-227.59 338.38,-228.43 335,-229.12 331.53,-229.68 327.97,-230.11 324.33,-230.4 320.64,-230.57 316.89,-230.61 313.1,-230.53 309.29,-230.34 305.46,-230.03 301.63,-229.61 297.8,-229.1 294,-228.48 290.22,-227.77 286.49,-226.97 282.82,-226.09 279.2,-225.12 275.67,-224.09 272.22,-222.98 268.86,-221.81 265.61,-220.58 262.48,-219.28 259.47,-217.94 256.58,-216.54 253.84,-215.1 251.25,-213.6 248.8,-212.07 246.52,-210.5 244.39,-208.88 242.44,-207.23 240.66,-205.55 239.05,-203.83 237.63,-202.08 236.38,-200.3 235.33,-198.49 234.45,-196.64 233.77,-194.78 233.27,-192.88 232.96,-190.96 232.83,-189.01 232.89,-187.05 233.14,-185.06 233.56,-183.06 234.17,-181.03 234.95,-179 235.91,-176.95 237.04,-174.9 238.33,-172.85 239.79,-170.79 241.4,-168.74 243.17,-166.7 245.09,-164.68 247.15,-162.67 249.35,-160.69 251.68,-158.75 254.13,-156.84 256.71,-154.98 259.4,-153.17 262.2,-151.43 265.09,-149.75 268.08,-148.15 271.16,-146.62 274.31,-145.19 277.54,-143.86 280.83,-142.63 284.18,-141.52 287.58,-140.52 291.02,-139.66 294.49,-138.92 297.99,-138.32 301.5,-137.87 305.02,-137.56 308.54,-137.4 312.06,-137.41 315.56,-137.57 319.03,-137.89 322.46,-138.38 325.86,-139.02 329.2,-139.84 332.48,-140.81 335.69,-141.94 338.83,-143.24 341.88,-144.68 344.83,-146.28 347.68,-148.02 350.42,-149.9 353.04,-151.91 355.53,-154.04 357.89,-156.29 360.1,-158.65 362.17,-161.1 364.08,-163.65 365.82,-166.27 367.4,-168.96 368.8,-171.7 370.02,-174.49 371.05,-177.31 371.9,-180.16"/>
<text text-anchor="middle" x="302.32" y="-182.01" font-family="sans-serif" font-size="16.00">ventas</text>
</g>
<!-- compras&#45;&gt;ventas -->
<g id="edge1" class="edge">
<title>compras&#45;&gt;ventas</title>
<path fill="none" stroke="black" stroke-width="2" d="M73.71,-430.33C62.29,-389.26 52.64,-326.78 81.32,-283.01 114.98,-231.65 182.67,-207.56 234.32,-196.35"/>
<text text-anchor="middle" x="156.82" y="-328.48" font-family="sans-serif" font-size="12.00"> &#160;&#160;&#160;&#160;&#160;&#160;&#160;&#160;&#160;&#160;&#160;&#160;&#160;&#160;&#160;&#160;&#160;&#160;&#160;&#160;&#160;&#160;&#160;&#160;&#160;&#160;&#160;&#160;&#160;&#160;&#160;&#160;&#160;&#160;&#160;&#160;&#160;&#160;&#160;</text>
<polygon fill="white" stroke="transparent" points="211.32,-186.35 211.32,-205.35 227.32,-205.35 227.32,-186.35 211.32,-186.35"/>
<polyline fill="none" stroke="black" points="227.32,-186.35 227.32,-205.35 "/>
<text text-anchor="start" x="214.32" y="-192.75" font-family="sans-serif" font-size="12.00">D</text>
<polygon fill="white" stroke="transparent" points="227.32,-186.35 227.32,-205.35 257.32,-205.35 257.32,-186.35 227.32,-186.35"/>
<polygon fill="none" stroke="black" points="227.32,-186.35 227.32,-205.35 257.32,-205.35 257.32,-186.35 227.32,-186.35"/>
<text text-anchor="start" x="230.32" y="-192.75" font-family="sans-serif" font-size="12.00">ACL</text>
<polygon fill="white" stroke="transparent" points="66.71,-421.33 66.71,-438.33 80.71,-438.33 80.71,-421.33 66.71,-421.33"/>
<text text-anchor="start" x="68.71" y="-426.73" font-family="sans-serif" font-size="12.00">U</text>
</g>
<!-- login -->
<g id="node4" class="node">
<title>login</title>
<polygon fill="none" stroke="black" stroke-width="2" points="360.39,-322.17 361.28,-324.97 362,-327.77 362.55,-330.58 362.93,-333.37 363.14,-336.14 363.17,-338.87 363.02,-341.55 362.69,-344.18 362.18,-346.75 361.49,-349.24 360.63,-351.65 359.59,-353.97 358.38,-356.19 357,-358.3 355.45,-360.31 353.75,-362.2 351.88,-363.98 349.87,-365.63 347.71,-367.15 345.41,-368.55 342.98,-369.82 340.43,-370.96 337.77,-371.96 335,-372.84 332.13,-373.58 329.17,-374.2 326.14,-374.69 323.04,-375.06 319.88,-375.31 316.68,-375.44 313.43,-375.45 310.17,-375.35 306.88,-375.15 303.59,-374.84 300.31,-374.44 297.04,-373.94 293.79,-373.35 290.59,-372.67 287.43,-371.92 284.32,-371.08 281.28,-370.17 278.31,-369.19 275.42,-368.14 272.62,-367.03 269.92,-365.85 267.32,-364.62 264.84,-363.34 262.47,-362 260.23,-360.61 258.11,-359.17 256.13,-357.68 254.29,-356.15 252.59,-354.57 251.03,-352.95 249.62,-351.29 248.36,-349.59 247.26,-347.84 246.31,-346.06 245.51,-344.24 244.86,-342.39 244.37,-340.5 244.04,-338.57 243.86,-336.61 243.83,-334.63 243.96,-332.61 244.23,-330.57 244.65,-328.5 245.22,-326.42 245.93,-324.32 246.79,-322.21 247.77,-320.08 248.9,-317.96 250.15,-315.83 251.53,-313.72 253.03,-311.61 254.66,-309.53 256.4,-307.47 258.25,-305.44 260.2,-303.45 262.26,-301.51 264.41,-299.62 266.66,-297.79 269,-296.03 271.42,-294.36 273.91,-292.76 276.48,-291.26 279.11,-289.86 281.81,-288.57 284.56,-287.4 287.36,-286.35 290.2,-285.42 293.09,-284.64 296,-283.99 298.94,-283.5 301.89,-283.15 304.86,-282.96 307.83,-282.93 310.8,-283.06 313.75,-283.35 316.69,-283.81 319.61,-284.44 322.5,-285.23 325.34,-286.18 328.14,-287.29 330.88,-288.56 333.56,-289.98 336.17,-291.56 338.71,-293.27 341.15,-295.13 343.51,-297.11 345.76,-299.22 347.91,-301.44 349.94,-303.77 351.85,-306.19 353.63,-308.7 355.27,-311.29 356.78,-313.94 358.14,-316.64 359.34,-319.39 360.39,-322.17"/>
<text text-anchor="middle" x="302.32" y="-327.78" font-family="sans-serif" font-size="16.00">login</text>
</g>
<!-- compras&#45;&gt;login -->
<g id="edge2" class="edge">
<title>compras&#45;&gt;login</title>
<path fill="none" stroke="black" stroke-width="2" d="M136.35,-441.07C173.32,-416.91 223.95,-383.81 259.54,-360.55"/>
<text text-anchor="middle" x="277.82" y="-401.56" font-family="sans-serif" font-size="12.00"> &#160;&#160;&#160;&#160;&#160;&#160;&#160;&#160;&#160;&#160;&#160;&#160;&#160;&#160;&#160;&#160;&#160;&#160;&#160;&#160;&#160;&#160;&#160;&#160;&#160;&#160;&#160;&#160;&#160;&#160;&#160;&#160;&#160;&#160;&#160;&#160;&#160;&#160;&#160;</text>
<polygon fill="white" stroke="transparent" points="252.54,-351.55 252.54,-368.55 266.54,-368.55 266.54,-351.55 252.54,-351.55"/>
<text text-anchor="start" x="254.54" y="-356.95" font-family="sans-serif" font-size="12.00">D</text>
<polygon fill="white" stroke="transparent" points="129.35,-432.07 129.35,-449.07 143.35,-449.07 143.35,-432.07 129.35,-432.07"/>
<text text-anchor="start" x="131.35" y="-437.47" font-family="sans-serif" font-size="12.00">U</text>
</g>
<!-- ventas&#45;&gt;atencionCliente -->
<g id="edge3" class="edge">
<title>ventas&#45;&gt;atencionCliente</title>
<path fill="none" stroke="black" stroke-width="2" d="M302.32,-137.58C302.32,-121.45 302.32,-103.53 302.32,-87.8"/>
<text text-anchor="middle" x="377.82" y="-110.01" font-family="sans-serif" font-size="12.00"> &#160;&#160;&#160;&#160;&#160;&#160;&#160;&#160;&#160;&#160;&#160;&#160;&#160;&#160;&#160;&#160;&#160;&#160;&#160;&#160;&#160;&#160;&#160;&#160;&#160;&#160;&#160;&#160;&#160;&#160;&#160;&#160;&#160;&#160;&#160;&#160;&#160;&#160;&#160;</text>
<polygon fill="white" stroke="transparent" points="279.32,-77.8 279.32,-96.8 295.32,-96.8 295.32,-77.8 279.32,-77.8"/>
<polyline fill="none" stroke="black" points="295.32,-77.8 295.32,-96.8 "/>
<text text-anchor="start" x="282.32" y="-84.2" font-family="sans-serif" font-size="12.00">D</text>
<polygon fill="white" stroke="transparent" points="295.32,-77.8 295.32,-96.8 325.32,-96.8 325.32,-77.8 295.32,-77.8"/>
<polygon fill="none" stroke="black" points="295.32,-77.8 295.32,-96.8 325.32,-96.8 325.32,-77.8 295.32,-77.8"/>
<text text-anchor="start" x="298.32" y="-84.2" font-family="sans-serif" font-size="12.00">ACL</text>
<polygon fill="white" stroke="transparent" points="295.32,-128.58 295.32,-145.58 309.32,-145.58 309.32,-128.58 295.32,-128.58"/>
<text text-anchor="start" x="297.32" y="-133.98" font-family="sans-serif" font-size="12.00">U</text>
</g>
<!-- login&#45;&gt;ventas -->
<g id="edge4" class="edge">
<title>login&#45;&gt;ventas</title>
<path fill="none" stroke="black" stroke-width="2" d="M302.32,-283.11C302.32,-265.93 302.32,-246.64 302.32,-229.87"/>
<text text-anchor="middle" x="377.82" y="-255.41" font-family="sans-serif" font-size="12.00"> &#160;&#160;&#160;&#160;&#160;&#160;&#160;&#160;&#160;&#160;&#160;&#160;&#160;&#160;&#160;&#160;&#160;&#160;&#160;&#160;&#160;&#160;&#160;&#160;&#160;&#160;&#160;&#160;&#160;&#160;&#160;&#160;&#160;&#160;&#160;&#160;&#160;&#160;&#160;</text>
<polygon fill="white" stroke="transparent" points="295.32,-220.87 295.32,-237.87 309.32,-237.87 309.32,-220.87 295.32,-220.87"/>
<text text-anchor="start" x="297.32" y="-226.27" font-family="sans-serif" font-size="12.00">D</text>
<polygon fill="white" stroke="transparent" points="295.32,-274.11 295.32,-291.11 309.32,-291.11 309.32,-274.11 295.32,-274.11"/>
<text text-anchor="start" x="297.32" y="-279.51" font-family="sans-serif" font-size="12.00">U</text>
</g>
<!-- devoluciones -->
<g id="node5" class="node">
<title>devoluciones</title>
<polygon fill="none" stroke="black" stroke-width="2" points="381.47,-334.15 380.95,-331.3 380.74,-328.45 380.82,-325.64 381.21,-322.85 381.9,-320.11 382.89,-317.42 384.18,-314.8 385.76,-312.26 387.64,-309.8 389.81,-307.43 392.26,-305.16 394.99,-303 397.99,-300.96 401.25,-299.04 404.76,-297.25 408.52,-295.59 412.51,-294.06 416.72,-292.67 421.14,-291.42 425.76,-290.31 430.56,-289.35 435.53,-288.52 440.65,-287.84 445.91,-287.3 451.3,-286.9 456.79,-286.63 462.37,-286.5 468.02,-286.49 473.73,-286.61 479.48,-286.86 485.26,-287.22 491.03,-287.69 496.8,-288.27 502.53,-288.95 508.22,-289.72 513.84,-290.59 519.38,-291.54 524.83,-292.58 530.17,-293.68 535.37,-294.86 540.44,-296.11 545.34,-297.41 550.08,-298.78 554.63,-300.19 558.99,-301.65 563.14,-303.16 567.07,-304.71 570.77,-306.3 574.23,-307.92 577.44,-309.58 580.4,-311.27 583.1,-312.99 585.52,-314.73 587.67,-316.5 589.55,-318.3 591.14,-320.11 592.44,-321.95 593.46,-323.81 594.19,-325.69 594.63,-327.59 594.78,-329.5 594.64,-331.43 594.21,-333.38 593.5,-335.33 592.52,-337.3 591.25,-339.27 589.71,-341.25 587.91,-343.23 585.85,-345.22 583.53,-347.19 580.96,-349.16 578.16,-351.12 575.12,-353.06 571.86,-354.98 568.38,-356.88 564.7,-358.74 560.83,-360.56 556.77,-362.34 552.53,-364.07 548.13,-365.74 543.58,-367.35 538.89,-368.88 534.06,-370.34 529.12,-371.71 524.08,-372.99 518.94,-374.17 513.72,-375.24 508.44,-376.2 503.1,-377.03 497.72,-377.74 492.31,-378.32 486.89,-378.76 481.46,-379.06 476.05,-379.21 470.66,-379.21 465.31,-379.05 460.02,-378.74 454.79,-378.27 449.64,-377.64 444.58,-376.85 439.63,-375.9 434.8,-374.8 430.11,-373.54 425.55,-372.12 421.16,-370.56 416.93,-368.85 412.89,-367 409.04,-365.03 405.39,-362.92 401.96,-360.7 398.75,-358.37 395.78,-355.94 393.05,-353.42 390.58,-350.82 388.37,-348.15 386.43,-345.42 384.76,-342.65 383.37,-339.83 382.27,-337 381.47,-334.15"/>
<text text-anchor="middle" x="488.32" y="-327.78" font-family="sans-serif" font-size="16.00">devoluciones</text>
</g>
<!-- devoluciones&#45;&gt;ventas -->
<g id="edge5" class="edge">
<title>devoluciones&#45;&gt;ventas</title>
<path fill="none" stroke="black" stroke-width="2" d="M477.92,-286.63C473.27,-274.24 466.65,-261.55 457.32,-252.01 434.16,-228.32 401.06,-212.82 371.4,-202.9"/>
<text text-anchor="middle" x="541.82" y="-255.41" font-family="sans-serif" font-size="12.00"> &#160;&#160;&#160;&#160;&#160;&#160;&#160;&#160;&#160;&#160;&#160;&#160;&#160;&#160;&#160;&#160;&#160;&#160;&#160;&#160;&#160;&#160;&#160;&#160;&#160;&#160;&#160;&#160;&#160;&#160;&#160;&#160;&#160;&#160;&#160;&#160;&#160;&#160;&#160;</text>
<polygon fill="white" stroke="transparent" points="348.4,-192.9 348.4,-211.9 364.4,-211.9 364.4,-192.9 348.4,-192.9"/>
<polyline fill="none" stroke="black" points="364.4,-192.9 364.4,-211.9 "/>
<text text-anchor="start" x="351.4" y="-199.3" font-family="sans-serif" font-size="12.00">D</text>
<polygon fill="white" stroke="transparent" points="364.4,-192.9 364.4,-211.9 394.4,-211.9 394.4,-192.9 364.4,-192.9"/>
<polygon fill="none" stroke="black" points="364.4,-192.9 364.4,-211.9 394.4,-211.9 394.4,-192.9 364.4,-192.9"/>
<text text-anchor="start" x="367.4" y="-199.3" font-family="sans-serif" font-size="12.00">ACL</text>
<polygon fill="white" stroke="transparent" points="470.92,-277.63 470.92,-294.63 484.92,-294.63 484.92,-277.63 470.92,-277.63"/>
<text text-anchor="start" x="472.92" y="-283.03" font-family="sans-serif" font-size="12.00">U</text>
</g>
</g>
</svg>
