<svg width="2000px" height="601px"
 viewBox="0.00 0.00 2784.72 836.59" xmlns="http://www.w3.org/2000/svg" xmlns:xlink="http://www.w3.org/1999/xlink">
<g id="graph0" class="graph" transform="scale(1.0 1.0) rotate(0) translate(4 832.59)">
<title>ContextMapGraph</title>
<polygon fill="white" stroke="transparent" points="-4,4 -4,-832.59 2780.72,-832.59 2780.72,4 -4,4"/>
<!-- AnaliticasReportingContext -->
<g id="node1" class="node">
<title>AnaliticasReportingContext</title>
<polygon fill="none" stroke="black" stroke-width="2" points="954.12,-478.67 956.2,-475.85 958.78,-473.07 961.84,-470.34 965.38,-467.68 969.38,-465.08 973.84,-462.57 978.74,-460.16 984.06,-457.84 989.79,-455.64 995.92,-453.55 1002.43,-451.59 1009.29,-449.77 1016.49,-448.08 1024.01,-446.54 1031.83,-445.15 1039.92,-443.91 1048.27,-442.82 1056.86,-441.88 1065.65,-441.11 1074.63,-440.49 1083.77,-440.03 1093.06,-439.72 1102.45,-439.57 1111.94,-439.56 1121.49,-439.7 1131.08,-439.99 1140.69,-440.41 1150.29,-440.97 1159.85,-441.65 1169.36,-442.45 1178.78,-443.37 1188.09,-444.4 1197.27,-445.54 1206.3,-446.76 1215.15,-448.08 1223.79,-449.48 1232.21,-450.95 1240.38,-452.5 1248.29,-454.1 1255.9,-455.76 1263.2,-457.47 1270.18,-459.22 1276.81,-461.02 1283.07,-462.84 1288.95,-464.69 1294.42,-466.57 1299.49,-468.46 1304.12,-470.37 1308.31,-472.29 1312.05,-474.22 1315.32,-476.15 1318.12,-478.08 1320.43,-480.02 1322.25,-481.95 1323.57,-483.88 1324.39,-485.8 1324.7,-487.71 1324.5,-489.62 1323.79,-491.52 1322.57,-493.4 1320.84,-495.28 1318.61,-497.14 1315.88,-498.98 1312.65,-500.81 1308.94,-502.62 1304.75,-504.41 1300.1,-506.18 1294.99,-507.93 1289.44,-509.65 1283.45,-511.34 1277.06,-513 1270.28,-514.62 1263.11,-516.21 1255.59,-517.75 1247.74,-519.24 1239.57,-520.69 1231.1,-522.07 1222.37,-523.4 1213.4,-524.66 1204.2,-525.85 1194.82,-526.96 1185.27,-527.98 1175.58,-528.92 1165.78,-529.76 1155.9,-530.5 1145.96,-531.14 1136,-531.66 1126.04,-532.07 1116.12,-532.35 1106.25,-532.51 1096.48,-532.54 1086.82,-532.43 1077.31,-532.18 1067.97,-531.79 1058.83,-531.25 1049.92,-530.58 1041.26,-529.75 1032.87,-528.77 1024.79,-527.65 1017.02,-526.39 1009.61,-524.97 1002.56,-523.42 995.89,-521.73 989.63,-519.91 983.79,-517.95 978.39,-515.88 973.44,-513.69 968.95,-511.38 964.94,-508.98 961.41,-506.49 958.38,-503.91 955.86,-501.25 953.84,-498.54 952.33,-495.77 951.34,-492.95 950.87,-490.11 950.91,-487.25 951.47,-484.38 952.54,-481.52 954.12,-478.67"/>
<text text-anchor="middle" x="1138.08" y="-482.96" font-family="sans-serif" font-size="16.00">AnaliticasReportingContext</text>
</g>
<!-- VentasContext -->
<g id="node2" class="node">
<title>VentasContext</title>
<polygon fill="none" stroke="black" stroke-width="2" points="1643.9,-302.84 1650.48,-304.22 1656.86,-305.71 1663.01,-307.29 1668.92,-308.95 1674.55,-310.69 1679.89,-312.51 1684.91,-314.39 1689.58,-316.34 1693.9,-318.34 1697.85,-320.39 1701.41,-322.48 1704.56,-324.61 1707.31,-326.76 1709.63,-328.94 1711.52,-331.14 1712.99,-333.35 1714.02,-335.57 1714.62,-337.79 1714.78,-340 1714.52,-342.21 1713.84,-344.4 1712.75,-346.57 1711.25,-348.71 1709.37,-350.83 1707.11,-352.91 1704.49,-354.95 1701.52,-356.95 1698.22,-358.91 1694.62,-360.82 1690.72,-362.67 1686.56,-364.47 1682.14,-366.21 1677.5,-367.88 1672.65,-369.49 1667.62,-371.03 1662.42,-372.5 1657.08,-373.89 1651.62,-375.2 1646.06,-376.44 1640.42,-377.59 1634.72,-378.66 1628.98,-379.64 1623.21,-380.53 1617.43,-381.32 1611.66,-382.03 1605.92,-382.63 1600.21,-383.14 1594.55,-383.55 1588.95,-383.85 1583.42,-384.05 1577.98,-384.15 1572.62,-384.14 1567.36,-384.02 1562.21,-383.79 1557.16,-383.45 1552.23,-383 1547.42,-382.44 1542.73,-381.77 1538.16,-380.99 1533.73,-380.1 1529.43,-379.1 1525.26,-378 1521.23,-376.78 1517.34,-375.47 1513.59,-374.04 1509.98,-372.52 1506.52,-370.91 1503.21,-369.19 1500.06,-367.39 1497.06,-365.51 1494.22,-363.54 1491.55,-361.49 1489.05,-359.38 1486.72,-357.2 1484.59,-354.96 1482.64,-352.66 1480.89,-350.32 1479.34,-347.94 1478.01,-345.53 1476.91,-343.09 1476.03,-340.64 1475.39,-338.17 1475,-335.7 1474.87,-333.24 1475.01,-330.8 1475.42,-328.38 1476.11,-325.99 1477.09,-323.63 1478.37,-321.33 1479.95,-319.08 1481.84,-316.89 1484.04,-314.78 1486.56,-312.74 1489.39,-310.79 1492.54,-308.92 1496.01,-307.16 1499.79,-305.5 1503.88,-303.95 1508.28,-302.52 1512.97,-301.21 1517.96,-300.02 1523.22,-298.95 1528.74,-298.02 1534.52,-297.23 1540.53,-296.57 1546.76,-296.04 1553.19,-295.66 1559.79,-295.41 1566.55,-295.31 1573.45,-295.34 1580.45,-295.51 1587.54,-295.82 1594.68,-296.26 1601.85,-296.83 1609.02,-297.53 1616.17,-298.36 1623.26,-299.31 1630.26,-300.37 1637.15,-301.55 1643.9,-302.84"/>
<text text-anchor="middle" x="1587.08" y="-337.37" font-family="sans-serif" font-size="16.00">VentasContext</text>
</g>
<!-- AnaliticasReportingContext&#45;&gt;VentasContext -->
<g id="edge1" class="edge">
<title>AnaliticasReportingContext&#45;&gt;VentasContext</title>
<path fill="none" stroke="black" stroke-width="2" d="M1241.65,-452.64C1320.9,-427.29 1428.8,-392.79 1502.81,-369.12"/>
<text text-anchor="middle" x="1410.58" y="-410.38" font-family="sans-serif" font-size="12.00">Partnership</text>
</g>
<!-- AutenticacionAutorizacionContext -->
<g id="node3" class="node">
<title>AutenticacionAutorizacionContext</title>
<polygon fill="none" stroke="black" stroke-width="2" points="908.13,-601.66 918.97,-603.61 929.31,-605.63 939.11,-607.72 948.33,-609.87 956.93,-612.07 964.86,-614.31 972.11,-616.59 978.63,-618.9 984.4,-621.23 989.39,-623.57 993.59,-625.92 996.98,-628.26 999.54,-630.6 1001.27,-632.91 1002.16,-635.21 1002.22,-637.48 1001.43,-639.71 999.82,-641.91 997.4,-644.06 994.17,-646.16 990.15,-648.21 985.38,-650.2 979.86,-652.13 973.64,-654 966.74,-655.8 959.2,-657.53 951.05,-659.19 942.33,-660.77 933.08,-662.28 923.34,-663.71 913.16,-665.06 902.57,-666.32 891.63,-667.51 880.38,-668.61 868.85,-669.63 857.11,-670.57 845.19,-671.42 833.13,-672.19 820.98,-672.86 808.78,-673.45 796.57,-673.96 784.39,-674.37 772.27,-674.7 760.25,-674.93 748.37,-675.08 736.64,-675.13 725.11,-675.09 713.8,-674.96 702.73,-674.74 691.93,-674.42 681.41,-674.01 671.2,-673.51 661.3,-672.91 651.74,-672.21 642.52,-671.42 633.66,-670.53 625.16,-669.55 617.04,-668.47 609.29,-667.29 601.93,-666.02 594.95,-664.66 588.37,-663.21 582.17,-661.67 576.38,-660.04 570.98,-658.32 565.98,-656.52 561.38,-654.64 557.18,-652.68 553.38,-650.65 550,-648.56 547.02,-646.4 544.45,-644.18 542.3,-641.9 540.57,-639.59 539.27,-637.23 538.39,-634.83 537.95,-632.41 537.96,-629.97 538.41,-627.52 539.32,-625.07 540.69,-622.62 542.53,-620.18 544.84,-617.77 547.64,-615.38 550.93,-613.04 554.72,-610.74 559.01,-608.5 563.8,-606.32 569.1,-604.21 574.91,-602.19 581.23,-600.25 588.05,-598.42 595.39,-596.68 603.22,-595.06 611.54,-593.55 620.35,-592.17 629.63,-590.92 639.37,-589.81 649.54,-588.83 660.13,-587.99 671.12,-587.31 682.48,-586.77 694.19,-586.38 706.21,-586.15 718.5,-586.06 731.05,-586.13 743.8,-586.36 756.72,-586.73 769.76,-587.25 782.89,-587.92 796.05,-588.73 809.2,-589.68 822.3,-590.77 835.28,-591.98 848.11,-593.32 860.72,-594.78 873.09,-596.35 885.14,-598.02 896.84,-599.8 908.13,-601.66"/>
<text text-anchor="middle" x="752.08" y="-629.59" font-family="sans-serif" font-size="16.00">AutenticacionAutorizacionContext</text>
</g>
<!-- CarritoComprasContext -->
<g id="node4" class="node">
<title>CarritoComprasContext</title>
<polygon fill="none" stroke="black" stroke-width="2" points="606.01,-507.53 600.72,-505.04 595.86,-502.5 591.47,-499.93 587.55,-497.34 584.12,-494.74 581.2,-492.14 578.81,-489.54 576.96,-486.96 575.66,-484.41 574.91,-481.89 574.72,-479.42 575.1,-476.99 576.04,-474.62 577.54,-472.32 579.6,-470.09 582.22,-467.93 585.38,-465.86 589.07,-463.88 593.28,-461.98 597.99,-460.18 603.19,-458.48 608.86,-456.87 614.96,-455.37 621.49,-453.97 628.41,-452.68 635.7,-451.49 643.33,-450.41 651.27,-449.43 659.49,-448.55 667.96,-447.78 676.65,-447.11 685.52,-446.54 694.55,-446.06 703.7,-445.69 712.93,-445.41 722.23,-445.22 731.54,-445.13 740.85,-445.13 750.13,-445.21 759.34,-445.38 768.45,-445.63 777.44,-445.97 786.28,-446.38 794.95,-446.88 803.41,-447.45 811.66,-448.1 819.67,-448.83 827.41,-449.62 834.88,-450.5 842.05,-451.44 848.91,-452.46 855.45,-453.55 861.66,-454.71 867.52,-455.95 873.03,-457.25 878.18,-458.62 882.96,-460.06 887.37,-461.57 891.41,-463.14 895.06,-464.79 898.34,-466.5 901.24,-468.27 903.76,-470.1 905.9,-471.99 907.66,-473.94 909.05,-475.95 910.06,-478.01 910.7,-480.12 910.98,-482.27 910.89,-484.46 910.44,-486.69 909.64,-488.94 908.48,-491.23 906.98,-493.53 905.13,-495.84 902.94,-498.17 900.42,-500.49 897.56,-502.8 894.38,-505.1 890.88,-507.37 887.06,-509.61 882.92,-511.81 878.48,-513.96 873.74,-516.06 868.69,-518.09 863.36,-520.04 857.75,-521.91 851.85,-523.69 845.69,-525.37 839.27,-526.94 832.59,-528.4 825.68,-529.74 818.53,-530.94 811.16,-532.01 803.59,-532.94 795.83,-533.72 787.89,-534.36 779.79,-534.83 771.54,-535.15 763.17,-535.31 754.69,-535.31 746.13,-535.14 737.51,-534.81 728.84,-534.31 720.16,-533.65 711.48,-532.84 702.84,-531.86 694.26,-530.74 685.76,-529.46 677.38,-528.04 669.14,-526.49 661.07,-524.8 653.2,-522.99 645.55,-521.06 638.17,-519.02 631.06,-516.89 624.27,-514.66 617.81,-512.35 611.72,-509.97 606.01,-507.53"/>
<text text-anchor="middle" x="752.08" y="-482.96" font-family="sans-serif" font-size="16.00">CarritoComprasContext</text>
</g>
<!-- AutenticacionAutorizacionContext&#45;&gt;CarritoComprasContext -->
<g id="edge2" class="edge">
<title>AutenticacionAutorizacionContext&#45;&gt;CarritoComprasContext</title>
<path fill="none" stroke="black" stroke-width="2" d="M752.08,-586.23C752.08,-570.03 752.08,-551.8 752.08,-535.47"/>
<text text-anchor="middle" x="808.08" y="-556.93" font-family="sans-serif" font-size="12.00">Customer/Supplier</text>
<polygon fill="white" stroke="transparent" points="745.08,-526.47 745.08,-543.47 759.08,-543.47 759.08,-526.47 745.08,-526.47"/>
<text text-anchor="start" x="747.08" y="-531.87" font-family="sans-serif" font-size="12.00">D</text>
<polygon fill="white" stroke="transparent" points="745.08,-577.23 745.08,-594.23 759.08,-594.23 759.08,-577.23 745.08,-577.23"/>
<text text-anchor="start" x="747.08" y="-582.63" font-family="sans-serif" font-size="12.00">U</text>
</g>
<!-- CarritoComprasContext&#45;&gt;VentasContext -->
<g id="edge5" class="edge">
<title>CarritoComprasContext&#45;&gt;VentasContext</title>
<path fill="none" stroke="black" stroke-width="2" d="M865.19,-455.37C890.39,-449.14 917.06,-442.98 942.08,-437.98 1131.92,-400.11 1355.93,-370.09 1483.76,-354.32"/>
<text text-anchor="middle" x="1135.58" y="-410.38" font-family="sans-serif" font-size="12.00">Partnership</text>
</g>
<!-- GestionProductosContext -->
<g id="node5" class="node">
<title>GestionProductosContext</title>
<polygon fill="none" stroke="black" stroke-width="2" points="808.63,-338.61 809.48,-341.46 809.83,-344.3 809.69,-347.12 809.05,-349.91 807.92,-352.65 806.3,-355.33 804.18,-357.96 801.57,-360.5 798.49,-362.96 794.93,-365.33 790.9,-367.6 786.42,-369.75 781.49,-371.79 776.13,-373.72 770.36,-375.51 764.19,-377.17 757.63,-378.7 750.71,-380.09 743.45,-381.34 735.86,-382.45 727.98,-383.41 719.81,-384.23 711.4,-384.92 702.75,-385.46 693.91,-385.86 684.89,-386.13 675.72,-386.26 666.43,-386.26 657.05,-386.14 647.6,-385.9 638.12,-385.54 628.62,-385.07 619.15,-384.49 609.73,-383.81 600.39,-383.03 591.15,-382.17 582.04,-381.21 573.1,-380.18 564.33,-379.07 555.78,-377.89 547.46,-376.65 539.39,-375.34 531.61,-373.98 524.13,-372.57 516.97,-371.1 510.16,-369.59 503.7,-368.04 497.62,-366.46 491.94,-364.83 486.66,-363.18 481.8,-361.49 477.37,-359.77 473.38,-358.03 469.85,-356.25 466.77,-354.46 464.16,-352.64 462.02,-350.8 460.35,-348.94 459.15,-347.06 458.43,-345.17 458.18,-343.25 458.41,-341.32 459.11,-339.38 460.27,-337.42 461.9,-335.46 463.98,-333.48 466.5,-331.51 469.46,-329.52 472.85,-327.54 476.66,-325.56 480.88,-323.59 485.49,-321.64 490.48,-319.69 495.84,-317.77 501.55,-315.88 507.59,-314.02 513.96,-312.19 520.63,-310.41 527.59,-308.69 534.82,-307.01 542.29,-305.41 550,-303.87 557.93,-302.42 566.04,-301.04 574.33,-299.77 582.77,-298.59 591.34,-297.52 600.03,-296.56 608.8,-295.72 617.64,-295.01 626.53,-294.44 635.44,-293.99 644.35,-293.7 653.24,-293.55 662.09,-293.55 670.88,-293.7 679.58,-294.01 688.17,-294.49 696.63,-295.11 704.93,-295.9 713.07,-296.85 721,-297.96 728.72,-299.22 736.2,-300.64 743.42,-302.2 750.36,-303.91 757.01,-305.75 763.34,-307.73 769.33,-309.83 774.96,-312.05 780.23,-314.38 785.11,-316.81 789.59,-319.33 793.66,-321.93 797.29,-324.6 800.48,-327.33 803.22,-330.11 805.5,-332.92 807.31,-335.76 808.63,-338.61"/>
<text text-anchor="middle" x="633.08" y="-337.37" font-family="sans-serif" font-size="16.00">GestionProductosContext</text>
</g>
<!-- CarritoComprasContext&#45;&gt;GestionProductosContext -->
<g id="edge3" class="edge">
<title>CarritoComprasContext&#45;&gt;GestionProductosContext</title>
<path fill="none" stroke="black" stroke-width="2" d="M740.96,-445.02C736.18,-432.04 729.68,-418.17 721.08,-406.98 715.29,-399.46 708.41,-392.41 701.08,-385.92"/>
<text text-anchor="middle" x="785.08" y="-410.38" font-family="sans-serif" font-size="12.00">Customer/Supplier</text>
<polygon fill="white" stroke="transparent" points="694.08,-376.92 694.08,-393.92 708.08,-393.92 708.08,-376.92 694.08,-376.92"/>
<text text-anchor="start" x="696.08" y="-382.32" font-family="sans-serif" font-size="12.00">D</text>
<polygon fill="white" stroke="transparent" points="733.96,-436.02 733.96,-453.02 747.96,-453.02 747.96,-436.02 733.96,-436.02"/>
<text text-anchor="start" x="735.96" y="-441.42" font-family="sans-serif" font-size="12.00">U</text>
</g>
<!-- GestionClientesContext -->
<g id="node6" class="node">
<title>GestionClientesContext</title>
<polygon fill="none" stroke="black" stroke-width="2" points="835.02,-185.13 837.41,-182.32 840.24,-179.55 843.49,-176.85 847.15,-174.21 851.2,-171.64 855.64,-169.17 860.45,-166.8 865.62,-164.54 871.12,-162.39 876.95,-160.37 883.09,-158.48 889.52,-156.73 896.22,-155.12 903.18,-153.66 910.37,-152.35 917.77,-151.2 925.37,-150.21 933.15,-149.38 941.08,-148.71 949.14,-148.19 957.32,-147.84 965.58,-147.65 973.92,-147.61 982.31,-147.72 990.73,-147.98 999.16,-148.38 1007.57,-148.93 1015.95,-149.61 1024.27,-150.41 1032.51,-151.34 1040.66,-152.38 1048.69,-153.53 1056.59,-154.78 1064.32,-156.13 1071.89,-157.57 1079.25,-159.08 1086.41,-160.67 1093.33,-162.32 1100,-164.03 1106.4,-165.8 1112.52,-167.61 1118.34,-169.46 1123.85,-171.35 1129.02,-173.26 1133.85,-175.19 1138.33,-177.15 1142.43,-179.12 1146.15,-181.1 1149.48,-183.08 1152.4,-185.06 1154.91,-187.05 1157,-189.03 1158.66,-191.01 1159.88,-192.97 1160.67,-194.93 1161.01,-196.87 1160.91,-198.8 1160.35,-200.72 1159.35,-202.62 1157.9,-204.5 1156,-206.37 1153.66,-208.21 1150.88,-210.04 1147.66,-211.84 1144.02,-213.61 1139.97,-215.36 1135.5,-217.09 1130.63,-218.78 1125.38,-220.44 1119.76,-222.07 1113.78,-223.66 1107.46,-225.21 1100.81,-226.72 1093.85,-228.18 1086.61,-229.59 1079.1,-230.94 1071.34,-232.23 1063.36,-233.46 1055.17,-234.61 1046.81,-235.7 1038.29,-236.7 1029.64,-237.61 1020.89,-238.43 1012.06,-239.16 1003.17,-239.79 994.26,-240.3 985.35,-240.71 976.46,-240.99 967.63,-241.16 958.87,-241.19 950.23,-241.1 941.71,-240.87 933.35,-240.5 925.16,-239.99 917.19,-239.34 909.44,-238.55 901.95,-237.61 894.73,-236.53 887.8,-235.3 881.19,-233.93 874.91,-232.42 868.98,-230.77 863.42,-228.98 858.25,-227.07 853.47,-225.03 849.1,-222.88 845.16,-220.61 841.65,-218.24 838.58,-215.77 835.95,-213.21 833.79,-210.58 832.08,-207.88 830.83,-205.12 830.05,-202.31 829.73,-199.47 829.87,-196.61 830.48,-193.73 831.54,-190.85 833.06,-187.98 835.02,-185.13"/>
<text text-anchor="middle" x="996.08" y="-191.74" font-family="sans-serif" font-size="16.00">GestionClientesContext</text>
</g>
<!-- CarritoComprasContext&#45;&gt;GestionClientesContext -->
<g id="edge4" class="edge">
<title>CarritoComprasContext&#45;&gt;GestionClientesContext</title>
<path fill="none" stroke="black" stroke-width="2" d="M883.18,-460.1C922.52,-445.79 961.65,-423.54 986.08,-388.98 1016.78,-345.55 1013.2,-281.83 1006.08,-239.78"/>
<text text-anchor="middle" x="1067.08" y="-338.07" font-family="sans-serif" font-size="12.00">Customer/Supplier</text>
<polygon fill="white" stroke="transparent" points="999.08,-230.78 999.08,-247.78 1013.08,-247.78 1013.08,-230.78 999.08,-230.78"/>
<text text-anchor="start" x="1001.08" y="-236.18" font-family="sans-serif" font-size="12.00">D</text>
<polygon fill="white" stroke="transparent" points="876.18,-451.1 876.18,-468.1 890.18,-468.1 890.18,-451.1 876.18,-451.1"/>
<text text-anchor="start" x="878.18" y="-456.5" font-family="sans-serif" font-size="12.00">U</text>
</g>
<!-- GestionProductosContext&#45;&gt;CarritoComprasContext -->
<g id="edge8" class="edge">
<title>GestionProductosContext&#45;&gt;CarritoComprasContext</title>
<path fill="none" stroke="black" stroke-width="2" d="M604.48,-383.41C599.49,-395.73 597.89,-408.9 605.08,-419.98 613.29,-432.65 624.57,-442.91 637.28,-451.2"/>
<text text-anchor="middle" x="661.08" y="-410.38" font-family="sans-serif" font-size="12.00">Customer/Supplier</text>
<polygon fill="white" stroke="transparent" points="630.28,-442.2 630.28,-459.2 644.28,-459.2 644.28,-442.2 630.28,-442.2"/>
<text text-anchor="start" x="632.28" y="-447.6" font-family="sans-serif" font-size="12.00">D</text>
<polygon fill="white" stroke="transparent" points="597.48,-374.41 597.48,-391.41 611.48,-391.41 611.48,-374.41 597.48,-374.41"/>
<text text-anchor="start" x="599.48" y="-379.81" font-family="sans-serif" font-size="12.00">U</text>
</g>
<!-- GestionProductosContext&#45;&gt;GestionClientesContext -->
<g id="edge6" class="edge">
<title>GestionProductosContext&#45;&gt;GestionClientesContext</title>
<path fill="none" stroke="black" stroke-width="2" d="M711.41,-296.47C724.01,-289.42 736.91,-282.2 749.08,-275.36 759.31,-269.61 761.26,-266.93 772.08,-262.36 790.88,-254.41 829.58,-242.52 869.6,-231.03"/>
<text text-anchor="middle" x="814.08" y="-265.76" font-family="sans-serif" font-size="12.00">Shared Kernel</text>
</g>
<!-- GestionDevolucionesContext -->
<g id="node7" class="node">
<title>GestionDevolucionesContext</title>
<polygon fill="none" stroke="black" stroke-width="2" points="540.83,-237.45 528.48,-236.67 516.37,-235.78 504.53,-234.79 493.03,-233.68 481.9,-232.48 471.2,-231.18 460.95,-229.79 451.21,-228.32 442.02,-226.75 433.39,-225.11 425.37,-223.4 417.99,-221.61 411.26,-219.76 405.2,-217.85 399.85,-215.89 395.19,-213.88 391.25,-211.82 388.04,-209.73 385.54,-207.61 383.77,-205.46 382.71,-203.28 382.36,-201.09 382.7,-198.89 383.72,-196.69 385.4,-194.48 387.72,-192.28 390.66,-190.1 394.19,-187.92 398.29,-185.77 402.92,-183.65 408.05,-181.55 413.67,-179.5 419.72,-177.48 426.19,-175.51 433.03,-173.59 440.21,-171.73 447.71,-169.93 455.49,-168.19 463.51,-166.52 471.75,-164.92 480.18,-163.4 488.76,-161.97 497.48,-160.61 506.3,-159.35 515.21,-158.18 524.17,-157.1 533.17,-156.12 542.19,-155.24 551.21,-154.47 560.21,-153.8 569.19,-153.24 578.12,-152.79 587,-152.46 595.82,-152.24 604.56,-152.13 613.22,-152.14 621.8,-152.27 630.28,-152.52 638.66,-152.88 646.93,-153.36 655.1,-153.96 663.15,-154.67 671.08,-155.5 678.88,-156.44 686.55,-157.49 694.08,-158.65 701.46,-159.92 708.69,-161.29 715.75,-162.76 722.64,-164.32 729.33,-165.98 735.83,-167.73 742.11,-169.56 748.17,-171.47 753.97,-173.45 759.51,-175.5 764.77,-177.61 769.73,-179.78 774.36,-181.99 778.65,-184.25 782.57,-186.55 786.1,-188.88 789.21,-191.23 791.89,-193.59 794.12,-195.97 795.86,-198.34 797.1,-200.71 797.82,-203.07 798,-205.4 797.62,-207.71 796.67,-209.99 795.12,-212.22 792.97,-214.41 790.21,-216.54 786.82,-218.6 782.81,-220.6 778.17,-222.53 772.91,-224.38 767.02,-226.14 760.52,-227.81 753.42,-229.39 745.72,-230.86 737.45,-232.24 728.63,-233.5 719.28,-234.65 709.43,-235.69 699.1,-236.61 688.35,-237.42 677.19,-238.1 665.67,-238.66 653.84,-239.09 641.73,-239.4 629.39,-239.59 616.87,-239.65 604.23,-239.59 591.5,-239.4 578.74,-239.09 566.01,-238.66 553.36,-238.11 540.83,-237.45"/>
<text text-anchor="middle" x="597.08" y="-191.74" font-family="sans-serif" font-size="16.00">GestionDevolucionesContext</text>
</g>
<!-- GestionProductosContext&#45;&gt;GestionDevolucionesContext -->
<g id="edge7" class="edge">
<title>GestionProductosContext&#45;&gt;GestionDevolucionesContext</title>
<path fill="none" stroke="black" stroke-width="2" d="M605.66,-296C602.56,-289.29 599.87,-282.29 598.08,-275.36 595.12,-263.97 594.04,-251.34 593.9,-239.58"/>
<text text-anchor="middle" x="673.58" y="-265.76" font-family="sans-serif" font-size="12.00"> &#160;&#160;&#160;&#160;&#160;&#160;&#160;&#160;&#160;&#160;&#160;&#160;&#160;&#160;&#160;&#160;&#160;&#160;&#160;&#160;&#160;&#160;&#160;&#160;&#160;&#160;&#160;&#160;&#160;&#160;&#160;&#160;&#160;&#160;&#160;&#160;&#160;&#160;&#160;</text>
<polygon fill="white" stroke="transparent" points="574.9,-229.58 574.9,-248.58 590.9,-248.58 590.9,-229.58 574.9,-229.58"/>
<polyline fill="none" stroke="black" points="590.9,-229.58 590.9,-248.58 "/>
<text text-anchor="start" x="577.9" y="-235.98" font-family="sans-serif" font-size="12.00">D</text>
<polygon fill="white" stroke="transparent" points="590.9,-229.58 590.9,-248.58 612.9,-248.58 612.9,-229.58 590.9,-229.58"/>
<polygon fill="none" stroke="black" points="590.9,-229.58 590.9,-248.58 612.9,-248.58 612.9,-229.58 590.9,-229.58"/>
<text text-anchor="start" x="593.9" y="-235.98" font-family="sans-serif" font-size="12.00">CF</text>
<polygon fill="white" stroke="transparent" points="570.66,-286 570.66,-305 586.66,-305 586.66,-286 570.66,-286"/>
<polyline fill="none" stroke="black" points="586.66,-286 586.66,-305 "/>
<text text-anchor="start" x="573.66" y="-292.4" font-family="sans-serif" font-size="12.00">U</text>
<polygon fill="white" stroke="transparent" points="586.66,-286 586.66,-305 641.66,-305 641.66,-286 586.66,-286"/>
<polygon fill="none" stroke="black" points="586.66,-286 586.66,-305 641.66,-305 641.66,-286 586.66,-286"/>
<text text-anchor="start" x="589.66" y="-292.4" font-family="sans-serif" font-size="12.00">OHS, PL</text>
</g>
<!-- GestionClientesContext&#45;&gt;CarritoComprasContext -->
<g id="edge9" class="edge">
<title>GestionClientesContext&#45;&gt;CarritoComprasContext</title>
<path fill="none" stroke="black" stroke-width="2" d="M921.7,-239.76C902.19,-254.44 883.02,-272.5 870.08,-293.36 839.83,-342.11 876.28,-371.85 845.08,-419.98 838.08,-430.77 828.65,-440.32 818.46,-448.57"/>
<text text-anchor="middle" x="926.08" y="-338.07" font-family="sans-serif" font-size="12.00">Customer/Supplier</text>
<polygon fill="white" stroke="transparent" points="811.46,-439.57 811.46,-456.57 825.46,-456.57 825.46,-439.57 811.46,-439.57"/>
<text text-anchor="start" x="813.46" y="-444.97" font-family="sans-serif" font-size="12.00">D</text>
<polygon fill="white" stroke="transparent" points="914.7,-230.76 914.7,-247.76 928.7,-247.76 928.7,-230.76 914.7,-230.76"/>
<text text-anchor="start" x="916.7" y="-236.16" font-family="sans-serif" font-size="12.00">U</text>
</g>
<!-- GestionPedidosContext -->
<g id="node8" class="node">
<title>GestionPedidosContext</title>
<polygon fill="none" stroke="black" stroke-width="2" points="501.43,-75.01 495.18,-77.33 488.6,-79.57 481.72,-81.7 474.57,-83.74 467.17,-85.66 459.55,-87.46 451.74,-89.13 443.76,-90.67 435.64,-92.06 427.41,-93.3 419.09,-94.4 410.7,-95.33 402.28,-96.11 393.84,-96.73 385.41,-97.18 377.01,-97.46 368.66,-97.59 360.38,-97.54 352.2,-97.34 344.13,-96.97 336.18,-96.45 328.38,-95.77 320.74,-94.95 313.27,-93.98 306,-92.87 298.92,-91.63 292.06,-90.27 285.43,-88.78 279.03,-87.19 272.88,-85.49 266.98,-83.69 261.34,-81.81 255.98,-79.85 250.9,-77.82 246.1,-75.73 241.6,-73.59 237.39,-71.4 233.5,-69.17 229.91,-66.92 226.65,-64.64 223.71,-62.36 221.1,-60.06 218.83,-57.77 216.89,-55.49 215.31,-53.22 214.07,-50.98 213.19,-48.75 212.68,-46.56 212.53,-44.41 212.75,-42.29 213.34,-40.22 214.32,-38.19 215.67,-36.21 217.4,-34.29 219.53,-32.42 222.03,-30.61 224.93,-28.86 228.21,-27.16 231.87,-25.53 235.92,-23.96 240.35,-22.45 245.15,-21.01 250.32,-19.63 255.86,-18.32 261.74,-17.07 267.97,-15.89 274.53,-14.77 281.41,-13.73 288.59,-12.75 296.07,-11.85 303.81,-11.01 311.81,-10.25 320.03,-9.56 328.47,-8.94 337.1,-8.4 345.89,-7.94 354.82,-7.56 363.85,-7.27 372.97,-7.06 382.14,-6.93 391.34,-6.9 400.53,-6.95 409.68,-7.11 418.77,-7.35 427.75,-7.7 436.6,-8.15 445.29,-8.7 453.79,-9.36 462.05,-10.12 470.07,-10.99 477.79,-11.97 485.21,-13.06 492.28,-14.26 498.98,-15.57 505.29,-16.99 511.18,-18.51 516.64,-20.14 521.63,-21.88 526.15,-23.72 530.18,-25.65 533.69,-27.68 536.69,-29.8 539.16,-32.01 541.09,-34.29 542.49,-36.64 543.33,-39.06 543.63,-41.54 543.39,-44.07 542.6,-46.65 541.28,-49.25 539.44,-51.88 537.08,-54.53 534.21,-57.18 530.85,-59.82 527.03,-62.45 522.74,-65.05 518.02,-67.62 512.88,-70.14 507.34,-72.61 501.43,-75.01"/>
<text text-anchor="middle" x="370.08" y="-45.06" font-family="sans-serif" font-size="16.00">GestionPedidosContext</text>
</g>
<!-- GestionDevolucionesContext&#45;&gt;GestionPedidosContext -->
<g id="edge10" class="edge">
<title>GestionDevolucionesContext&#45;&gt;GestionPedidosContext</title>
<path fill="none" stroke="black" stroke-width="2" d="M500.39,-160.13C480.95,-151.26 461.24,-140.76 444.08,-128.72 430.86,-119.45 418.17,-107.51 407.15,-95.74"/>
<text text-anchor="middle" x="500.08" y="-119.12" font-family="sans-serif" font-size="12.00">Customer/Supplier</text>
<polygon fill="white" stroke="transparent" points="400.15,-86.74 400.15,-103.74 414.15,-103.74 414.15,-86.74 400.15,-86.74"/>
<text text-anchor="start" x="402.15" y="-92.14" font-family="sans-serif" font-size="12.00">D</text>
<polygon fill="white" stroke="transparent" points="493.39,-151.13 493.39,-168.13 507.39,-168.13 507.39,-151.13 493.39,-151.13"/>
<text text-anchor="start" x="495.39" y="-156.53" font-family="sans-serif" font-size="12.00">U</text>
</g>
<!-- GestionPedidosContext&#45;&gt;CarritoComprasContext -->
<g id="edge12" class="edge">
<title>GestionPedidosContext&#45;&gt;CarritoComprasContext</title>
<path fill="none" stroke="black" stroke-width="2" d="M364.84,-97.6C359.59,-172.63 362.06,-317.01 447.08,-388.98 488.84,-424.34 543.62,-446.82 595.21,-461.09"/>
<text text-anchor="middle" x="436.08" y="-265.76" font-family="sans-serif" font-size="12.00">Customer/Supplier</text>
<polygon fill="white" stroke="transparent" points="588.21,-452.09 588.21,-469.09 602.21,-469.09 602.21,-452.09 588.21,-452.09"/>
<text text-anchor="start" x="590.21" y="-457.49" font-family="sans-serif" font-size="12.00">D</text>
<polygon fill="white" stroke="transparent" points="357.84,-88.6 357.84,-105.6 371.84,-105.6 371.84,-88.6 357.84,-88.6"/>
<text text-anchor="start" x="359.84" y="-94" font-family="sans-serif" font-size="12.00">U</text>
</g>
<!-- GestionPedidosContext&#45;&gt;GestionDevolucionesContext -->
<g id="edge11" class="edge">
<title>GestionPedidosContext&#45;&gt;GestionDevolucionesContext</title>
<path fill="none" stroke="black" stroke-width="2" d="M492.34,-78.33C515.24,-87.59 537.72,-99.76 556.08,-115.72 567.37,-125.54 575.99,-139.23 582.34,-152.46"/>
<text text-anchor="middle" x="624.08" y="-119.12" font-family="sans-serif" font-size="12.00">Customer/Supplier</text>
<polygon fill="white" stroke="transparent" points="575.34,-143.46 575.34,-160.46 589.34,-160.46 589.34,-143.46 575.34,-143.46"/>
<text text-anchor="start" x="577.34" y="-148.86" font-family="sans-serif" font-size="12.00">D</text>
<polygon fill="white" stroke="transparent" points="485.34,-69.33 485.34,-86.33 499.34,-86.33 499.34,-69.33 485.34,-69.33"/>
<text text-anchor="start" x="487.34" y="-74.73" font-family="sans-serif" font-size="12.00">U</text>
</g>
<!-- GestionSesionesContext -->
<g id="node9" class="node">
<title>GestionSesionesContext</title>
<polygon fill="none" stroke="black" stroke-width="2" points="881.79,-802.86 875.87,-800.42 870.38,-797.94 865.35,-795.41 860.81,-792.86 856.78,-790.29 853.26,-787.71 850.29,-785.13 847.86,-782.56 846.01,-780.01 844.73,-777.48 844.03,-774.99 843.92,-772.55 844.41,-770.15 845.48,-767.81 847.13,-765.54 849.37,-763.33 852.18,-761.2 855.56,-759.15 859.48,-757.18 863.94,-755.31 868.92,-753.52 874.39,-751.83 880.33,-750.23 886.73,-748.73 893.55,-747.33 900.77,-746.03 908.36,-744.84 916.29,-743.74 924.52,-742.74 933.03,-741.85 941.79,-741.05 950.76,-740.35 959.9,-739.75 969.19,-739.25 978.59,-738.84 988.06,-738.52 997.58,-738.3 1007.11,-738.17 1016.62,-738.12 1026.08,-738.16 1035.46,-738.29 1044.73,-738.5 1053.87,-738.8 1062.84,-739.18 1071.62,-739.64 1080.2,-740.17 1088.54,-740.79 1096.63,-741.49 1104.45,-742.27 1111.99,-743.12 1119.22,-744.05 1126.14,-745.05 1132.72,-746.14 1138.98,-747.3 1144.88,-748.53 1150.43,-749.84 1155.62,-751.22 1160.44,-752.68 1164.89,-754.21 1168.97,-755.81 1172.67,-757.49 1176,-759.23 1178.95,-761.04 1181.53,-762.92 1183.73,-764.86 1185.55,-766.86 1187.01,-768.92 1188.1,-771.03 1188.82,-773.19 1189.17,-775.4 1189.17,-777.65 1188.8,-779.93 1188.09,-782.24 1187.01,-784.58 1185.59,-786.94 1183.83,-789.31 1181.72,-791.68 1179.27,-794.05 1176.48,-796.4 1173.35,-798.74 1169.9,-801.05 1166.11,-803.32 1162.01,-805.55 1157.58,-807.72 1152.83,-809.84 1147.77,-811.88 1142.4,-813.84 1136.73,-815.71 1130.76,-817.49 1124.51,-819.16 1117.97,-820.72 1111.17,-822.16 1104.1,-823.48 1096.77,-824.66 1089.21,-825.7 1081.42,-826.59 1073.42,-827.34 1065.23,-827.93 1056.85,-828.37 1048.32,-828.64 1039.64,-828.76 1030.84,-828.71 1021.94,-828.49 1012.97,-828.11 1003.95,-827.57 994.9,-826.87 985.86,-826.01 976.84,-825 967.89,-823.83 959.02,-822.52 950.27,-821.07 941.66,-819.48 933.24,-817.77 925.02,-815.93 917.04,-813.98 909.34,-811.93 901.93,-809.79 894.85,-807.55 888.13,-805.24 881.79,-802.86"/>
<text text-anchor="middle" x="1027.08" y="-776.12" font-family="sans-serif" font-size="16.00">GestionSesionesContext</text>
</g>
<!-- GestionSesionesContext&#45;&gt;AutenticacionAutorizacionContext -->
<g id="edge13" class="edge">
<title>GestionSesionesContext&#45;&gt;AutenticacionAutorizacionContext</title>
<path fill="none" stroke="black" stroke-width="2" d="M953.02,-740C913.41,-719.18 864.8,-693.64 825.31,-672.88"/>
<text text-anchor="middle" x="954.08" y="-703.65" font-family="sans-serif" font-size="12.00">Customer/Supplier</text>
<polygon fill="white" stroke="transparent" points="818.31,-663.88 818.31,-680.88 832.31,-680.88 832.31,-663.88 818.31,-663.88"/>
<text text-anchor="start" x="820.31" y="-669.28" font-family="sans-serif" font-size="12.00">D</text>
<polygon fill="white" stroke="transparent" points="946.02,-731 946.02,-748 960.02,-748 960.02,-731 946.02,-731"/>
<text text-anchor="start" x="948.02" y="-736.4" font-family="sans-serif" font-size="12.00">U</text>
</g>
<!-- SeguridadContext -->
<g id="node10" class="node">
<title>SeguridadContext</title>
<polygon fill="none" stroke="black" stroke-width="2" points="1046.86,-610.41 1051.39,-607.95 1056.21,-605.57 1061.29,-603.28 1066.64,-601.09 1072.21,-599 1078,-597.03 1083.98,-595.18 1090.14,-593.47 1096.45,-591.89 1102.9,-590.46 1109.45,-589.18 1116.11,-588.05 1122.83,-587.08 1129.62,-586.27 1136.44,-585.62 1143.28,-585.14 1150.12,-584.82 1156.95,-584.67 1163.74,-584.69 1170.49,-584.86 1177.17,-585.2 1183.78,-585.69 1190.29,-586.33 1196.7,-587.12 1202.99,-588.06 1209.15,-589.13 1215.17,-590.33 1221.03,-591.65 1226.73,-593.09 1232.26,-594.64 1237.6,-596.29 1242.74,-598.03 1247.69,-599.86 1252.42,-601.76 1256.93,-603.74 1261.22,-605.77 1265.27,-607.85 1269.08,-609.98 1272.64,-612.14 1275.94,-614.33 1278.97,-616.54 1281.74,-618.76 1284.23,-620.99 1286.44,-623.22 1288.35,-625.44 1289.97,-627.65 1291.3,-629.84 1292.31,-632.01 1293.01,-634.16 1293.4,-636.27 1293.47,-638.35 1293.22,-640.39 1292.63,-642.39 1291.72,-644.35 1290.48,-646.26 1288.9,-648.12 1286.99,-649.94 1284.74,-651.7 1282.17,-653.41 1279.25,-655.07 1276.01,-656.68 1272.45,-658.23 1268.56,-659.72 1264.36,-661.16 1259.85,-662.54 1255.04,-663.86 1249.93,-665.12 1244.55,-666.32 1238.9,-667.46 1232.99,-668.54 1226.84,-669.56 1220.46,-670.5 1213.87,-671.38 1207.08,-672.19 1200.12,-672.93 1193.01,-673.59 1185.76,-674.18 1178.4,-674.68 1170.95,-675.11 1163.43,-675.44 1155.86,-675.69 1148.28,-675.85 1140.7,-675.91 1133.15,-675.88 1125.66,-675.74 1118.25,-675.5 1110.95,-675.15 1103.77,-674.7 1096.76,-674.13 1089.93,-673.45 1083.3,-672.66 1076.9,-671.74 1070.76,-670.71 1064.88,-669.57 1059.31,-668.3 1054.04,-666.92 1049.11,-665.42 1044.53,-663.81 1040.32,-662.08 1036.48,-660.25 1033.04,-658.31 1030,-656.27 1027.37,-654.13 1025.16,-651.9 1023.38,-649.59 1022.04,-647.19 1021.12,-644.73 1020.64,-642.21 1020.6,-639.62 1020.98,-637 1021.79,-634.34 1023.03,-631.65 1024.67,-628.94 1026.72,-626.23 1029.17,-623.52 1032,-620.82 1035.19,-618.16 1038.75,-615.52 1042.64,-612.94 1046.86,-610.41"/>
<text text-anchor="middle" x="1162.08" y="-629.59" font-family="sans-serif" font-size="16.00">SeguridadContext</text>
</g>
<!-- GestionSesionesContext&#45;&gt;SeguridadContext -->
<g id="edge14" class="edge">
<title>GestionSesionesContext&#45;&gt;SeguridadContext</title>
<path fill="none" stroke="black" stroke-width="2" d="M1108,-742.51C1120.05,-734.28 1131.33,-724.56 1140.08,-713.25 1148.34,-702.57 1153.49,-688.96 1156.72,-676.06"/>
<text text-anchor="middle" x="1204.08" y="-703.65" font-family="sans-serif" font-size="12.00">Customer/Supplier</text>
<polygon fill="white" stroke="transparent" points="1149.72,-667.06 1149.72,-684.06 1163.72,-684.06 1163.72,-667.06 1149.72,-667.06"/>
<text text-anchor="start" x="1151.72" y="-672.46" font-family="sans-serif" font-size="12.00">D</text>
<polygon fill="white" stroke="transparent" points="1101,-733.51 1101,-750.51 1115,-750.51 1115,-733.51 1101,-733.51"/>
<text text-anchor="start" x="1103" y="-738.91" font-family="sans-serif" font-size="12.00">U</text>
</g>
<!-- SeguridadContext&#45;&gt;GestionSesionesContext -->
<g id="edge15" class="edge">
<title>SeguridadContext&#45;&gt;GestionSesionesContext</title>
<path fill="none" stroke="black" stroke-width="2" d="M1057.53,-667.84C1044.27,-676.37 1032.43,-687.01 1024.08,-700.25 1017.15,-711.24 1015.78,-724.9 1016.79,-737.74"/>
<text text-anchor="middle" x="1080.08" y="-703.65" font-family="sans-serif" font-size="12.00">Customer/Supplier</text>
<polygon fill="white" stroke="transparent" points="1009.79,-728.74 1009.79,-745.74 1023.79,-745.74 1023.79,-728.74 1009.79,-728.74"/>
<text text-anchor="start" x="1011.79" y="-734.14" font-family="sans-serif" font-size="12.00">D</text>
<polygon fill="white" stroke="transparent" points="1050.53,-658.84 1050.53,-675.84 1064.53,-675.84 1064.53,-658.84 1050.53,-658.84"/>
<text text-anchor="start" x="1052.53" y="-664.24" font-family="sans-serif" font-size="12.00">U</text>
</g>
<!-- IntegracionRedesSocialesContext -->
<g id="node11" class="node">
<title>IntegracionRedesSocialesContext</title>
<polygon fill="none" stroke="black" stroke-width="2" points="1417.43,-515.22 1407.85,-513.06 1398.8,-510.83 1390.31,-508.55 1382.42,-506.22 1375.17,-503.85 1368.59,-501.45 1362.71,-499.03 1357.55,-496.6 1353.14,-494.16 1349.49,-491.73 1346.62,-489.3 1344.55,-486.9 1343.28,-484.52 1342.81,-482.17 1343.16,-479.87 1344.31,-477.61 1346.26,-475.39 1349,-473.24 1352.52,-471.15 1356.8,-469.12 1361.82,-467.16 1367.55,-465.27 1373.97,-463.46 1381.05,-461.72 1388.76,-460.07 1397.07,-458.5 1405.93,-457.01 1415.31,-455.61 1425.17,-454.3 1435.46,-453.07 1446.15,-451.93 1457.19,-450.88 1468.53,-449.92 1480.13,-449.05 1491.96,-448.27 1503.95,-447.58 1516.08,-446.97 1528.29,-446.45 1540.55,-446.02 1552.8,-445.68 1565.03,-445.43 1577.18,-445.27 1589.21,-445.19 1601.11,-445.2 1612.82,-445.29 1624.33,-445.48 1635.6,-445.75 1646.61,-446.11 1657.33,-446.56 1667.74,-447.09 1677.82,-447.72 1687.56,-448.43 1696.93,-449.23 1705.92,-450.12 1714.53,-451.09 1722.73,-452.16 1730.53,-453.31 1737.91,-454.55 1744.88,-455.88 1751.41,-457.29 1757.52,-458.79 1763.2,-460.37 1768.44,-462.03 1773.25,-463.78 1777.63,-465.6 1781.57,-467.49 1785.08,-469.46 1788.15,-471.5 1790.79,-473.6 1792.99,-475.75 1794.76,-477.97 1796.1,-480.23 1797,-482.54 1797.46,-484.89 1797.49,-487.26 1797.07,-489.67 1796.22,-492.09 1794.92,-494.52 1793.18,-496.95 1790.99,-499.38 1788.35,-501.79 1785.25,-504.18 1781.7,-506.54 1777.7,-508.86 1773.23,-511.13 1768.3,-513.35 1762.91,-515.5 1757.07,-517.57 1750.76,-519.56 1744,-521.46 1736.78,-523.26 1729.12,-524.95 1721.02,-526.53 1712.49,-527.99 1703.54,-529.32 1694.18,-530.52 1684.43,-531.57 1674.31,-532.49 1663.83,-533.26 1653.02,-533.87 1641.89,-534.33 1630.48,-534.64 1618.81,-534.79 1606.92,-534.78 1594.83,-534.61 1582.59,-534.29 1570.22,-533.81 1557.77,-533.17 1545.27,-532.39 1532.77,-531.45 1520.32,-530.38 1507.94,-529.16 1495.7,-527.81 1483.63,-526.34 1471.78,-524.74 1460.2,-523.04 1448.93,-521.22 1438.01,-519.31 1427.5,-517.3 1417.43,-515.22"/>
<text text-anchor="middle" x="1587.08" y="-482.96" font-family="sans-serif" font-size="16.00">IntegracionRedesSocialesContext</text>
</g>
<!-- IntegracionRedesSocialesContext&#45;&gt;VentasContext -->
<g id="edge16" class="edge">
<title>IntegracionRedesSocialesContext&#45;&gt;VentasContext</title>
<path fill="none" stroke="black" stroke-width="2" d="M1587.08,-445C1587.08,-425.93 1587.08,-403.24 1587.08,-384.04"/>
<text text-anchor="middle" x="1621.58" y="-410.38" font-family="sans-serif" font-size="12.00">Partnership</text>
</g>
<!-- NotificacionesComunicacionesContext -->
<g id="node12" class="node">
<title>NotificacionesComunicacionesContext</title>
<polygon fill="none" stroke="black" stroke-width="2" points="1981.21,-522.42 1967.78,-520.78 1954.84,-519.06 1942.43,-517.25 1930.62,-515.37 1919.45,-513.42 1908.96,-511.41 1899.21,-509.35 1890.23,-507.24 1882.05,-505.08 1874.72,-502.9 1868.25,-500.69 1862.68,-498.46 1858.01,-496.21 1854.27,-493.96 1851.47,-491.71 1849.61,-489.47 1848.69,-487.23 1848.71,-485.01 1849.67,-482.82 1851.54,-480.65 1854.31,-478.51 1857.96,-476.41 1862.47,-474.34 1867.81,-472.33 1873.95,-470.36 1880.84,-468.44 1888.46,-466.58 1896.76,-464.78 1905.71,-463.03 1915.25,-461.35 1925.34,-459.74 1935.94,-458.2 1946.99,-456.73 1958.45,-455.33 1970.27,-454.01 1982.4,-452.76 1994.79,-451.6 2007.4,-450.52 2020.18,-449.52 2033.09,-448.6 2046.07,-447.77 2059.1,-447.03 2072.13,-446.39 2085.11,-445.83 2098.03,-445.36 2110.84,-444.99 2123.51,-444.72 2136.01,-444.54 2148.33,-444.46 2160.42,-444.49 2172.28,-444.61 2183.88,-444.83 2195.2,-445.16 2206.24,-445.59 2216.97,-446.13 2227.39,-446.77 2237.49,-447.52 2247.25,-448.36 2256.68,-449.32 2265.76,-450.38 2274.49,-451.54 2282.86,-452.8 2290.87,-454.16 2298.52,-455.62 2305.81,-457.17 2312.72,-458.82 2319.26,-460.56 2325.41,-462.39 2331.18,-464.29 2336.56,-466.28 2341.54,-468.34 2346.12,-470.47 2350.28,-472.66 2354.02,-474.91 2357.33,-477.22 2360.19,-479.56 2362.59,-481.95 2364.52,-484.36 2365.97,-486.8 2366.93,-489.26 2367.37,-491.72 2367.29,-494.19 2366.67,-496.64 2365.49,-499.08 2363.75,-501.5 2361.43,-503.88 2358.51,-506.21 2354.98,-508.5 2350.85,-510.73 2346.09,-512.89 2340.7,-514.98 2334.67,-516.99 2328.01,-518.9 2320.71,-520.72 2312.78,-522.44 2304.22,-524.04 2295.04,-525.53 2285.26,-526.9 2274.88,-528.14 2263.93,-529.26 2252.43,-530.23 2240.4,-531.07 2227.88,-531.77 2214.89,-532.33 2201.47,-532.75 2187.67,-533.01 2173.51,-533.14 2159.05,-533.12 2144.34,-532.95 2129.42,-532.64 2114.34,-532.2 2099.17,-531.61 2083.96,-530.89 2068.76,-530.03 2053.63,-529.05 2038.64,-527.95 2023.84,-526.73 2009.3,-525.4 1995.07,-523.96 1981.21,-522.42"/>
<text text-anchor="middle" x="2127.08" y="-482.96" font-family="sans-serif" font-size="16.00">NotificacionesComunicacionesContext</text>
</g>
<!-- NotificacionesComunicacionesContext&#45;&gt;VentasContext -->
<g id="edge17" class="edge">
<title>NotificacionesComunicacionesContext&#45;&gt;VentasContext</title>
<path fill="none" stroke="black" stroke-width="2" d="M1997.39,-451.28C1899.56,-425.26 1767.7,-390.2 1680.16,-366.92"/>
<text text-anchor="middle" x="1908.58" y="-410.38" font-family="sans-serif" font-size="12.00">Partnership</text>
</g>
<!-- ProcesoPagosContext -->
<g id="node13" class="node">
<title>ProcesoPagosContext</title>
<polygon fill="none" stroke="black" stroke-width="2" points="27.07,-215.66 22.34,-213.14 18.02,-210.58 14.12,-207.99 10.66,-205.38 7.66,-202.76 5.13,-200.14 3.08,-197.53 1.53,-194.94 0.48,-192.38 -0.05,-189.85 -0.08,-187.38 0.42,-184.95 1.43,-182.59 2.96,-180.29 5,-178.07 7.54,-175.92 10.59,-173.86 14.11,-171.89 18.11,-170.01 22.57,-168.23 27.47,-166.55 32.79,-164.98 38.52,-163.5 44.62,-162.13 51.08,-160.87 57.88,-159.71 64.99,-158.66 72.37,-157.72 80.01,-156.88 87.87,-156.14 95.92,-155.51 104.14,-154.98 112.5,-154.55 120.96,-154.22 129.49,-153.98 138.08,-153.84 146.68,-153.79 155.27,-153.83 163.82,-153.95 172.3,-154.16 180.69,-154.46 188.96,-154.84 197.09,-155.29 205.06,-155.83 212.83,-156.44 220.4,-157.13 227.74,-157.89 234.84,-158.73 241.67,-159.63 248.23,-160.61 254.5,-161.66 260.46,-162.79 266.12,-163.98 271.45,-165.24 276.45,-166.56 281.12,-167.96 285.44,-169.42 289.42,-170.95 293.04,-172.55 296.32,-174.21 299.23,-175.94 301.8,-177.72 304.01,-179.57 305.87,-181.47 307.37,-183.43 308.53,-185.45 309.34,-187.51 309.8,-189.62 309.93,-191.78 309.71,-193.97 309.16,-196.2 308.28,-198.45 307.08,-200.73 305.55,-203.03 303.7,-205.34 301.54,-207.65 299.07,-209.96 296.3,-212.26 293.22,-214.55 289.85,-216.81 286.19,-219.03 282.24,-221.21 278.01,-223.35 273.51,-225.42 268.73,-227.43 263.7,-229.36 258.4,-231.21 252.86,-232.96 247.07,-234.61 241.05,-236.16 234.8,-237.58 228.34,-238.89 221.67,-240.06 214.81,-241.1 207.77,-242 200.56,-242.74 193.2,-243.34 185.7,-243.78 178.07,-244.06 170.34,-244.18 162.52,-244.14 154.64,-243.93 146.7,-243.56 138.74,-243.02 130.77,-242.32 122.81,-241.47 114.9,-240.45 107.05,-239.29 99.3,-237.97 91.65,-236.51 84.14,-234.92 76.8,-233.19 69.65,-231.34 62.72,-229.38 56.03,-227.31 49.61,-225.14 43.47,-222.88 37.66,-220.54 32.18,-218.13 27.07,-215.66"/>
<text text-anchor="middle" x="163.08" y="-191.74" font-family="sans-serif" font-size="16.00">ProcesoPagosContext</text>
</g>
<!-- ProcesoPagosContext&#45;&gt;GestionPedidosContext -->
<g id="edge18" class="edge">
<title>ProcesoPagosContext&#45;&gt;GestionPedidosContext</title>
<path fill="none" stroke="black" stroke-width="2" d="M190.11,-154.89C200.79,-141.25 213.9,-126.67 228.08,-115.72 242.48,-104.59 259.08,-94.78 275.72,-86.35"/>
<text text-anchor="middle" x="284.08" y="-119.12" font-family="sans-serif" font-size="12.00">Customer/Supplier</text>
<polygon fill="white" stroke="transparent" points="268.72,-77.35 268.72,-94.35 282.72,-94.35 282.72,-77.35 268.72,-77.35"/>
<text text-anchor="start" x="270.72" y="-82.75" font-family="sans-serif" font-size="12.00">D</text>
<polygon fill="white" stroke="transparent" points="183.11,-145.89 183.11,-162.89 197.11,-162.89 197.11,-145.89 183.11,-145.89"/>
<text text-anchor="start" x="185.11" y="-151.29" font-family="sans-serif" font-size="12.00">U</text>
</g>
<!-- ServicioClienteContext -->
<g id="node14" class="node">
<title>ServicioClienteContext</title>
<polygon fill="none" stroke="black" stroke-width="2" points="2584.98,-443.21 2595.48,-442.9 2605.96,-442.72 2616.38,-442.65 2626.68,-442.71 2636.84,-442.9 2646.81,-443.21 2656.56,-443.64 2666.04,-444.2 2675.23,-444.88 2684.08,-445.69 2692.58,-446.61 2700.69,-447.65 2708.39,-448.8 2715.65,-450.07 2722.46,-451.44 2728.8,-452.91 2734.65,-454.49 2740.01,-456.16 2744.85,-457.92 2749.19,-459.77 2753,-461.7 2756.31,-463.7 2759.09,-465.77 2761.37,-467.9 2763.14,-470.08 2764.41,-472.31 2765.2,-474.59 2765.51,-476.9 2765.36,-479.23 2764.77,-481.59 2763.75,-483.96 2762.31,-486.33 2760.48,-488.71 2758.27,-491.07 2755.71,-493.42 2752.8,-495.75 2749.57,-498.05 2746.05,-500.31 2742.23,-502.52 2738.15,-504.69 2733.82,-506.8 2729.26,-508.85 2724.48,-510.84 2719.49,-512.74 2714.32,-514.57 2708.97,-516.32 2703.46,-517.98 2697.79,-519.55 2691.97,-521.02 2686.02,-522.39 2679.95,-523.65 2673.75,-524.81 2667.43,-525.86 2661.01,-526.81 2654.48,-527.63 2647.85,-528.35 2641.13,-528.94 2634.31,-529.42 2627.41,-529.79 2620.43,-530.03 2613.37,-530.16 2606.24,-530.17 2599.04,-530.06 2591.78,-529.84 2584.47,-529.51 2577.11,-529.06 2569.72,-528.5 2562.31,-527.83 2554.88,-527.06 2547.46,-526.18 2540.05,-525.2 2532.67,-524.13 2525.34,-522.95 2518.07,-521.69 2510.9,-520.34 2503.83,-518.9 2496.89,-517.38 2490.1,-515.78 2483.5,-514.11 2477.09,-512.37 2470.92,-510.57 2465,-508.71 2459.37,-506.79 2454.05,-504.82 2449.06,-502.81 2444.44,-500.75 2440.21,-498.65 2436.4,-496.53 2433.03,-494.38 2430.12,-492.21 2427.7,-490.02 2425.79,-487.82 2424.4,-485.61 2423.56,-483.41 2423.28,-481.21 2423.57,-479.02 2424.45,-476.85 2425.91,-474.69 2427.96,-472.57 2430.61,-470.48 2433.85,-468.42 2437.68,-466.41 2442.1,-464.45 2447.08,-462.54 2452.62,-460.69 2458.7,-458.91 2465.3,-457.19 2472.4,-455.55 2479.98,-453.99 2488,-452.51 2496.43,-451.12 2505.25,-449.82 2514.41,-448.62 2523.88,-447.52 2533.62,-446.52 2543.6,-445.63 2553.76,-444.85 2564.08,-444.19 2574.5,-443.64 2584.98,-443.21"/>
<text text-anchor="middle" x="2600.08" y="-482.96" font-family="sans-serif" font-size="16.00">ServicioClienteContext</text>
</g>
<!-- ServicioClienteContext&#45;&gt;VentasContext -->
<g id="edge19" class="edge">
<title>ServicioClienteContext&#45;&gt;VentasContext</title>
<path fill="none" stroke="black" stroke-width="2" d="M2483.54,-453.24C2460.63,-447.58 2436.69,-442.18 2414.08,-437.98 2165.91,-391.96 1871.5,-364.14 1709.41,-351.11"/>
<text text-anchor="middle" x="2337.58" y="-410.38" font-family="sans-serif" font-size="12.00">Partnership</text>
</g>
</g>
</svg>
