<svg width="2000px" height="2572px"
 viewBox="0.00 0.00 416.46 535.34" xmlns="http://www.w3.org/2000/svg" xmlns:xlink="http://www.w3.org/1999/xlink">
<g id="graph0" class="graph" transform="scale(1.0 1.0) rotate(0) translate(4 531.34)">
<title>ContextMapGraph</title>
<polygon fill="white" stroke="transparent" points="-4,4 -4,-531.34 412.46,-531.34 412.46,4 -4,4"/>
<!-- atencionCliente -->
<g id="node1" class="node">
<title>atencionCliente</title>
<polygon fill="none" stroke="black" stroke-width="2" points="233.04,-5.08 240.3,-6.24 247.36,-7.5 254.22,-8.86 260.83,-10.32 267.17,-11.86 273.22,-13.49 278.95,-15.2 284.34,-16.97 289.36,-18.82 294,-20.72 298.24,-22.68 302.07,-24.69 305.48,-26.75 308.44,-28.84 310.96,-30.96 313.03,-33.11 314.65,-35.28 315.81,-37.46 316.52,-39.66 316.77,-41.86 316.58,-44.06 315.95,-46.25 314.89,-48.43 313.42,-50.6 311.54,-52.74 309.27,-54.86 306.63,-56.95 303.63,-59.01 300.29,-61.02 296.64,-63 292.69,-64.92 288.46,-66.8 283.98,-68.62 279.26,-70.38 274.34,-72.08 269.22,-73.71 263.94,-75.27 258.51,-76.76 252.96,-78.17 247.3,-79.51 241.56,-80.76 235.76,-81.92 229.9,-83 224.02,-83.99 218.12,-84.88 212.22,-85.67 206.34,-86.37 200.48,-86.96 194.66,-87.45 188.9,-87.83 183.19,-88.11 177.55,-88.28 171.99,-88.34 166.52,-88.28 161.13,-88.11 155.83,-87.83 150.64,-87.44 145.54,-86.93 140.56,-86.31 135.68,-85.57 130.91,-84.72 126.26,-83.76 121.73,-82.69 117.32,-81.5 113.04,-80.22 108.88,-78.83 104.85,-77.33 100.96,-75.74 97.21,-74.06 93.6,-72.28 90.15,-70.42 86.85,-68.48 83.71,-66.46 80.74,-64.37 77.96,-62.21 75.36,-59.99 72.96,-57.73 70.76,-55.41 68.78,-53.06 67.03,-50.67 65.52,-48.26 64.26,-45.83 63.26,-43.39 62.53,-40.95 62.09,-38.52 61.94,-36.09 62.1,-33.69 62.56,-31.32 63.36,-28.99 64.48,-26.7 65.94,-24.46 67.75,-22.29 69.91,-20.18 72.42,-18.14 75.29,-16.18 78.52,-14.32 82.1,-12.54 86.03,-10.86 90.31,-9.29 94.93,-7.83 99.89,-6.48 105.17,-5.25 110.76,-4.14 116.64,-3.15 122.81,-2.3 129.23,-1.57 135.9,-0.97 142.79,-0.51 149.88,-0.18 157.14,0.02 164.55,0.09 172.08,0.02 179.69,-0.18 187.37,-0.51 195.09,-0.97 202.8,-1.55 210.48,-2.26 218.11,-3.08 225.64,-4.03 233.04,-5.08"/>
<text text-anchor="middle" x="182.46" y="-41.29" font-family="sans-serif" font-size="16.00">atencionCliente</text>
</g>
<!-- compras -->
<g id="node2" class="node">
<title>compras</title>
<polygon fill="none" stroke="black" stroke-width="2" points="4.1,-466.72 5.54,-463.95 7.18,-461.24 9.02,-458.59 11.05,-456.02 13.27,-453.53 15.66,-451.13 18.23,-448.84 20.96,-446.65 23.84,-444.6 26.87,-442.66 30.04,-440.87 33.34,-439.22 36.75,-437.71 40.28,-436.35 43.9,-435.15 47.61,-434.11 51.4,-433.23 55.27,-432.51 59.19,-431.95 63.16,-431.56 67.17,-431.32 71.21,-431.24 75.27,-431.32 79.34,-431.54 83.41,-431.92 87.47,-432.44 91.51,-433.1 95.53,-433.89 99.5,-434.81 103.42,-435.84 107.28,-436.99 111.08,-438.25 114.8,-439.6 118.44,-441.05 121.98,-442.58 125.42,-444.19 128.75,-445.87 131.95,-447.61 135.04,-449.41 137.98,-451.25 140.79,-453.14 143.44,-455.06 145.94,-457.01 148.27,-458.99 150.44,-460.98 152.43,-462.99 154.23,-465 155.85,-467.02 157.28,-469.04 158.52,-471.06 159.55,-473.07 160.37,-475.07 160.99,-477.05 161.4,-479.03 161.59,-480.99 161.57,-482.92 161.34,-484.84 160.89,-486.74 160.22,-488.62 159.33,-490.47 158.23,-492.3 156.91,-494.1 155.38,-495.88 153.65,-497.62 151.71,-499.34 149.57,-501.03 147.23,-502.68 144.7,-504.3 141.98,-505.88 139.09,-507.42 136.03,-508.92 132.81,-510.37 129.43,-511.78 125.9,-513.14 122.25,-514.44 118.46,-515.68 114.56,-516.85 110.56,-517.96 106.47,-519 102.3,-519.96 98.06,-520.84 93.76,-521.63 89.42,-522.32 85.06,-522.93 80.68,-523.42 76.29,-523.81 71.92,-524.09 67.57,-524.25 63.25,-524.29 58.99,-524.21 54.79,-523.99 50.67,-523.65 46.64,-523.17 42.71,-522.55 38.89,-521.79 35.2,-520.89 31.64,-519.85 28.23,-518.68 24.98,-517.36 21.89,-515.9 18.98,-514.31 16.26,-512.59 13.72,-510.74 11.39,-508.76 9.26,-506.67 7.34,-504.46 5.64,-502.15 4.16,-499.74 2.9,-497.25 1.87,-494.67 1.07,-492.02 0.49,-489.31 0.15,-486.54 0.04,-483.74 0.16,-480.91 0.5,-478.06 1.07,-475.21 1.86,-472.36 2.88,-469.52 4.1,-466.72"/>
<text text-anchor="middle" x="81.46" y="-475.51" font-family="sans-serif" font-size="16.00">compras</text>
</g>
<!-- login -->
<g id="node3" class="node">
<title>login</title>
<polygon fill="none" stroke="black" stroke-width="2" points="115.41,-298 118.66,-299.59 121.78,-301.27 124.79,-303.03 127.65,-304.87 130.36,-306.78 132.91,-308.75 135.29,-310.78 137.48,-312.86 139.48,-314.98 141.28,-317.13 142.88,-319.32 144.26,-321.53 145.43,-323.75 146.37,-325.98 147.09,-328.22 147.59,-330.45 147.86,-332.68 147.91,-334.89 147.74,-337.08 147.34,-339.25 146.73,-341.39 145.91,-343.5 144.88,-345.57 143.66,-347.6 142.24,-349.58 140.64,-351.51 138.87,-353.39 136.93,-355.22 134.84,-356.98 132.6,-358.68 130.23,-360.32 127.74,-361.89 125.14,-363.39 122.44,-364.82 119.65,-366.18 116.78,-367.45 113.85,-368.65 110.87,-369.77 107.85,-370.81 104.79,-371.76 101.71,-372.62 98.62,-373.4 95.53,-374.09 92.44,-374.68 89.37,-375.19 86.33,-375.59 83.31,-375.91 80.33,-376.12 77.4,-376.24 74.51,-376.25 71.68,-376.16 68.9,-375.98 66.2,-375.68 63.55,-375.29 60.98,-374.78 58.48,-374.18 56.05,-373.47 53.7,-372.65 51.43,-371.73 49.24,-370.7 47.13,-369.57 45.1,-368.34 43.16,-367 41.3,-365.57 39.52,-364.04 37.84,-362.42 36.23,-360.71 34.72,-358.91 33.3,-357.02 31.97,-355.06 30.73,-353.02 29.59,-350.91 28.54,-348.73 27.6,-346.5 26.76,-344.22 26.02,-341.88 25.39,-339.51 24.87,-337.11 24.47,-334.68 24.18,-332.24 24.02,-329.78 23.98,-327.32 24.07,-324.87 24.29,-322.44 24.65,-320.03 25.14,-317.65 25.79,-315.31 26.57,-313.01 27.51,-310.78 28.59,-308.61 29.83,-306.51 31.22,-304.49 32.76,-302.56 34.46,-300.73 36.31,-298.99 38.31,-297.36 40.47,-295.85 42.77,-294.46 45.22,-293.18 47.8,-292.04 50.52,-291.03 53.37,-290.16 56.34,-289.42 59.43,-288.82 62.62,-288.37 65.91,-288.06 69.28,-287.89 72.73,-287.87 76.25,-287.99 79.81,-288.25 83.42,-288.65 87.05,-289.19 90.7,-289.87 94.35,-290.67 97.98,-291.6 101.58,-292.65 105.14,-293.83 108.64,-295.11 112.07,-296.5 115.41,-298"/>
<text text-anchor="middle" x="81.46" y="-330.2" font-family="sans-serif" font-size="16.00">login</text>
</g>
<!-- compras&#45;&gt;login -->
<g id="edge1" class="edge">
<title>compras&#45;&gt;login</title>
<path fill="none" stroke="black" stroke-width="2" d="M81.46,-431.38C81.46,-413.59 81.46,-393.47 81.46,-376.24"/>
<text text-anchor="middle" x="156.96" y="-403.67" font-family="sans-serif" font-size="12.00"> &#160;&#160;&#160;&#160;&#160;&#160;&#160;&#160;&#160;&#160;&#160;&#160;&#160;&#160;&#160;&#160;&#160;&#160;&#160;&#160;&#160;&#160;&#160;&#160;&#160;&#160;&#160;&#160;&#160;&#160;&#160;&#160;&#160;&#160;&#160;&#160;&#160;&#160;&#160;</text>
<polygon fill="white" stroke="transparent" points="74.46,-367.24 74.46,-384.24 88.46,-384.24 88.46,-367.24 74.46,-367.24"/>
<text text-anchor="start" x="76.46" y="-372.64" font-family="sans-serif" font-size="12.00">D</text>
<polygon fill="white" stroke="transparent" points="74.46,-422.38 74.46,-439.38 88.46,-439.38 88.46,-422.38 74.46,-422.38"/>
<text text-anchor="start" x="76.46" y="-427.78" font-family="sans-serif" font-size="12.00">U</text>
</g>
<!-- ventas -->
<g id="node4" class="node">
<title>ventas</title>
<polygon fill="none" stroke="black" stroke-width="2" points="120.76,-208.72 118.52,-206.22 116.47,-203.69 114.62,-201.12 112.96,-198.53 111.51,-195.93 110.28,-193.32 109.27,-190.73 108.49,-188.15 107.94,-185.6 107.62,-183.08 107.54,-180.6 107.7,-178.18 108.1,-175.81 108.73,-173.51 109.6,-171.28 110.71,-169.12 112.04,-167.05 113.6,-165.06 115.38,-163.17 117.37,-161.37 119.57,-159.66 121.96,-158.06 124.54,-156.56 127.3,-155.16 130.22,-153.87 133.3,-152.68 136.52,-151.59 139.88,-150.61 143.35,-149.74 146.93,-148.96 150.6,-148.29 154.35,-147.72 158.16,-147.25 162.02,-146.88 165.93,-146.6 169.85,-146.41 173.79,-146.32 177.72,-146.31 181.64,-146.4 185.53,-146.57 189.38,-146.82 193.17,-147.15 196.91,-147.57 200.57,-148.06 204.15,-148.64 207.63,-149.29 211.01,-150.01 214.28,-150.81 217.44,-151.68 220.47,-152.63 223.37,-153.65 226.13,-154.74 228.75,-155.9 231.23,-157.13 233.55,-158.43 235.73,-159.81 237.75,-161.25 239.61,-162.76 241.32,-164.33 242.86,-165.97 244.25,-167.68 245.47,-169.45 246.54,-171.29 247.44,-173.18 248.18,-175.13 248.77,-177.14 249.2,-179.2 249.47,-181.3 249.58,-183.45 249.55,-185.64 249.36,-187.87 249.02,-190.13 248.53,-192.41 247.89,-194.72 247.11,-197.03 246.19,-199.35 245.12,-201.67 243.92,-203.99 242.57,-206.28 241.09,-208.56 239.48,-210.8 237.73,-213 235.86,-215.15 233.85,-217.24 231.72,-219.27 229.47,-221.23 227.1,-223.1 224.61,-224.88 222.01,-226.56 219.29,-228.13 216.47,-229.59 213.55,-230.92 210.53,-232.13 207.42,-233.2 204.22,-234.13 200.94,-234.91 197.59,-235.54 194.17,-236.02 190.68,-236.34 187.15,-236.5 183.57,-236.49 179.95,-236.32 176.31,-235.99 172.64,-235.5 168.98,-234.84 165.31,-234.02 161.66,-233.05 158.04,-231.92 154.45,-230.65 150.91,-229.23 147.43,-227.67 144.02,-225.99 140.69,-224.17 137.46,-222.25 134.34,-220.21 131.34,-218.07 128.47,-215.85 125.74,-213.54 123.17,-211.16 120.76,-208.72"/>
<text text-anchor="middle" x="182.46" y="-184.15" font-family="sans-serif" font-size="16.00">ventas</text>
</g>
<!-- login&#45;&gt;ventas -->
<g id="edge2" class="edge">
<title>login&#45;&gt;ventas</title>
<path fill="none" stroke="black" stroke-width="2" d="M83.57,-288.68C85.64,-277 89.25,-264.84 95.46,-254.72 104.27,-240.36 117.47,-228.03 130.94,-218.06"/>
<text text-anchor="middle" x="170.96" y="-258.12" font-family="sans-serif" font-size="12.00"> &#160;&#160;&#160;&#160;&#160;&#160;&#160;&#160;&#160;&#160;&#160;&#160;&#160;&#160;&#160;&#160;&#160;&#160;&#160;&#160;&#160;&#160;&#160;&#160;&#160;&#160;&#160;&#160;&#160;&#160;&#160;&#160;&#160;&#160;&#160;&#160;&#160;&#160;&#160;</text>
<polygon fill="white" stroke="transparent" points="123.94,-209.06 123.94,-226.06 137.94,-226.06 137.94,-209.06 123.94,-209.06"/>
<text text-anchor="start" x="125.94" y="-214.46" font-family="sans-serif" font-size="12.00">D</text>
<polygon fill="white" stroke="transparent" points="76.57,-279.68 76.57,-296.68 90.57,-296.68 90.57,-279.68 76.57,-279.68"/>
<text text-anchor="start" x="78.57" y="-285.08" font-family="sans-serif" font-size="12.00">U</text>
</g>
<!-- ventas&#45;&gt;atencionCliente -->
<g id="edge3" class="edge">
<title>ventas&#45;&gt;atencionCliente</title>
<path fill="none" stroke="black" stroke-width="2" d="M182.46,-146.2C182.46,-128 182.46,-106.56 182.46,-88.21"/>
<text text-anchor="middle" x="257.96" y="-111.57" font-family="sans-serif" font-size="12.00"> &#160;&#160;&#160;&#160;&#160;&#160;&#160;&#160;&#160;&#160;&#160;&#160;&#160;&#160;&#160;&#160;&#160;&#160;&#160;&#160;&#160;&#160;&#160;&#160;&#160;&#160;&#160;&#160;&#160;&#160;&#160;&#160;&#160;&#160;&#160;&#160;&#160;&#160;&#160;</text>
<polygon fill="white" stroke="transparent" points="159.46,-78.21 159.46,-97.21 175.46,-97.21 175.46,-78.21 159.46,-78.21"/>
<polyline fill="none" stroke="black" points="175.46,-78.21 175.46,-97.21 "/>
<text text-anchor="start" x="162.46" y="-84.61" font-family="sans-serif" font-size="12.00">D</text>
<polygon fill="white" stroke="transparent" points="175.46,-78.21 175.46,-97.21 205.46,-97.21 205.46,-78.21 175.46,-78.21"/>
<polygon fill="none" stroke="black" points="175.46,-78.21 175.46,-97.21 205.46,-97.21 205.46,-78.21 175.46,-78.21"/>
<text text-anchor="start" x="178.46" y="-84.61" font-family="sans-serif" font-size="12.00">ACL</text>
<polygon fill="white" stroke="transparent" points="175.46,-137.2 175.46,-154.2 189.46,-154.2 189.46,-137.2 175.46,-137.2"/>
<text text-anchor="start" x="177.46" y="-142.6" font-family="sans-serif" font-size="12.00">U</text>
</g>
<!-- devoluciones -->
<g id="node5" class="node">
<title>devoluciones</title>
<polygon fill="none" stroke="black" stroke-width="2" points="353.3,-366.82 348.11,-368.74 342.76,-370.56 337.26,-372.27 331.65,-373.86 325.93,-375.32 320.14,-376.65 314.28,-377.85 308.39,-378.91 302.48,-379.82 296.57,-380.58 290.69,-381.18 284.84,-381.63 279.05,-381.92 273.33,-382.05 267.7,-382.02 262.17,-381.84 256.76,-381.49 251.48,-380.99 246.34,-380.34 241.36,-379.53 236.54,-378.58 231.88,-377.49 227.41,-376.26 223.12,-374.9 219.02,-373.41 215.12,-371.81 211.42,-370.09 207.93,-368.27 204.64,-366.36 201.56,-364.36 198.7,-362.28 196.05,-360.13 193.61,-357.92 191.38,-355.66 189.37,-353.35 187.58,-351 186,-348.63 184.64,-346.24 183.49,-343.84 182.56,-341.44 181.84,-339.05 181.33,-336.66 181.04,-334.3 180.96,-331.96 181.1,-329.66 181.45,-327.4 182.02,-325.18 182.81,-323.01 183.81,-320.9 185.03,-318.84 186.46,-316.85 188.12,-314.93 189.99,-313.07 192.08,-311.29 194.39,-309.58 196.92,-307.95 199.66,-306.4 202.63,-304.93 205.81,-303.54 209.2,-302.23 212.8,-301.01 216.61,-299.86 220.63,-298.8 224.84,-297.83 229.24,-296.94 233.83,-296.13 238.6,-295.41 243.54,-294.77 248.64,-294.22 253.89,-293.74 259.27,-293.36 264.78,-293.06 270.41,-292.84 276.12,-292.71 281.92,-292.66 287.79,-292.7 293.7,-292.83 299.64,-293.04 305.59,-293.34 311.52,-293.73 317.43,-294.2 323.29,-294.77 329.08,-295.43 334.77,-296.17 340.35,-297.01 345.79,-297.94 351.08,-298.96 356.18,-300.07 361.09,-301.28 365.78,-302.57 370.23,-303.96 374.43,-305.44 378.35,-307 381.97,-308.65 385.29,-310.38 388.29,-312.2 390.95,-314.1 393.27,-316.07 395.23,-318.11 396.82,-320.23 398.04,-322.41 398.89,-324.64 399.35,-326.93 399.42,-329.27 399.12,-331.64 398.43,-334.05 397.36,-336.49 395.91,-338.95 394.1,-341.42 391.93,-343.89 389.41,-346.35 386.55,-348.8 383.37,-351.23 379.87,-353.63 376.08,-355.98 372.01,-358.29 367.68,-360.53 363.1,-362.71 358.3,-364.81 353.3,-366.82"/>
<text text-anchor="middle" x="282.46" y="-330.2" font-family="sans-serif" font-size="16.00">devoluciones</text>
</g>
<!-- devoluciones&#45;&gt;ventas -->
<g id="edge4" class="edge">
<title>devoluciones&#45;&gt;ventas</title>
<path fill="none" stroke="black" stroke-width="2" d="M269.69,-292.76C264.7,-280.03 258.28,-266.27 250.46,-254.72 243.28,-244.11 234.16,-233.86 224.95,-224.74"/>
<text text-anchor="middle" x="332.96" y="-258.12" font-family="sans-serif" font-size="12.00"> &#160;&#160;&#160;&#160;&#160;&#160;&#160;&#160;&#160;&#160;&#160;&#160;&#160;&#160;&#160;&#160;&#160;&#160;&#160;&#160;&#160;&#160;&#160;&#160;&#160;&#160;&#160;&#160;&#160;&#160;&#160;&#160;&#160;&#160;&#160;&#160;&#160;&#160;&#160;</text>
<polygon fill="white" stroke="transparent" points="201.95,-214.74 201.95,-233.74 217.95,-233.74 217.95,-214.74 201.95,-214.74"/>
<polyline fill="none" stroke="black" points="217.95,-214.74 217.95,-233.74 "/>
<text text-anchor="start" x="204.95" y="-221.14" font-family="sans-serif" font-size="12.00">D</text>
<polygon fill="white" stroke="transparent" points="217.95,-214.74 217.95,-233.74 247.95,-233.74 247.95,-214.74 217.95,-214.74"/>
<polygon fill="none" stroke="black" points="217.95,-214.74 217.95,-233.74 247.95,-233.74 247.95,-214.74 217.95,-214.74"/>
<text text-anchor="start" x="220.95" y="-221.14" font-family="sans-serif" font-size="12.00">ACL</text>
<polygon fill="white" stroke="transparent" points="262.69,-283.76 262.69,-300.76 276.69,-300.76 276.69,-283.76 262.69,-283.76"/>
<text text-anchor="start" x="264.69" y="-289.16" font-family="sans-serif" font-size="12.00">U</text>
</g>
</g>
</svg>
