<svg width="2000px" height="456px"
 viewBox="0.00 0.00 3019.12 687.67" xmlns="http://www.w3.org/2000/svg" xmlns:xlink="http://www.w3.org/1999/xlink">
<g id="graph0" class="graph" transform="scale(1.0 1.0) rotate(0) translate(4 683.67)">
<title>ContextMapGraph</title>
<polygon fill="white" stroke="transparent" points="-4,4 -4,-683.67 3015.12,-683.67 3015.12,4 -4,4"/>
<!-- AnaliticasReportingContext -->
<g id="node1" class="node">
<title>AnaliticasReportingContext</title>
<polygon fill="none" stroke="black" stroke-width="2" points="80.36,-662.97 71.24,-661.06 62.52,-659.08 54.25,-657.03 46.46,-654.92 39.17,-652.75 32.43,-650.54 26.26,-648.29 20.69,-646.01 15.74,-643.71 11.43,-641.39 7.78,-639.06 4.8,-636.74 2.5,-634.42 0.9,-632.11 -0.01,-629.82 -0.23,-627.56 0.25,-625.33 1.42,-623.13 3.27,-620.98 5.79,-618.87 8.96,-616.82 12.77,-614.81 17.19,-612.87 22.2,-610.99 27.78,-609.17 33.9,-607.42 40.53,-605.74 47.63,-604.13 55.18,-602.6 63.14,-601.14 71.47,-599.76 80.14,-598.46 89.12,-597.24 98.35,-596.1 107.82,-595.04 117.47,-594.07 127.28,-593.18 137.21,-592.38 147.22,-591.66 157.28,-591.03 167.35,-590.49 177.41,-590.03 187.42,-589.67 197.36,-589.39 207.19,-589.21 216.9,-589.12 226.45,-589.11 235.83,-589.21 245.01,-589.39 253.98,-589.67 262.72,-590.04 271.22,-590.51 279.46,-591.08 287.43,-591.74 295.12,-592.5 302.53,-593.36 309.64,-594.31 316.44,-595.36 322.95,-596.5 329.14,-597.74 335.02,-599.08 340.58,-600.5 345.82,-602.02 350.74,-603.63 355.34,-605.32 359.62,-607.1 363.57,-608.96 367.19,-610.9 370.48,-612.91 373.45,-614.99 376.07,-617.13 378.36,-619.34 380.31,-621.6 381.92,-623.9 383.18,-626.25 384.08,-628.63 384.62,-631.05 384.8,-633.48 384.61,-635.92 384.04,-638.37 383.09,-640.82 381.75,-643.26 380.01,-645.67 377.87,-648.06 375.32,-650.41 372.35,-652.72 368.97,-654.97 365.16,-657.16 360.93,-659.28 356.27,-661.31 351.18,-663.27 345.67,-665.12 339.72,-666.88 333.36,-668.52 326.58,-670.05 319.38,-671.46 311.79,-672.73 303.82,-673.88 295.46,-674.89 286.75,-675.76 277.7,-676.48 268.33,-677.06 258.67,-677.48 248.73,-677.76 238.56,-677.88 228.16,-677.85 217.59,-677.67 206.86,-677.34 196.02,-676.87 185.1,-676.25 174.14,-675.48 163.18,-674.58 152.25,-673.54 141.41,-672.37 130.69,-671.08 120.13,-669.67 109.78,-668.15 99.67,-666.52 89.85,-664.79 80.36,-662.97"/>
<text text-anchor="middle" x="207.23" y="-626.99" font-family="sans-serif" font-size="16.00">AnaliticasReportingContext</text>
</g>
<!-- VentasContext -->
<g id="node2" class="node">
<title>VentasContext</title>
<polygon fill="none" stroke="black" stroke-width="2" points="844.06,-458.52 848.34,-456.17 852.84,-453.9 857.56,-451.73 862.47,-449.66 867.57,-447.71 872.82,-445.87 878.21,-444.17 883.73,-442.6 889.35,-441.17 895.05,-439.88 900.83,-438.75 906.66,-437.77 912.52,-436.96 918.4,-436.3 924.28,-435.81 930.15,-435.49 935.99,-435.33 941.79,-435.33 947.53,-435.5 953.2,-435.82 958.79,-436.31 964.28,-436.95 969.67,-437.74 974.94,-438.67 980.08,-439.75 985.09,-440.95 989.96,-442.29 994.67,-443.74 999.22,-445.3 1003.61,-446.97 1007.82,-448.74 1011.85,-450.6 1015.7,-452.53 1019.35,-454.54 1022.8,-456.6 1026.05,-458.73 1029.1,-460.9 1031.93,-463.1 1034.54,-465.34 1036.93,-467.6 1039.09,-469.87 1041.02,-472.15 1042.72,-474.43 1044.18,-476.7 1045.39,-478.96 1046.36,-481.21 1047.07,-483.42 1047.54,-485.61 1047.74,-487.77 1047.68,-489.88 1047.36,-491.96 1046.77,-493.99 1045.92,-495.97 1044.79,-497.9 1043.39,-499.78 1041.71,-501.61 1039.77,-503.37 1037.55,-505.08 1035.06,-506.73 1032.29,-508.32 1029.26,-509.85 1025.97,-511.31 1022.41,-512.72 1018.59,-514.05 1014.53,-515.33 1010.22,-516.54 1005.68,-517.68 1000.91,-518.76 995.93,-519.77 990.74,-520.71 985.35,-521.58 979.79,-522.39 974.06,-523.11 968.18,-523.77 962.16,-524.35 956.03,-524.85 949.8,-525.27 943.48,-525.61 937.11,-525.86 930.69,-526.03 924.26,-526.1 917.82,-526.09 911.4,-525.98 905.03,-525.78 898.72,-525.47 892.51,-525.06 886.4,-524.55 880.42,-523.94 874.6,-523.21 868.95,-522.38 863.49,-521.44 858.25,-520.38 853.25,-519.22 848.49,-517.94 844.01,-516.55 839.81,-515.05 835.92,-513.45 832.34,-511.73 829.1,-509.92 826.19,-508 823.63,-505.99 821.44,-503.88 819.61,-501.69 818.15,-499.42 817.07,-497.07 816.37,-494.65 816.04,-492.18 816.1,-489.64 816.53,-487.07 817.34,-484.46 818.51,-481.82 820.04,-479.16 821.93,-476.5 824.15,-473.84 826.72,-471.19 829.6,-468.57 832.79,-465.98 836.27,-463.44 840.03,-460.95 844.06,-458.52"/>
<text text-anchor="middle" x="937.23" y="-480.25" font-family="sans-serif" font-size="16.00">VentasContext</text>
</g>
<!-- AnaliticasReportingContext&#45;&gt;VentasContext -->
<g id="edge1" class="edge">
<title>AnaliticasReportingContext&#45;&gt;VentasContext</title>
<path fill="none" stroke="black" stroke-width="2" d="M338.73,-599.94C366.59,-593.81 395.85,-587.52 423.23,-581.91 560.33,-553.8 718.66,-524.43 822.95,-505.5"/>
<text text-anchor="middle" x="613.73" y="-554.31" font-family="sans-serif" font-size="12.00">Partnership</text>
</g>
<!-- AutenticacionAutorizacionContext -->
<g id="node3" class="node">
<title>AutenticacionAutorizacionContext</title>
<polygon fill="none" stroke="black" stroke-width="2" points="1917.08,-656.75 1908.14,-654.47 1899.77,-652.14 1891.98,-649.75 1884.83,-647.33 1878.33,-644.87 1872.52,-642.4 1867.43,-639.91 1863.07,-637.42 1859.48,-634.94 1856.65,-632.47 1854.62,-630.02 1853.38,-627.6 1852.94,-625.22 1853.32,-622.88 1854.5,-620.59 1856.47,-618.36 1859.25,-616.19 1862.8,-614.08 1867.11,-612.05 1872.18,-610.09 1877.97,-608.21 1884.46,-606.41 1891.62,-604.7 1899.42,-603.07 1907.82,-601.54 1916.8,-600.09 1926.32,-598.73 1936.33,-597.47 1946.79,-596.3 1957.66,-595.22 1968.9,-594.24 1980.46,-593.34 1992.31,-592.55 2004.38,-591.84 2016.64,-591.22 2029.05,-590.7 2041.56,-590.26 2054.12,-589.92 2066.69,-589.66 2079.24,-589.49 2091.72,-589.4 2104.09,-589.41 2116.32,-589.49 2128.37,-589.67 2140.21,-589.92 2151.8,-590.26 2163.13,-590.69 2174.16,-591.2 2184.86,-591.79 2195.22,-592.46 2205.21,-593.22 2214.82,-594.06 2224.03,-594.99 2232.83,-595.99 2241.2,-597.08 2249.14,-598.25 2256.63,-599.51 2263.66,-600.84 2270.24,-602.26 2276.36,-603.75 2282.01,-605.32 2287.2,-606.97 2291.92,-608.7 2296.17,-610.5 2299.95,-612.37 2303.26,-614.31 2306.11,-616.31 2308.49,-618.38 2310.41,-620.5 2311.87,-622.68 2312.87,-624.9 2313.41,-627.17 2313.5,-629.48 2313.12,-631.82 2312.3,-634.18 2311.01,-636.56 2309.28,-638.96 2307.09,-641.36 2304.45,-643.75 2301.36,-646.13 2297.82,-648.5 2293.82,-650.83 2289.38,-653.13 2284.48,-655.38 2279.14,-657.58 2273.35,-659.71 2267.12,-661.77 2260.45,-663.75 2253.34,-665.64 2245.81,-667.44 2237.85,-669.13 2229.48,-670.71 2220.7,-672.17 2211.53,-673.5 2201.99,-674.7 2192.07,-675.76 2181.81,-676.68 2171.22,-677.45 2160.33,-678.07 2149.14,-678.53 2137.7,-678.84 2126.03,-678.99 2114.15,-678.97 2102.1,-678.8 2089.91,-678.47 2077.62,-677.98 2065.25,-677.33 2052.86,-676.53 2040.48,-675.57 2028.15,-674.48 2015.91,-673.23 2003.81,-671.86 1991.88,-670.35 1980.18,-668.72 1968.74,-666.97 1957.62,-665.11 1946.84,-663.15 1936.47,-661.1 1926.53,-658.97 1917.08,-656.75"/>
<text text-anchor="middle" x="2099.23" y="-626.99" font-family="sans-serif" font-size="16.00">AutenticacionAutorizacionContext</text>
</g>
<!-- CarritoComprasContext -->
<g id="node4" class="node">
<title>CarritoComprasContext</title>
<polygon fill="none" stroke="black" stroke-width="2" points="2260.71,-473.87 2263.37,-476.66 2265.57,-479.46 2267.29,-482.26 2268.54,-485.05 2269.29,-487.82 2269.55,-490.55 2269.31,-493.24 2268.57,-495.88 2267.32,-498.46 2265.57,-500.96 2263.32,-503.38 2260.57,-505.72 2257.34,-507.95 2253.62,-510.09 2249.44,-512.12 2244.8,-514.04 2239.71,-515.84 2234.19,-517.52 2228.26,-519.07 2221.94,-520.5 2215.25,-521.8 2208.2,-522.97 2200.83,-524.01 2193.15,-524.93 2185.2,-525.71 2176.99,-526.37 2168.55,-526.9 2159.92,-527.31 2151.12,-527.6 2142.18,-527.77 2133.13,-527.82 2124,-527.77 2114.82,-527.61 2105.61,-527.34 2096.42,-526.98 2087.26,-526.52 2078.17,-525.97 2069.17,-525.34 2060.29,-524.62 2051.57,-523.82 2043.01,-522.95 2034.66,-522.01 2026.53,-520.99 2018.65,-519.92 2011.03,-518.78 2003.7,-517.58 1996.68,-516.32 1989.99,-515.01 1983.63,-513.65 1977.63,-512.24 1972,-510.77 1966.76,-509.26 1961.9,-507.71 1957.45,-506.1 1953.41,-504.46 1949.79,-502.77 1946.58,-501.04 1943.8,-499.27 1941.46,-497.46 1939.54,-495.61 1938.05,-493.72 1936.99,-491.8 1936.36,-489.84 1936.15,-487.85 1936.37,-485.83 1937,-483.78 1938.04,-481.71 1939.49,-479.62 1941.34,-477.5 1943.57,-475.38 1946.19,-473.24 1949.19,-471.1 1952.55,-468.95 1956.26,-466.82 1960.32,-464.69 1964.72,-462.58 1969.43,-460.5 1974.46,-458.44 1979.79,-456.43 1985.41,-454.45 1991.3,-452.54 1997.45,-450.68 2003.86,-448.89 2010.5,-447.18 2017.36,-445.55 2024.43,-444.01 2031.69,-442.58 2039.13,-441.25 2046.73,-440.04 2054.48,-438.95 2062.36,-437.99 2070.35,-437.17 2078.44,-436.48 2086.61,-435.95 2094.83,-435.56 2103.1,-435.34 2111.39,-435.27 2119.69,-435.36 2127.96,-435.62 2136.2,-436.04 2144.39,-436.62 2152.49,-437.38 2160.49,-438.29 2168.38,-439.37 2176.12,-440.6 2183.7,-441.99 2191.09,-443.54 2198.27,-445.22 2205.22,-447.05 2211.93,-449 2218.36,-451.08 2224.49,-453.28 2230.32,-455.58 2235.81,-457.99 2240.94,-460.48 2245.71,-463.04 2250.08,-465.68 2254.05,-468.37 2257.6,-471.1 2260.71,-473.87"/>
<text text-anchor="middle" x="2099.23" y="-480.25" font-family="sans-serif" font-size="16.00">CarritoComprasContext</text>
</g>
<!-- AutenticacionAutorizacionContext&#45;&gt;CarritoComprasContext -->
<g id="edge2" class="edge">
<title>AutenticacionAutorizacionContext&#45;&gt;CarritoComprasContext</title>
<path fill="none" stroke="black" stroke-width="2" d="M2099.23,-589.09C2099.23,-569.77 2099.23,-546.71 2099.23,-527.21"/>
<text text-anchor="middle" x="2155.23" y="-554.31" font-family="sans-serif" font-size="12.00">Customer/Supplier</text>
<polygon fill="white" stroke="transparent" points="2092.23,-518.21 2092.23,-535.21 2106.23,-535.21 2106.23,-518.21 2092.23,-518.21"/>
<text text-anchor="start" x="2094.23" y="-523.61" font-family="sans-serif" font-size="12.00">D</text>
<polygon fill="white" stroke="transparent" points="2092.23,-580.09 2092.23,-597.09 2106.23,-597.09 2106.23,-580.09 2092.23,-580.09"/>
<text text-anchor="start" x="2094.23" y="-585.49" font-family="sans-serif" font-size="12.00">U</text>
</g>
<!-- GestionProductosContext -->
<g id="node5" class="node">
<title>GestionProductosContext</title>
<polygon fill="none" stroke="black" stroke-width="2" points="2059.36,-335.16 2060.32,-332.29 2061.76,-329.45 2063.67,-326.65 2066.05,-323.9 2068.88,-321.21 2072.17,-318.6 2075.91,-316.08 2080.08,-313.65 2084.67,-311.32 2089.67,-309.1 2095.07,-307 2100.85,-305.03 2106.99,-303.19 2113.49,-301.49 2120.31,-299.93 2127.45,-298.52 2134.88,-297.25 2142.58,-296.14 2150.53,-295.18 2158.71,-294.38 2167.1,-293.72 2175.68,-293.23 2184.41,-292.88 2193.28,-292.68 2202.26,-292.62 2211.33,-292.71 2220.47,-292.94 2229.64,-293.3 2238.82,-293.79 2247.99,-294.4 2257.12,-295.13 2266.19,-295.97 2275.17,-296.92 2284.05,-297.97 2292.78,-299.11 2301.35,-300.33 2309.74,-301.64 2317.92,-303.02 2325.88,-304.47 2333.58,-305.98 2341.01,-307.54 2348.14,-309.16 2354.97,-310.82 2361.46,-312.52 2367.61,-314.26 2373.39,-316.03 2378.78,-317.82 2383.78,-319.64 2388.38,-321.48 2392.55,-323.34 2396.28,-325.21 2399.57,-327.09 2402.41,-328.99 2404.79,-330.89 2406.7,-332.8 2408.13,-334.71 2409.09,-336.62 2409.57,-338.54 2409.57,-340.46 2409.09,-342.38 2408.13,-344.29 2406.7,-346.2 2404.79,-348.11 2402.41,-350.01 2399.57,-351.91 2396.28,-353.79 2392.55,-355.66 2388.38,-357.52 2383.78,-359.36 2378.78,-361.18 2373.39,-362.97 2367.61,-364.74 2361.46,-366.48 2354.97,-368.18 2348.14,-369.84 2341.01,-371.46 2333.58,-373.02 2325.88,-374.53 2317.92,-375.98 2309.74,-377.36 2301.35,-378.67 2292.78,-379.89 2284.05,-381.03 2275.17,-382.08 2266.19,-383.03 2257.12,-383.87 2247.99,-384.6 2238.82,-385.21 2229.64,-385.7 2220.47,-386.06 2211.33,-386.29 2202.26,-386.38 2193.28,-386.32 2184.41,-386.12 2175.68,-385.77 2167.1,-385.28 2158.71,-384.62 2150.53,-383.82 2142.58,-382.86 2134.88,-381.75 2127.45,-380.48 2120.31,-379.07 2113.49,-377.51 2106.99,-375.81 2100.85,-373.97 2095.07,-372 2089.67,-369.9 2084.67,-367.68 2080.08,-365.35 2075.91,-362.92 2072.17,-360.4 2068.88,-357.79 2066.05,-355.1 2063.67,-352.35 2061.76,-349.55 2060.32,-346.71 2059.36,-343.84 2058.88,-340.95 2058.88,-338.05 2059.36,-335.16"/>
<text text-anchor="middle" x="2234.23" y="-335.7" font-family="sans-serif" font-size="16.00">GestionProductosContext</text>
</g>
<!-- CarritoComprasContext&#45;&gt;GestionProductosContext -->
<g id="edge3" class="edge">
<title>CarritoComprasContext&#45;&gt;GestionProductosContext</title>
<path fill="none" stroke="black" stroke-width="2" d="M2185.76,-442.41C2195.66,-435.07 2204.84,-426.69 2212.23,-417.19 2219.29,-408.11 2224.08,-396.86 2227.34,-385.8"/>
<text text-anchor="middle" x="2276.23" y="-407.59" font-family="sans-serif" font-size="12.00">Customer/Supplier</text>
<polygon fill="white" stroke="transparent" points="2220.34,-376.8 2220.34,-393.8 2234.34,-393.8 2234.34,-376.8 2220.34,-376.8"/>
<text text-anchor="start" x="2222.34" y="-382.2" font-family="sans-serif" font-size="12.00">D</text>
<polygon fill="white" stroke="transparent" points="2178.76,-433.41 2178.76,-450.41 2192.76,-450.41 2192.76,-433.41 2178.76,-433.41"/>
<text text-anchor="start" x="2180.76" y="-438.81" font-family="sans-serif" font-size="12.00">U</text>
</g>
<!-- GestionClientesContext -->
<g id="node6" class="node">
<title>GestionClientesContext</title>
<polygon fill="none" stroke="black" stroke-width="2" points="1782.64,-225.84 1774.95,-223.81 1767.64,-221.71 1760.73,-219.55 1754.25,-217.33 1748.24,-215.06 1742.72,-212.75 1737.71,-210.41 1733.24,-208.05 1729.31,-205.67 1725.96,-203.29 1723.19,-200.91 1721.02,-198.53 1719.45,-196.17 1718.49,-193.83 1718.13,-191.52 1718.39,-189.25 1719.26,-187.01 1720.73,-184.82 1722.8,-182.67 1725.44,-180.59 1728.65,-178.56 1732.42,-176.59 1736.71,-174.69 1741.52,-172.86 1746.82,-171.1 1752.57,-169.42 1758.77,-167.81 1765.37,-166.28 1772.35,-164.83 1779.68,-163.46 1787.32,-162.18 1795.25,-160.98 1803.43,-159.86 1811.82,-158.83 1820.4,-157.88 1829.14,-157.02 1837.99,-156.25 1846.93,-155.57 1855.92,-154.97 1864.94,-154.46 1873.96,-154.04 1882.95,-153.7 1891.87,-153.46 1900.71,-153.3 1909.45,-153.24 1918.05,-153.27 1926.5,-153.38 1934.77,-153.59 1942.86,-153.89 1950.73,-154.28 1958.39,-154.76 1965.81,-155.34 1972.99,-156.01 1979.91,-156.77 1986.56,-157.63 1992.94,-158.58 1999.04,-159.63 2004.85,-160.77 2010.37,-162 2015.6,-163.32 2020.54,-164.73 2025.17,-166.24 2029.51,-167.83 2033.54,-169.5 2037.28,-171.26 2040.7,-173.1 2043.83,-175.02 2046.65,-177.01 2049.16,-179.08 2051.37,-181.2 2053.27,-183.39 2054.85,-185.64 2056.13,-187.93 2057.09,-190.27 2057.74,-192.65 2058.06,-195.06 2058.07,-197.49 2057.74,-199.93 2057.09,-202.39 2056.1,-204.85 2054.77,-207.3 2053.1,-209.73 2051.08,-212.14 2048.71,-214.51 2045.99,-216.84 2042.91,-219.13 2039.48,-221.35 2035.68,-223.5 2031.51,-225.58 2026.99,-227.57 2022.1,-229.47 2016.85,-231.27 2011.25,-232.96 2005.29,-234.53 1998.99,-235.99 1992.35,-237.31 1985.38,-238.5 1978.1,-239.56 1970.51,-240.47 1962.64,-241.23 1954.49,-241.85 1946.09,-242.31 1937.46,-242.62 1928.62,-242.78 1919.59,-242.78 1910.4,-242.62 1901.08,-242.31 1891.66,-241.85 1882.17,-241.23 1872.64,-240.47 1863.09,-239.57 1853.58,-238.53 1844.12,-237.35 1834.77,-236.04 1825.54,-234.61 1816.48,-233.06 1807.63,-231.4 1799.01,-229.64 1790.67,-227.78 1782.64,-225.84"/>
<text text-anchor="middle" x="1901.23" y="-191.25" font-family="sans-serif" font-size="16.00">GestionClientesContext</text>
</g>
<!-- CarritoComprasContext&#45;&gt;GestionClientesContext -->
<g id="edge4" class="edge">
<title>CarritoComprasContext&#45;&gt;GestionClientesContext</title>
<path fill="none" stroke="black" stroke-width="2" d="M1947.69,-471.87C1890.43,-459.39 1830.61,-434.6 1795.23,-386.19 1770.74,-352.68 1778.48,-330.78 1795.23,-292.81 1804.83,-271.04 1822.02,-252.05 1839.8,-236.79"/>
<text text-anchor="middle" x="1851.23" y="-336.4" font-family="sans-serif" font-size="12.00">Customer/Supplier</text>
<polygon fill="white" stroke="transparent" points="1832.8,-227.79 1832.8,-244.79 1846.8,-244.79 1846.8,-227.79 1832.8,-227.79"/>
<text text-anchor="start" x="1834.8" y="-233.19" font-family="sans-serif" font-size="12.00">D</text>
<polygon fill="white" stroke="transparent" points="1940.69,-462.87 1940.69,-479.87 1954.69,-479.87 1954.69,-462.87 1940.69,-462.87"/>
<text text-anchor="start" x="1942.69" y="-468.27" font-family="sans-serif" font-size="12.00">U</text>
</g>
<!-- GestionProductosContext&#45;&gt;CarritoComprasContext -->
<g id="edge5" class="edge">
<title>GestionProductosContext&#45;&gt;CarritoComprasContext</title>
<path fill="none" stroke="black" stroke-width="2" d="M2119.93,-379.07C2110.67,-386.11 2102.48,-394.41 2096.23,-404.19 2090.32,-413.42 2088.4,-424.58 2088.55,-435.57"/>
<text text-anchor="middle" x="2152.23" y="-407.59" font-family="sans-serif" font-size="12.00">Customer/Supplier</text>
<polygon fill="white" stroke="transparent" points="2081.55,-426.57 2081.55,-443.57 2095.55,-443.57 2095.55,-426.57 2081.55,-426.57"/>
<text text-anchor="start" x="2083.55" y="-431.97" font-family="sans-serif" font-size="12.00">D</text>
<polygon fill="white" stroke="transparent" points="2112.93,-370.07 2112.93,-387.07 2126.93,-387.07 2126.93,-370.07 2112.93,-370.07"/>
<text text-anchor="start" x="2114.93" y="-375.47" font-family="sans-serif" font-size="12.00">U</text>
</g>
<!-- GestionProductosContext&#45;&gt;GestionClientesContext -->
<g id="edge6" class="edge">
<title>GestionProductosContext&#45;&gt;GestionClientesContext</title>
<path fill="none" stroke="black" stroke-width="2" d="M2107.51,-302.93C2082.82,-294.67 2057.42,-285.21 2034.23,-274.81 2012.56,-265.1 1989.97,-252.68 1969.7,-240.6"/>
<text text-anchor="middle" x="2076.23" y="-265.21" font-family="sans-serif" font-size="12.00">Shared Kernel</text>
</g>
<!-- GestionDevolucionesContext -->
<g id="node7" class="node">
<title>GestionDevolucionesContext</title>
<polygon fill="none" stroke="black" stroke-width="2" points="2472.35,-168.51 2480.28,-170.76 2487.74,-173.06 2494.69,-175.42 2501.09,-177.81 2506.92,-180.24 2512.16,-182.69 2516.77,-185.16 2520.75,-187.63 2524.07,-190.1 2526.71,-192.55 2528.67,-194.99 2529.94,-197.4 2530.5,-199.78 2530.36,-202.11 2529.52,-204.4 2527.97,-206.64 2525.74,-208.82 2522.82,-210.93 2519.23,-212.98 2514.99,-214.95 2510.11,-216.84 2504.61,-218.66 2498.53,-220.4 2491.89,-222.05 2484.71,-223.61 2477.02,-225.08 2468.87,-226.47 2460.28,-227.77 2451.28,-228.97 2441.93,-230.08 2432.25,-231.1 2422.28,-232.03 2412.06,-232.87 2401.63,-233.62 2391.03,-234.27 2380.3,-234.84 2369.47,-235.32 2358.59,-235.71 2347.69,-236.01 2336.81,-236.22 2325.99,-236.34 2315.24,-236.38 2304.62,-236.34 2294.14,-236.2 2283.84,-235.99 2273.75,-235.69 2263.88,-235.3 2254.27,-234.83 2244.93,-234.27 2235.88,-233.64 2227.14,-232.91 2218.73,-232.11 2210.66,-231.21 2202.95,-230.24 2195.59,-229.18 2188.61,-228.04 2182.01,-226.81 2175.8,-225.5 2169.97,-224.11 2164.55,-222.64 2159.51,-221.09 2154.88,-219.46 2150.65,-217.75 2146.82,-215.97 2143.39,-214.12 2140.36,-212.19 2137.73,-210.2 2135.5,-208.15 2133.67,-206.03 2132.23,-203.87 2131.19,-201.65 2130.54,-199.38 2130.29,-197.08 2130.43,-194.75 2130.96,-192.38 2131.89,-190 2133.21,-187.6 2134.92,-185.2 2137.02,-182.8 2139.52,-180.41 2142.41,-178.04 2145.7,-175.7 2149.38,-173.39 2153.45,-171.12 2157.92,-168.91 2162.78,-166.76 2168.03,-164.68 2173.66,-162.68 2179.69,-160.77 2186.09,-158.95 2192.86,-157.24 2200.01,-155.63 2207.52,-154.15 2215.37,-152.79 2223.57,-151.56 2232.09,-150.46 2240.93,-149.51 2250.07,-148.71 2259.48,-148.05 2269.15,-147.55 2279.06,-147.21 2289.19,-147.02 2299.5,-146.99 2309.98,-147.12 2320.59,-147.42 2331.3,-147.86 2342.08,-148.47 2352.91,-149.23 2363.73,-150.14 2374.52,-151.19 2385.25,-152.39 2395.86,-153.72 2406.34,-155.19 2416.63,-156.78 2426.69,-158.49 2436.5,-160.3 2446,-162.22 2455.17,-164.24 2463.97,-166.34 2472.35,-168.51"/>
<text text-anchor="middle" x="2316.23" y="-191.25" font-family="sans-serif" font-size="16.00">GestionDevolucionesContext</text>
</g>
<!-- GestionProductosContext&#45;&gt;GestionDevolucionesContext -->
<g id="edge7" class="edge">
<title>GestionProductosContext&#45;&gt;GestionDevolucionesContext</title>
<path fill="none" stroke="black" stroke-width="2" d="M2259.28,-294.99C2270.01,-276.33 2282.48,-254.67 2293.01,-236.38"/>
<text text-anchor="middle" x="2353.73" y="-265.21" font-family="sans-serif" font-size="12.00"> &#160;&#160;&#160;&#160;&#160;&#160;&#160;&#160;&#160;&#160;&#160;&#160;&#160;&#160;&#160;&#160;&#160;&#160;&#160;&#160;&#160;&#160;&#160;&#160;&#160;&#160;&#160;&#160;&#160;&#160;&#160;&#160;&#160;&#160;&#160;&#160;&#160;&#160;&#160;</text>
<polygon fill="white" stroke="transparent" points="2274.01,-226.38 2274.01,-245.38 2290.01,-245.38 2290.01,-226.38 2274.01,-226.38"/>
<polyline fill="none" stroke="black" points="2290.01,-226.38 2290.01,-245.38 "/>
<text text-anchor="start" x="2277.01" y="-232.78" font-family="sans-serif" font-size="12.00">D</text>
<polygon fill="white" stroke="transparent" points="2290.01,-226.38 2290.01,-245.38 2312.01,-245.38 2312.01,-226.38 2290.01,-226.38"/>
<polygon fill="none" stroke="black" points="2290.01,-226.38 2290.01,-245.38 2312.01,-245.38 2312.01,-226.38 2290.01,-226.38"/>
<text text-anchor="start" x="2293.01" y="-232.78" font-family="sans-serif" font-size="12.00">CF</text>
<polygon fill="white" stroke="transparent" points="2224.28,-284.99 2224.28,-303.99 2240.28,-303.99 2240.28,-284.99 2224.28,-284.99"/>
<polyline fill="none" stroke="black" points="2240.28,-284.99 2240.28,-303.99 "/>
<text text-anchor="start" x="2227.28" y="-291.39" font-family="sans-serif" font-size="12.00">U</text>
<polygon fill="white" stroke="transparent" points="2240.28,-284.99 2240.28,-303.99 2295.28,-303.99 2295.28,-284.99 2240.28,-284.99"/>
<polygon fill="none" stroke="black" points="2240.28,-284.99 2240.28,-303.99 2295.28,-303.99 2295.28,-284.99 2240.28,-284.99"/>
<text text-anchor="start" x="2243.28" y="-291.39" font-family="sans-serif" font-size="12.00">OHS, PL</text>
</g>
<!-- GestionClientesContext&#45;&gt;CarritoComprasContext -->
<g id="edge8" class="edge">
<title>GestionClientesContext&#45;&gt;CarritoComprasContext</title>
<path fill="none" stroke="black" stroke-width="2" d="M1905.95,-242.87C1911.61,-291.48 1922.37,-363.53 1938.23,-386.19 1956.28,-411.98 1983.6,-432.09 2010.63,-447.13"/>
<text text-anchor="middle" x="1994.23" y="-336.4" font-family="sans-serif" font-size="12.00">Customer/Supplier</text>
<polygon fill="white" stroke="transparent" points="2003.63,-438.13 2003.63,-455.13 2017.63,-455.13 2017.63,-438.13 2003.63,-438.13"/>
<text text-anchor="start" x="2005.63" y="-443.53" font-family="sans-serif" font-size="12.00">D</text>
<polygon fill="white" stroke="transparent" points="1898.95,-233.87 1898.95,-250.87 1912.95,-250.87 1912.95,-233.87 1898.95,-233.87"/>
<text text-anchor="start" x="1900.95" y="-239.27" font-family="sans-serif" font-size="12.00">U</text>
</g>
<!-- GestionClientesContext&#45;&gt;GestionProductosContext -->
<g id="edge9" class="edge">
<title>GestionClientesContext&#45;&gt;GestionProductosContext</title>
<path fill="none" stroke="black" stroke-width="2" d="M2027.2,-227.48C2057.64,-236.91 2089.63,-248.38 2118.23,-261.81 2136.8,-270.54 2155.83,-281.92 2172.96,-293.24"/>
<text text-anchor="middle" x="2184.23" y="-265.21" font-family="sans-serif" font-size="12.00">Shared Kernel</text>
</g>
<!-- GestionPedidosContext -->
<g id="node8" class="node">
<title>GestionPedidosContext</title>
<polygon fill="none" stroke="black" stroke-width="2" points="2345.47,-30.27 2349.78,-27.63 2354.48,-25.07 2359.54,-22.58 2364.96,-20.18 2370.7,-17.87 2376.75,-15.68 2383.09,-13.6 2389.7,-11.64 2396.56,-9.81 2403.64,-8.13 2410.93,-6.59 2418.4,-5.2 2426.04,-3.96 2433.81,-2.88 2441.7,-1.97 2449.7,-1.22 2457.77,-0.63 2465.89,-0.21 2474.05,0.05 2482.23,0.14 2490.41,0.07 2498.56,-0.16 2506.67,-0.54 2514.73,-1.08 2522.7,-1.76 2530.58,-2.58 2538.35,-3.54 2545.99,-4.63 2553.49,-5.84 2560.83,-7.17 2567.99,-8.61 2574.96,-10.14 2581.73,-11.77 2588.27,-13.48 2594.59,-15.27 2600.66,-17.13 2606.47,-19.05 2612.01,-21.02 2617.26,-23.03 2622.22,-25.09 2626.87,-27.17 2631.21,-29.28 2635.21,-31.41 2638.87,-33.55 2642.18,-35.69 2645.14,-37.83 2647.72,-39.97 2649.93,-42.1 2651.75,-44.21 2653.18,-46.3 2654.21,-48.38 2654.83,-50.42 2655.04,-52.44 2654.84,-54.43 2654.22,-56.39 2653.17,-58.31 2651.7,-60.2 2649.81,-62.05 2647.49,-63.86 2644.75,-65.63 2641.6,-67.36 2638.02,-69.05 2634.03,-70.7 2629.65,-72.3 2624.86,-73.86 2619.69,-75.37 2614.13,-76.83 2608.22,-78.24 2601.95,-79.6 2595.35,-80.91 2588.43,-82.17 2581.2,-83.37 2573.69,-84.51 2565.92,-85.59 2557.9,-86.6 2549.66,-87.54 2541.23,-88.41 2532.62,-89.21 2523.87,-89.93 2514.99,-90.56 2506.03,-91.11 2497,-91.57 2487.93,-91.93 2478.85,-92.2 2469.8,-92.36 2460.79,-92.41 2451.87,-92.36 2443.05,-92.19 2434.37,-91.9 2425.86,-91.49 2417.55,-90.96 2409.45,-90.3 2401.6,-89.52 2394.03,-88.61 2386.76,-87.57 2379.81,-86.39 2373.21,-85.09 2366.98,-83.67 2361.13,-82.11 2355.7,-80.43 2350.68,-78.63 2346.1,-76.71 2341.97,-74.68 2338.31,-72.55 2335.12,-70.31 2332.41,-67.97 2330.2,-65.55 2328.47,-63.05 2327.24,-60.47 2326.5,-57.84 2326.27,-55.15 2326.52,-52.41 2327.27,-49.65 2328.49,-46.86 2330.19,-44.05 2332.36,-41.25 2334.99,-38.46 2338.05,-35.69 2341.55,-32.96 2345.47,-30.27"/>
<text text-anchor="middle" x="2494.23" y="-44.84" font-family="sans-serif" font-size="16.00">GestionPedidosContext</text>
</g>
<!-- GestionDevolucionesContext&#45;&gt;GestionPedidosContext -->
<g id="edge10" class="edge">
<title>GestionDevolucionesContext&#45;&gt;GestionPedidosContext</title>
<path fill="none" stroke="black" stroke-width="2" d="M2292.39,-146.91C2290.02,-135.8 2290.56,-124.52 2297.23,-115.28 2309.45,-98.32 2326.25,-85.67 2344.92,-76.26"/>
<text text-anchor="middle" x="2353.23" y="-118.68" font-family="sans-serif" font-size="12.00">Customer/Supplier</text>
<polygon fill="white" stroke="transparent" points="2337.92,-67.26 2337.92,-84.26 2351.92,-84.26 2351.92,-67.26 2337.92,-67.26"/>
<text text-anchor="start" x="2339.92" y="-72.66" font-family="sans-serif" font-size="12.00">D</text>
<polygon fill="white" stroke="transparent" points="2285.39,-137.91 2285.39,-154.91 2299.39,-154.91 2299.39,-137.91 2285.39,-137.91"/>
<text text-anchor="start" x="2287.39" y="-143.31" font-family="sans-serif" font-size="12.00">U</text>
</g>
<!-- GestionPedidosContext&#45;&gt;CarritoComprasContext -->
<g id="edge12" class="edge">
<title>GestionPedidosContext&#45;&gt;CarritoComprasContext</title>
<path fill="none" stroke="black" stroke-width="2" d="M2527.84,-89.61C2532.93,-97.66 2537.42,-106.39 2540.23,-115.28 2557.42,-169.76 2559.17,-190.28 2539.23,-243.81 2510.24,-321.63 2486.11,-338.35 2418.23,-386.19 2366.07,-422.95 2299.67,-446.01 2240.97,-460.35"/>
<text text-anchor="middle" x="2588.23" y="-265.21" font-family="sans-serif" font-size="12.00">Customer/Supplier</text>
<polygon fill="white" stroke="transparent" points="2233.97,-451.35 2233.97,-468.35 2247.97,-468.35 2247.97,-451.35 2233.97,-451.35"/>
<text text-anchor="start" x="2235.97" y="-456.75" font-family="sans-serif" font-size="12.00">D</text>
<polygon fill="white" stroke="transparent" points="2520.84,-80.61 2520.84,-97.61 2534.84,-97.61 2534.84,-80.61 2520.84,-80.61"/>
<text text-anchor="start" x="2522.84" y="-86.01" font-family="sans-serif" font-size="12.00">U</text>
</g>
<!-- GestionPedidosContext&#45;&gt;GestionDevolucionesContext -->
<g id="edge11" class="edge">
<title>GestionPedidosContext&#45;&gt;GestionDevolucionesContext</title>
<path fill="none" stroke="black" stroke-width="2" d="M2450.21,-92.4C2437.31,-104.37 2422.97,-117.14 2409.23,-128.28 2399.55,-136.13 2389,-144.09 2378.6,-151.64"/>
<text text-anchor="middle" x="2480.23" y="-118.68" font-family="sans-serif" font-size="12.00">Customer/Supplier</text>
<polygon fill="white" stroke="transparent" points="2371.6,-142.64 2371.6,-159.64 2385.6,-159.64 2385.6,-142.64 2371.6,-142.64"/>
<text text-anchor="start" x="2373.6" y="-148.04" font-family="sans-serif" font-size="12.00">D</text>
<polygon fill="white" stroke="transparent" points="2443.21,-83.4 2443.21,-100.4 2457.21,-100.4 2457.21,-83.4 2443.21,-83.4"/>
<text text-anchor="start" x="2445.21" y="-88.8" font-family="sans-serif" font-size="12.00">U</text>
</g>
<!-- GestionSesionesContext -->
<g id="node9" class="node">
<title>GestionSesionesContext</title>
<polygon fill="none" stroke="black" stroke-width="2" points="2703.29,-622.9 2705.45,-625.71 2707.13,-628.53 2708.33,-631.34 2709.03,-634.13 2709.25,-636.9 2708.96,-639.62 2708.17,-642.29 2706.88,-644.91 2705.08,-647.45 2702.79,-649.91 2700,-652.29 2696.72,-654.58 2692.97,-656.76 2688.74,-658.83 2684.06,-660.8 2678.93,-662.64 2673.36,-664.36 2667.39,-665.95 2661.02,-667.42 2654.27,-668.75 2647.17,-669.95 2639.73,-671.02 2631.99,-671.95 2623.96,-672.75 2615.67,-673.42 2607.15,-673.96 2598.42,-674.38 2589.52,-674.66 2580.47,-674.83 2571.3,-674.87 2562.04,-674.8 2552.72,-674.62 2543.37,-674.34 2534.02,-673.95 2524.7,-673.46 2515.43,-672.87 2506.25,-672.2 2497.18,-671.45 2488.26,-670.61 2479.5,-669.7 2470.94,-668.71 2462.59,-667.65 2454.49,-666.54 2446.65,-665.35 2439.1,-664.12 2431.85,-662.82 2424.93,-661.48 2418.35,-660.08 2412.13,-658.64 2406.29,-657.15 2400.83,-655.61 2395.78,-654.04 2391.13,-652.42 2386.91,-650.77 2383.11,-649.08 2379.74,-647.35 2376.82,-645.58 2374.34,-643.78 2372.3,-641.95 2370.72,-640.08 2369.58,-638.18 2368.88,-636.25 2368.63,-634.3 2368.82,-632.32 2369.45,-630.31 2370.51,-628.28 2371.99,-626.23 2373.89,-624.17 2376.21,-622.1 2378.92,-620.01 2382.03,-617.92 2385.52,-615.83 2389.39,-613.75 2393.62,-611.67 2398.19,-609.61 2403.11,-607.58 2408.35,-605.57 2413.9,-603.59 2419.75,-601.66 2425.89,-599.78 2432.3,-597.95 2438.96,-596.19 2445.87,-594.5 2453,-592.88 2460.34,-591.36 2467.87,-589.93 2475.58,-588.6 2483.45,-587.39 2491.46,-586.29 2499.6,-585.31 2507.85,-584.47 2516.18,-583.76 2524.58,-583.19 2533.03,-582.77 2541.52,-582.5 2550.01,-582.39 2558.5,-582.43 2566.95,-582.64 2575.36,-583.01 2583.7,-583.54 2591.94,-584.24 2600.07,-585.1 2608.06,-586.12 2615.9,-587.3 2623.56,-588.64 2631.03,-590.13 2638.27,-591.76 2645.27,-593.54 2652,-595.45 2658.46,-597.49 2664.61,-599.65 2670.44,-601.92 2675.92,-604.29 2681.05,-606.76 2685.79,-609.3 2690.14,-611.92 2694.08,-614.6 2697.6,-617.33 2700.67,-620.1 2703.29,-622.9"/>
<text text-anchor="middle" x="2536.23" y="-626.99" font-family="sans-serif" font-size="16.00">GestionSesionesContext</text>
</g>
<!-- IntegracionRedesSocialesContext -->
<g id="node10" class="node">
<title>IntegracionRedesSocialesContext</title>
<polygon fill="none" stroke="black" stroke-width="2" points="726.75,-588 740.93,-588.64 754.89,-589.39 768.55,-590.26 781.87,-591.23 794.79,-592.3 807.25,-593.48 819.22,-594.76 830.64,-596.13 841.47,-597.6 851.67,-599.15 861.21,-600.78 870.05,-602.48 878.16,-604.26 885.52,-606.11 892.11,-608.02 897.92,-609.99 902.92,-612.01 907.12,-614.07 910.51,-616.18 913.09,-618.32 914.87,-620.49 915.85,-622.69 916.05,-624.91 915.49,-627.13 914.17,-629.37 912.13,-631.61 909.39,-633.84 905.97,-636.07 901.9,-638.28 897.23,-640.47 891.97,-642.64 886.16,-644.77 879.84,-646.87 873.05,-648.92 865.81,-650.93 858.17,-652.89 850.16,-654.79 841.82,-656.63 833.18,-658.4 824.28,-660.1 815.14,-661.73 805.8,-663.27 796.3,-664.73 786.64,-666.11 776.88,-667.39 767.02,-668.58 757.09,-669.67 747.11,-670.66 737.1,-671.54 727.09,-672.32 717.07,-672.99 707.08,-673.54 697.11,-673.98 687.19,-674.31 677.32,-674.52 667.51,-674.61 657.77,-674.58 648.1,-674.43 638.51,-674.17 629.01,-673.78 619.61,-673.28 610.31,-672.65 601.11,-671.91 592.02,-671.06 583.06,-670.09 574.23,-669.02 565.53,-667.83 556.98,-666.54 548.6,-665.14 540.38,-663.65 532.36,-662.06 524.54,-660.38 516.94,-658.61 509.57,-656.77 502.47,-654.84 495.65,-652.85 489.14,-650.79 482.95,-648.66 477.11,-646.49 471.66,-644.27 466.61,-642.01 461.99,-639.71 457.84,-637.38 454.17,-635.04 451.02,-632.68 448.41,-630.31 446.38,-627.94 444.93,-625.58 444.11,-623.23 443.92,-620.91 444.4,-618.61 445.56,-616.35 447.41,-614.13 449.97,-611.95 453.25,-609.83 457.26,-607.78 461.99,-605.79 467.46,-603.87 473.66,-602.03 480.57,-600.27 488.2,-598.6 496.52,-597.03 505.52,-595.55 515.17,-594.18 525.45,-592.91 536.33,-591.75 547.77,-590.7 559.73,-589.77 572.18,-588.95 585.07,-588.25 598.36,-587.68 611.99,-587.22 625.9,-586.89 640.06,-586.69 654.4,-586.6 668.86,-586.64 683.38,-586.8 697.91,-587.08 712.39,-587.48 726.75,-588"/>
<text text-anchor="middle" x="674.23" y="-626.99" font-family="sans-serif" font-size="16.00">IntegracionRedesSocialesContext</text>
</g>
<!-- IntegracionRedesSocialesContext&#45;&gt;VentasContext -->
<g id="edge13" class="edge">
<title>IntegracionRedesSocialesContext&#45;&gt;VentasContext</title>
<path fill="none" stroke="black" stroke-width="2" d="M748.54,-588.89C786.36,-568.08 832.02,-542.95 868.95,-522.62"/>
<text text-anchor="middle" x="848.73" y="-554.31" font-family="sans-serif" font-size="12.00">Partnership</text>
</g>
<!-- NotificacionesComunicacionesContext -->
<g id="node11" class="node">
<title>NotificacionesComunicacionesContext</title>
<polygon fill="none" stroke="black" stroke-width="2" points="1171.28,-674.29 1155.02,-674 1138.93,-673.59 1123.1,-673.07 1107.57,-672.43 1092.41,-671.68 1077.69,-670.81 1063.46,-669.84 1049.77,-668.75 1036.68,-667.57 1024.23,-666.29 1012.46,-664.9 1001.42,-663.43 991.14,-661.87 981.65,-660.22 972.97,-658.49 965.14,-656.69 958.16,-654.82 952.04,-652.88 946.8,-650.88 942.44,-648.83 938.95,-646.72 936.33,-644.58 934.58,-642.4 933.67,-640.18 933.59,-637.94 934.31,-635.69 935.83,-633.41 938.1,-631.13 941.1,-628.85 944.8,-626.58 949.17,-624.32 954.16,-622.07 959.76,-619.85 965.91,-617.66 972.59,-615.5 979.76,-613.39 987.37,-611.32 995.41,-609.3 1003.81,-607.35 1012.57,-605.45 1021.63,-603.63 1030.98,-601.88 1040.57,-600.21 1050.38,-598.62 1060.39,-597.12 1070.56,-595.71 1080.88,-594.39 1091.33,-593.18 1101.88,-592.07 1112.51,-591.06 1123.22,-590.16 1133.98,-589.37 1144.79,-588.7 1155.63,-588.14 1166.5,-587.7 1177.38,-587.37 1188.26,-587.17 1199.15,-587.08 1210.02,-587.11 1220.88,-587.27 1231.72,-587.54 1242.53,-587.93 1253.3,-588.44 1264.02,-589.06 1274.69,-589.8 1285.29,-590.66 1295.81,-591.62 1306.24,-592.69 1316.56,-593.87 1326.76,-595.14 1336.81,-596.52 1346.69,-597.99 1356.4,-599.55 1365.89,-601.2 1375.14,-602.93 1384.13,-604.74 1392.82,-606.61 1401.2,-608.56 1409.21,-610.57 1416.83,-612.63 1424.03,-614.74 1430.77,-616.9 1437.02,-619.1 1442.73,-621.32 1447.88,-623.58 1452.43,-625.85 1456.34,-628.14 1459.58,-630.44 1462.13,-632.74 1463.94,-635.03 1465,-637.31 1465.28,-639.57 1464.75,-641.81 1463.4,-644.01 1461.21,-646.18 1458.17,-648.31 1454.26,-650.39 1449.49,-652.41 1443.86,-654.38 1437.36,-656.28 1430.01,-658.11 1421.82,-659.86 1412.81,-661.54 1402.99,-663.12 1392.41,-664.62 1381.08,-666.03 1369.04,-667.34 1356.34,-668.55 1343.02,-669.65 1329.13,-670.65 1314.71,-671.53 1299.82,-672.31 1284.53,-672.97 1268.88,-673.51 1252.95,-673.94 1236.79,-674.25 1220.48,-674.44 1204.08,-674.51 1187.66,-674.46 1171.28,-674.29"/>
<text text-anchor="middle" x="1200.23" y="-626.99" font-family="sans-serif" font-size="16.00">NotificacionesComunicacionesContext</text>
</g>
<!-- NotificacionesComunicacionesContext&#45;&gt;VentasContext -->
<g id="edge14" class="edge">
<title>NotificacionesComunicacionesContext&#45;&gt;VentasContext</title>
<path fill="none" stroke="black" stroke-width="2" d="M1127.32,-589.66C1087.18,-567.58 1037.9,-540.45 999.57,-519.36"/>
<text text-anchor="middle" x="1111.73" y="-554.31" font-family="sans-serif" font-size="12.00">Partnership</text>
</g>
<!-- ProcesoPagosContext -->
<g id="node12" class="node">
<title>ProcesoPagosContext</title>
<polygon fill="none" stroke="black" stroke-width="2" points="2597.54,-207.36 2594.59,-204.63 2592.06,-201.89 2589.96,-199.13 2588.31,-196.39 2587.11,-193.65 2586.38,-190.95 2586.11,-188.28 2586.32,-185.66 2587,-183.09 2588.16,-180.58 2589.79,-178.15 2591.89,-175.8 2594.45,-173.54 2597.48,-171.37 2600.96,-169.3 2604.89,-167.33 2609.24,-165.48 2614.01,-163.74 2619.18,-162.12 2624.73,-160.62 2630.65,-159.23 2636.92,-157.98 2643.51,-156.84 2650.41,-155.83 2657.59,-154.95 2665.02,-154.18 2672.68,-153.54 2680.54,-153.02 2688.59,-152.61 2696.78,-152.32 2705.09,-152.14 2713.5,-152.06 2721.98,-152.1 2730.49,-152.23 2739.02,-152.47 2747.52,-152.79 2755.99,-153.21 2764.38,-153.72 2772.67,-154.31 2780.84,-154.98 2788.87,-155.72 2796.73,-156.54 2804.39,-157.43 2811.83,-158.39 2819.05,-159.42 2826,-160.5 2832.69,-161.65 2839.09,-162.86 2845.18,-164.12 2850.95,-165.44 2856.4,-166.81 2861.5,-168.23 2866.24,-169.71 2870.63,-171.24 2874.64,-172.81 2878.29,-174.43 2881.55,-176.1 2884.42,-177.82 2886.91,-179.58 2889.01,-181.39 2890.73,-183.24 2892.05,-185.13 2892.99,-187.06 2893.54,-189.03 2893.71,-191.04 2893.5,-193.07 2892.91,-195.14 2891.96,-197.24 2890.65,-199.36 2888.97,-201.49 2886.95,-203.65 2884.59,-205.81 2881.89,-207.98 2878.86,-210.15 2875.51,-212.31 2871.85,-214.47 2867.89,-216.6 2863.64,-218.7 2859.1,-220.77 2854.29,-222.81 2849.22,-224.79 2843.9,-226.71 2838.33,-228.57 2832.54,-230.36 2826.52,-232.07 2820.3,-233.69 2813.88,-235.21 2807.28,-236.63 2800.5,-237.93 2793.57,-239.12 2786.5,-240.18 2779.3,-241.11 2771.98,-241.9 2764.57,-242.54 2757.07,-243.03 2749.51,-243.37 2741.9,-243.56 2734.25,-243.58 2726.59,-243.44 2718.94,-243.14 2711.3,-242.67 2703.71,-242.03 2696.18,-241.24 2688.73,-240.28 2681.39,-239.16 2674.17,-237.89 2667.09,-236.46 2660.18,-234.89 2653.45,-233.18 2646.93,-231.33 2640.64,-229.36 2634.59,-227.26 2628.82,-225.06 2623.33,-222.76 2618.16,-220.36 2613.31,-217.88 2608.81,-215.33 2604.67,-212.72 2600.91,-210.06 2597.54,-207.36"/>
<text text-anchor="middle" x="2744.23" y="-191.25" font-family="sans-serif" font-size="16.00">ProcesoPagosContext</text>
</g>
<!-- ProcesoPagosContext&#45;&gt;GestionPedidosContext -->
<g id="edge15" class="edge">
<title>ProcesoPagosContext&#45;&gt;GestionPedidosContext</title>
<path fill="none" stroke="black" stroke-width="2" d="M2673.92,-153.44C2637.67,-132.5 2593.78,-107.14 2558.45,-86.74"/>
<text text-anchor="middle" x="2682.23" y="-118.68" font-family="sans-serif" font-size="12.00">Customer/Supplier</text>
<polygon fill="white" stroke="transparent" points="2551.45,-77.74 2551.45,-94.74 2565.45,-94.74 2565.45,-77.74 2551.45,-77.74"/>
<text text-anchor="start" x="2553.45" y="-83.14" font-family="sans-serif" font-size="12.00">D</text>
<polygon fill="white" stroke="transparent" points="2666.92,-144.44 2666.92,-161.44 2680.92,-161.44 2680.92,-144.44 2666.92,-144.44"/>
<text text-anchor="start" x="2668.92" y="-149.84" font-family="sans-serif" font-size="12.00">U</text>
</g>
<!-- SeguridadContext -->
<g id="node13" class="node">
<title>SeguridadContext</title>
<polygon fill="none" stroke="black" stroke-width="2" points="2983.11,-654.43 2978.45,-656.87 2973.51,-659.22 2968.3,-661.48 2962.85,-663.65 2957.17,-665.7 2951.28,-667.64 2945.2,-669.45 2938.95,-671.13 2932.56,-672.68 2926.05,-674.07 2919.42,-675.32 2912.72,-676.41 2905.94,-677.34 2899.12,-678.11 2892.27,-678.72 2885.41,-679.16 2878.55,-679.44 2871.72,-679.55 2864.94,-679.5 2858.2,-679.29 2851.54,-678.92 2844.97,-678.39 2838.5,-677.71 2832.13,-676.88 2825.9,-675.91 2819.8,-674.8 2813.86,-673.57 2808.07,-672.21 2802.45,-670.74 2797.01,-669.16 2791.77,-667.48 2786.72,-665.71 2781.88,-663.85 2777.25,-661.92 2772.85,-659.92 2768.67,-657.87 2764.74,-655.76 2761.05,-653.61 2757.61,-651.43 2754.43,-649.22 2751.51,-646.99 2748.87,-644.75 2746.5,-642.51 2744.42,-640.27 2742.62,-638.03 2741.12,-635.81 2739.92,-633.61 2739.02,-631.43 2738.43,-629.29 2738.16,-627.17 2738.2,-625.09 2738.57,-623.05 2739.26,-621.05 2740.27,-619.1 2741.62,-617.2 2743.3,-615.34 2745.3,-613.54 2747.64,-611.78 2750.31,-610.09 2753.31,-608.44 2756.63,-606.86 2760.28,-605.33 2764.25,-603.85 2768.52,-602.44 2773.1,-601.09 2777.98,-599.79 2783.15,-598.56 2788.59,-597.39 2794.3,-596.28 2800.27,-595.23 2806.47,-594.25 2812.89,-593.34 2819.53,-592.5 2826.35,-591.73 2833.34,-591.03 2840.48,-590.41 2847.76,-589.86 2855.14,-589.4 2862.61,-589.02 2870.14,-588.72 2877.71,-588.51 2885.3,-588.4 2892.88,-588.38 2900.42,-588.46 2907.89,-588.64 2915.29,-588.92 2922.56,-589.31 2929.71,-589.8 2936.68,-590.41 2943.48,-591.13 2950.05,-591.96 2956.4,-592.91 2962.48,-593.98 2968.29,-595.16 2973.79,-596.45 2978.98,-597.87 2983.82,-599.39 2988.31,-601.03 2992.43,-602.78 2996.17,-604.64 2999.5,-606.6 3002.43,-608.66 3004.94,-610.81 3007.03,-613.05 3008.68,-615.38 3009.9,-617.78 3010.68,-620.25 3011.02,-622.78 3010.93,-625.36 3010.4,-627.98 3009.45,-630.64 3008.07,-633.33 3006.28,-636.02 3004.09,-638.73 3001.5,-641.42 2998.52,-644.1 2995.19,-646.75 2991.49,-649.36 2987.46,-651.93 2983.11,-654.43"/>
<text text-anchor="middle" x="2869.23" y="-626.99" font-family="sans-serif" font-size="16.00">SeguridadContext</text>
</g>
<!-- ServicioClienteContext -->
<g id="node14" class="node">
<title>ServicioClienteContext</title>
<polygon fill="none" stroke="black" stroke-width="2" points="1547.21,-599.38 1554.65,-597.34 1562.36,-595.4 1570.3,-593.57 1578.45,-591.86 1586.78,-590.27 1595.25,-588.8 1603.83,-587.48 1612.49,-586.29 1621.22,-585.25 1629.96,-584.37 1638.71,-583.63 1647.43,-583.06 1656.09,-582.64 1664.68,-582.38 1673.16,-582.29 1681.52,-582.36 1689.73,-582.59 1697.78,-582.98 1705.64,-583.53 1713.31,-584.23 1720.75,-585.08 1727.97,-586.08 1734.95,-587.21 1741.67,-588.49 1748.12,-589.89 1754.31,-591.41 1760.21,-593.06 1765.82,-594.8 1771.14,-596.65 1776.16,-598.59 1780.88,-600.62 1785.29,-602.72 1789.39,-604.88 1793.18,-607.11 1796.65,-609.38 1799.8,-611.69 1802.64,-614.04 1805.15,-616.41 1807.35,-618.79 1809.22,-621.18 1810.76,-623.57 1811.99,-625.95 1812.88,-628.31 1813.45,-630.65 1813.69,-632.97 1813.59,-635.25 1813.17,-637.48 1812.4,-639.68 1811.31,-641.82 1809.87,-643.9 1808.09,-645.93 1805.98,-647.9 1803.52,-649.8 1800.71,-651.63 1797.56,-653.39 1794.07,-655.08 1790.24,-656.7 1786.06,-658.24 1781.54,-659.7 1776.69,-661.09 1771.5,-662.39 1765.98,-663.62 1760.14,-664.77 1753.99,-665.84 1747.53,-666.83 1740.77,-667.74 1733.73,-668.56 1726.42,-669.31 1718.85,-669.98 1711.04,-670.56 1703,-671.06 1694.76,-671.48 1686.34,-671.82 1677.76,-672.08 1669.03,-672.25 1660.2,-672.33 1651.27,-672.34 1642.29,-672.25 1633.27,-672.08 1624.25,-671.81 1615.27,-671.46 1606.34,-671.02 1597.5,-670.49 1588.78,-669.86 1580.22,-669.14 1571.84,-668.32 1563.69,-667.41 1555.78,-666.4 1548.16,-665.3 1540.85,-664.1 1533.88,-662.81 1527.28,-661.42 1521.07,-659.93 1515.29,-658.36 1509.96,-656.69 1505.09,-654.93 1500.71,-653.08 1496.84,-651.15 1493.5,-649.14 1490.69,-647.06 1488.43,-644.9 1486.73,-642.67 1485.59,-640.39 1485.03,-638.05 1485.03,-635.65 1485.6,-633.22 1486.74,-630.75 1488.44,-628.26 1490.69,-625.74 1493.48,-623.22 1496.8,-620.69 1500.63,-618.17 1504.95,-615.67 1509.75,-613.19 1515,-610.74 1520.69,-608.34 1526.77,-606 1533.24,-603.72 1540.06,-601.51 1547.21,-599.38"/>
<text text-anchor="middle" x="1660.23" y="-626.99" font-family="sans-serif" font-size="16.00">ServicioClienteContext</text>
</g>
<!-- ServicioClienteContext&#45;&gt;VentasContext -->
<g id="edge16" class="edge">
<title>ServicioClienteContext&#45;&gt;VentasContext</title>
<path fill="none" stroke="black" stroke-width="2" d="M1547.68,-599.04C1524.15,-593.03 1499.44,-587.01 1476.23,-581.91 1326.26,-548.97 1150.99,-519.04 1042.04,-501.44"/>
<text text-anchor="middle" x="1423.73" y="-554.31" font-family="sans-serif" font-size="12.00">Partnership</text>
</g>
</g>
</svg>
