<svg width="2000px" height="532px"
 viewBox="0.00 0.00 3094.99 822.53" xmlns="http://www.w3.org/2000/svg" xmlns:xlink="http://www.w3.org/1999/xlink">
<g id="graph0" class="graph" transform="scale(1.0 1.0) rotate(0) translate(4 818.53)">
<title>ContextMapGraph</title>
<polygon fill="white" stroke="transparent" points="-4,4 -4,-818.53 3090.99,-818.53 3090.99,4 -4,4"/>
<!-- AnaliticasReportingContext -->
<g id="node1" class="node">
<title>AnaliticasReportingContext</title>
<polygon fill="none" stroke="black" stroke-width="2" points="361.04,-742.92 367.55,-745.36 373.58,-747.85 379.1,-750.37 384.09,-752.92 388.53,-755.49 392.39,-758.07 395.66,-760.65 398.32,-763.22 400.36,-765.78 401.76,-768.3 402.53,-770.79 402.65,-773.24 402.12,-775.63 400.94,-777.97 399.12,-780.25 396.66,-782.45 393.57,-784.58 389.86,-786.63 385.55,-788.6 380.65,-790.48 375.19,-792.26 369.17,-793.96 362.64,-795.55 355.61,-797.05 348.12,-798.45 340.18,-799.75 331.84,-800.95 323.13,-802.04 314.08,-803.04 304.73,-803.94 295.1,-804.73 285.25,-805.43 275.2,-806.03 264.99,-806.54 254.67,-806.94 244.25,-807.26 233.79,-807.48 223.32,-807.62 212.87,-807.66 202.47,-807.62 192.17,-807.49 181.98,-807.28 171.94,-806.99 162.08,-806.61 152.43,-806.15 143.01,-805.61 133.84,-804.99 124.95,-804.29 116.35,-803.52 108.07,-802.67 100.13,-801.74 92.53,-800.73 85.28,-799.65 78.41,-798.49 71.93,-797.25 65.83,-795.94 60.13,-794.56 54.83,-793.1 49.94,-791.57 45.46,-789.97 41.39,-788.3 37.73,-786.55 34.49,-784.74 31.66,-782.87 29.24,-780.93 27.23,-778.93 25.63,-776.87 24.44,-774.76 23.64,-772.59 23.25,-770.39 23.26,-768.14 23.66,-765.85 24.45,-763.54 25.62,-761.2 27.19,-758.84 29.13,-756.48 31.45,-754.11 34.14,-751.74 37.2,-749.38 40.64,-747.04 44.43,-744.73 48.59,-742.46 53.11,-740.23 57.97,-738.06 63.19,-735.95 68.75,-733.91 74.65,-731.94 80.88,-730.07 87.44,-728.29 94.31,-726.62 101.49,-725.06 108.97,-723.62 116.74,-722.31 124.79,-721.13 133.1,-720.09 141.66,-719.19 150.45,-718.44 159.46,-717.85 168.66,-717.42 178.04,-717.14 187.58,-717.03 197.25,-717.08 207.02,-717.29 216.88,-717.67 226.8,-718.21 236.74,-718.91 246.68,-719.77 256.58,-720.79 266.42,-721.95 276.17,-723.26 285.79,-724.72 295.24,-726.3 304.5,-728.02 313.53,-729.85 322.3,-731.8 330.77,-733.85 338.91,-736 346.69,-738.23 354.08,-740.54 361.04,-742.92"/>
<text text-anchor="middle" x="201.38" y="-762.06" font-family="sans-serif" font-size="16.00">AnaliticasReportingContext</text>
</g>
<!-- VentasContext -->
<g id="node2" class="node">
<title>VentasContext</title>
<polygon fill="none" stroke="black" stroke-width="2" points="881.81,-659.65 875.29,-658.23 868.98,-656.71 862.9,-655.1 857.06,-653.42 851.51,-651.65 846.26,-649.81 841.32,-647.91 836.73,-645.95 832.5,-643.94 828.65,-641.88 825.19,-639.78 822.13,-637.65 819.48,-635.49 817.26,-633.32 815.47,-631.12 814.1,-628.92 813.17,-626.71 812.67,-624.51 812.61,-622.31 812.97,-620.13 813.75,-617.96 814.94,-615.82 816.53,-613.7 818.51,-611.61 820.87,-609.56 823.58,-607.56 826.64,-605.59 830.03,-603.67 833.72,-601.8 837.7,-599.99 841.95,-598.24 846.44,-596.54 851.16,-594.91 856.09,-593.35 861.19,-591.85 866.45,-590.43 871.86,-589.09 877.38,-587.82 882.99,-586.63 888.69,-585.53 894.44,-584.51 900.23,-583.57 906.04,-582.73 911.85,-581.98 917.65,-581.32 923.42,-580.76 929.16,-580.29 934.83,-579.93 940.45,-579.66 945.98,-579.5 951.43,-579.44 956.79,-579.49 962.05,-579.64 967.19,-579.9 972.22,-580.27 977.14,-580.75 981.92,-581.33 986.58,-582.03 991.11,-582.83 995.5,-583.74 999.76,-584.76 1003.88,-585.89 1007.85,-587.12 1011.69,-588.45 1015.37,-589.89 1018.91,-591.42 1022.3,-593.05 1025.53,-594.77 1028.6,-596.57 1031.52,-598.47 1034.27,-600.44 1036.85,-602.48 1039.25,-604.6 1041.47,-606.78 1043.51,-609.01 1045.35,-611.3 1047,-613.63 1048.43,-616.01 1049.65,-618.41 1050.65,-620.83 1051.42,-623.27 1051.94,-625.72 1052.22,-628.17 1052.24,-630.61 1051.99,-633.03 1051.47,-635.43 1050.67,-637.8 1049.58,-640.13 1048.2,-642.41 1046.51,-644.63 1044.52,-646.78 1042.23,-648.87 1039.62,-650.87 1036.7,-652.79 1033.46,-654.61 1029.91,-656.34 1026.05,-657.96 1021.89,-659.47 1017.43,-660.86 1012.68,-662.13 1007.64,-663.28 1002.33,-664.3 996.76,-665.18 990.95,-665.94 984.91,-666.55 978.65,-667.03 972.21,-667.37 965.59,-667.57 958.82,-667.63 951.93,-667.55 944.93,-667.33 937.86,-666.98 930.74,-666.5 923.59,-665.88 916.45,-665.14 909.34,-664.27 902.29,-663.28 895.34,-662.18 888.5,-660.97 881.81,-659.65"/>
<text text-anchor="middle" x="940.38" y="-618.2" font-family="sans-serif" font-size="16.00">VentasContext</text>
</g>
<!-- AnaliticasReportingContext&#45;&gt;VentasContext -->
<g id="edge1" class="edge">
<title>AnaliticasReportingContext&#45;&gt;VentasContext</title>
<path fill="none" stroke="black" stroke-width="2" d="M332.24,-734.16C358.41,-728.3 385.73,-722.39 411.38,-717.2 554.59,-688.21 720.58,-659.43 827.87,-641.46"/>
<text text-anchor="middle" x="605.88" y="-689.6" font-family="sans-serif" font-size="12.00">Partnership</text>
</g>
<!-- AutenticacionAutorizacionContext -->
<g id="node3" class="node">
<title>AutenticacionAutorizacionContext</title>
<polygon fill="none" stroke="black" stroke-width="2" points="2304.21,-737.93 2313.75,-740.13 2322.74,-742.39 2331.16,-744.71 2338.96,-747.07 2346.11,-749.47 2352.57,-751.9 2358.33,-754.34 2363.35,-756.8 2367.61,-759.25 2371.1,-761.71 2373.79,-764.14 2375.68,-766.56 2376.76,-768.95 2377.02,-771.3 2376.46,-773.61 2375.09,-775.87 2372.91,-778.08 2369.93,-780.23 2366.17,-782.32 2361.65,-784.34 2356.38,-786.28 2350.38,-788.15 2343.7,-789.95 2336.35,-791.66 2328.37,-793.29 2319.8,-794.84 2310.67,-796.29 2301.02,-797.67 2290.89,-798.95 2280.32,-800.14 2269.37,-801.24 2258.07,-802.26 2246.46,-803.18 2234.6,-804.01 2222.52,-804.76 2210.28,-805.41 2197.91,-805.98 2185.46,-806.45 2172.98,-806.84 2160.5,-807.14 2148.06,-807.35 2135.71,-807.47 2123.48,-807.51 2111.4,-807.46 2099.51,-807.32 2087.84,-807.1 2076.42,-806.78 2065.28,-806.39 2054.43,-805.9 2043.91,-805.33 2033.72,-804.67 2023.9,-803.92 2014.46,-803.09 2005.4,-802.17 1996.75,-801.16 1988.52,-800.07 1980.7,-798.88 1973.31,-797.62 1966.36,-796.26 1959.85,-794.82 1953.78,-793.3 1948.16,-791.7 1942.98,-790.01 1938.25,-788.25 1933.97,-786.41 1930.14,-784.49 1926.76,-782.51 1923.82,-780.46 1921.33,-778.35 1919.28,-776.18 1917.69,-773.95 1916.53,-771.68 1915.83,-769.37 1915.57,-767.01 1915.75,-764.63 1916.39,-762.22 1917.47,-759.8 1919.01,-757.37 1921,-754.94 1923.44,-752.52 1926.34,-750.11 1929.7,-747.72 1933.51,-745.37 1937.79,-743.06 1942.53,-740.8 1947.73,-738.6 1953.4,-736.46 1959.52,-734.41 1966.11,-732.43 1973.14,-730.55 1980.63,-728.77 1988.56,-727.1 1996.93,-725.55 2005.72,-724.12 2014.93,-722.82 2024.54,-721.65 2034.54,-720.62 2044.9,-719.74 2055.61,-719.01 2066.65,-718.43 2077.99,-718 2089.61,-717.74 2101.47,-717.63 2113.54,-717.68 2125.8,-717.89 2138.21,-718.26 2150.73,-718.78 2163.31,-719.46 2175.93,-720.29 2188.54,-721.27 2201.09,-722.39 2213.55,-723.65 2225.86,-725.04 2237.99,-726.56 2249.88,-728.2 2261.48,-729.95 2272.77,-731.81 2283.68,-733.76 2294.18,-735.81 2304.21,-737.93"/>
<text text-anchor="middle" x="2129.38" y="-762.06" font-family="sans-serif" font-size="16.00">AutenticacionAutorizacionContext</text>
</g>
<!-- CarritoComprasContext -->
<g id="node4" class="node">
<title>CarritoComprasContext</title>
<polygon fill="none" stroke="black" stroke-width="2" points="2037.51,-658.73 2028.4,-657.17 2019.61,-655.52 2011.16,-653.78 2003.09,-651.96 1995.43,-650.07 1988.23,-648.12 1981.5,-646.1 1975.27,-644.04 1969.58,-641.92 1964.43,-639.77 1959.86,-637.59 1955.87,-635.38 1952.49,-633.16 1949.72,-630.92 1947.56,-628.67 1946.04,-626.43 1945.13,-624.19 1944.86,-621.96 1945.2,-619.75 1946.15,-617.55 1947.7,-615.39 1949.84,-613.25 1952.56,-611.15 1955.83,-609.09 1959.63,-607.08 1963.94,-605.11 1968.74,-603.19 1974,-601.33 1979.69,-599.52 1985.78,-597.77 1992.25,-596.09 1999.07,-594.48 2006.19,-592.93 2013.59,-591.46 2021.24,-590.05 2029.11,-588.73 2037.16,-587.48 2045.37,-586.32 2053.7,-585.23 2062.12,-584.23 2070.61,-583.32 2079.14,-582.5 2087.68,-581.77 2096.2,-581.13 2104.69,-580.58 2113.12,-580.13 2121.48,-579.78 2129.73,-579.52 2137.87,-579.37 2145.88,-579.32 2153.75,-579.37 2161.46,-579.52 2169,-579.78 2176.37,-580.15 2183.54,-580.62 2190.53,-581.2 2197.31,-581.89 2203.89,-582.68 2210.25,-583.58 2216.4,-584.59 2222.33,-585.7 2228.04,-586.91 2233.53,-588.23 2238.79,-589.65 2243.81,-591.17 2248.61,-592.79 2253.17,-594.49 2257.48,-596.29 2261.56,-598.17 2265.38,-600.13 2268.95,-602.17 2272.26,-604.29 2275.3,-606.46 2278.08,-608.7 2280.57,-611 2282.77,-613.34 2284.68,-615.72 2286.28,-618.13 2287.56,-620.58 2288.51,-623.04 2289.13,-625.51 2289.4,-627.99 2289.32,-630.46 2288.86,-632.92 2288.02,-635.35 2286.8,-637.76 2285.18,-640.13 2283.14,-642.45 2280.7,-644.71 2277.83,-646.92 2274.54,-649.05 2270.81,-651.1 2266.66,-653.06 2262.07,-654.94 2257.04,-656.71 2251.59,-658.38 2245.71,-659.93 2239.41,-661.37 2232.7,-662.68 2225.6,-663.86 2218.11,-664.92 2210.26,-665.84 2202.06,-666.62 2193.54,-667.26 2184.71,-667.76 2175.6,-668.11 2166.24,-668.32 2156.67,-668.39 2146.9,-668.31 2136.98,-668.1 2126.95,-667.74 2116.82,-667.24 2106.65,-666.61 2096.48,-665.85 2086.34,-664.96 2076.27,-663.94 2066.31,-662.8 2056.5,-661.55 2046.89,-660.19 2037.51,-658.73"/>
<text text-anchor="middle" x="2129.38" y="-618.2" font-family="sans-serif" font-size="16.00">CarritoComprasContext</text>
</g>
<!-- AutenticacionAutorizacionContext&#45;&gt;CarritoComprasContext -->
<g id="edge2" class="edge">
<title>AutenticacionAutorizacionContext&#45;&gt;CarritoComprasContext</title>
<path fill="none" stroke="black" stroke-width="2" d="M2129.38,-717.62C2129.38,-701.67 2129.38,-683.9 2129.38,-668.11"/>
<text text-anchor="middle" x="2185.38" y="-689.6" font-family="sans-serif" font-size="12.00">Customer/Supplier</text>
<polygon fill="white" stroke="transparent" points="2122.38,-659.11 2122.38,-676.11 2136.38,-676.11 2136.38,-659.11 2122.38,-659.11"/>
<text text-anchor="start" x="2124.38" y="-664.51" font-family="sans-serif" font-size="12.00">D</text>
<polygon fill="white" stroke="transparent" points="2122.38,-708.62 2122.38,-725.62 2136.38,-725.62 2136.38,-708.62 2122.38,-708.62"/>
<text text-anchor="start" x="2124.38" y="-714.02" font-family="sans-serif" font-size="12.00">U</text>
</g>
<!-- GestionClientesContext -->
<g id="node5" class="node">
<title>GestionClientesContext</title>
<polygon fill="none" stroke="black" stroke-width="2" points="1993.83,-443.35 2003.23,-444.77 2012.33,-446.29 2021.11,-447.89 2029.52,-449.58 2037.52,-451.35 2045.1,-453.18 2052.21,-455.09 2058.83,-457.05 2064.93,-459.06 2070.48,-461.12 2075.47,-463.21 2079.88,-465.34 2083.7,-467.5 2086.9,-469.68 2089.49,-471.88 2091.46,-474.08 2092.8,-476.28 2093.52,-478.49 2093.61,-480.69 2093.09,-482.87 2091.97,-485.04 2090.25,-487.18 2087.96,-489.3 2085.1,-491.38 2081.7,-493.43 2077.79,-495.44 2073.37,-497.41 2068.49,-499.33 2063.17,-501.19 2057.43,-503.01 2051.31,-504.76 2044.83,-506.46 2038.02,-508.09 2030.92,-509.65 2023.57,-511.14 2015.98,-512.56 2008.19,-513.91 2000.23,-515.18 1992.13,-516.36 1983.92,-517.47 1975.63,-518.49 1967.28,-519.42 1958.91,-520.27 1950.52,-521.02 1942.16,-521.68 1933.84,-522.24 1925.57,-522.71 1917.38,-523.07 1909.29,-523.34 1901.31,-523.5 1893.45,-523.56 1885.72,-523.51 1878.15,-523.36 1870.73,-523.1 1863.47,-522.73 1856.39,-522.25 1849.49,-521.66 1842.77,-520.97 1836.24,-520.16 1829.91,-519.25 1823.77,-518.23 1817.83,-517.11 1812.1,-515.88 1806.57,-514.54 1801.26,-513.11 1796.16,-511.58 1791.28,-509.95 1786.62,-508.23 1782.18,-506.42 1777.98,-504.53 1774.02,-502.56 1770.3,-500.51 1766.83,-498.4 1763.63,-496.22 1760.69,-493.98 1758.03,-491.7 1755.66,-489.36 1753.59,-486.99 1751.83,-484.59 1750.39,-482.16 1749.29,-479.72 1748.53,-477.28 1748.14,-474.83 1748.11,-472.39 1748.46,-469.96 1749.21,-467.56 1750.37,-465.2 1751.94,-462.87 1753.93,-460.59 1756.36,-458.37 1759.23,-456.21 1762.54,-454.13 1766.3,-452.13 1770.52,-450.21 1775.18,-448.38 1780.3,-446.66 1785.86,-445.04 1791.86,-443.53 1798.29,-442.14 1805.15,-440.86 1812.41,-439.72 1820.07,-438.7 1828.09,-437.81 1836.47,-437.06 1845.19,-436.44 1854.2,-435.97 1863.5,-435.63 1873.04,-435.43 1882.8,-435.37 1892.74,-435.45 1902.83,-435.66 1913.02,-436.02 1923.29,-436.5 1933.6,-437.12 1943.89,-437.86 1954.14,-438.73 1964.3,-439.71 1974.33,-440.82 1984.19,-442.03 1993.83,-443.35"/>
<text text-anchor="middle" x="1909.38" y="-477.2" font-family="sans-serif" font-size="16.00">GestionClientesContext</text>
</g>
<!-- CarritoComprasContext&#45;&gt;GestionClientesContext -->
<g id="edge3" class="edge">
<title>CarritoComprasContext&#45;&gt;GestionClientesContext</title>
<path fill="none" stroke="black" stroke-width="2" d="M1976.69,-600.41C1928.16,-590.53 1883.19,-576.63 1868.38,-557.81 1860.15,-547.34 1862.59,-534.99 1869.29,-523.33"/>
<text text-anchor="middle" x="1924.38" y="-548.21" font-family="sans-serif" font-size="12.00">Customer/Supplier</text>
<polygon fill="white" stroke="transparent" points="1862.29,-514.33 1862.29,-531.33 1876.29,-531.33 1876.29,-514.33 1862.29,-514.33"/>
<text text-anchor="start" x="1864.29" y="-519.73" font-family="sans-serif" font-size="12.00">D</text>
<polygon fill="white" stroke="transparent" points="1969.69,-591.41 1969.69,-608.41 1983.69,-608.41 1983.69,-591.41 1969.69,-591.41"/>
<text text-anchor="start" x="1971.69" y="-596.81" font-family="sans-serif" font-size="12.00">U</text>
</g>
<!-- GestionProductosContext -->
<g id="node6" class="node">
<title>GestionProductosContext</title>
<polygon fill="none" stroke="black" stroke-width="2" points="1954.28,-341.58 1953.24,-338.73 1952.69,-335.88 1952.63,-333.06 1953.07,-330.26 1954.01,-327.51 1955.44,-324.81 1957.37,-322.18 1959.79,-319.61 1962.7,-317.13 1966.09,-314.74 1969.95,-312.46 1974.28,-310.27 1979.06,-308.2 1984.27,-306.26 1989.91,-304.43 1995.96,-302.74 2002.39,-301.18 2009.21,-299.76 2016.37,-298.47 2023.87,-297.33 2031.67,-296.33 2039.77,-295.47 2048.12,-294.75 2056.71,-294.17 2065.52,-293.73 2074.5,-293.42 2083.65,-293.25 2092.92,-293.2 2102.3,-293.28 2111.75,-293.48 2121.24,-293.8 2130.75,-294.23 2140.25,-294.77 2149.7,-295.41 2159.08,-296.15 2168.37,-296.98 2177.53,-297.89 2186.54,-298.89 2195.37,-299.96 2203.99,-301.11 2212.38,-302.32 2220.52,-303.59 2228.39,-304.93 2235.96,-306.31 2243.21,-307.75 2250.12,-309.23 2256.67,-310.75 2262.85,-312.32 2268.64,-313.92 2274.03,-315.56 2279,-317.23 2283.54,-318.93 2287.64,-320.66 2291.3,-322.42 2294.49,-324.21 2297.23,-326.02 2299.5,-327.85 2301.3,-329.71 2302.62,-331.59 2303.48,-333.49 2303.85,-335.41 2303.76,-337.34 2303.2,-339.29 2302.18,-341.26 2300.69,-343.23 2298.76,-345.22 2296.37,-347.22 2293.55,-349.22 2290.31,-351.22 2286.64,-353.22 2282.57,-355.21 2278.11,-357.19 2273.26,-359.16 2268.05,-361.11 2262.48,-363.03 2256.57,-364.92 2250.34,-366.78 2243.8,-368.59 2236.98,-370.36 2229.88,-372.06 2222.53,-373.7 2214.94,-375.28 2207.13,-376.77 2199.12,-378.18 2190.93,-379.5 2182.59,-380.72 2174.11,-381.83 2165.5,-382.82 2156.8,-383.7 2148.03,-384.45 2139.19,-385.07 2130.33,-385.55 2121.45,-385.89 2112.58,-386.08 2103.75,-386.11 2094.96,-386 2086.26,-385.72 2077.65,-385.29 2069.16,-384.69 2060.81,-383.94 2052.62,-383.02 2044.62,-381.95 2036.83,-380.72 2029.26,-379.33 2021.94,-377.8 2014.89,-376.12 2008.12,-374.29 2001.67,-372.34 1995.54,-370.26 1989.76,-368.06 1984.33,-365.74 1979.29,-363.33 1974.64,-360.82 1970.4,-358.23 1966.59,-355.57 1963.21,-352.85 1960.28,-350.08 1957.81,-347.27 1955.8,-344.44 1954.28,-341.58"/>
<text text-anchor="middle" x="2129.38" y="-334.45" font-family="sans-serif" font-size="16.00">GestionProductosContext</text>
</g>
<!-- CarritoComprasContext&#45;&gt;GestionProductosContext -->
<g id="edge4" class="edge">
<title>CarritoComprasContext&#45;&gt;GestionProductosContext</title>
<path fill="none" stroke="black" stroke-width="2" d="M2129.38,-579.43C2129.38,-527.69 2129.38,-439.59 2129.38,-385.69"/>
<text text-anchor="middle" x="2185.38" y="-477.9" font-family="sans-serif" font-size="12.00">Customer/Supplier</text>
<polygon fill="white" stroke="transparent" points="2122.38,-376.69 2122.38,-393.69 2136.38,-393.69 2136.38,-376.69 2122.38,-376.69"/>
<text text-anchor="start" x="2124.38" y="-382.09" font-family="sans-serif" font-size="12.00">D</text>
<polygon fill="white" stroke="transparent" points="2122.38,-570.43 2122.38,-587.43 2136.38,-587.43 2136.38,-570.43 2122.38,-570.43"/>
<text text-anchor="start" x="2124.38" y="-575.83" font-family="sans-serif" font-size="12.00">U</text>
</g>
<!-- GestionClientesContext&#45;&gt;CarritoComprasContext -->
<g id="edge6" class="edge">
<title>GestionClientesContext&#45;&gt;CarritoComprasContext</title>
<path fill="none" stroke="black" stroke-width="2" d="M1953.81,-521.06C1969.01,-533.53 1986.46,-546.92 2003.38,-557.81 2018.61,-567.61 2035.56,-577.02 2051.97,-585.46"/>
<text text-anchor="middle" x="2059.38" y="-548.21" font-family="sans-serif" font-size="12.00">Customer/Supplier</text>
<polygon fill="white" stroke="transparent" points="2044.97,-576.46 2044.97,-593.46 2058.97,-593.46 2058.97,-576.46 2044.97,-576.46"/>
<text text-anchor="start" x="2046.97" y="-581.86" font-family="sans-serif" font-size="12.00">D</text>
<polygon fill="white" stroke="transparent" points="1946.81,-512.06 1946.81,-529.06 1960.81,-529.06 1960.81,-512.06 1946.81,-512.06"/>
<text text-anchor="start" x="1948.81" y="-517.46" font-family="sans-serif" font-size="12.00">U</text>
</g>
<!-- GestionClientesContext&#45;&gt;GestionProductosContext -->
<g id="edge5" class="edge">
<title>GestionClientesContext&#45;&gt;GestionProductosContext</title>
<path fill="none" stroke="black" stroke-width="2" d="M1908.32,-435.57C1910.08,-424.26 1913.89,-412.85 1921.38,-404.18 1936.96,-386.15 1957.47,-373.06 1979.54,-363.57"/>
<text text-anchor="middle" x="1963.38" y="-407.58" font-family="sans-serif" font-size="12.00">Shared Kernel</text>
</g>
<!-- GestionProductosContext&#45;&gt;CarritoComprasContext -->
<g id="edge8" class="edge">
<title>GestionProductosContext&#45;&gt;CarritoComprasContext</title>
<path fill="none" stroke="black" stroke-width="2" d="M2196.77,-378.7C2216.11,-393.72 2234.81,-412.72 2245.38,-435.18 2262.72,-472.03 2262.89,-490.04 2245.38,-526.81 2234.96,-548.71 2216.67,-567.18 2197.66,-581.8"/>
<text text-anchor="middle" x="2314.38" y="-477.9" font-family="sans-serif" font-size="12.00">Customer/Supplier</text>
<polygon fill="white" stroke="transparent" points="2190.66,-572.8 2190.66,-589.8 2204.66,-589.8 2204.66,-572.8 2190.66,-572.8"/>
<text text-anchor="start" x="2192.66" y="-578.2" font-family="sans-serif" font-size="12.00">D</text>
<polygon fill="white" stroke="transparent" points="2189.77,-369.7 2189.77,-386.7 2203.77,-386.7 2203.77,-369.7 2189.77,-369.7"/>
<text text-anchor="start" x="2191.77" y="-375.1" font-family="sans-serif" font-size="12.00">U</text>
</g>
<!-- GestionProductosContext&#45;&gt;GestionClientesContext -->
<g id="edge9" class="edge">
<title>GestionProductosContext&#45;&gt;GestionClientesContext</title>
<path fill="none" stroke="black" stroke-width="2" d="M2059.46,-383.98C2031.14,-402.1 1998.7,-422.85 1971.25,-440.42"/>
<text text-anchor="middle" x="2068.38" y="-407.58" font-family="sans-serif" font-size="12.00">Shared Kernel</text>
</g>
<!-- GestionDevolucionesContext -->
<g id="node7" class="node">
<title>GestionDevolucionesContext</title>
<polygon fill="none" stroke="black" stroke-width="2" points="2294.92,-223.67 2286.05,-225.75 2276.85,-227.72 2267.36,-229.59 2257.61,-231.35 2247.63,-232.98 2237.48,-234.49 2227.17,-235.86 2216.75,-237.08 2206.25,-238.16 2195.71,-239.09 2185.15,-239.87 2174.62,-240.49 2164.15,-240.95 2153.75,-241.24 2143.47,-241.37 2133.33,-241.35 2123.35,-241.15 2113.56,-240.8 2103.98,-240.29 2094.63,-239.63 2085.53,-238.81 2076.69,-237.85 2068.15,-236.74 2059.89,-235.5 2051.95,-234.13 2044.33,-232.63 2037.05,-231.01 2030.1,-229.29 2023.5,-227.47 2017.26,-225.55 2011.38,-223.54 2005.87,-221.46 2000.73,-219.31 1995.96,-217.1 1991.58,-214.85 1987.57,-212.55 1983.95,-210.21 1980.71,-207.85 1977.87,-205.48 1975.41,-203.1 1973.35,-200.71 1971.68,-198.34 1970.41,-195.97 1969.54,-193.63 1969.07,-191.32 1969.01,-189.04 1969.35,-186.79 1970.1,-184.6 1971.27,-182.45 1972.85,-180.35 1974.85,-178.31 1977.26,-176.34 1980.1,-174.42 1983.35,-172.57 1987.04,-170.8 1991.14,-169.09 1995.67,-167.45 2000.61,-165.89 2005.98,-164.4 2011.76,-162.99 2017.95,-161.66 2024.55,-160.41 2031.54,-159.23 2038.92,-158.13 2046.68,-157.11 2054.8,-156.17 2063.28,-155.31 2072.09,-154.53 2081.22,-153.82 2090.65,-153.2 2100.36,-152.66 2110.32,-152.2 2120.51,-151.82 2130.9,-151.52 2141.47,-151.31 2152.18,-151.18 2163.01,-151.14 2173.91,-151.18 2184.86,-151.32 2195.82,-151.53 2206.75,-151.84 2217.62,-152.24 2228.38,-152.74 2239,-153.32 2249.44,-154 2259.67,-154.78 2269.63,-155.65 2279.3,-156.62 2288.63,-157.69 2297.59,-158.86 2306.15,-160.12 2314.26,-161.48 2321.9,-162.94 2329.04,-164.49 2335.64,-166.13 2341.68,-167.87 2347.13,-169.7 2351.98,-171.61 2356.19,-173.61 2359.76,-175.68 2362.67,-177.83 2364.91,-180.05 2366.46,-182.33 2367.33,-184.67 2367.52,-187.07 2367.01,-189.51 2365.82,-191.98 2363.96,-194.49 2361.42,-197.02 2358.23,-199.56 2354.41,-202.1 2349.96,-204.64 2344.91,-207.17 2339.28,-209.67 2333.1,-212.15 2326.39,-214.57 2319.19,-216.95 2311.52,-219.27 2303.42,-221.51 2294.92,-223.67"/>
<text text-anchor="middle" x="2155.38" y="-188.97" font-family="sans-serif" font-size="16.00">GestionDevolucionesContext</text>
</g>
<!-- GestionProductosContext&#45;&gt;GestionDevolucionesContext -->
<g id="edge7" class="edge">
<title>GestionProductosContext&#45;&gt;GestionDevolucionesContext</title>
<path fill="none" stroke="black" stroke-width="2" d="M2137.11,-294.59C2140.14,-277.9 2143.62,-258.69 2146.73,-241.54"/>
<text text-anchor="middle" x="2218.88" y="-262.72" font-family="sans-serif" font-size="12.00"> &#160;&#160;&#160;&#160;&#160;&#160;&#160;&#160;&#160;&#160;&#160;&#160;&#160;&#160;&#160;&#160;&#160;&#160;&#160;&#160;&#160;&#160;&#160;&#160;&#160;&#160;&#160;&#160;&#160;&#160;&#160;&#160;&#160;&#160;&#160;&#160;&#160;&#160;&#160;</text>
<polygon fill="white" stroke="transparent" points="2127.73,-231.54 2127.73,-250.54 2143.73,-250.54 2143.73,-231.54 2127.73,-231.54"/>
<polyline fill="none" stroke="black" points="2143.73,-231.54 2143.73,-250.54 "/>
<text text-anchor="start" x="2130.73" y="-237.94" font-family="sans-serif" font-size="12.00">D</text>
<polygon fill="white" stroke="transparent" points="2143.73,-231.54 2143.73,-250.54 2165.73,-250.54 2165.73,-231.54 2143.73,-231.54"/>
<polygon fill="none" stroke="black" points="2143.73,-231.54 2143.73,-250.54 2165.73,-250.54 2165.73,-231.54 2143.73,-231.54"/>
<text text-anchor="start" x="2146.73" y="-237.94" font-family="sans-serif" font-size="12.00">CF</text>
<polygon fill="white" stroke="transparent" points="2102.11,-284.59 2102.11,-303.59 2118.11,-303.59 2118.11,-284.59 2102.11,-284.59"/>
<polyline fill="none" stroke="black" points="2118.11,-284.59 2118.11,-303.59 "/>
<text text-anchor="start" x="2105.11" y="-290.99" font-family="sans-serif" font-size="12.00">U</text>
<polygon fill="white" stroke="transparent" points="2118.11,-284.59 2118.11,-303.59 2173.11,-303.59 2173.11,-284.59 2118.11,-284.59"/>
<polygon fill="none" stroke="black" points="2118.11,-284.59 2118.11,-303.59 2173.11,-303.59 2173.11,-284.59 2118.11,-284.59"/>
<text text-anchor="start" x="2121.11" y="-290.99" font-family="sans-serif" font-size="12.00">OHS, PL</text>
</g>
<!-- GestionPedidosContext -->
<g id="node8" class="node">
<title>GestionPedidosContext</title>
<polygon fill="none" stroke="black" stroke-width="2" points="2189.69,-48.65 2189.28,-45.77 2189.32,-42.91 2189.82,-40.08 2190.77,-37.29 2192.18,-34.54 2194.05,-31.85 2196.36,-29.24 2199.11,-26.7 2202.31,-24.25 2205.93,-21.9 2209.97,-19.66 2214.43,-17.53 2219.28,-15.52 2224.51,-13.63 2230.12,-11.88 2236.08,-10.26 2242.38,-8.78 2249,-7.45 2255.92,-6.25 2263.13,-5.21 2270.59,-4.3 2278.29,-3.55 2286.22,-2.94 2294.33,-2.47 2302.61,-2.14 2311.04,-1.95 2319.59,-1.9 2328.24,-1.97 2336.95,-2.18 2345.71,-2.5 2354.49,-2.95 2363.26,-3.5 2371.99,-4.17 2380.67,-4.93 2389.26,-5.8 2397.75,-6.75 2406.1,-7.79 2414.29,-8.91 2422.3,-10.1 2430.11,-11.36 2437.69,-12.68 2445.02,-14.07 2452.08,-15.5 2458.86,-16.99 2465.33,-18.52 2471.47,-20.1 2477.28,-21.72 2482.73,-23.37 2487.8,-25.05 2492.5,-26.76 2496.8,-28.5 2500.7,-30.27 2504.18,-32.06 2507.24,-33.87 2509.87,-35.7 2512.06,-37.55 2513.81,-39.42 2515.13,-41.3 2515.99,-43.2 2516.42,-45.12 2516.39,-47.04 2515.93,-48.98 2515.03,-50.93 2513.69,-52.89 2511.92,-54.85 2509.73,-56.82 2507.12,-58.78 2504.11,-60.75 2500.69,-62.71 2496.89,-64.67 2492.71,-66.61 2488.16,-68.54 2483.27,-70.45 2478.03,-72.34 2472.47,-74.19 2466.6,-76.01 2460.44,-77.79 2454,-79.52 2447.3,-81.2 2440.35,-82.81 2433.19,-84.37 2425.81,-85.84 2418.25,-87.24 2410.52,-88.54 2402.64,-89.76 2394.63,-90.87 2386.51,-91.87 2378.31,-92.76 2370.04,-93.52 2361.72,-94.16 2353.37,-94.66 2345.02,-95.03 2336.69,-95.25 2328.4,-95.32 2320.16,-95.24 2312.01,-95.01 2303.95,-94.62 2296.02,-94.07 2288.23,-93.37 2280.61,-92.5 2273.16,-91.48 2265.92,-90.29 2258.91,-88.96 2252.13,-87.47 2245.61,-85.83 2239.38,-84.06 2233.44,-82.14 2227.81,-80.1 2222.51,-77.93 2217.55,-75.65 2212.95,-73.26 2208.73,-70.77 2204.89,-68.2 2201.45,-65.55 2198.41,-62.83 2195.8,-60.06 2193.61,-57.25 2191.86,-54.4 2190.55,-51.53 2189.69,-48.65"/>
<text text-anchor="middle" x="2353.38" y="-43.81" font-family="sans-serif" font-size="16.00">GestionPedidosContext</text>
</g>
<!-- GestionDevolucionesContext&#45;&gt;GestionPedidosContext -->
<g id="edge10" class="edge">
<title>GestionDevolucionesContext&#45;&gt;GestionPedidosContext</title>
<path fill="none" stroke="black" stroke-width="2" d="M2147,-150.84C2146.51,-137.74 2148.55,-123.88 2156.38,-113.21 2170.02,-94.65 2189.14,-81.32 2210.17,-71.79"/>
<text text-anchor="middle" x="2212.38" y="-116.61" font-family="sans-serif" font-size="12.00">Customer/Supplier</text>
<polygon fill="white" stroke="transparent" points="2203.17,-62.79 2203.17,-79.79 2217.17,-79.79 2217.17,-62.79 2203.17,-62.79"/>
<text text-anchor="start" x="2205.17" y="-68.19" font-family="sans-serif" font-size="12.00">D</text>
<polygon fill="white" stroke="transparent" points="2140,-141.84 2140,-158.84 2154,-158.84 2154,-141.84 2140,-141.84"/>
<text text-anchor="start" x="2142" y="-147.24" font-family="sans-serif" font-size="12.00">U</text>
</g>
<!-- GestionPedidosContext&#45;&gt;CarritoComprasContext -->
<g id="edge11" class="edge">
<title>GestionPedidosContext&#45;&gt;CarritoComprasContext</title>
<path fill="none" stroke="black" stroke-width="2" d="M2386.89,-92.15C2391.18,-98.97 2395.19,-106.11 2398.38,-113.21 2413.12,-145.97 2417.38,-155.85 2417.38,-191.77 2417.38,-482 2417.38,-482 2417.38,-482 2417.38,-553.06 2345.38,-587.81 2273.38,-604.8"/>
<text text-anchor="middle" x="2473.38" y="-335.15" font-family="sans-serif" font-size="12.00">Customer/Supplier</text>
<polygon fill="white" stroke="transparent" points="2266.38,-595.8 2266.38,-612.8 2280.38,-612.8 2280.38,-595.8 2266.38,-595.8"/>
<text text-anchor="start" x="2268.38" y="-601.2" font-family="sans-serif" font-size="12.00">D</text>
<polygon fill="white" stroke="transparent" points="2379.89,-83.15 2379.89,-100.15 2393.89,-100.15 2393.89,-83.15 2379.89,-83.15"/>
<text text-anchor="start" x="2381.89" y="-88.55" font-family="sans-serif" font-size="12.00">U</text>
</g>
<!-- GestionPedidosContext&#45;&gt;GestionDevolucionesContext -->
<g id="edge12" class="edge">
<title>GestionPedidosContext&#45;&gt;GestionDevolucionesContext</title>
<path fill="none" stroke="black" stroke-width="2" d="M2306.38,-94.81C2294.41,-105.64 2281.27,-116.76 2268.38,-126.21 2255.86,-135.4 2241.94,-144.37 2228.28,-152.57"/>
<text text-anchor="middle" x="2338.38" y="-116.61" font-family="sans-serif" font-size="12.00">Customer/Supplier</text>
<polygon fill="white" stroke="transparent" points="2221.28,-143.57 2221.28,-160.57 2235.28,-160.57 2235.28,-143.57 2221.28,-143.57"/>
<text text-anchor="start" x="2223.28" y="-148.97" font-family="sans-serif" font-size="12.00">D</text>
<polygon fill="white" stroke="transparent" points="2299.38,-85.81 2299.38,-102.81 2313.38,-102.81 2313.38,-85.81 2299.38,-85.81"/>
<text text-anchor="start" x="2301.38" y="-91.21" font-family="sans-serif" font-size="12.00">U</text>
</g>
<!-- GestionSesionesContext -->
<g id="node9" class="node">
<title>GestionSesionesContext</title>
<polygon fill="none" stroke="black" stroke-width="2" points="2450.06,-793.79 2442.89,-791.59 2436.14,-789.33 2429.82,-787.02 2423.96,-784.65 2418.59,-782.26 2413.73,-779.83 2409.41,-777.39 2405.63,-774.93 2402.43,-772.47 2399.81,-770.02 2397.79,-767.58 2396.37,-765.17 2395.56,-762.78 2395.36,-760.43 2395.78,-758.11 2396.81,-755.85 2398.45,-753.64 2400.69,-751.49 2403.51,-749.41 2406.91,-747.39 2410.87,-745.44 2415.37,-743.57 2420.4,-741.78 2425.91,-740.06 2431.91,-738.43 2438.35,-736.89 2445.21,-735.43 2452.46,-734.06 2460.07,-732.78 2468,-731.58 2476.23,-730.48 2484.72,-729.47 2493.44,-728.55 2502.35,-727.71 2511.42,-726.97 2520.62,-726.31 2529.91,-725.75 2539.26,-725.27 2548.64,-724.89 2558.01,-724.59 2567.35,-724.38 2576.63,-724.25 2585.82,-724.22 2594.89,-724.27 2603.82,-724.4 2612.59,-724.63 2621.17,-724.94 2629.54,-725.34 2637.69,-725.82 2645.59,-726.4 2653.24,-727.06 2660.62,-727.8 2667.71,-728.64 2674.51,-729.56 2681.01,-730.56 2687.2,-731.66 2693.07,-732.84 2698.62,-734.11 2703.84,-735.46 2708.73,-736.9 2713.29,-738.43 2717.51,-740.03 2721.4,-741.71 2724.95,-743.48 2728.17,-745.32 2731.05,-747.23 2733.59,-749.21 2735.8,-751.26 2737.67,-753.38 2739.2,-755.55 2740.4,-757.77 2741.27,-760.04 2741.8,-762.36 2742,-764.71 2741.85,-767.09 2741.38,-769.5 2740.56,-771.92 2739.41,-774.35 2737.92,-776.79 2736.08,-779.21 2733.9,-781.62 2731.38,-784 2728.51,-786.36 2725.3,-788.67 2721.74,-790.93 2717.83,-793.13 2713.58,-795.26 2708.98,-797.32 2704.03,-799.29 2698.75,-801.17 2693.12,-802.95 2687.16,-804.62 2680.88,-806.18 2674.27,-807.61 2667.35,-808.91 2660.14,-810.08 2652.63,-811.1 2644.84,-811.98 2636.8,-812.72 2628.51,-813.3 2619.99,-813.72 2611.26,-813.99 2602.35,-814.1 2593.28,-814.05 2584.07,-813.84 2574.75,-813.47 2565.35,-812.94 2555.9,-812.26 2546.42,-811.43 2536.95,-810.46 2527.52,-809.33 2518.16,-808.08 2508.91,-806.68 2499.8,-805.16 2490.87,-803.52 2482.15,-801.77 2473.68,-799.92 2465.48,-797.96 2457.6,-795.92 2450.06,-793.79"/>
<text text-anchor="middle" x="2581.38" y="-762.06" font-family="sans-serif" font-size="16.00">GestionSesionesContext</text>
</g>
<!-- IntegracionRedesSocialesContext -->
<g id="node10" class="node">
<title>IntegracionRedesSocialesContext</title>
<polygon fill="none" stroke="black" stroke-width="2" points="583.72,-725.06 597.08,-723.92 610.6,-722.91 624.22,-722.02 637.88,-721.25 651.52,-720.62 665.11,-720.13 678.59,-719.77 691.9,-719.55 705.01,-719.47 717.86,-719.54 730.42,-719.75 742.64,-720.11 754.49,-720.61 765.94,-721.25 776.94,-722.03 787.48,-722.95 797.53,-724 807.07,-725.19 816.07,-726.5 824.52,-727.93 832.41,-729.49 839.74,-731.15 846.48,-732.93 852.65,-734.8 858.23,-736.77 863.23,-738.82 867.65,-740.95 871.49,-743.15 874.78,-745.42 877.5,-747.74 879.68,-750.1 881.33,-752.51 882.45,-754.95 883.06,-757.4 883.18,-759.88 882.81,-762.35 881.98,-764.82 880.7,-767.29 878.98,-769.73 876.83,-772.15 874.28,-774.53 871.32,-776.87 867.97,-779.16 864.25,-781.4 860.17,-783.58 855.72,-785.69 850.93,-787.73 845.8,-789.69 840.33,-791.58 834.54,-793.37 828.42,-795.08 821.98,-796.69 815.24,-798.21 808.18,-799.63 800.82,-800.95 793.15,-802.17 785.19,-803.28 776.93,-804.28 768.39,-805.19 759.56,-805.98 750.46,-806.67 741.08,-807.24 731.45,-807.72 721.56,-808.08 711.44,-808.34 701.09,-808.5 690.53,-808.55 679.78,-808.5 668.85,-808.34 657.77,-808.09 646.56,-807.73 635.24,-807.28 623.85,-806.74 612.4,-806.1 600.94,-805.36 589.49,-804.54 578.1,-803.63 566.79,-802.63 555.61,-801.55 544.6,-800.38 533.79,-799.14 523.23,-797.81 512.96,-796.41 503.02,-794.93 493.46,-793.39 484.32,-791.77 475.63,-790.09 467.45,-788.34 459.81,-786.54 452.75,-784.67 446.31,-782.76 440.52,-780.79 435.42,-778.77 431.03,-776.71 427.39,-774.61 424.51,-772.48 422.43,-770.31 421.15,-768.12 420.69,-765.9 421.07,-763.68 422.28,-761.44 424.33,-759.19 427.22,-756.94 430.94,-754.71 435.48,-752.48 440.83,-750.27 446.97,-748.09 453.87,-745.94 461.52,-743.83 469.88,-741.76 478.91,-739.75 488.58,-737.79 498.86,-735.9 509.69,-734.09 521.03,-732.35 532.84,-730.7 545.06,-729.13 557.65,-727.67 570.56,-726.31 583.72,-725.06"/>
<text text-anchor="middle" x="668.38" y="-762.06" font-family="sans-serif" font-size="16.00">IntegracionRedesSocialesContext</text>
</g>
<!-- IntegracionRedesSocialesContext&#45;&gt;VentasContext -->
<g id="edge13" class="edge">
<title>IntegracionRedesSocialesContext&#45;&gt;VentasContext</title>
<path fill="none" stroke="black" stroke-width="2" d="M753.7,-720.37C792.34,-700.21 837.34,-676.74 873.48,-657.89"/>
<text text-anchor="middle" x="847.88" y="-689.6" font-family="sans-serif" font-size="12.00">Partnership</text>
</g>
<!-- NotificacionesComunicacionesContext -->
<g id="node11" class="node">
<title>NotificacionesComunicacionesContext</title>
<polygon fill="none" stroke="black" stroke-width="2" points="1374.35,-732.48 1386.91,-734.32 1398.94,-736.24 1410.39,-738.23 1421.22,-740.29 1431.38,-742.41 1440.82,-744.58 1449.5,-746.79 1457.4,-749.04 1464.47,-751.31 1470.69,-753.61 1476.03,-755.91 1480.47,-758.23 1484,-760.54 1486.6,-762.84 1488.27,-765.14 1489.01,-767.41 1488.81,-769.66 1487.69,-771.87 1485.65,-774.05 1482.71,-776.19 1478.89,-778.28 1474.2,-780.33 1468.69,-782.32 1462.37,-784.25 1455.28,-786.12 1447.46,-787.93 1438.95,-789.68 1429.79,-791.35 1420.02,-792.95 1409.68,-794.49 1398.83,-795.94 1387.51,-797.32 1375.78,-798.62 1363.67,-799.84 1351.25,-800.98 1338.55,-802.04 1325.63,-803.01 1312.53,-803.9 1299.31,-804.7 1286.01,-805.42 1272.66,-806.05 1259.33,-806.58 1246.03,-807.03 1232.82,-807.39 1219.73,-807.66 1206.79,-807.83 1194.04,-807.91 1181.5,-807.9 1169.2,-807.79 1157.17,-807.58 1145.42,-807.27 1133.99,-806.87 1122.87,-806.37 1112.1,-805.77 1101.67,-805.07 1091.62,-804.27 1081.94,-803.37 1072.64,-802.37 1063.73,-801.28 1055.21,-800.08 1047.1,-798.79 1039.38,-797.4 1032.08,-795.92 1025.19,-794.34 1018.71,-792.68 1012.65,-790.92 1007,-789.09 1001.78,-787.17 996.98,-785.18 992.61,-783.11 988.67,-780.98 985.18,-778.78 982.12,-776.52 979.52,-774.22 977.37,-771.87 975.69,-769.48 974.48,-767.06 973.76,-764.62 973.53,-762.16 973.8,-759.69 974.58,-757.22 975.88,-754.76 977.72,-752.32 980.11,-749.9 983.04,-747.52 986.54,-745.18 990.6,-742.89 995.25,-740.65 1000.48,-738.49 1006.29,-736.4 1012.7,-734.4 1019.69,-732.49 1027.28,-730.68 1035.45,-728.97 1044.2,-727.38 1053.52,-725.91 1063.4,-724.56 1073.82,-723.34 1084.77,-722.26 1096.23,-721.32 1108.17,-720.52 1120.56,-719.86 1133.38,-719.35 1146.59,-719 1160.16,-718.79 1174.04,-718.73 1188.19,-718.82 1202.58,-719.07 1217.15,-719.46 1231.86,-719.99 1246.64,-720.67 1261.46,-721.49 1276.25,-722.44 1290.96,-723.53 1305.53,-724.74 1319.91,-726.07 1334.04,-727.52 1347.86,-729.07 1361.31,-730.73 1374.35,-732.48"/>
<text text-anchor="middle" x="1211.38" y="-762.06" font-family="sans-serif" font-size="16.00">NotificacionesComunicacionesContext</text>
</g>
<!-- NotificacionesComunicacionesContext&#45;&gt;VentasContext -->
<g id="edge14" class="edge">
<title>NotificacionesComunicacionesContext&#45;&gt;VentasContext</title>
<path fill="none" stroke="black" stroke-width="2" d="M1124.89,-719.59C1089.42,-701.02 1048.77,-679.74 1014.67,-661.89"/>
<text text-anchor="middle" x="1118.88" y="-689.6" font-family="sans-serif" font-size="12.00">Partnership</text>
</g>
<!-- ProcesoPagosContext -->
<g id="node12" class="node">
<title>ProcesoPagosContext</title>
<polygon fill="none" stroke="black" stroke-width="2" points="2615,-236.72 2605.02,-236.83 2595.09,-236.82 2585.25,-236.69 2575.54,-236.43 2566,-236.05 2556.67,-235.55 2547.58,-234.93 2538.77,-234.19 2530.27,-233.33 2522.11,-232.36 2514.31,-231.27 2506.91,-230.08 2499.93,-228.78 2493.39,-227.37 2487.3,-225.86 2481.68,-224.26 2476.54,-222.57 2471.9,-220.79 2467.76,-218.94 2464.12,-217 2460.99,-215 2458.36,-212.93 2456.24,-210.8 2454.61,-208.62 2453.47,-206.4 2452.81,-204.14 2452.63,-201.84 2452.89,-199.52 2453.6,-197.18 2454.74,-194.83 2456.28,-192.47 2458.21,-190.12 2460.52,-187.77 2463.18,-185.44 2466.17,-183.13 2469.48,-180.86 2473.09,-178.61 2476.97,-176.41 2481.11,-174.26 2485.49,-172.17 2490.09,-170.13 2494.89,-168.16 2499.88,-166.27 2505.05,-164.45 2510.38,-162.71 2515.85,-161.06 2521.46,-159.5 2527.19,-158.04 2533.03,-156.68 2538.98,-155.41 2545.03,-154.26 2551.16,-153.21 2557.37,-152.28 2563.66,-151.46 2570.02,-150.75 2576.45,-150.16 2582.94,-149.69 2589.49,-149.34 2596.08,-149.11 2602.73,-148.99 2609.42,-149 2616.16,-149.12 2622.92,-149.37 2629.72,-149.73 2636.53,-150.2 2643.36,-150.79 2650.2,-151.49 2657.03,-152.3 2663.85,-153.22 2670.64,-154.24 2677.39,-155.36 2684.09,-156.58 2690.72,-157.89 2697.27,-159.3 2703.71,-160.79 2710.03,-162.37 2716.21,-164.02 2722.22,-165.75 2728.04,-167.55 2733.66,-169.42 2739.04,-171.34 2744.17,-173.32 2749.02,-175.35 2753.56,-177.43 2757.77,-179.54 2761.63,-181.69 2765.11,-183.87 2768.19,-186.08 2770.85,-188.3 2773.06,-190.53 2774.81,-192.77 2776.08,-195.01 2776.84,-197.25 2777.1,-199.48 2776.83,-201.69 2776.02,-203.88 2774.67,-206.04 2772.76,-208.17 2770.31,-210.26 2767.3,-212.31 2763.74,-214.31 2759.63,-216.25 2754.99,-218.14 2749.82,-219.95 2744.14,-221.7 2737.97,-223.38 2731.32,-224.97 2724.22,-226.49 2716.7,-227.91 2708.77,-229.24 2700.48,-230.47 2691.84,-231.61 2682.91,-232.64 2673.7,-233.56 2664.26,-234.38 2654.64,-235.08 2644.86,-235.67 2634.96,-236.14 2625,-236.49 2615,-236.72"/>
<text text-anchor="middle" x="2611.38" y="-188.97" font-family="sans-serif" font-size="16.00">ProcesoPagosContext</text>
</g>
<!-- ProcesoPagosContext&#45;&gt;GestionPedidosContext -->
<g id="edge15" class="edge">
<title>ProcesoPagosContext&#45;&gt;GestionPedidosContext</title>
<path fill="none" stroke="black" stroke-width="2" d="M2543.93,-154.34C2506.46,-133.55 2459.93,-107.73 2422.23,-86.81"/>
<text text-anchor="middle" x="2545.38" y="-116.61" font-family="sans-serif" font-size="12.00">Customer/Supplier</text>
<polygon fill="white" stroke="transparent" points="2415.23,-77.81 2415.23,-94.81 2429.23,-94.81 2429.23,-77.81 2415.23,-77.81"/>
<text text-anchor="start" x="2417.23" y="-83.21" font-family="sans-serif" font-size="12.00">D</text>
<polygon fill="white" stroke="transparent" points="2536.93,-145.34 2536.93,-162.34 2550.93,-162.34 2550.93,-145.34 2536.93,-145.34"/>
<text text-anchor="start" x="2538.93" y="-150.74" font-family="sans-serif" font-size="12.00">U</text>
</g>
<!-- SeguridadContext -->
<g id="node13" class="node">
<title>SeguridadContext</title>
<polygon fill="none" stroke="black" stroke-width="2" points="2987.9,-806.67 2979.77,-807.8 2971.54,-808.82 2963.26,-809.71 2954.95,-810.47 2946.64,-811.1 2938.37,-811.6 2930.17,-811.96 2922.07,-812.18 2914.1,-812.25 2906.28,-812.18 2898.63,-811.97 2891.2,-811.62 2883.99,-811.12 2877.02,-810.48 2870.33,-809.7 2863.91,-808.78 2857.8,-807.73 2852,-806.54 2846.52,-805.23 2841.38,-803.79 2836.57,-802.24 2832.12,-800.57 2828.01,-798.8 2824.26,-796.93 2820.87,-794.96 2817.82,-792.91 2815.13,-790.78 2812.79,-788.57 2810.8,-786.31 2809.14,-783.99 2807.81,-781.62 2806.81,-779.21 2806.13,-776.78 2805.76,-774.32 2805.68,-771.85 2805.91,-769.37 2806.41,-766.9 2807.19,-764.44 2808.24,-762 2809.54,-759.58 2811.1,-757.2 2812.9,-754.86 2814.94,-752.56 2817.2,-750.32 2819.69,-748.15 2822.39,-746.03 2825.31,-743.99 2828.43,-742.03 2831.76,-740.15 2835.28,-738.35 2839,-736.65 2842.92,-735.03 2847.03,-733.51 2851.32,-732.09 2855.8,-730.78 2860.46,-729.56 2865.31,-728.45 2870.33,-727.44 2875.53,-726.54 2880.9,-725.75 2886.44,-725.06 2892.15,-724.48 2898.01,-724.01 2904.02,-723.64 2910.18,-723.38 2916.48,-723.23 2922.91,-723.18 2929.45,-723.23 2936.1,-723.38 2942.84,-723.64 2949.66,-723.99 2956.55,-724.44 2963.48,-724.99 2970.45,-725.63 2977.42,-726.36 2984.39,-727.18 2991.32,-728.1 2998.2,-729.09 3005,-730.18 3011.7,-731.34 3018.28,-732.59 3024.71,-733.91 3030.96,-735.32 3037,-736.79 3042.82,-738.34 3048.38,-739.95 3053.67,-741.64 3058.65,-743.38 3063.3,-745.19 3067.59,-747.05 3071.51,-748.97 3075.03,-750.94 3078.14,-752.95 3080.81,-755.01 3083.02,-757.11 3084.77,-759.25 3086.04,-761.42 3086.82,-763.61 3087.1,-765.82 3086.87,-768.05 3086.13,-770.29 3084.89,-772.54 3083.13,-774.78 3080.86,-777.02 3078.1,-779.25 3074.84,-781.45 3071.11,-783.63 3066.91,-785.78 3062.25,-787.9 3057.17,-789.96 3051.67,-791.98 3045.79,-793.93 3039.54,-795.82 3032.95,-797.64 3026.04,-799.38 3018.86,-801.03 3011.42,-802.59 3003.76,-804.05 2995.91,-805.41 2987.9,-806.67"/>
<text text-anchor="middle" x="2936.38" y="-762.06" font-family="sans-serif" font-size="16.00">SeguridadContext</text>
</g>
<!-- ServicioClienteContext -->
<g id="node14" class="node">
<title>ServicioClienteContext</title>
<polygon fill="none" stroke="black" stroke-width="2" points="1774.24,-802.58 1765.51,-804.19 1756.59,-805.69 1747.51,-807.08 1738.31,-808.34 1729.02,-809.47 1719.68,-810.47 1710.33,-811.33 1700.99,-812.04 1691.7,-812.61 1682.49,-813.03 1673.4,-813.29 1664.44,-813.41 1655.64,-813.37 1647.04,-813.17 1638.65,-812.82 1630.49,-812.32 1622.6,-811.67 1614.97,-810.87 1607.64,-809.92 1600.61,-808.84 1593.9,-807.62 1587.52,-806.26 1581.47,-804.78 1575.77,-803.18 1570.42,-801.47 1565.42,-799.65 1560.78,-797.74 1556.5,-795.73 1552.58,-793.63 1549.01,-791.47 1545.8,-789.23 1542.95,-786.94 1540.45,-784.6 1538.29,-782.22 1536.48,-779.81 1535.01,-777.38 1533.87,-774.93 1533.07,-772.47 1532.59,-770.02 1532.43,-767.57 1532.59,-765.15 1533.06,-762.74 1533.84,-760.38 1534.93,-758.05 1536.32,-755.76 1538.01,-753.53 1540,-751.35 1542.28,-749.24 1544.86,-747.2 1547.74,-745.22 1550.9,-743.32 1554.36,-741.5 1558.11,-739.76 1562.15,-738.11 1566.47,-736.54 1571.09,-735.06 1575.98,-733.67 1581.16,-732.38 1586.62,-731.17 1592.36,-730.07 1598.37,-729.05 1604.65,-728.13 1611.18,-727.31 1617.97,-726.58 1625,-725.94 1632.27,-725.4 1639.76,-724.95 1647.46,-724.6 1655.36,-724.34 1663.43,-724.17 1671.67,-724.09 1680.05,-724.11 1688.56,-724.21 1697.16,-724.41 1705.84,-724.69 1714.57,-725.06 1723.33,-725.53 1732.09,-726.08 1740.81,-726.72 1749.48,-727.44 1758.05,-728.25 1766.51,-729.15 1774.8,-730.13 1782.92,-731.2 1790.81,-732.35 1798.46,-733.59 1805.82,-734.91 1812.88,-736.31 1819.58,-737.78 1825.92,-739.34 1831.85,-740.97 1837.35,-742.68 1842.4,-744.46 1846.96,-746.31 1851.03,-748.23 1854.57,-750.21 1857.57,-752.25 1860.01,-754.34 1861.88,-756.49 1863.18,-758.68 1863.88,-760.92 1863.99,-763.19 1863.5,-765.5 1862.41,-767.83 1860.73,-770.18 1858.46,-772.54 1855.61,-774.9 1852.19,-777.26 1848.21,-779.62 1843.7,-781.95 1838.67,-784.26 1833.15,-786.54 1827.15,-788.77 1820.7,-790.96 1813.83,-793.09 1806.57,-795.15 1798.94,-797.14 1790.99,-799.04 1782.75,-800.86 1774.24,-802.58"/>
<text text-anchor="middle" x="1685.38" y="-762.06" font-family="sans-serif" font-size="16.00">ServicioClienteContext</text>
</g>
<!-- ServicioClienteContext&#45;&gt;VentasContext -->
<g id="edge16" class="edge">
<title>ServicioClienteContext&#45;&gt;VentasContext</title>
<path fill="none" stroke="black" stroke-width="2" d="M1572.51,-734.5C1548.15,-728.39 1522.47,-722.29 1498.38,-717.2 1343.75,-684.49 1163.11,-655.69 1050.21,-638.81"/>
<text text-anchor="middle" x="1442.88" y="-689.6" font-family="sans-serif" font-size="12.00">Partnership</text>
</g>
</g>
</svg>
