<svg width="2000px" height="1687px"
 viewBox="0.00 0.00 632.84 533.95" xmlns="http://www.w3.org/2000/svg" xmlns:xlink="http://www.w3.org/1999/xlink">
<g id="graph0" class="graph" transform="scale(1.0 1.0) rotate(0) translate(4 529.95)">
<title>ContextMapGraph</title>
<polygon fill="white" stroke="transparent" points="-4,4 -4,-529.95 628.84,-529.95 628.84,4 -4,4"/>
<!-- atencionCliente -->
<g id="node1" class="node">
<title>atencionCliente</title>
<polygon fill="none" stroke="black" stroke-width="2" points="344.8,-40.56 346.34,-43.37 347.54,-46.19 348.39,-49 348.9,-51.79 349.05,-54.56 348.85,-57.28 348.28,-59.95 347.36,-62.57 346.08,-65.11 344.44,-67.58 342.46,-69.95 340.12,-72.24 337.44,-74.42 334.43,-76.5 331.08,-78.46 327.43,-80.3 323.46,-82.02 319.2,-83.61 314.65,-85.08 309.84,-86.41 304.78,-87.61 299.47,-88.68 293.95,-89.61 288.22,-90.42 282.31,-91.08 276.24,-91.62 270.01,-92.04 263.66,-92.32 257.21,-92.49 250.67,-92.53 244.07,-92.46 237.42,-92.28 230.75,-92 224.08,-91.61 217.43,-91.12 210.82,-90.54 204.28,-89.86 197.81,-89.11 191.45,-88.27 185.2,-87.36 179.09,-86.37 173.14,-85.32 167.36,-84.2 161.77,-83.02 156.38,-81.78 151.22,-80.48 146.28,-79.14 141.59,-77.74 137.15,-76.3 132.99,-74.81 129.1,-73.27 125.49,-71.7 122.18,-70.08 119.16,-68.43 116.45,-66.74 114.05,-65.01 111.97,-63.24 110.2,-61.44 108.75,-59.61 107.62,-57.74 106.8,-55.84 106.31,-53.91 106.13,-51.96 106.26,-49.98 106.71,-47.97 107.47,-45.94 108.52,-43.89 109.88,-41.83 111.53,-39.76 113.47,-37.67 115.69,-35.58 118.18,-33.49 120.93,-31.41 123.95,-29.33 127.21,-27.27 130.72,-25.24 134.45,-23.23 138.41,-21.25 142.59,-19.32 146.96,-17.44 151.53,-15.61 156.29,-13.85 161.21,-12.16 166.3,-10.55 171.53,-9.02 176.91,-7.59 182.4,-6.26 188.02,-5.05 193.73,-3.95 199.53,-2.97 205.41,-2.13 211.36,-1.42 217.35,-0.85 223.38,-0.43 229.43,-0.16 235.49,-0.05 241.54,-0.09 247.57,-0.3 253.56,-0.67 259.51,-1.2 265.39,-1.9 271.19,-2.76 276.89,-3.78 282.48,-4.96 287.94,-6.3 293.26,-7.79 298.43,-9.42 303.42,-11.2 308.23,-13.11 312.83,-15.15 317.22,-17.31 321.37,-19.58 325.28,-21.95 328.94,-24.42 332.32,-26.96 335.43,-29.58 338.24,-32.26 340.74,-34.99 342.93,-37.76 344.8,-40.56"/>
<text text-anchor="middle" x="225.66" y="-44.65" font-family="sans-serif" font-size="16.00">atencionCliente</text>
</g>
<!-- compras -->
<g id="node2" class="node">
<title>compras</title>
<polygon fill="none" stroke="black" stroke-width="2" points="134.73,-525.68 129.48,-525.44 124.28,-525.09 119.16,-524.61 114.14,-524.02 109.23,-523.31 104.46,-522.49 99.84,-521.56 95.39,-520.52 91.14,-519.37 87.08,-518.13 83.25,-516.78 79.64,-515.34 76.28,-513.81 73.17,-512.19 70.32,-510.49 67.74,-508.71 65.43,-506.86 63.39,-504.94 61.64,-502.96 60.17,-500.92 58.98,-498.83 58.06,-496.69 57.43,-494.51 57.06,-492.3 56.97,-490.06 57.13,-487.8 57.54,-485.52 58.2,-483.24 59.09,-480.95 60.21,-478.66 61.55,-476.38 63.09,-474.12 64.82,-471.88 66.73,-469.67 68.81,-467.5 71.06,-465.36 73.44,-463.27 75.97,-461.23 78.61,-459.24 81.37,-457.32 84.23,-455.47 87.19,-453.69 90.23,-451.99 93.34,-450.37 96.51,-448.84 99.75,-447.4 103.03,-446.06 106.36,-444.81 109.72,-443.66 113.11,-442.62 116.54,-441.69 119.98,-440.87 123.44,-440.17 126.91,-439.57 130.4,-439.1 133.9,-438.74 137.4,-438.5 140.9,-438.38 144.41,-438.38 147.91,-438.5 151.41,-438.74 154.91,-439.1 158.4,-439.57 161.87,-440.17 165.33,-440.87 168.78,-441.69 172.2,-442.62 175.59,-443.66 178.95,-444.81 182.28,-446.06 185.56,-447.4 188.8,-448.84 191.97,-450.37 195.08,-451.99 198.12,-453.69 201.08,-455.47 203.94,-457.32 206.7,-459.24 209.35,-461.23 211.87,-463.27 214.26,-465.36 216.5,-467.5 218.58,-469.67 220.49,-471.88 222.22,-474.12 223.76,-476.38 225.1,-478.66 226.22,-480.95 227.11,-483.24 227.77,-485.52 228.18,-487.8 228.35,-490.06 228.25,-492.3 227.88,-494.51 227.25,-496.69 226.33,-498.83 225.14,-500.92 223.67,-502.96 221.92,-504.94 219.89,-506.86 217.58,-508.71 214.99,-510.49 212.14,-512.19 209.03,-513.81 205.67,-515.34 202.06,-516.78 198.23,-518.13 194.17,-519.37 189.92,-520.52 185.47,-521.56 180.85,-522.49 176.08,-523.31 171.17,-524.02 166.15,-524.61 161.03,-525.09 155.83,-525.44 150.58,-525.68 145.3,-525.8 140.01,-525.8 134.73,-525.68"/>
<text text-anchor="middle" x="142.66" y="-478.29" font-family="sans-serif" font-size="16.00">compras</text>
</g>
<!-- login -->
<g id="node3" class="node">
<title>login</title>
<polygon fill="none" stroke="black" stroke-width="2" points="117.89,-350.21 117.09,-353.02 116.14,-355.8 115.03,-358.51 113.78,-361.16 112.38,-363.74 110.84,-366.22 109.16,-368.61 107.36,-370.89 105.42,-373.06 103.37,-375.1 101.21,-377.02 98.93,-378.8 96.56,-380.43 94.09,-381.92 91.53,-383.25 88.89,-384.44 86.18,-385.46 83.4,-386.33 80.56,-387.04 77.67,-387.58 74.74,-387.97 71.76,-388.21 68.76,-388.28 65.74,-388.21 62.7,-387.99 59.66,-387.62 56.62,-387.12 53.59,-386.48 50.57,-385.72 47.58,-384.83 44.62,-383.83 41.7,-382.72 38.83,-381.51 36.01,-380.2 33.26,-378.8 30.57,-377.33 27.96,-375.78 25.43,-374.16 22.98,-372.48 20.64,-370.75 18.39,-368.97 16.25,-367.15 14.23,-365.3 12.32,-363.41 10.53,-361.5 8.88,-359.58 7.35,-357.63 5.97,-355.68 4.72,-353.71 3.62,-351.75 2.67,-349.78 1.87,-347.81 1.23,-345.85 0.74,-343.89 0.41,-341.94 0.24,-340.01 0.24,-338.08 0.39,-336.16 0.71,-334.26 1.18,-332.38 1.82,-330.51 2.62,-328.66 3.58,-326.83 4.7,-325.02 5.96,-323.23 7.38,-321.46 8.95,-319.72 10.66,-318.01 12.51,-316.33 14.5,-314.68 16.62,-313.06 18.86,-311.49 21.21,-309.95 23.68,-308.46 26.26,-307.03 28.93,-305.64 31.69,-304.32 34.54,-303.06 37.46,-301.87 40.44,-300.75 43.49,-299.71 46.58,-298.76 49.71,-297.9 52.87,-297.13 56.06,-296.47 59.25,-295.91 62.45,-295.47 65.64,-295.14 68.82,-294.93 71.97,-294.86 75.09,-294.91 78.16,-295.1 81.18,-295.43 84.14,-295.9 87.02,-296.51 89.83,-297.26 92.55,-298.17 95.18,-299.21 97.7,-300.41 100.11,-301.74 102.41,-303.22 104.58,-304.84 106.62,-306.59 108.53,-308.48 110.3,-310.49 111.92,-312.62 113.4,-314.86 114.72,-317.21 115.88,-319.66 116.89,-322.2 117.73,-324.81 118.41,-327.5 118.92,-330.25 119.27,-333.04 119.45,-335.88 119.47,-338.74 119.32,-341.61 119,-344.49 118.53,-347.36 117.89,-350.21"/>
<text text-anchor="middle" x="59.66" y="-336.77" font-family="sans-serif" font-size="16.00">login</text>
</g>
<!-- compras&#45;&gt;login -->
<g id="edge1" class="edge">
<title>compras&#45;&gt;login</title>
<path fill="none" stroke="black" stroke-width="2" d="M88.83,-452.26C77.54,-443.54 67.11,-432.86 60.66,-420.24 55.43,-410.02 53.53,-398.04 53.33,-386.55"/>
<text text-anchor="middle" x="136.16" y="-410.64" font-family="sans-serif" font-size="12.00"> &#160;&#160;&#160;&#160;&#160;&#160;&#160;&#160;&#160;&#160;&#160;&#160;&#160;&#160;&#160;&#160;&#160;&#160;&#160;&#160;&#160;&#160;&#160;&#160;&#160;&#160;&#160;&#160;&#160;&#160;&#160;&#160;&#160;&#160;&#160;&#160;&#160;&#160;&#160;</text>
<polygon fill="white" stroke="transparent" points="46.33,-377.55 46.33,-394.55 60.33,-394.55 60.33,-377.55 46.33,-377.55"/>
<text text-anchor="start" x="48.33" y="-382.95" font-family="sans-serif" font-size="12.00">D</text>
<polygon fill="white" stroke="transparent" points="81.83,-443.26 81.83,-460.26 95.83,-460.26 95.83,-443.26 81.83,-443.26"/>
<text text-anchor="start" x="83.83" y="-448.66" font-family="sans-serif" font-size="12.00">U</text>
</g>
<!-- ventas -->
<g id="node4" class="node">
<title>ventas</title>
<polygon fill="none" stroke="black" stroke-width="2" points="283.59,-169.61 286.24,-171.95 288.7,-174.35 290.98,-176.8 293.07,-179.28 294.94,-181.78 296.61,-184.3 298.05,-186.83 299.26,-189.35 300.23,-191.87 300.97,-194.36 301.47,-196.83 301.72,-199.27 301.72,-201.66 301.47,-204 300.98,-206.29 300.24,-208.51 299.26,-210.67 298.04,-212.76 296.59,-214.76 294.91,-216.69 293.01,-218.54 290.89,-220.3 288.58,-221.97 286.07,-223.55 283.37,-225.03 280.51,-226.42 277.48,-227.71 274.31,-228.91 271,-230.02 267.57,-231.02 264.03,-231.93 260.39,-232.75 256.67,-233.47 252.89,-234.1 249.05,-234.63 245.18,-235.07 241.27,-235.43 237.36,-235.69 233.44,-235.86 229.54,-235.95 225.67,-235.95 221.83,-235.86 218.05,-235.69 214.32,-235.43 210.66,-235.1 207.08,-234.68 203.6,-234.17 200.21,-233.59 196.92,-232.92 193.74,-232.18 190.69,-231.35 187.75,-230.44 184.95,-229.45 182.28,-228.38 179.74,-227.23 177.35,-226.01 175.1,-224.7 172.99,-223.31 171.03,-221.85 169.21,-220.31 167.55,-218.7 166.03,-217.01 164.67,-215.24 163.45,-213.41 162.38,-211.51 161.46,-209.54 160.69,-207.52 160.07,-205.43 159.59,-203.29 159.26,-201.1 159.07,-198.86 159.03,-196.58 159.14,-194.27 159.38,-191.92 159.77,-189.56 160.3,-187.18 160.97,-184.79 161.79,-182.4 162.74,-180.02 163.83,-177.65 165.06,-175.31 166.43,-172.99 167.94,-170.72 169.58,-168.5 171.36,-166.33 173.28,-164.23 175.32,-162.21 177.5,-160.26 179.81,-158.42 182.25,-156.67 184.81,-155.03 187.5,-153.5 190.3,-152.1 193.22,-150.82 196.25,-149.69 199.38,-148.69 202.61,-147.84 205.94,-147.14 209.35,-146.59 212.85,-146.2 216.41,-145.97 220.04,-145.9 223.72,-146 227.45,-146.25 231.21,-146.67 235,-147.24 238.79,-147.98 242.59,-148.86 246.38,-149.9 250.14,-151.09 253.87,-152.42 257.54,-153.88 261.16,-155.47 264.69,-157.19 268.14,-159.02 271.49,-160.95 274.72,-162.99 277.82,-165.12 280.78,-167.33 283.59,-169.61"/>
<text text-anchor="middle" x="225.66" y="-190.6" font-family="sans-serif" font-size="16.00">ventas</text>
</g>
<!-- compras&#45;&gt;ventas -->
<g id="edge2" class="edge">
<title>compras&#45;&gt;ventas</title>
<path fill="none" stroke="black" stroke-width="2" d="M189.46,-448.98C198.29,-440.67 206.39,-431 211.66,-420.24 227,-388.88 227.75,-291.94 226.8,-236.12"/>
<text text-anchor="middle" x="303.16" y="-337.47" font-family="sans-serif" font-size="12.00"> &#160;&#160;&#160;&#160;&#160;&#160;&#160;&#160;&#160;&#160;&#160;&#160;&#160;&#160;&#160;&#160;&#160;&#160;&#160;&#160;&#160;&#160;&#160;&#160;&#160;&#160;&#160;&#160;&#160;&#160;&#160;&#160;&#160;&#160;&#160;&#160;&#160;&#160;&#160;</text>
<polygon fill="white" stroke="transparent" points="203.8,-226.12 203.8,-245.12 219.8,-245.12 219.8,-226.12 203.8,-226.12"/>
<polyline fill="none" stroke="black" points="219.8,-226.12 219.8,-245.12 "/>
<text text-anchor="start" x="206.8" y="-232.52" font-family="sans-serif" font-size="12.00">D</text>
<polygon fill="white" stroke="transparent" points="219.8,-226.12 219.8,-245.12 249.8,-245.12 249.8,-226.12 219.8,-226.12"/>
<polygon fill="none" stroke="black" points="219.8,-226.12 219.8,-245.12 249.8,-245.12 249.8,-226.12 219.8,-226.12"/>
<text text-anchor="start" x="222.8" y="-232.52" font-family="sans-serif" font-size="12.00">ACL</text>
<polygon fill="white" stroke="transparent" points="182.46,-439.98 182.46,-456.98 196.46,-456.98 196.46,-439.98 182.46,-439.98"/>
<text text-anchor="start" x="184.46" y="-445.38" font-family="sans-serif" font-size="12.00">U</text>
</g>
<!-- login&#45;&gt;ventas -->
<g id="edge3" class="edge">
<title>login&#45;&gt;ventas</title>
<path fill="none" stroke="black" stroke-width="2" d="M51.6,-297.23C51.35,-284.61 53.45,-271.37 60.66,-260.9 82.93,-228.53 123.95,-212.16 159.51,-203.88"/>
<text text-anchor="middle" x="136.16" y="-264.3" font-family="sans-serif" font-size="12.00"> &#160;&#160;&#160;&#160;&#160;&#160;&#160;&#160;&#160;&#160;&#160;&#160;&#160;&#160;&#160;&#160;&#160;&#160;&#160;&#160;&#160;&#160;&#160;&#160;&#160;&#160;&#160;&#160;&#160;&#160;&#160;&#160;&#160;&#160;&#160;&#160;&#160;&#160;&#160;</text>
<polygon fill="white" stroke="transparent" points="152.51,-194.88 152.51,-211.88 166.51,-211.88 166.51,-194.88 152.51,-194.88"/>
<text text-anchor="start" x="154.51" y="-200.28" font-family="sans-serif" font-size="12.00">D</text>
<polygon fill="white" stroke="transparent" points="44.6,-288.23 44.6,-305.23 58.6,-305.23 58.6,-288.23 44.6,-288.23"/>
<text text-anchor="start" x="46.6" y="-293.63" font-family="sans-serif" font-size="12.00">U</text>
</g>
<!-- ventas&#45;&gt;atencionCliente -->
<g id="edge4" class="edge">
<title>ventas&#45;&gt;atencionCliente</title>
<path fill="none" stroke="black" stroke-width="2" d="M225.66,-145.87C225.66,-128.51 225.66,-108.99 225.66,-92.08"/>
<text text-anchor="middle" x="301.16" y="-118.3" font-family="sans-serif" font-size="12.00"> &#160;&#160;&#160;&#160;&#160;&#160;&#160;&#160;&#160;&#160;&#160;&#160;&#160;&#160;&#160;&#160;&#160;&#160;&#160;&#160;&#160;&#160;&#160;&#160;&#160;&#160;&#160;&#160;&#160;&#160;&#160;&#160;&#160;&#160;&#160;&#160;&#160;&#160;&#160;</text>
<polygon fill="white" stroke="transparent" points="202.66,-82.08 202.66,-101.08 218.66,-101.08 218.66,-82.08 202.66,-82.08"/>
<polyline fill="none" stroke="black" points="218.66,-82.08 218.66,-101.08 "/>
<text text-anchor="start" x="205.66" y="-88.48" font-family="sans-serif" font-size="12.00">D</text>
<polygon fill="white" stroke="transparent" points="218.66,-82.08 218.66,-101.08 248.66,-101.08 248.66,-82.08 218.66,-82.08"/>
<polygon fill="none" stroke="black" points="218.66,-82.08 218.66,-101.08 248.66,-101.08 248.66,-82.08 218.66,-82.08"/>
<text text-anchor="start" x="221.66" y="-88.48" font-family="sans-serif" font-size="12.00">ACL</text>
<polygon fill="white" stroke="transparent" points="218.66,-136.87 218.66,-153.87 232.66,-153.87 232.66,-136.87 218.66,-136.87"/>
<text text-anchor="start" x="220.66" y="-142.27" font-family="sans-serif" font-size="12.00">U</text>
</g>
<!-- devoluciones -->
<g id="node5" class="node">
<title>devoluciones</title>
<polygon fill="none" stroke="black" stroke-width="2" points="430.82,-310.7 435.49,-308.56 440.34,-306.51 445.37,-304.56 450.55,-302.72 455.85,-301.01 461.27,-299.42 466.79,-297.97 472.37,-296.66 478.01,-295.49 483.69,-294.48 489.39,-293.62 495.09,-292.92 500.77,-292.38 506.42,-292 512.03,-291.78 517.57,-291.73 523.04,-291.85 528.41,-292.12 533.69,-292.56 538.85,-293.15 543.89,-293.9 548.8,-294.79 553.56,-295.83 558.17,-297.01 562.63,-298.33 566.91,-299.77 571.03,-301.33 574.97,-303 578.73,-304.78 582.3,-306.65 585.68,-308.61 588.87,-310.65 591.86,-312.77 594.65,-314.94 597.24,-317.17 599.62,-319.44 601.8,-321.75 603.77,-324.09 605.52,-326.44 607.07,-328.81 608.4,-331.18 609.51,-333.55 610.4,-335.91 611.08,-338.25 611.53,-340.56 611.76,-342.84 611.76,-345.09 611.54,-347.3 611.09,-349.46 610.4,-351.57 609.48,-353.63 608.33,-355.63 606.95,-357.57 605.32,-359.45 603.47,-361.26 601.37,-363 599.04,-364.68 596.47,-366.28 593.66,-367.81 590.63,-369.27 587.36,-370.65 583.86,-371.96 580.14,-373.19 576.21,-374.35 572.06,-375.44 567.7,-376.44 563.14,-377.37 558.4,-378.22 553.47,-379 548.37,-379.7 543.12,-380.32 537.72,-380.85 532.18,-381.31 526.53,-381.69 520.78,-381.99 514.94,-382.2 509.03,-382.33 503.07,-382.37 497.08,-382.32 491.08,-382.19 485.08,-381.97 479.11,-381.65 473.19,-381.24 467.34,-380.74 461.58,-380.14 455.93,-379.44 450.42,-378.64 445.05,-377.75 439.87,-376.75 434.87,-375.65 430.09,-374.46 425.55,-373.16 421.25,-371.76 417.22,-370.26 413.47,-368.66 410.03,-366.97 406.89,-365.18 404.09,-363.31 401.61,-361.34 399.49,-359.29 397.72,-357.16 396.31,-354.95 395.26,-352.68 394.59,-350.34 394.29,-347.94 394.35,-345.5 394.79,-343.01 395.6,-340.48 396.77,-337.93 398.29,-335.36 400.17,-332.78 402.38,-330.2 404.92,-327.63 407.78,-325.08 410.95,-322.55 414.41,-320.07 418.14,-317.63 422.13,-315.25 426.36,-312.94 430.82,-310.7"/>
<text text-anchor="middle" x="509.66" y="-336.77" font-family="sans-serif" font-size="16.00">devoluciones</text>
</g>
<!-- devoluciones&#45;&gt;ventas -->
<g id="edge5" class="edge">
<title>devoluciones&#45;&gt;ventas</title>
<path fill="none" stroke="black" stroke-width="2" d="M442.71,-305.59C394.5,-281.11 330.09,-248.41 283.97,-225.01"/>
<text text-anchor="middle" x="451.16" y="-264.3" font-family="sans-serif" font-size="12.00"> &#160;&#160;&#160;&#160;&#160;&#160;&#160;&#160;&#160;&#160;&#160;&#160;&#160;&#160;&#160;&#160;&#160;&#160;&#160;&#160;&#160;&#160;&#160;&#160;&#160;&#160;&#160;&#160;&#160;&#160;&#160;&#160;&#160;&#160;&#160;&#160;&#160;&#160;&#160;</text>
<polygon fill="white" stroke="transparent" points="260.97,-215.01 260.97,-234.01 276.97,-234.01 276.97,-215.01 260.97,-215.01"/>
<polyline fill="none" stroke="black" points="276.97,-215.01 276.97,-234.01 "/>
<text text-anchor="start" x="263.97" y="-221.41" font-family="sans-serif" font-size="12.00">D</text>
<polygon fill="white" stroke="transparent" points="276.97,-215.01 276.97,-234.01 306.97,-234.01 306.97,-215.01 276.97,-215.01"/>
<polygon fill="none" stroke="black" points="276.97,-215.01 276.97,-234.01 306.97,-234.01 306.97,-215.01 276.97,-215.01"/>
<text text-anchor="start" x="279.97" y="-221.41" font-family="sans-serif" font-size="12.00">ACL</text>
<polygon fill="white" stroke="transparent" points="435.71,-296.59 435.71,-313.59 449.71,-313.59 449.71,-296.59 435.71,-296.59"/>
<text text-anchor="start" x="437.71" y="-301.99" font-family="sans-serif" font-size="12.00">U</text>
</g>
</g>
</svg>
