<svg width="2000px" height="607px"
 viewBox="0.00 0.00 2736.38 830.90" xmlns="http://www.w3.org/2000/svg" xmlns:xlink="http://www.w3.org/1999/xlink">
<g id="graph0" class="graph" transform="scale(1.0 1.0) rotate(0) translate(4 826.9)">
<title>ContextMapGraph</title>
<polygon fill="white" stroke="transparent" points="-4,4 -4,-826.9 2732.38,-826.9 2732.38,4 -4,4"/>
<!-- AnaliticasReportingContext -->
<g id="node1" class="node">
<title>AnaliticasReportingContext</title>
<polygon fill="none" stroke="black" stroke-width="2" points="153.63,-816.72 141.8,-815.99 130.19,-815.14 118.84,-814.18 107.8,-813.11 97.11,-811.94 86.81,-810.68 76.94,-809.31 67.55,-807.86 58.67,-806.32 50.33,-804.69 42.56,-802.99 35.39,-801.22 28.84,-799.38 22.93,-797.48 17.68,-795.52 13.09,-793.51 9.19,-791.45 5.97,-789.35 3.43,-787.21 1.58,-785.05 0.41,-782.86 -0.09,-780.65 0.07,-778.43 0.88,-776.2 2.31,-773.97 4.36,-771.74 7,-769.52 10.2,-767.31 13.94,-765.13 18.2,-762.96 22.94,-760.83 28.13,-758.73 33.75,-756.67 39.76,-754.66 46.14,-752.7 52.85,-750.79 59.85,-748.94 67.13,-747.16 74.66,-745.44 82.39,-743.8 90.3,-742.23 98.38,-740.74 106.58,-739.34 114.89,-738.03 123.29,-736.82 131.75,-735.69 140.25,-734.67 148.78,-733.75 157.32,-732.93 165.85,-732.22 174.36,-731.62 182.84,-731.14 191.27,-730.76 199.66,-730.51 207.98,-730.36 216.24,-730.34 224.42,-730.44 232.52,-730.65 240.53,-730.98 248.45,-731.44 256.28,-732.01 264,-732.69 271.62,-733.5 279.12,-734.42 286.51,-735.45 293.77,-736.59 300.9,-737.84 307.89,-739.19 314.72,-740.65 321.4,-742.2 327.91,-743.85 334.23,-745.59 340.35,-747.41 346.26,-749.31 351.94,-751.29 357.38,-753.34 362.55,-755.45 367.43,-757.62 372.01,-759.84 376.26,-762.1 380.17,-764.41 383.7,-766.74 386.85,-769.1 389.58,-771.48 391.88,-773.86 393.72,-776.25 395.08,-778.64 395.94,-781.02 396.29,-783.37 396.09,-785.71 395.35,-788 394.05,-790.26 392.16,-792.48 389.69,-794.64 386.62,-796.74 382.95,-798.77 378.67,-800.74 373.79,-802.62 368.32,-804.42 362.25,-806.13 355.59,-807.75 348.37,-809.27 340.59,-810.69 332.28,-812 323.45,-813.2 314.15,-814.29 304.38,-815.26 294.19,-816.11 283.61,-816.85 272.68,-817.45 261.43,-817.94 249.92,-818.3 238.17,-818.54 226.25,-818.65 214.19,-818.63 202.05,-818.49 189.87,-818.23 177.71,-817.85 165.61,-817.35 153.63,-816.72"/>
<text text-anchor="middle" x="204.09" y="-770.41" font-family="sans-serif" font-size="16.00">AnaliticasReportingContext</text>
</g>
<!-- VentasContext -->
<g id="node2" class="node">
<title>VentasContext</title>
<polygon fill="none" stroke="black" stroke-width="2" points="919.83,-671.59 912.38,-671.3 905.01,-670.89 897.75,-670.37 890.64,-669.73 883.69,-668.97 876.95,-668.11 870.43,-667.13 864.15,-666.05 858.16,-664.87 852.45,-663.58 847.06,-662.2 842,-660.73 837.29,-659.16 832.94,-657.52 828.97,-655.79 825.38,-653.98 822.18,-652.11 819.38,-650.17 816.98,-648.17 814.98,-646.12 813.38,-644.02 812.18,-641.88 811.37,-639.69 810.96,-637.48 810.92,-635.24 811.25,-632.98 811.95,-630.71 812.99,-628.43 814.36,-626.15 816.06,-623.88 818.06,-621.61 820.35,-619.37 822.91,-617.15 825.73,-614.95 828.79,-612.8 832.08,-610.68 835.57,-608.61 839.25,-606.6 843.1,-604.64 847.11,-602.75 851.26,-600.93 855.54,-599.17 859.94,-597.5 864.43,-595.91 869.02,-594.41 873.68,-593 878.41,-591.69 883.2,-590.48 888.03,-589.36 892.9,-588.36 897.81,-587.46 902.74,-586.67 907.69,-586 912.66,-585.44 917.64,-584.99 922.62,-584.67 927.61,-584.46 932.6,-584.38 937.58,-584.41 942.56,-584.56 947.52,-584.84 952.47,-585.23 957.41,-585.74 962.32,-586.36 967.21,-587.1 972.07,-587.95 976.89,-588.92 981.67,-589.99 986.39,-591.16 991.07,-592.44 995.67,-593.82 1000.2,-595.29 1004.65,-596.85 1008.99,-598.5 1013.23,-600.23 1017.35,-602.03 1021.34,-603.91 1025.17,-605.86 1028.84,-607.86 1032.34,-609.93 1035.64,-612.04 1038.72,-614.2 1041.59,-616.39 1044.2,-618.62 1046.56,-620.88 1048.65,-623.15 1050.44,-625.44 1051.93,-627.73 1053.09,-630.03 1053.92,-632.32 1054.41,-634.6 1054.54,-636.86 1054.29,-639.1 1053.67,-641.31 1052.67,-643.48 1051.28,-645.61 1049.49,-647.69 1047.3,-649.71 1044.72,-651.68 1041.74,-653.58 1038.37,-655.41 1034.62,-657.16 1030.49,-658.83 1026,-660.42 1021.15,-661.92 1015.95,-663.33 1010.44,-664.64 1004.62,-665.84 998.52,-666.95 992.15,-667.94 985.55,-668.83 978.72,-669.61 971.72,-670.27 964.55,-670.81 957.25,-671.24 949.85,-671.55 942.37,-671.74 934.86,-671.81 927.33,-671.76 919.83,-671.59"/>
<text text-anchor="middle" x="933.09" y="-624.29" font-family="sans-serif" font-size="16.00">VentasContext</text>
</g>
<!-- AnaliticasReportingContext&#45;&gt;VentasContext -->
<g id="edge1" class="edge">
<title>AnaliticasReportingContext&#45;&gt;VentasContext</title>
<path fill="none" stroke="black" stroke-width="2" d="M329.8,-744.29C358.45,-737.91 388.79,-731.33 417.09,-725.52 554.68,-697.27 713.63,-668.08 818.35,-649.32"/>
<text text-anchor="middle" x="607.59" y="-697.92" font-family="sans-serif" font-size="12.00">Partnership</text>
</g>
<!-- AutenticacionAutorizacionContext -->
<g id="node3" class="node">
<title>AutenticacionAutorizacionContext</title>
<polygon fill="none" stroke="black" stroke-width="2" points="2171.14,-733.79 2184.86,-734.85 2198.25,-736.02 2211.26,-737.29 2223.84,-738.65 2235.93,-740.11 2247.49,-741.65 2258.47,-743.27 2268.82,-744.97 2278.51,-746.74 2287.5,-748.58 2295.75,-750.47 2303.25,-752.42 2309.95,-754.42 2315.85,-756.46 2320.93,-758.54 2325.17,-760.65 2328.57,-762.79 2331.12,-764.95 2332.83,-767.12 2333.7,-769.31 2333.74,-771.5 2332.96,-773.68 2331.38,-775.87 2329.02,-778.04 2325.9,-780.2 2322.06,-782.33 2317.51,-784.44 2312.29,-786.52 2306.44,-788.57 2299.99,-790.58 2292.97,-792.54 2285.44,-794.46 2277.41,-796.33 2268.95,-798.14 2260.08,-799.89 2250.84,-801.58 2241.28,-803.2 2231.44,-804.75 2221.35,-806.22 2211.05,-807.62 2200.58,-808.94 2189.97,-810.17 2179.26,-811.31 2168.47,-812.36 2157.65,-813.33 2146.8,-814.19 2135.97,-814.95 2125.17,-815.62 2114.42,-816.18 2103.75,-816.63 2093.17,-816.98 2082.7,-817.22 2072.35,-817.34 2062.13,-817.36 2052.07,-817.26 2042.15,-817.05 2032.4,-816.72 2022.82,-816.28 2013.42,-815.72 2004.21,-815.05 1995.18,-814.27 1986.35,-813.37 1977.71,-812.36 1969.29,-811.24 1961.07,-810.02 1953.08,-808.68 1945.31,-807.25 1937.78,-805.72 1930.48,-804.09 1923.45,-802.37 1916.67,-800.56 1910.18,-798.67 1903.97,-796.7 1898.07,-794.66 1892.49,-792.55 1887.26,-790.38 1882.38,-788.16 1877.87,-785.88 1873.77,-783.57 1870.08,-781.22 1866.83,-778.84 1864.05,-776.44 1861.75,-774.02 1859.96,-771.61 1858.69,-769.19 1857.98,-766.78 1857.84,-764.4 1858.29,-762.03 1859.35,-759.7 1861.03,-757.41 1863.35,-755.17 1866.33,-752.98 1869.97,-750.86 1874.29,-748.8 1879.28,-746.82 1884.95,-744.92 1891.3,-743.11 1898.33,-741.39 1906.02,-739.78 1914.37,-738.26 1923.36,-736.86 1932.97,-735.57 1943.18,-734.39 1953.97,-733.34 1965.3,-732.41 1977.14,-731.61 1989.46,-730.93 2002.21,-730.38 2015.35,-729.96 2028.84,-729.67 2042.63,-729.52 2056.66,-729.49 2070.89,-729.59 2085.26,-729.82 2099.7,-730.18 2114.18,-730.66 2128.62,-731.27 2142.96,-731.99 2157.16,-732.83 2171.14,-733.79"/>
<text text-anchor="middle" x="2084.09" y="-770.41" font-family="sans-serif" font-size="16.00">AutenticacionAutorizacionContext</text>
</g>
<!-- CarritoComprasContext -->
<g id="node4" class="node">
<title>CarritoComprasContext</title>
<polygon fill="none" stroke="black" stroke-width="2" points="2219.44,-602.7 2225.85,-605.01 2231.84,-607.38 2237.39,-609.8 2242.48,-612.25 2247.09,-614.73 2251.18,-617.23 2254.75,-619.74 2257.79,-622.24 2260.26,-624.74 2262.17,-627.23 2263.5,-629.69 2264.25,-632.11 2264.41,-634.5 2263.98,-636.84 2262.97,-639.13 2261.37,-641.36 2259.19,-643.53 2256.45,-645.62 2253.14,-647.64 2249.3,-649.59 2244.93,-651.45 2240.05,-653.23 2234.68,-654.92 2228.85,-656.52 2222.58,-658.04 2215.9,-659.46 2208.83,-660.78 2201.4,-662.01 2193.65,-663.15 2185.6,-664.19 2177.29,-665.14 2168.75,-665.99 2160.01,-666.75 2151.1,-667.42 2142.06,-668 2132.93,-668.48 2123.72,-668.88 2114.48,-669.18 2105.24,-669.4 2096.02,-669.52 2086.86,-669.57 2077.79,-669.52 2068.82,-669.39 2059.99,-669.18 2051.32,-668.88 2042.84,-668.5 2034.56,-668.04 2026.5,-667.49 2018.69,-666.86 2011.13,-666.15 2003.85,-665.36 1996.85,-664.48 1990.16,-663.52 1983.77,-662.49 1977.7,-661.37 1971.96,-660.17 1966.55,-658.89 1961.47,-657.53 1956.74,-656.09 1952.35,-654.57 1948.31,-652.98 1944.61,-651.31 1941.26,-649.56 1938.26,-647.74 1935.61,-645.86 1933.31,-643.91 1931.35,-641.89 1929.74,-639.81 1928.47,-637.68 1927.55,-635.49 1926.96,-633.26 1926.71,-630.99 1926.81,-628.68 1927.23,-626.34 1928,-623.97 1929.09,-621.59 1930.52,-619.2 1932.29,-616.8 1934.38,-614.41 1936.81,-612.04 1939.56,-609.68 1942.65,-607.36 1946.06,-605.07 1949.8,-602.83 1953.87,-600.65 1958.26,-598.53 1962.96,-596.49 1967.99,-594.53 1973.33,-592.66 1978.97,-590.88 1984.93,-589.22 1991.17,-587.67 1997.71,-586.23 2004.52,-584.93 2011.61,-583.76 2018.95,-582.73 2026.54,-581.85 2034.36,-581.11 2042.39,-580.53 2050.63,-580.1 2059.04,-579.83 2067.62,-579.73 2076.33,-579.78 2085.16,-579.99 2094.08,-580.37 2103.07,-580.9 2112.09,-581.59 2121.13,-582.44 2130.15,-583.43 2139.13,-584.57 2148.03,-585.86 2156.81,-587.28 2165.46,-588.83 2173.94,-590.5 2182.22,-592.29 2190.26,-594.19 2198.03,-596.19 2205.5,-598.28 2212.65,-600.45 2219.44,-602.7"/>
<text text-anchor="middle" x="2084.09" y="-624.29" font-family="sans-serif" font-size="16.00">CarritoComprasContext</text>
</g>
<!-- AutenticacionAutorizacionContext&#45;&gt;CarritoComprasContext -->
<g id="edge2" class="edge">
<title>AutenticacionAutorizacionContext&#45;&gt;CarritoComprasContext</title>
<path fill="none" stroke="black" stroke-width="2" d="M2084.09,-729.58C2084.09,-710.52 2084.09,-688.31 2084.09,-669.62"/>
<text text-anchor="middle" x="2140.09" y="-697.92" font-family="sans-serif" font-size="12.00">Customer/Supplier</text>
<polygon fill="white" stroke="transparent" points="2077.09,-660.62 2077.09,-677.62 2091.09,-677.62 2091.09,-660.62 2077.09,-660.62"/>
<text text-anchor="start" x="2079.09" y="-666.02" font-family="sans-serif" font-size="12.00">D</text>
<polygon fill="white" stroke="transparent" points="2077.09,-720.58 2077.09,-737.58 2091.09,-737.58 2091.09,-720.58 2077.09,-720.58"/>
<text text-anchor="start" x="2079.09" y="-725.98" font-family="sans-serif" font-size="12.00">U</text>
</g>
<!-- GestionClientesContext -->
<g id="node5" class="node">
<title>GestionClientesContext</title>
<polygon fill="none" stroke="black" stroke-width="2" points="1780.35,-445.43 1789.61,-443.94 1799.05,-442.56 1808.62,-441.3 1818.29,-440.17 1828.02,-439.17 1837.77,-438.3 1847.52,-437.58 1857.22,-437 1866.84,-436.56 1876.35,-436.27 1885.72,-436.14 1894.92,-436.15 1903.91,-436.32 1912.68,-436.63 1921.21,-437.1 1929.46,-437.72 1937.41,-438.49 1945.06,-439.4 1952.38,-440.45 1959.36,-441.64 1965.99,-442.96 1972.26,-444.41 1978.16,-445.97 1983.68,-447.66 1988.83,-449.45 1993.58,-451.34 1997.96,-453.33 2001.94,-455.4 2005.55,-457.56 2008.77,-459.78 2011.61,-462.06 2014.08,-464.4 2016.18,-466.78 2017.92,-469.19 2019.3,-471.63 2020.32,-474.1 2021,-476.57 2021.35,-479.04 2021.35,-481.5 2021.03,-483.95 2020.39,-486.38 2019.44,-488.78 2018.17,-491.14 2016.6,-493.46 2014.72,-495.73 2012.55,-497.94 2010.09,-500.09 2007.33,-502.18 2004.28,-504.19 2000.95,-506.13 1997.33,-507.99 1993.43,-509.76 1989.25,-511.45 1984.79,-513.05 1980.05,-514.56 1975.04,-515.97 1969.75,-517.29 1964.19,-518.52 1958.36,-519.64 1952.27,-520.67 1945.92,-521.6 1939.31,-522.44 1932.46,-523.17 1925.36,-523.8 1918.04,-524.34 1910.49,-524.78 1902.73,-525.12 1894.78,-525.36 1886.64,-525.51 1878.34,-525.57 1869.89,-525.53 1861.31,-525.39 1852.63,-525.17 1843.85,-524.85 1835.02,-524.44 1826.16,-523.94 1817.28,-523.35 1808.42,-522.68 1799.62,-521.91 1790.89,-521.06 1782.27,-520.13 1773.79,-519.11 1765.49,-518 1757.39,-516.82 1749.53,-515.55 1741.95,-514.2 1734.67,-512.78 1727.73,-511.27 1721.15,-509.7 1714.97,-508.05 1709.22,-506.33 1703.93,-504.54 1699.11,-502.68 1694.8,-500.76 1691.02,-498.79 1687.78,-496.75 1685.11,-494.67 1683.02,-492.53 1681.53,-490.35 1680.64,-488.14 1680.36,-485.89 1680.7,-483.61 1681.66,-481.31 1683.23,-478.99 1685.41,-476.66 1688.2,-474.33 1691.59,-472 1695.56,-469.68 1700.09,-467.38 1705.17,-465.1 1710.77,-462.86 1716.88,-460.66 1723.47,-458.51 1730.5,-456.41 1737.95,-454.37 1745.8,-452.41 1753.99,-450.53 1762.51,-448.73 1771.31,-447.03 1780.35,-445.43"/>
<text text-anchor="middle" x="1864.09" y="-479.68" font-family="sans-serif" font-size="16.00">GestionClientesContext</text>
</g>
<!-- CarritoComprasContext&#45;&gt;GestionClientesContext -->
<g id="edge3" class="edge">
<title>CarritoComprasContext&#45;&gt;GestionClientesContext</title>
<path fill="none" stroke="black" stroke-width="2" d="M1942.38,-607.42C1889.77,-596.98 1838.97,-582 1823.09,-561.66 1814.23,-550.29 1817.59,-536.74 1825.32,-524.18"/>
<text text-anchor="middle" x="1879.09" y="-552.06" font-family="sans-serif" font-size="12.00">Customer/Supplier</text>
<polygon fill="white" stroke="transparent" points="1818.32,-515.18 1818.32,-532.18 1832.32,-532.18 1832.32,-515.18 1818.32,-515.18"/>
<text text-anchor="start" x="1820.32" y="-520.58" font-family="sans-serif" font-size="12.00">D</text>
<polygon fill="white" stroke="transparent" points="1935.38,-598.42 1935.38,-615.42 1949.38,-615.42 1949.38,-598.42 1935.38,-598.42"/>
<text text-anchor="start" x="1937.38" y="-603.82" font-family="sans-serif" font-size="12.00">U</text>
</g>
<!-- GestionProductosContext -->
<g id="node6" class="node">
<title>GestionProductosContext</title>
<polygon fill="none" stroke="black" stroke-width="2" points="2229.14,-314.02 2235.75,-316.36 2241.93,-318.76 2247.64,-321.21 2252.86,-323.68 2257.56,-326.19 2261.72,-328.71 2265.32,-331.24 2268.36,-333.76 2270.8,-336.28 2272.65,-338.77 2273.89,-341.24 2274.51,-343.67 2274.51,-346.07 2273.9,-348.41 2272.66,-350.69 2270.81,-352.92 2268.36,-355.08 2265.3,-357.16 2261.67,-359.17 2257.46,-361.1 2252.71,-362.95 2247.42,-364.71 2241.62,-366.37 2235.33,-367.95 2228.59,-369.44 2221.42,-370.83 2213.84,-372.12 2205.89,-373.32 2197.61,-374.42 2189.02,-375.43 2180.15,-376.34 2171.05,-377.16 2161.74,-377.88 2152.27,-378.5 2142.66,-379.04 2132.96,-379.48 2123.19,-379.83 2113.39,-380.1 2103.59,-380.27 2093.83,-380.35 2084.13,-380.35 2074.52,-380.27 2065.04,-380.1 2055.71,-379.84 2046.55,-379.5 2037.6,-379.08 2028.87,-378.58 2020.38,-378 2012.15,-377.33 2004.2,-376.58 1996.55,-375.76 1989.21,-374.85 1982.18,-373.86 1975.5,-372.79 1969.15,-371.64 1963.15,-370.41 1957.52,-369.11 1952.24,-367.72 1947.33,-366.26 1942.79,-364.72 1938.62,-363.1 1934.83,-361.41 1931.4,-359.65 1928.36,-357.82 1925.68,-355.92 1923.38,-353.95 1921.45,-351.92 1919.89,-349.84 1918.7,-347.7 1917.87,-345.5 1917.4,-343.27 1917.3,-340.99 1917.56,-338.67 1918.18,-336.33 1919.15,-333.97 1920.48,-331.59 1922.16,-329.2 1924.19,-326.81 1926.58,-324.43 1929.31,-322.06 1932.39,-319.71 1935.82,-317.4 1939.59,-315.13 1943.71,-312.9 1948.17,-310.74 1952.96,-308.64 1958.08,-306.61 1963.54,-304.67 1969.32,-302.82 1975.42,-301.07 1981.84,-299.43 1988.56,-297.91 1995.58,-296.51 2002.88,-295.23 2010.46,-294.09 2018.31,-293.1 2026.4,-292.25 2034.73,-291.55 2043.28,-291 2052.02,-290.61 2060.95,-290.38 2070.03,-290.31 2079.25,-290.4 2088.58,-290.66 2098,-291.07 2107.48,-291.65 2116.98,-292.38 2126.49,-293.27 2135.97,-294.31 2145.39,-295.5 2154.72,-296.82 2163.92,-298.29 2172.97,-299.88 2181.83,-301.59 2190.46,-303.42 2198.84,-305.36 2206.93,-307.4 2214.69,-309.53 2222.11,-311.73 2229.14,-314.02"/>
<text text-anchor="middle" x="2084.09" y="-335.01" font-family="sans-serif" font-size="16.00">GestionProductosContext</text>
</g>
<!-- CarritoComprasContext&#45;&gt;GestionProductosContext -->
<g id="edge4" class="edge">
<title>CarritoComprasContext&#45;&gt;GestionProductosContext</title>
<path fill="none" stroke="black" stroke-width="2" d="M2084.09,-579.65C2084.09,-524.19 2084.09,-433.32 2084.09,-380.8"/>
<text text-anchor="middle" x="2140.09" y="-480.38" font-family="sans-serif" font-size="12.00">Customer/Supplier</text>
<polygon fill="white" stroke="transparent" points="2077.09,-371.8 2077.09,-388.8 2091.09,-388.8 2091.09,-371.8 2077.09,-371.8"/>
<text text-anchor="start" x="2079.09" y="-377.2" font-family="sans-serif" font-size="12.00">D</text>
<polygon fill="white" stroke="transparent" points="2077.09,-570.65 2077.09,-587.65 2091.09,-587.65 2091.09,-570.65 2077.09,-570.65"/>
<text text-anchor="start" x="2079.09" y="-576.05" font-family="sans-serif" font-size="12.00">U</text>
</g>
<!-- GestionClientesContext&#45;&gt;CarritoComprasContext -->
<g id="edge6" class="edge">
<title>GestionClientesContext&#45;&gt;CarritoComprasContext</title>
<path fill="none" stroke="black" stroke-width="2" d="M1909.47,-524.95C1924.45,-537.42 1941.52,-550.73 1958.09,-561.66 1970.85,-570.07 1984.82,-578.25 1998.66,-585.81"/>
<text text-anchor="middle" x="2014.09" y="-552.06" font-family="sans-serif" font-size="12.00">Customer/Supplier</text>
<polygon fill="white" stroke="transparent" points="1991.66,-576.81 1991.66,-593.81 2005.66,-593.81 2005.66,-576.81 1991.66,-576.81"/>
<text text-anchor="start" x="1993.66" y="-582.21" font-family="sans-serif" font-size="12.00">D</text>
<polygon fill="white" stroke="transparent" points="1902.47,-515.95 1902.47,-532.95 1916.47,-532.95 1916.47,-515.95 1902.47,-515.95"/>
<text text-anchor="start" x="1904.47" y="-521.35" font-family="sans-serif" font-size="12.00">U</text>
</g>
<!-- GestionClientesContext&#45;&gt;GestionProductosContext -->
<g id="edge5" class="edge">
<title>GestionClientesContext&#45;&gt;GestionProductosContext</title>
<path fill="none" stroke="black" stroke-width="2" d="M1863.01,-436.48C1864.82,-425.23 1868.67,-413.95 1876.09,-405.31 1892.5,-386.22 1914.42,-372.62 1937.88,-362.96"/>
<text text-anchor="middle" x="1918.09" y="-408.71" font-family="sans-serif" font-size="12.00">Shared Kernel</text>
</g>
<!-- GestionProductosContext&#45;&gt;CarritoComprasContext -->
<g id="edge9" class="edge">
<title>GestionProductosContext&#45;&gt;CarritoComprasContext</title>
<path fill="none" stroke="black" stroke-width="2" d="M2150.27,-378.62C2170.04,-393.88 2189.3,-413.3 2200.09,-436.31 2217.89,-474.27 2217.9,-492.69 2200.09,-530.66 2189.75,-552.71 2171.61,-571.46 2152.71,-586.41"/>
<text text-anchor="middle" x="2270.09" y="-480.38" font-family="sans-serif" font-size="12.00">Customer/Supplier</text>
<polygon fill="white" stroke="transparent" points="2145.71,-577.41 2145.71,-594.41 2159.71,-594.41 2159.71,-577.41 2145.71,-577.41"/>
<text text-anchor="start" x="2147.71" y="-582.81" font-family="sans-serif" font-size="12.00">D</text>
<polygon fill="white" stroke="transparent" points="2143.27,-369.62 2143.27,-386.62 2157.27,-386.62 2157.27,-369.62 2143.27,-369.62"/>
<text text-anchor="start" x="2145.27" y="-375.02" font-family="sans-serif" font-size="12.00">U</text>
</g>
<!-- GestionProductosContext&#45;&gt;GestionClientesContext -->
<g id="edge8" class="edge">
<title>GestionProductosContext&#45;&gt;GestionClientesContext</title>
<path fill="none" stroke="black" stroke-width="2" d="M2024.44,-378.49C1996.14,-396.85 1962.17,-418.88 1932.8,-437.93"/>
<text text-anchor="middle" x="2023.09" y="-408.71" font-family="sans-serif" font-size="12.00">Shared Kernel</text>
</g>
<!-- GestionDevolucionesContext -->
<g id="node7" class="node">
<title>GestionDevolucionesContext</title>
<polygon fill="none" stroke="black" stroke-width="2" points="2015.98,-231.05 2004.63,-229.71 1993.61,-228.27 1982.97,-226.74 1972.74,-225.12 1962.98,-223.42 1953.73,-221.65 1945.01,-219.8 1936.86,-217.89 1929.33,-215.93 1922.42,-213.91 1916.18,-211.85 1910.63,-209.75 1905.77,-207.62 1901.63,-205.46 1898.22,-203.28 1895.55,-201.09 1893.62,-198.88 1892.42,-196.67 1891.97,-194.47 1892.24,-192.27 1893.23,-190.08 1894.93,-187.91 1897.32,-185.76 1900.37,-183.64 1904.08,-181.55 1908.4,-179.5 1913.31,-177.48 1918.8,-175.51 1924.81,-173.58 1931.32,-171.71 1938.3,-169.89 1945.71,-168.13 1953.51,-166.43 1961.67,-164.79 1970.15,-163.22 1978.92,-161.72 1987.93,-160.3 1997.16,-158.95 2006.56,-157.68 2016.11,-156.5 2025.77,-155.4 2035.51,-154.38 2045.29,-153.46 2055.1,-152.62 2064.9,-151.88 2074.67,-151.24 2084.39,-150.7 2094.03,-150.25 2103.57,-149.91 2113,-149.68 2122.3,-149.54 2131.45,-149.52 2140.45,-149.6 2149.28,-149.8 2157.92,-150.1 2166.39,-150.51 2174.65,-151.04 2182.72,-151.67 2190.57,-152.42 2198.22,-153.28 2205.65,-154.25 2212.85,-155.32 2219.84,-156.51 2226.59,-157.79 2233.11,-159.19 2239.39,-160.68 2245.42,-162.27 2251.21,-163.95 2256.75,-165.73 2262.02,-167.59 2267.02,-169.53 2271.74,-171.55 2276.18,-173.64 2280.32,-175.8 2284.15,-178.02 2287.65,-180.3 2290.82,-182.62 2293.65,-184.98 2296.11,-187.38 2298.19,-189.8 2299.88,-192.24 2301.16,-194.7 2302.01,-197.15 2302.43,-199.6 2302.39,-202.04 2301.88,-204.46 2300.88,-206.85 2299.38,-209.2 2297.38,-211.51 2294.85,-213.76 2291.79,-215.95 2288.2,-218.08 2284.06,-220.13 2279.37,-222.09 2274.13,-223.97 2268.34,-225.75 2262.01,-227.43 2255.13,-229 2247.73,-230.46 2239.82,-231.8 2231.39,-233.02 2222.49,-234.11 2213.12,-235.08 2203.31,-235.91 2193.09,-236.61 2182.49,-237.17 2171.54,-237.6 2160.27,-237.89 2148.72,-238.04 2136.94,-238.05 2124.96,-237.93 2112.82,-237.67 2100.59,-237.28 2088.29,-236.76 2075.98,-236.1 2063.71,-235.33 2051.52,-234.43 2039.47,-233.42 2027.61,-232.29 2015.98,-231.05"/>
<text text-anchor="middle" x="2110.09" y="-188.65" font-family="sans-serif" font-size="16.00">GestionDevolucionesContext</text>
</g>
<!-- GestionProductosContext&#45;&gt;GestionDevolucionesContext -->
<g id="edge7" class="edge">
<title>GestionProductosContext&#45;&gt;GestionDevolucionesContext</title>
<path fill="none" stroke="black" stroke-width="2" d="M2092.61,-290.54C2095.69,-273.44 2099.15,-254.21 2102.18,-237.4"/>
<text text-anchor="middle" x="2173.59" y="-262.71" font-family="sans-serif" font-size="12.00"> &#160;&#160;&#160;&#160;&#160;&#160;&#160;&#160;&#160;&#160;&#160;&#160;&#160;&#160;&#160;&#160;&#160;&#160;&#160;&#160;&#160;&#160;&#160;&#160;&#160;&#160;&#160;&#160;&#160;&#160;&#160;&#160;&#160;&#160;&#160;&#160;&#160;&#160;&#160;</text>
<polygon fill="white" stroke="transparent" points="2083.18,-227.4 2083.18,-246.4 2099.18,-246.4 2099.18,-227.4 2083.18,-227.4"/>
<polyline fill="none" stroke="black" points="2099.18,-227.4 2099.18,-246.4 "/>
<text text-anchor="start" x="2086.18" y="-233.8" font-family="sans-serif" font-size="12.00">D</text>
<polygon fill="white" stroke="transparent" points="2099.18,-227.4 2099.18,-246.4 2121.18,-246.4 2121.18,-227.4 2099.18,-227.4"/>
<polygon fill="none" stroke="black" points="2099.18,-227.4 2099.18,-246.4 2121.18,-246.4 2121.18,-227.4 2099.18,-227.4"/>
<text text-anchor="start" x="2102.18" y="-233.8" font-family="sans-serif" font-size="12.00">CF</text>
<polygon fill="white" stroke="transparent" points="2057.61,-280.54 2057.61,-299.54 2073.61,-299.54 2073.61,-280.54 2057.61,-280.54"/>
<polyline fill="none" stroke="black" points="2073.61,-280.54 2073.61,-299.54 "/>
<text text-anchor="start" x="2060.61" y="-286.94" font-family="sans-serif" font-size="12.00">U</text>
<polygon fill="white" stroke="transparent" points="2073.61,-280.54 2073.61,-299.54 2128.61,-299.54 2128.61,-280.54 2073.61,-280.54"/>
<polygon fill="none" stroke="black" points="2073.61,-280.54 2073.61,-299.54 2128.61,-299.54 2128.61,-280.54 2073.61,-280.54"/>
<text text-anchor="start" x="2076.61" y="-286.94" font-family="sans-serif" font-size="12.00">OHS, PL</text>
</g>
<!-- GestionPedidosContext -->
<g id="node8" class="node">
<title>GestionPedidosContext</title>
<polygon fill="none" stroke="black" stroke-width="2" points="2393.19,-84.65 2384.15,-86.17 2374.93,-87.58 2365.56,-88.87 2356.1,-90.04 2346.56,-91.08 2336.99,-91.98 2327.42,-92.75 2317.88,-93.37 2308.41,-93.85 2299.05,-94.18 2289.81,-94.36 2280.74,-94.38 2271.85,-94.26 2263.17,-93.99 2254.73,-93.56 2246.55,-92.98 2238.65,-92.26 2231.05,-91.39 2223.75,-90.38 2216.79,-89.24 2210.16,-87.96 2203.88,-86.55 2197.96,-85.02 2192.4,-83.38 2187.21,-81.63 2182.39,-79.77 2177.95,-77.82 2173.88,-75.78 2170.18,-73.66 2166.86,-71.47 2163.9,-69.22 2161.32,-66.92 2159.09,-64.57 2157.22,-62.18 2155.7,-59.76 2154.53,-57.32 2153.7,-54.88 2153.2,-52.43 2153.03,-49.98 2153.19,-47.55 2153.67,-45.14 2154.45,-42.75 2155.55,-40.41 2156.95,-38.1 2158.66,-35.84 2160.66,-33.64 2162.95,-31.49 2165.54,-29.41 2168.41,-27.4 2171.58,-25.46 2175.02,-23.6 2178.76,-21.83 2182.77,-20.13 2187.07,-18.52 2191.65,-17.01 2196.51,-15.58 2201.64,-14.25 2207.05,-13.01 2212.72,-11.86 2218.67,-10.81 2224.88,-9.86 2231.34,-9 2238.06,-8.25 2245.02,-7.58 2252.22,-7.02 2259.64,-6.55 2267.27,-6.17 2275.1,-5.89 2283.12,-5.71 2291.31,-5.62 2299.65,-5.62 2308.12,-5.71 2316.71,-5.9 2325.38,-6.17 2334.13,-6.54 2342.91,-6.99 2351.71,-7.53 2360.49,-8.16 2369.23,-8.88 2377.9,-9.68 2386.46,-10.57 2394.9,-11.55 2403.16,-12.6 2411.23,-13.74 2419.06,-14.96 2426.63,-16.26 2433.91,-17.64 2440.86,-19.1 2447.45,-20.63 2453.65,-22.24 2459.44,-23.92 2464.78,-25.67 2469.65,-27.49 2474.03,-29.37 2477.89,-31.32 2481.22,-33.32 2483.98,-35.38 2486.18,-37.48 2487.8,-39.64 2488.82,-41.83 2489.24,-44.06 2489.05,-46.33 2488.26,-48.61 2486.86,-50.92 2484.85,-53.24 2482.25,-55.57 2479.06,-57.89 2475.3,-60.21 2470.97,-62.51 2466.11,-64.79 2460.72,-67.04 2454.84,-69.25 2448.48,-71.42 2441.67,-73.53 2434.45,-75.58 2426.84,-77.57 2418.87,-79.47 2410.58,-81.29 2402.01,-83.02 2393.19,-84.65"/>
<text text-anchor="middle" x="2308.09" y="-43.49" font-family="sans-serif" font-size="16.00">GestionPedidosContext</text>
</g>
<!-- GestionDevolucionesContext&#45;&gt;GestionPedidosContext -->
<g id="edge10" class="edge">
<title>GestionDevolucionesContext&#45;&gt;GestionPedidosContext</title>
<path fill="none" stroke="black" stroke-width="2" d="M2101.65,-149.95C2101.22,-136.92 2103.31,-123.18 2111.09,-112.59 2124.94,-93.75 2144.46,-80.33 2165.88,-70.8"/>
<text text-anchor="middle" x="2167.09" y="-115.99" font-family="sans-serif" font-size="12.00">Customer/Supplier</text>
<polygon fill="white" stroke="transparent" points="2158.88,-61.8 2158.88,-78.8 2172.88,-78.8 2172.88,-61.8 2158.88,-61.8"/>
<text text-anchor="start" x="2160.88" y="-67.2" font-family="sans-serif" font-size="12.00">D</text>
<polygon fill="white" stroke="transparent" points="2094.65,-140.95 2094.65,-157.95 2108.65,-157.95 2108.65,-140.95 2094.65,-140.95"/>
<text text-anchor="start" x="2096.65" y="-146.35" font-family="sans-serif" font-size="12.00">U</text>
</g>
<!-- GestionPedidosContext&#45;&gt;CarritoComprasContext -->
<g id="edge12" class="edge">
<title>GestionPedidosContext&#45;&gt;CarritoComprasContext</title>
<path fill="none" stroke="black" stroke-width="2" d="M2342.45,-91.51C2346.82,-98.31 2350.88,-105.45 2354.09,-112.59 2368.84,-145.38 2372.09,-155.5 2372.09,-191.45 2372.09,-484.48 2372.09,-484.48 2372.09,-484.48 2372.09,-554.09 2303.7,-589.72 2233.57,-607.96"/>
<text text-anchor="middle" x="2428.09" y="-335.71" font-family="sans-serif" font-size="12.00">Customer/Supplier</text>
<polygon fill="white" stroke="transparent" points="2226.57,-598.96 2226.57,-615.96 2240.57,-615.96 2240.57,-598.96 2226.57,-598.96"/>
<text text-anchor="start" x="2228.57" y="-604.36" font-family="sans-serif" font-size="12.00">D</text>
<polygon fill="white" stroke="transparent" points="2335.45,-82.51 2335.45,-99.51 2349.45,-99.51 2349.45,-82.51 2335.45,-82.51"/>
<text text-anchor="start" x="2337.45" y="-87.91" font-family="sans-serif" font-size="12.00">U</text>
</g>
<!-- GestionPedidosContext&#45;&gt;GestionDevolucionesContext -->
<g id="edge11" class="edge">
<title>GestionPedidosContext&#45;&gt;GestionDevolucionesContext</title>
<path fill="none" stroke="black" stroke-width="2" d="M2261.05,-94.28C2249.08,-105.06 2235.96,-116.15 2223.09,-125.59 2210.73,-134.65 2197.03,-143.52 2183.56,-151.66"/>
<text text-anchor="middle" x="2294.09" y="-115.99" font-family="sans-serif" font-size="12.00">Customer/Supplier</text>
<polygon fill="white" stroke="transparent" points="2176.56,-142.66 2176.56,-159.66 2190.56,-159.66 2190.56,-142.66 2176.56,-142.66"/>
<text text-anchor="start" x="2178.56" y="-148.06" font-family="sans-serif" font-size="12.00">D</text>
<polygon fill="white" stroke="transparent" points="2254.05,-85.28 2254.05,-102.28 2268.05,-102.28 2268.05,-85.28 2254.05,-85.28"/>
<text text-anchor="start" x="2256.05" y="-90.68" font-family="sans-serif" font-size="12.00">U</text>
</g>
<!-- GestionSesionesContext -->
<g id="node9" class="node">
<title>GestionSesionesContext</title>
<polygon fill="none" stroke="black" stroke-width="2" points="2469.26,-814.22 2459.1,-813.05 2449.21,-811.79 2439.61,-810.43 2430.35,-808.97 2421.47,-807.43 2413,-805.8 2404.98,-804.1 2397.43,-802.32 2390.4,-800.47 2383.9,-798.57 2377.96,-796.61 2372.6,-794.6 2367.83,-792.55 2363.68,-790.46 2360.15,-788.33 2357.25,-786.18 2354.99,-784.01 2353.36,-781.83 2352.37,-779.63 2352.02,-777.43 2352.28,-775.23 2353.17,-773.04 2354.65,-770.86 2356.71,-768.69 2359.34,-766.55 2362.52,-764.43 2366.22,-762.34 2370.42,-760.29 2375.09,-758.27 2380.21,-756.3 2385.74,-754.37 2391.66,-752.5 2397.93,-750.68 2404.54,-748.91 2411.43,-747.22 2418.6,-745.58 2425.99,-744.02 2433.59,-742.53 2441.37,-741.12 2449.29,-739.78 2457.33,-738.53 2465.46,-737.37 2473.66,-736.29 2481.9,-735.31 2490.16,-734.42 2498.42,-733.62 2506.66,-732.93 2514.86,-732.33 2523,-731.84 2531.08,-731.46 2539.07,-731.18 2546.96,-731.01 2554.75,-730.96 2562.42,-731.01 2569.97,-731.18 2577.38,-731.46 2584.66,-731.86 2591.79,-732.36 2598.77,-732.99 2605.6,-733.72 2612.27,-734.57 2618.78,-735.54 2625.13,-736.61 2631.3,-737.79 2637.3,-739.08 2643.13,-740.47 2648.77,-741.96 2654.21,-743.55 2659.47,-745.24 2664.52,-747.01 2669.36,-748.87 2673.98,-750.82 2678.38,-752.84 2682.53,-754.93 2686.43,-757.08 2690.07,-759.3 2693.43,-761.57 2696.51,-763.88 2699.28,-766.24 2701.73,-768.62 2703.84,-771.03 2705.61,-773.46 2707.01,-775.9 2708.02,-778.34 2708.65,-780.78 2708.86,-783.2 2708.64,-785.6 2707.98,-787.97 2706.87,-790.3 2705.3,-792.59 2703.25,-794.83 2700.72,-797.01 2697.7,-799.12 2694.18,-801.15 2690.16,-803.11 2685.65,-804.98 2680.63,-806.75 2675.12,-808.43 2669.13,-810 2662.66,-811.46 2655.72,-812.81 2648.33,-814.04 2640.5,-815.15 2632.26,-816.14 2623.63,-817 2614.63,-817.73 2605.29,-818.32 2595.64,-818.79 2585.72,-819.12 2575.55,-819.31 2565.17,-819.38 2554.63,-819.31 2543.97,-819.11 2533.21,-818.78 2522.41,-818.32 2511.61,-817.74 2500.85,-817.03 2490.18,-816.21 2479.63,-815.27 2469.26,-814.22"/>
<text text-anchor="middle" x="2540.09" y="-770.41" font-family="sans-serif" font-size="16.00">GestionSesionesContext</text>
</g>
<!-- SeguridadContext -->
<g id="node10" class="node">
<title>SeguridadContext</title>
<polygon fill="none" stroke="black" stroke-width="2" points="2569.12,-584.68 2577.91,-585.02 2586.59,-585.47 2595.14,-586.05 2603.52,-586.73 2611.68,-587.53 2619.61,-588.44 2627.26,-589.46 2634.62,-590.58 2641.64,-591.81 2648.31,-593.13 2654.61,-594.55 2660.51,-596.06 2665.99,-597.65 2671.04,-599.33 2675.65,-601.08 2679.79,-602.91 2683.47,-604.8 2686.68,-606.76 2689.41,-608.77 2691.66,-610.84 2693.44,-612.95 2694.74,-615.11 2695.57,-617.29 2695.94,-619.51 2695.87,-621.75 2695.35,-624.01 2694.41,-626.27 2693.06,-628.54 2691.31,-630.81 2689.18,-633.08 2686.69,-635.33 2683.87,-637.56 2680.72,-639.76 2677.27,-641.94 2673.53,-644.07 2669.54,-646.17 2665.3,-648.21 2660.84,-650.2 2656.19,-652.13 2651.34,-654 2646.34,-655.79 2641.18,-657.52 2635.9,-659.16 2630.5,-660.72 2625,-662.19 2619.41,-663.56 2613.75,-664.85 2608.03,-666.03 2602.26,-667.11 2596.45,-668.08 2590.6,-668.95 2584.73,-669.7 2578.84,-670.35 2572.94,-670.87 2567.03,-671.28 2561.12,-671.57 2555.22,-671.75 2549.32,-671.8 2543.43,-671.73 2537.56,-671.55 2531.7,-671.24 2525.87,-670.82 2520.07,-670.28 2514.29,-669.62 2508.56,-668.84 2502.86,-667.96 2497.22,-666.96 2491.63,-665.86 2486.1,-664.65 2480.65,-663.34 2475.28,-661.94 2470.01,-660.44 2464.84,-658.85 2459.79,-657.17 2454.87,-655.41 2450.1,-653.58 2445.49,-651.67 2441.07,-649.7 2436.83,-647.67 2432.82,-645.59 2429.03,-643.45 2425.5,-641.27 2422.24,-639.06 2419.26,-636.81 2416.6,-634.54 2414.26,-632.25 2412.26,-629.95 2410.63,-627.65 2409.37,-625.34 2408.52,-623.05 2408.06,-620.76 2408.04,-618.5 2408.44,-616.26 2409.29,-614.06 2410.6,-611.9 2412.36,-609.78 2414.59,-607.71 2417.28,-605.7 2420.44,-603.75 2424.06,-601.87 2428.14,-600.07 2432.67,-598.34 2437.64,-596.69 2443.04,-595.13 2448.85,-593.67 2455.06,-592.3 2461.65,-591.02 2468.59,-589.86 2475.87,-588.79 2483.44,-587.84 2491.3,-587 2499.4,-586.27 2507.72,-585.65 2516.22,-585.16 2524.87,-584.78 2533.64,-584.52 2542.48,-584.38 2551.37,-584.36 2560.26,-584.46 2569.12,-584.68"/>
<text text-anchor="middle" x="2551.09" y="-624.29" font-family="sans-serif" font-size="16.00">SeguridadContext</text>
</g>
<!-- GestionSesionesContext&#45;&gt;SeguridadContext -->
<g id="edge13" class="edge">
<title>GestionSesionesContext&#45;&gt;SeguridadContext</title>
<path fill="none" stroke="black" stroke-width="2" d="M2483.14,-734.91C2472.38,-722.91 2466.34,-708.99 2473.09,-694.52 2477.95,-684.11 2485.37,-674.76 2493.73,-666.62"/>
<text text-anchor="middle" x="2529.09" y="-697.92" font-family="sans-serif" font-size="12.00">Customer/Supplier</text>
<polygon fill="white" stroke="transparent" points="2486.73,-657.62 2486.73,-674.62 2500.73,-674.62 2500.73,-657.62 2486.73,-657.62"/>
<text text-anchor="start" x="2488.73" y="-663.02" font-family="sans-serif" font-size="12.00">D</text>
<polygon fill="white" stroke="transparent" points="2476.14,-725.91 2476.14,-742.91 2490.14,-742.91 2490.14,-725.91 2476.14,-725.91"/>
<text text-anchor="start" x="2478.14" y="-731.31" font-family="sans-serif" font-size="12.00">U</text>
</g>
<!-- SeguridadContext&#45;&gt;GestionSesionesContext -->
<g id="edge14" class="edge">
<title>SeguridadContext&#45;&gt;GestionSesionesContext</title>
<path fill="none" stroke="black" stroke-width="2" d="M2580.97,-670.37C2586.21,-682.18 2588.91,-695.18 2585.09,-707.52 2582.56,-715.7 2578.61,-723.78 2574.08,-731.32"/>
<text text-anchor="middle" x="2642.09" y="-697.92" font-family="sans-serif" font-size="12.00">Customer/Supplier</text>
<polygon fill="white" stroke="transparent" points="2567.08,-722.32 2567.08,-739.32 2581.08,-739.32 2581.08,-722.32 2567.08,-722.32"/>
<text text-anchor="start" x="2569.08" y="-727.72" font-family="sans-serif" font-size="12.00">D</text>
<polygon fill="white" stroke="transparent" points="2573.97,-661.37 2573.97,-678.37 2587.97,-678.37 2587.97,-661.37 2573.97,-661.37"/>
<text text-anchor="start" x="2575.97" y="-666.77" font-family="sans-serif" font-size="12.00">U</text>
</g>
<!-- IntegracionRedesSocialesContext -->
<g id="node11" class="node">
<title>IntegracionRedesSocialesContext</title>
<polygon fill="none" stroke="black" stroke-width="2" points="757.81,-733.79 771.32,-734.85 784.5,-736.02 797.32,-737.29 809.7,-738.65 821.61,-740.11 832.99,-741.65 843.8,-743.27 853.99,-744.97 863.53,-746.74 872.38,-748.58 880.51,-750.47 887.89,-752.42 894.49,-754.42 900.3,-756.46 905.3,-758.54 909.48,-760.65 912.82,-762.79 915.34,-764.95 917.02,-767.12 917.88,-769.31 917.91,-771.5 917.15,-773.68 915.59,-775.87 913.27,-778.04 910.2,-780.2 906.41,-782.33 901.93,-784.44 896.8,-786.52 891.03,-788.57 884.68,-790.58 877.78,-792.54 870.35,-794.46 862.45,-796.33 854.12,-798.14 845.38,-799.89 836.29,-801.58 826.88,-803.2 817.18,-804.75 807.25,-806.22 797.11,-807.62 786.8,-808.94 776.35,-810.17 765.8,-811.31 755.18,-812.36 744.52,-813.33 733.84,-814.19 723.17,-814.95 712.54,-815.62 701.95,-816.18 691.45,-816.63 681.03,-816.98 670.72,-817.22 660.53,-817.34 650.47,-817.36 640.56,-817.26 630.79,-817.05 621.19,-816.72 611.76,-816.28 602.5,-815.72 593.43,-815.05 584.54,-814.27 575.84,-813.37 567.34,-812.36 559.05,-811.24 550.96,-810.02 543.09,-808.68 535.44,-807.25 528.02,-805.72 520.84,-804.09 513.91,-802.37 507.24,-800.56 500.84,-798.67 494.73,-796.7 488.92,-794.66 483.43,-792.55 478.27,-790.38 473.47,-788.16 469.03,-785.88 464.99,-783.57 461.36,-781.22 458.16,-778.84 455.42,-776.44 453.16,-774.02 451.39,-771.61 450.15,-769.19 449.44,-766.78 449.3,-764.4 449.75,-762.03 450.79,-759.7 452.45,-757.41 454.73,-755.17 457.67,-752.98 461.25,-750.86 465.5,-748.8 470.42,-746.82 476,-744.92 482.26,-743.11 489.17,-741.39 496.75,-739.78 504.97,-738.26 513.82,-736.86 523.29,-735.57 533.34,-734.39 543.96,-733.34 555.12,-732.41 566.78,-731.61 578.9,-730.93 591.46,-730.38 604.4,-729.96 617.69,-729.67 631.26,-729.52 645.08,-729.49 659.09,-729.59 673.24,-729.82 687.46,-730.18 701.72,-730.66 715.93,-731.27 730.06,-731.99 744.04,-732.83 757.81,-733.79"/>
<text text-anchor="middle" x="672.09" y="-770.41" font-family="sans-serif" font-size="16.00">IntegracionRedesSocialesContext</text>
</g>
<!-- IntegracionRedesSocialesContext&#45;&gt;VentasContext -->
<g id="edge15" class="edge">
<title>IntegracionRedesSocialesContext&#45;&gt;VentasContext</title>
<path fill="none" stroke="black" stroke-width="2" d="M745.14,-732.87C782.84,-712.05 828.54,-686.82 865.43,-666.45"/>
<text text-anchor="middle" x="845.59" y="-697.92" font-family="sans-serif" font-size="12.00">Partnership</text>
</g>
<!-- NotificacionesComunicacionesContext -->
<g id="node12" class="node">
<title>NotificacionesComunicacionesContext</title>
<polygon fill="none" stroke="black" stroke-width="2" points="1435.23,-763.27 1439.51,-766.05 1443.1,-768.85 1445.98,-771.64 1448.13,-774.43 1449.54,-777.19 1450.2,-779.93 1450.1,-782.62 1449.24,-785.27 1447.62,-787.85 1445.23,-790.36 1442.08,-792.8 1438.18,-795.14 1433.53,-797.4 1428.15,-799.56 1422.05,-801.61 1415.25,-803.55 1407.77,-805.37 1399.63,-807.08 1390.85,-808.66 1381.48,-810.12 1371.53,-811.45 1361.04,-812.66 1350.04,-813.74 1338.57,-814.69 1326.66,-815.51 1314.37,-816.2 1301.72,-816.77 1288.76,-817.22 1275.54,-817.55 1262.1,-817.76 1248.48,-817.86 1234.72,-817.85 1220.88,-817.73 1206.99,-817.51 1193.11,-817.19 1179.28,-816.77 1165.53,-816.26 1151.92,-815.67 1138.49,-814.99 1125.26,-814.24 1112.3,-813.4 1099.63,-812.5 1087.29,-811.52 1075.31,-810.48 1063.73,-809.37 1052.58,-808.21 1041.88,-806.98 1031.67,-805.7 1021.97,-804.37 1012.79,-802.98 1004.17,-801.54 996.13,-800.06 988.66,-798.52 981.8,-796.94 975.55,-795.31 969.93,-793.64 964.93,-791.92 960.57,-790.16 956.86,-788.36 953.78,-786.52 951.36,-784.63 949.57,-782.72 948.43,-780.76 947.92,-778.77 948.04,-776.75 948.79,-774.69 950.16,-772.61 952.13,-770.51 954.7,-768.39 957.86,-766.25 961.59,-764.1 965.89,-761.94 970.74,-759.78 976.12,-757.62 982.02,-755.48 988.43,-753.35 995.32,-751.24 1002.69,-749.16 1010.52,-747.11 1018.78,-745.12 1027.46,-743.17 1036.54,-741.28 1046.01,-739.46 1055.84,-737.72 1066.01,-736.05 1076.5,-734.48 1087.3,-733.02 1098.37,-731.65 1109.69,-730.4 1121.25,-729.28 1133.02,-728.28 1144.97,-727.42 1157.08,-726.7 1169.33,-726.12 1181.67,-725.7 1194.1,-725.44 1206.58,-725.33 1219.08,-725.38 1231.56,-725.6 1244.01,-725.98 1256.39,-726.53 1268.67,-727.25 1280.81,-728.13 1292.79,-729.17 1304.57,-730.37 1316.12,-731.73 1327.4,-733.23 1338.38,-734.89 1349.03,-736.68 1359.32,-738.61 1369.2,-740.66 1378.66,-742.83 1387.66,-745.11 1396.16,-747.49 1404.14,-749.96 1411.57,-752.5 1418.42,-755.12 1424.66,-757.79 1430.27,-760.51 1435.23,-763.27"/>
<text text-anchor="middle" x="1193.09" y="-770.41" font-family="sans-serif" font-size="16.00">NotificacionesComunicacionesContext</text>
</g>
<!-- NotificacionesComunicacionesContext&#45;&gt;VentasContext -->
<g id="edge16" class="edge">
<title>NotificacionesComunicacionesContext&#45;&gt;VentasContext</title>
<path fill="none" stroke="black" stroke-width="2" d="M1114.73,-729.77C1078.4,-709.63 1035.64,-685.93 1000.73,-666.58"/>
<text text-anchor="middle" x="1105.59" y="-697.92" font-family="sans-serif" font-size="12.00">Partnership</text>
</g>
<!-- ProcesoPagosContext -->
<g id="node13" class="node">
<title>ProcesoPagosContext</title>
<polygon fill="none" stroke="black" stroke-width="2" points="2422.84,-210.52 2418.58,-207.93 2414.74,-205.3 2411.33,-202.66 2408.36,-200 2405.84,-197.33 2403.8,-194.68 2402.24,-192.04 2401.16,-189.43 2400.59,-186.85 2400.51,-184.32 2400.94,-181.85 2401.88,-179.43 2403.32,-177.08 2405.27,-174.81 2407.71,-172.62 2410.63,-170.51 2414.04,-168.5 2417.92,-166.58 2422.25,-164.76 2427.02,-163.05 2432.21,-161.45 2437.8,-159.95 2443.78,-158.56 2450.12,-157.28 2456.79,-156.12 2463.78,-155.06 2471.05,-154.12 2478.58,-153.29 2486.35,-152.56 2494.32,-151.94 2502.46,-151.43 2510.75,-151.03 2519.16,-150.72 2527.66,-150.52 2536.21,-150.41 2544.8,-150.39 2553.38,-150.47 2561.93,-150.64 2570.43,-150.89 2578.85,-151.23 2587.16,-151.65 2595.34,-152.15 2603.36,-152.73 2611.2,-153.38 2618.84,-154.11 2626.26,-154.91 2633.44,-155.79 2640.36,-156.73 2647,-157.74 2653.36,-158.81 2659.42,-159.96 2665.16,-161.17 2670.58,-162.44 2675.67,-163.78 2680.41,-165.18 2684.8,-166.65 2688.85,-168.18 2692.53,-169.77 2695.85,-171.42 2698.81,-173.13 2701.41,-174.89 2703.64,-176.72 2705.51,-178.59 2707.01,-180.53 2708.15,-182.51 2708.94,-184.54 2709.36,-186.61 2709.44,-188.73 2709.17,-190.89 2708.55,-193.07 2707.6,-195.29 2706.31,-197.53 2704.69,-199.79 2702.75,-202.07 2700.49,-204.35 2697.91,-206.63 2695.03,-208.9 2691.84,-211.16 2688.36,-213.39 2684.58,-215.6 2680.53,-217.77 2676.19,-219.89 2671.59,-221.96 2666.72,-223.97 2661.59,-225.9 2656.22,-227.76 2650.6,-229.52 2644.75,-231.19 2638.68,-232.76 2632.4,-234.21 2625.91,-235.55 2619.23,-236.75 2612.37,-237.83 2605.34,-238.76 2598.16,-239.55 2590.84,-240.19 2583.39,-240.67 2575.83,-241 2568.17,-241.17 2560.45,-241.17 2552.66,-241.01 2544.83,-240.69 2536.99,-240.19 2529.15,-239.54 2521.33,-238.72 2513.56,-237.75 2505.86,-236.62 2498.25,-235.33 2490.76,-233.9 2483.4,-232.33 2476.21,-230.62 2469.21,-228.79 2462.42,-226.83 2455.87,-224.77 2449.58,-222.59 2443.57,-220.33 2437.87,-217.98 2432.5,-215.55 2427.48,-213.06 2422.84,-210.52"/>
<text text-anchor="middle" x="2562.09" y="-188.65" font-family="sans-serif" font-size="16.00">ProcesoPagosContext</text>
</g>
<!-- ProcesoPagosContext&#45;&gt;GestionPedidosContext -->
<g id="edge17" class="edge">
<title>ProcesoPagosContext&#45;&gt;GestionPedidosContext</title>
<path fill="none" stroke="black" stroke-width="2" d="M2492.01,-151.95C2456.33,-131.84 2413.09,-107.47 2377.5,-87.41"/>
<text text-anchor="middle" x="2498.09" y="-115.99" font-family="sans-serif" font-size="12.00">Customer/Supplier</text>
<polygon fill="white" stroke="transparent" points="2370.5,-78.41 2370.5,-95.41 2384.5,-95.41 2384.5,-78.41 2370.5,-78.41"/>
<text text-anchor="start" x="2372.5" y="-83.81" font-family="sans-serif" font-size="12.00">D</text>
<polygon fill="white" stroke="transparent" points="2485.01,-142.95 2485.01,-159.95 2499.01,-159.95 2499.01,-142.95 2485.01,-142.95"/>
<text text-anchor="start" x="2487.01" y="-148.35" font-family="sans-serif" font-size="12.00">U</text>
</g>
<!-- ServicioClienteContext -->
<g id="node14" class="node">
<title>ServicioClienteContext</title>
<polygon fill="none" stroke="black" stroke-width="2" points="1640.28,-818.08 1629.71,-818.09 1619.22,-817.98 1608.84,-817.75 1598.61,-817.39 1588.58,-816.92 1578.79,-816.33 1569.27,-815.62 1560.05,-814.79 1551.18,-813.85 1542.69,-812.8 1534.59,-811.64 1526.93,-810.37 1519.72,-809 1512.98,-807.54 1506.74,-805.97 1501.01,-804.32 1495.8,-802.58 1491.12,-800.76 1486.98,-798.87 1483.39,-796.9 1480.34,-794.87 1477.83,-792.78 1475.85,-790.64 1474.42,-788.45 1473.5,-786.22 1473.1,-783.96 1473.19,-781.67 1473.77,-779.35 1474.82,-777.03 1476.32,-774.69 1478.25,-772.36 1480.6,-770.03 1483.34,-767.71 1486.45,-765.42 1489.91,-763.15 1493.69,-760.91 1497.79,-758.71 1502.17,-756.55 1506.82,-754.45 1511.72,-752.4 1516.84,-750.42 1522.17,-748.5 1527.69,-746.66 1533.38,-744.9 1539.23,-743.22 1545.23,-741.63 1551.35,-740.13 1557.59,-738.73 1563.94,-737.43 1570.39,-736.23 1576.92,-735.14 1583.54,-734.16 1590.22,-733.29 1596.97,-732.53 1603.79,-731.89 1610.65,-731.37 1617.57,-730.96 1624.53,-730.68 1631.53,-730.51 1638.57,-730.46 1645.64,-730.54 1652.74,-730.73 1659.85,-731.04 1666.99,-731.46 1674.13,-732 1681.27,-732.66 1688.4,-733.43 1695.52,-734.3 1702.6,-735.29 1709.65,-736.37 1716.64,-737.56 1723.56,-738.84 1730.4,-740.22 1737.13,-741.69 1743.74,-743.24 1750.22,-744.88 1756.53,-746.59 1762.66,-748.37 1768.59,-750.23 1774.28,-752.14 1779.72,-754.12 1784.89,-756.14 1789.75,-758.22 1794.28,-760.33 1798.46,-762.48 1802.26,-764.67 1805.66,-766.87 1808.63,-769.1 1811.15,-771.34 1813.2,-773.59 1814.76,-775.85 1815.81,-778.09 1816.34,-780.33 1816.32,-782.56 1815.75,-784.76 1814.61,-786.94 1812.91,-789.08 1810.62,-791.18 1807.76,-793.25 1804.32,-795.26 1800.3,-797.21 1795.71,-799.11 1790.57,-800.95 1784.87,-802.71 1778.65,-804.4 1771.91,-806 1764.68,-807.53 1756.99,-808.96 1748.85,-810.31 1740.31,-811.56 1731.38,-812.7 1722.12,-813.75 1712.54,-814.69 1702.7,-815.52 1692.62,-816.24 1682.36,-816.84 1671.95,-817.33 1661.44,-817.7 1650.87,-817.95 1640.28,-818.08"/>
<text text-anchor="middle" x="1642.09" y="-770.41" font-family="sans-serif" font-size="16.00">ServicioClienteContext</text>
</g>
<!-- ServicioClienteContext&#45;&gt;VentasContext -->
<g id="edge18" class="edge">
<title>ServicioClienteContext&#45;&gt;VentasContext</title>
<path fill="none" stroke="black" stroke-width="2" d="M1535.97,-744.14C1510.85,-737.65 1484.09,-731.06 1459.09,-725.52 1319.05,-694.48 1156.46,-665.78 1049.54,-647.9"/>
<text text-anchor="middle" x="1408.59" y="-697.92" font-family="sans-serif" font-size="12.00">Partnership</text>
</g>
</g>
</svg>
