<svg width="2000px" height="463px"
 viewBox="0.00 0.00 2957.99 684.65" xmlns="http://www.w3.org/2000/svg" xmlns:xlink="http://www.w3.org/1999/xlink">
<g id="graph0" class="graph" transform="scale(1.0 1.0) rotate(0) translate(4 680.65)">
<title>ContextMapGraph</title>
<polygon fill="white" stroke="transparent" points="-4,4 -4,-680.65 2953.99,-680.65 2953.99,4 -4,4"/>
<!-- AnaliticasReportingContext -->
<g id="node1" class="node">
<title>AnaliticasReportingContext</title>
<polygon fill="none" stroke="black" stroke-width="2" points="371.69,-634.5 370.04,-637.35 367.88,-640.16 365.23,-642.93 362.09,-645.64 358.48,-648.28 354.41,-650.84 349.88,-653.31 344.91,-655.67 339.52,-657.94 333.71,-660.08 327.51,-662.1 320.93,-663.99 314,-665.75 306.72,-667.36 299.12,-668.82 291.23,-670.14 283.06,-671.3 274.63,-672.31 265.96,-673.16 257.09,-673.85 248.03,-674.39 238.82,-674.78 229.46,-675.01 219.99,-675.09 210.44,-675.03 200.82,-674.82 191.17,-674.48 181.5,-674 171.86,-673.39 162.25,-672.66 152.71,-671.81 143.26,-670.85 133.92,-669.79 124.73,-668.63 115.71,-667.38 106.87,-666.05 98.25,-664.63 89.86,-663.15 81.73,-661.6 73.88,-660 66.34,-658.34 59.11,-656.63 52.23,-654.89 45.71,-653.11 39.57,-651.29 33.82,-649.45 28.48,-647.59 23.57,-645.71 19.1,-643.82 15.08,-641.91 11.53,-640 8.45,-638.08 5.86,-636.15 3.75,-634.23 2.15,-632.3 1.05,-630.38 0.45,-628.45 0.37,-626.54 0.79,-624.62 1.73,-622.72 3.17,-620.82 5.12,-618.94 7.57,-617.06 10.52,-615.2 13.96,-613.35 17.87,-611.51 22.25,-609.69 27.09,-607.9 32.38,-606.12 38.1,-604.38 44.23,-602.66 50.76,-600.97 57.68,-599.32 64.95,-597.71 72.57,-596.14 80.51,-594.62 88.75,-593.16 97.27,-591.75 106.04,-590.42 115.04,-589.15 124.24,-587.95 133.62,-586.85 143.16,-585.82 152.81,-584.9 162.57,-584.07 172.39,-583.35 182.25,-582.74 192.13,-582.25 202,-581.89 211.82,-581.65 221.57,-581.54 231.23,-581.57 240.76,-581.74 250.14,-582.06 259.34,-582.52 268.34,-583.13 277.11,-583.89 285.62,-584.8 293.86,-585.86 301.8,-587.07 309.41,-588.43 316.68,-589.93 323.58,-591.57 330.1,-593.35 336.22,-595.27 341.93,-597.31 347.2,-599.47 352.02,-601.75 356.38,-604.13 360.27,-606.61 363.68,-609.18 366.6,-611.82 369.02,-614.53 370.93,-617.3 372.34,-620.12 373.23,-622.97 373.62,-625.85 373.49,-628.74 372.84,-631.62 371.69,-634.5"/>
<text text-anchor="middle" x="186.87" y="-624.08" font-family="sans-serif" font-size="16.00">AnaliticasReportingContext</text>
</g>
<!-- VentasContext -->
<g id="node2" class="node">
<title>VentasContext</title>
<polygon fill="none" stroke="black" stroke-width="2" points="976.04,-499.85 973.02,-502.48 969.73,-505.05 966.18,-507.54 962.39,-509.94 958.37,-512.24 954.13,-514.44 949.69,-516.52 945.06,-518.48 940.26,-520.3 935.3,-521.99 930.2,-523.53 924.97,-524.92 919.62,-526.15 914.18,-527.23 908.65,-528.15 903.05,-528.9 897.4,-529.49 891.71,-529.91 886,-530.16 880.27,-530.26 874.55,-530.19 868.84,-529.96 863.16,-529.57 857.52,-529.04 851.93,-528.36 846.42,-527.53 840.98,-526.57 835.63,-525.48 830.38,-524.27 825.24,-522.94 820.22,-521.51 815.34,-519.97 810.6,-518.35 806.02,-516.63 801.6,-514.84 797.35,-512.99 793.28,-511.07 789.4,-509.1 785.72,-507.08 782.25,-505.03 778.99,-502.94 775.96,-500.83 773.15,-498.7 770.59,-496.57 768.27,-494.42 766.2,-492.28 764.39,-490.15 762.85,-488.02 761.57,-485.91 760.57,-483.81 759.85,-481.74 759.42,-479.69 759.27,-477.67 759.41,-475.68 759.85,-473.73 760.58,-471.8 761.6,-469.91 762.93,-468.07 764.55,-466.25 766.47,-464.48 768.68,-462.75 771.19,-461.06 773.98,-459.42 777.05,-457.82 780.4,-456.26 784.02,-454.75 787.91,-453.29 792.05,-451.87 796.44,-450.51 801.06,-449.2 805.91,-447.94 810.97,-446.75 816.23,-445.61 821.67,-444.53 827.29,-443.52 833.06,-442.57 838.96,-441.7 844.99,-440.9 851.12,-440.19 857.33,-439.55 863.61,-439 869.93,-438.54 876.28,-438.18 882.64,-437.92 888.98,-437.76 895.28,-437.7 901.53,-437.76 907.71,-437.93 913.78,-438.21 919.74,-438.62 925.57,-439.15 931.23,-439.81 936.73,-440.6 942.03,-441.51 947.12,-442.55 951.99,-443.72 956.61,-445.02 960.97,-446.45 965.07,-448 968.87,-449.68 972.39,-451.48 975.59,-453.4 978.48,-455.43 981.05,-457.57 983.28,-459.81 985.18,-462.14 986.73,-464.56 987.94,-467.07 988.8,-469.64 989.31,-472.28 989.48,-474.97 989.3,-477.7 988.78,-480.47 987.92,-483.26 986.73,-486.06 985.21,-488.86 983.38,-491.65 981.23,-494.42 978.78,-497.16 976.04,-499.85"/>
<text text-anchor="middle" x="871.87" y="-477.67" font-family="sans-serif" font-size="16.00">VentasContext</text>
</g>
<!-- AnaliticasReportingContext&#45;&gt;VentasContext -->
<g id="edge1" class="edge">
<title>AnaliticasReportingContext&#45;&gt;VentasContext</title>
<path fill="none" stroke="black" stroke-width="2" d="M326.16,-592.14C345.18,-587.63 364.49,-583.17 382.87,-579.11 518.51,-549.2 676.28,-518.81 775.12,-500.3"/>
<text text-anchor="middle" x="551.37" y="-551.51" font-family="sans-serif" font-size="12.00">Partnership</text>
</g>
<!-- AutenticacionAutorizacionContext -->
<g id="node3" class="node">
<title>AutenticacionAutorizacionContext</title>
<polygon fill="none" stroke="black" stroke-width="2" points="1808.72,-649.31 1801.29,-646.84 1794.44,-644.33 1788.22,-641.78 1782.64,-639.21 1777.74,-636.63 1773.53,-634.04 1770.04,-631.46 1767.28,-628.89 1765.27,-626.34 1764.03,-623.83 1763.55,-621.36 1763.84,-618.93 1764.91,-616.56 1766.75,-614.25 1769.36,-612.01 1772.73,-609.85 1776.85,-607.76 1781.7,-605.76 1787.26,-603.85 1793.52,-602.03 1800.45,-600.3 1808.02,-598.67 1816.21,-597.14 1824.98,-595.72 1834.29,-594.39 1844.12,-593.17 1854.41,-592.05 1865.14,-591.03 1876.27,-590.12 1887.74,-589.31 1899.51,-588.6 1911.55,-587.99 1923.81,-587.48 1936.24,-587.06 1948.8,-586.74 1961.45,-586.51 1974.14,-586.37 1986.82,-586.33 1999.47,-586.37 2012.03,-586.49 2024.47,-586.7 2036.75,-587 2048.83,-587.37 2060.69,-587.83 2072.28,-588.36 2083.57,-588.97 2094.55,-589.66 2105.17,-590.42 2115.43,-591.26 2125.28,-592.17 2134.73,-593.16 2143.74,-594.22 2152.3,-595.35 2160.4,-596.56 2168.02,-597.83 2175.16,-599.18 2181.8,-600.6 2187.95,-602.08 2193.59,-603.64 2198.72,-605.27 2203.34,-606.96 2207.45,-608.71 2211.05,-610.53 2214.14,-612.42 2216.71,-614.36 2218.78,-616.36 2220.35,-618.41 2221.41,-620.51 2221.98,-622.66 2222.06,-624.85 2221.65,-627.08 2220.76,-629.34 2219.39,-631.63 2217.55,-633.93 2215.24,-636.26 2212.47,-638.59 2209.24,-640.92 2205.56,-643.24 2201.43,-645.55 2196.86,-647.84 2191.86,-650.1 2186.42,-652.31 2180.57,-654.49 2174.29,-656.6 2167.6,-658.65 2160.52,-660.63 2153.03,-662.52 2145.16,-664.33 2136.92,-666.04 2128.31,-667.64 2119.34,-669.12 2110.04,-670.49 2100.41,-671.73 2090.47,-672.83 2080.24,-673.8 2069.73,-674.61 2058.97,-675.28 2047.97,-675.8 2036.76,-676.15 2025.37,-676.35 2013.82,-676.38 2002.14,-676.25 1990.36,-675.96 1978.5,-675.51 1966.61,-674.89 1954.72,-674.11 1942.86,-673.18 1931.06,-672.1 1919.37,-670.86 1907.82,-669.48 1896.45,-667.96 1885.3,-666.31 1874.41,-664.54 1863.82,-662.65 1853.57,-660.65 1843.7,-658.54 1834.24,-656.35 1825.23,-654.07 1816.72,-651.72 1808.72,-649.31"/>
<text text-anchor="middle" x="2005.87" y="-624.08" font-family="sans-serif" font-size="16.00">AutenticacionAutorizacionContext</text>
</g>
<!-- CarritoComprasContext -->
<g id="node4" class="node">
<title>CarritoComprasContext</title>
<polygon fill="none" stroke="black" stroke-width="2" points="1978.9,-437.98 1989.57,-437.47 2000.24,-437.09 2010.89,-436.82 2021.45,-436.69 2031.9,-436.68 2042.19,-436.81 2052.28,-437.06 2062.13,-437.44 2071.71,-437.95 2080.99,-438.59 2089.93,-439.35 2098.51,-440.24 2106.69,-441.26 2114.46,-442.39 2121.8,-443.64 2128.67,-445 2135.08,-446.48 2141,-448.05 2146.43,-449.73 2151.35,-451.51 2155.77,-453.37 2159.68,-455.32 2163.08,-457.35 2165.97,-459.44 2168.36,-461.61 2170.25,-463.83 2171.66,-466.1 2172.59,-468.41 2173.06,-470.76 2173.08,-473.15 2172.66,-475.55 2171.82,-477.96 2170.57,-480.38 2168.94,-482.8 2166.93,-485.21 2164.57,-487.61 2161.88,-489.98 2158.86,-492.32 2155.55,-494.62 2151.94,-496.88 2148.07,-499.08 2143.94,-501.23 2139.57,-503.31 2134.98,-505.32 2130.17,-507.26 2125.15,-509.12 2119.95,-510.89 2114.56,-512.58 2109,-514.16 2103.27,-515.65 2097.38,-517.04 2091.35,-518.33 2085.16,-519.5 2078.83,-520.57 2072.37,-521.53 2065.78,-522.37 2059.05,-523.1 2052.2,-523.71 2045.24,-524.21 2038.16,-524.59 2030.96,-524.85 2023.67,-525 2016.27,-525.03 2008.78,-524.94 2001.21,-524.74 1993.56,-524.43 1985.85,-524.01 1978.08,-523.48 1970.28,-522.85 1962.45,-522.11 1954.6,-521.26 1946.76,-520.32 1938.95,-519.28 1931.18,-518.15 1923.48,-516.92 1915.86,-515.61 1908.36,-514.22 1900.99,-512.74 1893.79,-511.19 1886.77,-509.56 1879.98,-507.87 1873.43,-506.11 1867.15,-504.29 1861.19,-502.41 1855.55,-500.48 1850.28,-498.5 1845.39,-496.47 1840.93,-494.41 1836.91,-492.31 1833.36,-490.18 1830.3,-488.03 1827.76,-485.85 1825.76,-483.66 1824.32,-481.46 1823.45,-479.25 1823.17,-477.05 1823.48,-474.85 1824.41,-472.66 1825.95,-470.48 1828.11,-468.33 1830.88,-466.2 1834.27,-464.11 1838.27,-462.05 1842.87,-460.04 1848.05,-458.07 1853.8,-456.16 1860.1,-454.31 1866.94,-452.53 1874.28,-450.81 1882.09,-449.17 1890.36,-447.61 1899.04,-446.14 1908.1,-444.76 1917.5,-443.47 1927.21,-442.29 1937.18,-441.2 1947.38,-440.23 1957.76,-439.36 1968.28,-438.61 1978.9,-437.98"/>
<g id="edge2" class="edge">
<title>AutenticacionAutorizacionContext&#45;&gt;CarritoComprasContext</title>
<path fill="none" stroke="black" stroke-width="2" d="M2148,-591.68C2148,-574.14 2148,-553.5 2148,-535.25"/>
<text text-anchor="middle" x="2204" y="-556.91" font-family="sans-serif" font-size="12.00">Customer/Supplier</text>
<polygon fill="white" stroke="transparent" points="2141,-526.25 2141,-543.25 2155,-543.25 2155,-526.25 2141,-526.25"/>
<text text-anchor="start" x="2143" y="-531.65" font-family="sans-serif" font-size="12.00">D</text>
<polygon fill="white" stroke="transparent" points="2141,-582.68 2141,-599.68 2155,-599.68 2155,-582.68 2141,-582.68"/>
<text text-anchor="start" x="2143" y="-588.08" font-family="sans-serif" font-size="12.00">U</text>
=======
<path fill="none" stroke="black" stroke-width="2" d="M2005.87,-586.27C2005.87,-567.17 2005.87,-544.39 2005.87,-525.04"/>
<text text-anchor="middle" x="2061.87" y="-551.51" font-family="sans-serif" font-size="12.00">Customer/Supplier</text>
<polygon fill="white" stroke="transparent" points="1998.87,-516.04 1998.87,-533.04 2012.87,-533.04 2012.87,-516.04 1998.87,-516.04"/>
<text text-anchor="start" x="2000.87" y="-521.44" font-family="sans-serif" font-size="12.00">D</text>
<polygon fill="white" stroke="transparent" points="1998.87,-577.27 1998.87,-594.27 2012.87,-594.27 2012.87,-577.27 1998.87,-577.27"/>
<text text-anchor="start" x="2000.87" y="-582.67" font-family="sans-serif" font-size="12.00">U</text>
</g>
<!-- GestionProductosContext -->
<g id="node5" class="node">
<title>GestionProductosContext</title>
<polygon fill="none" stroke="black" stroke-width="2" points="2021.72,-368.72 2013.15,-366.81 2004.97,-364.83 1997.2,-362.78 1989.88,-360.66 1983.04,-358.5 1976.71,-356.29 1970.92,-354.04 1965.68,-351.76 1961.03,-349.45 1956.98,-347.14 1953.55,-344.81 1950.76,-342.48 1948.6,-340.16 1947.09,-337.86 1946.24,-335.57 1946.04,-333.31 1946.49,-331.08 1947.59,-328.88 1949.32,-326.73 1951.69,-324.62 1954.67,-322.57 1958.24,-320.56 1962.39,-318.62 1967.1,-316.74 1972.34,-314.92 1978.09,-313.17 1984.31,-311.49 1990.98,-309.88 1998.07,-308.35 2005.55,-306.89 2013.37,-305.51 2021.52,-304.21 2029.94,-302.99 2038.62,-301.85 2047.51,-300.79 2056.58,-299.82 2065.79,-298.93 2075.11,-298.13 2084.52,-297.41 2093.96,-296.78 2103.42,-296.24 2112.87,-295.78 2122.27,-295.42 2131.6,-295.14 2140.84,-294.96 2149.95,-294.86 2158.92,-294.86 2167.73,-294.95 2176.36,-295.14 2184.78,-295.42 2192.99,-295.79 2200.97,-296.26 2208.71,-296.83 2216.2,-297.49 2223.42,-298.25 2230.37,-299.1 2237.05,-300.06 2243.45,-301.11 2249.55,-302.25 2255.37,-303.49 2260.89,-304.82 2266.11,-306.25 2271.04,-307.77 2275.66,-309.38 2279.98,-311.07 2283.99,-312.85 2287.7,-314.71 2291.11,-316.64 2294.2,-318.66 2296.98,-320.74 2299.45,-322.88 2301.6,-325.09 2303.43,-327.34 2304.94,-329.65 2306.12,-332 2306.97,-334.38 2307.48,-336.79 2307.65,-339.23 2307.47,-341.67 2306.93,-344.12 2306.04,-346.57 2304.78,-349.01 2303.14,-351.42 2301.13,-353.81 2298.74,-356.16 2295.95,-358.47 2292.78,-360.72 2289.2,-362.91 2285.23,-365.02 2280.85,-367.06 2276.07,-369.01 2270.89,-370.87 2265.31,-372.62 2259.33,-374.27 2252.96,-375.8 2246.21,-377.2 2239.08,-378.48 2231.58,-379.63 2223.74,-380.64 2215.56,-381.5 2207.06,-382.23 2198.26,-382.8 2189.19,-383.23 2179.85,-383.5 2170.29,-383.63 2160.53,-383.6 2150.6,-383.42 2140.53,-383.09 2130.34,-382.62 2120.09,-381.99 2109.79,-381.23 2099.5,-380.32 2089.24,-379.29 2079.06,-378.12 2068.99,-376.83 2059.07,-375.42 2049.35,-373.89 2039.86,-372.26 2030.63,-370.54 2021.72,-368.72"/>
<text text-anchor="middle" x="2140.87" y="-332.74" font-family="sans-serif" font-size="16.00">GestionProductosContext</text>
</g>
<!-- CarritoComprasContext&#45;&gt;GestionProductosContext -->
<g id="edge3" class="edge">
<title>CarritoComprasContext&#45;&gt;GestionProductosContext</title>
<path fill="none" stroke="black" stroke-width="2" d="M2092.98,-439.6C2102.67,-432.38 2111.63,-424.15 2118.87,-414.83 2126.07,-405.58 2130.91,-394.08 2134.17,-382.8"/>
<text text-anchor="middle" x="2182.87" y="-405.23" font-family="sans-serif" font-size="12.00">Customer/Supplier</text>
<polygon fill="white" stroke="transparent" points="2127.17,-373.8 2127.17,-390.8 2141.17,-390.8 2141.17,-373.8 2127.17,-373.8"/>
<text text-anchor="start" x="2129.17" y="-379.2" font-family="sans-serif" font-size="12.00">D</text>
<polygon fill="white" stroke="transparent" points="2085.98,-430.6 2085.98,-447.6 2099.98,-447.6 2099.98,-430.6 2085.98,-430.6"/>
<text text-anchor="start" x="2087.98" y="-436" font-family="sans-serif" font-size="12.00">U</text>
</g>
<!-- GestionClientesContext -->
<g id="node8" class="node">
<title>GestionClientesContext</title>
<polygon fill="none" stroke="black" stroke-width="2" points="1868.54,-152.86 1878.36,-154.07 1887.93,-155.38 1897.19,-156.79 1906.12,-158.29 1914.68,-159.88 1922.82,-161.55 1930.53,-163.29 1937.77,-165.11 1944.5,-166.99 1950.71,-168.93 1956.38,-170.92 1961.47,-172.96 1965.98,-175.04 1969.89,-177.15 1973.19,-179.3 1975.88,-181.46 1977.94,-183.65 1979.38,-185.85 1980.2,-188.05 1980.4,-190.26 1980,-192.46 1978.99,-194.65 1977.41,-196.83 1975.25,-198.99 1972.54,-201.13 1969.31,-203.24 1965.56,-205.32 1961.34,-207.36 1956.65,-209.36 1951.54,-211.31 1946.02,-213.22 1940.12,-215.07 1933.89,-216.87 1927.34,-218.6 1920.5,-220.27 1913.41,-221.87 1906.1,-223.41 1898.6,-224.87 1890.92,-226.25 1883.12,-227.55 1875.2,-228.76 1867.2,-229.9 1859.13,-230.94 1851.04,-231.89 1842.93,-232.74 1834.82,-233.5 1826.75,-234.16 1818.72,-234.72 1810.75,-235.17 1802.85,-235.52 1795.05,-235.76 1787.34,-235.89 1779.75,-235.92 1772.27,-235.83 1764.93,-235.62 1757.72,-235.31 1750.65,-234.88 1743.74,-234.34 1736.97,-233.68 1730.36,-232.91 1723.91,-232.03 1717.63,-231.04 1711.52,-229.93 1705.58,-228.72 1699.81,-227.41 1694.23,-225.99 1688.83,-224.46 1683.62,-222.84 1678.61,-221.13 1673.81,-219.33 1669.21,-217.44 1664.83,-215.47 1660.68,-213.43 1656.77,-211.31 1653.11,-209.14 1649.71,-206.9 1646.58,-204.61 1643.74,-202.28 1641.19,-199.9 1638.96,-197.5 1637.06,-195.08 1635.5,-192.63 1634.29,-190.18 1633.46,-187.73 1633.01,-185.29 1632.97,-182.86 1633.34,-180.46 1634.13,-178.08 1635.37,-175.75 1637.05,-173.46 1639.2,-171.23 1641.81,-169.06 1644.89,-166.96 1648.45,-164.93 1652.5,-162.99 1657.02,-161.14 1662.02,-159.38 1667.5,-157.73 1673.45,-156.18 1679.85,-154.74 1686.71,-153.42 1693.99,-152.22 1701.69,-151.14 1709.79,-150.19 1718.26,-149.37 1727.08,-148.69 1736.22,-148.13 1745.66,-147.71 1755.35,-147.42 1765.27,-147.27 1775.39,-147.25 1785.66,-147.37 1796.04,-147.62 1806.51,-148 1817,-148.5 1827.49,-149.14 1837.93,-149.89 1848.28,-150.77 1858.5,-151.76 1868.54,-152.86"/>
<text text-anchor="middle" x="1796.87" y="-188.84" font-family="sans-serif" font-size="16.00">GestionClientesContext</text>
</g>
<!-- CarritoComprasContext&#45;&gt;GestionClientesContext -->
<g id="edge4" class="edge">
<title>CarritoComprasContext&#45;&gt;GestionClientesContext</title>
<path fill="none" stroke="black" stroke-width="2" d="M1859.38,-454.45C1784.37,-437.83 1704.19,-413.78 1681.87,-383.83 1656.75,-350.13 1664.02,-327.3 1681.87,-289.24 1692.35,-266.91 1710.88,-247.99 1730.06,-233.02"/>
<text text-anchor="middle" x="1737.87" y="-333.44" font-family="sans-serif" font-size="12.00">Customer/Supplier</text>
<polygon fill="white" stroke="transparent" points="1723.06,-224.02 1723.06,-241.02 1737.06,-241.02 1737.06,-224.02 1723.06,-224.02"/>
<text text-anchor="start" x="1725.06" y="-229.42" font-family="sans-serif" font-size="12.00">D</text>
<polygon fill="white" stroke="transparent" points="1852.38,-445.45 1852.38,-462.45 1866.38,-462.45 1866.38,-445.45 1852.38,-445.45"/>
<text text-anchor="start" x="1854.38" y="-450.85" font-family="sans-serif" font-size="12.00">U</text>
</g>
<!-- GestionProductosContext&#45;&gt;CarritoComprasContext -->
<g id="edge6" class="edge">
<title>GestionProductosContext&#45;&gt;CarritoComprasContext</title>
<path fill="none" stroke="black" stroke-width="2" d="M2034.03,-371.31C2021.71,-379.43 2010.76,-389.46 2002.87,-401.83 1996.26,-412.2 1994.67,-425 1995.39,-437.24"/>
<text text-anchor="middle" x="2058.87" y="-405.23" font-family="sans-serif" font-size="12.00">Customer/Supplier</text>
<polygon fill="white" stroke="transparent" points="1988.39,-428.24 1988.39,-445.24 2002.39,-445.24 2002.39,-428.24 1988.39,-428.24"/>
<text text-anchor="start" x="1990.39" y="-433.64" font-family="sans-serif" font-size="12.00">D</text>
<polygon fill="white" stroke="transparent" points="2027.03,-362.31 2027.03,-379.31 2041.03,-379.31 2041.03,-362.31 2027.03,-362.31"/>
<text text-anchor="start" x="2029.03" y="-367.71" font-family="sans-serif" font-size="12.00">U</text>
</g>
<!-- GestionProductosContext&#45;&gt;GestionClientesContext -->
<g id="edge5" class="edge">
<title>GestionProductosContext&#45;&gt;GestionClientesContext</title>
<path fill="none" stroke="black" stroke-width="2" d="M2019.02,-304.58C1988.4,-295.28 1955.98,-284.07 1926.87,-271.24 1901.98,-260.27 1875.96,-245.49 1853.8,-231.77"/>
<text text-anchor="middle" x="1968.87" y="-261.64" font-family="sans-serif" font-size="12.00">Shared Kernel</text>
</g>
<!-- GestionDevolucionesContext -->
<g id="node6" class="node">
<title>GestionDevolucionesContext</title>
<polygon fill="none" stroke="black" stroke-width="2" points="2390.21,-196.97 2389.13,-199.85 2387.53,-202.69 2385.4,-205.49 2382.74,-208.24 2379.57,-210.92 2375.9,-213.53 2371.72,-216.06 2367.07,-218.49 2361.94,-220.82 2356.35,-223.04 2350.32,-225.14 2343.87,-227.11 2337,-228.95 2329.75,-230.65 2322.12,-232.21 2314.15,-233.62 2305.85,-234.88 2297.25,-236 2288.37,-236.96 2279.23,-237.76 2269.85,-238.41 2260.28,-238.91 2250.52,-239.26 2240.61,-239.46 2230.58,-239.51 2220.45,-239.42 2210.25,-239.2 2200,-238.84 2189.74,-238.35 2179.5,-237.74 2169.3,-237.01 2159.17,-236.16 2149.13,-235.22 2139.22,-234.17 2129.47,-233.03 2119.89,-231.81 2110.52,-230.5 2101.38,-229.12 2092.49,-227.67 2083.89,-226.16 2075.59,-224.6 2067.62,-222.98 2060,-221.32 2052.74,-219.62 2045.88,-217.88 2039.42,-216.11 2033.39,-214.31 2027.81,-212.49 2022.68,-210.65 2018.02,-208.8 2013.85,-206.93 2010.17,-205.04 2007,-203.15 2004.35,-201.25 2002.21,-199.34 2000.61,-197.43 1999.54,-195.51 1999,-193.6 1999,-191.68 1999.54,-189.76 2000.61,-187.85 2002.21,-185.93 2004.35,-184.03 2007,-182.12 2010.17,-180.23 2013.85,-178.35 2018.02,-176.48 2022.68,-174.62 2027.81,-172.78 2033.39,-170.96 2039.42,-169.16 2045.88,-167.4 2052.74,-165.66 2060,-163.96 2067.62,-162.29 2075.59,-160.68 2083.89,-159.11 2092.49,-157.6 2101.38,-156.15 2110.52,-154.77 2119.89,-153.47 2129.47,-152.24 2139.22,-151.1 2149.13,-150.06 2159.17,-149.11 2169.3,-148.27 2179.5,-147.54 2189.74,-146.93 2200,-146.44 2210.25,-146.08 2220.45,-145.85 2230.58,-145.76 2240.61,-145.81 2250.52,-146.01 2260.28,-146.36 2269.85,-146.86 2279.23,-147.51 2288.37,-148.32 2297.25,-149.28 2305.85,-150.39 2314.15,-151.65 2322.12,-153.07 2329.75,-154.63 2337,-156.33 2343.87,-158.17 2350.32,-160.14 2356.35,-162.24 2361.94,-164.45 2367.07,-166.78 2371.72,-169.22 2375.9,-171.74 2379.57,-174.35 2382.74,-177.04 2385.4,-179.78 2387.53,-182.59 2389.13,-185.43 2390.21,-188.3 2390.74,-191.19 2390.74,-194.08 2390.21,-196.97"/>
<text text-anchor="middle" x="2194.87" y="-188.84" font-family="sans-serif" font-size="16.00">GestionDevolucionesContext</text>
</g>
<!-- GestionProductosContext&#45;&gt;GestionDevolucionesContext -->
<g id="edge5" class="edge">
<title>GestionProductosContext&#45;&gt;GestionDevolucionesContext</title>
<path fill="none" stroke="black" stroke-width="2" d="M2156.49,-294.49C2163.22,-276.81 2171.1,-256.1 2177.97,-238.06"/>
<text text-anchor="middle" x="2245.37" y="-261.64" font-family="sans-serif" font-size="12.00"> &#160;&#160;&#160;&#160;&#160;&#160;&#160;&#160;&#160;&#160;&#160;&#160;&#160;&#160;&#160;&#160;&#160;&#160;&#160;&#160;&#160;&#160;&#160;&#160;&#160;&#160;&#160;&#160;&#160;&#160;&#160;&#160;&#160;&#160;&#160;&#160;&#160;&#160;&#160;</text>
<polygon fill="white" stroke="transparent" points="2158.97,-228.06 2158.97,-247.06 2174.97,-247.06 2174.97,-228.06 2158.97,-228.06"/>
<polyline fill="none" stroke="black" points="2174.97,-228.06 2174.97,-247.06 "/>
<text text-anchor="start" x="2161.97" y="-234.46" font-family="sans-serif" font-size="12.00">D</text>
<polygon fill="white" stroke="transparent" points="2174.97,-228.06 2174.97,-247.06 2196.97,-247.06 2196.97,-228.06 2174.97,-228.06"/>
<polygon fill="none" stroke="black" points="2174.97,-228.06 2174.97,-247.06 2196.97,-247.06 2196.97,-228.06 2174.97,-228.06"/>
<text text-anchor="start" x="2177.97" y="-234.46" font-family="sans-serif" font-size="12.00">CF</text>
<polygon fill="white" stroke="transparent" points="2121.49,-284.49 2121.49,-303.49 2137.49,-303.49 2137.49,-284.49 2121.49,-284.49"/>
<polyline fill="none" stroke="black" points="2137.49,-284.49 2137.49,-303.49 "/>
<text text-anchor="start" x="2124.49" y="-290.89" font-family="sans-serif" font-size="12.00">U</text>
<polygon fill="white" stroke="transparent" points="2137.49,-284.49 2137.49,-303.49 2192.49,-303.49 2192.49,-284.49 2137.49,-284.49"/>
<polygon fill="none" stroke="black" points="2137.49,-284.49 2137.49,-303.49 2192.49,-303.49 2192.49,-284.49 2137.49,-284.49"/>
<text text-anchor="start" x="2140.49" y="-290.89" font-family="sans-serif" font-size="12.00">OHS, PL</text>
</g>
<!-- GestionClientesContext&#45;&gt;CarritoComprasContext -->
<g id="edge8" class="edge">
<title>GestionClientesContext&#45;&gt;CarritoComprasContext</title>
<path fill="none" stroke="black" stroke-width="2" d="M1792.73,-236.17C1790.93,-277.58 1794.33,-340.44 1824.87,-383.83 1843.84,-410.78 1872.73,-430.87 1901.9,-445.54"/>
<text text-anchor="middle" x="1880.87" y="-333.44" font-family="sans-serif" font-size="12.00">Customer/Supplier</text>
<polygon fill="white" stroke="transparent" points="1894.9,-436.54 1894.9,-453.54 1908.9,-453.54 1908.9,-436.54 1894.9,-436.54"/>
<text text-anchor="start" x="1896.9" y="-441.94" font-family="sans-serif" font-size="12.00">D</text>
<polygon fill="white" stroke="transparent" points="1785.73,-227.17 1785.73,-244.17 1799.73,-244.17 1799.73,-227.17 1785.73,-227.17"/>
<text text-anchor="start" x="1787.73" y="-232.57" font-family="sans-serif" font-size="12.00">U</text>
</g>
<!-- GestionClientesContext&#45;&gt;GestionProductosContext -->
<g id="edge9" class="edge">
<title>GestionClientesContext&#45;&gt;GestionProductosContext</title>
<path fill="none" stroke="black" stroke-width="2" d="M1910.91,-222.48C1943.76,-232.27 1979.26,-244.32 2010.87,-258.24 2035.62,-269.14 2061.5,-283.79 2083.59,-297.39"/>
<text text-anchor="middle" x="2079.87" y="-261.64" font-family="sans-serif" font-size="12.00">Shared Kernel</text>
</g>
<!-- GestionPedidosContext -->
<g id="node7" class="node">
<title>GestionPedidosContext</title>
<polygon fill="none" stroke="black" stroke-width="2" points="2230.07,-76.47 2223.02,-74.31 2216.36,-72.09 2210.11,-69.8 2204.31,-67.47 2198.98,-65.11 2194.14,-62.71 2189.81,-60.29 2186.01,-57.85 2182.77,-55.42 2180.08,-52.98 2177.97,-50.56 2176.45,-48.15 2175.51,-45.78 2175.17,-43.43 2175.43,-41.12 2176.27,-38.86 2177.71,-36.65 2179.73,-34.49 2182.31,-32.4 2185.46,-30.37 2189.15,-28.41 2193.37,-26.52 2198.1,-24.71 2203.31,-22.98 2208.98,-21.32 2215.09,-19.75 2221.61,-18.27 2228.51,-16.87 2235.76,-15.55 2243.33,-14.33 2251.19,-13.19 2259.31,-12.14 2267.66,-11.18 2276.2,-10.31 2284.9,-9.52 2293.72,-8.83 2302.64,-8.23 2311.62,-7.71 2320.64,-7.28 2329.66,-6.94 2338.65,-6.69 2347.59,-6.52 2356.45,-6.44 2365.2,-6.45 2373.81,-6.55 2382.28,-6.73 2390.57,-7.01 2398.67,-7.37 2406.56,-7.81 2414.22,-8.35 2421.63,-8.97 2428.79,-9.68 2435.69,-10.48 2442.3,-11.37 2448.64,-12.35 2454.67,-13.41 2460.41,-14.56 2465.84,-15.81 2470.96,-17.13 2475.77,-18.55 2480.27,-20.04 2484.44,-21.63 2488.3,-23.29 2491.84,-25.03 2495.06,-26.85 2497.96,-28.75 2500.54,-30.72 2502.8,-32.75 2504.74,-34.85 2506.36,-37.01 2507.66,-39.22 2508.65,-41.49 2509.31,-43.8 2509.65,-46.14 2509.67,-48.52 2509.36,-50.92 2508.74,-53.34 2507.78,-55.77 2506.5,-58.21 2504.89,-60.63 2502.95,-63.05 2500.67,-65.44 2498.06,-67.8 2495.11,-70.12 2491.82,-72.39 2488.2,-74.6 2484.23,-76.75 2479.93,-78.82 2475.29,-80.82 2470.32,-82.71 2465.01,-84.51 2459.37,-86.21 2453.41,-87.79 2447.14,-89.24 2440.55,-90.57 2433.67,-91.77 2426.5,-92.83 2419.05,-93.74 2411.34,-94.51 2403.38,-95.13 2395.2,-95.59 2386.8,-95.9 2378.22,-96.04 2369.47,-96.03 2360.58,-95.87 2351.57,-95.54 2342.47,-95.06 2333.31,-94.43 2324.12,-93.64 2314.92,-92.71 2305.76,-91.63 2296.66,-90.42 2287.65,-89.07 2278.77,-87.6 2270.05,-86 2261.53,-84.29 2253.24,-82.48 2245.21,-80.56 2237.48,-78.56 2230.07,-76.47"/>
<text text-anchor="middle" x="2354.87" y="-44.21" font-family="sans-serif" font-size="16.00">GestionPedidosContext</text>
</g>
<!-- GestionDevolucionesContext&#45;&gt;GestionPedidosContext -->
<g id="edge8" class="edge">
<title>GestionDevolucionesContext&#45;&gt;GestionPedidosContext</title>
<path fill="none" stroke="black" stroke-width="2" d="M2158.04,-148.99C2152.14,-137.17 2150.18,-124.67 2157.87,-114.03 2171.91,-94.62 2191.94,-80.91 2213.91,-71.24"/>
<text text-anchor="middle" x="2213.87" y="-117.43" font-family="sans-serif" font-size="12.00">Customer/Supplier</text>
<polygon fill="white" stroke="transparent" points="2206.91,-62.24 2206.91,-79.24 2220.91,-79.24 2220.91,-62.24 2206.91,-62.24"/>
<text text-anchor="start" x="2208.91" y="-67.64" font-family="sans-serif" font-size="12.00">D</text>
<polygon fill="white" stroke="transparent" points="2151.04,-139.99 2151.04,-156.99 2165.04,-156.99 2165.04,-139.99 2151.04,-139.99"/>
<text text-anchor="start" x="2153.04" y="-145.39" font-family="sans-serif" font-size="12.00">U</text>
</g>
<!-- GestionPedidosContext&#45;&gt;CarritoComprasContext -->
<g id="edge12" class="edge">
<title>GestionPedidosContext&#45;&gt;CarritoComprasContext</title>
<path fill="none" stroke="black" stroke-width="2" d="M2392.85,-95.88C2396.11,-101.73 2398.9,-107.84 2400.87,-114.03 2437.98,-230.74 2434.48,-300.35 2344.87,-383.83 2297.74,-427.74 2232.07,-451.88 2171.06,-465.08"/>
<text text-anchor="middle" x="2476.87" y="-261.64" font-family="sans-serif" font-size="12.00">Customer/Supplier</text>
<polygon fill="white" stroke="transparent" points="2164.06,-456.08 2164.06,-473.08 2178.06,-473.08 2178.06,-456.08 2164.06,-456.08"/>
<text text-anchor="start" x="2166.06" y="-461.48" font-family="sans-serif" font-size="12.00">D</text>
<polygon fill="white" stroke="transparent" points="2385.85,-86.88 2385.85,-103.88 2399.85,-103.88 2399.85,-86.88 2385.85,-86.88"/>
<text text-anchor="start" x="2387.85" y="-92.28" font-family="sans-serif" font-size="12.00">U</text>
</g>
<!-- GestionPedidosContext&#45;&gt;GestionDevolucionesContext -->
<g id="edge11" class="edge">
<title>GestionPedidosContext&#45;&gt;GestionDevolucionesContext</title>
<path fill="none" stroke="black" stroke-width="2" d="M2308.35,-92.2C2295.92,-103.61 2282.45,-115.85 2269.87,-127.03 2262.94,-133.2 2255.59,-139.64 2248.32,-145.96"/>
<text text-anchor="middle" x="2340.87" y="-117.43" font-family="sans-serif" font-size="12.00">Customer/Supplier</text>
<polygon fill="white" stroke="transparent" points="2241.32,-136.96 2241.32,-153.96 2255.32,-153.96 2255.32,-136.96 2241.32,-136.96"/>
<text text-anchor="start" x="2243.32" y="-142.36" font-family="sans-serif" font-size="12.00">D</text>
<polygon fill="white" stroke="transparent" points="2301.35,-83.2 2301.35,-100.2 2315.35,-100.2 2315.35,-83.2 2301.35,-83.2"/>
<text text-anchor="start" x="2303.35" y="-88.6" font-family="sans-serif" font-size="12.00">U</text>
</g>
<!-- GestionSesionesContext -->
<g id="node9" class="node">
<title>GestionSesionesContext</title>
<polygon fill="none" stroke="black" stroke-width="2" points="2547.36,-664.59 2538.17,-666.21 2528.78,-667.71 2519.23,-669.1 2509.55,-670.36 2499.78,-671.49 2489.96,-672.49 2480.12,-673.34 2470.29,-674.06 2460.52,-674.63 2450.83,-675.04 2441.26,-675.31 2431.84,-675.42 2422.58,-675.38 2413.53,-675.19 2404.71,-674.84 2396.13,-674.34 2387.82,-673.69 2379.8,-672.89 2372.08,-671.94 2364.69,-670.86 2357.63,-669.63 2350.91,-668.28 2344.55,-666.8 2338.55,-665.2 2332.92,-663.49 2327.67,-661.67 2322.78,-659.75 2318.28,-657.74 2314.15,-655.65 2310.4,-653.49 2307.03,-651.25 2304.03,-648.96 2301.39,-646.62 2299.13,-644.24 2297.22,-641.83 2295.67,-639.39 2294.48,-636.94 2293.63,-634.49 2293.12,-632.03 2292.96,-629.59 2293.12,-627.16 2293.62,-624.76 2294.44,-622.39 2295.58,-620.06 2297.05,-617.78 2298.83,-615.55 2300.92,-613.37 2303.32,-611.26 2306.04,-609.21 2309.06,-607.24 2312.39,-605.34 2316.03,-603.52 2319.98,-601.78 2324.22,-600.12 2328.77,-598.56 2333.63,-597.08 2338.78,-595.69 2344.23,-594.4 2349.97,-593.19 2356.01,-592.08 2362.33,-591.07 2368.93,-590.15 2375.81,-589.32 2382.95,-588.59 2390.35,-587.96 2398,-587.42 2405.88,-586.97 2413.98,-586.62 2422.28,-586.35 2430.78,-586.19 2439.45,-586.11 2448.26,-586.12 2457.21,-586.23 2466.26,-586.42 2475.39,-586.71 2484.58,-587.08 2493.8,-587.54 2503.01,-588.09 2512.19,-588.73 2521.3,-589.46 2530.32,-590.27 2539.22,-591.17 2547.95,-592.15 2556.48,-593.22 2564.79,-594.37 2572.83,-595.61 2580.58,-596.92 2588,-598.32 2595.06,-599.8 2601.72,-601.36 2607.96,-602.99 2613.75,-604.7 2619.06,-606.48 2623.86,-608.33 2628.14,-610.24 2631.86,-612.22 2635.02,-614.26 2637.59,-616.36 2639.56,-618.51 2640.92,-620.7 2641.66,-622.94 2641.77,-625.21 2641.25,-627.52 2640.11,-629.84 2638.34,-632.19 2635.95,-634.55 2632.95,-636.92 2629.36,-639.28 2625.18,-641.63 2620.43,-643.97 2615.14,-646.28 2609.33,-648.56 2603.01,-650.79 2596.23,-652.98 2589,-655.1 2581.36,-657.17 2573.34,-659.15 2564.98,-661.06 2556.31,-662.87 2547.36,-664.59"/>
<text text-anchor="middle" x="2453.87" y="-624.08" font-family="sans-serif" font-size="16.00">GestionSesionesContext</text>
</g>
<!-- IntegracionRedesSocialesContext -->
<g id="node10" class="node">
<title>IntegracionRedesSocialesContext</title>
<polygon fill="none" stroke="black" stroke-width="2" points="823.9,-645.53 818.26,-648.18 812.1,-650.76 805.42,-653.27 798.27,-655.7 790.66,-658.02 782.62,-660.25 774.18,-662.35 765.36,-664.34 756.19,-666.19 746.7,-667.91 736.92,-669.48 726.88,-670.91 716.6,-672.18 706.11,-673.29 695.45,-674.24 684.65,-675.03 673.72,-675.65 662.7,-676.11 651.62,-676.4 640.5,-676.54 629.37,-676.5 618.25,-676.31 607.18,-675.97 596.18,-675.47 585.27,-674.83 574.47,-674.04 563.81,-673.12 553.32,-672.07 543.01,-670.89 532.91,-669.6 523.04,-668.2 513.42,-666.7 504.07,-665.11 495.01,-663.43 486.26,-661.67 477.84,-659.85 469.76,-657.96 462.05,-656.02 454.73,-654.03 447.8,-652 441.28,-649.94 435.2,-647.85 429.57,-645.75 424.4,-643.63 419.7,-641.51 415.49,-639.38 411.79,-637.26 408.6,-635.15 405.93,-633.05 403.81,-630.96 402.22,-628.9 401.2,-626.85 400.73,-624.84 400.83,-622.85 401.5,-620.89 402.76,-618.97 404.59,-617.08 407,-615.22 409.99,-613.4 413.56,-611.62 417.71,-609.88 422.42,-608.17 427.7,-606.51 433.53,-604.89 439.91,-603.32 446.81,-601.78 454.24,-600.3 462.16,-598.86 470.57,-597.47 479.43,-596.13 488.74,-594.84 498.47,-593.61 508.59,-592.44 519.07,-591.33 529.89,-590.28 541.02,-589.3 552.41,-588.39 564.05,-587.55 575.9,-586.79 587.92,-586.12 600.07,-585.53 612.32,-585.03 624.62,-584.62 636.95,-584.31 649.25,-584.11 661.5,-584.01 673.65,-584.03 685.66,-584.16 697.49,-584.4 709.11,-584.77 720.47,-585.26 731.55,-585.88 742.29,-586.63 752.67,-587.5 762.66,-588.51 772.21,-589.65 781.31,-590.91 789.92,-592.31 798.01,-593.84 805.56,-595.49 812.54,-597.26 818.94,-599.15 824.73,-601.16 829.91,-603.28 834.44,-605.5 838.33,-607.82 841.57,-610.22 844.14,-612.72 846.04,-615.28 847.27,-617.91 847.83,-620.6 847.72,-623.33 846.96,-626.09 845.53,-628.89 843.46,-631.69 840.76,-634.5 837.44,-637.3 833.51,-640.08 828.99,-642.82 823.9,-645.53"/>
<text text-anchor="middle" x="619.87" y="-624.08" font-family="sans-serif" font-size="16.00">IntegracionRedesSocialesContext</text>
</g>
<!-- IntegracionRedesSocialesContext&#45;&gt;VentasContext -->
<g id="edge13" class="edge">
<title>IntegracionRedesSocialesContext&#45;&gt;VentasContext</title>
<path fill="none" stroke="black" stroke-width="2" d="M694.46,-584.14C731.18,-563.1 774.93,-538.03 809.79,-518.05"/>
<text text-anchor="middle" x="788.37" y="-551.51" font-family="sans-serif" font-size="12.00">Partnership</text>
</g>
<!-- NotificacionesComunicacionesContext -->
<g id="node11" class="node">
<title>NotificacionesComunicacionesContext</title>
<polygon fill="none" stroke="black" stroke-width="2" points="883.66,-640.19 878.82,-637.46 874.68,-634.72 871.24,-631.97 868.54,-629.22 866.58,-626.49 865.38,-623.78 864.94,-621.11 865.28,-618.49 866.39,-615.92 868.29,-613.42 870.96,-610.98 874.4,-608.63 878.6,-606.37 883.56,-604.2 889.26,-602.13 895.69,-600.17 902.81,-598.31 910.62,-596.57 919.09,-594.95 928.19,-593.45 937.88,-592.07 948.15,-590.81 958.94,-589.68 970.24,-588.67 981.99,-587.78 994.16,-587.02 1006.7,-586.37 1019.58,-585.85 1032.75,-585.44 1046.17,-585.15 1059.79,-584.97 1073.56,-584.9 1087.44,-584.93 1101.38,-585.07 1115.34,-585.3 1129.27,-585.63 1143.13,-586.04 1156.87,-586.55 1170.45,-587.14 1183.84,-587.81 1196.98,-588.56 1209.84,-589.38 1222.39,-590.27 1234.59,-591.23 1246.4,-592.25 1257.79,-593.34 1268.74,-594.48 1279.22,-595.69 1289.19,-596.95 1298.65,-598.27 1307.56,-599.64 1315.91,-601.07 1323.69,-602.54 1330.87,-604.07 1337.45,-605.64 1343.41,-607.27 1348.75,-608.94 1353.46,-610.65 1357.54,-612.42 1360.98,-614.22 1363.78,-616.07 1365.95,-617.96 1367.48,-619.9 1368.38,-621.86 1368.66,-623.87 1368.32,-625.91 1367.36,-627.98 1365.8,-630.07 1363.65,-632.19 1360.91,-634.33 1357.6,-636.48 1353.73,-638.65 1349.3,-640.82 1344.34,-642.98 1338.86,-645.15 1332.87,-647.3 1326.39,-649.43 1319.42,-651.54 1311.99,-653.61 1304.12,-655.64 1295.81,-657.62 1287.1,-659.55 1277.98,-661.41 1268.49,-663.2 1258.64,-664.9 1248.45,-666.52 1237.93,-668.05 1227.12,-669.46 1216.03,-670.77 1204.68,-671.95 1193.1,-673.01 1181.31,-673.94 1169.33,-674.73 1157.19,-675.37 1144.91,-675.87 1132.52,-676.21 1120.06,-676.39 1107.54,-676.41 1094.99,-676.27 1082.45,-675.97 1069.95,-675.5 1057.52,-674.87 1045.19,-674.07 1033,-673.11 1020.97,-671.99 1009.14,-670.72 997.55,-669.29 986.23,-667.72 975.21,-666.01 964.53,-664.16 954.23,-662.19 944.33,-660.1 934.88,-657.9 925.9,-655.59 917.42,-653.19 909.48,-650.72 902.1,-648.17 895.33,-645.56 889.17,-642.89 883.66,-640.19"/>
<text text-anchor="middle" x="1123.87" y="-624.08" font-family="sans-serif" font-size="16.00">NotificacionesComunicacionesContext</text>
</g>
<!-- NotificacionesComunicacionesContext&#45;&gt;VentasContext -->
<g id="edge14" class="edge">
<title>NotificacionesComunicacionesContext&#45;&gt;VentasContext</title>
<path fill="none" stroke="black" stroke-width="2" d="M1050.64,-584.92C1015.33,-564.68 973.27,-540.58 938.82,-520.84"/>
<text text-anchor="middle" x="1040.37" y="-551.51" font-family="sans-serif" font-size="12.00">Partnership</text>
</g>
<!-- ProcesoPagosContext -->
<g id="node12" class="node">
<title>ProcesoPagosContext</title>
<polygon fill="none" stroke="black" stroke-width="2" points="2450.62,-183 2452.67,-180.18 2455.11,-177.41 2457.94,-174.69 2461.16,-172.04 2464.74,-169.47 2468.69,-166.98 2472.98,-164.6 2477.61,-162.31 2482.56,-160.15 2487.82,-158.1 2493.37,-156.19 2499.2,-154.41 2505.29,-152.78 2511.62,-151.29 2518.17,-149.95 2524.93,-148.77 2531.89,-147.74 2539.01,-146.88 2546.29,-146.17 2553.7,-145.62 2561.22,-145.23 2568.84,-145 2576.53,-144.92 2584.28,-145 2592.06,-145.22 2599.86,-145.58 2607.66,-146.09 2615.43,-146.72 2623.16,-147.49 2630.82,-148.37 2638.4,-149.38 2645.88,-150.49 2653.24,-151.7 2660.47,-153.01 2667.53,-154.4 2674.42,-155.88 2681.12,-157.43 2687.6,-159.05 2693.86,-160.72 2699.88,-162.46 2705.64,-164.23 2711.12,-166.05 2716.31,-167.91 2721.2,-169.79 2725.78,-171.7 2730.02,-173.63 2733.93,-175.57 2737.48,-177.53 2740.67,-179.49 2743.49,-181.46 2745.92,-183.43 2747.97,-185.4 2749.62,-187.36 2750.87,-189.31 2751.72,-191.26 2752.15,-193.2 2752.17,-195.13 2751.78,-197.04 2750.96,-198.94 2749.74,-200.83 2748.1,-202.7 2746.05,-204.55 2743.6,-206.38 2740.74,-208.19 2737.49,-209.98 2733.85,-211.74 2729.83,-213.48 2725.44,-215.2 2720.7,-216.88 2715.61,-218.53 2710.19,-220.14 2704.44,-221.72 2698.4,-223.25 2692.07,-224.74 2685.47,-226.18 2678.62,-227.56 2671.54,-228.89 2664.25,-230.15 2656.77,-231.34 2649.12,-232.46 2641.32,-233.49 2633.39,-234.45 2625.36,-235.31 2617.26,-236.08 2609.1,-236.74 2600.9,-237.3 2592.7,-237.74 2584.52,-238.07 2576.38,-238.27 2568.31,-238.35 2560.32,-238.29 2552.44,-238.1 2544.71,-237.78 2537.13,-237.31 2529.73,-236.7 2522.53,-235.94 2515.56,-235.04 2508.83,-233.99 2502.36,-232.8 2496.18,-231.46 2490.29,-229.98 2484.73,-228.36 2479.49,-226.61 2474.6,-224.73 2470.07,-222.72 2465.91,-220.59 2462.13,-218.34 2458.74,-215.99 2455.76,-213.55 2453.19,-211.01 2451.03,-208.39 2449.29,-205.7 2447.97,-202.96 2447.08,-200.16 2446.61,-197.33 2446.57,-194.47 2446.96,-191.59 2447.76,-188.72 2448.99,-185.85 2450.62,-183"/>
<text text-anchor="middle" x="2599.87" y="-188.84" font-family="sans-serif" font-size="16.00">ProcesoPagosContext</text>
</g>
<!-- ProcesoPagosContext&#45;&gt;GestionPedidosContext -->
<g id="edge15" class="edge">
<title>ProcesoPagosContext&#45;&gt;GestionPedidosContext</title>
<path fill="none" stroke="black" stroke-width="2" d="M2525.7,-148.46C2495.28,-130.75 2460.12,-110.28 2429.64,-92.54"/>
<text text-anchor="middle" x="2540.87" y="-117.43" font-family="sans-serif" font-size="12.00">Customer/Supplier</text>
<polygon fill="white" stroke="transparent" points="2422.64,-83.54 2422.64,-100.54 2436.64,-100.54 2436.64,-83.54 2422.64,-83.54"/>
<text text-anchor="start" x="2424.64" y="-88.94" font-family="sans-serif" font-size="12.00">D</text>
<polygon fill="white" stroke="transparent" points="2518.7,-139.46 2518.7,-156.46 2532.7,-156.46 2532.7,-139.46 2518.7,-139.46"/>
<text text-anchor="start" x="2520.7" y="-144.86" font-family="sans-serif" font-size="12.00">U</text>
</g>
<!-- SeguridadContext -->
<g id="node13" class="node">
<title>SeguridadContext</title>
<polygon fill="none" stroke="black" stroke-width="2" points="2798.63,-671.65 2789.78,-671.56 2781.01,-671.35 2772.34,-671.02 2763.82,-670.58 2755.47,-670.01 2747.33,-669.32 2739.44,-668.53 2731.81,-667.61 2724.48,-666.59 2717.48,-665.46 2710.83,-664.23 2704.55,-662.89 2698.66,-661.45 2693.18,-659.93 2688.12,-658.31 2683.5,-656.6 2679.33,-654.82 2675.61,-652.96 2672.34,-651.03 2669.55,-649.03 2667.21,-646.98 2665.33,-644.87 2663.91,-642.71 2662.94,-640.51 2662.42,-638.28 2662.32,-636.01 2662.65,-633.73 2663.38,-631.43 2664.51,-629.11 2666.02,-626.8 2667.89,-624.49 2670.1,-622.18 2672.65,-619.9 2675.5,-617.63 2678.64,-615.4 2682.05,-613.2 2685.72,-611.04 2689.62,-608.93 2693.74,-606.88 2698.06,-604.88 2702.56,-602.95 2707.23,-601.09 2712.05,-599.3 2717.01,-597.6 2722.09,-595.98 2727.28,-594.44 2732.57,-593.01 2737.95,-591.67 2743.4,-590.43 2748.93,-589.29 2754.52,-588.27 2760.16,-587.35 2765.85,-586.54 2771.59,-585.85 2777.36,-585.28 2783.16,-584.82 2789,-584.48 2794.86,-584.26 2800.74,-584.16 2806.64,-584.18 2812.55,-584.32 2818.47,-584.58 2824.4,-584.96 2830.32,-585.45 2836.24,-586.06 2842.15,-586.78 2848.04,-587.61 2853.9,-588.55 2859.73,-589.6 2865.51,-590.75 2871.24,-592 2876.9,-593.35 2882.47,-594.79 2887.95,-596.32 2893.32,-597.93 2898.57,-599.63 2903.67,-601.4 2908.61,-603.23 2913.37,-605.14 2917.93,-607.11 2922.28,-609.13 2926.38,-611.2 2930.23,-613.31 2933.79,-615.47 2937.06,-617.66 2940.01,-619.87 2942.61,-622.11 2944.86,-624.36 2946.73,-626.62 2948.21,-628.89 2949.27,-631.15 2949.91,-633.4 2950.11,-635.64 2949.85,-637.86 2949.14,-640.06 2947.95,-642.22 2946.29,-644.34 2944.15,-646.42 2941.53,-648.45 2938.43,-650.43 2934.86,-652.34 2930.81,-654.19 2926.31,-655.97 2921.35,-657.68 2915.96,-659.3 2910.14,-660.85 2903.93,-662.3 2897.33,-663.66 2890.37,-664.93 2883.08,-666.09 2875.49,-667.15 2867.62,-668.11 2859.5,-668.95 2851.17,-669.69 2842.65,-670.31 2834,-670.81 2825.23,-671.2 2816.39,-671.47 2807.51,-671.62 2798.63,-671.65"/>
<text text-anchor="middle" x="2804.87" y="-624.08" font-family="sans-serif" font-size="16.00">SeguridadContext</text>
</g>
<!-- ServicioClienteContext -->
<g id="node14" class="node">
<title>ServicioClienteContext</title>
<polygon fill="none" stroke="black" stroke-width="2" points="1551.36,-671.29 1540.86,-670.95 1530.49,-670.49 1520.29,-669.92 1510.3,-669.23 1500.55,-668.43 1491.09,-667.52 1481.95,-666.51 1473.17,-665.38 1464.79,-664.16 1456.82,-662.84 1449.3,-661.42 1442.26,-659.91 1435.72,-658.32 1429.69,-656.64 1424.2,-654.89 1419.25,-653.06 1414.85,-651.16 1411.03,-649.21 1407.77,-647.19 1405.08,-645.13 1402.96,-643.02 1401.41,-640.86 1400.41,-638.67 1399.97,-636.46 1400.06,-634.22 1400.68,-631.96 1401.8,-629.7 1403.41,-627.42 1405.5,-625.15 1408.04,-622.89 1411.01,-620.64 1414.38,-618.41 1418.14,-616.2 1422.26,-614.03 1426.72,-611.9 1431.49,-609.8 1436.54,-607.76 1441.86,-605.77 1447.43,-603.84 1453.21,-601.97 1459.18,-600.17 1465.34,-598.45 1471.64,-596.81 1478.09,-595.25 1484.65,-593.78 1491.32,-592.4 1498.08,-591.12 1504.91,-589.94 1511.8,-588.86 1518.74,-587.88 1525.71,-587.02 1532.72,-586.26 1539.75,-585.62 1546.8,-585.1 1553.85,-584.69 1560.9,-584.39 1567.95,-584.22 1574.99,-584.17 1582.02,-584.23 1589.03,-584.42 1596.02,-584.73 1602.98,-585.15 1609.91,-585.69 1616.8,-586.35 1623.65,-587.12 1630.44,-588.01 1637.18,-589 1643.85,-590.11 1650.45,-591.31 1656.96,-592.62 1663.36,-594.03 1669.66,-595.53 1675.83,-597.12 1681.86,-598.8 1687.73,-600.56 1693.42,-602.39 1698.92,-604.29 1704.21,-606.26 1709.26,-608.3 1714.05,-610.38 1718.57,-612.52 1722.79,-614.69 1726.68,-616.91 1730.23,-619.16 1733.41,-621.43 1736.21,-623.71 1738.59,-626.01 1740.54,-628.32 1742.03,-630.63 1743.06,-632.92 1743.6,-635.2 1743.63,-637.47 1743.15,-639.7 1742.13,-641.91 1740.57,-644.07 1738.47,-646.19 1735.81,-648.25 1732.6,-650.26 1728.83,-652.21 1724.51,-654.09 1719.64,-655.9 1714.23,-657.63 1708.3,-659.27 1701.85,-660.83 1694.91,-662.3 1687.5,-663.67 1679.64,-664.94 1671.35,-666.11 1662.67,-667.18 1653.62,-668.13 1644.24,-668.97 1634.57,-669.7 1624.64,-670.32 1614.49,-670.81 1604.17,-671.19 1593.71,-671.45 1583.15,-671.59 1572.55,-671.61 1561.93,-671.51 1551.36,-671.29"/>
<text text-anchor="middle" x="1572.87" y="-624.08" font-family="sans-serif" font-size="16.00">ServicioClienteContext</text>
</g>
<!-- ServicioClienteContext&#45;&gt;VentasContext -->
<g id="edge16" class="edge">
<title>ServicioClienteContext&#45;&gt;VentasContext</title>
<path fill="none" stroke="black" stroke-width="2" d="M1467.92,-597.77C1443.07,-591.27 1416.61,-584.67 1391.87,-579.11 1248.75,-546.98 1081.76,-517.32 976.42,-499.56"/>
<text text-anchor="middle" x="1342.37" y="-551.51" font-family="sans-serif" font-size="12.00">Partnership</text>
</g>
</g>
</svg>
